<svg width="32" height="32" viewBox="0 0 32 32" fill="none" xmlns="http://www.w3.org/2000/svg">
<path opacity="0.15" d="M26.6826 12.2737V26.211C26.6826 27.8896 25.3219 29.2504 23.6432 29.2504H11.0394C9.36079 29.2504 8 27.8896 8 26.211V8.03943C8 6.3608 9.3608 5 11.0394 5H19.357L26.6826 12.2737Z" fill="#2B63D9"/>
<path fill-rule="evenodd" clip-rule="evenodd" d="M9.03943 3.75C7.77501 3.75 6.75 4.77501 6.75 6.03943V24.211C6.75 25.4754 7.77501 26.5004 9.03942 26.5004H21.6432C22.9076 26.5004 23.9326 25.4754 23.9326 24.211V11.0231H19.6991C18.1501 11.0231 16.607 9.76066 16.607 8.06759V3.75H9.03943ZM18.107 4.80159V8.06759C18.107 8.81094 18.8517 9.52314 19.6991 9.52314H22.8623L18.107 4.80159ZM17.8855 2.46779C17.745 2.32833 17.555 2.25 17.357 2.25H9.03943C6.94658 2.25 5.25 3.94658 5.25 6.03943V24.211C5.25 26.3038 6.94658 28.0004 9.03942 28.0004H21.6432C23.7361 28.0004 25.4326 26.3038 25.4326 24.211V10.3219C25.4465 10.1093 25.3692 9.89633 25.2126 9.74085L17.8855 2.46779Z" fill="#2B63D9"/>
</svg>
