<svg width="32" height="32" viewBox="0 0 32 32" fill="none" xmlns="http://www.w3.org/2000/svg">
<path opacity="0.15" fill-rule="evenodd" clip-rule="evenodd" d="M27.3426 18.0607V13.1438L20.017 5.87012H11.6994C10.0208 5.87012 8.65997 7.23092 8.65997 8.90954V27.0811C8.65997 28.7597 10.0208 30.1205 11.6994 30.1205H19.5999C18.3628 28.7993 17.6054 27.0234 17.6054 25.0706C17.6054 20.9891 20.9142 17.6803 24.9958 17.6803C25.8161 17.6803 26.6053 17.814 27.3426 18.0607Z" fill="#9DA7B2"/>
<path fill-rule="evenodd" clip-rule="evenodd" d="M7.40997 6.90954C7.40997 5.64513 8.43498 4.62012 9.6994 4.62012H17.267V8.93771C17.267 10.6308 18.81 11.8933 20.3591 11.8933H24.5926V17.6911C24.7261 17.6839 24.8605 17.6803 24.9958 17.6803C25.3685 17.6803 25.7347 17.7079 26.0926 17.7611V11.192C26.1064 10.9794 26.0292 10.7664 25.8725 10.611L18.5454 3.3379C18.4049 3.19845 18.2149 3.12012 18.017 3.12012H9.6994C7.60656 3.12012 5.90997 4.8167 5.90997 6.90954V25.0811C5.90997 27.174 7.60655 28.8705 9.6994 28.8705H18.6559C18.3744 28.4018 18.1433 27.8993 17.9703 27.3705H9.6994C8.43498 27.3705 7.40997 26.3455 7.40997 25.0811V6.90954ZM18.767 8.93771V5.67171L23.5222 10.3933H20.3591C19.5117 10.3933 18.767 9.68105 18.767 8.93771Z" fill="#9DA7B2"/>
<path fill-rule="evenodd" clip-rule="evenodd" d="M30.0703 25.0703C30.0703 27.8317 27.8317 30.0703 25.0703 30.0703C22.3089 30.0703 20.0703 27.8317 20.0703 25.0703C20.0703 22.3089 22.3089 20.0703 25.0703 20.0703C27.8317 20.0703 30.0703 22.3089 30.0703 25.0703ZM28.1385 23.5599C28.4089 23.2461 28.3737 22.7725 28.0599 22.5021C27.7461 22.2318 27.2725 22.267 27.0021 22.5808L24.0738 25.9794L23.0913 25.0308C22.7933 24.7431 22.3185 24.7514 22.0308 25.0494C21.7431 25.3474 21.7514 25.8222 22.0494 26.1099L23.6029 27.6099C23.7513 27.7531 23.9522 27.829 24.1583 27.8195C24.3643 27.8101 24.5574 27.7161 24.6921 27.5599L28.1385 23.5599Z" fill="#2B63D9"/>
</svg>
