<svg width="32" height="32" viewBox="0 0 32 32" fill="none" xmlns="http://www.w3.org/2000/svg">
<path d="M16 8.25745H26M16 12.3868H23" stroke="#2B63D9" stroke-width="1.5" stroke-linecap="round"/>
<path d="M16 20.2574H22.5M16 24.2574H21" stroke="#2B63D9" stroke-width="1.5" stroke-linecap="round"/>
<path d="M10.25 7.25757H5.5C5.22386 7.25757 5 7.48143 5 7.75757V13.7576C5 14.0337 5.22386 14.2576 5.5 14.2576H11.5C11.7761 14.2576 12 14.0337 12 13.7576V12.5076" stroke="#2B63D9" stroke-width="1.5" stroke-linecap="round" stroke-linejoin="round"/>
<path fill-rule="evenodd" clip-rule="evenodd" d="M13.4553 7.19779C13.7603 7.47808 13.7803 7.95253 13.5 8.25751L9.2818 12.3172C9.00301 12.6206 8.53172 12.6422 8.22627 12.3658L6.80266 10.6782C6.49557 10.4003 6.47197 9.92599 6.74994 9.61889C7.02791 9.3118 7.5022 9.28819 7.80929 9.56617L8.68105 10.7542L12.3956 7.24249C12.6759 6.93751 13.1503 6.9175 13.4553 7.19779Z" fill="#2B63D9"/>
<rect x="5" y="18.2576" width="7" height="7" rx="0.5" stroke="#2B63D9" stroke-width="1.5" stroke-linecap="round"/>
<path fill-rule="evenodd" clip-rule="evenodd" d="M24.5 30C28.6421 30 32 26.6421 32 22.5C32 18.3579 28.6421 15 24.5 15C20.3579 15 17 18.3579 17 22.5C17 26.6421 20.3579 30 24.5 30ZM25.25 19C25.25 18.5858 24.9142 18.25 24.5 18.25C24.0858 18.25 23.75 18.5858 23.75 19V21.75H21C20.5858 21.75 20.25 22.0858 20.25 22.5C20.25 22.9142 20.5858 23.25 21 23.25H23.75V26C23.75 26.4142 24.0858 26.75 24.5 26.75C24.9142 26.75 25.25 26.4142 25.25 26V23.25H28C28.4142 23.25 28.75 22.9142 28.75 22.5C28.75 22.0858 28.4142 21.75 28 21.75H25.25V19Z" fill="#2B63D9"/>
</svg>
