<svg width="25" height="24" viewBox="0 0 25 24" fill="none" xmlns="http://www.w3.org/2000/svg">
<path fill-rule="evenodd" clip-rule="evenodd" d="M8.26133 19C8.008 19 7.82134 18.94 7.70133 18.82C7.58133 18.7 7.52133 18.5133 7.52133 18.26L7.5013 5.74C7.5013 5.47333 7.58133 5.28333 7.70133 5.17C7.82134 5.05667 8.008 5 8.26133 5H13.28C14.84 5 16.0033 5.31666 16.77 5.95C17.5367 6.58334 17.92 7.44666 17.92 8.54C17.92 9.20667 17.71 9.82333 17.29 10.39C16.87 10.9567 16.3533 11.3533 15.74 11.58L15.76 11.66C16.1467 11.7267 16.5533 11.9067 16.98 12.2C17.4067 12.4933 17.7667 12.8767 18.06 13.35C18.3533 13.8233 18.5 14.36 18.5 14.96C18.5 16.28 18.0733 17.2833 17.22 17.97C16.3667 18.6567 15.1 19 13.42 19H8.26133ZM13.2296 10.74C13.9167 10.74 14.4671 10.57 14.8808 10.23C15.2945 9.89 15.5013 9.46 15.5013 8.94C15.5013 7.79333 14.7441 7.22 13.2296 7.22H9.78V10.74H13.2296ZM13.8195 16.76C14.5451 16.76 15.1033 16.59 15.494 16.25C15.8847 15.91 16.08 15.4267 16.08 14.8C16.08 14.2133 15.8567 13.7633 15.4102 13.45C14.9637 13.1367 14.3219 12.98 13.4847 12.98H9.78V16.76H13.8195Z" fill="#252F3D"/>
</svg>
