<svg width="25" height="24" viewBox="0 0 25 24" fill="none" xmlns="http://www.w3.org/2000/svg">
<path fill-rule="evenodd" clip-rule="evenodd" d="M11.5 5H19.5C20.0523 5 20.5 5.44772 20.5 6C20.5 6.55228 20.0523 7 19.5 7H11.5C10.9477 7 10.5 6.55228 10.5 6C10.5 5.44772 10.9477 5 11.5 5ZM11.5 11H19.5C20.0523 11 20.5 11.4477 20.5 12C20.5 12.5523 20.0523 13 19.5 13H11.5C10.9477 13 10.5 12.5523 10.5 12C10.5 11.4477 10.9477 11 11.5 11ZM11.5 17H19.5C20.0523 17 20.5 17.4477 20.5 18C20.5 18.5523 20.0523 19 19.5 19H11.5C10.9477 19 10.5 18.5523 10.5 18C10.5 17.4477 10.9477 17 11.5 17ZM5 6C5 5.58594 5.14648 5.23242 5.43945 4.93945C5.73242 4.64648 6.08594 4.5 6.5 4.5C6.91406 4.5 7.26758 4.64648 7.56055 4.93945C7.85352 5.23242 8 5.58594 8 6C8 6.41406 7.85352 6.76758 7.56055 7.06055C7.26758 7.35352 6.91406 7.5 6.5 7.5C6.08594 7.5 5.73242 7.35352 5.43945 7.06055C5.14648 6.76758 5 6.41406 5 6ZM5 12C5 11.5859 5.14648 11.2324 5.43945 10.9395C5.73242 10.6465 6.08594 10.5 6.5 10.5C6.91406 10.5 7.26758 10.6465 7.56055 10.9395C7.85352 11.2324 8 11.5859 8 12C8 12.4141 7.85352 12.7676 7.56055 13.0605C7.26758 13.3535 6.91406 13.5 6.5 13.5C6.08594 13.5 5.73242 13.3535 5.43945 13.0605C5.14648 12.7676 5 12.4141 5 12ZM5 18C5 17.5859 5.14648 17.2324 5.43945 16.9395C5.73242 16.6465 6.08594 16.5 6.5 16.5C6.91406 16.5 7.26758 16.6465 7.56055 16.9395C7.85352 17.2324 8 17.5859 8 18C8 18.4141 7.85352 18.7676 7.56055 19.0605C7.26758 19.3535 6.91406 19.5 6.5 19.5C6.08594 19.5 5.73242 19.3535 5.43945 19.0605C5.14648 18.7676 5 18.4141 5 18Z" fill="#252F3D"/>
</svg>
