<svg width="32" height="32" viewBox="0 0 32 32" fill="none" xmlns="http://www.w3.org/2000/svg">
<path d="M10.7647 14.8614L9.99612 14.6943C9.92929 14.4897 9.84651 14.2901 9.74878 14.0978L10.1743 13.436C10.2503 13.3177 10.2336 13.1625 10.1342 13.0631L8.93686 11.8658C8.83752 11.7664 8.68227 11.7497 8.56401 11.8257L7.90216 12.2512C7.7099 12.1535 7.51031 12.0707 7.30569 12.0039L7.13861 11.2353C7.10878 11.098 6.98717 11 6.84663 11H5.15337C5.01283 11 4.89122 11.098 4.86139 11.2353L4.69431 12.0039C4.48969 12.0707 4.2901 12.1535 4.09784 12.2512L3.43599 11.8257C3.31773 11.7497 3.16248 11.7664 3.06314 11.8658L1.86578 13.0631C1.76645 13.1625 1.74974 13.3177 1.82573 13.436L2.25122 14.0978C2.15349 14.2901 2.07071 14.4897 2.00388 14.6943L1.23529 14.8614C1.09796 14.8913 1 15.0128 1 15.1534V16.8466C1 16.9872 1.09796 17.1087 1.23529 17.1386L2.00388 17.3057C2.07071 17.5103 2.15349 17.7099 2.25122 17.9022L1.82573 18.564C1.74974 18.6823 1.76645 18.8375 1.86578 18.9369L3.06314 20.1342C3.16248 20.2336 3.31773 20.2503 3.43599 20.1743L4.09784 19.7488C4.2901 19.8465 4.48969 19.9293 4.69431 19.9961L4.86139 20.7647C4.89122 20.902 5.01283 21 5.15337 21H6.84663C6.98717 21 7.10878 20.902 7.13861 20.7647L7.30569 19.9961C7.51031 19.9293 7.7099 19.8465 7.90216 19.7488L8.56401 20.1743C8.68227 20.2503 8.83752 20.2336 8.93686 20.1342L10.1342 18.9369C10.2336 18.8375 10.2503 18.6823 10.1743 18.564L9.74878 17.9022C9.84651 17.7099 9.92929 17.5103 9.99612 17.3057L10.7647 17.1386C10.902 17.1087 11 16.9872 11 16.8466V15.1534C11 15.0128 10.902 14.8913 10.7647 14.8614ZM7.79283 16C7.79283 16.9885 6.98854 17.7928 6 17.7928C5.01146 17.7928 4.20717 16.9885 4.20717 16C4.20717 15.0115 5.01146 14.2072 6 14.2072C6.98854 14.2072 7.79283 15.0115 7.79283 16Z" stroke="#2B63D9" stroke-width="1.3" stroke-linejoin="round"/>
<rect x="20.75" y="2.75" width="8.5" height="4.5" rx="1.25" stroke="#2B63D9" stroke-width="1.5"/>
<rect x="20.75" y="13.75" width="8.5" height="4.5" rx="1.25" stroke="#2B63D9" stroke-width="1.5"/>
<path d="M18 5L17 5C15.8954 5 15 5.89543 15 7L15 25C15 26.1046 15.8954 27 17 27L18 27" stroke="#2B63D9" stroke-width="1.5" stroke-linecap="round"/>
<path d="M14 16H18" stroke="#2B63D9" stroke-width="1.5" stroke-linecap="round"/>
<path fill-rule="evenodd" clip-rule="evenodd" d="M28 25.5H22C21.7239 25.5 21.5 25.7239 21.5 26V28C21.5 28.2761 21.7239 28.5 22 28.5H28C28.2761 28.5 28.5 28.2761 28.5 28V26C28.5 25.7239 28.2761 25.5 28 25.5ZM22 24C20.8954 24 20 24.8954 20 26V28C20 29.1046 20.8954 30 22 30H28C29.1046 30 30 29.1046 30 28V26C30 24.8954 29.1046 24 28 24H22Z" fill="#2B63D9"/>
</svg>
