<svg width="32" height="32" viewBox="0 0 32 32" fill="none" xmlns="http://www.w3.org/2000/svg">
<path d="M5.69149 23.6115L13.5699 28.456C14.7494 29.1813 16.2506 29.1813 17.4301 28.456L25.3085 23.6115C26.3613 22.9642 27 21.8345 27 20.6198V10.3802C27 9.1655 26.3613 8.03583 25.3085 7.38846M5.69149 23.6115C4.6387 22.9642 4 21.8345 4 20.6198V10.3802C4 9.16551 4.6387 8.03583 5.69149 7.38846L13.5699 2.54396C14.7494 1.81868 16.2506 1.81868 17.4301 2.54396L25.3085 7.38846M5.69149 23.6115L10.1347 12.3206M5.69149 23.6115L12.2808 19.2276M25.3085 7.38846L20.8968 13.4718M10.1347 12.3206L15.5 2.53571L20.8968 13.4718M10.1347 12.3206L4.60165 8.42862M10.1347 12.3206L12.2808 19.2276M26.5921 22.25L20.8968 13.4718M20.8968 13.4718L12.2808 19.2276M12.2808 19.2276L15.5 29" stroke="#FBBC04" stroke-width="1.5" stroke-linecap="round" stroke-linejoin="round"/>
</svg>
