<svg width="24" height="24" viewBox="0 0 24 24" fill="none" xmlns="http://www.w3.org/2000/svg">
<path fill-rule="evenodd" clip-rule="evenodd" d="M12.5 2C7.25283 2 3 6.25363 3 11.5C3 16.7464 7.25283 21 12.5 21C17.7464 21 22 16.7464 22 11.5C22 6.25363 17.7464 2 12.5 2ZM12.6108 17.0559C9.54867 17.0559 7.06917 14.5701 7.06917 11.5C7.06917 8.42992 9.54867 5.94408 12.6108 5.94408C14.1071 5.94408 15.3579 6.49587 16.3174 7.39204L14.7547 8.95796V8.95479C14.1728 8.39904 13.435 8.11404 12.6108 8.11404C10.7821 8.11404 9.29613 9.66254 9.29613 11.4968C9.29613 13.3295 10.7821 14.8828 12.6108 14.8828C14.2702 14.8828 15.3991 13.9312 15.6318 12.625H12.6108V10.4582H17.824C17.8936 10.8302 17.9308 11.2182 17.9308 11.6251C17.9308 14.7997 15.8115 17.0559 12.6108 17.0559Z" fill="#6D7B8C"/>
</svg>
