<svg width="24" height="24" viewBox="0 0 24 24" fill="none" xmlns="http://www.w3.org/2000/svg">
<rect x="5" y="7" width="12" height="12" rx="2" stroke="#546579" stroke-width="1.5" stroke-linecap="round" stroke-linejoin="round"/>
<path d="M8.21045 4H17.9999C19.1045 4 19.9999 4.89543 19.9999 6V15.7895" stroke="#546579" stroke-width="1.5" stroke-linecap="round" stroke-linejoin="round"/>
<rect x="2" y="9" width="13.7257" height="5.56031" rx="1.3198" fill="#546579"/>
<path d="M5.10454 9.65991C5.65094 9.65991 6.04886 9.77869 6.2983 10.0163C6.5517 10.2499 6.6784 10.5726 6.6784 10.9843C6.6784 11.2298 6.62693 11.4614 6.52398 11.6792C6.42104 11.893 6.2488 12.0652 6.00728 12.1959C5.76972 12.3266 5.44505 12.3919 5.03327 12.3919H4.64723V13.9004H3.75043V9.65991H5.10454ZM5.05703 10.3964H4.64723V11.6554H4.94418C5.19759 11.6554 5.39754 11.606 5.54403 11.507C5.69449 11.404 5.76972 11.2397 5.76972 11.014C5.76972 10.6022 5.53215 10.3964 5.05703 10.3964Z" fill="white"/>
<path d="M10.8307 11.7386C10.8307 12.4552 10.6268 12.9957 10.219 13.36C9.81514 13.7203 9.24697 13.9004 8.51448 13.9004H7.31478V9.65991H8.64514C9.08859 9.65991 9.47265 9.7391 9.79732 9.89748C10.126 10.0559 10.3794 10.2895 10.5575 10.5983C10.7397 10.9032 10.8307 11.2833 10.8307 11.7386ZM9.89829 11.7624C9.89829 11.2912 9.79534 10.9467 9.58946 10.7289C9.38357 10.5072 9.08463 10.3964 8.69265 10.3964H8.21159V13.158H8.59763C9.46473 13.158 9.89829 12.6928 9.89829 11.7624Z" fill="white"/>
<path d="M12.4311 13.9004H11.5461V9.65991H13.9752V10.3964H12.4311V11.4892H13.8683V12.2256H12.4311V13.9004Z" fill="white"/>
</svg>
