<svg width="24" height="24" viewBox="0 0 24 24" fill="none" xmlns="http://www.w3.org/2000/svg">
<rect x="5" y="7" width="12" height="12" rx="2" stroke="#546579" stroke-width="1.5" stroke-linecap="round" stroke-linejoin="round"/>
<path d="M8.21045 4H17.9999C19.1045 4 19.9999 4.89543 19.9999 6V15.7895" stroke="#546579" stroke-width="1.5" stroke-linecap="round" stroke-linejoin="round"/>
<path d="M16.52 7H5.48C5.2145 7 5 7.2145 5 7.48V18.52C5 18.7855 5.2145 19 5.48 19H16.52C16.7855 19 17 18.7855 17 18.52V7.48C17 7.2145 16.7855 7 16.52 7ZM13.505 15.784C12.896 16.345 12.065 16.675 11.0735 16.675C9.638 16.675 8.396 15.8515 7.7915 14.6515C7.53393 14.1391 7.39986 13.5735 7.4 13C7.4 12.406 7.5425 11.845 7.7915 11.3485C8.396 10.147 9.638 9.3235 11.0735 9.3235C12.0635 9.3235 12.8945 9.688 13.532 10.2805L12.479 11.335C12.098 10.9705 11.6135 10.786 11.075 10.786C10.118 10.786 9.308 11.4325 9.0185 12.301C8.945 12.5215 8.903 12.757 8.903 13C8.903 13.243 8.945 13.4785 9.0185 13.699C9.308 14.5675 10.118 15.214 11.0735 15.214C11.5685 15.214 11.9885 15.0835 12.317 14.863C12.707 14.602 12.965 14.2135 13.0505 13.753H11.0735V12.331H14.534C14.5775 12.5725 14.6 12.823 14.6 13.0825C14.6 14.203 14.1995 15.1435 13.505 15.784Z" fill="#546579"/>
</svg>
