<svg width="25" height="24" viewBox="0 0 25 24" fill="none" xmlns="http://www.w3.org/2000/svg">
<path fill-rule="evenodd" clip-rule="evenodd" d="M10.5 17H18.5C19.0523 17 19.5 17.4477 19.5 18C19.5 18.5523 19.0523 19 18.5 19H10.5C9.94772 19 9.5 18.5523 9.5 18C9.5 17.4477 9.94772 17 10.5 17ZM10.5 11H18.5C19.0523 11 19.5 11.4477 19.5 12C19.5 12.5523 19.0523 13 18.5 13H10.5C9.94772 13 9.5 12.5523 9.5 12C9.5 11.4477 9.94772 11 10.5 11ZM10.5 5H18.5C19.0523 5 19.5 5.44772 19.5 6C19.5 6.55228 19.0523 7 18.5 7H10.5C9.94772 7 9.5 6.55228 9.5 6C9.5 5.44772 9.94772 5 10.5 5ZM6.5 4V7.5C6.5 7.77614 6.27614 8 6 8C5.72386 8 5.5 7.77614 5.5 7.5V5H5C4.72386 5 4.5 4.77614 4.5 4.5C4.5 4.22386 4.72386 4 5 4H6.5ZM5.5 12.7875C5.5 12.9049 5.59514 13 5.7125 13H7C7.27614 13 7.5 13.2239 7.5 13.5C7.5 13.7761 7.27614 14 7 14H5.4125C4.90854 14 4.5 13.5915 4.5 13.0875V12.868C4.5 12.4512 4.75857 12.078 5.14888 11.9317L6.28599 11.5053C6.41472 11.457 6.5 11.3339 6.5 11.1964C6.5 11.0757 6.40215 10.9779 6.28144 10.9779C6.27818 10.9779 6.27492 10.978 6.27167 10.9781L5.02816 11.0337C4.74923 11.0462 4.51299 10.8302 4.50051 10.5513C4.50017 10.5438 4.5 10.5362 4.5 10.5287C4.5 10.2367 4.7367 10 5.02869 10H6.5875C7.09146 10 7.5 10.4085 7.5 10.9125V11.132C7.5 11.5488 7.24143 11.922 6.85112 12.0683L5.69897 12.5004C5.57929 12.5453 5.5 12.6597 5.5 12.7875ZM7.5 17V19C7.5 19.5523 7.05228 20 6.5 20H5.00249C4.72497 20 4.5 19.775 4.5 19.4975C4.5 19.22 4.72497 18.995 5.00249 18.995H6.20249C6.3668 18.995 6.5 18.8618 6.5 18.6975C6.5 18.5332 6.3668 18.4 6.20249 18.4H4.9C4.67909 18.4 4.5 18.2209 4.5 18C4.5 17.7791 4.67909 17.6 4.9 17.6H6.20203C6.3666 17.6 6.5 17.4666 6.5 17.302C6.5 17.1375 6.3666 17.0041 6.20203 17.0041H5.00203C4.72477 17.0041 4.5 16.7793 4.5 16.502C4.5 16.2248 4.72477 16 5.00203 16H6.5C7.05228 16 7.5 16.4477 7.5 17Z" fill="#252F3D"/>
</svg>
