<svg width="24" height="24" viewBox="0 0 24 24" fill="none" xmlns="http://www.w3.org/2000/svg">
<path d="M10.71 17.5642C10.2018 18.0716 9.35128 17.883 9.25233 17.1717C8.94464 14.9598 9.80093 13.0612 9.80093 13.0612L5.66099 8.20087C5.66099 8.20087 4.31198 8.41712 3.34743 7.65257L8.03945 2.96699C8.03945 2.96699 8.81085 3.92444 8.58324 5.30364L13.4383 9.42894C13.4383 9.42894 15.2423 8.49875 17.5565 8.86272C18.2667 8.97441 18.4536 9.83042 17.9449 10.3385L10.71 17.5642Z" fill="#546579"/>
<path d="M14.9281 13.4891C14.6352 13.1962 14.1604 13.1962 13.8675 13.4891C13.5746 13.782 13.5746 14.2569 13.8675 14.5498L14.9281 13.4891ZM17.8868 18.5691C18.1797 18.862 18.6545 18.862 18.9474 18.5691C19.2403 18.2762 19.2403 17.8013 18.9474 17.5084L17.8868 18.5691ZM3.34743 7.65257L2.81746 7.12188C2.66603 7.2731 2.58641 7.48181 2.59866 7.69547C2.6109 7.90913 2.71383 8.10739 2.88155 8.24033L3.34743 7.65257ZM8.03945 2.96699L8.62349 2.49645C8.48998 2.33075 8.29238 2.22956 8.0799 2.21808C7.86741 2.20661 7.66006 2.28594 7.50949 2.4363L8.03945 2.96699ZM17.9449 10.3385L18.4749 10.8691L17.9449 10.3385ZM13.8675 14.5498L17.8868 18.5691L18.9474 17.5084L14.9281 13.4891L13.8675 14.5498ZM9.99518 17.0684C9.85789 16.0814 9.97949 15.151 10.1416 14.4577C10.2221 14.1134 10.3111 13.8339 10.3787 13.6434C10.4125 13.5483 10.4408 13.4758 10.4597 13.4291C10.4692 13.4057 10.4763 13.3888 10.4806 13.3788C10.4828 13.3737 10.4843 13.3704 10.4849 13.3689C10.4853 13.3681 10.4854 13.3678 10.4854 13.3679C10.4853 13.3679 10.4853 13.3681 10.4851 13.3684C10.4851 13.3685 10.485 13.3687 10.4849 13.3689C10.4849 13.369 10.4848 13.3692 10.4848 13.3692C10.4847 13.3694 10.4846 13.3696 9.80093 13.0612C9.11724 12.7529 9.11715 12.7531 9.11706 12.7533C9.11703 12.7534 9.11693 12.7536 9.11686 12.7537C9.11672 12.754 9.11657 12.7544 9.1164 12.7548C9.11606 12.7555 9.11568 12.7564 9.11524 12.7573C9.11437 12.7593 9.11329 12.7617 9.11202 12.7646C9.10948 12.7704 9.10616 12.778 9.10212 12.7874C9.09404 12.8063 9.08308 12.8323 9.06974 12.8652C9.04309 12.9309 9.00687 13.0241 8.96517 13.1415C8.88189 13.3761 8.77605 13.7095 8.68094 14.1163C8.49179 14.9253 8.33909 16.0501 8.50949 17.2751L9.99518 17.0684ZM10.3719 12.5749L6.23195 7.71455L5.09004 8.6872L9.22997 13.5476L10.3719 12.5749ZM5.66099 8.20087C5.54228 7.46033 5.54252 7.46029 5.54275 7.46025C5.54282 7.46024 5.54304 7.4602 5.54318 7.46018C5.54347 7.46014 5.54373 7.4601 5.54397 7.46006C5.54445 7.45998 5.54486 7.45992 5.54519 7.45987C5.54585 7.45976 5.5462 7.45971 5.54625 7.4597C5.54635 7.45969 5.54524 7.45986 5.54299 7.46017C5.53849 7.46079 5.52942 7.46199 5.5162 7.4635C5.48969 7.46652 5.44692 7.47072 5.39109 7.47401C5.27856 7.48063 5.11799 7.4832 4.93363 7.46649C4.55383 7.43206 4.13772 7.32196 3.81331 7.06482L2.88155 8.24033C3.52169 8.74773 4.26236 8.91178 4.7982 8.96036C5.07167 8.98516 5.30863 8.98145 5.47919 8.97142C5.5649 8.96638 5.63506 8.95966 5.68609 8.95384C5.71164 8.95093 5.7325 8.94823 5.74822 8.94606C5.75609 8.94497 5.76268 8.94402 5.76794 8.94323C5.77057 8.94284 5.77287 8.94249 5.77483 8.94218C5.77582 8.94203 5.77671 8.94189 5.77752 8.94176C5.77793 8.9417 5.77831 8.94164 5.77868 8.94158C5.77886 8.94155 5.77912 8.94151 5.77921 8.9415C5.77946 8.94146 5.7797 8.94142 5.66099 8.20087ZM3.87739 8.18327L8.56942 3.49769L7.50949 2.4363L2.81746 7.12188L3.87739 8.18327ZM8.03945 2.96699C7.45542 3.43753 7.45523 3.43729 7.45504 3.43706C7.45498 3.43699 7.4548 3.43675 7.45468 3.43661C7.45444 3.43631 7.45422 3.43603 7.454 3.43576C7.45357 3.43522 7.45319 3.43474 7.45285 3.43431C7.45217 3.43346 7.45166 3.43282 7.45133 3.43239C7.45065 3.43153 7.45066 3.43152 7.45129 3.43235C7.45255 3.434 7.45628 3.43896 7.4621 3.44709C7.47376 3.4634 7.49355 3.49215 7.51836 3.53231C7.56826 3.61309 7.63663 3.73707 7.70016 3.89621C7.82732 4.2147 7.92955 4.65857 7.84325 5.18152L9.32324 5.42576C9.46454 4.56951 9.29488 3.84506 9.09324 3.34002C8.99238 3.0874 8.88212 2.88582 8.7945 2.74398C8.75055 2.67283 8.71185 2.61601 8.68222 2.57456C8.66738 2.55382 8.65477 2.53686 8.64484 2.52382C8.63987 2.51729 8.63557 2.51174 8.632 2.50718C8.63021 2.50489 8.6286 2.50286 8.62718 2.50107C8.62647 2.50018 8.62581 2.49934 8.62519 2.49858C8.62488 2.49819 8.62459 2.49782 8.6243 2.49747C8.62416 2.49729 8.62396 2.49704 8.62388 2.49695C8.62368 2.4967 8.62349 2.49645 8.03945 2.96699ZM8.09761 5.87518L12.9526 10.0005L13.9239 8.8574L9.06888 4.7321L8.09761 5.87518ZM13.4383 9.42894C13.782 10.0955 13.7818 10.0957 13.7816 10.0958C13.7815 10.0958 13.7813 10.0959 13.7812 10.096C13.781 10.0961 13.7807 10.0962 13.7806 10.0963C13.7802 10.0965 13.7799 10.0966 13.7797 10.0967C13.7794 10.0969 13.7795 10.0968 13.78 10.0966C13.781 10.0961 13.7837 10.0947 13.7881 10.0926C13.7967 10.0884 13.8119 10.0811 13.8333 10.0713C13.8761 10.0516 13.9435 10.0219 14.0331 9.98634C14.2127 9.91504 14.4792 9.82089 14.8133 9.73649C15.4839 9.56705 16.4082 9.44135 17.44 9.60361L17.673 8.12183C16.3905 7.92013 15.2558 8.07753 14.4458 8.2822C14.0396 8.38484 13.7105 8.50049 13.4795 8.59223C13.3638 8.63817 13.2723 8.67829 13.2074 8.70809C13.1749 8.723 13.1491 8.73535 13.1302 8.74457C13.1207 8.74918 13.113 8.75301 13.1071 8.756C13.1041 8.75749 13.1015 8.75877 13.0995 8.75983C13.0984 8.76036 13.0975 8.76083 13.0967 8.76125C13.0963 8.76146 13.0959 8.76166 13.0955 8.76184C13.0954 8.76193 13.0951 8.76205 13.095 8.7621C13.0948 8.76222 13.0946 8.76234 13.4383 9.42894ZM10.3309 13.5919L13.9682 9.95964L12.9083 8.89824L9.27097 12.5305L10.3309 13.5919ZM8.0552 4.77103L5.13295 7.66827L6.18904 8.73348L9.11129 5.83624L8.0552 4.77103ZM17.4149 9.8078L10.18 17.0335L11.2399 18.0948L18.4749 10.8691L17.4149 9.8078ZM17.44 9.60361C17.4723 9.60869 17.4763 9.61704 17.472 9.61291C17.4702 9.61122 17.4755 9.61498 17.4796 9.63158C17.4884 9.66717 17.4838 9.73893 17.4149 9.8078L18.4749 10.8691C18.9146 10.43 19.071 9.81969 18.936 9.27234C18.7967 8.70771 18.3463 8.2277 17.673 8.12183L17.44 9.60361ZM8.50949 17.2751C8.6036 17.9516 9.07818 18.4097 9.64461 18.5523C10.1919 18.69 10.8015 18.5327 11.2399 18.0948L10.18 17.0335C10.1103 17.1031 10.0406 17.1052 10.0108 17.0977C9.99715 17.0942 9.99665 17.0905 10.0008 17.0951C10.0074 17.1022 9.99963 17.1004 9.99518 17.0684L8.50949 17.2751Z" fill="#546579"/>
</svg>
