<svg width="32" height="32" viewBox="0 0 32 32" fill="none" xmlns="http://www.w3.org/2000/svg">
<rect opacity="0.15" x="9" y="8.12988" width="18" height="22" rx="3" fill="#2B63D9"/>
<path fill-rule="evenodd" clip-rule="evenodd" d="M13.6494 4.98718H11.782C11.21 4.98718 10.7465 5.63771 10.7465 6.44043V7.375H10C7.92893 7.375 6.25 9.05393 6.25 11.125V25.125C6.25 27.1961 7.92893 28.875 10 28.875H22C24.0711 28.875 25.75 27.1961 25.75 25.125V11.125C25.75 9.05393 24.0711 7.375 22 7.375H21.7327V6.44043C21.7327 5.63771 21.2692 4.98718 20.6973 4.98718H18.83C18.453 3.90229 17.4356 3.125 16.2397 3.125C15.0438 3.125 14.0264 3.90229 13.6494 4.98718ZM14.7161 6.48718L15.0663 5.47956C15.2446 4.96641 15.7151 4.625 16.2397 4.625C16.7642 4.625 17.2348 4.96642 17.4131 5.47957L17.7633 6.48718H20.2327V9.07339H12.2465V6.48718H14.7161ZM21.7327 8.875V9.12014C21.7327 9.91987 21.2692 10.5734 20.6973 10.5734H11.782C11.21 10.5734 10.7465 9.92286 10.7465 9.12014V8.875H10C8.75736 8.875 7.75 9.88236 7.75 11.125V25.125C7.75 26.3676 8.75736 27.375 10 27.375H22C23.2426 27.375 24.25 26.3676 24.25 25.125V11.125C24.25 9.88236 23.2426 8.875 22 8.875H21.7327Z" fill="#2B63D9"/>
</svg>
