<svg width="32" height="32" viewBox="0 0 32 32" fill="none" xmlns="http://www.w3.org/2000/svg">
<path opacity="0.15" fill-rule="evenodd" clip-rule="evenodd" d="M12 7.12988C10.3431 7.12988 9 8.47303 9 10.1299V26.1299C9 27.7867 10.3431 29.1299 12 29.1299H19.6837C18.441 27.8076 17.6797 26.0276 17.6797 24.0698C17.6797 19.9882 20.9884 16.6795 25.07 16.6795C25.7377 16.6795 26.3848 16.768 27 16.934V10.1299C27 8.47303 25.6569 7.12988 24 7.12988H12Z" fill="#82A3E6"/>
<path fill-rule="evenodd" clip-rule="evenodd" d="M11.782 3.99207H13.6494C14.0264 2.90717 15.0438 2.12988 16.2397 2.12988C17.4356 2.12988 18.453 2.90717 18.83 3.99207H20.6973C21.2692 3.99207 21.7327 4.6426 21.7327 5.44531V6.37988H22C24.0711 6.37988 25.75 8.05882 25.75 10.1299V16.7104C25.5261 16.69 25.2993 16.6796 25.07 16.6796C24.7928 16.6796 24.5192 16.6948 24.25 16.7245V10.1299C24.25 8.88724 23.2426 7.87988 22 7.87988H21.7327V8.12502C21.7327 8.92476 21.2692 9.57827 20.6973 9.57827H11.782C11.21 9.57827 10.7465 8.92774 10.7465 8.12502V7.87988H10C8.75736 7.87988 7.75 8.88724 7.75 10.1299V24.1299C7.75 25.3725 8.75736 26.3799 10 26.3799H18.0479C18.2218 26.9088 18.4537 27.4113 18.7362 27.8799H10C7.92893 27.8799 6.25 26.201 6.25 24.1299V10.1299C6.25 8.05881 7.92893 6.37988 10 6.37988H10.7465V5.44531C10.7465 4.6426 11.21 3.99207 11.782 3.99207ZM15.0663 4.48445L14.7161 5.49207H12.2465V8.07827H20.2327V5.49207H17.7633L17.4131 4.48445C17.2348 3.9713 16.7642 3.62988 16.2397 3.62988C15.7151 3.62988 15.2446 3.97129 15.0663 4.48445Z" fill="#82A3E6"/>
<path fill-rule="evenodd" clip-rule="evenodd" d="M30.0703 24.0703C30.0703 26.8317 27.8317 29.0703 25.0703 29.0703C22.3089 29.0703 20.0703 26.8317 20.0703 24.0703C20.0703 21.3089 22.3089 19.0703 25.0703 19.0703C27.8317 19.0703 30.0703 21.3089 30.0703 24.0703ZM28.1385 22.5599C28.4089 22.2461 28.3737 21.7725 28.0599 21.5021C27.7461 21.2318 27.2725 21.267 27.0021 21.5808L24.0738 24.9794L23.0913 24.0308C22.7933 23.7431 22.3185 23.7514 22.0308 24.0494C21.7431 24.3474 21.7514 24.8222 22.0494 25.1099L23.6029 26.6099C23.7513 26.7531 23.9522 26.829 24.1583 26.8195C24.3643 26.8101 24.5574 26.7161 24.6921 26.5599L28.1385 22.5599Z" fill="#2B63D9"/>
</svg>
