<svg width="19" height="20" viewBox="0 0 19 20" fill="none" xmlns="http://www.w3.org/2000/svg">
<path d="M6.57937 3C5.0209 3 3.7575 4.26339 3.7575 5.82187V11.4656C3.7575 13.0241 5.0209 14.2875 6.57937 14.2875C8.13785 14.2875 9.40124 13.0241 9.40124 11.4656V9M6.57937 16.2064C3.77411 16.2064 1.5 13.9322 1.5 11.127M6.57937 16.2064C9.38462 16.2064 11.6587 13.9322 11.6587 11.127M6.57937 16.2064V19M6.57937 19H9.88095M6.57937 19H3.50353" stroke="#222F3E" stroke-width="1.5" stroke-linecap="round"/>
<path d="M7.5 10H6.75C6.75 10.2741 6.89958 10.5264 7.14009 10.658C7.38061 10.7896 7.67374 10.7794 7.90458 10.6315L7.5 10ZM9.65673 8.61831L9.25215 7.98679L9.65673 8.61831ZM9.62209 1.75H15.3779V0.25H9.62209V1.75ZM16.75 3.25001V6.09038H18.25V3.25001H16.75ZM15.3779 7.5904H10.5974V9.0904H15.3779V7.5904ZM16.75 6.09038C16.75 6.96078 16.0949 7.5904 15.3779 7.5904V9.0904C17.0049 9.0904 18.25 7.70528 18.25 6.09038H16.75ZM15.3779 1.75C16.0949 1.75 16.75 2.37961 16.75 3.25001H18.25C18.25 1.63512 17.0049 0.25 15.3779 0.25V1.75ZM9.62209 0.25C7.99513 0.25 6.75 1.63512 6.75 3.25001H8.25C8.25 2.37961 8.90506 1.75 9.62209 1.75V0.25ZM7.90458 10.6315L10.0613 9.24983L9.25215 7.98679L7.09542 9.36848L7.90458 10.6315ZM8.25 10V3.25001H6.75V10H8.25ZM10.5974 7.5904C10.1199 7.5904 9.6546 7.72897 9.25215 7.98679L10.0613 9.24983C10.2265 9.14403 10.4117 9.0904 10.5974 9.0904V7.5904Z" fill="#222F3E"/>
<path d="M11.0017 4.24253C10.6938 3.96544 10.2196 3.99039 9.94253 4.29828C9.66544 4.60616 9.69039 5.08038 9.99828 5.35747L11.0017 4.24253ZM11.8333 6L11.3316 6.55747C11.4801 6.69107 11.6757 6.75995 11.8751 6.74884C12.0745 6.73773 12.2612 6.64754 12.3939 6.49827L11.8333 6ZM15.0606 3.49827C15.3357 3.18869 15.3079 2.71463 14.9983 2.43944C14.6887 2.16425 14.2146 2.19214 13.9394 2.50173L15.0606 3.49827ZM9.99828 5.35747L11.3316 6.55747L12.3351 5.44253L11.0017 4.24253L9.99828 5.35747ZM12.3939 6.49827L15.0606 3.49827L13.9394 2.50173L11.2728 5.50173L12.3939 6.49827Z" fill="#222F3E"/>
</svg>
