<svg width="24" height="24" viewBox="0 0 24 24" fill="none" xmlns="http://www.w3.org/2000/svg">
<path d="M19.6235 10.1782L18.3938 9.91089C18.2869 9.5835 18.1544 9.26416 17.998 8.95654L18.6788 7.89758C18.8004 7.70837 18.7737 7.45996 18.6147 7.30103L16.699 5.38525C16.54 5.22632 16.2916 5.19958 16.1024 5.32117L15.0435 6.00195C14.7358 5.84558 14.4165 5.71313 14.0891 5.6062L13.8218 4.37646C13.774 4.15674 13.5795 4 13.3546 4H10.6454C10.4205 4 10.226 4.15674 10.1782 4.37646L9.91089 5.6062C9.5835 5.71313 9.26416 5.84558 8.95654 6.00195L7.89758 5.32117C7.70837 5.19958 7.45996 5.22632 7.30103 5.38525L5.38525 7.30103C5.22632 7.45996 5.19958 7.70837 5.32117 7.89758L6.00195 8.95654C5.84558 9.26416 5.71313 9.5835 5.6062 9.91089L4.37646 10.1782C4.15674 10.2261 4 10.4205 4 10.6454V13.3546C4 13.5795 4.15674 13.7739 4.37646 13.8218L5.6062 14.0891C5.71313 14.4165 5.84558 14.7358 6.00195 15.0435L5.32117 16.1024C5.19958 16.2916 5.22632 16.54 5.38525 16.699L7.30103 18.6147C7.45996 18.7737 7.70837 18.8004 7.89758 18.6788L8.95654 17.998C9.26416 18.1544 9.5835 18.2869 9.91089 18.3938L10.1782 19.6235C10.226 19.8433 10.4205 20 10.6454 20H13.3546C13.5795 20 13.774 19.8433 13.8218 19.6235L14.0891 18.3938C14.4165 18.2869 14.7358 18.1544 15.0435 17.998L16.1024 18.6788C16.2916 18.8004 16.54 18.7738 16.699 18.6147L18.6147 16.699C18.7737 16.54 18.8004 16.2916 18.6788 16.1024L17.998 15.0435C18.1544 14.7358 18.2869 14.4165 18.3938 14.0891L19.6235 13.8218C19.8433 13.7739 20 13.5795 20 13.3546V10.6454C20 10.4205 19.8433 10.2261 19.6235 10.1782ZM14.8685 12C14.8685 13.5817 13.5817 14.8685 12 14.8685C10.4183 14.8685 9.13147 13.5817 9.13147 12C9.13147 10.4183 10.4183 9.13147 12 9.13147C13.5817 9.13147 14.8685 10.4183 14.8685 12Z" stroke="#546579" stroke-width="1.5"/>
</svg>
