<svg width="24" height="24" viewBox="0 0 24 24" fill="none" xmlns="http://www.w3.org/2000/svg">
<path d="M14.5 17H19.4348C20.2992 17 21 16.224 21 15.2667V5.73333C21 4.77604 20.2992 4 19.4348 4H4.56522C3.70077 4 3 4.77604 3 5.73333V15.2667C3 16.224 3.70077 17 4.56522 17H6.6" stroke="#232F3E" stroke-width="1.75"/>
<path d="M7.87502 10.5006C7.87502 9.05327 9.05411 7.875 10.5 7.875C11.9463 7.875 13.125 9.05247 13.125 10.4994C13.125 11.9469 11.9469 13.125 10.5 13.125C9.05272 13.125 7.87502 11.9477 7.87502 10.5006Z" stroke="#232F3E" stroke-width="1.75"/>
<path d="M16.4431 13.4486L18.6492 11.4584" stroke="#232F3E" stroke-width="1.75" stroke-linecap="round"/>
<path d="M5.00002 21C5.00002 19.5656 5.48098 18.2096 6.35458 17.1831C7.23254 16.1502 8.39624 15.582 9.63193 15.582H11.0585C12.0872 15.582 13.7217 14.2526 13.7217 14.2526L14.2474 13.8176C14.8014 13.3591 15.6174 13.4138 16.1053 13.9422V13.9422C16.6032 14.4814 16.5808 15.3192 16.0548 15.831L13.5524 18.2659C13.2571 18.5533 13.177 18.9895 13.3055 19.381C13.42 19.7301 13.5598 20.2339 13.7217 21" stroke="#232F3E" stroke-width="1.75" stroke-miterlimit="10" stroke-linecap="round" stroke-linejoin="round"/>
</svg>
