<svg width="24" height="24" viewBox="0 0 24 24" fill="none" xmlns="http://www.w3.org/2000/svg">
<path d="M9.92084 14.6069C9.75014 13.9098 9.40015 13.2679 8.89476 12.7417C8.2981 12.1205 7.54537 11.7229 6.73041 11.5907C6.53129 11.5584 6.32847 11.542 6.12329 11.542H4.91694C4.7287 11.542 4.54243 11.5558 4.3592 11.583C3.52528 11.7067 2.75417 12.1072 2.14548 12.7417C1.40673 13.5109 1 14.5271 1 15.602C1 16.3888 2.18085 16.3888 2.18085 15.602C2.18085 14.8467 2.46462 14.1355 2.98665 13.5919C3.51017 13.0462 4.19278 12.7534 4.91694 12.7534H6.12329C6.84682 12.7534 7.52941 13.0462 8.05359 13.5919C8.49672 14.0533 8.76816 14.6355 8.8401 15.2629C8.73932 15.3492 8.642 15.4411 8.54852 15.5386C7.80977 16.3078 7.40305 17.324 7.40305 18.3988C7.40305 19.2004 8.5839 19.2004 8.5839 18.3988C8.5839 17.5973 8.86767 16.9323 9.3897 16.3888C9.91322 15.843 10.5958 15.5503 11.32 15.5503H12.5263C13.2499 15.5503 13.9325 15.843 14.4566 16.3888C14.9787 16.9323 15.2624 17.6435 15.2624 18.3988C15.2624 19.2004 16.4433 19.2004 16.4433 18.3988C16.4433 17.324 16.0366 16.3078 15.2978 15.5386C15.2489 15.4877 15.199 15.4383 15.1481 15.3904C15.196 14.7146 15.4734 14.0844 15.9464 13.5919C16.4699 13.0462 17.1525 12.7534 17.8767 12.7534H19.0831C19.8066 12.7534 20.4892 13.0462 21.0134 13.5919C21.5354 14.1355 21.8192 14.8467 21.8192 15.602C21.8192 16.3888 23 16.3888 23 15.602C23 14.5271 22.5933 13.5109 21.8545 12.7417C21.2579 12.1205 20.5051 11.7229 19.6902 11.5907C19.4911 11.5584 19.2882 11.542 19.0831 11.542H17.8767C17.6885 11.542 17.5022 11.5558 17.319 11.583C16.485 11.7067 15.7139 12.1072 15.1052 12.7417C14.5855 13.2828 14.2302 13.9462 14.0651 14.6662C13.7681 14.5336 13.4557 14.4398 13.1335 14.3876C12.9343 14.3553 12.7315 14.3388 12.5263 14.3388H11.32C11.1317 14.3388 10.9455 14.3526 10.7622 14.3798C10.4728 14.4228 10.191 14.499 9.92084 14.6069Z" fill="#6D7B8C"/>
<path fill-rule="evenodd" clip-rule="evenodd" d="M4.50621 10.3475C4.63816 10.4045 4.7754 10.4511 4.91694 10.4863C5.12215 10.5374 5.3364 10.5644 5.55672 10.5644C5.75097 10.5644 5.94051 10.5434 6.12329 10.5034C6.28615 10.4678 6.44364 10.4171 6.5943 10.3529C7.57674 9.93422 8.26916 8.93956 8.26916 7.78173C8.26916 6.24705 7.05174 5 5.55672 5C4.06169 5 2.84428 6.24799 2.84428 7.78268C2.84428 8.93543 3.53062 9.92589 4.50621 10.3475ZM5.55672 6.21143C4.7136 6.21143 4.02513 6.91732 4.02513 7.78268C4.02513 8.64777 4.71241 9.35298 5.55672 9.35298C6.4005 9.35298 7.08831 8.64736 7.08831 7.78173C7.08831 6.91691 6.40036 6.21143 5.55672 6.21143Z" fill="#6D7B8C"/>
<path fill-rule="evenodd" clip-rule="evenodd" d="M17.466 10.3475C17.5979 10.4045 17.7352 10.4511 17.8767 10.4863C18.0819 10.5374 18.2962 10.5644 18.5165 10.5644C18.7107 10.5644 18.9003 10.5434 19.0831 10.5034C19.2459 10.4678 19.4034 10.4171 19.5541 10.3529C20.5365 9.93422 21.2289 8.93956 21.2289 7.78173C21.2289 6.24705 20.0115 5 18.5165 5C17.0215 5 15.804 6.24799 15.804 7.78268C15.804 8.93543 16.4904 9.92589 17.466 10.3475ZM18.5165 6.21143C17.6734 6.21143 16.9849 6.91732 16.9849 7.78268C16.9849 8.64777 17.6722 9.35298 18.5165 9.35298C19.3603 9.35298 20.0481 8.64736 20.0481 7.78173C20.0481 6.91691 19.3601 6.21143 18.5165 6.21143Z" fill="#6D7B8C"/>
<path fill-rule="evenodd" clip-rule="evenodd" d="M11.32 13.2832C11.1784 13.248 11.0412 13.2014 10.9093 13.1444C9.93367 12.7228 9.24732 11.7323 9.24732 10.5795C9.24732 9.04486 10.4647 7.79687 11.9598 7.79687C13.4548 7.79687 14.6722 9.04392 14.6722 10.5786C14.6722 11.7364 13.9798 12.7311 12.9973 13.1498C12.8467 13.214 12.6892 13.2646 12.5263 13.3003C12.3436 13.3402 12.154 13.3613 11.9598 13.3613C11.7394 13.3613 11.5252 13.3342 11.32 13.2832ZM10.4282 10.5795C10.4282 9.71419 11.1166 9.0083 11.9598 9.0083C12.8034 9.0083 13.4914 9.71378 13.4914 10.5786C13.4914 11.4442 12.8035 12.1498 11.9598 12.1498C11.1155 12.1498 10.4282 11.4446 10.4282 10.5795Z" fill="#6D7B8C"/>
</svg>
