<svg width="24" height="22" viewBox="0 0 24 22" fill="none" xmlns="http://www.w3.org/2000/svg">
<path d="M10.3787 1.97631L9.82121 2.47803L9.82121 2.47803L10.3787 1.97631ZM14.6213 6.69036L14.0638 7.19208V7.19208L14.6213 6.69036ZM3.83333 10.25C3.41912 10.25 3.08333 10.5858 3.08333 11C3.08333 11.4142 3.41912 11.75 3.83333 11.75V10.25ZM8.5 11.75C8.91421 11.75 9.25 11.4142 9.25 11C9.25 10.5858 8.91421 10.25 8.5 10.25V11.75ZM3.83333 13.0278C3.41912 13.0278 3.08333 13.3636 3.08333 13.7778C3.08333 14.192 3.41912 14.5278 3.83333 14.5278V13.0278ZM8.5 14.5278C8.91421 14.5278 9.25 14.192 9.25 13.7778C9.25 13.3636 8.91421 13.0278 8.5 13.0278V14.5278ZM3.83333 15.8056C3.41912 15.8056 3.08333 16.1413 3.08333 16.5556C3.08333 16.9698 3.41912 17.3056 3.83333 17.3056V15.8056ZM7 17.3056C7.41421 17.3056 7.75 16.9698 7.75 16.5556C7.75 16.1413 7.41421 15.8056 7 15.8056V17.3056ZM10.25 2.11111C10.25 1.6969 9.91421 1.36111 9.5 1.36111C9.08579 1.36111 8.75 1.6969 8.75 2.11111H10.25ZM14.5 8.41667C14.9142 8.41667 15.25 8.08088 15.25 7.66667C15.25 7.25245 14.9142 6.91667 14.5 6.91667V8.41667ZM14.75 11C14.75 11.4142 15.0858 11.75 15.5 11.75C15.9142 11.75 16.25 11.4142 16.25 11H14.75ZM12.8077 20.25H4.5V21.75H12.8077V20.25ZM2.25 17.6667V4.33333H0.75V17.6667H2.25ZM4.5 1.75H8.25736V0.25H4.5V1.75ZM9.82121 2.47803L14.0638 7.19208L15.1788 6.18863L10.9361 1.47459L9.82121 2.47803ZM16.25 9.04738C16.25 7.98843 15.8721 6.959 15.1788 6.18863L14.0638 7.19208C14.4957 7.67196 14.75 8.33822 14.75 9.04738H16.25ZM8.25736 1.75C8.82707 1.75 9.39167 2.00077 9.82121 2.47803L10.9362 1.47459C10.2405 0.701614 9.27895 0.25 8.25736 0.25V1.75ZM4.5 20.25C3.32973 20.25 2.25 19.1697 2.25 17.6667H0.75C0.75 19.8455 2.35656 21.75 4.5 21.75V20.25ZM12.8077 21.75C13.6055 21.75 14.2722 21.5552 14.8027 21.1729C15.3299 20.793 15.6584 20.2741 15.8641 19.7358C16.2595 18.7006 16.25 17.44 16.25 16.5556H14.75C14.75 17.5121 14.7405 18.4736 14.4628 19.2005C14.3319 19.5432 14.1557 19.7902 13.9257 19.956C13.699 20.1194 13.3561 20.25 12.8077 20.25V21.75ZM2.25 4.33333C2.25 2.83031 3.32973 1.75 4.5 1.75V0.25C2.35656 0.25 0.75 2.15446 0.75 4.33333H2.25ZM3.83333 11.75H8.5V10.25H3.83333V11.75ZM3.83333 14.5278H8.5V13.0278H3.83333V14.5278ZM3.83333 17.3056H7V15.8056H3.83333V17.3056ZM8.75 2.11111V5.44445H10.25V2.11111H8.75ZM11.5 8.41667H14.5V6.91667H11.5V8.41667ZM8.75 5.44445C8.75 7.00967 9.90884 8.41667 11.5 8.41667V6.91667C10.882 6.91667 10.25 6.33382 10.25 5.44445H8.75ZM16.25 11V9.04738H14.75V11H16.25Z" fill="#222F3E"/>
<path d="M18.2071 9.70733V18.2678L14.2562 15.75H12.5001V11.7216H14.2562L18.2071 9.70733Z" stroke="#222F3E" stroke-width="1.5" stroke-linecap="round" stroke-linejoin="round"/>
<path fill-rule="evenodd" clip-rule="evenodd" d="M23.5001 13.9248C23.5001 14.2107 23.2342 14.4424 22.9062 14.4424H21.4167C21.0887 14.4424 20.8228 14.2107 20.8228 13.9248C20.8228 13.639 21.0887 13.4072 21.4167 13.4072H22.9062C23.2342 13.4072 23.5001 13.639 23.5001 13.9248ZM21.1359 17.9306C20.8518 18.0735 20.4886 17.9887 20.3245 17.7411L19.5798 16.6171C19.4158 16.3695 19.5131 16.0529 19.7972 15.91C20.0813 15.7671 20.4446 15.8519 20.6086 16.0994L21.3533 17.2235C21.5173 17.4711 21.42 17.7876 21.1359 17.9306ZM21.1359 10.0694C21.42 10.2124 21.5173 10.5289 21.3533 10.7765L20.6086 11.9006C20.4446 12.1481 20.0813 12.2329 19.7972 12.09C19.5131 11.9471 19.4158 11.6305 19.5798 11.383L20.3245 10.2589C20.4886 10.0113 20.8518 9.9265 21.1359 10.0694Z" fill="#222F3E"/>
</svg>
