<svg xmlns="http://www.w3.org/2000/svg" fill="none" viewBox="0 0 32 32" height="32" width="32">
<path stroke-linecap="round" stroke-width="1.5" stroke="#FF6A00" d="M8.69971 16.689H20.7068M14.7033 10.6854V22.6926"></path>
<path stroke-linecap="round" stroke-width="1.5" stroke="#FF6A00" d="M25.9491 16.6888C25.9491 22.7675 21.0213 27.6953 14.9426 27.6953C8.86383 27.6953 3.93604 22.7675 3.93604 16.6888C3.93604 10.61 8.86383 5.68225 14.9426 5.68225"></path>
<path fill="#FF6A00" d="M19.9986 3.70687C19.9836 3.69634 19.9647 3.6915 19.9271 3.6819C19.8771 3.68015 19.8589 3.67951 19.843 3.6852C19.8339 3.68845 19.8256 3.69376 19.8124 3.70212C19.7771 3.75305 19.7682 3.7995 19.7587 3.86023C19.7089 4.20313 19.5914 4.54069 19.4064 4.83439C19.1326 5.22368 18.6685 5.39287 18.2168 5.47571L18.1597 5.48502L18.1065 5.49402C18.0337 5.5052 17.9987 5.52246 17.9522 5.58074C17.9475 5.60706 17.9451 5.62052 17.945 5.63401C17.9448 5.64814 17.9472 5.6623 17.9522 5.6913C17.999 5.75004 18.0317 5.77679 18.1031 5.80119L18.1757 5.81602L18.2565 5.83355L18.2615 5.83461C18.4231 5.86866 18.586 5.903 18.7426 5.95563C19.075 6.0856 19.3679 6.30629 19.5187 6.6383L19.5398 6.68632C19.6254 6.85854 19.6695 7.02642 19.708 7.21424C19.7089 7.21917 19.7099 7.22408 19.7108 7.22897C19.7359 7.359 19.7587 7.47698 19.8265 7.5929C19.8611 7.59486 19.8793 7.5959 19.8975 7.596C19.9177 7.59612 19.938 7.59509 19.9808 7.5929C20.0292 7.55776 20.0449 7.53337 20.0625 7.47594L20.0729 7.41644L20.0853 7.34996C20.1329 7.0845 20.1883 6.82103 20.3224 6.58397L20.3557 6.53154C20.6296 6.08076 21.0749 5.93969 21.5602 5.82121L21.6324 5.80419L21.7003 5.78787C21.7041 5.78697 21.7078 5.78611 21.7113 5.78527C21.7753 5.77035 21.8053 5.76333 21.8551 5.71341C21.8586 5.67472 21.8603 5.65537 21.8603 5.63602C21.8603 5.61667 21.8586 5.59733 21.8551 5.55863C21.8139 5.5311 21.7984 5.52071 21.7813 5.51472C21.7709 5.51109 21.76 5.50908 21.7425 5.50586C21.3976 5.46647 21.0189 5.35747 20.7305 5.16062C20.3457 4.87057 20.1495 4.40255 20.0745 3.93619C20.0664 3.87957 20.0575 3.82386 20.047 3.76759C20.0248 3.73415 20.0137 3.71757 19.9986 3.70687ZM23.815 5.04427C23.7819 5.02086 23.7397 5.01011 23.6562 4.98879C23.5451 4.98488 23.5047 4.98346 23.4693 4.9961C23.4491 5.00333 23.4306 5.01514 23.4014 5.0337C23.323 5.14689 23.3031 5.25012 23.2819 5.38506C23.1714 6.14707 22.9103 6.89719 22.4991 7.54986C21.8908 8.41496 20.8593 8.79093 19.8555 8.97503L19.7286 8.99571L19.6105 9.01572C19.4487 9.04055 19.371 9.07892 19.2675 9.20843C19.2571 9.2669 19.2517 9.29683 19.2515 9.3268C19.2512 9.35821 19.2566 9.38967 19.2675 9.45411C19.3715 9.58465 19.4443 9.64409 19.603 9.69831L19.7642 9.73128L19.9438 9.77022L19.9549 9.77256C20.314 9.84823 20.6761 9.92455 21.0241 10.0415C21.7626 10.3303 22.4136 10.8208 22.7487 11.5586L22.7956 11.6653C22.9858 12.048 23.0837 12.421 23.1693 12.8384C23.1714 12.8494 23.1735 12.8603 23.1756 12.8712C23.2314 13.1601 23.282 13.4223 23.4326 13.6799C23.5095 13.6843 23.5499 13.6866 23.5904 13.6868C23.6354 13.687 23.6805 13.6847 23.7756 13.6799C23.8831 13.6018 23.918 13.5476 23.9572 13.42L23.9803 13.2878L24.0078 13.14C24.1136 12.5501 24.2366 11.9646 24.5348 11.4378L24.6087 11.3213C25.2173 10.3196 26.2069 10.0061 27.2854 9.74279L27.4458 9.70498L27.5966 9.6687C27.605 9.66671 27.6132 9.6648 27.6212 9.66294C27.7633 9.62977 27.8301 9.61418 27.9407 9.50325C27.9484 9.41726 27.9522 9.37427 27.9522 9.33127C27.9522 9.28828 27.9484 9.24528 27.9407 9.15929C27.8492 9.09811 27.8147 9.07502 27.7767 9.06172C27.7537 9.05365 27.7294 9.04919 27.6904 9.04201C26.9241 8.95449 26.0824 8.71226 25.4417 8.27482C24.5864 7.63026 24.1504 6.59023 23.9839 5.55386C23.9659 5.42805 23.946 5.30424 23.9226 5.17919C23.8733 5.1049 23.8488 5.06805 23.815 5.04427Z" clip-rule="evenodd" fill-rule="evenodd"></path>
</svg>
