<svg xmlns="http://www.w3.org/2000/svg" fill="none" viewBox="0 0 32 32" height="32" width="32">
<path fill="#FF6A00" d="M20.4245 4.02619C20.4095 4.01566 20.3906 4.01083 20.353 4.00124C20.3031 3.99948 20.2849 3.99884 20.269 4.00453C20.2599 4.00778 20.2516 4.01309 20.2385 4.02144C20.2032 4.07234 20.1942 4.11877 20.1847 4.17946C20.135 4.52216 20.0176 4.85951 19.8327 5.15304C19.5591 5.5421 19.0952 5.71119 18.6438 5.79398L18.5867 5.80328L18.5336 5.81228C18.4608 5.82345 18.4258 5.84071 18.3793 5.89895C18.3746 5.92525 18.3722 5.93871 18.3721 5.95218C18.372 5.96631 18.3744 5.98046 18.3793 6.00944C18.4261 6.06815 18.4588 6.09488 18.5302 6.11927L18.6027 6.13409L18.6834 6.1516L18.6885 6.15266C18.8499 6.18669 19.0128 6.22102 19.1693 6.27361C19.5014 6.4035 19.7942 6.62406 19.9449 6.95588L19.966 7.00388C20.0515 7.17599 20.0956 7.34377 20.134 7.53148C20.135 7.5364 20.1359 7.54131 20.1369 7.5462C20.162 7.67615 20.1847 7.79407 20.2525 7.90991C20.287 7.91188 20.3052 7.91291 20.3234 7.91301C20.3437 7.91313 20.3639 7.9121 20.4067 7.90991C20.4551 7.87479 20.4708 7.85041 20.4884 7.79302L20.4988 7.73356L20.5111 7.66712C20.5587 7.40182 20.6141 7.1385 20.7482 6.90158L20.7814 6.84919C21.0551 6.39867 21.5001 6.25768 21.9852 6.13927L22.0573 6.12227L22.1251 6.10595C22.129 6.10506 22.1326 6.1042 22.1362 6.10336C22.2001 6.08844 22.2302 6.08143 22.2799 6.03154C22.2834 5.99287 22.2851 5.97353 22.2851 5.9542C22.2851 5.93486 22.2834 5.91552 22.2799 5.87685C22.2388 5.84934 22.2232 5.83895 22.2062 5.83297C22.1958 5.82934 22.1849 5.82733 22.1673 5.82411C21.8227 5.78474 21.4442 5.67581 21.156 5.47908C20.7714 5.1892 20.5753 4.72146 20.5004 4.25537C20.4923 4.19879 20.4834 4.14311 20.4729 4.08687C20.4506 4.05346 20.4396 4.03689 20.4245 4.02619ZM24.2381 5.36289C24.205 5.3395 24.1629 5.32876 24.0794 5.30744C23.9683 5.30354 23.928 5.30212 23.8926 5.31475C23.8724 5.32197 23.8539 5.33378 23.8248 5.35233C23.7463 5.46545 23.7264 5.56862 23.7053 5.70348C23.5948 6.46503 23.3339 7.21472 22.923 7.867C22.315 8.73158 21.2842 9.10733 20.281 9.29131L20.1541 9.31198L20.0361 9.33198C19.8744 9.3568 19.7967 9.39514 19.6933 9.52458C19.6829 9.58302 19.6775 9.61292 19.6773 9.64287C19.677 9.67427 19.6823 9.70571 19.6933 9.77011C19.7972 9.90057 19.87 9.95998 20.0286 10.0142L20.1897 10.0471L20.3692 10.086L20.3803 10.0884C20.7391 10.164 21.101 10.2403 21.4488 10.3572C22.1869 10.6458 22.8375 11.1359 23.1724 11.8733L23.2193 11.98C23.4094 12.3624 23.5072 12.7353 23.5927 13.1524C23.5948 13.1634 23.5969 13.1743 23.599 13.1851C23.6548 13.4739 23.7054 13.7359 23.8559 13.9934C23.9327 13.9977 23.9732 14 24.0136 14.0003C24.0586 14.0005 24.1036 13.9982 24.1987 13.9934C24.3062 13.9153 24.341 13.8612 24.3802 13.7336L24.4032 13.6015L24.4307 13.4538C24.5365 12.8643 24.6594 12.2791 24.9574 11.7527L25.0313 11.6362C25.6396 10.6351 26.6285 10.3218 27.7064 10.0586L27.8667 10.0208L28.0174 9.98458C28.0259 9.98259 28.0341 9.98068 28.042 9.97882C28.184 9.94567 28.2508 9.93009 28.3614 9.81922C28.369 9.73328 28.3729 9.69031 28.3729 9.64735C28.3729 9.60438 28.369 9.56141 28.3614 9.47547C28.2699 9.41433 28.2354 9.39125 28.1974 9.37795C28.1744 9.36989 28.1502 9.36543 28.1112 9.35826C27.3453 9.27079 26.5041 9.02871 25.8638 8.59153C25.009 7.94735 24.5732 6.90794 24.4069 5.87218C24.3889 5.74645 24.369 5.62271 24.3457 5.49774C24.2963 5.42348 24.2718 5.38665 24.2381 5.36289Z" clip-rule="evenodd" fill-rule="evenodd"></path>
<path stroke-linejoin="round" stroke-linecap="round" stroke-width="1.5" stroke="#FF6A00" d="M25.9642 16.9998C25.9642 22.7199 21.3272 27.3569 15.607 27.3569C11.0736 27.3569 7.22041 24.4443 5.81682 20.3882M15.607 6.64258C9.96316 6.64258 5.37364 11.1569 5.25232 16.7717"></path>
<path stroke-linecap="round" stroke-width="1.5" stroke="#FF6A00" d="M3.00024 13.1799L5.3161 17.1911"></path>
<path stroke-linecap="round" stroke-width="1.5" stroke="#FF6A00" d="M9.32959 14.879L5.31841 17.1949"></path>
<path stroke-linecap="round" stroke-width="1.5" stroke="#FF6A00" d="M29.1776 20.1293L25.9025 16.8542"></path>
<path stroke-linecap="round" stroke-width="1.5" stroke="#FF6A00" d="M22.624 20.1266L25.8991 16.8515"></path>
</svg>
