<svg width="32" height="32" viewBox="0 0 32 32" fill="none" xmlns="http://www.w3.org/2000/svg">
<path fill-rule="evenodd" clip-rule="evenodd" d="M7.41003 6.90954C7.41003 5.64513 8.43505 4.62012 9.69946 4.62012H17.267V8.93771C17.267 10.6308 18.8101 11.8933 20.3592 11.8933H24.5927V17.6952C24.7505 17.6851 24.9097 17.68 25.07 17.68C25.417 17.68 25.7584 17.7039 26.0927 17.7502V11.192C26.1065 10.9794 26.0292 10.7664 25.8726 10.611L18.5455 3.3379C18.405 3.19845 18.215 3.12012 18.017 3.12012H9.69946C7.60662 3.12012 5.91003 4.8167 5.91003 6.90954V25.0811C5.91003 27.174 7.60661 28.8705 9.69946 28.8705H18.7303C18.4488 28.4018 18.2177 27.8993 18.0447 27.3705H9.69946C8.43504 27.3705 7.41003 26.3455 7.41003 25.0811V6.90954ZM18.767 8.93771V5.67171L23.5223 10.3933H20.3592C19.5118 10.3933 18.767 9.68105 18.767 8.93771Z" fill="#2B63D9"/>
<path opacity="0.15" fill-rule="evenodd" clip-rule="evenodd" d="M27.3427 18.036V13.1438L20.017 5.87012H11.6995C10.0208 5.87012 8.66003 7.23092 8.66003 8.90954V27.0811C8.66003 28.7597 10.0208 30.1205 11.6995 30.1205H19.6744C18.4372 28.7993 17.6797 27.0233 17.6797 25.0703C17.6797 20.9888 20.9884 17.68 25.07 17.68C25.8629 17.68 26.6267 17.8049 27.3427 18.036Z" fill="#2B63D9"/>
<path fill-rule="evenodd" clip-rule="evenodd" d="M24.2847 18.2948C24.5427 18.2652 24.8048 18.25 25.0702 18.25C25.3356 18.25 25.5977 18.2652 25.8557 18.2948C26.2672 18.3421 26.5625 18.714 26.5153 19.1255C26.468 19.537 26.0961 19.8323 25.6846 19.785C25.4833 19.7619 25.2783 19.75 25.0702 19.75C24.8621 19.75 24.6571 19.7619 24.4558 19.785C24.0443 19.8323 23.6724 19.537 23.6251 19.1255C23.5779 18.714 23.8732 18.3421 24.2847 18.2948ZM28.2517 19.8456C28.5091 19.5211 28.9809 19.4666 29.3054 19.724C29.717 20.0505 30.0899 20.4234 30.4164 20.835C30.6738 21.1595 30.6194 21.6313 30.2948 21.8887C29.9703 22.1461 29.4986 22.0917 29.2412 21.7671C28.9862 21.4456 28.6948 21.1542 28.3733 20.8993C28.0488 20.6419 27.9943 20.1701 28.2517 19.8456ZM21.8887 19.8456C22.1461 20.1701 22.0917 20.6419 21.7671 20.8993C21.4456 21.1542 21.1542 21.4456 20.8993 21.7671C20.6419 22.0917 20.1701 22.1461 19.8456 21.8887C19.5211 21.6313 19.4666 21.1595 19.724 20.835C20.0505 20.4234 20.4234 20.0505 20.835 19.724C21.1595 19.4666 21.6313 19.5211 21.8887 19.8456ZM19.1255 23.6251C19.537 23.6724 19.8323 24.0443 19.785 24.4558C19.7619 24.6571 19.75 24.8621 19.75 25.0702C19.75 25.2783 19.7619 25.4833 19.785 25.6846C19.8323 26.0961 19.537 26.468 19.1255 26.5153C18.714 26.5625 18.3421 26.2672 18.2948 25.8557C18.2652 25.5977 18.25 25.3356 18.25 25.0702C18.25 24.8048 18.2652 24.5427 18.2948 24.2847C18.3421 23.8732 18.714 23.5779 19.1255 23.6251ZM31.0149 23.6251C31.4265 23.5779 31.7983 23.8732 31.8456 24.2847C31.8752 24.5427 31.8904 24.8048 31.8904 25.0702C31.8904 25.3356 31.8752 25.5977 31.8456 25.8557C31.7983 26.2672 31.4265 26.5625 31.0149 26.5153C30.6034 26.468 30.3081 26.0961 30.3554 25.6846C30.3785 25.4833 30.3904 25.2783 30.3904 25.0702C30.3904 24.8621 30.3785 24.6571 30.3554 24.4558C30.3081 24.0443 30.6034 23.6724 31.0149 23.6251ZM19.8456 28.2517C20.1701 27.9943 20.6419 28.0488 20.8993 28.3733C21.1542 28.6948 21.4456 28.9862 21.7671 29.2412C22.0917 29.4986 22.1461 29.9703 21.8887 30.2948C21.6313 30.6194 21.1595 30.6738 20.835 30.4164C20.4234 30.0899 20.0505 29.717 19.724 29.3054C19.4666 28.9809 19.5211 28.5091 19.8456 28.2517ZM30.2948 28.2517C30.6194 28.5091 30.6738 28.9809 30.4164 29.3054C30.0899 29.717 29.717 30.0899 29.3054 30.4164C28.9809 30.6738 28.5091 30.6194 28.2517 30.2948C27.9943 29.9703 28.0488 29.4986 28.3733 29.2412C28.6948 28.9862 28.9862 28.6948 29.2412 28.3733C29.4986 28.0488 29.9703 27.9943 30.2948 28.2517ZM23.6251 31.0149C23.6724 30.6034 24.0443 30.3081 24.4558 30.3554C24.6571 30.3785 24.8621 30.3904 25.0702 30.3904C25.2783 30.3904 25.4833 30.3785 25.6846 30.3554C26.0961 30.3081 26.468 30.6034 26.5153 31.0149C26.5625 31.4265 26.2672 31.7983 25.8557 31.8456C25.5977 31.8752 25.3356 31.8904 25.0702 31.8904C24.8048 31.8904 24.5427 31.8752 24.2847 31.8456C23.8732 31.7983 23.5779 31.4265 23.6251 31.0149Z" fill="#2B63D9"/>
</svg>
