<svg width="32" height="32" viewBox="0 0 32 32" fill="none" xmlns="http://www.w3.org/2000/svg">
<path opacity="0.15" d="M25.4326 17.2825V12.0237L18.107 4.75H9.78943C8.1108 4.75 6.75 6.1108 6.75 7.78943V25.961C6.75 27.6396 8.11079 29.0004 9.78942 29.0004H18.1203C16.6668 27.7178 15.75 25.8409 15.75 23.75C15.75 19.884 18.884 16.75 22.75 16.75C23.7003 16.75 24.6065 16.9394 25.4326 17.2825Z" fill="#2B63D9"/>
<path fill-rule="evenodd" clip-rule="evenodd" d="M16.7107 2.22039C16.5568 2.0661 16.3471 1.98932 16.1372 2.0012C16.1272 2.00079 16.1171 2.00059 16.107 2.00059H7.78943C5.69658 2.00059 4 3.69717 4 5.79002V23.9616C4 26.0544 5.69658 27.751 7.78942 27.751H17.0054C16.6828 27.2887 16.4146 26.7856 16.21 26.251H7.78942C6.52501 26.251 5.5 25.226 5.5 23.9616V5.79002C5.5 4.5256 6.52501 3.50059 7.78943 3.50059H15.4297V7.81817C15.4297 9.48221 16.869 10.7737 18.4491 10.7737H22.6826V16.7503C22.7051 16.7501 22.7275 16.75 22.75 16.75C23.241 16.75 23.7202 16.8006 24.1826 16.8967V10.0724C24.1964 9.86117 24.1201 9.64942 23.9652 9.4941L16.7107 2.22039ZM16.9297 7.81817V4.62434L21.6123 9.27373H18.4491C17.6328 9.27373 16.9297 8.59055 16.9297 7.81817Z" fill="#82A3E6"/>
<path fill-rule="evenodd" clip-rule="evenodd" d="M27.75 23.75C27.75 26.5114 25.5114 28.75 22.75 28.75C19.9886 28.75 17.75 26.5114 17.75 23.75C17.75 20.9886 19.9886 18.75 22.75 18.75C25.5114 18.75 27.75 20.9886 27.75 23.75ZM25.8182 22.2396C26.0886 21.9258 26.0534 21.4522 25.7396 21.1818C25.4258 20.9114 24.9522 20.9466 24.6818 21.2604L21.7535 24.6591L20.7709 23.7104C20.473 23.4227 19.9982 23.4311 19.7104 23.7291C19.4227 24.027 19.4311 24.5018 19.7291 24.7896L21.2826 26.2896C21.431 26.4328 21.6319 26.5087 21.838 26.4992C22.044 26.4898 22.2371 26.3958 22.3718 26.2396L25.8182 22.2396Z" fill="#2B63D9"/>
</svg>
