<svg width="32" height="32" viewBox="0 0 32 32" fill="none" xmlns="http://www.w3.org/2000/svg">
<path fill-rule="evenodd" clip-rule="evenodd" d="M4.25 7.75745C4.25 7.06709 4.80964 6.50745 5.5 6.50745H10.25C10.6642 6.50745 11 6.84323 11 7.25745C11 7.67166 10.6642 8.00745 10.25 8.00745H5.75V13.5074H11.25V12.5075C11.25 12.0933 11.5858 11.7575 12 11.7575C12.4142 11.7575 12.75 12.0933 12.75 12.5075V13.7574C12.75 14.4478 12.1904 15.0074 11.5 15.0074H5.5C4.80964 15.0074 4.25 14.4478 4.25 13.7574V7.75745ZM16 7.50744C15.5858 7.50744 15.25 7.84323 15.25 8.25744C15.25 8.67165 15.5858 9.00744 16 9.00744H26C26.4142 9.00744 26.75 8.67165 26.75 8.25744C26.75 7.84323 26.4142 7.50744 26 7.50744H16ZM16 11.6368C15.5858 11.6368 15.25 11.9726 15.25 12.3868C15.25 12.801 15.5858 13.1368 16 13.1368H23C23.4142 13.1368 23.75 12.801 23.75 12.3868C23.75 11.9726 23.4142 11.6368 23 11.6368H16ZM16 19.5074C15.5858 19.5074 15.25 19.8432 15.25 20.2574C15.25 20.6716 15.5858 21.0074 16 21.0074H17.1485C17.0511 21.4898 17 21.9889 17 22.4999C17 22.8416 17.0228 23.1779 17.0671 23.5074H16C15.5858 23.5074 15.25 23.8432 15.25 24.2574C15.25 24.6716 15.5858 25.0074 16 25.0074H17.4294C18.4611 27.9165 21.2373 29.9999 24.5 29.9999C28.6421 29.9999 32 26.6421 32 22.4999C32 18.3578 28.6421 14.9999 24.5 14.9999C21.4216 14.9999 18.7764 16.8546 17.6208 19.5074H16ZM13.5 8.25744C13.7803 7.95246 13.7603 7.47801 13.4553 7.19772C13.1503 6.91743 12.6759 6.93745 12.3956 7.24242L8.68104 10.7541L7.80927 9.5661C7.50218 9.28813 7.02789 9.31173 6.74992 9.61883C6.47195 9.92592 6.49556 10.4002 6.80265 10.6782L8.22626 12.3657C8.53171 12.6422 9.00299 12.6205 9.28178 12.3172L13.5 8.25744ZM4.25 18.7574C4.25 18.0671 4.80964 17.5074 5.5 17.5074H11.5C12.1904 17.5074 12.75 18.0671 12.75 18.7574V24.7574C12.75 25.4478 12.1904 26.0074 11.5 26.0074H5.5C4.80964 26.0074 4.25 25.4478 4.25 24.7574V18.7574ZM5.75 19.0074V24.5074H11.25V19.0074H5.75ZM20.5986 27.0914C20.1844 27.0914 19.8486 26.7556 19.8486 26.3414L19.8486 23.644C19.8486 23.2298 20.1844 22.894 20.5986 22.894C21.0128 22.894 21.3486 23.2298 21.3486 23.644V24.5307L23.0753 22.804C23.3682 22.5111 23.8431 22.5111 24.136 22.804C24.4289 23.0969 24.4289 23.5717 24.136 23.8646L22.4092 25.5914H23.2959C23.7102 25.5914 24.0459 25.9272 24.0459 26.3414C24.0459 26.7556 23.7102 27.0914 23.2959 27.0914H20.5986ZM29.0918 18.5986C29.0918 18.3996 29.0128 18.2089 28.8722 18.0682C28.7315 17.9276 28.5408 17.8486 28.3418 17.8486L25.6445 17.8486C25.2303 17.8486 24.8945 18.1843 24.8945 18.5986C24.8945 19.0128 25.2303 19.3486 25.6445 19.3486H26.5312L24.8044 21.0753C24.5116 21.3682 24.5116 21.8431 24.8044 22.136C25.0973 22.4288 25.5722 22.4288 25.8651 22.136L27.5918 20.4092V21.2959C27.5918 21.7101 27.9276 22.0459 28.3418 22.0459C28.7561 22.0459 29.0918 21.7101 29.0918 21.2959V18.5986Z" fill="#6D7B8C"/>
</svg>
