<svg xmlns="http://www.w3.org/2000/svg" fill="none" viewBox="0 0 24 24" height="24" width="24">
<rect stroke-linejoin="round" stroke-width="2" stroke="#232F3E" rx="2" height="16" width="21.6471" y="4" x="1"></rect>
<path stroke-width="0.3" stroke="#232F3E" fill="#232F3E" d="M17.1251 11.5696L17.1253 11.5693C17.2406 11.4387 17.3617 11.3139 17.4804 11.192C17.4863 11.186 17.4922 11.1799 17.4981 11.1739C17.6114 11.0575 17.7223 10.9437 17.8282 10.8259C17.9675 10.6704 18.0272 10.5039 18.0244 10.3586C18.0216 10.2154 17.9584 10.0815 17.8289 9.98144C17.576 9.78618 17.1875 9.84903 16.9821 10.1736L16.9816 10.1743C16.889 10.319 16.8146 10.4747 16.7603 10.6377C16.7002 10.8232 16.6217 10.9791 16.5 11.0798C16.3699 11.1874 16.2133 11.2142 16.0413 11.1882C15.6681 11.1319 15.4229 10.7779 15.4514 10.3916M17.1251 11.5696L15.601 10.4025M17.1251 11.5696C16.8426 11.8909 16.7065 12.2726 16.7097 12.8354C16.7091 13.0001 16.7576 13.1619 16.8616 13.2891C16.9672 13.4183 17.1224 13.5022 17.3143 13.52M17.1251 11.5696L16.8597 12.8353C16.8584 13.107 17.0195 13.3421 17.3286 13.3707C17.6208 13.3993 17.7682 13.227 17.8988 12.8396M15.4514 10.3916C15.4514 10.3915 15.4514 10.3915 15.4514 10.3915L15.601 10.4025M15.4514 10.3916C15.4514 10.3916 15.4514 10.3917 15.4514 10.3917L15.601 10.4025M15.4514 10.3916C15.5054 9.64449 15.9062 9.11375 16.5463 8.78239L16.5464 8.78233C17.5349 8.27175 18.8431 8.65619 19.2875 9.6202M15.601 10.4025C15.6507 9.71346 16.0158 9.22592 16.6153 8.9156C17.5375 8.43925 18.747 8.80616 19.1513 9.68299M19.2875 9.6202C19.2875 9.62018 19.2875 9.62015 19.2874 9.62013L19.1513 9.68299M19.2875 9.6202C19.4428 9.95677 19.5035 10.2922 19.4595 10.6194C19.4155 10.9467 19.2682 11.2549 19.0252 11.5391L19.0251 11.5393C18.939 11.6396 18.8441 11.7337 18.7545 11.8225C18.7376 11.8392 18.7209 11.8558 18.7046 11.8721C18.5986 11.9778 18.5017 12.0784 18.4214 12.1877L18.42 12.1898L18.4199 12.1898C18.2585 12.4021 18.1305 12.6378 18.0405 12.8889M19.2875 9.6202L19.1513 9.68299M19.1513 9.68299L18.0405 12.8889M18.0405 12.8889C18.0406 12.8884 18.0408 12.888 18.0409 12.8875L17.8988 12.8396M18.0405 12.8889L18.3005 12.099M18.0405 12.8889C18.0403 12.8893 18.0402 12.8898 18.04 12.8902L17.8988 12.8396M18.0405 12.8889C17.9737 13.0868 17.8952 13.2547 17.7793 13.3683C17.6534 13.4916 17.4977 13.5379 17.3143 13.52M17.8988 12.8396C17.9941 12.5736 18.1295 12.3238 18.3005 12.099M18.3005 12.099L18.3005 12.099L18.3005 12.099ZM17.3143 13.52C17.3145 13.52 17.3146 13.52 17.3147 13.52L17.3286 13.3707L17.3139 13.52C17.3141 13.52 17.3142 13.52 17.3143 13.52Z"></path>
<path stroke-width="0.3" stroke="#232F3E" fill="#232F3E" d="M16.6489 14.7432L16.6489 14.7435C16.6471 14.9738 16.7192 15.179 16.8543 15.3289C16.9901 15.4796 17.1817 15.5652 17.3986 15.5675C17.846 15.5722 18.1751 15.2004 18.1795 14.7598C18.184 14.322 17.8585 13.929 17.4174 13.9243C16.975 13.9195 16.6533 14.2929 16.6489 14.7432Z"></path>
<path stroke-linejoin="round" stroke-linecap="round" stroke-width="2" stroke="#232F3E" d="M8.93175 9.53882L4.76465 14.7477"></path>
<path stroke-linejoin="round" stroke-linecap="round" stroke-width="2" stroke="#232F3E" d="M4.76502 9.53882L8.93213 14.7477"></path>
<line stroke-linecap="round" stroke-width="2" stroke="#232F3E" y2="13.8733" x2="11.5985" y1="13.8733" x1="13.7656"></line>
<line stroke-linecap="round" stroke-width="2" stroke="#232F3E" y2="11.3728" x2="11.5985" y1="11.3728" x1="13.7656"></line>
</svg>
