<svg width="24" height="24" viewBox="0 0 24 24" fill="none" xmlns="http://www.w3.org/2000/svg">
<path d="M5.28398 19.0892L8.5293 11.9495C8.65076 11.6823 9.00579 11.6261 9.20376 11.8429L13.3534 16.3855C13.5164 16.564 13.7979 16.5629 13.9596 16.3831L15.5057 14.6637C15.6606 14.4914 15.9277 14.4821 16.0943 14.6432L20.6918 19.0892M20.6918 6.89119V17.2725C20.6918 18.377 19.7964 19.2725 18.6918 19.2725H6C4.89543 19.2725 4 18.377 4 17.2725V6.96521C4 5.86064 4.89543 4.96521 6 4.96521H18.7658" stroke="#546579" stroke-width="1.5"/>
<path d="M16.4429 11.5471L16.5665 12.2868C16.7206 12.2611 16.8628 12.1879 16.9733 12.0774L16.4429 11.5471ZM14.111 9.21516L13.5807 8.68483C13.4836 8.78192 13.415 8.9038 13.3824 9.03718L14.111 9.21516ZM13.418 12.0523L12.6894 11.8743C12.6295 12.1192 12.6968 12.3778 12.8683 12.5626C13.0399 12.7474 13.2928 12.8336 13.5415 12.792L13.418 12.0523ZM21.517 6.47295L20.9867 5.94262L21.517 6.47295ZM20.9867 5.94262L15.9126 11.0167L16.9733 12.0774L22.0474 7.00328L20.9867 5.94262ZM14.6413 9.74549L19.7155 4.67137L18.6548 3.61071L13.5807 8.68483L14.6413 9.74549ZM16.3194 10.8073L13.2944 11.3125L13.5415 12.792L16.5665 12.2868L16.3194 10.8073ZM14.1465 12.2303L14.8396 9.39314L13.3824 9.03718L12.6894 11.8743L14.1465 12.2303ZM20.9867 4.67137C21.3378 5.02241 21.3378 5.59157 20.9867 5.94262L22.0474 7.00328C22.9842 6.06644 22.9842 4.54754 22.0474 3.61071L20.9867 4.67137ZM22.0474 3.61071C21.1105 2.67387 19.5916 2.67387 18.6548 3.61071L19.7155 4.67137C20.0665 4.32032 20.6357 4.32032 20.9867 4.67137L22.0474 3.61071ZM13.932 9.34082L16.4194 11.8282L17.4801 10.7675L14.9927 8.28016L13.932 9.34082Z" fill="#546579"/>
</svg>
