<svg width="24" height="24" viewBox="0 0 24 24" fill="none" xmlns="http://www.w3.org/2000/svg">
<path d="M6.75 12.1429C6.75 11.7286 6.41421 11.3929 6 11.3929C5.58579 11.3929 5.25 11.7286 5.25 12.1429H6.75ZM18.1786 12.1429C18.1786 11.7286 17.8428 11.3929 17.4286 11.3929C17.0144 11.3929 16.6786 11.7286 16.6786 12.1429H18.1786ZM15.4286 21.75C15.8428 21.75 16.1786 21.4142 16.1786 21C16.1786 20.5858 15.8428 20.25 15.4286 20.25V21.75ZM8.25397 20.25C7.83976 20.25 7.50397 20.5858 7.50397 21C7.50397 21.4142 7.83976 21.75 8.25397 21.75V20.25ZM14.1389 6.1746V12.5238H15.6389V6.1746H14.1389ZM9.28969 12.5238V6.1746H7.78969V12.5238H9.28969ZM11.7143 14.9484C10.3752 14.9484 9.28969 13.8629 9.28969 12.5238H7.78969C7.78969 14.6913 9.54679 16.4484 11.7143 16.4484V14.9484ZM14.1389 12.5238C14.1389 13.8629 13.0534 14.9484 11.7143 14.9484V16.4484C13.8818 16.4484 15.6389 14.6913 15.6389 12.5238H14.1389ZM11.7143 3.75C13.0534 3.75 14.1389 4.83553 14.1389 6.1746H15.6389C15.6389 4.00711 13.8818 2.25 11.7143 2.25V3.75ZM11.7143 2.25C9.5468 2.25 7.78969 4.0071 7.78969 6.1746H9.28969C9.28969 4.83553 10.3752 3.75 11.7143 3.75V2.25ZM11.7143 17.1071C8.97259 17.1071 6.75 14.8846 6.75 12.1429H5.25C5.25 15.713 8.14416 18.6071 11.7143 18.6071V17.1071ZM16.6786 12.1429C16.6786 14.8846 14.456 17.1071 11.7143 17.1071V18.6071C15.2844 18.6071 18.1786 15.713 18.1786 12.1429H16.6786ZM10.9643 17.8571V21H12.4643V17.8571H10.9643ZM15.4286 20.25H11.7143V21.75H15.4286V20.25ZM11.7143 20.25H8.25397V21.75H11.7143V20.25Z" fill="#546579"/>
</svg>
