<svg width="24" height="24" viewBox="0 0 24 24" fill="none" xmlns="http://www.w3.org/2000/svg">
<path d="M9.00591 2V1.25C8.80792 1.25 8.61797 1.32829 8.47747 1.46779L9.00591 2ZM4 6.97042L3.47156 6.43821C3.32975 6.57901 3.25 6.77059 3.25 6.97042H4ZM7.40629 19.3213C7.8205 19.3213 8.15629 18.9855 8.15629 18.5713C8.15629 18.1571 7.8205 17.8213 7.40629 17.8213V19.3213ZM7.40629 6.97018V6.22018H7.40623L7.40629 6.97018ZM16.75 8.5C16.75 8.91421 17.0858 9.25 17.5 9.25C17.9142 9.25 18.25 8.91421 18.25 8.5H16.75ZM9.02091 10.9602C8.72292 10.6725 8.24812 10.6808 7.96041 10.9788C7.6727 11.2768 7.68103 11.7516 7.97902 12.0393L9.02091 10.9602ZM10.0535 12.9998L9.53259 13.5393C9.82689 13.8235 10.2946 13.8194 10.5839 13.5301L10.0535 12.9998ZM14.0303 10.0837C14.3232 9.79077 14.3232 9.31589 14.0303 9.023C13.7374 8.73011 13.2625 8.73011 12.9696 9.023L14.0303 10.0837ZM20.194 16.0927L19.6637 15.5623H19.6637L20.194 16.0927ZM17.1993 18.0267C16.9064 18.3196 16.9064 18.7945 17.1993 19.0874C17.4922 19.3803 17.9671 19.3803 18.2599 19.0874L17.1993 18.0267ZM20.194 14.8137L20.7244 14.2834L20.7244 14.2834L20.194 14.8137ZM20.0377 13.5967C19.7448 13.3038 19.2699 13.3038 18.977 13.5967C18.6842 13.8896 18.6842 14.3645 18.977 14.6574L20.0377 13.5967ZM20.3932 13.2481L20.9215 13.7805C21.0631 13.6401 21.1429 13.449 21.1432 13.2496C21.1436 13.0502 21.0646 12.8588 20.9236 12.7178L20.3932 13.2481ZM17.7421 10.597L18.2724 10.0666C17.9804 9.77455 17.5071 9.77362 17.2139 10.0646L17.7421 10.597ZM9.92558 18.3523L9.39734 17.8199C9.29788 17.9186 9.22805 18.0431 9.19577 18.1795L9.92558 18.3523ZM12.5767 21.0034L12.7667 21.729C12.8945 21.6955 13.0112 21.6289 13.105 21.5359L12.5767 21.0034ZM9.08089 21.9189L8.35108 21.746C8.2904 22.0022 8.3685 22.2715 8.55684 22.4554C8.74518 22.6394 9.01619 22.7111 9.27088 22.6444L9.08089 21.9189ZM20.9191 10.8829L21.4495 10.3525L20.9191 10.8829ZM19.9551 9.91888L19.4248 10.4492L19.9551 9.91888ZM19.2059 9.91888L19.7362 10.4492L19.2059 9.91888ZM20.9191 11.6321L21.4495 12.1624L20.9191 11.6321ZM3.25 8.63135C3.25 9.04556 3.58579 9.38135 4 9.38135C4.41421 9.38135 4.75 9.04556 4.75 8.63135H3.25ZM15.7857 1.25H9.00591V2.75H15.7857V1.25ZM8.47747 1.46779L3.47156 6.43821L4.52844 7.50264L9.53435 2.53221L8.47747 1.46779ZM3.25 6.97042V8.63135H4.75V6.97042H3.25ZM7.40629 17.8213H5.71429V19.3213H7.40629V17.8213ZM18.25 3.71429C18.25 2.3533 17.1467 1.25 15.7857 1.25V2.75C16.3183 2.75 16.75 3.18173 16.75 3.71429H18.25ZM3.25 16.857C3.25 18.218 4.3533 19.3213 5.71429 19.3213V17.8213C5.18173 17.8213 4.75 17.3896 4.75 16.857H3.25ZM4.00005 7.72042L7.40634 7.72018L7.40623 6.22018L3.99995 6.22042L4.00005 7.72042ZM7.40629 7.72018C8.57646 7.72018 9.75591 6.76986 9.75591 5.46304H8.25591C8.25591 5.8211 7.87372 6.22018 7.40629 6.22018V7.72018ZM9.75591 5.46304V2H8.25591V5.46304H9.75591ZM18.25 8.5V3.71429H16.75V8.5H18.25ZM4.75 16.857C4.75 16.8552 4.75 16.8533 4.75 16.8514C4.75 16.8495 4.75 16.8476 4.75 16.8456C4.75 16.8437 4.75 16.8417 4.75 16.8397C4.75 16.8377 4.75 16.8357 4.75 16.8337C4.75 16.8316 4.75 16.8296 4.75 16.8275C4.75 16.8254 4.75 16.8233 4.75 16.8212C4.75 16.819 4.75 16.8169 4.75 16.8147C4.75 16.8125 4.75 16.8103 4.75 16.8081C4.75 16.8058 4.75 16.8036 4.75 16.8013C4.75 16.799 4.75 16.7967 4.75 16.7944C4.75 16.7921 4.75 16.7897 4.75 16.7874C4.75 16.785 4.75 16.7826 4.75 16.7802C4.75 16.7778 4.75 16.7753 4.75 16.7729C4.75 16.7704 4.75 16.7679 4.75 16.7654C4.75 16.7629 4.75 16.7604 4.75 16.7579C4.75 16.7553 4.75 16.7527 4.75 16.7501C4.75 16.7475 4.75 16.7449 4.75 16.7423C4.75 16.7396 4.75 16.737 4.75 16.7343C4.75 16.7316 4.75 16.7289 4.75 16.7262C4.75 16.7234 4.75 16.7207 4.75 16.7179C4.75 16.7151 4.75 16.7123 4.75 16.7095C4.75 16.7067 4.75 16.7039 4.75 16.701C4.75 16.6981 4.75 16.6952 4.75 16.6923C4.75 16.6894 4.75 16.6865 4.75 16.6836C4.75 16.6806 4.75 16.6776 4.75 16.6746C4.75 16.6716 4.75 16.6686 4.75 16.6656C4.75 16.6626 4.75 16.6595 4.75 16.6564C4.75 16.6533 4.75 16.6502 4.75 16.6471C4.75 16.644 4.75 16.6408 4.75 16.6377C4.75 16.6345 4.75 16.6313 4.75 16.6281C4.75 16.6249 4.75 16.6217 4.75 16.6184C4.75 16.6152 4.75 16.6119 4.75 16.6086C4.75 16.6053 4.75 16.602 4.75 16.5987C4.75 16.5954 4.75 16.592 4.75 16.5886C4.75 16.5853 4.75 16.5819 4.75 16.5784C4.75 16.575 4.75 16.5716 4.75 16.5681C4.75 16.5647 4.75 16.5612 4.75 16.5577C4.75 16.5542 4.75 16.5507 4.75 16.5471C4.75 16.5436 4.75 16.5401 4.75 16.5365C4.75 16.5329 4.75 16.5293 4.75 16.5257C4.75 16.5221 4.75 16.5184 4.75 16.5148C4.75 16.5111 4.75 16.5074 4.75 16.5037C4.75 16.5 4.75 16.4963 4.75 16.4926C4.75 16.4888 4.75 16.4851 4.75 16.4813C4.75 16.4775 4.75 16.4737 4.75 16.4699C4.75 16.4661 4.75 16.4622 4.75 16.4584C4.75 16.4545 4.75 16.4506 4.75 16.4467C4.75 16.4429 4.75 16.4389 4.75 16.435C4.75 16.4311 4.75 16.4271 4.75 16.4231C4.75 16.4192 4.75 16.4152 4.75 16.4112C4.75 16.4072 4.75 16.4031 4.75 16.3991C4.75 16.395 4.75 16.391 4.75 16.3869C4.75 16.3828 4.75 16.3787 4.75 16.3746C4.75 16.3704 4.75 16.3663 4.75 16.3621C4.75 16.358 4.75 16.3538 4.75 16.3496C4.75 16.3454 4.75 16.3412 4.75 16.3369C4.75 16.3327 4.75 16.3284 4.75 16.3242C4.75 16.3199 4.75 16.3156 4.75 16.3113C4.75 16.307 4.75 16.3026 4.75 16.2983C4.75 16.294 4.75 16.2896 4.75 16.2852C4.75 16.2808 4.75 16.2764 4.75 16.272C4.75 16.2676 4.75 16.2632 4.75 16.2587C4.75 16.2542 4.75 16.2498 4.75 16.2453C4.75 16.2408 4.75 16.2363 4.75 16.2318C4.75 16.2272 4.75 16.2227 4.75 16.2181C4.75 16.2136 4.75 16.209 4.75 16.2044C4.75 16.1998 4.75 16.1952 4.75 16.1905C4.75 16.1859 4.75 16.1813 4.75 16.1766C4.75 16.1719 4.75 16.1673 4.75 16.1626C4.75 16.1579 4.75 16.1531 4.75 16.1484C4.75 16.1437 4.75 16.1389 4.75 16.1342C4.75 16.1294 4.75 16.1246 4.75 16.1198C4.75 16.115 4.75 16.1102 4.75 16.1053C4.75 16.1005 4.75 16.0957 4.75 16.0908C4.75 16.0859 4.75 16.081 4.75 16.0761C4.75 16.0712 4.75 16.0663 4.75 16.0614C4.75 16.0564 4.75 16.0515 4.75 16.0465C4.75 16.0416 4.75 16.0366 4.75 16.0316C4.75 16.0266 4.75 16.0216 4.75 16.0165C4.75 16.0115 4.75 16.0064 4.75 16.0014C4.75 15.9963 4.75 15.9912 4.75 15.9861C4.75 15.981 4.75 15.9759 4.75 15.9708C4.75 15.9657 4.75 15.9605 4.75 15.9554C4.75 15.9502 4.75 15.945 4.75 15.9398C4.75 15.9346 4.75 15.9294 4.75 15.9242C4.75 15.919 4.75 15.9137 4.75 15.9085C4.75 15.9032 4.75 15.898 4.75 15.8927C4.75 15.8874 4.75 15.8821 4.75 15.8768C4.75 15.8715 4.75 15.8661 4.75 15.8608C4.75 15.8554 4.75 15.8501 4.75 15.8447C4.75 15.8393 4.75 15.8339 4.75 15.8285C4.75 15.8231 4.75 15.8177 4.75 15.8123C4.75 15.8068 4.75 15.8014 4.75 15.7959C4.75 15.7905 4.75 15.785 4.75 15.7795C4.75 15.774 4.75 15.7685 4.75 15.763C4.75 15.7574 4.75 15.7519 4.75 15.7463C4.75 15.7408 4.75 15.7352 4.75 15.7296C4.75 15.7241 4.75 15.7185 4.75 15.7129C4.75 15.7073 4.75 15.7016 4.75 15.696C4.75 15.6904 4.75 15.6847 4.75 15.679C4.75 15.6734 4.75 15.6677 4.75 15.662C4.75 15.6563 4.75 15.6506 4.75 15.6449C4.75 15.6391 4.75 15.6334 4.75 15.6277C4.75 15.6219 4.75 15.6162 4.75 15.6104C4.75 15.6046 4.75 15.5988 4.75 15.593C4.75 15.5872 4.75 15.5814 4.75 15.5756C4.75 15.5697 4.75 15.5639 4.75 15.558C4.75 15.5522 4.75 15.5463 4.75 15.5404C4.75 15.5345 4.75 15.5286 4.75 15.5227C4.75 15.5168 4.75 15.5109 4.75 15.5049C4.75 15.499 4.75 15.4931 4.75 15.4871C4.75 15.4811 4.75 15.4752 4.75 15.4692C4.75 15.4632 4.75 15.4572 4.75 15.4512C4.75 15.4452 4.75 15.4391 4.75 15.4331C4.75 15.4271 4.75 15.421 4.75 15.4149C4.75 15.4089 4.75 15.4028 4.75 15.3967C4.75 15.3906 4.75 15.3845 4.75 15.3784C4.75 15.3723 4.75 15.3662 4.75 15.36C4.75 15.3539 4.75 15.3477 4.75 15.3416C4.75 15.3354 4.75 15.3292 4.75 15.3231C4.75 15.3169 4.75 15.3107 4.75 15.3045C4.75 15.2983 4.75 15.292 4.75 15.2858C4.75 15.2796 4.75 15.2733 4.75 15.2671C4.75 15.2608 4.75 15.2545 4.75 15.2483C4.75 15.242 4.75 15.2357 4.75 15.2294C4.75 15.2231 4.75 15.2168 4.75 15.2104C4.75 15.2041 4.75 15.1978 4.75 15.1914C4.75 15.1851 4.75 15.1787 4.75 15.1723C4.75 15.166 4.75 15.1596 4.75 15.1532C4.75 15.1468 4.75 15.1404 4.75 15.134C4.75 15.1276 4.75 15.1211 4.75 15.1147C4.75 15.1083 4.75 15.1018 4.75 15.0954C4.75 15.0889 4.75 15.0824 4.75 15.0759C4.75 15.0695 4.75 15.063 4.75 15.0565C4.75 15.05 4.75 15.0435 4.75 15.0369C4.75 15.0304 4.75 15.0239 4.75 15.0173C4.75 15.0108 4.75 15.0042 4.75 14.9977C4.75 14.9911 4.75 14.9845 4.75 14.978C4.75 14.9714 4.75 14.9648 4.75 14.9582C4.75 14.9516 4.75 14.9449 4.75 14.9383C4.75 14.9317 4.75 14.9251 4.75 14.9184C4.75 14.9118 4.75 14.9051 4.75 14.8985C4.75 14.8918 4.75 14.8851 4.75 14.8784C4.75 14.8717 4.75 14.8651 4.75 14.8584C4.75 14.8517 4.75 14.8449 4.75 14.8382C4.75 14.8315 4.75 14.8248 4.75 14.818C4.75 14.8113 4.75 14.8045 4.75 14.7978C4.75 14.791 4.75 14.7842 4.75 14.7775C4.75 14.7707 4.75 14.7639 4.75 14.7571C4.75 14.7503 4.75 14.7435 4.75 14.7367C4.75 14.7299 4.75 14.7231 4.75 14.7162C4.75 14.7094 4.75 14.7025 4.75 14.6957C4.75 14.6888 4.75 14.682 4.75 14.6751C4.75 14.6683 4.75 14.6614 4.75 14.6545C4.75 14.6476 4.75 14.6407 4.75 14.6338C4.75 14.6269 4.75 14.62 4.75 14.6131C4.75 14.6062 4.75 14.5992 4.75 14.5923C4.75 14.5854 4.75 14.5784 4.75 14.5715C4.75 14.5645 4.75 14.5576 4.75 14.5506C4.75 14.5436 4.75 14.5367 4.75 14.5297C4.75 14.5227 4.75 14.5157 4.75 14.5087C4.75 14.5017 4.75 14.4947 4.75 14.4877C4.75 14.4807 4.75 14.4737 4.75 14.4666C4.75 14.4596 4.75 14.4526 4.75 14.4455C4.75 14.4385 4.75 14.4314 4.75 14.4244C4.75 14.4173 4.75 14.4102 4.75 14.4032C4.75 14.3961 4.75 14.389 4.75 14.3819C4.75 14.3748 4.75 14.3677 4.75 14.3606C4.75 14.3535 4.75 14.3464 4.75 14.3393C4.75 14.3322 4.75 14.3251 4.75 14.3179C4.75 14.3108 4.75 14.3037 4.75 14.2965C4.75 14.2894 4.75 14.2822 4.75 14.2751C4.75 14.2679 4.75 14.2607 4.75 14.2536C4.75 14.2464 4.75 14.2392 4.75 14.232C4.75 14.2248 4.75 14.2177 4.75 14.2105C4.75 14.2033 4.75 14.1961 4.75 14.1888C4.75 14.1816 4.75 14.1744 4.75 14.1672C4.75 14.16 4.75 14.1527 4.75 14.1455C4.75 14.1383 4.75 14.131 4.75 14.1238C4.75 14.1165 4.75 14.1093 4.75 14.102C4.75 14.0948 4.75 14.0875 4.75 14.0802C4.75 14.073 4.75 14.0657 4.75 14.0584C4.75 14.0511 4.75 14.0438 4.75 14.0365C4.75 14.0292 4.75 14.0219 4.75 14.0146C4.75 14.0073 4.75 14 4.75 13.9927C4.75 13.9854 4.75 13.9781 4.75 13.9707C4.75 13.9634 4.75 13.9561 4.75 13.9487C4.75 13.9414 4.75 13.9341 4.75 13.9267C4.75 13.9194 4.75 13.912 4.75 13.9047C4.75 13.8973 4.75 13.8899 4.75 13.8826C4.75 13.8752 4.75 13.8678 4.75 13.8605C4.75 13.8531 4.75 13.8457 4.75 13.8383C4.75 13.8309 4.75 13.8235 4.75 13.8161C4.75 13.8087 4.75 13.8013 4.75 13.7939C4.75 13.7865 4.75 13.7791 4.75 13.7717C4.75 13.7643 4.75 13.7569 4.75 13.7495C4.75 13.742 4.75 13.7346 4.75 13.7272C4.75 13.7197 4.75 13.7123 4.75 13.7049C4.75 13.6974 4.75 13.69 4.75 13.6825C4.75 13.6751 4.75 13.6676 4.75 13.6602C4.75 13.6527 4.75 13.6453 4.75 13.6378C4.75 13.6304 4.75 13.6229 4.75 13.6154C4.75 13.6079 4.75 13.6005 4.75 13.593C4.75 13.5855 4.75 13.578 4.75 13.5706C4.75 13.5631 4.75 13.5556 4.75 13.5481C4.75 13.5406 4.75 13.5331 4.75 13.5256C4.75 13.5181 4.75 13.5106 4.75 13.5031C4.75 13.4956 4.75 13.4881 4.75 13.4806C4.75 13.4731 4.75 13.4656 4.75 13.458C4.75 13.4505 4.75 13.443 4.75 13.4355C4.75 13.428 4.75 13.4204 4.75 13.4129C4.75 13.4054 4.75 13.3979 4.75 13.3903C4.75 13.3828 4.75 13.3752 4.75 13.3677C4.75 13.3602 4.75 13.3526 4.75 13.3451C4.75 13.3375 4.75 13.33 4.75 13.3224C4.75 13.3149 4.75 13.3074 4.75 13.2998C4.75 13.2922 4.75 13.2847 4.75 13.2771C4.75 13.2696 4.75 13.262 4.75 13.2545C4.75 13.2469 4.75 13.2393 4.75 13.2318C4.75 13.2242 4.75 13.2166 4.75 13.2091C4.75 13.2015 4.75 13.1939 4.75 13.1863C4.75 13.1788 4.75 13.1712 4.75 13.1636C4.75 13.156 4.75 13.1485 4.75 13.1409C4.75 13.1333 4.75 13.1257 4.75 13.1182C4.75 13.1106 4.75 13.103 4.75 13.0954C4.75 13.0878 4.75 13.0802 4.75 13.0726C4.75 13.0651 4.75 13.0575 4.75 13.0499C4.75 13.0423 4.75 13.0347 4.75 13.0271C4.75 13.0195 4.75 13.0119 4.75 13.0043C4.75 12.9967 4.75 12.9891 4.75 12.9815C4.75 12.9739 4.75 12.9663 4.75 12.9587C4.75 12.9511 4.75 12.9435 4.75 12.936C4.75 12.9284 4.75 12.9208 4.75 12.9132C4.75 12.9056 4.75 12.898 4.75 12.8904C4.75 12.8827 4.75 12.8751 4.75 12.8675C4.75 12.8599 4.75 12.8523 4.75 12.8447C4.75 12.8371 4.75 12.8295 4.75 12.8219C4.75 12.8143 4.75 12.8067 4.75 12.7991C4.75 12.7915 4.75 12.7839 4.75 12.7763C4.75 12.7687 4.75 12.7611 4.75 12.7535C4.75 12.7459 4.75 12.7383 4.75 12.7307C4.75 12.7231 4.75 12.7155 4.75 12.7079C4.75 12.7003 4.75 12.6927 4.75 12.6851C4.75 12.6775 4.75 12.6699 4.75 12.6623C4.75 12.6547 4.75 12.6471 4.75 12.6395C4.75 12.6319 4.75 12.6243 4.75 12.6167C4.75 12.6091 4.75 12.6015 4.75 12.5939C4.75 12.5863 4.75 12.5787 4.75 12.5711C4.75 12.5635 4.75 12.556 4.75 12.5484C4.75 12.5408 4.75 12.5332 4.75 12.5256C4.75 12.518 4.75 12.5104 4.75 12.5028C4.75 12.4952 4.75 12.4877 4.75 12.4801C4.75 12.4725 4.75 12.4649 4.75 12.4573C4.75 12.4497 4.75 12.4422 4.75 12.4346C4.75 12.427 4.75 12.4194 4.75 12.4119C4.75 12.4043 4.75 12.3967 4.75 12.3891C4.75 12.3816 4.75 12.374 4.75 12.3664C4.75 12.3589 4.75 12.3513 4.75 12.3437C4.75 12.3362 4.75 12.3286 4.75 12.3211C4.75 12.3135 4.75 12.3059 4.75 12.2984C4.75 12.2908 4.75 12.2833 4.75 12.2757C4.75 12.2682 4.75 12.2606 4.75 12.2531C4.75 12.2455 4.75 12.238 4.75 12.2305C4.75 12.2229 4.75 12.2154 4.75 12.2079C4.75 12.2003 4.75 12.1928 4.75 12.1853C4.75 12.1777 4.75 12.1702 4.75 12.1627C4.75 12.1551 4.75 12.1476 4.75 12.1401C4.75 12.1326 4.75 12.1251 4.75 12.1176C4.75 12.11 4.75 12.1025 4.75 12.095C4.75 12.0875 4.75 12.08 4.75 12.0725C4.75 12.065 4.75 12.0575 4.75 12.05C4.75 12.0425 4.75 12.035 4.75 12.0276C4.75 12.0201 4.75 12.0126 4.75 12.0051C4.75 11.9976 4.75 11.9902 4.75 11.9827C4.75 11.9752 4.75 11.9677 4.75 11.9603C4.75 11.9528 4.75 11.9453 4.75 11.9379C4.75 11.9304 4.75 11.923 4.75 11.9155C4.75 11.9081 4.75 11.9006 4.75 11.8932C4.75 11.8857 4.75 11.8783 4.75 11.8709C4.75 11.8634 4.75 11.856 4.75 11.8486C4.75 11.8412 4.75 11.8337 4.75 11.8263C4.75 11.8189 4.75 11.8115 4.75 11.8041C4.75 11.7967 4.75 11.7893 4.75 11.7819C4.75 11.7745 4.75 11.7671 4.75 11.7597C4.75 11.7523 4.75 11.7449 4.75 11.7375C4.75 11.7302 4.75 11.7228 4.75 11.7154C4.75 11.708 4.75 11.7007 4.75 11.6933C4.75 11.6859 4.75 11.6786 4.75 11.6712C4.75 11.6639 4.75 11.6565 4.75 11.6492C4.75 11.6419 4.75 11.6345 4.75 11.6272C4.75 11.6199 4.75 11.6125 4.75 11.6052C4.75 11.5979 4.75 11.5906 4.75 11.5833C4.75 11.576 4.75 11.5687 4.75 11.5614C4.75 11.5541 4.75 11.5468 4.75 11.5395C4.75 11.5322 4.75 11.5249 4.75 11.5176C4.75 11.5104 4.75 11.5031 4.75 11.4958C4.75 11.4886 4.75 11.4813 4.75 11.4741C4.75 11.4668 4.75 11.4596 4.75 11.4523C4.75 11.4451 4.75 11.4378 4.75 11.4306C4.75 11.4234 4.75 11.4162 4.75 11.409C4.75 11.4017 4.75 11.3945 4.75 11.3873C4.75 11.3801 4.75 11.3729 4.75 11.3657C4.75 11.3586 4.75 11.3514 4.75 11.3442C4.75 11.337 4.75 11.3298 4.75 11.3227C4.75 11.3155 4.75 11.3084 4.75 11.3012C4.75 11.2941 4.75 11.2869 4.75 11.2798C4.75 11.2726 4.75 11.2655 4.75 11.2584C4.75 11.2513 4.75 11.2442 4.75 11.237C4.75 11.2299 4.75 11.2228 4.75 11.2157C4.75 11.2086 4.75 11.2016 4.75 11.1945C4.75 11.1874 4.75 11.1803 4.75 11.1733C4.75 11.1662 4.75 11.1591 4.75 11.1521C4.75 11.145 4.75 11.138 4.75 11.131C4.75 11.1239 4.75 11.1169 4.75 11.1099C4.75 11.1029 4.75 11.0958 4.75 11.0888C4.75 11.0818 4.75 11.0748 4.75 11.0678C4.75 11.0609 4.75 11.0539 4.75 11.0469C4.75 11.0399 4.75 11.033 4.75 11.026C4.75 11.0191 4.75 11.0121 4.75 11.0052C4.75 10.9982 4.75 10.9913 4.75 10.9844C4.75 10.9774 4.75 10.9705 4.75 10.9636C4.75 10.9567 4.75 10.9498 4.75 10.9429C4.75 10.936 4.75 10.9292 4.75 10.9223C4.75 10.9154 4.75 10.9085 4.75 10.9017C4.75 10.8948 4.75 10.888 4.75 10.8811C4.75 10.8743 4.75 10.8675 4.75 10.8607C4.75 10.8538 4.75 10.847 4.75 10.8402C4.75 10.8334 4.75 10.8266 4.75 10.8198C4.75 10.813 4.75 10.8063 4.75 10.7995C4.75 10.7927 4.75 10.786 4.75 10.7792C4.75 10.7725 4.75 10.7657 4.75 10.759C4.75 10.7523 4.75 10.7456 4.75 10.7389C4.75 10.7321 4.75 10.7254 4.75 10.7188C4.75 10.7121 4.75 10.7054 4.75 10.6987C4.75 10.692 4.75 10.6854 4.75 10.6787C4.75 10.6721 4.75 10.6654 4.75 10.6588C4.75 10.6522 4.75 10.6455 4.75 10.6389C4.75 10.6323 4.75 10.6257 4.75 10.6191C4.75 10.6125 4.75 10.6059 4.75 10.5994C4.75 10.5928 4.75 10.5862 4.75 10.5797C4.75 10.5731 4.75 10.5666 4.75 10.5601C4.75 10.5535 4.75 10.547 4.75 10.5405C4.75 10.534 4.75 10.5275 4.75 10.521C4.75 10.5145 4.75 10.508 4.75 10.5016C4.75 10.4951 4.75 10.4886 4.75 10.4822C4.75 10.4758 4.75 10.4693 4.75 10.4629C4.75 10.4565 4.75 10.4501 4.75 10.4437C4.75 10.4373 4.75 10.4309 4.75 10.4245C4.75 10.4181 4.75 10.4117 4.75 10.4054C4.75 10.399 4.75 10.3927 4.75 10.3863C4.75 10.38 4.75 10.3737 4.75 10.3674C4.75 10.3611 4.75 10.3548 4.75 10.3485C4.75 10.3422 4.75 10.3359 4.75 10.3296C4.75 10.3234 4.75 10.3171 4.75 10.3109C4.75 10.3046 4.75 10.2984 4.75 10.2922C4.75 10.286 4.75 10.2797 4.75 10.2736C4.75 10.2674 4.75 10.2612 4.75 10.255C4.75 10.2488 4.75 10.2427 4.75 10.2365C4.75 10.2304 4.75 10.2242 4.75 10.2181C4.75 10.212 4.75 10.2059 4.75 10.1998C4.75 10.1937 4.75 10.1876 4.75 10.1815C4.75 10.1755 4.75 10.1694 4.75 10.1633C4.75 10.1573 4.75 10.1513 4.75 10.1452C4.75 10.1392 4.75 10.1332 4.75 10.1272C4.75 10.1212 4.75 10.1152 4.75 10.1093C4.75 10.1033 4.75 10.0973 4.75 10.0914C4.75 10.0854 4.75 10.0795 4.75 10.0736C4.75 10.0677 4.75 10.0618 4.75 10.0559C4.75 10.05 4.75 10.0441 4.75 10.0382C4.75 10.0323 4.75 10.0265 4.75 10.0207C4.75 10.0148 4.75 10.009 4.75 10.0032C4.75 9.99735 4.75 9.99155 4.75 9.98577C4.75 9.97998 4.75 9.97421 4.75 9.96845C4.75 9.96269 4.75 9.95694 4.75 9.95121C4.75 9.94548 4.75 9.93976 4.75 9.93405C4.75 9.92835 4.75 9.92266 4.75 9.91698C4.75 9.9113 4.75 9.90564 4.75 9.89999C4.75 9.89434 4.75 9.88871 4.75 9.88309C4.75 9.87747 4.75 9.87186 4.75 9.86627C4.75 9.86068 4.75 9.8551 4.75 9.84953C4.75 9.84397 4.75 9.83842 4.75 9.83289C4.75 9.82735 4.75 9.82183 4.75 9.81633C4.75 9.81082 4.75 9.80533 4.75 9.79985C4.75 9.79438 4.75 9.78892 4.75 9.78347C4.75 9.77802 4.75 9.77259 4.75 9.76717C4.75 9.76176 4.75 9.75635 4.75 9.75097C4.75 9.74558 4.75 9.74021 4.75 9.73485C4.75 9.72949 4.75 9.72415 4.75 9.71882C4.75 9.7135 4.75 9.70819 4.75 9.70289C4.75 9.69759 4.75 9.69231 4.75 9.68705C4.75 9.68178 4.75 9.67653 4.75 9.6713C4.75 9.66606 4.75 9.66084 4.75 9.65564C4.75 9.65043 4.75 9.64525 4.75 9.64007C4.75 9.6349 4.75 9.62974 4.75 9.6246C4.75 9.61946 4.75 9.61434 4.75 9.60923C4.75 9.60412 4.75 9.59903 4.75 9.59395C4.75 9.58887 4.75 9.58381 4.75 9.57876C4.75 9.57372 4.75 9.56869 4.75 9.56368C4.75 9.55866 4.75 9.55367 4.75 9.54869C4.75 9.54371 4.75 9.53874 4.75 9.53379C4.75 9.52885 4.75 9.52392 4.75 9.519C4.75 9.51409 4.75 9.50919 4.75 9.50431C4.75 9.49942 4.75 9.49456 4.75 9.48971C4.75 9.48486 4.75 9.48003 4.75 9.47522C4.75 9.4704 4.75 9.4656 4.75 9.46082C4.75 9.45604 4.75 9.45128 4.75 9.44653C4.75 9.44178 4.75 9.43705 4.75 9.43234C4.75 9.42763 4.75 9.42293 4.75 9.41825C4.75 9.41357 4.75 9.40891 4.75 9.40427C4.75 9.39962 4.75 9.395 4.75 9.39039C4.75 9.38578 4.75 9.38119 4.75 9.37661C4.75 9.37204 4.75 9.36748 4.75 9.36294C4.75 9.3584 4.75 9.35388 4.75 9.34938C4.75 9.34487 4.75 9.34039 4.75 9.33592C4.75 9.33145 4.75 9.327 4.75 9.32257C4.75 9.31813 4.75 9.31372 4.75 9.30932C4.75 9.30493 4.75 9.30055 4.75 9.29619C4.75 9.29183 4.75 9.28748 4.75 9.28316C4.75 9.27884 4.75 9.27453 4.75 9.27024C4.75 9.26596 4.75 9.26169 4.75 9.25744C4.75 9.25318 4.75 9.24895 4.75 9.24474C4.75 9.24053 4.75 9.23633 4.75 9.23215C4.75 9.22798 4.75 9.22382 4.75 9.21968C4.75 9.21554 4.75 9.21142 4.75 9.20732C4.75 9.20322 4.75 9.19913 4.75 9.19507C4.75 9.19101 4.75 9.18696 4.75 9.18294C4.75 9.17891 4.75 9.1749 4.75 9.17091C4.75 9.16693 4.75 9.16296 4.75 9.15901C4.75 9.15506 4.75 9.15113 4.75 9.14722C4.75 9.14331 4.75 9.13942 4.75 9.13555C4.75 9.13167 4.75 9.12782 4.75 9.12399C4.75 9.12016 4.75 9.11634 4.75 9.11255C4.75 9.10875 4.75 9.10498 4.75 9.10123C4.75 9.09747 4.75 9.09374 4.75 9.09002C4.75 9.08631 4.75 9.08261 4.75 9.07894C4.75 9.07526 4.75 9.07161 4.75 9.06797C4.75 9.06434 4.75 9.06072 4.75 9.05713C4.75 9.05354 4.75 9.04996 4.75 9.04641C4.75 9.04285 4.75 9.03932 4.75 9.03581C4.75 9.03229 4.75 9.0288 4.75 9.02533C4.75 9.02185 4.75 9.0184 4.75 9.01497C4.75 9.01154 4.75 9.00813 4.75 9.00474C4.75 9.00135 4.75 8.99798 4.75 8.99463C4.75 8.99128 4.75 8.98795 4.75 8.98464C4.75 8.98133 4.75 8.97805 4.75 8.97478C4.75 8.97152 4.75 8.96827 4.75 8.96505C4.75 8.96183 4.75 8.95862 4.75 8.95544C4.75 8.95226 4.75 8.9491 4.75 8.94596C4.75 8.94282 4.75 8.93971 4.75 8.93661C4.75 8.93351 4.75 8.93044 4.75 8.92739C4.75 8.92433 4.75 8.9213 4.75 8.91829C4.75 8.91528 4.75 8.91229 4.75 8.90932C4.75 8.90636 4.75 8.90341 4.75 8.90049C4.75 8.89757 4.75 8.89466 4.75 8.89178C4.75 8.8889 4.75 8.88605 4.75 8.88321C4.75 8.88037 4.75 8.87756 4.75 8.87477C4.75 8.87198 4.75 8.86921 4.75 8.86646C4.75 8.86371 4.75 8.86099 4.75 8.85828C4.75 8.85558 4.75 8.8529 4.75 8.85024C4.75 8.84758 4.75 8.84495 4.75 8.84233C4.75 8.83972 4.75 8.83713 4.75 8.83456C4.75 8.83199 4.75 8.82945 4.75 8.82692C4.75 8.8244 4.75 8.8219 4.75 8.81942C4.75 8.81694 4.75 8.81449 4.75 8.81206C4.75 8.80962 4.75 8.80722 4.75 8.80483C4.75 8.80244 4.75 8.80008 4.75 8.79774C4.75 8.7954 4.75 8.79308 4.75 8.79079C4.75 8.7885 4.75 8.78623 4.75 8.78398C4.75 8.78173 4.75 8.77951 4.75 8.77731C4.75 8.77511 4.75 8.77293 4.75 8.77078C4.75 8.76862 4.75 8.76649 4.75 8.76439C4.75 8.76228 4.75 8.7602 4.75 8.75814C4.75 8.75608 4.75 8.75404 4.75 8.75203C4.75 8.75002 4.75 8.74803 4.75 8.74607C4.75 8.7441 4.75 8.74216 4.75 8.74025C4.75 8.73833 4.75 8.73644 4.75 8.73457C4.75 8.73271 4.75 8.73086 4.75 8.72904C4.75 8.72722 4.75 8.72543 4.75 8.72366C4.75 8.72189 4.75 8.72014 4.75 8.71842C4.75 8.71669 4.75 8.715 4.75 8.71332C4.75 8.71165 4.75 8.71 4.75 8.70838C4.75 8.70675 4.75 8.70515 4.75 8.70358C4.75 8.702 4.75 8.70045 4.75 8.69893C4.75 8.6974 4.75 8.6959 4.75 8.69443C4.75 8.69295 4.75 8.6915 4.75 8.69008C4.75 8.68865 4.75 8.68725 4.75 8.68588C4.75 8.6845 4.75 8.68315 4.75 8.68183C4.75 8.6805 4.75 8.6792 4.75 8.67793C4.75 8.67665 4.75 8.6754 4.75 8.67418C4.75 8.67296 4.75 8.67176 4.75 8.67058C4.75 8.66941 4.75 8.66826 4.75 8.66714C4.75 8.66602 4.75 8.66493 4.75 8.66386C4.75 8.66279 4.75 8.66174 4.75 8.66072C4.75 8.6597 4.75 8.65871 4.75 8.65774C4.75 8.65678 4.75 8.65584 4.75 8.65492C4.75 8.65401 4.75 8.65312 4.75 8.65226C4.75 8.65139 4.75 8.65056 4.75 8.64975C4.75 8.64894 4.75 8.64815 4.75 8.6474C4.75 8.64664 4.75 8.64591 4.75 8.6452C4.75 8.6445 4.75 8.64382 4.75 8.64317C4.75 8.64252 4.75 8.64189 4.75 8.64129C4.75 8.64069 4.75 8.64012 4.75 8.63958C4.75 8.63903 4.75 8.63851 4.75 8.63802C4.75 8.63753 4.75 8.63706 4.75 8.63663C4.75 8.63619 4.75 8.63578 4.75 8.63539C4.75 8.63501 4.75 8.63465 4.75 8.63432C4.75 8.63399 4.75 8.63369 4.75 8.63342C4.75 8.63314 4.75 8.63289 4.75 8.63267C4.75 8.63245 4.75 8.63226 4.75 8.63209C4.75 8.63193 4.75 8.63179 4.75 8.63168C4.75 8.63157 4.75 8.63149 4.75 8.63143C4.75 8.63137 4.75 8.63135 4 8.63135C3.25 8.63135 3.25 8.63137 3.25 8.63143C3.25 8.63149 3.25 8.63157 3.25 8.63168C3.25 8.63179 3.25 8.63193 3.25 8.63209C3.25 8.63226 3.25 8.63245 3.25 8.63267C3.25 8.63289 3.25 8.63314 3.25 8.63342C3.25 8.63369 3.25 8.63399 3.25 8.63432C3.25 8.63465 3.25 8.63501 3.25 8.63539C3.25 8.63578 3.25 8.63619 3.25 8.63663C3.25 8.63706 3.25 8.63753 3.25 8.63802C3.25 8.63851 3.25 8.63903 3.25 8.63958C3.25 8.64012 3.25 8.64069 3.25 8.64129C3.25 8.64189 3.25 8.64252 3.25 8.64317C3.25 8.64382 3.25 8.6445 3.25 8.6452C3.25 8.64591 3.25 8.64664 3.25 8.6474C3.25 8.64815 3.25 8.64894 3.25 8.64975C3.25 8.65056 3.25 8.65139 3.25 8.65226C3.25 8.65312 3.25 8.65401 3.25 8.65492C3.25 8.65584 3.25 8.65678 3.25 8.65774C3.25 8.65871 3.25 8.6597 3.25 8.66072C3.25 8.66174 3.25 8.66279 3.25 8.66386C3.25 8.66493 3.25 8.66602 3.25 8.66714C3.25 8.66826 3.25 8.66941 3.25 8.67058C3.25 8.67176 3.25 8.67296 3.25 8.67418C3.25 8.6754 3.25 8.67665 3.25 8.67793C3.25 8.6792 3.25 8.6805 3.25 8.68183C3.25 8.68315 3.25 8.6845 3.25 8.68588C3.25 8.68725 3.25 8.68865 3.25 8.69008C3.25 8.6915 3.25 8.69295 3.25 8.69443C3.25 8.6959 3.25 8.6974 3.25 8.69893C3.25 8.70045 3.25 8.702 3.25 8.70358C3.25 8.70515 3.25 8.70675 3.25 8.70838C3.25 8.71 3.25 8.71165 3.25 8.71332C3.25 8.715 3.25 8.71669 3.25 8.71842C3.25 8.72014 3.25 8.72189 3.25 8.72366C3.25 8.72543 3.25 8.72722 3.25 8.72904C3.25 8.73086 3.25 8.73271 3.25 8.73457C3.25 8.73644 3.25 8.73833 3.25 8.74025C3.25 8.74216 3.25 8.7441 3.25 8.74607C3.25 8.74803 3.25 8.75002 3.25 8.75203C3.25 8.75404 3.25 8.75608 3.25 8.75814C3.25 8.7602 3.25 8.76228 3.25 8.76439C3.25 8.76649 3.25 8.76862 3.25 8.77078C3.25 8.77293 3.25 8.77511 3.25 8.77731C3.25 8.77951 3.25 8.78173 3.25 8.78398C3.25 8.78623 3.25 8.7885 3.25 8.79079C3.25 8.79308 3.25 8.7954 3.25 8.79774C3.25 8.80008 3.25 8.80244 3.25 8.80483C3.25 8.80722 3.25 8.80962 3.25 8.81206C3.25 8.81449 3.25 8.81694 3.25 8.81942C3.25 8.8219 3.25 8.8244 3.25 8.82692C3.25 8.82945 3.25 8.83199 3.25 8.83456C3.25 8.83713 3.25 8.83972 3.25 8.84233C3.25 8.84495 3.25 8.84758 3.25 8.85024C3.25 8.8529 3.25 8.85558 3.25 8.85828C3.25 8.86099 3.25 8.86371 3.25 8.86646C3.25 8.86921 3.25 8.87198 3.25 8.87477C3.25 8.87756 3.25 8.88037 3.25 8.88321C3.25 8.88605 3.25 8.8889 3.25 8.89178C3.25 8.89466 3.25 8.89757 3.25 8.90049C3.25 8.90341 3.25 8.90636 3.25 8.90932C3.25 8.91229 3.25 8.91528 3.25 8.91829C3.25 8.9213 3.25 8.92433 3.25 8.92739C3.25 8.93044 3.25 8.93351 3.25 8.93661C3.25 8.93971 3.25 8.94282 3.25 8.94596C3.25 8.9491 3.25 8.95226 3.25 8.95544C3.25 8.95862 3.25 8.96183 3.25 8.96505C3.25 8.96827 3.25 8.97152 3.25 8.97478C3.25 8.97805 3.25 8.98133 3.25 8.98464C3.25 8.98795 3.25 8.99128 3.25 8.99463C3.25 8.99798 3.25 9.00135 3.25 9.00474C3.25 9.00813 3.25 9.01154 3.25 9.01497C3.25 9.0184 3.25 9.02185 3.25 9.02533C3.25 9.0288 3.25 9.03229 3.25 9.03581C3.25 9.03932 3.25 9.04285 3.25 9.04641C3.25 9.04996 3.25 9.05354 3.25 9.05713C3.25 9.06072 3.25 9.06434 3.25 9.06797C3.25 9.07161 3.25 9.07526 3.25 9.07894C3.25 9.08261 3.25 9.08631 3.25 9.09002C3.25 9.09374 3.25 9.09747 3.25 9.10123C3.25 9.10498 3.25 9.10875 3.25 9.11255C3.25 9.11634 3.25 9.12016 3.25 9.12399C3.25 9.12782 3.25 9.13167 3.25 9.13555C3.25 9.13942 3.25 9.14331 3.25 9.14722C3.25 9.15113 3.25 9.15506 3.25 9.15901C3.25 9.16296 3.25 9.16693 3.25 9.17091C3.25 9.1749 3.25 9.17891 3.25 9.18294C3.25 9.18696 3.25 9.19101 3.25 9.19507C3.25 9.19913 3.25 9.20322 3.25 9.20732C3.25 9.21142 3.25 9.21554 3.25 9.21968C3.25 9.22382 3.25 9.22798 3.25 9.23215C3.25 9.23633 3.25 9.24053 3.25 9.24474C3.25 9.24895 3.25 9.25318 3.25 9.25744C3.25 9.26169 3.25 9.26596 3.25 9.27024C3.25 9.27453 3.25 9.27884 3.25 9.28316C3.25 9.28748 3.25 9.29183 3.25 9.29619C3.25 9.30055 3.25 9.30493 3.25 9.30932C3.25 9.31372 3.25 9.31813 3.25 9.32257C3.25 9.327 3.25 9.33145 3.25 9.33592C3.25 9.34039 3.25 9.34487 3.25 9.34938C3.25 9.35388 3.25 9.3584 3.25 9.36294C3.25 9.36748 3.25 9.37204 3.25 9.37661C3.25 9.38119 3.25 9.38578 3.25 9.39039C3.25 9.395 3.25 9.39962 3.25 9.40427C3.25 9.40891 3.25 9.41357 3.25 9.41825C3.25 9.42293 3.25 9.42763 3.25 9.43234C3.25 9.43705 3.25 9.44178 3.25 9.44653C3.25 9.45128 3.25 9.45604 3.25 9.46082C3.25 9.4656 3.25 9.4704 3.25 9.47522C3.25 9.48003 3.25 9.48486 3.25 9.48971C3.25 9.49456 3.25 9.49942 3.25 9.50431C3.25 9.50919 3.25 9.51409 3.25 9.519C3.25 9.52392 3.25 9.52885 3.25 9.53379C3.25 9.53874 3.25 9.54371 3.25 9.54869C3.25 9.55367 3.25 9.55866 3.25 9.56368C3.25 9.56869 3.25 9.57372 3.25 9.57876C3.25 9.58381 3.25 9.58887 3.25 9.59395C3.25 9.59903 3.25 9.60412 3.25 9.60923C3.25 9.61434 3.25 9.61946 3.25 9.6246C3.25 9.62974 3.25 9.6349 3.25 9.64007C3.25 9.64525 3.25 9.65043 3.25 9.65564C3.25 9.66084 3.25 9.66606 3.25 9.6713C3.25 9.67653 3.25 9.68178 3.25 9.68705C3.25 9.69231 3.25 9.69759 3.25 9.70289C3.25 9.70819 3.25 9.7135 3.25 9.71882C3.25 9.72415 3.25 9.72949 3.25 9.73485C3.25 9.74021 3.25 9.74558 3.25 9.75097C3.25 9.75635 3.25 9.76176 3.25 9.76717C3.25 9.77259 3.25 9.77802 3.25 9.78347C3.25 9.78892 3.25 9.79438 3.25 9.79985C3.25 9.80533 3.25 9.81082 3.25 9.81633C3.25 9.82183 3.25 9.82735 3.25 9.83289C3.25 9.83842 3.25 9.84397 3.25 9.84953C3.25 9.8551 3.25 9.86068 3.25 9.86627C3.25 9.87186 3.25 9.87747 3.25 9.88309C3.25 9.88871 3.25 9.89434 3.25 9.89999C3.25 9.90564 3.25 9.9113 3.25 9.91698C3.25 9.92266 3.25 9.92835 3.25 9.93405C3.25 9.93976 3.25 9.94548 3.25 9.95121C3.25 9.95694 3.25 9.96269 3.25 9.96845C3.25 9.97421 3.25 9.97998 3.25 9.98577C3.25 9.99155 3.25 9.99735 3.25 10.0032C3.25 10.009 3.25 10.0148 3.25 10.0207C3.25 10.0265 3.25 10.0323 3.25 10.0382C3.25 10.0441 3.25 10.05 3.25 10.0559C3.25 10.0618 3.25 10.0677 3.25 10.0736C3.25 10.0795 3.25 10.0854 3.25 10.0914C3.25 10.0973 3.25 10.1033 3.25 10.1093C3.25 10.1152 3.25 10.1212 3.25 10.1272C3.25 10.1332 3.25 10.1392 3.25 10.1452C3.25 10.1513 3.25 10.1573 3.25 10.1633C3.25 10.1694 3.25 10.1755 3.25 10.1815C3.25 10.1876 3.25 10.1937 3.25 10.1998C3.25 10.2059 3.25 10.212 3.25 10.2181C3.25 10.2242 3.25 10.2304 3.25 10.2365C3.25 10.2427 3.25 10.2488 3.25 10.255C3.25 10.2612 3.25 10.2674 3.25 10.2736C3.25 10.2797 3.25 10.286 3.25 10.2922C3.25 10.2984 3.25 10.3046 3.25 10.3109C3.25 10.3171 3.25 10.3234 3.25 10.3296C3.25 10.3359 3.25 10.3422 3.25 10.3485C3.25 10.3548 3.25 10.3611 3.25 10.3674C3.25 10.3737 3.25 10.38 3.25 10.3863C3.25 10.3927 3.25 10.399 3.25 10.4054C3.25 10.4117 3.25 10.4181 3.25 10.4245C3.25 10.4309 3.25 10.4373 3.25 10.4437C3.25 10.4501 3.25 10.4565 3.25 10.4629C3.25 10.4693 3.25 10.4758 3.25 10.4822C3.25 10.4886 3.25 10.4951 3.25 10.5016C3.25 10.508 3.25 10.5145 3.25 10.521C3.25 10.5275 3.25 10.534 3.25 10.5405C3.25 10.547 3.25 10.5535 3.25 10.5601C3.25 10.5666 3.25 10.5731 3.25 10.5797C3.25 10.5862 3.25 10.5928 3.25 10.5994C3.25 10.6059 3.25 10.6125 3.25 10.6191C3.25 10.6257 3.25 10.6323 3.25 10.6389C3.25 10.6455 3.25 10.6522 3.25 10.6588C3.25 10.6654 3.25 10.6721 3.25 10.6787C3.25 10.6854 3.25 10.692 3.25 10.6987C3.25 10.7054 3.25 10.7121 3.25 10.7188C3.25 10.7254 3.25 10.7321 3.25 10.7389C3.25 10.7456 3.25 10.7523 3.25 10.759C3.25 10.7657 3.25 10.7725 3.25 10.7792C3.25 10.786 3.25 10.7927 3.25 10.7995C3.25 10.8063 3.25 10.813 3.25 10.8198C3.25 10.8266 3.25 10.8334 3.25 10.8402C3.25 10.847 3.25 10.8538 3.25 10.8607C3.25 10.8675 3.25 10.8743 3.25 10.8811C3.25 10.888 3.25 10.8948 3.25 10.9017C3.25 10.9085 3.25 10.9154 3.25 10.9223C3.25 10.9292 3.25 10.936 3.25 10.9429C3.25 10.9498 3.25 10.9567 3.25 10.9636C3.25 10.9705 3.25 10.9774 3.25 10.9844C3.25 10.9913 3.25 10.9982 3.25 11.0052C3.25 11.0121 3.25 11.0191 3.25 11.026C3.25 11.033 3.25 11.0399 3.25 11.0469C3.25 11.0539 3.25 11.0609 3.25 11.0678C3.25 11.0748 3.25 11.0818 3.25 11.0888C3.25 11.0958 3.25 11.1029 3.25 11.1099C3.25 11.1169 3.25 11.1239 3.25 11.131C3.25 11.138 3.25 11.145 3.25 11.1521C3.25 11.1591 3.25 11.1662 3.25 11.1733C3.25 11.1803 3.25 11.1874 3.25 11.1945C3.25 11.2016 3.25 11.2086 3.25 11.2157C3.25 11.2228 3.25 11.2299 3.25 11.237C3.25 11.2442 3.25 11.2513 3.25 11.2584C3.25 11.2655 3.25 11.2726 3.25 11.2798C3.25 11.2869 3.25 11.2941 3.25 11.3012C3.25 11.3084 3.25 11.3155 3.25 11.3227C3.25 11.3298 3.25 11.337 3.25 11.3442C3.25 11.3514 3.25 11.3586 3.25 11.3657C3.25 11.3729 3.25 11.3801 3.25 11.3873C3.25 11.3945 3.25 11.4017 3.25 11.409C3.25 11.4162 3.25 11.4234 3.25 11.4306C3.25 11.4378 3.25 11.4451 3.25 11.4523C3.25 11.4596 3.25 11.4668 3.25 11.4741C3.25 11.4813 3.25 11.4886 3.25 11.4958C3.25 11.5031 3.25 11.5104 3.25 11.5176C3.25 11.5249 3.25 11.5322 3.25 11.5395C3.25 11.5468 3.25 11.5541 3.25 11.5614C3.25 11.5687 3.25 11.576 3.25 11.5833C3.25 11.5906 3.25 11.5979 3.25 11.6052C3.25 11.6125 3.25 11.6199 3.25 11.6272C3.25 11.6345 3.25 11.6419 3.25 11.6492C3.25 11.6565 3.25 11.6639 3.25 11.6712C3.25 11.6786 3.25 11.6859 3.25 11.6933C3.25 11.7007 3.25 11.708 3.25 11.7154C3.25 11.7228 3.25 11.7302 3.25 11.7375C3.25 11.7449 3.25 11.7523 3.25 11.7597C3.25 11.7671 3.25 11.7745 3.25 11.7819C3.25 11.7893 3.25 11.7967 3.25 11.8041C3.25 11.8115 3.25 11.8189 3.25 11.8263C3.25 11.8337 3.25 11.8412 3.25 11.8486C3.25 11.856 3.25 11.8634 3.25 11.8709C3.25 11.8783 3.25 11.8857 3.25 11.8932C3.25 11.9006 3.25 11.9081 3.25 11.9155C3.25 11.923 3.25 11.9304 3.25 11.9379C3.25 11.9453 3.25 11.9528 3.25 11.9603C3.25 11.9677 3.25 11.9752 3.25 11.9827C3.25 11.9902 3.25 11.9976 3.25 12.0051C3.25 12.0126 3.25 12.0201 3.25 12.0276C3.25 12.035 3.25 12.0425 3.25 12.05C3.25 12.0575 3.25 12.065 3.25 12.0725C3.25 12.08 3.25 12.0875 3.25 12.095C3.25 12.1025 3.25 12.11 3.25 12.1176C3.25 12.1251 3.25 12.1326 3.25 12.1401C3.25 12.1476 3.25 12.1551 3.25 12.1627C3.25 12.1702 3.25 12.1777 3.25 12.1853C3.25 12.1928 3.25 12.2003 3.25 12.2079C3.25 12.2154 3.25 12.2229 3.25 12.2305C3.25 12.238 3.25 12.2455 3.25 12.2531C3.25 12.2606 3.25 12.2682 3.25 12.2757C3.25 12.2833 3.25 12.2908 3.25 12.2984C3.25 12.3059 3.25 12.3135 3.25 12.3211C3.25 12.3286 3.25 12.3362 3.25 12.3437C3.25 12.3513 3.25 12.3589 3.25 12.3664C3.25 12.374 3.25 12.3816 3.25 12.3891C3.25 12.3967 3.25 12.4043 3.25 12.4119C3.25 12.4194 3.25 12.427 3.25 12.4346C3.25 12.4422 3.25 12.4497 3.25 12.4573C3.25 12.4649 3.25 12.4725 3.25 12.4801C3.25 12.4877 3.25 12.4952 3.25 12.5028C3.25 12.5104 3.25 12.518 3.25 12.5256C3.25 12.5332 3.25 12.5408 3.25 12.5484C3.25 12.556 3.25 12.5635 3.25 12.5711C3.25 12.5787 3.25 12.5863 3.25 12.5939C3.25 12.6015 3.25 12.6091 3.25 12.6167C3.25 12.6243 3.25 12.6319 3.25 12.6395C3.25 12.6471 3.25 12.6547 3.25 12.6623C3.25 12.6699 3.25 12.6775 3.25 12.6851C3.25 12.6927 3.25 12.7003 3.25 12.7079C3.25 12.7155 3.25 12.7231 3.25 12.7307C3.25 12.7383 3.25 12.7459 3.25 12.7535C3.25 12.7611 3.25 12.7687 3.25 12.7763C3.25 12.7839 3.25 12.7915 3.25 12.7991C3.25 12.8067 3.25 12.8143 3.25 12.8219C3.25 12.8295 3.25 12.8371 3.25 12.8447C3.25 12.8523 3.25 12.8599 3.25 12.8675C3.25 12.8751 3.25 12.8827 3.25 12.8904C3.25 12.898 3.25 12.9056 3.25 12.9132C3.25 12.9208 3.25 12.9284 3.25 12.936C3.25 12.9435 3.25 12.9511 3.25 12.9587C3.25 12.9663 3.25 12.9739 3.25 12.9815C3.25 12.9891 3.25 12.9967 3.25 13.0043C3.25 13.0119 3.25 13.0195 3.25 13.0271C3.25 13.0347 3.25 13.0423 3.25 13.0499C3.25 13.0575 3.25 13.0651 3.25 13.0726C3.25 13.0802 3.25 13.0878 3.25 13.0954C3.25 13.103 3.25 13.1106 3.25 13.1182C3.25 13.1257 3.25 13.1333 3.25 13.1409C3.25 13.1485 3.25 13.156 3.25 13.1636C3.25 13.1712 3.25 13.1788 3.25 13.1863C3.25 13.1939 3.25 13.2015 3.25 13.2091C3.25 13.2166 3.25 13.2242 3.25 13.2318C3.25 13.2393 3.25 13.2469 3.25 13.2545C3.25 13.262 3.25 13.2696 3.25 13.2771C3.25 13.2847 3.25 13.2922 3.25 13.2998C3.25 13.3074 3.25 13.3149 3.25 13.3224C3.25 13.33 3.25 13.3375 3.25 13.3451C3.25 13.3526 3.25 13.3602 3.25 13.3677C3.25 13.3752 3.25 13.3828 3.25 13.3903C3.25 13.3979 3.25 13.4054 3.25 13.4129C3.25 13.4204 3.25 13.428 3.25 13.4355C3.25 13.443 3.25 13.4505 3.25 13.458C3.25 13.4656 3.25 13.4731 3.25 13.4806C3.25 13.4881 3.25 13.4956 3.25 13.5031C3.25 13.5106 3.25 13.5181 3.25 13.5256C3.25 13.5331 3.25 13.5406 3.25 13.5481C3.25 13.5556 3.25 13.5631 3.25 13.5706C3.25 13.578 3.25 13.5855 3.25 13.593C3.25 13.6005 3.25 13.6079 3.25 13.6154C3.25 13.6229 3.25 13.6304 3.25 13.6378C3.25 13.6453 3.25 13.6527 3.25 13.6602C3.25 13.6676 3.25 13.6751 3.25 13.6825C3.25 13.69 3.25 13.6974 3.25 13.7049C3.25 13.7123 3.25 13.7197 3.25 13.7272C3.25 13.7346 3.25 13.742 3.25 13.7495C3.25 13.7569 3.25 13.7643 3.25 13.7717C3.25 13.7791 3.25 13.7865 3.25 13.7939C3.25 13.8013 3.25 13.8087 3.25 13.8161C3.25 13.8235 3.25 13.8309 3.25 13.8383C3.25 13.8457 3.25 13.8531 3.25 13.8605C3.25 13.8678 3.25 13.8752 3.25 13.8826C3.25 13.8899 3.25 13.8973 3.25 13.9047C3.25 13.912 3.25 13.9194 3.25 13.9267C3.25 13.9341 3.25 13.9414 3.25 13.9487C3.25 13.9561 3.25 13.9634 3.25 13.9707C3.25 13.9781 3.25 13.9854 3.25 13.9927C3.25 14 3.25 14.0073 3.25 14.0146C3.25 14.0219 3.25 14.0292 3.25 14.0365C3.25 14.0438 3.25 14.0511 3.25 14.0584C3.25 14.0657 3.25 14.073 3.25 14.0802C3.25 14.0875 3.25 14.0948 3.25 14.102C3.25 14.1093 3.25 14.1165 3.25 14.1238C3.25 14.131 3.25 14.1383 3.25 14.1455C3.25 14.1527 3.25 14.16 3.25 14.1672C3.25 14.1744 3.25 14.1816 3.25 14.1888C3.25 14.1961 3.25 14.2033 3.25 14.2105C3.25 14.2177 3.25 14.2248 3.25 14.232C3.25 14.2392 3.25 14.2464 3.25 14.2536C3.25 14.2607 3.25 14.2679 3.25 14.2751C3.25 14.2822 3.25 14.2894 3.25 14.2965C3.25 14.3037 3.25 14.3108 3.25 14.3179C3.25 14.3251 3.25 14.3322 3.25 14.3393C3.25 14.3464 3.25 14.3535 3.25 14.3606C3.25 14.3677 3.25 14.3748 3.25 14.3819C3.25 14.389 3.25 14.3961 3.25 14.4032C3.25 14.4102 3.25 14.4173 3.25 14.4244C3.25 14.4314 3.25 14.4385 3.25 14.4455C3.25 14.4526 3.25 14.4596 3.25 14.4666C3.25 14.4737 3.25 14.4807 3.25 14.4877C3.25 14.4947 3.25 14.5017 3.25 14.5087C3.25 14.5157 3.25 14.5227 3.25 14.5297C3.25 14.5367 3.25 14.5436 3.25 14.5506C3.25 14.5576 3.25 14.5645 3.25 14.5715C3.25 14.5784 3.25 14.5854 3.25 14.5923C3.25 14.5992 3.25 14.6062 3.25 14.6131C3.25 14.62 3.25 14.6269 3.25 14.6338C3.25 14.6407 3.25 14.6476 3.25 14.6545C3.25 14.6614 3.25 14.6683 3.25 14.6751C3.25 14.682 3.25 14.6888 3.25 14.6957C3.25 14.7025 3.25 14.7094 3.25 14.7162C3.25 14.7231 3.25 14.7299 3.25 14.7367C3.25 14.7435 3.25 14.7503 3.25 14.7571C3.25 14.7639 3.25 14.7707 3.25 14.7775C3.25 14.7842 3.25 14.791 3.25 14.7978C3.25 14.8045 3.25 14.8113 3.25 14.818C3.25 14.8248 3.25 14.8315 3.25 14.8382C3.25 14.8449 3.25 14.8517 3.25 14.8584C3.25 14.8651 3.25 14.8717 3.25 14.8784C3.25 14.8851 3.25 14.8918 3.25 14.8985C3.25 14.9051 3.25 14.9118 3.25 14.9184C3.25 14.9251 3.25 14.9317 3.25 14.9383C3.25 14.9449 3.25 14.9516 3.25 14.9582C3.25 14.9648 3.25 14.9714 3.25 14.978C3.25 14.9845 3.25 14.9911 3.25 14.9977C3.25 15.0042 3.25 15.0108 3.25 15.0173C3.25 15.0239 3.25 15.0304 3.25 15.0369C3.25 15.0435 3.25 15.05 3.25 15.0565C3.25 15.063 3.25 15.0695 3.25 15.0759C3.25 15.0824 3.25 15.0889 3.25 15.0954C3.25 15.1018 3.25 15.1083 3.25 15.1147C3.25 15.1211 3.25 15.1276 3.25 15.134C3.25 15.1404 3.25 15.1468 3.25 15.1532C3.25 15.1596 3.25 15.166 3.25 15.1723C3.25 15.1787 3.25 15.1851 3.25 15.1914C3.25 15.1978 3.25 15.2041 3.25 15.2104C3.25 15.2168 3.25 15.2231 3.25 15.2294C3.25 15.2357 3.25 15.242 3.25 15.2483C3.25 15.2545 3.25 15.2608 3.25 15.2671C3.25 15.2733 3.25 15.2796 3.25 15.2858C3.25 15.292 3.25 15.2983 3.25 15.3045C3.25 15.3107 3.25 15.3169 3.25 15.3231C3.25 15.3292 3.25 15.3354 3.25 15.3416C3.25 15.3477 3.25 15.3539 3.25 15.36C3.25 15.3662 3.25 15.3723 3.25 15.3784C3.25 15.3845 3.25 15.3906 3.25 15.3967C3.25 15.4028 3.25 15.4089 3.25 15.4149C3.25 15.421 3.25 15.4271 3.25 15.4331C3.25 15.4391 3.25 15.4452 3.25 15.4512C3.25 15.4572 3.25 15.4632 3.25 15.4692C3.25 15.4752 3.25 15.4811 3.25 15.4871C3.25 15.4931 3.25 15.499 3.25 15.5049C3.25 15.5109 3.25 15.5168 3.25 15.5227C3.25 15.5286 3.25 15.5345 3.25 15.5404C3.25 15.5463 3.25 15.5522 3.25 15.558C3.25 15.5639 3.25 15.5697 3.25 15.5756C3.25 15.5814 3.25 15.5872 3.25 15.593C3.25 15.5988 3.25 15.6046 3.25 15.6104C3.25 15.6162 3.25 15.6219 3.25 15.6277C3.25 15.6334 3.25 15.6391 3.25 15.6449C3.25 15.6506 3.25 15.6563 3.25 15.662C3.25 15.6677 3.25 15.6734 3.25 15.679C3.25 15.6847 3.25 15.6904 3.25 15.696C3.25 15.7016 3.25 15.7073 3.25 15.7129C3.25 15.7185 3.25 15.7241 3.25 15.7296C3.25 15.7352 3.25 15.7408 3.25 15.7463C3.25 15.7519 3.25 15.7574 3.25 15.763C3.25 15.7685 3.25 15.774 3.25 15.7795C3.25 15.785 3.25 15.7905 3.25 15.7959C3.25 15.8014 3.25 15.8068 3.25 15.8123C3.25 15.8177 3.25 15.8231 3.25 15.8285C3.25 15.8339 3.25 15.8393 3.25 15.8447C3.25 15.8501 3.25 15.8554 3.25 15.8608C3.25 15.8661 3.25 15.8715 3.25 15.8768C3.25 15.8821 3.25 15.8874 3.25 15.8927C3.25 15.898 3.25 15.9032 3.25 15.9085C3.25 15.9137 3.25 15.919 3.25 15.9242C3.25 15.9294 3.25 15.9346 3.25 15.9398C3.25 15.945 3.25 15.9502 3.25 15.9554C3.25 15.9605 3.25 15.9657 3.25 15.9708C3.25 15.9759 3.25 15.981 3.25 15.9861C3.25 15.9912 3.25 15.9963 3.25 16.0014C3.25 16.0064 3.25 16.0115 3.25 16.0165C3.25 16.0216 3.25 16.0266 3.25 16.0316C3.25 16.0366 3.25 16.0416 3.25 16.0465C3.25 16.0515 3.25 16.0564 3.25 16.0614C3.25 16.0663 3.25 16.0712 3.25 16.0761C3.25 16.081 3.25 16.0859 3.25 16.0908C3.25 16.0957 3.25 16.1005 3.25 16.1053C3.25 16.1102 3.25 16.115 3.25 16.1198C3.25 16.1246 3.25 16.1294 3.25 16.1342C3.25 16.1389 3.25 16.1437 3.25 16.1484C3.25 16.1531 3.25 16.1579 3.25 16.1626C3.25 16.1673 3.25 16.1719 3.25 16.1766C3.25 16.1813 3.25 16.1859 3.25 16.1905C3.25 16.1952 3.25 16.1998 3.25 16.2044C3.25 16.209 3.25 16.2136 3.25 16.2181C3.25 16.2227 3.25 16.2272 3.25 16.2318C3.25 16.2363 3.25 16.2408 3.25 16.2453C3.25 16.2498 3.25 16.2542 3.25 16.2587C3.25 16.2632 3.25 16.2676 3.25 16.272C3.25 16.2764 3.25 16.2808 3.25 16.2852C3.25 16.2896 3.25 16.294 3.25 16.2983C3.25 16.3026 3.25 16.307 3.25 16.3113C3.25 16.3156 3.25 16.3199 3.25 16.3242C3.25 16.3284 3.25 16.3327 3.25 16.3369C3.25 16.3412 3.25 16.3454 3.25 16.3496C3.25 16.3538 3.25 16.358 3.25 16.3621C3.25 16.3663 3.25 16.3704 3.25 16.3746C3.25 16.3787 3.25 16.3828 3.25 16.3869C3.25 16.391 3.25 16.395 3.25 16.3991C3.25 16.4031 3.25 16.4072 3.25 16.4112C3.25 16.4152 3.25 16.4192 3.25 16.4231C3.25 16.4271 3.25 16.4311 3.25 16.435C3.25 16.4389 3.25 16.4429 3.25 16.4467C3.25 16.4506 3.25 16.4545 3.25 16.4584C3.25 16.4622 3.25 16.4661 3.25 16.4699C3.25 16.4737 3.25 16.4775 3.25 16.4813C3.25 16.4851 3.25 16.4888 3.25 16.4926C3.25 16.4963 3.25 16.5 3.25 16.5037C3.25 16.5074 3.25 16.5111 3.25 16.5148C3.25 16.5184 3.25 16.5221 3.25 16.5257C3.25 16.5293 3.25 16.5329 3.25 16.5365C3.25 16.5401 3.25 16.5436 3.25 16.5471C3.25 16.5507 3.25 16.5542 3.25 16.5577C3.25 16.5612 3.25 16.5647 3.25 16.5681C3.25 16.5716 3.25 16.575 3.25 16.5784C3.25 16.5819 3.25 16.5853 3.25 16.5886C3.25 16.592 3.25 16.5954 3.25 16.5987C3.25 16.602 3.25 16.6053 3.25 16.6086C3.25 16.6119 3.25 16.6152 3.25 16.6184C3.25 16.6217 3.25 16.6249 3.25 16.6281C3.25 16.6313 3.25 16.6345 3.25 16.6377C3.25 16.6408 3.25 16.644 3.25 16.6471C3.25 16.6502 3.25 16.6533 3.25 16.6564C3.25 16.6595 3.25 16.6626 3.25 16.6656C3.25 16.6686 3.25 16.6716 3.25 16.6746C3.25 16.6776 3.25 16.6806 3.25 16.6836C3.25 16.6865 3.25 16.6894 3.25 16.6923C3.25 16.6952 3.25 16.6981 3.25 16.701C3.25 16.7039 3.25 16.7067 3.25 16.7095C3.25 16.7123 3.25 16.7151 3.25 16.7179C3.25 16.7207 3.25 16.7234 3.25 16.7262C3.25 16.7289 3.25 16.7316 3.25 16.7343C3.25 16.737 3.25 16.7396 3.25 16.7423C3.25 16.7449 3.25 16.7475 3.25 16.7501C3.25 16.7527 3.25 16.7553 3.25 16.7579C3.25 16.7604 3.25 16.7629 3.25 16.7654C3.25 16.7679 3.25 16.7704 3.25 16.7729C3.25 16.7753 3.25 16.7778 3.25 16.7802C3.25 16.7826 3.25 16.785 3.25 16.7874C3.25 16.7897 3.25 16.7921 3.25 16.7944C3.25 16.7967 3.25 16.799 3.25 16.8013C3.25 16.8036 3.25 16.8058 3.25 16.8081C3.25 16.8103 3.25 16.8125 3.25 16.8147C3.25 16.8169 3.25 16.819 3.25 16.8212C3.25 16.8233 3.25 16.8254 3.25 16.8275C3.25 16.8296 3.25 16.8316 3.25 16.8337C3.25 16.8357 3.25 16.8377 3.25 16.8397C3.25 16.8417 3.25 16.8437 3.25 16.8456C3.25 16.8476 3.25 16.8495 3.25 16.8514C3.25 16.8533 3.25 16.8552 3.25 16.857H4.75ZM7.97902 12.0393L9.53259 13.5393L10.5745 12.4602L9.02091 10.9602L7.97902 12.0393ZM10.5839 13.5301L14.0303 10.0837L12.9696 9.023L9.52321 12.4694L10.5839 13.5301ZM19.6637 15.5623L17.1993 18.0267L18.2599 19.0874L20.7243 16.623L19.6637 15.5623ZM20.7244 14.2834L20.0377 13.5967L18.977 14.6574L19.6637 15.344L20.7244 14.2834ZM20.7243 16.623C21.3704 15.9769 21.3704 14.9294 20.7244 14.2834L19.6637 15.344C19.724 15.4043 19.724 15.502 19.6637 15.5623L20.7243 16.623ZM20.9236 12.7178L18.2724 10.0666L17.2118 11.1273L19.8629 13.7784L20.9236 12.7178ZM17.2139 10.0646L9.39734 17.8199L10.4538 18.8847L18.2703 11.1294L17.2139 10.0646ZM13.105 21.5359L20.9215 13.7805L19.865 12.7157L12.0485 20.471L13.105 21.5359ZM9.19577 18.1795L8.35108 21.746L9.8107 22.0917L10.6554 18.5252L9.19577 18.1795ZM9.27088 22.6444L12.7667 21.729L12.3867 20.2779L8.89089 21.1933L9.27088 22.6444ZM13.6572 20.0026L11.0061 17.3515L9.9454 18.4121L12.5965 21.0633L13.6572 20.0026ZM17.2045 16.4553L14.5534 13.8042L13.4927 14.8649L16.1438 17.516L17.2045 16.4553ZM21.4495 10.3525L20.4855 9.38855L19.4248 10.4492L20.3888 11.4132L21.4495 10.3525ZM18.6756 9.38855L17.6046 10.4595L18.6653 11.5201L19.7362 10.4492L18.6756 9.38855ZM20.3785 13.2334L21.4495 12.1624L20.3888 11.1018L19.3179 12.1727L20.3785 13.2334ZM20.4855 9.38855C20.4026 9.30573 20.2967 9.20073 20.1871 9.11898C20.0756 9.03587 19.8669 8.90399 19.5805 8.90399C19.2942 8.90399 19.0854 9.03587 18.974 9.11898C18.8643 9.20073 18.7584 9.30573 18.6756 9.38855L19.7362 10.4492C19.7789 10.4066 19.8102 10.3759 19.8353 10.3526C19.861 10.3287 19.8712 10.3211 19.8707 10.3214C19.8697 10.3222 19.8633 10.3269 19.8521 10.3337C19.8408 10.3404 19.8228 10.3504 19.7984 10.3608C19.7471 10.3826 19.6721 10.404 19.5805 10.404C19.4889 10.404 19.414 10.3826 19.3626 10.3608C19.3383 10.3504 19.3202 10.3404 19.309 10.3337C19.2978 10.3269 19.2914 10.3222 19.2904 10.3214C19.2899 10.3211 19.3 10.3287 19.3257 10.3526C19.3508 10.3759 19.3822 10.4066 19.4248 10.4492L20.4855 9.38855ZM20.3888 11.4132C20.4314 11.4558 20.4621 11.4872 20.4854 11.5123C20.5093 11.538 20.5169 11.5481 20.5166 11.5476C20.5158 11.5466 20.5111 11.5402 20.5043 11.529C20.4976 11.5178 20.4876 11.4997 20.4772 11.4754C20.4554 11.424 20.434 11.3491 20.434 11.2575C20.434 11.1659 20.4554 11.0909 20.4772 11.0395C20.4876 11.0152 20.4976 10.9972 20.5043 10.9859C20.5111 10.9747 20.5158 10.9683 20.5166 10.9673C20.5169 10.9668 20.5093 10.9769 20.4854 11.0027C20.4621 11.0278 20.4314 11.0591 20.3888 11.1018L21.4495 12.1624C21.5323 12.0796 21.6373 11.9737 21.719 11.864C21.8021 11.7526 21.934 11.5438 21.934 11.2575C21.934 10.9711 21.8021 10.7624 21.719 10.6509C21.6373 10.5413 21.5323 10.4354 21.4495 10.3525L20.3888 11.4132ZM4.75 8.63135C4.75 8.63135 4 8.63135 3.25 8.63135C3.25 8.63135 3.25 8.63135 4 8.63135C4.75 8.63135 4.75 8.63135 4.75 8.63135C4 8.63135 3.25 8.63135 3.25 8.63135H4.75Z" fill="#6D7B8C"/>
</svg>
