<svg width="24" height="24" viewBox="0 0 24 24" fill="none" xmlns="http://www.w3.org/2000/svg">
<path d="M9.66353 19.7499C9.66353 19.3357 9.32774 18.9999 8.91353 18.9999C8.49932 18.9999 8.16353 19.3357 8.16353 19.7499H9.66353ZM15.2885 19.7499C15.2885 19.3357 14.9527 18.9999 14.5385 18.9999C14.1243 18.9999 13.7885 19.3357 13.7885 19.7499H15.2885ZM18.4406 17.7605L17.7697 18.0956L18.4406 17.7605ZM5.14389 17.7605L4.47291 17.4255L5.14389 17.7605ZM12.1011 6.34154C12.1011 6.75576 12.4369 7.09154 12.8511 7.09154C13.2653 7.09154 13.6011 6.75576 13.6011 6.34154H12.1011ZM9.85112 6.36625C9.85112 6.78047 10.1869 7.11625 10.6011 7.11625C11.0153 7.11625 11.3511 6.78047 11.3511 6.36625H9.85112ZM11.726 21.25C11.1676 21.25 10.6224 21.1259 10.2422 20.8789C9.90144 20.6574 9.66353 20.325 9.66353 19.7499H8.16353C8.16353 20.8622 8.68361 21.6549 9.42492 22.1366C10.1269 22.5928 10.9879 22.75 11.726 22.75V21.25ZM13.7885 19.7499C13.7885 20.325 13.5506 20.6574 13.2098 20.8789C12.8296 21.1259 12.2845 21.25 11.726 21.25V22.75C12.4641 22.75 13.3252 22.5928 14.0271 22.1366C14.7684 21.6549 15.2885 20.8622 15.2885 19.7499H13.7885ZM5.81488 18.0956C6.56103 16.6015 6.95529 14.9647 6.95529 13.279H5.45529C5.45529 14.7282 5.11687 16.136 4.47291 17.4255L5.81488 18.0956ZM6.95529 13.279V11.3328H5.45529V13.279H6.95529ZM6.95529 11.3328C6.95529 9.00952 9.05749 6.99998 11.7923 6.99998V5.49998C8.36572 5.49998 5.45529 8.05074 5.45529 11.3328H6.95529ZM11.7923 6.99998C14.527 6.99998 16.6292 9.00952 16.6292 11.3328H18.1292C18.1292 8.05074 15.2188 5.49998 11.7923 5.49998V6.99998ZM16.6292 11.3328V13.279H18.1292V11.3328H16.6292ZM16.6292 13.279C16.6292 14.9647 17.0235 16.6015 17.7697 18.0956L19.1116 17.4254C18.4677 16.136 18.1292 14.7282 18.1292 13.279H16.6292ZM17.356 18.9999H6.22851V20.4999H17.356V18.9999ZM17.7697 18.0956C17.8626 18.2817 17.8553 18.5237 17.7496 18.725C17.6474 18.9195 17.4998 18.9999 17.356 18.9999V20.4999C18.1619 20.4999 18.7687 20.0104 19.0775 19.4226C19.3827 18.8416 19.443 18.0889 19.1116 17.4254L17.7697 18.0956ZM4.47291 17.4255C4.14155 18.089 4.2018 18.8416 4.50703 19.4226C4.8158 20.0104 5.42266 20.4999 6.22851 20.4999V18.9999C6.08472 18.9999 5.93713 18.9195 5.83493 18.725C5.72919 18.5237 5.72195 18.2817 5.81488 18.0956L4.47291 17.4255ZM11.3511 5.28035C11.3511 5.10519 11.4138 4.9622 11.4944 4.87048C11.5738 4.78007 11.6577 4.75 11.7261 4.75V3.25C10.6034 3.25 9.85112 4.25424 9.85112 5.28035H11.3511ZM11.7261 4.75C11.7945 4.75 11.8784 4.78007 11.9578 4.87048C12.0384 4.9622 12.1011 5.10519 12.1011 5.28035H13.6011C13.6011 4.25424 12.8489 3.25 11.7261 3.25V4.75ZM12.1011 5.28035V6.34154H13.6011V5.28035H12.1011ZM11.3511 6.36625V5.28035H9.85112V6.36625H11.3511Z" fill="#546579"/>
</svg>
