<svg width="22" height="24" viewBox="0 0 22 24" fill="none" xmlns="http://www.w3.org/2000/svg">
<path opacity="0.15" d="M4.78849 22.4652C3.66012 22.4652 2.99915 21.1094 3.51607 20.1064C4.41723 18.3579 4.89271 16.4394 4.89271 14.4627V12.0558C4.89271 8.58984 8.02129 5.77002 11.8668 5.77002C15.7123 5.77002 18.8409 8.58984 18.8409 12.0558V14.4627C18.8409 16.4393 19.3164 18.3578 20.2176 20.1064C20.7345 21.1094 20.0735 22.4652 18.9451 22.4652H4.78849Z" fill="#2B63D9"/>
<path fill-rule="evenodd" clip-rule="evenodd" d="M9.7854 1.75012C9.54393 1.75012 9.1863 2.00903 9.1863 2.53553V3.13325C9.38504 3.11925 9.5856 3.11214 9.78767 3.11214C9.9882 3.11214 10.1873 3.11915 10.3845 3.13293V2.53553C10.3845 2.00903 10.0269 1.75012 9.7854 1.75012ZM11.8845 3.37438V2.53553C11.8845 1.36879 11.0317 0.250122 9.7854 0.250122C8.53908 0.250122 7.6863 1.36879 7.6863 2.53553V3.37554C4.40605 4.21501 1.93092 6.97037 1.93092 10.3276V12.8031C1.93092 14.7847 1.44199 16.7064 0.514664 18.4503C0.134496 19.1652 0.189023 19.9853 0.51835 20.6195C0.851089 21.2603 1.50823 21.7843 2.37446 21.7843H5.8783C6.62555 22.9923 8.09938 23.7501 9.7035 23.7501C11.3076 23.7501 12.7814 22.9923 13.5287 21.7843H17.2009C18.0671 21.7843 18.7243 21.2603 19.057 20.6195C19.3863 19.9853 19.4408 19.1652 19.0607 18.4503C18.1333 16.7064 17.6444 14.7847 17.6444 12.8031V10.3276C17.6444 6.96883 15.167 4.21247 11.8845 3.37438ZM13.0935 20.2843C13.0822 20.284 13.071 20.284 13.0598 20.2843H6.34724C6.33602 20.284 6.32477 20.284 6.31351 20.2843H2.37446C2.16695 20.2843 1.97323 20.1664 1.84957 19.9282C1.7225 19.6835 1.7151 19.3877 1.83906 19.1546C2.87952 17.1979 3.43092 15.0349 3.43092 12.8031V10.3276C3.43092 7.24191 6.2149 4.61213 9.78767 4.61213C13.3604 4.61213 16.1444 7.24191 16.1444 10.3276V12.8031C16.1444 15.0349 16.6958 17.1979 17.7363 19.1545C17.8602 19.3876 17.8528 19.6835 17.7258 19.9282C17.6021 20.1664 17.4084 20.2843 17.2009 20.2843H13.0935ZM7.97333 21.7843H11.4337C10.9665 22.0698 10.3734 22.2501 9.7035 22.2501C9.03362 22.2501 8.44049 22.0698 7.97333 21.7843Z" fill="#2B63D9"/>
</svg>
