<svg width="32" height="32" viewBox="0 0 32 32" fill="none" xmlns="http://www.w3.org/2000/svg">
<path d="M7.81762 24.934C7.5837 24.934 7.37045 24.8005 7.23745 24.5435C7.10109 24.28 7.09349 23.9607 7.2307 23.7073C8.39393 21.5595 9.01092 19.1784 9.01092 16.7205V14.0247C9.01092 10.6218 12.0785 7.73401 16 7.73401C19.9214 7.73401 22.989 10.6218 22.989 14.0247V16.7205C22.989 19.1784 23.606 21.5595 24.7692 23.7073C24.9065 23.9607 24.8989 24.28 24.7625 24.5435C24.6295 24.8005 24.4162 24.934 24.1823 24.934H7.81762Z" stroke="#2B63D9" stroke-width="1.5" stroke-linejoin="round"/>
<path d="M12.5623 25.684C13.064 26.85 14.4151 27.6875 15.9998 27.6875C17.5844 27.6875 18.9355 26.85 19.4373 25.684" stroke="#2B63D9" stroke-width="1.5" stroke-linecap="round" stroke-linejoin="round"/>
<path d="M17.3749 7.67143V6.56488C17.3749 5.70201 16.7581 5 15.9999 5C15.2417 5 14.6249 5.70201 14.6249 6.56488V7.67143" stroke="#2B63D9" stroke-width="1.5" stroke-linecap="round" stroke-linejoin="round"/>
</svg>
