<svg width="32" height="32" viewBox="0 0 32 32" fill="none" xmlns="http://www.w3.org/2000/svg">
<g opacity="0.15">
<path d="M21.923 20.0843C21.7476 20.1724 21.632 20.3494 21.632 20.5457V21.4435C21.632 21.7196 21.4081 21.9435 21.132 21.9435H15.5243C15.2482 21.9435 15.0243 21.7196 15.0243 21.4435V20.5455C15.0243 20.3493 14.9088 20.1724 14.7335 20.0842C12.1233 18.7713 10.3308 16.0752 10.3308 12.9573C10.3308 8.55111 13.9101 4.98022 18.3266 4.98022C22.7431 4.98022 26.3255 8.55111 26.3255 12.9573C26.3255 16.0752 24.5358 18.7714 21.923 20.0843Z" fill="#2B63D9"/>
<path d="M18.3541 28.2408C20.0183 28.2408 21.3965 27.0163 21.6368 25.4192C21.6779 25.1461 21.4501 24.9209 21.174 24.9209H15.5342C15.258 24.9209 15.0302 25.1461 15.0713 25.4192C15.3117 27.0163 16.6899 28.2408 18.3541 28.2408Z" fill="#2B63D9"/>
</g>
<path fill-rule="evenodd" clip-rule="evenodd" d="M6.34591 3.43188C6.65967 3.11738 7.16898 3.11679 7.48348 3.43055L8.67864 4.62291C8.99314 4.93668 8.99374 5.44598 8.67998 5.76048C8.36621 6.07498 7.85691 6.07558 7.54241 5.76182L6.34724 4.56945C6.03274 4.25569 6.03214 3.74638 6.34591 3.43188ZM25.654 3.43188C25.9677 3.74638 25.9671 4.25569 25.6526 4.56945L24.4575 5.76182C24.143 6.07558 23.6337 6.07498 23.3199 5.76048C23.0061 5.44598 23.0067 4.93668 23.3212 4.62291L24.5164 3.43055C24.8309 3.11679 25.3402 3.11738 25.654 3.43188ZM16.0934 6.02792C12.1193 6.02792 8.90197 9.24045 8.90197 13.2006C8.90197 16.1045 10.632 18.6045 13.1233 19.7339C13.4108 19.8643 13.5955 20.1508 13.5955 20.4665V21.3824H18.5944V20.4665C18.5944 20.1507 18.7792 19.8641 19.0669 19.7338C21.5606 18.6045 23.2879 16.1049 23.2879 13.2006C23.2879 9.24086 20.0678 6.02792 16.0934 6.02792ZM7.2932 13.2006C7.2932 8.34839 11.2344 4.41916 16.0934 4.41916C20.952 4.41916 24.8967 8.34798 24.8967 13.2006C24.8967 16.574 22.994 19.4967 20.2031 20.968V22.1868C20.2031 22.631 19.843 22.9912 19.3988 22.9912H12.7911C12.3469 22.9912 11.9867 22.631 11.9867 22.1868V20.9678C9.19891 19.4966 7.2932 16.5743 7.2932 13.2006ZM2.19556 12.1354C2.19556 11.6912 2.55569 11.331 2.99994 11.331H4.68998C5.13423 11.331 5.49437 11.6912 5.49437 12.1354C5.49437 12.5796 5.13423 12.9398 4.68998 12.9398H2.99994C2.55569 12.9398 2.19556 12.5796 2.19556 12.1354ZM26.5055 12.1354C26.5055 11.6912 26.8657 11.331 27.3099 11.331H28.9999C29.4442 11.331 29.8043 11.6912 29.8043 12.1354C29.8043 12.5796 29.4442 12.9398 28.9999 12.9398H27.3099C26.8657 12.9398 26.5055 12.5796 26.5055 12.1354ZM7.76419 18.8884C8.07836 19.2025 8.07842 19.7118 7.76433 20.026L6.57228 21.2183C6.25819 21.5325 5.74888 21.5326 5.43471 21.2185C5.12054 20.9044 5.12047 20.3951 5.43456 20.0809L6.62661 18.8885C6.94071 18.5744 7.45001 18.5743 7.76419 18.8884ZM24.2357 18.8884C24.5499 18.5743 25.0592 18.5744 25.3733 18.8885L26.5653 20.0809C26.8794 20.3951 26.8793 20.9044 26.5652 21.2185C26.251 21.5326 25.7417 21.5325 25.4276 21.2183L24.2355 20.026C23.9215 19.7118 23.9215 19.2025 24.2357 18.8884ZM12.2186 24.738C12.3704 24.579 12.5806 24.489 12.8004 24.489H19.4019C19.8461 24.489 20.2063 24.8492 20.2063 25.2934C20.2063 25.3535 20.1997 25.412 20.1872 25.4683C20.0161 27.5783 18.253 29.2371 16.0965 29.2371C13.8945 29.2371 12.0977 27.5037 11.9969 25.3307C11.9867 25.1111 12.0669 24.8969 12.2186 24.738ZM18.3989 26.0978H13.7934C14.1698 26.9953 15.0586 27.6283 16.0965 27.6283C17.1341 27.6283 18.0221 26.997 18.3989 26.0978Z" fill="#2B63D9"/>
</svg>
