<svg width="24" height="24" viewBox="0 0 24 24" fill="none" xmlns="http://www.w3.org/2000/svg">
<circle cx="11.25" cy="8.75" r="0.75" fill="#546579"/>
<circle cx="14.25" cy="8.75" r="0.75" fill="#546579"/>
<circle cx="17.25" cy="8.75" r="0.75" fill="#546579"/>
<path d="M6.66224 8.75C7.07646 8.75 7.41224 8.41421 7.41224 8C7.41224 7.58579 7.07646 7.25 6.66224 7.25V8.75ZM17.887 14.5C17.887 14.0858 17.5512 13.75 17.137 13.75C16.7228 13.75 16.387 14.0858 16.387 14.5H17.887ZM3 19.9999H2.25C2.25 20.2706 2.39579 20.5202 2.63149 20.6532C2.86719 20.7861 3.15624 20.7818 3.38786 20.6419L3 19.9999ZM5.94675 18.2195L6.33461 18.8614L5.94675 18.2195ZM14.3498 17.0371H7.4982V18.5371H14.3498V17.0371ZM6 8.75H6.66224V7.25H6V8.75ZM14.3498 18.5371C15.9168 18.5371 16.9237 18.0179 17.446 17.0671C17.9048 16.2319 17.887 15.1982 17.887 14.5H16.387C16.387 15.3018 16.3692 15.9117 16.1312 16.345C15.9567 16.6628 15.57 17.0371 14.3498 17.0371V18.5371ZM3.75 11C3.75 9.75736 4.75736 8.75 6 8.75V7.25C3.92893 7.25 2.25 8.92893 2.25 11H3.75ZM3.38786 20.6419L6.33461 18.8614L5.55889 17.5775L2.61214 19.358L3.38786 20.6419ZM3.75 19.9999V11H2.25V19.9999H3.75ZM7.4982 17.0371C6.81459 17.0371 6.14399 17.224 5.55889 17.5775L6.33461 18.8614C6.68567 18.6493 7.08803 18.5371 7.4982 18.5371V17.0371Z" fill="#546579"/>
<path d="M21.137 15.9999L20.7491 16.6419C20.9807 16.7818 21.2698 16.7861 21.5055 16.6532C21.7412 16.5202 21.887 16.2706 21.887 15.9999H21.137ZM18.1902 14.2195L17.8023 14.8614L18.1902 14.2195ZM18.137 3.25H9.99997V4.75H18.137V3.25ZM6.24997 7V10.7871H7.74997V7H6.24997ZM9.99997 14.5371H16.6388V13.0371H9.99997V14.5371ZM6.24997 10.7871C6.24997 12.8582 7.9289 14.5371 9.99997 14.5371V13.0371C8.75733 13.0371 7.74997 12.0298 7.74997 10.7871H6.24997ZM9.99997 3.25C7.9289 3.25 6.24997 4.92893 6.24997 7H7.74997C7.74997 5.75736 8.75733 4.75 9.99997 4.75V3.25ZM18.137 4.75C19.3796 4.75 20.387 5.75736 20.387 7H21.887C21.887 4.92893 20.208 3.25 18.137 3.25V4.75ZM21.5248 15.358L18.5781 13.5775L17.8023 14.8614L20.7491 16.6419L21.5248 15.358ZM21.887 15.9999V7H20.387V15.9999H21.887ZM16.6388 14.5371C17.0489 14.5371 17.4513 14.6493 17.8023 14.8614L18.5781 13.5775C17.993 13.224 17.3224 13.0371 16.6388 13.0371V14.5371Z" fill="#546579"/>
</svg>
