<svg width="24" height="24" viewBox="0 0 24 24" fill="none" xmlns="http://www.w3.org/2000/svg">
<path d="M8.22139 7.60057C7.80718 7.60057 7.47139 7.93635 7.47139 8.35057C7.47139 8.76478 7.80718 9.10057 8.22139 9.10057V7.60057ZM15.4499 9.10057C15.8641 9.10057 16.1999 8.76478 16.1999 8.35057C16.1999 7.93635 15.8641 7.60057 15.4499 7.60057V9.10057ZM8.22139 11.2821C7.80718 11.2821 7.47139 11.6179 7.47139 12.0321C7.47139 12.4463 7.80718 12.7821 8.22139 12.7821V11.2821ZM15.4499 12.7821C15.8641 12.7821 16.1999 12.4463 16.1999 12.0321C16.1999 11.6179 15.8641 11.2821 15.4499 11.2821V12.7821ZM3 19H2.25C2.25 19.2706 2.39579 19.5203 2.63149 19.6532C2.86719 19.7862 3.15624 19.7819 3.38786 19.6419L3 19ZM6.81123 16.6972L6.42337 16.0553H6.42337L6.81123 16.6972ZM8.22139 9.10057H15.4499V7.60057H8.22139V9.10057ZM8.22139 12.7821L15.4499 12.7821V11.2821L8.22139 11.2821V12.7821ZM6.75002 4.75H16.9213V3.25H6.75002V4.75ZM19.9213 7.75002V12.484H21.4213V7.75002H19.9213ZM16.9213 15.484H8.47349V16.984H16.9213V15.484ZM19.9213 12.484C19.9213 14.1408 18.5782 15.484 16.9213 15.484V16.984C19.4066 16.984 21.4213 14.9693 21.4213 12.484H19.9213ZM16.9213 4.75C18.5782 4.75 19.9213 6.09315 19.9213 7.75002H21.4213C21.4213 5.26473 19.4066 3.25 16.9213 3.25V4.75ZM6.75002 3.25C4.26473 3.25 2.25 5.26473 2.25 7.75002H3.75C3.75 6.09316 5.09315 4.75 6.75002 4.75V3.25ZM3.38786 19.6419L7.19909 17.3391L6.42337 16.0553L2.61214 18.3581L3.38786 19.6419ZM3.75 19V7.75002H2.25V19H3.75ZM8.47349 15.484C7.75082 15.484 7.0419 15.6815 6.42337 16.0553L7.19909 17.3391C7.58358 17.1068 8.02426 16.984 8.47349 16.984V15.484Z" fill="#546579"/>
</svg>
