<svg width="24" height="24" viewBox="0 0 24 24" fill="none" xmlns="http://www.w3.org/2000/svg">
<path d="M8.03839 7.38707C7.62418 7.38707 7.28839 7.72286 7.28839 8.13707C7.28839 8.55128 7.62418 8.88707 8.03839 8.88707V7.38707ZM14.9009 8.88707C15.3151 8.88707 15.6509 8.55128 15.6509 8.13707C15.6509 7.72286 15.3151 7.38707 14.9009 7.38707V8.88707ZM8.03839 10.9161C7.62418 10.9161 7.28839 11.2519 7.28839 11.6661C7.28839 12.0803 7.62418 12.4161 8.03839 12.4161V10.9161ZM14.9009 12.4161C15.3151 12.4161 15.6509 12.0803 15.6509 11.6661C15.6509 11.2519 15.3151 10.9161 14.9009 10.9161V12.4161ZM19.1893 10.7101C19.1893 11.1243 19.5251 11.4601 19.9393 11.4601C20.3536 11.4601 20.6893 11.1243 20.6893 10.7101H19.1893ZM13.0651 16.4772C13.4793 16.4772 13.8151 16.1414 13.8151 15.7272C13.8151 15.313 13.4793 14.9772 13.0651 14.9772V16.4772ZM3 18.3787H2.25C2.25 18.6493 2.39579 18.8989 2.63149 19.0319C2.86719 19.1649 3.15624 19.1605 3.38786 19.0206L3 18.3787ZM6.62161 16.1904L7.00947 16.8323H7.00947L6.62161 16.1904ZM8.03839 8.88707L14.9009 8.88707V7.38707L8.03839 7.38707V8.88707ZM8.03839 12.4161L14.9009 12.4161V10.9161L8.03839 10.9161V12.4161ZM6.59469 4.75H16.3447V3.25H6.59469V4.75ZM19.1893 7.59469V10.7101H20.6893V7.59469H19.1893ZM13.0651 14.9772H8.28387V16.4772H13.0651V14.9772ZM16.3447 4.75C17.9157 4.75 19.1893 6.02361 19.1893 7.59469H20.6893C20.6893 5.19518 18.7442 3.25 16.3447 3.25V4.75ZM6.59469 3.25C4.19518 3.25 2.25 5.19518 2.25 7.59469H3.75C3.75 6.02361 5.02361 4.75 6.59469 4.75V3.25ZM3.38786 19.0206L7.00947 16.8323L6.23374 15.5485L2.61214 17.7368L3.38786 19.0206ZM3.75 18.3787V7.59469H2.25V18.3787H3.75ZM8.28387 14.9772C7.5612 14.9772 6.85228 15.1748 6.23374 15.5485L7.00947 16.8323C7.39396 16.6 7.83464 16.4772 8.28387 16.4772V14.9772Z" fill="#546579"/>
<path d="M20.6162 13.8531L16.355 18.1143M21.5942 15.9822C21.5942 17.6489 20.2431 19 18.5764 19C16.9098 19 15.5587 17.6489 15.5587 15.9822C15.5587 14.3156 16.9098 12.9645 18.5764 12.9645C20.2431 12.9645 21.5942 14.3156 21.5942 15.9822Z" stroke="#546579" stroke-width="1.5" stroke-miterlimit="10"/>
</svg>
