<svg xmlns="http://www.w3.org/2000/svg" fill="none" viewBox="0 0 32 32" height="32" width="32">
<path stroke-linejoin="round" stroke-linecap="round" stroke-width="1.5" stroke="#FF6A00" d="M16.3721 24.9058H6C4.89543 24.9058 4 24.0103 4 22.9058V9.23584C4 8.13127 4.89543 7.23584 6 7.23584H16.8721"></path>
<path stroke-linecap="round" stroke-width="1.5" stroke="#FF6A00" d="M4.37207 13.2168H21.3721"></path>
<path stroke-linecap="round" stroke-width="1.5" stroke="#FF6A00" d="M4.37207 19.2168H17.3721"></path>
<path stroke-linejoin="round" stroke-linecap="round" stroke-width="1.5" stroke="#FF6A00" d="M13.3721 13.2168L13.3721 24.2168"></path>
<path fill="#FF6A00" d="M23.8067 4.30695C23.975 4.34992 23.975 4.34992 24.073 4.49725C24.0963 4.62222 24.1162 4.74596 24.1342 4.87169C24.3005 5.90745 24.7363 6.94686 25.5911 7.59104C26.2314 8.02822 27.0726 8.2703 27.8385 8.35777C27.9418 8.37676 27.9418 8.37676 28.0887 8.47498C28.104 8.64686 28.104 8.64686 28.0887 8.81873C27.9719 8.93582 27.904 8.94663 27.7447 8.98409C27.695 8.99605 27.6453 9.00802 27.594 9.02035C27.5411 9.03282 27.4882 9.04529 27.4337 9.05814C26.3558 9.32127 25.3669 9.63458 24.7586 10.6357C24.7342 10.6741 24.7098 10.7126 24.6847 10.7522C24.3867 11.2786 24.2638 11.8638 24.158 12.4533C24.1489 12.5021 24.1399 12.5508 24.1305 12.601C24.1229 12.6446 24.1153 12.6882 24.1074 12.7331C24.0683 12.8607 24.0335 12.9149 23.926 12.9929C23.7455 13.0021 23.7455 13.0021 23.5832 12.9929C23.427 12.7258 23.3784 12.4537 23.32 12.1519C23.2345 11.7348 23.1367 11.3619 22.9466 10.9795C22.9311 10.9443 22.9157 10.9091 22.8997 10.8728C22.5648 10.1355 21.9142 9.64532 21.1761 9.35667C20.8247 9.23858 20.4589 9.16194 20.0965 9.08554C20.0373 9.0727 19.978 9.05986 19.917 9.04663C19.8639 9.03575 19.8107 9.02488 19.7559 9.01368C19.5973 8.95949 19.5245 8.90008 19.4206 8.76963C19.3992 8.64379 19.3992 8.64379 19.4206 8.52409C19.524 8.39466 19.6017 8.35631 19.7634 8.33149C19.8024 8.32489 19.8413 8.31829 19.8814 8.31149C19.9233 8.30467 19.9651 8.29785 20.0083 8.29083C21.0115 8.10684 22.0423 7.73109 22.6503 6.86651C23.0612 6.21423 23.3221 5.46454 23.4326 4.70299C23.4537 4.56813 23.4736 4.46496 23.5521 4.35184C23.6322 4.30082 23.6322 4.30082 23.8067 4.30695Z"></path>
<path fill="#FF6A00" d="M20.0806 3.00124C20.1563 3.02058 20.1563 3.02058 20.2004 3.08687C20.2109 3.14311 20.2198 3.19879 20.2279 3.25537C20.3028 3.72146 20.4989 4.1892 20.8836 4.47908C21.1717 4.67581 21.5502 4.78475 21.8949 4.82411C21.9414 4.83265 21.9414 4.83265 22.0075 4.87685C22.0144 4.9542 22.0144 4.9542 22.0075 5.03154C21.9549 5.08423 21.9244 5.08909 21.8527 5.10595C21.8303 5.11133 21.8079 5.11672 21.7849 5.12227C21.7611 5.12788 21.7372 5.13349 21.7127 5.13927C21.2277 5.25768 20.7826 5.39867 20.5089 5.84919C20.498 5.86648 20.487 5.88377 20.4757 5.90158C20.3416 6.1385 20.2863 6.40182 20.2387 6.66712C20.2346 6.68904 20.2305 6.71097 20.2263 6.73356C20.2229 6.75318 20.2195 6.7728 20.2159 6.79302C20.1983 6.85041 20.1826 6.87479 20.1343 6.90991C20.053 6.91406 20.053 6.91406 19.98 6.90991C19.9097 6.78971 19.8879 6.66727 19.8616 6.53148C19.8231 6.34377 19.7791 6.17599 19.6935 6.00388C19.6866 5.98804 19.6796 5.9722 19.6724 5.95588C19.5217 5.62406 19.229 5.4035 18.8968 5.27361C18.7387 5.22047 18.5741 5.18598 18.411 5.1516C18.3843 5.14583 18.3577 5.14005 18.3302 5.13409C18.3063 5.1292 18.2824 5.12431 18.2577 5.11927C18.1863 5.09488 18.1536 5.06815 18.1068 5.00944C18.0972 4.95281 18.0972 4.95281 18.1068 4.89895C18.1534 4.84071 18.1883 4.82345 18.2611 4.81228C18.2786 4.80931 18.2962 4.80634 18.3142 4.80328C18.333 4.80021 18.3519 4.79714 18.3713 4.79398C18.8227 4.71119 19.2866 4.5421 19.5602 4.15304C19.7451 3.85951 19.8625 3.52216 19.9123 3.17946C19.9217 3.11877 19.9307 3.07234 19.966 3.02144C20.0021 2.99848 20.0021 2.99848 20.0806 3.00124Z"></path>
<path stroke-linecap="round" stroke-width="1.5" stroke="#FF6A00" d="M23.356 14.9971L23.356 17.145"></path>
<path stroke-width="0.4" stroke="#FF6A00" fill="#FF6A00" d="M27.8905 28.8099C28.1051 28.5953 28.1051 28.2474 27.8905 28.0328L25.6239 25.7662C26.2149 24.9877 26.5059 24.0197 26.439 23.0404C26.368 22.0002 25.8987 21.0274 25.1287 20.3243C24.3587 19.6213 23.3473 19.2422 22.3049 19.2659C21.2625 19.2896 20.2693 19.7142 19.5321 20.4515C18.7948 21.1888 18.3701 22.1819 18.3465 23.2243C18.3228 24.2667 18.7019 25.2781 19.4049 26.0481C20.1079 26.8181 21.0808 27.2875 22.121 27.3585C23.1003 27.4253 24.0683 27.1343 24.8467 26.5433L27.1133 28.8099C27.3279 29.0245 27.6759 29.0245 27.8905 28.8099ZM19.457 23.3224C19.4571 22.7398 19.6298 22.1703 19.9535 21.6858C20.2773 21.2013 20.7374 20.8237 21.2757 20.6007C21.814 20.3778 22.4064 20.3194 22.9779 20.4331C23.5494 20.5468 24.0743 20.8273 24.4863 21.2394C24.8983 21.6514 25.1789 22.1763 25.2926 22.7478C25.4063 23.3193 25.3479 23.9117 25.125 24.45C24.902 24.9883 24.5244 25.4484 24.0399 25.7721C23.5555 26.0958 22.986 26.2686 22.4034 26.2687C21.6222 26.2678 20.8733 25.9571 20.321 25.4047C19.7686 24.8524 19.4579 24.1036 19.457 23.3224Z"></path>
</svg>
