<svg xmlns="http://www.w3.org/2000/svg" fill="none" viewBox="0 0 24 24" height="24" width="24">
<path stroke-linecap="round" stroke-width="1.5" stroke="#6D7B8C" d="M11.6165 4.20893L8.30017 7.5M20.2843 9.83043L15.9504 14.1743M20.2845 9.82762C21.4108 8.69865 21.1825 6.63942 19.7746 5.22821C18.3666 3.81699 16.3121 3.58819 15.1858 4.71716L10.5969 9.31657M16.2052 9.82577L13.4009 12.6365"></path>
<path stroke-linecap="round" stroke-width="1.5" stroke="#6D7B8C" d="M8.4 11.5L7.53745 12.381C6.69267 13.2277 6.69267 14.6006 7.53745 15.4473C8.38223 16.294 9.75189 16.294 10.5967 15.4473L11.55 14.5M6.3 9.55L4.47837 11.3636C2.50721 13.3393 2.50721 16.5425 4.47837 18.5182C6.44952 20.4939 9.64539 20.4939 11.6165 18.5182L13.6 16.5"></path>
<path stroke-linejoin="round" stroke-linecap="round" stroke-width="1.5" stroke="#6D7B8C" d="M4.5 4L19.5 19"></path>
</svg>
