<svg width="24" height="24" viewBox="0 0 24 24" fill="none" xmlns="http://www.w3.org/2000/svg">
<path d="M8.1665 10.0152C7.8736 9.72233 7.39873 9.72233 7.10584 10.0152C6.81294 10.3081 6.81294 10.783 7.10584 11.0759L8.1665 10.0152ZM11.9998 14.9092L11.4695 15.4395C11.7624 15.7324 12.2372 15.7324 12.5301 15.4395L11.9998 14.9092ZM16.8938 11.0759C17.1867 10.783 17.1867 10.3081 16.8938 10.0152C16.6009 9.72233 16.126 9.72233 15.8331 10.0152L16.8938 11.0759ZM12.7498 4C12.7498 3.58579 12.414 3.25 11.9998 3.25C11.5856 3.25 11.2498 3.58579 11.2498 4H12.7498ZM20.75 14.2857C20.75 13.8715 20.4142 13.5357 20 13.5357C19.5858 13.5357 19.25 13.8715 19.25 14.2857H20.75ZM4.75 14.2857C4.75 13.8715 4.41421 13.5357 4 13.5357C3.58579 13.5357 3.25 13.8715 3.25 14.2857H4.75ZM7.10584 11.0759L11.4695 15.4395L12.5301 14.3789L8.1665 10.0152L7.10584 11.0759ZM15.8331 10.0152L11.4695 14.3789L12.5301 15.4395L16.8938 11.0759L15.8331 10.0152ZM12.7498 14.9092V4H11.2498V14.9092H12.7498ZM19.25 14.2857V18H20.75V14.2857H19.25ZM18 19.25H6V20.75H18V19.25ZM4.75 18V14.2857H3.25V18H4.75ZM6 19.25C5.30964 19.25 4.75 18.6904 4.75 18H3.25C3.25 19.5188 4.48122 20.75 6 20.75V19.25ZM19.25 18C19.25 18.6904 18.6904 19.25 18 19.25V20.75C19.5188 20.75 20.75 19.5188 20.75 18H19.25Z" fill="#546579"/>
</svg>
