<svg width="19" height="18" viewBox="0 0 19 18" fill="none" xmlns="http://www.w3.org/2000/svg">
<path d="M9.5 0C4.53 0 0.5 4.03 0.5 9C0.5 13.97 4.53 18 9.5 18C10.33 18 11 17.33 11 16.5C11 16.11 10.85 15.76 10.61 15.49C10.38 15.23 10.23 14.88 10.23 14.5C10.23 13.67 10.9 13 11.73 13H13.5C16.26 13 18.5 10.76 18.5 8C18.5 3.58 14.47 0 9.5 0ZM4 9C3.17 9 2.5 8.33 2.5 7.5C2.5 6.67 3.17 6 4 6C4.83 6 5.5 6.67 5.5 7.5C5.5 8.33 4.83 9 4 9ZM7 5C6.17 5 5.5 4.33 5.5 3.5C5.5 2.67 6.17 2 7 2C7.83 2 8.5 2.67 8.5 3.5C8.5 4.33 7.83 5 7 5ZM12 5C11.17 5 10.5 4.33 10.5 3.5C10.5 2.67 11.17 2 12 2C12.83 2 13.5 2.67 13.5 3.5C13.5 4.33 12.83 5 12 5ZM15 9C14.17 9 13.5 8.33 13.5 7.5C13.5 6.67 14.17 6 15 6C15.83 6 16.5 6.67 16.5 7.5C16.5 8.33 15.83 9 15 9Z" fill="#252F3D"/>
</svg>
