<svg width="24" height="24" viewBox="0 0 24 24" fill="none" xmlns="http://www.w3.org/2000/svg">
<path d="M4 18H6.86618M15 20.5H5C4.44772 20.5 4 20.0523 4 19.5V4C4 3.44772 4.44772 3 5 3H6.86618M6.86618 3H19C19.5523 3 20 3.44772 20 4V17C20 17.5523 19.5523 18 19 18H18.5H16H6.86618M6.86618 3V18" stroke="#6D7B8C" stroke-width="1.5" stroke-linecap="round" stroke-linejoin="round"/>
<path d="M15.5 18.5V22.5L17 21L18.5 22.5V18.5" stroke="#6D7B8C" stroke-width="1.5" stroke-linecap="round" stroke-linejoin="round"/>
<path d="M12.7822 13.9175C12.5087 13.9175 12.2673 13.7386 12.1878 13.4769L11.8953 12.5144H9.76312L9.47072 13.4765C9.39111 13.7384 9.14955 13.9175 8.87579 13.9175C8.44764 13.9175 8.14759 13.4949 8.28875 13.0907L9.83245 8.6703C9.97264 8.26888 10.3513 8 10.7765 8H10.8746C11.2993 8 11.6777 8.26831 11.8182 8.66913L13.3685 13.0906C13.5101 13.4946 13.2103 13.9175 12.7822 13.9175ZM11.1736 10.0963C11.1463 10.0028 11.1107 9.88446 11.067 9.7414C11.0233 9.59835 10.9795 9.45254 10.9358 9.30399C10.9064 9.20403 10.7514 9.20385 10.7218 9.30375C10.7194 9.31201 10.7169 9.32035 10.7144 9.32875C10.6706 9.48831 10.6269 9.64237 10.5832 9.79092C10.5449 9.93397 10.5148 10.0358 10.493 10.0963L10.0747 11.4663H11.6L11.1736 10.0963Z" fill="#6D7B8C"/>
<path d="M16.1385 9.32049C16.7398 9.32049 17.1991 9.45254 17.5162 9.71664C17.8387 9.97524 18 10.3741 18 10.9133V13.4109C18 13.6907 17.7732 13.9175 17.4935 13.9175H17.4748C17.2773 13.9175 17.0999 13.7962 17.0282 13.6121L16.9163 13.3246C16.9121 13.3138 16.9017 13.3067 16.8901 13.3067C16.8815 13.3067 16.8734 13.3107 16.868 13.3174C16.6792 13.554 16.4798 13.7265 16.2697 13.8349C16.0565 13.945 15.764 14 15.3922 14C14.9931 14 14.6624 13.8845 14.4 13.6534C14.1375 13.4168 14.0063 13.0564 14.0063 12.5722C14.0063 12.0935 14.1731 11.7414 14.5066 11.5158C14.8401 11.2847 15.3403 11.1582 16.0073 11.1362L16.5883 11.1177C16.6987 11.1142 16.7863 11.0237 16.7863 10.9133C16.7863 10.6768 16.7234 10.5034 16.5977 10.3934C16.4774 10.2834 16.308 10.2283 16.0893 10.2283C15.8706 10.2283 15.6574 10.2613 15.4496 10.3274C15.3859 10.3459 15.3222 10.3661 15.2585 10.3877C15.0136 10.471 14.7369 10.3728 14.6246 10.1398C14.513 9.90834 14.6043 9.62705 14.8461 9.54023C14.9658 9.49725 15.0905 9.45977 15.22 9.42779C15.5152 9.35626 15.8214 9.32049 16.1385 9.32049ZM16.3107 11.8459C15.9171 11.8569 15.6437 11.9285 15.4906 12.0605C15.3376 12.1926 15.261 12.3659 15.261 12.5805C15.261 12.7675 15.3157 12.9023 15.425 12.9849C15.5344 13.0619 15.6765 13.1004 15.8515 13.1004C16.1139 13.1004 16.3353 13.0234 16.5157 12.8693C16.6961 12.7098 16.7863 12.4869 16.7863 12.2008C16.7863 11.9978 16.618 11.8353 16.4152 11.8423L16.3107 11.8459Z" fill="#6D7B8C"/>
</svg>
