<svg width="24" height="24" viewBox="0 0 24 24" fill="none" xmlns="http://www.w3.org/2000/svg">
<path d="M4 21.2681H19.974" stroke="#6D7B8C" stroke-width="1.5" stroke-linecap="round" stroke-linejoin="round"/>
<path d="M6.28999 12.5449L10.456 16.7119M10.072 17.0949L19.137 8.02893C19.4157 7.75653 19.6376 7.43155 19.7898 7.07279C19.942 6.71404 20.0216 6.32865 20.0238 5.93894C20.026 5.54923 19.9509 5.16296 19.8028 4.80249C19.6547 4.44201 19.4366 4.11451 19.161 3.83894C18.8854 3.56337 18.5579 3.34521 18.1974 3.19711C17.837 3.049 17.4507 2.97389 17.061 2.97612C16.6713 2.97835 16.2859 3.05788 15.9271 3.21011C15.5684 3.36233 15.2434 3.58422 14.971 3.86293L5.90499 12.9279L4.66699 17.9979L10.072 17.0949Z" stroke="#6D7B8C" stroke-width="1.5" stroke-linejoin="round"/>
</svg>
