<svg width="17" height="16" viewBox="0 0 17 16" fill="none" xmlns="http://www.w3.org/2000/svg">
<path d="M5.5 7C6.05 7 6.5 6.55 6.5 6C6.5 5.45 6.05 5 5.5 5C4.95 5 4.5 5.45 4.5 6C4.5 6.55 4.95 7 5.5 7ZM11.5 7C12.05 7 12.5 6.55 12.5 6C12.5 5.45 12.05 5 11.5 5C10.95 5 10.5 5.45 10.5 6C10.5 6.55 10.95 7 11.5 7ZM8.5 12.5C10.64 12.5 12.42 11 12.88 9H4.12C4.58 11 6.36 12.5 8.5 12.5ZM8.5 0C4.07 0 0.5 3.58 0.5 8C0.5 12.42 4.07 16 8.5 16C12.93 16 16.5 12.42 16.5 8C16.5 3.58 12.92 0 8.5 0ZM8.5 14.5C4.91 14.5 2 11.59 2 8C2 4.41 4.91 1.5 8.5 1.5C12.09 1.5 15 4.41 15 8C15 11.59 12.09 14.5 8.5 14.5Z" fill="#252F3D"/>
</svg>
