<svg width="24" height="24" viewBox="0 0 24 24" fill="none" xmlns="http://www.w3.org/2000/svg">
<path d="M10.1429 7.75C10.5571 7.75 10.8929 7.41421 10.8929 7C10.8929 6.58579 10.5571 6.25 10.1429 6.25V7.75ZM17.75 13.8571C17.75 13.4429 17.4142 13.1071 17 13.1071C16.5858 13.1071 16.25 13.4429 16.25 13.8571H17.75ZM13 4.25C12.5858 4.25 12.25 4.58579 12.25 5C12.25 5.41421 12.5858 5.75 13 5.75V4.25ZM18.25 11C18.25 11.4142 18.5858 11.75 19 11.75C19.4142 11.75 19.75 11.4142 19.75 11H18.25ZM18.5303 6.59099C18.8232 6.2981 18.8232 5.82322 18.5303 5.53033C18.2374 5.23744 17.7626 5.23744 17.4697 5.53033L18.5303 6.59099ZM10.7522 12.2478C10.4593 12.5407 10.4593 13.0156 10.7522 13.3085C11.045 13.6014 11.5199 13.6014 11.8128 13.3085L10.7522 12.2478ZM15 18.25H7V19.75H15V18.25ZM5.75 17V9H4.25V17H5.75ZM7 7.75H10.1429V6.25H7V7.75ZM16.25 13.8571V17H17.75V13.8571H16.25ZM7 18.25C6.30964 18.25 5.75 17.6904 5.75 17H4.25C4.25 18.5188 5.48122 19.75 7 19.75V18.25ZM15 19.75C16.5188 19.75 17.75 18.5188 17.75 17H16.25C16.25 17.6904 15.6904 18.25 15 18.25V19.75ZM5.75 9C5.75 8.30964 6.30964 7.75 7 7.75V6.25C5.48122 6.25 4.25 7.48122 4.25 9H5.75ZM13 5.75H18V4.25H13V5.75ZM18.25 6V11H19.75V6H18.25ZM18 5.75C18.1381 5.75 18.25 5.86193 18.25 6H19.75C19.75 5.0335 18.9665 4.25 18 4.25V5.75ZM17.4697 5.53033L10.7522 12.2478L11.8128 13.3085L18.5303 6.59099L17.4697 5.53033Z" fill="#546579"/>
</svg>
