<svg width="27" height="24" viewBox="0 0 27 24" fill="none" xmlns="http://www.w3.org/2000/svg">
<circle cx="21.5" cy="16" r="4.25" stroke="#6D7B8C" stroke-width="1.5"/>
<path d="M21 17.5L22.5 16L21 14.5" stroke="#6D7B8C" stroke-width="1.5" stroke-linecap="round" stroke-linejoin="round"/>
<path d="M18.1076 7.63487L14.844 10.5834C13.9601 11.382 13.4532 12.5293 13.4532 13.7312V18.6433C13.4532 18.975 13.2887 19.2851 13.0141 19.4711L12.1078 20.0852C11.4437 20.5351 10.5468 20.0595 10.5468 19.2574V13.7313C10.5468 12.5293 10.0399 11.382 9.15605 10.5834L5.89238 7.63502C5.12976 6.94588 4.56825 6.07076 4.25071 5.1066C4.06216 4.53411 4.53359 4 5.13633 4H18.8637C19.4664 4 19.9378 4.53411 19.7493 5.1066C19.4318 6.07075 18.8703 6.94584 18.1076 7.63487Z" stroke="#6D7B8C" stroke-width="1.5"/>
</svg>
