<svg width="24" height="24" viewBox="0 0 24 24" fill="none" xmlns="http://www.w3.org/2000/svg">
<path d="M4 4.88889C4 4.88889 7.5 2.88889 12.5 4.88889C17.5 6.88889 21 4.88889 21 4.88889V14.8889C21 14.8889 16.5 16.8887 12.5 14.8889C8.5 12.8891 4 14.8889 4 14.8889V4.88889Z" fill="#E57984"/>
<path d="M4 14.8889V4.88889C4 4.88889 7.5 2.88889 12.5 4.88889C17.5 6.88889 21 4.88889 21 4.88889V14.8889C21 14.8889 16.5 16.8887 12.5 14.8889C8.5 12.8891 4 14.8889 4 14.8889ZM4 14.8889V20" stroke="#E57984" stroke-width="1.5" stroke-linecap="round" stroke-linejoin="round"/>
</svg>
