<svg width="25" height="24" viewBox="0 0 25 24" fill="none" xmlns="http://www.w3.org/2000/svg">
<path d="M21.5 18H3.5V21H21.5V18Z" fill="#252F3D"/>
<path fill-rule="evenodd" clip-rule="evenodd" d="M9.15997 16H8.42201C8.14587 16 7.92201 15.7761 7.92201 15.5C7.92201 15.4513 7.92912 15.4029 7.9431 15.3563L10.6431 6.35633C10.7065 6.14483 10.9012 6 11.122 6H13.878C14.0988 6 14.2934 6.14483 14.3569 6.35633L17.0569 15.3563C17.1362 15.6208 16.9862 15.8996 16.7217 15.9789C16.675 15.9929 16.6266 16 16.578 16H15.84C15.6196 16 15.4251 15.8556 15.3614 15.6446L14.6699 13.3554C14.6061 13.1444 14.4117 13 14.1912 13H10.8088C10.5883 13 10.3939 13.1444 10.3301 13.3554L9.63861 15.6446C9.57486 15.8556 9.38042 16 9.15997 16ZM11.8301 8.35541L11.226 10.3554C11.1461 10.6198 11.2957 10.8988 11.56 10.9786C11.6069 10.9928 11.6556 11 11.7046 11H13.2954C13.5715 11 13.7954 10.7761 13.7954 10.5C13.7954 10.451 13.7882 10.4023 13.774 10.3554L13.1699 8.35541C13.1061 8.14438 12.9117 8 12.6912 8H12.3088C12.0883 8 11.8939 8.14438 11.8301 8.35541Z" fill="#252F3D"/>
</svg>
