<svg width="32" height="32" viewBox="0 0 32 32" fill="none" xmlns="http://www.w3.org/2000/svg">
<path fill-rule="evenodd" clip-rule="evenodd" d="M17.8229 1.90508C16.4025 1.03164 14.5975 1.03164 13.1771 1.90508L5.29864 6.74958C4.76795 7.07591 4.32306 7.50491 3.98492 8.00184L3.97655 8.01419C3.51074 8.7039 3.25 9.52334 3.25 10.3802V20.6198C3.25 22.1005 4.02865 23.4695 5.29864 24.2504L13.1771 29.0949C13.8817 29.5282 14.6808 29.7465 15.4808 29.75C15.4937 29.7503 15.5066 29.7503 15.5195 29.75C16.3194 29.7465 17.1184 29.5281 17.8229 29.0949L18.9537 28.3996C18.4161 28.178 17.9078 27.8995 17.4365 27.5716L17.0372 27.8172C16.723 28.0104 16.3798 28.1389 16.027 28.2027L14.8136 24.5191C14.496 23.8717 14.2632 23.1751 14.1299 22.4438L13.1716 19.5345L14.3147 18.7708C14.6095 17.7525 15.1013 16.8178 15.746 16.0107L12.6991 18.0462L10.9454 12.4021L15.465 4.15952L19.9331 13.2136L19.7901 13.3091C20.492 13.1078 21.2334 13 22 13C22.0549 13 22.1096 13.0006 22.1642 13.0017L25.4583 8.45944C25.9625 8.97322 26.25 9.65993 26.25 10.3802V14.221C26.7983 14.5655 27.3019 14.9747 27.75 15.4378V10.3802C27.75 8.89945 26.9714 7.53051 25.7014 6.74958L17.8229 1.90508ZM4.75 10.3802C4.75 10.093 4.79573 9.81102 4.88271 9.54328L9.22086 12.5947L5.3784 22.359C4.97592 21.8704 4.75 21.2583 4.75 20.6198V10.3802ZM11.3981 18.9141L10.0515 14.5803L7.26356 21.6648L11.3981 18.9141ZM11.8765 20.3974L7.08287 23.5867L13.9628 27.8172C14.1009 27.9021 14.2446 27.9745 14.3923 28.0345L11.8765 20.3974ZM21.0194 12.0253L16.5343 2.93692C16.7078 3.00193 16.8763 3.0839 17.0372 3.18284L24.2262 7.60338L21.0194 12.0253ZM13.9628 3.18284C14.1076 3.09382 14.2585 3.01853 14.4137 2.95697L9.8803 11.2247L5.71647 8.29583C5.83038 8.19788 5.95321 8.10798 6.08434 8.02734L13.9628 3.18284Z" fill="#FBBC04"/>
<path fill-rule="evenodd" clip-rule="evenodd" d="M28.3333 21.1667C28.3333 24.5724 25.5724 27.3333 22.1667 27.3333C18.7609 27.3333 16 24.5724 16 21.1667C16 17.7609 18.7609 15 22.1667 15C25.5724 15 28.3333 17.7609 28.3333 21.1667ZM25.8181 19.1894C26.0884 18.8756 26.0532 18.4021 25.7394 18.1317C25.4256 17.8613 24.9521 17.8965 24.6817 18.2103L20.9492 22.5423L19.6041 21.2437C19.3062 20.956 18.8314 20.9643 18.5437 21.2623C18.2559 21.5603 18.2643 22.0351 18.5623 22.3228L20.4783 24.1728C20.6267 24.3161 20.8276 24.3919 21.0337 24.3824C21.2397 24.373 21.4328 24.2791 21.5675 24.1228L25.8181 19.1894Z" fill="#FBBC04"/>
</svg>
