<svg width="24" height="24" viewBox="0 0 24 24" fill="none" xmlns="http://www.w3.org/2000/svg">
<g clip-path="url(#clip0)">
<path d="M1 11.5749C2.29353 13.5261 6.46269 17.4286 11 17.4286C15.5373 17.4286 19.806 14.0836 21 11.5749C19.9055 9.71661 16.7313 6 11 6C7.26695 6 4.49213 7.57675 2.79105 9.18975M14.5714 11.7143C14.5714 13.6867 12.9724 15.2857 11 15.2857C9.02755 15.2857 7.42857 13.6867 7.42857 11.7143C7.42857 9.74184 9.02755 8.14286 11 8.14286C12.9724 8.14286 14.5714 9.74184 14.5714 11.7143Z" stroke="#546579" stroke-width="1.5" stroke-linecap="round" stroke-linejoin="round"/>
<path d="M3 20L19 4" stroke="#546579" stroke-width="1.5" stroke-linecap="round"/>
</g>
<defs>
<clipPath id="clip0">
<rect width="24" height="24" fill="white"/>
</clipPath>
</defs>
</svg>
