<svg width="24" height="24" viewBox="0 0 24 24" fill="none" xmlns="http://www.w3.org/2000/svg">
<path d="M17.7666 8.97066L12.7607 4.00024H6.71429C5.76751 4.00024 5 4.76775 5 5.71453V18.8573C5 19.804 5.76751 20.5716 6.71429 20.5716H9.01056M17.7666 8.97066V10.6316M17.7666 8.97066L14.3603 8.97042C13.5415 8.97042 12.8779 8.29573 12.8779 7.46328V4L17.7666 8.97066Z" stroke="#546579" stroke-width="1.5" stroke-miterlimit="10" stroke-linecap="round" stroke-linejoin="round"/>
<path d="M15.7143 11.8214C15.3001 11.8214 14.9643 12.1572 14.9643 12.5714C14.9643 12.9856 15.3001 13.3214 15.7143 13.3214V11.8214ZM11.6307 14.9286L12.2799 15.3041L11.6307 14.9286ZM13.0716 14.3307C13.3803 14.0544 13.4065 13.5803 13.1303 13.2716C12.854 12.963 12.3799 12.9367 12.0712 13.213L13.0716 14.3307ZM11 12.6786C10.5858 12.6786 10.25 13.0143 10.25 13.4286C10.25 13.8428 10.5858 14.1786 11 14.1786V12.6786ZM13.1429 13.4286H13.8929C13.8929 13.0143 13.5571 12.6786 13.1429 12.6786V13.4286ZM12.3929 15.5714C12.3929 15.9856 12.7286 16.3214 13.1429 16.3214C13.5571 16.3214 13.8929 15.9856 13.8929 15.5714H12.3929ZM16.3889 14.7139C16.3888 14.2996 16.0529 13.964 15.6387 13.9641C15.2245 13.9642 14.8888 14.3001 14.8889 14.7143L16.3889 14.7139ZM15.6398 17.6396L14.8898 17.6399C14.89 18.054 15.2257 18.3896 15.6398 18.3896V17.6396ZM17.8564 18.3896C18.2706 18.3896 18.6064 18.0539 18.6064 17.6396C18.6064 17.2254 18.2706 16.8896 17.8564 16.8896V18.3896ZM19.6786 17.2857C19.6786 19.4751 17.9037 21.25 15.7143 21.25V22.75C18.7321 22.75 21.1786 20.3035 21.1786 17.2857H19.6786ZM15.7143 21.25C13.5249 21.25 11.75 19.4751 11.75 17.2857H10.25C10.25 20.3035 12.6964 22.75 15.7143 22.75V21.25ZM15.7143 13.3214C17.9037 13.3214 19.6786 15.0963 19.6786 17.2857H21.1786C21.1786 14.2679 18.7321 11.8214 15.7143 11.8214V13.3214ZM11.75 17.2857C11.75 16.5624 11.943 15.8864 12.2799 15.3041L10.9815 14.553C10.5161 15.3575 10.25 16.2917 10.25 17.2857H11.75ZM12.2799 15.3041C12.491 14.9391 12.7589 14.6105 13.0716 14.3307L12.0712 13.213C11.6413 13.5978 11.2725 14.0499 10.9815 14.553L12.2799 15.3041ZM11 14.1786H13.1429V12.6786H11V14.1786ZM12.3929 13.4286V15.5714H13.8929V13.4286H12.3929ZM14.8889 14.7143L14.8898 17.6399L16.3898 17.6394L16.3889 14.7139L14.8889 14.7143ZM17.8564 16.8896H15.6398V18.3896H17.8564V16.8896Z" fill="#546579"/>
</svg>
