<svg width="24" height="24" viewBox="0 0 24 24" fill="none" xmlns="http://www.w3.org/2000/svg">
<circle cx="12" cy="12" r="8.25" stroke="#546579" stroke-width="1.5"/>
<path d="M11.25 7.50024C11.25 7.91446 11.5858 8.25024 12 8.25024C12.4142 8.25024 12.75 7.91446 12.75 7.50024H11.25ZM12.75 7.41113C12.75 6.99692 12.4142 6.66113 12 6.66113C11.5858 6.66113 11.25 6.99692 11.25 7.41113H12.75ZM11.25 16.5002C11.25 16.9144 11.5858 17.2502 12 17.2502C12.4142 17.2502 12.75 16.9144 12.75 16.5002H11.25ZM12.75 10.5002C12.75 10.0859 12.4142 9.75015 12 9.75015C11.5858 9.75015 11.25 10.0859 11.25 10.5002L12.75 10.5002ZM12.75 7.50024V7.41113H11.25V7.50024H12.75ZM12.75 16.5002L12.75 10.5002L11.25 10.5002L11.25 16.5002H12.75Z" fill="#546579"/>
</svg>
