<svg width="32" height="32" viewBox="0 0 32 32" fill="none" xmlns="http://www.w3.org/2000/svg">
<path opacity="0.1" fill-rule="evenodd" clip-rule="evenodd" d="M10 4C8.34315 4 7 5.34315 7 7V27C7 28.6569 8.34315 30 10 30H25C26.6569 30 28 28.6569 28 27V10H29.7C29.8657 10 30 9.86569 30 9.7V8.125V7.3C30 7.13431 29.8657 7 29.7 7H28C28 5.34315 26.6569 4 25 4H10Z" fill="#2B63D9"/>
<path fill-rule="evenodd" clip-rule="evenodd" d="M6.5 3.5V24.5H24C24.8284 24.5 25.5 23.8284 25.5 23V5C25.5 4.17157 24.8284 3.5 24 3.5H6.5ZM6 2C5.44772 2 5 2.44772 5 3V25C5 25.5523 5.44772 26 6 26H24C25.6569 26 27 24.6569 27 23V5C27 3.34315 25.6569 2 24 2H6Z" fill="#2B63D9"/>
<path fill-rule="evenodd" clip-rule="evenodd" d="M25.5 25V23H27V25C27 27.0711 25.3211 28.75 23.25 28.75H6.75C5.7835 28.75 5 27.9665 5 27V25H6.5V27C6.5 27.1381 6.61193 27.25 6.75 27.25H23.25C24.4926 27.25 25.5 26.2426 25.5 25Z" fill="#2B63D9"/>
<path d="M6 3H8V25H6V3Z" fill="#2B63D9"/>
<path fill-rule="evenodd" clip-rule="evenodd" d="M27.5 8.5H26V9.5H27.9C28.2314 9.5 28.5 9.23137 28.5 8.9V6.1C28.5 5.76863 28.2314 5.5 27.9 5.5H26V6.5H27.5V8.5Z" fill="#2B63D9"/>
<path fill-rule="evenodd" clip-rule="evenodd" d="M10.75 9C10.75 8.0335 11.5335 7.25 12.5 7.25H21.5C22.4665 7.25 23.25 8.0335 23.25 9V11C23.25 11.9665 22.4665 12.75 21.5 12.75H12.5C11.5335 12.75 10.75 11.9665 10.75 11V9ZM12.5 8.75C12.3619 8.75 12.25 8.86193 12.25 9V11C12.25 11.1381 12.3619 11.25 12.5 11.25H21.5C21.6381 11.25 21.75 11.1381 21.75 11V9C21.75 8.86193 21.6381 8.75 21.5 8.75H12.5Z" fill="#2B63D9"/>
</svg>
