<svg width="25" height="24" viewBox="0 0 25 24" fill="none" xmlns="http://www.w3.org/2000/svg">
<path fill-rule="evenodd" clip-rule="evenodd" d="M17.2461 4.72266L17.0703 5.5625H16.8066C16.1686 5.5625 15.7096 5.68294 15.4297 5.92383C15.1497 6.16471 14.9609 6.52278 14.8633 6.99805L12.793 16.8027C12.7344 17.0827 12.7051 17.2682 12.7051 17.3594C12.7051 17.8932 13.1868 18.1602 14.1504 18.1602H14.4043L14.2285 19H8.4082L8.56445 18.1602H8.82812C9.9349 18.1602 10.5892 17.6816 10.791 16.7246L12.8711 6.91992C12.9232 6.67252 12.9492 6.48698 12.9492 6.36328C12.9492 5.82942 12.4675 5.5625 11.5039 5.5625H11.25L11.4258 4.72266H17.2461Z" fill="#252F3D"/>
</svg>
