<svg width="24" height="24" viewBox="0 0 24 24" fill="none" xmlns="http://www.w3.org/2000/svg">
<path d="M3.25 6.45455C3.25 6.86876 3.58579 7.20455 4 7.20455C4.41421 7.20455 4.75 6.86876 4.75 6.45455H3.25ZM4 5V4.25C3.58579 4.25 3.25 4.58579 3.25 5H4ZM14.1818 5H14.9318C14.9318 4.58579 14.596 4.25 14.1818 4.25V5ZM13.4318 6.45455C13.4318 6.86876 13.7676 7.20455 14.1818 7.20455C14.596 7.20455 14.9318 6.86876 14.9318 6.45455H13.4318ZM6.90909 17.3409C6.49487 17.3409 6.15909 17.6767 6.15909 18.0909C6.15909 18.5051 6.49487 18.8409 6.90909 18.8409V17.3409ZM11.2727 18.8409C11.6869 18.8409 12.0227 18.5051 12.0227 18.0909C12.0227 17.6767 11.6869 17.3409 11.2727 17.3409V18.8409ZM13.4318 12.2728C13.4318 12.687 13.7676 13.0228 14.1818 13.0228C14.596 13.0228 14.9318 12.687 14.9318 12.2728H13.4318ZM14.1818 10.8182V10.0682C13.7676 10.0682 13.4318 10.404 13.4318 10.8182H14.1818ZM20 10.8182H20.75C20.75 10.404 20.4142 10.0682 20 10.0682V10.8182ZM19.25 12.2728C19.25 12.687 19.5858 13.0228 20 13.0228C20.4142 13.0228 20.75 12.687 20.75 12.2728H19.25ZM15.6364 17.3409C15.2221 17.3409 14.8864 17.6767 14.8864 18.0909C14.8864 18.5052 15.2221 18.8409 15.6364 18.8409V17.3409ZM18.5454 18.8409C18.9597 18.8409 19.2954 18.5052 19.2954 18.0909C19.2954 17.6767 18.9597 17.3409 18.5454 17.3409V18.8409ZM4.75 6.45455V5H3.25V6.45455H4.75ZM4 5.75H9.09091V4.25H4V5.75ZM9.09091 5.75H14.1818V4.25H9.09091V5.75ZM13.4318 5V6.45455H14.9318V5H13.4318ZM8.34091 5V18.0909H9.84091V5H8.34091ZM6.90909 18.8409H9.09091V17.3409H6.90909V18.8409ZM9.09091 18.8409H11.2727V17.3409H9.09091V18.8409ZM14.9318 12.2728V10.8182H13.4318V12.2728H14.9318ZM14.1818 11.5682H17.0909V10.0682H14.1818V11.5682ZM17.0909 11.5682H20V10.0682H17.0909V11.5682ZM19.25 10.8182V12.2728H20.75V10.8182H19.25ZM16.3409 10.8182V18.0909H17.8409V10.8182H16.3409ZM15.6364 18.8409H17.0909V17.3409H15.6364V18.8409ZM17.0909 18.8409H18.5454V17.3409H17.0909V18.8409Z" fill="#546579"/>
</svg>
