<svg width="19" height="18" viewBox="0 0 19 18" fill="none" xmlns="http://www.w3.org/2000/svg">
<path d="M3.68999 9.34503C4.0686 8.96741 4.68139 8.96741 5.05999 9.34503C5.24142 9.52622 5.34336 9.77211 5.34336 10.0285C5.34336 10.2849 5.24142 10.5308 5.05999 10.712L3.00499 12.764C2.64183 13.1265 2.43775 13.6185 2.43775 14.1315C2.43775 14.6446 2.64183 15.1366 3.00499 15.499C3.7622 16.2543 4.98779 16.2543 5.74499 15.499L10.539 10.712C10.7204 10.5308 10.8224 10.2849 10.8224 10.0285C10.8224 9.77211 10.7204 9.52622 10.539 9.34503C10.3573 9.16379 10.2551 8.91768 10.2551 8.66103C10.2551 8.40437 10.3573 8.15826 10.539 7.97702C10.9176 7.59941 11.5304 7.59941 11.909 7.97702C12.4539 8.52069 12.7601 9.2588 12.7601 10.0285C12.7601 10.7983 12.4539 11.5364 11.909 12.08L7.11399 16.867C5.59981 18.378 3.14818 18.378 1.63399 16.867C0.907675 16.1422 0.499512 15.1582 0.499512 14.132C0.499512 13.1059 0.907675 12.1219 1.63399 11.397L3.68999 9.34402V9.34503ZM15.31 8.65502C14.9314 9.03264 14.3186 9.03264 13.94 8.65502C13.7586 8.47383 13.6566 8.22794 13.6566 7.97152C13.6566 7.71511 13.7586 7.46922 13.94 7.28802L15.995 5.23602C16.3582 4.87359 16.5622 4.38159 16.5622 3.86852C16.5622 3.35545 16.3582 2.86346 15.995 2.50102C15.2378 1.74579 14.0122 1.74579 13.255 2.50102L8.46199 7.28802C8.28057 7.46922 8.17862 7.71511 8.17862 7.97152C8.17862 8.22794 8.28057 8.47383 8.46199 8.65502C8.64373 8.83626 8.74586 9.08237 8.74586 9.33902C8.74586 9.59568 8.64373 9.84179 8.46199 10.023C8.08339 10.4006 7.4706 10.4006 7.09199 10.023C6.5471 9.47936 6.24088 8.74125 6.24088 7.97152C6.24088 7.2018 6.5471 6.46369 7.09199 5.92002L11.887 1.13302C13.4012 -0.378 15.8528 -0.378 17.367 1.13302C18.0933 1.85789 18.5015 2.84188 18.5015 3.86802C18.5015 4.89416 18.0933 5.87816 17.367 6.60302L15.31 8.65602V8.65502Z" fill="#252F3D"/>
</svg>
