<svg width="24" height="24" viewBox="0 0 24 24" fill="none" xmlns="http://www.w3.org/2000/svg">
<path d="M19 7H19.75H19ZM19 18H18.25H19ZM17 20V19.25V20ZM6 20V20.75V20ZM6 5V5.75V5ZM17 5V4.25V5ZM4 7H4.75H4ZM3.25 8.21429C3.25 8.6285 3.58579 8.96429 4 8.96429C4.41422 8.96429 4.75 8.6285 4.75 8.21429H3.25ZM4 18H4.75H4ZM4.75 16.7857C4.75 16.3715 4.41421 16.0357 4 16.0357C3.58579 16.0357 3.25 16.3715 3.25 16.7857H4.75ZM10.7068 8.88137C10.4139 8.58848 9.93903 8.58848 9.64614 8.88137C9.35325 9.17426 9.35325 9.64914 9.64614 9.94203L10.7068 8.88137ZM13.2647 12.4999L13.795 13.0303C14.0879 12.7374 14.0879 12.2625 13.795 11.9696L13.2647 12.4999ZM9.64614 15.0578C9.35325 15.3507 9.35325 15.8256 9.64614 16.1185C9.93903 16.4114 10.4139 16.4114 10.7068 16.1185L9.64614 15.0578ZM4 11.7499C3.58579 11.7499 3.25 12.0857 3.25 12.4999C3.25 12.9141 3.58579 13.2499 4 13.2499L4 11.7499ZM18.25 7V18H19.75V7H18.25ZM17 19.25L6 19.25V20.75L17 20.75V19.25ZM6 5.75L17 5.75V4.25L6 4.25V5.75ZM3.25 7L3.25 8.21429H4.75L4.75 7H3.25ZM4.75 18L4.75 16.7857H3.25L3.25 18H4.75ZM6 4.25C4.48122 4.25 3.25 5.48122 3.25 7H4.75C4.75 6.30964 5.30965 5.75 6 5.75V4.25ZM18.25 18C18.25 18.6904 17.6904 19.25 17 19.25V20.75C18.5188 20.75 19.75 19.5188 19.75 18H18.25ZM19.75 7C19.75 5.48122 18.5188 4.25 17 4.25V5.75C17.6904 5.75 18.25 6.30964 18.25 7H19.75ZM6 19.25C5.30965 19.25 4.75 18.6904 4.75 18H3.25C3.25 19.5188 4.48122 20.75 6 20.75V19.25ZM9.64614 9.94203L12.7344 13.0303L13.795 11.9696L10.7068 8.88137L9.64614 9.94203ZM12.7344 11.9696L9.64614 15.0578L10.7068 16.1185L13.795 13.0303L12.7344 11.9696ZM13.2647 11.7499L4 11.7499L4 13.2499L13.2647 13.2499V11.7499Z" fill="#546579"/>
</svg>
