<svg width="25" height="25" viewBox="0 0 25 25" fill="none" xmlns="http://www.w3.org/2000/svg">
<rect opacity="0.15" x="3.12305" y="4.07324" width="20.9267" height="20.9267" rx="2.92386" fill="#2B63D9"/>
<path fill-rule="evenodd" clip-rule="evenodd" d="M6.53285 0.25C6.94706 0.25 7.28285 0.585786 7.28285 1V1.27443H10.4944V1C10.4944 0.585786 10.8302 0.25 11.2444 0.25C11.6586 0.25 11.9944 0.585786 11.9944 1V1.27443H15.5485V1C15.5485 0.585786 15.8843 0.25 16.2985 0.25C16.7127 0.25 17.0485 0.585786 17.0485 1V1.27443H18.4934C20.5619 1.27443 22.2387 2.95126 22.2387 5.01973V19.5178C22.2387 21.5863 20.5619 23.2631 18.4934 23.2631H3.9953C1.92683 23.2631 0.25 21.5863 0.25 19.5178V5.01973C0.25 2.95126 1.92683 1.27443 3.9953 1.27443H5.78285V1C5.78285 0.585786 6.11863 0.25 6.53285 0.25ZM5.78285 2.77443H3.9953C2.75526 2.77443 1.75 3.77969 1.75 5.01973V19.5178C1.75 20.7579 2.75526 21.7631 3.9953 21.7631H18.4934C19.7334 21.7631 20.7387 20.7579 20.7387 19.5178V5.01973C20.7387 3.77969 19.7334 2.77443 18.4934 2.77443H17.0485V5.03033C17.0485 5.44454 16.7127 5.78033 16.2985 5.78033C15.8843 5.78033 15.5485 5.44454 15.5485 5.03033V2.77443H11.9944V5.03033C11.9944 5.44454 11.6586 5.78033 11.2444 5.78033C10.8302 5.78033 10.4944 5.44454 10.4944 5.03033V2.77443H7.28285V5.03033C7.28285 5.44454 6.94706 5.78033 6.53285 5.78033C6.11863 5.78033 5.78285 5.44454 5.78285 5.03033V2.77443ZM4.34774 11.6396C4.34774 11.2254 4.68352 10.8896 5.09774 10.8896H18.0748C18.489 10.8896 18.8248 11.2254 18.8248 11.6396C18.8248 12.0538 18.489 12.3896 18.0748 12.3896H5.09774C4.68352 12.3896 4.34774 12.0538 4.34774 11.6396ZM4.34776 16C4.34776 15.5858 4.68355 15.25 5.09776 15.25H18.0748C18.489 15.25 18.8248 15.5858 18.8248 16C18.8248 16.4142 18.489 16.75 18.0748 16.75H5.09776C4.68355 16.75 4.34776 16.4142 4.34776 16Z" fill="#2B63D9"/>
</svg>
