<svg width="24" height="24" viewBox="0 0 24 24" fill="none" xmlns="http://www.w3.org/2000/svg">
<path d="M12.2471 5.19413L11.7167 4.6638V4.6638L12.2471 5.19413ZM8.26615 8.11438C7.97326 8.40727 7.97326 8.88215 8.26615 9.17504C8.55904 9.46794 9.03392 9.46794 9.32681 9.17504L8.26615 8.11438ZM13.6941 5.19413L13.1637 5.72446L13.6941 5.19413ZM13.9481 6.50883C14.241 6.80172 14.7159 6.80172 15.0088 6.50883C15.3017 6.21594 15.3017 5.74106 15.0088 5.44817L13.9481 6.50883ZM15.6604 4.78718L16.1908 4.25685C16.0498 4.11583 15.8584 4.03679 15.659 4.03718C15.4595 4.03757 15.2685 4.11737 15.128 4.25893L15.6604 4.78718ZM19.2257 8.35242L19.7581 8.88066C20.049 8.58744 20.0481 8.11417 19.756 7.82209L19.2257 8.35242ZM8.79631 18.8641L8.96916 19.5939C9.10549 19.5616 9.23005 19.4918 9.32872 19.3923L8.79631 18.8641ZM5.23107 15.2988L4.69866 14.7706C4.60562 14.8644 4.539 14.981 4.50553 15.1088L5.23107 15.2988ZM4 20L3.27446 19.81C3.20777 20.0647 3.2795 20.3357 3.46346 20.524C3.64742 20.7124 3.91666 20.7905 4.17285 20.7298L4 20ZM19.0608 4.29968L19.5911 3.76935V3.76935L19.0608 4.29968ZM19.9177 5.15661L19.3873 5.68694V5.68694L19.9177 5.15661ZM17.6137 4.29968L17.0834 3.76935V3.76935L17.6137 4.29968ZM11.7167 4.6638L8.26615 8.11438L9.32681 9.17504L12.7774 5.72446L11.7167 4.6638ZM13.1637 5.72446L13.9481 6.50883L15.0088 5.44817L14.2244 4.6638L13.1637 5.72446ZM12.7774 5.72446C12.8841 5.61777 13.0571 5.61777 13.1637 5.72446L14.2244 4.6638C13.5319 3.97133 12.4092 3.97133 11.7167 4.6638L12.7774 5.72446ZM15.1301 5.31751L18.6953 8.88275L19.756 7.82209L16.1908 4.25685L15.1301 5.31751ZM18.6933 7.82418L8.2639 18.3358L9.32872 19.3923L19.7581 8.88066L18.6933 7.82418ZM5.76348 15.8271L16.1928 5.31542L15.128 4.25893L4.69866 14.7706L5.76348 15.8271ZM8.62347 18.1343L3.82715 19.2702L4.17285 20.7298L8.96916 19.5939L8.62347 18.1343ZM4.72554 20.19L5.95661 15.4888L4.50553 15.1088L3.27446 19.81L4.72554 20.19ZM5.23101 15.1917L8.79625 18.7569L9.85691 17.6963L6.29167 14.131L5.23101 15.1917ZM10.0014 10.4213L13.5666 13.9865L14.6273 12.9259L11.062 9.36063L10.0014 10.4213ZM18.5304 4.83001L19.3873 5.68694L20.448 4.62628L19.5911 3.76935L18.5304 4.83001ZM19.3873 6.07328L18.1669 7.29368L19.2276 8.35434L20.448 7.13394L19.3873 6.07328ZM16.9237 6.05042L18.1441 4.83001L17.0834 3.76935L15.863 4.98976L16.9237 6.05042ZM19.3873 5.68694C19.494 5.79362 19.494 5.96659 19.3873 6.07328L20.448 7.13394C21.1405 6.44147 21.1405 5.31875 20.448 4.62628L19.3873 5.68694ZM19.5911 3.76935C18.8986 3.07688 17.7759 3.07688 17.0834 3.76935L18.1441 4.83001C18.2508 4.72333 18.4237 4.72333 18.5304 4.83001L19.5911 3.76935Z" fill="#6D7B8C"/>
</svg>
