<svg width="24" height="24" viewBox="0 0 24 24" fill="none" xmlns="http://www.w3.org/2000/svg">
<path d="M14.3978 14.0194L18.4171 18.0387M9.80093 13.0612C9.80093 13.0612 8.94464 14.9598 9.25234 17.1717C9.35128 17.883 10.2018 18.0716 10.71 17.5642L17.9449 10.3385C18.4536 9.83042 18.2667 8.97442 17.5565 8.86272C15.2423 8.49875 13.4383 9.42894 13.4383 9.42894M9.80093 13.0612L5.66099 8.20087M9.80093 13.0612L13.4383 9.42894M5.66099 8.20087C5.66099 8.20087 4.31198 8.41712 3.34743 7.65257L8.03945 2.96699C8.03945 2.96699 8.81085 3.92444 8.58324 5.30364M5.66099 8.20087L8.58324 5.30364M8.58324 5.30364L13.4383 9.42894" stroke="#6D7B8C" stroke-width="1.5" stroke-linecap="round" stroke-linejoin="round"/>
</svg>
