<svg width="24" height="24" viewBox="0 0 24 24" fill="none" xmlns="http://www.w3.org/2000/svg">
<path d="M8.4697 5.46967C8.17681 5.76256 8.17681 6.23744 8.4697 6.53033C8.76259 6.82322 9.23747 6.82322 9.53036 6.53033L8.4697 5.46967ZM12 3L12.5304 2.46967C12.2375 2.17678 11.7626 2.17678 11.4697 2.46967L12 3ZM14.4697 6.53033C14.7626 6.82322 15.2375 6.82322 15.5304 6.53033C15.8233 6.23744 15.8233 5.76256 15.5304 5.46967L14.4697 6.53033ZM11.25 9C11.25 9.41421 11.5858 9.75 12 9.75C12.4142 9.75 12.75 9.41421 12.75 9H11.25ZM9.53036 6.53033L12.5304 3.53033L11.4697 2.46967L8.4697 5.46967L9.53036 6.53033ZM11.4697 3.53033L14.4697 6.53033L15.5304 5.46967L12.5304 2.46967L11.4697 3.53033ZM11.25 3L11.25 9H12.75L12.75 3L11.25 3Z" fill="#546579"/>
<path d="M15.5303 18.5303C15.8232 18.2374 15.8232 17.7626 15.5303 17.4697C15.2374 17.1768 14.7625 17.1768 14.4697 17.4697L15.5303 18.5303ZM12 21L11.4697 21.5303C11.7625 21.8232 12.2374 21.8232 12.5303 21.5303L12 21ZM9.53031 17.4697C9.23742 17.1768 8.76255 17.1768 8.46965 17.4697C8.17676 17.7626 8.17676 18.2374 8.46965 18.5303L9.53031 17.4697ZM12.75 15C12.75 14.5858 12.4142 14.25 12 14.25C11.5858 14.25 11.25 14.5858 11.25 15L12.75 15ZM14.4697 17.4697L11.4697 20.4697L12.5303 21.5303L15.5303 18.5303L14.4697 17.4697ZM12.5303 20.4697L9.53031 17.4697L8.46965 18.5303L11.4697 21.5303L12.5303 20.4697ZM12.75 21C12.75 20.0237 12.75 18.5237 12.75 17.2678C12.75 16.6398 12.75 16.0729 12.75 15.6629C12.75 15.4579 12.75 15.2922 12.75 15.1777C12.75 15.1205 12.75 15.0761 12.75 15.0459C12.75 15.0309 12.75 15.0194 12.75 15.0117C12.75 15.0078 12.75 15.0049 12.75 15.0029C12.75 15.002 12.75 15.0012 12.75 15.0007C12.75 15.0005 12.75 15.0003 12.75 15.0002C12.75 15.0001 12.75 15.0001 12.75 15C12.75 15 12.75 15 12 15C11.25 15 11.25 15 11.25 15C11.25 15.0001 11.25 15.0001 11.25 15.0002C11.25 15.0003 11.25 15.0005 11.25 15.0007C11.25 15.0012 11.25 15.002 11.25 15.0029C11.25 15.0049 11.25 15.0078 11.25 15.0117C11.25 15.0194 11.25 15.0309 11.25 15.0459C11.25 15.0761 11.25 15.1205 11.25 15.1777C11.25 15.2922 11.25 15.4579 11.25 15.6629C11.25 16.0729 11.25 16.6398 11.25 17.2678C11.25 18.5237 11.25 20.0237 11.25 21H12.75Z" fill="#546579"/>
<path d="M18.5303 8.46967C18.2375 8.17678 17.7626 8.17678 17.4697 8.46967C17.1768 8.76256 17.1768 9.23744 17.4697 9.53033L18.5303 8.46967ZM21 12L21.5303 12.5303C21.8232 12.2374 21.8232 11.7626 21.5303 11.4697L21 12ZM17.4697 14.4697C17.1768 14.7626 17.1768 15.2374 17.4697 15.5303C17.7626 15.8232 18.2375 15.8232 18.5303 15.5303L17.4697 14.4697ZM15 11.25C14.5858 11.25 14.25 11.5858 14.25 12C14.25 12.4142 14.5858 12.75 15 12.75L15 11.25ZM17.4697 9.53033L20.4697 12.5303L21.5303 11.4697L18.5303 8.46967L17.4697 9.53033ZM20.4697 11.4697L17.4697 14.4697L18.5303 15.5303L21.5303 12.5303L20.4697 11.4697ZM21 11.25L15 11.25L15 12.75L21 12.75V11.25Z" fill="#546579"/>
<path d="M5.46968 15.5303C5.76258 15.8232 6.23745 15.8232 6.53034 15.5303C6.82324 15.2374 6.82324 14.7626 6.53034 14.4697L5.46968 15.5303ZM3.00002 12L2.46969 11.4697C2.17679 11.7626 2.17679 12.2374 2.46969 12.5303L3.00002 12ZM6.53035 9.53033C6.82324 9.23744 6.82324 8.76256 6.53035 8.46967C6.23745 8.17678 5.76258 8.17678 5.46969 8.46967L6.53035 9.53033ZM9.00002 12.75C9.41423 12.75 9.75002 12.4142 9.75002 12C9.75002 11.5858 9.41423 11.25 9.00002 11.25V12.75ZM6.53034 14.4697L3.53035 11.4697L2.46969 12.5303L5.46968 15.5303L6.53034 14.4697ZM3.53035 12.5303L6.53035 9.53033L5.46969 8.46967L2.46969 11.4697L3.53035 12.5303ZM3.00002 12.75L9.00002 12.75V11.25L3.00002 11.25L3.00002 12.75Z" fill="#546579"/>
</svg>
