<svg width="25" height="24" viewBox="0 0 25 24" fill="none" xmlns="http://www.w3.org/2000/svg">
<path d="M18.0858 10H12.5005C9.73049 10 8.10638 11.3649 7.64697 13.5346C7.24531 15.4316 7.90531 17.488 9.00615 18.1394C9.48144 18.4207 9.63873 19.034 9.35747 19.5093C9.0762 19.9846 8.46288 20.1419 7.98758 19.8606C6.0672 18.7242 5.12523 15.7893 5.69035 13.1203C6.34249 10.0404 8.77037 8 12.5005 8H18.0858L14.7929 4.70711C14.4024 4.31658 14.4024 3.68342 14.7929 3.29289C15.1834 2.90237 15.8166 2.90237 16.2071 3.29289L21.1885 8.27425C21.3807 8.45649 21.5005 8.71425 21.5005 9C21.5005 9.28575 21.3807 9.54351 21.1885 9.72575L16.2071 14.7071C15.8166 15.0976 15.1834 15.0976 14.7929 14.7071C14.4024 14.3166 14.4024 13.6834 14.7929 13.2929L18.0858 10Z" fill="#252F3D"/>
</svg>
