<svg width="24" height="24" viewBox="0 0 24 24" fill="none" xmlns="http://www.w3.org/2000/svg">
<path d="M5.75 4C5.75 3.58579 5.41421 3.25 5 3.25C4.58579 3.25 4.25 3.58579 4.25 4H5.75ZM5 9.57631H4.25C4.25 9.77523 4.32902 9.96599 4.46967 10.1066C4.61032 10.2473 4.80109 10.3263 5 10.3263L5 9.57631ZM10.5763 10.3263C10.9905 10.3263 11.3263 9.99049 11.3263 9.57628C11.3263 9.16207 10.9905 8.82628 10.5763 8.82628L10.5763 10.3263ZM16.5011 7.65946L17.0315 7.12913L16.5011 7.65946ZM16.5011 17.8827L15.9708 17.3524L16.5011 17.8827ZM6.80824 17.3524C6.51534 17.0595 6.04047 17.0595 5.74758 17.3524C5.45468 17.6453 5.45468 18.1201 5.74757 18.413L6.80824 17.3524ZM6.27791 7.65946L5.74757 7.12913V7.12913L6.27791 7.65946ZM4.25 4V9.57631H5.75V4H4.25ZM10.5763 8.82628L5 8.82631L5 10.3263L10.5763 10.3263L10.5763 8.82628ZM15.9708 8.18979C18.501 10.72 18.501 14.8222 15.9708 17.3524L17.0315 18.413C20.1474 15.2971 20.1474 10.2451 17.0315 7.12913L15.9708 8.18979ZM15.9708 17.3524C13.4406 19.8825 9.33841 19.8825 6.80824 17.3524L5.74757 18.413C8.86354 21.529 13.9155 21.529 17.0315 18.413L15.9708 17.3524ZM6.80824 8.18979C9.33841 5.65961 13.4406 5.65961 15.9708 8.18979L17.0315 7.12913C13.9155 4.01316 8.86354 4.01316 5.74758 7.12913L6.80824 8.18979ZM5.74757 7.12913C5.03778 7.83892 4.6435 8.58566 4.32382 9.25184L5.67618 9.90078C5.97497 9.27813 6.28127 8.71675 6.80824 8.18979L5.74757 7.12913Z" fill="#546579"/>
</svg>
