<svg width="24" height="24" viewBox="0 0 24 24" fill="none" xmlns="http://www.w3.org/2000/svg">
<path d="M5.56861 11.7794C5.1544 11.7794 4.81861 12.1152 4.81861 12.5294C4.81861 12.9436 5.1544 13.2794 5.56861 13.2794V11.7794ZM9.96078 13.2794C10.375 13.2794 10.7108 12.9436 10.7108 12.5294C10.7108 12.1152 10.375 11.7794 9.96078 11.7794V13.2794ZM3.28847 16.9981C3.15749 17.3911 3.36986 17.8158 3.76281 17.9468C4.15577 18.0778 4.58051 17.8654 4.7115 17.4725L3.28847 16.9981ZM7.76469 5.94116L8.4762 5.70399C8.37412 5.39773 8.08751 5.19116 7.76469 5.19116C7.44187 5.19116 7.15526 5.39773 7.05318 5.70399L7.76469 5.94116ZM10.8179 17.4725C10.9489 17.8654 11.3736 18.0778 11.7666 17.9468C12.1595 17.8158 12.3719 17.3911 12.2409 16.9981L10.8179 17.4725ZM5.56861 13.2794H9.96078V11.7794H5.56861V13.2794ZM4.7115 17.4725L8.4762 6.17833L7.05318 5.70399L3.28847 16.9981L4.7115 17.4725ZM7.05318 6.17833L10.8179 17.4725L12.2409 16.9981L8.4762 5.70399L7.05318 6.17833Z" fill="#6D7B8C"/>
<path d="M16.2353 11.6383H18.1176M20 5H19.5294C18.2299 5 17.1765 6.05345 17.1765 7.35294M20 18.1765H19.5294C18.2299 18.1765 17.1765 17.123 17.1765 15.8235M17.1765 15.8235V7.35294M17.1765 15.8235C17.1765 17.123 16.123 18.1765 14.8235 18.1765H14.3529M17.1765 7.35294C17.1765 6.05345 16.123 5 14.8235 5H14.3529" stroke="#6D7B8C" stroke-width="1.5" stroke-linecap="round"/>
</svg>
