<svg width="24" height="24" viewBox="0 0 24 24" fill="none" xmlns="http://www.w3.org/2000/svg">
<path d="M4.188 16.9512L4.83491 17.3307L4.188 16.9512ZM19.812 16.9512L20.4589 16.5717L19.812 16.9512ZM13.2018 5.68293L12.5549 6.06241L13.2018 5.68293ZM10.7982 5.68293L10.1512 5.30344L10.7982 5.68293ZM12.75 15.886C12.75 15.4718 12.4142 15.136 12 15.136C11.5858 15.136 11.25 15.4718 11.25 15.886H12.75ZM11.25 16.0004C11.25 16.4146 11.5858 16.7504 12 16.7504C12.4142 16.7504 12.75 16.4146 12.75 16.0004H11.25ZM12.75 9.33348C12.75 8.91926 12.4142 8.58348 12 8.58348C11.5858 8.58348 11.25 8.91926 11.25 9.33348H12.75ZM11.25 13.7779C11.25 14.1921 11.5858 14.5279 12 14.5279C12.4142 14.5279 12.75 14.1921 12.75 13.7779H11.25ZM12.5549 6.06241L19.1651 17.3307L20.4589 16.5717L13.8488 5.30344L12.5549 6.06241ZM18.6102 18.25H5.38984V19.75H18.6102V18.25ZM4.83491 17.3307L11.4451 6.06241L10.1512 5.30344L3.54109 16.5717L4.83491 17.3307ZM5.38984 18.25C4.88024 18.25 4.60459 17.7233 4.83491 17.3307L3.54109 16.5717C2.7031 18.0002 3.76282 19.75 5.38984 19.75V18.25ZM19.1651 17.3307C19.3954 17.7233 19.1198 18.25 18.6102 18.25V19.75C20.2372 19.75 21.2969 18.0002 20.4589 16.5717L19.1651 17.3307ZM13.8488 5.30344C13.0248 3.89885 10.9752 3.89885 10.1512 5.30344L11.4451 6.06241C11.6894 5.64586 12.3106 5.64586 12.5549 6.06241L13.8488 5.30344ZM11.25 15.886V16.0004H12.75V15.886H11.25ZM11.25 9.33348V13.7779H12.75V9.33348H11.25Z" fill="#546579"/>
</svg>
