<svg width="24" height="24" viewBox="0 0 24 24" fill="none" xmlns="http://www.w3.org/2000/svg">
<path d="M12 3.25C11.5858 3.25 11.25 3.58579 11.25 4C11.25 4.41421 11.5858 4.75 12 4.75V3.25ZM5.07026 8L5.71946 8.37554L5.07026 8ZM7.16685 6.5959C7.4755 6.31966 7.50176 5.84551 7.22552 5.53686C6.94927 5.22822 6.47513 5.20195 6.16648 5.4782L7.16685 6.5959ZM4 4.70455C3.58579 4.70455 3.25 5.04033 3.25 5.45455C3.25 5.86876 3.58579 6.20455 4 6.20455V4.70455ZM7.63636 5.45455H8.38636C8.38636 5.04033 8.05058 4.70455 7.63636 4.70455V5.45455ZM6.88636 9.09091C6.88636 9.50512 7.22215 9.84091 7.63636 9.84091C8.05058 9.84091 8.38636 9.50512 8.38636 9.09091H6.88636ZM19.25 12C19.25 16.0041 16.0041 19.25 12 19.25V20.75C16.8325 20.75 20.75 16.8325 20.75 12H19.25ZM12 19.25C7.99594 19.25 4.75 16.0041 4.75 12H3.25C3.25 16.8325 7.16751 20.75 12 20.75V19.25ZM12 4.75C16.0041 4.75 19.25 7.99594 19.25 12H20.75C20.75 7.16751 16.8325 3.25 12 3.25V4.75ZM4.75 12C4.75 10.6782 5.10304 9.44116 5.71946 8.37554L4.42105 7.62446C3.67612 8.91223 3.25 10.4075 3.25 12H4.75ZM5.71946 8.37554C6.10562 7.70799 6.59538 7.10738 7.16685 6.5959L6.16648 5.4782C5.47773 6.09464 4.88711 6.81878 4.42105 7.62446L5.71946 8.37554ZM4 6.20455H7.63636V4.70455H4V6.20455ZM6.88636 5.45455V9.09091H8.38636V5.45455H6.88636Z" fill="#546579"/>
<path d="M11.8721 7.63623L11.8737 12.6008H15.635" stroke="#546579" stroke-width="1.5" stroke-linecap="round" stroke-linejoin="round"/>
</svg>
