<svg width="32" height="32" viewBox="0 0 32 32" fill="none" xmlns="http://www.w3.org/2000/svg">
<path d="M8.63575 25.5H23.288C24.9028 25.5 26.2119 24.1909 26.2119 22.5761V11.9229C26.2119 11.1475 25.9038 10.4038 25.3555 9.85546L21.3564 5.85638C20.8081 5.30805 20.0644 5 19.289 5H8.63575C7.02095 5 5.71189 6.30906 5.71189 7.92386V22.5761C5.71189 24.1909 7.02095 25.5 8.63575 25.5Z" stroke="#6D7B8C" stroke-width="1.5"/>
<path d="M22.4061 26.1078V17.7127C22.4061 16.9119 21.7569 16.2627 20.9561 16.2627H11.0575C10.2567 16.2627 9.60754 16.9119 9.60754 17.7127V26.1078" stroke="#6D7B8C" stroke-width="1.5"/>
<path d="M10.1195 5.00024L10.1195 9.69355C10.1195 10.4944 10.7687 11.1436 11.5695 11.1436L17.8845 11.1436C18.6853 11.1436 19.3345 10.4944 19.3345 9.69355L19.3345 5.00024" stroke="#6D7B8C" stroke-width="1.5"/>
<path d="M16.2628 11.1436L16.2628 5.00024" stroke="#6D7B8C" stroke-width="1.5"/>
</svg>
