<svg width="24" height="24" viewBox="0 0 24 24" fill="none" xmlns="http://www.w3.org/2000/svg">
<path d="M18.0761 20.25H5.92386C4.72327 20.25 3.75 19.2767 3.75 18.0761V5.92386C3.75 4.72327 4.72327 3.75 5.92386 3.75H14.7736C15.3502 3.75 15.9031 3.97903 16.3108 4.38671L19.6133 7.68922C20.021 8.0969 20.25 8.64983 20.25 9.22637V18.0761C20.25 19.2767 19.2767 20.25 18.0761 20.25Z" stroke="#546579" stroke-width="1.5"/>
<path d="M17.2413 20.2701V13.6651C17.2413 12.8643 16.5921 12.2151 15.7913 12.2151H8.21976C7.41895 12.2151 6.76976 12.8643 6.76976 13.6651V20.2701" stroke="#546579" stroke-width="1.5"/>
<path d="M7.18861 3.00002L7.18861 6.57637C7.18861 7.37718 7.8378 8.02637 8.63861 8.02637L13.2781 8.02637C14.0789 8.02637 14.7281 7.37718 14.7281 6.57637L14.7281 3.00002" stroke="#546579" stroke-width="1.5"/>
<path d="M12.215 8.02637L12.215 3.00002" stroke="#546579" stroke-width="1.5"/>
</svg>
