<svg width="32" height="32" viewBox="0 0 32 32" fill="none" xmlns="http://www.w3.org/2000/svg">
<path opacity="0.15" d="M25.2518 29H10.7482C9.23043 29 8 27.211 8 25.0042V6.99579C8 4.78898 9.23043 3 10.7482 3H14.8192C14.9697 3 15.1112 3.10474 15.1998 3.28178L17.1123 7.10526H26.5882C27.3679 7.10526 28 8.02426 28 9.15789V13.2632V13.9474V25.0042C28 27.211 26.7696 29 25.2518 29Z" fill="#2B63D9"/>
<path d="M14.5662 5.22966L24 5.22966C25.1046 5.22966 26 6.12509 26 7.22966L26 26C26 27.1046 25.1046 28 24 28L8 28C6.89543 28 6 27.1046 6 26L6 5C6 3.89543 6.89543 3 8 3L12.4444 3C13.3594 3 14.1577 3.62093 14.3829 4.50777L15.0908 7.2958C15.316 8.18264 16.1143 8.80357 17.0293 8.80357L25 8.80357" stroke="#2B63D9" stroke-width="1.5" stroke-linecap="round" stroke-linejoin="round"/>
<path opacity="0.7" d="M23.2518 28H8.74824C7.23043 28 6 26.2798 6 24.1579V6.8421C6 4.72017 7.23043 3 8.74824 3H12.8192C12.9697 3 13.1112 3.10071 13.1998 3.27094L15.1123 7.90891L24.5882 8.87045C25.3679 8.87045 26 8.79255 26 9.88259V12.8684V13.5263V24.1579C26 26.2798 24.7696 28 23.2518 28Z" fill="#2B63D9"/>
</svg>
