<svg width="32" height="32" viewBox="0 0 32 32" fill="none" xmlns="http://www.w3.org/2000/svg">
<path opacity="0.15" d="M28 19.2899C27.3663 19.1013 26.695 19 26 19C22.134 19 19 22.134 19 26C19 27.0736 19.2417 28.0907 19.6736 29H10.7482C9.23043 29 8 27.211 8 25.0042V6.99579C8 4.78898 9.23043 3 10.7482 3H14.8192C14.9697 3 15.1112 3.10474 15.1998 3.28178L17.1123 7.10526H26.5882C27.3679 7.10526 28 8.02426 28 9.15789V19.2899Z" fill="#82A3E6"/>
<path fill-rule="evenodd" clip-rule="evenodd" d="M19.1113 27.25H8C7.30964 27.25 6.75 26.6904 6.75 26V5C6.75 4.30964 7.30964 3.75 8 3.75L12.4444 3.75C13.0162 3.75 13.5152 4.13808 13.6559 4.69235L13.8353 5.39892C13.8378 5.40958 13.8405 5.42015 13.8434 5.43063L14.3639 7.48039C14.6735 8.69979 15.7712 9.55357 17.0293 9.55357L25 9.55357C25.0877 9.55357 25.1718 9.53853 25.25 9.51089V19.0397C25.4964 19.0135 25.7466 19 26 19C26.2534 19 26.5036 19.0135 26.75 19.0397V7.22966C26.75 5.71087 25.5188 4.47966 24 4.47966L15.1495 4.47966L15.1098 4.32318C14.8002 3.10378 13.7025 2.25 12.4444 2.25H8C6.48122 2.25 5.25 3.48122 5.25 5V26C5.25 27.5188 6.48122 28.75 8 28.75H19.5608C19.3576 28.2747 19.2055 27.7724 19.1113 27.25ZM15.8178 7.11121L15.5304 5.97966L24 5.97966C24.6904 5.97966 25.25 6.5393 25.25 7.22966V8.09625C25.1718 8.06861 25.0877 8.05357 25 8.05357L17.0293 8.05357C16.4574 8.05357 15.9585 7.66549 15.8178 7.11121Z" fill="#82A3E6"/>
<path opacity="0.7" d="M26 19C22.134 19 19 22.134 19 26C19 26.695 19.1013 27.3663 19.2899 28H8.74824C7.23043 28 6 26.2798 6 24.1579V6.8421C6 4.72017 7.23043 3 8.74824 3H12.8192C12.9697 3 13.1112 3.10071 13.1998 3.27094L15.1123 7.90891L24.5882 8.87045C24.6377 8.87045 24.6866 8.87013 24.7347 8.86982C25.4456 8.86526 26 8.86171 26 9.88259V13.5263V19Z" fill="#82A3E6"/>
<path fill-rule="evenodd" clip-rule="evenodd" d="M31 26C31 28.7614 28.7614 31 26 31C23.2386 31 21 28.7614 21 26C21 23.2386 23.2386 21 26 21C28.7614 21 31 23.2386 31 26ZM29.0682 24.4896C29.3386 24.1758 29.3034 23.7022 28.9896 23.4318C28.6758 23.1614 28.2022 23.1966 27.9318 23.5104L25.0035 26.9091L24.0209 25.9604C23.723 25.6727 23.2482 25.6811 22.9604 25.9791C22.6727 26.277 22.6811 26.7518 22.9791 27.0396L24.5326 28.5396C24.681 28.6828 24.8819 28.7587 25.088 28.7492C25.294 28.7398 25.4871 28.6458 25.6218 28.4896L29.0682 24.4896Z" fill="#2B63D9"/>
</svg>
