<svg width="24" height="24" viewBox="0 0 24 24" fill="none" xmlns="http://www.w3.org/2000/svg">
<g opacity="0.15">
<path d="M7.76296 6.77473C6.52997 6.77473 5.52592 7.79474 5.52592 9.04906C5.52592 10.3034 6.52921 11.3226 7.76296 11.3226C8.99672 11.3226 10 10.3026 10 9.04828C10 7.79396 8.99596 6.77473 7.76296 6.77473Z" fill="#2B63D9"/>
<path d="M10.5103 13.6919C9.89799 13.1838 9.08639 12.9039 8.22459 12.9039H7.23043C6.36863 12.9039 5.55703 13.1838 4.94471 13.6919C4.33544 14.1976 4 14.865 4 15.571C4 15.6832 4.11105 15.7744 4.24873 15.7744H11.2071C11.344 15.7744 11.4558 15.6832 11.4558 15.571C11.4558 14.865 11.1196 14.1976 10.5103 13.6919Z" fill="#2B63D9"/>
<path d="M18 6.77441C16.767 6.77441 15.763 7.79442 15.763 9.04874C15.763 10.3031 16.7662 11.3223 18 11.3223C19.2338 11.3223 20.237 10.3023 20.237 9.04797C20.237 7.79365 19.233 6.77441 18 6.77441Z" fill="#2B63D9"/>
<path d="M20.9083 13.6916C20.2959 13.1835 19.4843 12.9036 18.6225 12.9036H17.6284C16.7666 12.9036 15.955 13.1835 15.3427 13.6916C14.7334 14.1973 14.3979 14.8647 14.3979 15.5707C14.3979 15.6829 14.509 15.7741 14.6467 15.7741H21.605C21.7419 15.7741 21.8537 15.6829 21.8537 15.5707C21.8537 14.8647 21.5175 14.1973 20.9083 13.6916Z" fill="#2B63D9"/>
</g>
<path d="M10.4558 15.439C10.4558 14.5605 10.1203 13.73 9.51107 13.1013C9.11272 12.6903 8.63004 12.3991 8.10406 12.2457C7.82153 12.1633 7.5265 12.1207 7.22535 12.1207H6.23043C5.94206 12.1207 5.65932 12.1597 5.38777 12.2353C4.8478 12.3855 4.35214 12.6804 3.94471 13.1013C3.33544 13.73 3 14.5605 3 15.439C3 16.2741 4.2 16.2741 4.2 15.439C4.2 14.8708 4.41515 14.3402 4.80645 13.9364C5.19801 13.5319 5.70121 13.3207 6.23043 13.3207H7.22535C7.75393 13.3207 8.25711 13.5317 8.64933 13.9364C9.04061 14.3402 9.25578 14.8708 9.25578 15.439C9.25578 16.2741 10.4558 16.2741 10.4558 15.439Z" fill="#2B63D9"/>
<path fill-rule="evenodd" clip-rule="evenodd" d="M4.521 9.04854C4.521 9.85741 4.93822 10.5685 5.56542 10.9716C5.76759 11.1015 5.99157 11.1994 6.23043 11.2583C6.39966 11.3 6.57635 11.3221 6.75803 11.3221C6.91826 11.3221 7.07459 11.3049 7.22535 11.2722C7.4819 11.2166 7.7223 11.1161 7.9382 10.9793C8.57232 10.5775 8.99507 9.86198 8.99507 9.04776C8.99507 7.79345 7.99103 6.77422 6.75803 6.77422C5.52504 6.77422 4.521 7.79422 4.521 9.04854ZM6.75803 7.97422C6.20614 7.97422 5.721 8.43846 5.721 9.04854C5.721 9.65835 6.20511 10.1221 6.75803 10.1221C7.31043 10.1221 7.79507 9.65811 7.79507 9.04776C7.79507 8.43822 7.31046 7.97422 6.75803 7.97422Z" fill="#2B63D9"/>
<path fill-rule="evenodd" clip-rule="evenodd" d="M20.8537 15.4387C20.8537 14.5603 20.5183 13.7297 19.909 13.101C19.5107 12.69 19.0281 12.3988 18.5022 12.2454C18.2196 12.163 17.9245 12.1204 17.6233 12.1204H16.6284C16.3399 12.1204 16.057 12.1594 15.7854 12.235C15.2455 12.3853 14.75 12.6802 14.3427 13.101C13.7334 13.7297 13.3979 14.5603 13.3979 15.4387C13.3979 16.2741 14.5979 16.2741 14.5979 15.4387C14.5979 14.8705 14.8131 14.3399 15.2044 13.9361C15.596 13.5316 16.0992 13.3204 16.6284 13.3204H17.6233C18.1519 13.3204 18.6551 13.5314 19.0473 13.9361C19.4386 14.3399 19.6537 14.8705 19.6537 15.4387C19.6537 16.2741 20.8537 16.3172 20.8537 15.4387ZM15.963 10.9713C16.1653 11.1013 16.3894 11.1993 16.6284 11.2582C16.7976 11.2999 16.9742 11.3219 17.1558 11.3219C17.3161 11.3219 17.4725 11.3047 17.6233 11.272C17.8799 11.2164 18.1203 11.1159 18.3362 10.979C18.9702 10.5771 19.3929 9.86173 19.3929 9.04762C19.3929 7.7933 18.3888 6.77407 17.1558 6.77407C15.9228 6.77407 14.9188 7.79407 14.9188 9.0484C14.9188 9.85719 15.3359 10.5682 15.963 10.9713ZM17.1558 7.97407C16.6039 7.97407 16.1188 8.4383 16.1188 9.0484C16.1188 9.65822 16.6029 10.1219 17.1558 10.1219C17.7082 10.1219 18.1929 9.65798 18.1929 9.04762C18.1929 8.43807 17.7082 7.97407 17.1558 7.97407Z" fill="#2B63D9"/>
<path fill-rule="evenodd" clip-rule="evenodd" d="M9.37456 2.42001C9.69464 2.50577 9.88459 2.83477 9.79883 3.15485L9.59749 3.90627C11.9706 2.45926 14.5813 2.76764 16.1868 4.37316C16.4212 4.60747 16.4212 4.98737 16.1868 5.22169C15.9525 5.456 15.5726 5.456 15.3383 5.22169C14.1095 3.99284 11.8914 3.67933 9.79881 5.21191L11.2039 5.58826C11.524 5.67399 11.714 6.00298 11.6283 6.32307C11.5425 6.64315 11.2136 6.83314 10.8935 6.7474L8.39445 6.07806C8.24073 6.03689 8.10966 5.93633 8.03009 5.79851C7.95051 5.6607 7.92894 5.49691 7.97013 5.3432L8.63972 2.84427C8.72548 2.52419 9.05448 2.33424 9.37456 2.42001ZM12.7592 17.2251C12.8449 16.905 13.1739 16.715 13.494 16.8007L15.993 17.4701C16.1467 17.5112 16.2778 17.6118 16.3574 17.7496C16.4369 17.8874 16.4585 18.0512 16.4173 18.2049L15.7477 20.7039C15.662 21.0239 15.333 21.2139 15.0129 21.1281C14.6928 21.0424 14.5029 20.7134 14.5886 20.3933L14.79 19.6418C12.4168 21.0888 9.80612 20.7805 8.20059 19.175C7.96627 18.9406 7.96627 18.5607 8.20059 18.3264C8.4349 18.0921 8.8148 18.0921 9.04912 18.3264C10.2779 19.5553 12.496 19.8687 14.5886 18.3362L13.1835 17.9599C12.8634 17.8741 12.6734 17.5452 12.7592 17.2251Z" fill="#2B63D9"/>
</svg>
