<svg width="24" height="24" viewBox="0 0 24 24" fill="none" xmlns="http://www.w3.org/2000/svg">
<path d="M4.00006 6.55722C3.58584 6.55719 3.25003 6.89295 3.25 7.30716C3.24997 7.72138 3.58573 8.05719 3.99994 8.05722L4.00006 6.55722ZM20 8.05707C20.4142 8.05707 20.75 7.72128 20.75 7.30707C20.75 6.89286 20.4142 6.55707 20 6.55707V8.05707ZM14.8591 4.24992C13.1731 4.24992 11.8016 5.62074 11.8016 7.30785H13.3016C13.3016 6.44926 14.0014 5.74992 14.8591 5.74992V4.24992ZM11.8016 7.30785C11.8016 8.99513 13.1725 10.365 14.8591 10.365V8.865C14.0005 8.865 13.3016 8.16628 13.3016 7.30785H11.8016ZM14.8591 10.365C16.5461 10.365 17.9166 8.99402 17.9166 7.30707H16.4166C16.4166 8.16583 15.7174 8.865 14.8591 8.865V10.365ZM17.9166 7.30707C17.9166 5.61962 16.5448 4.24992 14.8591 4.24992V5.74992C15.7171 5.74992 16.4166 6.4488 16.4166 7.30707H17.9166ZM3.99994 8.05722L12.5515 8.05785L12.5516 6.55785L4.00006 6.55722L3.99994 8.05722ZM17.1666 8.05707H20V6.55707H17.1666V8.05707Z" fill="#546579"/>
<path d="M19.9979 16.781C20.4121 16.7809 20.7478 16.4451 20.7478 16.0309C20.7477 15.6167 20.4119 15.2809 19.9977 15.281L19.9979 16.781ZM4 15.2811C3.58579 15.2811 3.25 15.6169 3.25 16.0311C3.25 16.4453 3.58579 16.7811 4 16.7811V15.2811ZM9.17115 14.4739C10.0288 14.4739 10.7287 15.1733 10.7287 16.0319H12.2287C12.2287 14.3447 10.8572 12.9739 9.17115 12.9739V14.4739ZM10.7287 16.0319C10.7287 16.8903 10.0298 17.589 9.17115 17.589V19.089C10.8578 19.089 12.2287 17.7191 12.2287 16.0319H10.7287ZM9.17115 17.589C8.31284 17.589 7.6136 16.8898 7.6136 16.0311H6.1136C6.1136 17.718 7.48417 19.089 9.17115 19.089V17.589ZM7.6136 16.0311C7.6136 15.1728 8.31313 14.4739 9.17115 14.4739V12.9739C7.48545 12.9739 6.1136 14.3436 6.1136 16.0311H7.6136ZM19.9977 15.281L11.4786 15.2819L11.4788 16.7819L19.9979 16.781L19.9977 15.281ZM6.8636 15.2811H4V16.7811H6.8636V15.2811Z" fill="#546579"/>
</svg>
