<svg width="32" height="32" viewBox="0 0 32 32" fill="none" xmlns="http://www.w3.org/2000/svg">
<path opacity="0.15" d="M16.3186 5.40685C17.0064 4.01326 18.9936 4.01326 19.6814 5.40685L21.9721 10.0484C22.2453 10.6018 22.7732 10.9854 23.3839 11.0741L28.5062 11.8184C30.0441 12.0419 30.6582 13.9319 29.5453 15.0166L25.8388 18.6296C25.3969 19.0603 25.1952 19.6809 25.2996 20.2892L26.1745 25.3908C26.4373 26.9225 24.8296 28.0905 23.454 27.3673L18.8725 24.9587C18.3263 24.6715 17.6737 24.6715 17.1275 24.9587L12.546 27.3673C11.1704 28.0905 9.56274 26.9225 9.82545 25.3908L10.7004 20.2892C10.8048 19.6809 10.6031 19.0603 10.1612 18.6296L6.45468 15.0166C5.34184 13.9319 5.95592 12.0419 7.49383 11.8184L12.6161 11.0741C13.2268 10.9854 13.7548 10.6018 14.0279 10.0484L16.3186 5.40685Z" fill="#2B63D9"/>
<path d="M14.0784 4.89354C14.8645 3.30087 17.1355 3.30087 17.9216 4.89354L19.9098 8.92214C20.2219 9.55459 20.8253 9.99295 21.5232 10.0944L25.9691 10.7404C27.7267 10.9958 28.4285 13.1557 27.1567 14.3954L23.9396 17.5313C23.4346 18.0236 23.2041 18.7329 23.3234 19.428L24.0828 23.8558C24.383 25.6063 22.5457 26.9413 20.9736 26.1148L16.9972 24.0242C16.3729 23.696 15.6271 23.696 15.0028 24.0242L11.0264 26.1148C9.45432 26.9413 7.61696 25.6064 7.9172 23.8558L8.67664 19.428C8.79586 18.7329 8.5654 18.0236 8.06036 17.5313L4.84333 14.3954C3.57151 13.1557 4.27331 10.9958 6.03093 10.7404L10.4767 10.0944C11.1747 9.99295 11.7781 9.55459 12.0902 8.92214L14.0784 4.89354Z" stroke="#2B63D9" stroke-width="1.60714" stroke-linejoin="round"/>
</svg>
