<svg width="24" height="24" viewBox="0 0 24 24" fill="none" xmlns="http://www.w3.org/2000/svg">
<path d="M4.37087 15.3933L4.88087 15.9432L4.88118 15.9429L4.37087 15.3933ZM2.25 18.4421C2.25 18.8563 2.58579 19.1921 3 19.1921C3.41421 19.1921 3.75 18.8563 3.75 18.4421H2.25ZM11.4728 15.5725C11.8152 15.8056 12.2818 15.7169 12.5148 15.3745C12.7479 15.0321 12.6593 14.5655 12.3168 14.3325L11.4728 15.5725ZM20.0592 18.4421C20.0592 18.8563 20.395 19.1921 20.8092 19.1921C21.2235 19.1921 21.5592 18.8563 21.5592 18.4421H20.0592ZM19.4384 15.3933L19.9484 14.8434L19.9484 14.8434L19.4384 15.3933ZM11.3611 15.3933L11.871 15.9432L11.8714 15.943L11.3611 15.3933ZM9.24018 18.4421C9.24018 18.8563 9.57597 19.1921 9.99018 19.1921C10.4044 19.1921 10.7402 18.8563 10.7402 18.4421H9.24018ZM9.13139 13.3644H7.68767V14.8644H9.13139V13.3644ZM7.68767 13.3644C6.25455 13.3644 4.89266 13.8853 3.86056 14.8436L4.88118 15.9429C5.62614 15.2512 6.61968 14.8644 7.68767 14.8644V13.3644ZM3.86087 14.8433C2.83262 15.797 2.25 17.0758 2.25 18.4421H3.75C3.75 17.5169 4.14089 16.6294 4.88087 15.9432L3.86087 14.8433ZM12.3168 14.3325C11.3904 13.7019 10.284 13.3644 9.13139 13.3644V14.8644C9.99033 14.8644 10.8013 15.1154 11.4728 15.5725L12.3168 14.3325ZM8.27845 6.1709C6.51188 6.1709 5.09567 7.6275 5.09567 9.39421H6.59567C6.59567 8.4328 7.36325 7.6709 8.27845 7.6709V6.1709ZM5.09567 9.39421C5.09567 11.1611 6.51122 12.6167 8.27845 12.6167V11.1167C7.36226 11.1167 6.59567 10.3555 6.59567 9.39421H5.09567ZM8.27845 12.6167C10.046 12.6167 11.4612 11.1599 11.4612 9.39337H9.96122C9.96122 10.355 9.19431 11.1167 8.27845 11.1167V12.6167ZM11.4612 9.39337C11.4612 7.62633 10.0447 6.1709 8.27845 6.1709V7.6709C9.19397 7.6709 9.96122 8.43229 9.96122 9.39337H11.4612ZM21.5592 18.4421C21.5592 17.0759 20.9766 15.797 19.9484 14.8434L18.9284 15.9432C19.6684 16.6295 20.0592 17.517 20.0592 18.4421H21.5592ZM19.9484 14.8434C18.9167 13.8867 17.5551 13.3645 16.1216 13.3645V14.8645C17.1892 14.8645 18.183 15.252 18.9284 15.9433L19.9484 14.8434ZM16.1216 13.3645H14.6779V14.8645H16.1216V13.3645ZM14.6779 13.3645C13.2447 13.3645 11.8828 13.8854 10.8507 14.8437L11.8714 15.943C12.6163 15.2513 13.6099 14.8645 14.6779 14.8645V13.3645ZM10.8511 14.8434C9.8228 15.797 9.24018 17.0759 9.24018 18.4421H10.7402C10.7402 17.517 11.1311 16.6295 11.871 15.9432L10.8511 14.8434ZM15.186 6.17096C13.4194 6.17096 12.0032 7.62757 12.0032 9.39428H13.5032C13.5032 8.43286 14.2708 7.67096 15.186 7.67096V6.17096ZM12.0032 9.39428C12.0032 11.1612 13.4188 12.6168 15.186 12.6168V11.1168C14.2698 11.1168 13.5032 10.3555 13.5032 9.39428H12.0032ZM15.186 12.6168C16.9535 12.6168 18.3688 11.16 18.3688 9.39344H16.8688C16.8688 10.355 16.1018 11.1168 15.186 11.1168V12.6168ZM18.3688 9.39344C18.3688 7.62639 16.9522 6.17096 15.186 6.17096V7.67096C16.1015 7.67096 16.8688 8.43235 16.8688 9.39344H18.3688Z" fill="#546579"/>
<path d="M3.70319 6H21" stroke="#546579" stroke-width="1.5" stroke-linecap="round" stroke-linejoin="round"/>
<path d="M19.919 6V8.70262M19.919 8.70262L19.2394 10.4015C19.0471 10.8823 19.4012 11.4052 19.919 11.4052V11.4052C20.4368 11.4052 20.7908 10.8823 20.5985 10.4015L19.919 8.70262Z" stroke="#546579"/>
</svg>
