<svg width="25" height="24" viewBox="0 0 25 24" fill="none" xmlns="http://www.w3.org/2000/svg">
<path d="M15 17H19.9348C20.7992 17 21.5 16.224 21.5 15.2667V5.73333C21.5 4.77604 20.7992 4 19.9348 4H5.06522C4.20077 4 3.5 4.77604 3.5 5.73333V15.2667C3.5 16.224 4.20077 17 5.06522 17H7.1" stroke="#232F3E" stroke-width="1.75"/>
<path d="M8.37502 10.5006C8.37502 9.05327 9.55411 7.875 11 7.875C12.4463 7.875 13.625 9.05247 13.625 10.4994C13.625 11.9469 12.4469 13.125 11 13.125C9.55272 13.125 8.37502 11.9477 8.37502 10.5006Z" stroke="#232F3E" stroke-width="1.75"/>
<path d="M16.9431 13.4486L19.1492 11.4584" stroke="#232F3E" stroke-width="1.75" stroke-linecap="round"/>
<path d="M5.50002 21C5.50002 19.5656 5.98098 18.2096 6.85458 17.1831C7.73254 16.1502 8.89624 15.582 10.1319 15.582H11.5585C12.5872 15.582 14.2217 14.2526 14.2217 14.2526L14.7474 13.8176C15.3014 13.3591 16.1174 13.4138 16.6053 13.9422V13.9422C17.1032 14.4814 17.0808 15.3192 16.5548 15.831L14.0524 18.2659C13.7571 18.5533 13.677 18.9895 13.8055 19.381C13.92 19.7301 14.0598 20.2339 14.2217 21" stroke="#232F3E" stroke-width="1.75" stroke-miterlimit="10" stroke-linecap="round" stroke-linejoin="round"/>
</svg>
