<svg width="24" height="24" viewBox="0 0 24 24" fill="none" xmlns="http://www.w3.org/2000/svg">
<path d="M3.37087 14.4726L3.88087 15.0225L3.88118 15.0222L3.37087 14.4726ZM1.25 17.5214C1.25 17.9356 1.58579 18.2714 2 18.2714C2.41421 18.2714 2.75 17.9356 2.75 17.5214H1.25ZM10.4728 14.6518C10.8152 14.8849 11.2818 14.7963 11.5148 14.4538C11.7479 14.1114 11.6593 13.6449 11.3168 13.4118L10.4728 14.6518ZM8.13139 12.4438H6.68767V13.9438H8.13139V12.4438ZM6.68767 12.4438C5.25455 12.4438 3.89266 12.9647 2.86056 13.923L3.88118 15.0222C4.62614 14.3305 5.61968 13.9438 6.68767 13.9438V12.4438ZM2.86087 13.9227C1.83262 14.8763 1.25 16.1552 1.25 17.5214H2.75C2.75 16.5962 3.14089 15.7088 3.88087 15.0225L2.86087 13.9227ZM11.3168 13.4118C10.3904 12.7812 9.28401 12.4438 8.13139 12.4438V13.9438C8.99033 13.9438 9.80128 14.1947 10.4728 14.6518L11.3168 13.4118ZM7.27845 5.25024C5.51188 5.25024 4.09567 6.70685 4.09567 8.47356H5.59567C5.59567 7.51214 6.36325 6.75024 7.27845 6.75024V5.25024ZM4.09567 8.47356C4.09567 10.2404 5.51122 11.696 7.27845 11.696V10.196C6.36226 10.196 5.59567 9.43481 5.59567 8.47356H4.09567ZM7.27845 11.696C9.04601 11.696 10.4612 10.2393 10.4612 8.47272H8.96122C8.96122 9.4343 8.19431 10.196 7.27845 10.196V11.696ZM10.4612 8.47272C10.4612 6.70567 9.04469 5.25024 7.27845 5.25024V6.75024C8.19397 6.75024 8.96122 7.51163 8.96122 8.47272H10.4612Z" fill="#546579"/>
<path fill-rule="evenodd" clip-rule="evenodd" d="M20.084 12.1432C19.7196 11.9731 19.562 11.5398 19.7321 11.1754L21.7382 6.87681C21.9083 6.5124 22.3415 6.35485 22.7059 6.52492C23.0703 6.69498 23.2279 7.12825 23.0578 7.49266L21.0517 11.7913C20.8817 12.1557 20.4484 12.3132 20.084 12.1432Z" fill="#546579"/>
<path d="M9.50002 17.5793C9.51686 16.2553 9.79251 15.3767 10.6212 14.4257C11.4817 13.437 12.6223 12.8932 13.8334 12.8932H15.2316C15.3512 12.8932 15.4999 12.9059 15.6717 12.9206C16.4193 12.9846 17.5481 12.9206 18.1293 12.3394L18.9463 11.6655C19.3576 11.3262 19.906 11.3224 20.3133 11.5907L20.3124 11.5894C20.317 11.5927 20.3215 11.596 20.326 11.5992C20.3877 11.641 20.446 11.6892 20.5 11.7434C21.84 13.0133 19.4787 14.8447 17.8889 15.8296C17.6633 15.9694 17.5611 16.2588 17.6378 16.5205C17.7493 16.9003 17.8383 17.3086 17.89 17.5793M14.5672 6.07935C13.2264 6.07935 12.1345 7.1886 12.1345 8.55266C12.1345 9.91673 13.2255 11.0251 14.5672 11.0251C15.9089 11.0251 17 9.91589 17 8.55182C17 7.18775 15.9081 6.07935 14.5672 6.07935Z" stroke="#546579" stroke-width="1.5" stroke-linecap="round" stroke-linejoin="round"/>
</svg>
