<svg width="24" height="24" viewBox="0 0 24 24" fill="none" xmlns="http://www.w3.org/2000/svg">
<g clip-path="url(#clip0_6548_1473)">
<g opacity="0.15">
<path d="M12.5872 8.36736C11.0469 8.36736 9.79268 9.62066 9.79268 11.1619C9.79268 12.7031 11.046 13.9554 12.5872 13.9554C14.1284 13.9554 15.3817 12.7021 15.3817 11.1609C15.3817 9.61971 14.1275 8.36736 12.5872 8.36736Z" fill="#2B63D9"/>
<path d="M16.0636 16.1893C15.2987 15.565 14.2848 15.221 13.2083 15.221H11.9664C10.8898 15.221 9.87597 15.565 9.11106 16.1893C8.34996 16.8107 7.93093 17.6307 7.93093 18.4983C7.93093 18.636 8.06965 18.7482 8.24164 18.7482H16.934C17.105 18.7482 17.2447 18.636 17.2447 18.4983C17.2447 17.6307 16.8247 16.8107 16.0636 16.1893Z" fill="#2B63D9"/>
<path d="M5.99113 5.55859C4.45087 5.55859 3.19662 6.81189 3.19662 8.3531C3.19662 9.89431 4.44992 11.1467 5.99113 11.1467C7.53234 11.1467 8.78564 9.89336 8.78564 8.35215C8.78564 6.81094 7.53138 5.55859 5.99113 5.55859Z" fill="#2B63D9"/>
<path d="M9.46715 13.3805C8.70225 12.7562 7.6884 12.4123 6.61183 12.4123H5.36993C4.29337 12.4123 3.27951 12.7562 2.51461 13.3805C1.75351 14.0019 1.33447 14.8219 1.33447 15.6895C1.33447 15.8272 1.4732 15.9394 1.64518 15.9394H10.3375C10.5086 15.9394 10.6482 15.8272 10.6482 15.6895C10.6482 14.8219 10.2283 14.0019 9.46715 13.3805Z" fill="#2B63D9"/>
<path d="M19.343 5.55859C17.8028 5.55859 16.5485 6.81189 16.5485 8.3531C16.5485 9.89431 17.8018 11.1467 19.343 11.1467C20.8842 11.1467 22.1375 9.89336 22.1375 8.35215C22.1375 6.81094 20.8833 5.55859 19.343 5.55859Z" fill="#2B63D9"/>
<path d="M22.819 13.3805C22.0541 12.7562 21.0403 12.4123 19.9637 12.4123H18.7218C17.6453 12.4123 16.6314 12.7562 15.8665 13.3805C15.1054 14.0019 14.6864 14.8219 14.6864 15.6895C14.6864 15.8272 14.8251 15.9394 14.9971 15.9394H23.6894C23.8604 15.9394 24.0001 15.8272 24.0001 15.6895C24.0001 14.8219 23.5801 14.0019 22.819 13.3805Z" fill="#2B63D9"/>
</g>
<path d="M9.19075 14.8977C9.0149 14.1976 8.65431 13.5531 8.13363 13.0246C7.51891 12.4007 6.74341 12.0015 5.90379 11.8687C5.69865 11.8363 5.48969 11.8198 5.27831 11.8198H4.03546C3.84152 11.8198 3.64962 11.8336 3.46084 11.8609C2.60169 11.9852 1.80725 12.3874 1.18014 13.0246C0.419034 13.7971 0 14.8176 0 15.897C0 16.6872 1.21658 16.6872 1.21658 15.897C1.21658 15.1385 1.50893 14.4243 2.04676 13.8784C2.58612 13.3304 3.28939 13.0363 4.03546 13.0363H5.27831C6.02373 13.0363 6.72697 13.3304 7.26701 13.8784C7.72354 14.3418 8.00321 14.9265 8.07731 15.5566C7.97348 15.6432 7.87323 15.7355 7.77692 15.8334C7.01582 16.6059 6.59678 17.6264 6.59678 18.7058C6.59678 19.5108 7.81336 19.5108 7.81336 18.7058C7.81336 17.9008 8.10572 17.2331 8.64354 16.6872C9.1829 16.1391 9.88617 15.8451 10.6322 15.8451H11.8751C12.6205 15.8451 13.3238 16.1391 13.8638 16.6872C14.4016 17.2331 14.694 17.9473 14.694 18.7058C14.694 19.5108 15.9105 19.5108 15.9105 18.7058C15.9105 17.6264 15.4915 16.6059 14.7304 15.8334C14.6801 15.7823 14.6286 15.7327 14.5762 15.6846C14.6255 15.0059 14.9113 14.3731 15.3986 13.8784C15.938 13.3304 16.6413 13.0363 17.3873 13.0363H18.6302C19.3756 13.0363 20.0789 13.3304 20.6189 13.8784C21.1567 14.4243 21.4491 15.1385 21.4491 15.897C21.4491 16.6872 22.6657 16.6872 22.6657 15.897C22.6657 14.8176 22.2466 13.7971 21.4855 13.0246C20.8708 12.4007 20.0953 12.0015 19.2557 11.8687C19.0505 11.8363 18.8416 11.8198 18.6302 11.8198H17.3873C17.1934 11.8198 17.0015 11.8336 16.8127 11.8609C15.9536 11.9852 15.1591 12.3874 14.532 13.0246C13.9966 13.5681 13.6305 14.2342 13.4604 14.9573C13.1545 14.8241 12.8325 14.73 12.5006 14.6775C12.2954 14.6451 12.0865 14.6285 11.8751 14.6285H10.6322C10.4383 14.6285 10.2464 14.6424 10.0576 14.6697C9.75944 14.7128 9.46906 14.7894 9.19075 14.8977Z" fill="#2B63D9"/>
<path fill-rule="evenodd" clip-rule="evenodd" d="M3.6123 10.6202C3.74824 10.6775 3.88963 10.7243 4.03546 10.7597C4.24687 10.8109 4.46761 10.8381 4.69459 10.8381C4.89472 10.8381 5.09 10.8169 5.27831 10.7768C5.44609 10.741 5.60835 10.6901 5.76357 10.6257C6.77574 10.2052 7.4891 9.20632 7.4891 8.04356C7.4891 6.50235 6.23485 5.25 4.69459 5.25C3.15433 5.25 1.90008 6.5033 1.90008 8.04451C1.90008 9.20216 2.60719 10.1968 3.6123 10.6202ZM4.69459 6.46658C3.82596 6.46658 3.11666 7.17547 3.11666 8.04451C3.11666 8.91328 3.82474 9.62149 4.69459 9.62149C5.5639 9.62149 6.27252 8.91287 6.27252 8.04356C6.27252 7.17506 5.56376 6.46658 4.69459 6.46658Z" fill="#2B63D9"/>
<path fill-rule="evenodd" clip-rule="evenodd" d="M16.9642 10.6202C17.1001 10.6775 17.2415 10.7243 17.3873 10.7597C17.5988 10.8109 17.8195 10.8381 18.0465 10.8381C18.2466 10.8381 18.4419 10.8169 18.6302 10.7768C18.798 10.741 18.9602 10.6901 19.1155 10.6257C20.1276 10.2052 20.841 9.20632 20.841 8.04356C20.841 6.50235 19.5867 5.25 18.0465 5.25C16.5062 5.25 15.252 6.5033 15.252 8.04451C15.252 9.20216 15.9591 10.1968 16.9642 10.6202ZM18.0465 6.46658C17.1778 6.46658 16.4685 7.17547 16.4685 8.04451C16.4685 8.91328 17.1766 9.62149 18.0465 9.62149C18.9158 9.62149 19.6244 8.91287 19.6244 8.04356C19.6244 7.17506 18.9156 6.46658 18.0465 6.46658Z" fill="#2B63D9"/>
<path fill-rule="evenodd" clip-rule="evenodd" d="M10.6322 13.5684C10.4864 13.5331 10.345 13.4863 10.2091 13.429C9.20398 13.0056 8.49686 12.0109 8.49686 10.8533C8.49686 9.31206 9.75111 8.05876 11.2914 8.05876C12.8316 8.05876 14.0859 9.31111 14.0859 10.8523C14.0859 12.0151 13.3725 13.014 12.3604 13.4344C12.2051 13.4989 12.0429 13.5498 11.8751 13.5855C11.6868 13.6257 11.4915 13.6468 11.2914 13.6468C11.0644 13.6468 10.8437 13.6197 10.6322 13.5684ZM9.71344 10.8533C9.71344 9.98423 10.4227 9.27534 11.2914 9.27534C12.1605 9.27534 12.8693 9.98382 12.8693 10.8523C12.8693 11.7216 12.1607 12.4303 11.2914 12.4303C10.4215 12.4303 9.71344 11.722 9.71344 10.8533Z" fill="#2B63D9"/>
</g>
<defs>
<clipPath id="clip0_6548_1473">
<rect width="24" height="24" fill="white"/>
</clipPath>
</defs>
</svg>
