<svg width="25" height="24" viewBox="0 0 25 24" fill="none" xmlns="http://www.w3.org/2000/svg">
<path d="M6.91421 8H12.5C16.2301 8 18.658 10.0404 19.3102 13.1203C19.8753 15.7893 18.9333 18.7242 17.0129 19.8606C16.5376 20.1419 15.9243 19.9846 15.643 19.5093C15.3618 19.034 15.5191 18.4207 15.9944 18.1394C17.0952 17.488 17.7552 15.4316 17.3535 13.5346C16.8941 11.3649 15.27 10 12.5 10H6.91421L10.2071 13.2929C10.5976 13.6834 10.5976 14.3166 10.2071 14.7071C9.81658 15.0976 9.18342 15.0976 8.79289 14.7071L3.79289 9.70711C3.40237 9.31658 3.40237 8.68342 3.79289 8.29289L8.79289 3.29289C9.18342 2.90237 9.81658 2.90237 10.2071 3.29289C10.5976 3.68342 10.5976 4.31658 10.2071 4.70711L6.91421 8Z" fill="#252F3D"/>
</svg>
