<svg width="16" height="16" viewBox="0 0 16 16" fill="none" xmlns="http://www.w3.org/2000/svg">
<path fill-rule="evenodd" clip-rule="evenodd" d="M3.8042 8.34886C4.07763 8.07614 4.5202 8.07614 4.79363 8.34886C4.92465 8.47972 4.99828 8.65731 4.99828 8.84249C4.99828 9.02767 4.92465 9.20526 4.79363 9.33612L3.30948 10.8181C3.04721 11.0798 2.89982 11.4352 2.89982 11.8057C2.89982 12.1763 3.04721 12.5316 3.30948 12.7933C3.85635 13.3388 4.74148 13.3388 5.28834 12.7933L8.75062 9.33612C8.88165 9.20526 8.95527 9.02767 8.95527 8.84249C8.95527 8.65731 8.88165 8.47972 8.75062 8.34886C8.61937 8.21797 8.5456 8.04023 8.5456 7.85487C8.5456 7.81623 8.54881 7.77792 8.55507 7.7403L10.2541 9.48373C10.153 9.79787 9.97802 10.0867 9.74005 10.3241L6.27705 13.7813C5.18349 14.8726 3.41289 14.8726 2.31933 13.7813C1.79478 13.2578 1.5 12.5472 1.5 11.8061C1.5 11.065 1.79478 10.3543 2.31933 9.83084L3.8042 8.34886ZM12.1963 7.85053C11.9229 8.12325 11.4803 8.12325 11.2069 7.85053C11.0758 7.71967 11.0022 7.54209 11.0022 7.3569C11.0022 7.17172 11.0758 6.99413 11.2069 6.86327L12.691 5.3813C12.9533 5.11955 13.1007 4.76422 13.1007 4.39367C13.1007 4.02313 12.9533 3.6678 12.691 3.40605C12.1441 2.86061 11.259 2.86061 10.7121 3.40605L8.15889 5.9561L7.15718 4.98077L9.72416 2.41807C10.8177 1.32679 12.5883 1.32679 13.6819 2.41807C14.2064 2.94157 14.5012 3.65222 14.5012 4.39331C14.5012 5.1344 14.2064 5.84506 13.6819 6.36856L12.1963 7.85053ZM7.48188 6.63227L7.25059 6.86327C7.11956 6.99413 7.04593 7.17172 7.04593 7.3569C7.04593 7.54209 7.11956 7.71967 7.25059 7.85053C7.38184 7.98142 7.4556 8.15916 7.4556 8.34453C7.4556 8.52989 7.38184 8.70763 7.25059 8.83852C6.97716 9.11124 6.53459 9.11124 6.26116 8.83852C5.86763 8.44588 5.64648 7.91281 5.64648 7.3569C5.64648 6.801 5.86763 6.26793 6.26116 5.87529L6.5 5.63685L7.48188 6.63227Z" fill="#6D7B8C"/>
<path d="M3 3L13 13" stroke="#6D7B8C" stroke-width="1.5" stroke-linecap="round"/>
</svg>
