<svg width="32" height="32" viewBox="0 0 32 32" fill="none" xmlns="http://www.w3.org/2000/svg">
<path d="M13.3578 4.53795C14.4386 2.34802 17.5614 2.34803 18.6421 4.53795L20.6304 8.56655C20.8255 8.96183 21.2026 9.23581 21.6388 9.29919L26.0846 9.94521C28.5013 10.2964 29.4663 13.2663 27.7176 14.9709L26.4444 16.2119C25.9055 16.0736 25.3407 16 24.7586 16C21.0259 16 18 19.0259 18 22.7586C18 23.8737 18.27 24.9257 18.7483 25.8528L16.6232 24.7355C16.233 24.5304 15.7669 24.5304 15.3768 24.7355L11.4003 26.8261C9.23872 27.9625 6.71235 26.127 7.12517 23.72L7.88461 19.2922C7.95913 18.8577 7.81509 18.4144 7.49944 18.1067L4.28241 14.9709C2.53366 13.2663 3.49864 10.2964 5.91536 9.94521L10.3612 9.29919C10.7974 9.23581 11.1745 8.96183 11.3696 8.56655L13.3578 4.53795Z" fill="#FCC936"/>
<circle cx="24.7586" cy="22.7586" r="6.00862" stroke="#6D7B8C" stroke-width="1.5"/>
<path d="M21.8621 22.7588H27.6552" stroke="#6D7B8C" stroke-width="1.5" stroke-linecap="round"/>
</svg>
