<svg width="24" height="24" viewBox="0 0 24 24" fill="none" xmlns="http://www.w3.org/2000/svg">
<path d="M11.6441 13.2502H13.6457C15.3795 13.2502 17.0124 13.8794 18.2443 15.0232C19.47 16.16 20.1449 17.6618 20.1449 19.2502M12.6449 3C14.6539 3 16.2898 4.66193 16.2898 6.70563C16.2898 8.74933 14.6551 10.41 12.6449 10.41C10.6347 10.41 9 8.74807 9 6.70437C9 4.66067 10.6359 3 12.6449 3Z" stroke="#546579" stroke-width="1.5" stroke-linecap="round"/>
<path d="M9 14.2502H6.5C5.31653 14.2502 4.42857 15.0896 4.42857 16.1251C4.42857 17.1606 5.38796 18 6.57143 18H8M9 14.2502L7.57143 13M9 14.2502L7.57143 15.5002" stroke="#546579" stroke-width="1.2" stroke-linecap="round" stroke-linejoin="round"/>
<circle cx="7" cy="16" r="5" stroke="#546579" stroke-width="1.5"/>
</svg>
