<svg xmlns="http://www.w3.org/2000/svg" fill="none" viewBox="0 0 24 24" height="24" width="24">
<path stroke-width="1.5" stroke="#2B63D9" d="M20.5463 12.2968C20.4951 12.3785 20.4845 12.5971 20.5463 12.6718C20.5466 12.6723 20.5521 12.675 20.562 12.6798L20.562 12.6799C20.6925 12.744 21.5902 13.1849 21.5902 13.9039C21.5902 14.3041 21.0403 14.7539 20.6252 15.0364L20.7809 15.2556L20.5463 12.2968ZM20.5463 12.2968C20.6012 12.2089 20.6571 12.1213 20.7127 12.0342M20.5463 12.2968L20.7127 12.0342M20.1713 15.3175C20.0871 15.3818 20.1462 15.6489 20.1657 15.6925C20.1662 15.6936 20.1666 15.6946 20.1671 15.6955L20.1713 15.6925H20.375C20.358 15.6613 20.3392 15.6266 20.3183 15.5881C20.2776 15.5133 20.2291 15.424 20.1713 15.3175ZM20.1713 15.3175C20.1713 15.3175 20.3481 15.2214 20.577 15.0688C20.6252 15.1 20.6597 15.1302 20.6804 15.1496C20.7229 15.1891 20.7553 15.229 20.7785 15.2613C20.8019 15.2939 20.8158 15.3189 20.8211 15.3283L20.8217 15.3294C20.8501 15.3802 20.8652 15.4221 20.868 15.4301L20.8683 15.4308C20.8731 15.444 20.876 15.4536 20.8773 15.4581L20.4578 15.6925L20.357 15.5606L20.1713 15.3175ZM20.7293 16.1984C20.8411 16.3348 20.9213 16.52 20.9213 16.8175C20.9213 17.5129 20.0554 17.9446 19.5365 18.2034L19.5361 18.2036C19.4955 18.2238 19.457 18.243 19.4213 18.2612C19.1796 18.3839 19.3345 18.6374 19.51 18.9246C19.6924 19.2232 19.8972 19.5584 19.7019 19.8212C19.4794 20.1014 19.1519 20.2788 18.7944 20.3113L20.7293 16.1984ZM20.7293 16.1984C20.7981 16.1214 20.836 16.047 20.855 16.0047C20.8877 15.9317 20.9017 15.869 20.908 15.8355C20.9149 15.7992 20.9182 15.7667 20.9198 15.7411L20.7293 16.1984ZM20.7127 12.0342C21.1842 11.2959 21.6316 10.5952 21.2494 10.0444L20.7127 12.0342ZM13.1254 6.35709L13.0883 6.43138L13.0778 6.47381C13.0698 6.49132 13.053 6.52578 13.0227 6.57858C12.9452 6.71337 12.7844 6.95925 12.4695 7.33806C12.3893 7.4345 12.177 7.59919 11.791 7.84022C11.5779 7.97329 11.3647 8.0986 11.1381 8.2318C10.9562 8.33869 10.7658 8.45066 10.5597 8.5758C10.1334 8.83473 9.68243 9.12632 9.32749 9.43651C9.00808 9.71565 8.59225 10.1552 8.5484 10.7356C8.50806 11.2695 8.50511 11.5712 8.51832 11.7743C8.52536 11.8825 8.53659 11.9559 8.54413 12.0043C8.54503 12.0101 8.54573 12.0147 8.54626 12.0183V17.993L8.54614 17.9995L8.54546 18.0383L8.5432 18.1806C8.54144 18.301 8.53932 18.4685 8.53791 18.6571C8.53511 19.0306 8.53496 19.4992 8.54669 19.8465C8.55993 20.2382 8.79434 20.4963 8.96845 20.633C9.14323 20.7702 9.34718 20.8604 9.52188 20.9229C9.87788 21.0502 10.3132 21.1311 10.7013 21.1851C11.0993 21.2405 11.4917 21.2733 11.7816 21.2923C11.9274 21.3018 12.0491 21.308 12.135 21.3118C12.1779 21.3137 12.2121 21.315 12.2358 21.3159L12.2636 21.3169L12.2713 21.3171L12.2736 21.3172L12.2743 21.3172L12.2746 21.3172C12.2747 21.3172 12.2748 21.3172 12.2963 20.5675L12.2748 21.3172L12.3003 21.3179L12.3258 21.3169L18.8239 21.0607L18.8431 21.06L18.8623 21.0582C19.4244 21.0071 19.9395 20.7281 20.2893 20.2875L20.2967 20.2782L20.3039 20.2685C20.5947 19.8772 20.5538 19.4534 20.4666 19.1727C20.4096 18.9889 20.3177 18.8157 20.2407 18.684C20.423 18.5844 20.6237 18.4639 20.8071 18.3259C21.1756 18.0486 21.6713 17.5557 21.6713 16.8175C21.6713 16.5431 21.6241 16.2918 21.5214 16.0643C21.4243 15.8491 21.2934 15.6908 21.1687 15.5717C21.2242 15.5321 21.281 15.4901 21.3382 15.4461C21.5375 15.2927 21.7648 15.0961 21.9491 14.8708C22.1182 14.6639 22.3402 14.326 22.3402 13.9039C22.3402 13.169 21.8544 12.6701 21.5418 12.4173C21.5003 12.3837 21.4591 12.3523 21.4187 12.3228C21.6064 12.0273 21.8085 11.6969 21.9425 11.385C22.1432 10.9178 22.3014 10.2448 21.8656 9.61685L21.8607 9.6098L21.8557 9.60286C21.3957 8.97145 20.6572 8.60721 19.8788 8.61987H16.9745L16.9765 8.61645C17.1346 8.36172 17.2701 8.09332 17.3814 7.81607L17.3857 7.8053L17.3897 7.79441C18.0176 6.07808 17.9973 4.58336 17.1392 3.25176L17.1303 3.2378L17.1207 3.22426C16.582 2.46442 15.639 2.10449 14.7323 2.30453C14.0603 2.43092 13.5347 2.96308 13.4236 3.64234C13.3672 3.96619 13.3723 4.24311 13.3915 4.48328C13.3993 4.58103 13.4099 4.67795 13.4192 4.76213C13.4209 4.77716 13.4225 4.79179 13.424 4.80595C13.4347 4.90446 13.4432 4.98924 13.4479 5.07369C13.464 5.36349 13.4431 5.72187 13.1254 6.35709ZM20.8768 15.4479C20.8768 15.4479 20.877 15.4491 20.8771 15.4513L20.8768 15.4479ZM16.1089 9.29608L16.2754 9.15004L16.2784 9.14741L16.2805 9.14554L16.2853 9.14133L16.6727 8.80151C16.7595 8.90047 16.8115 9.03827 16.7993 9.18748C16.7989 9.19248 16.7984 9.1975 16.7979 9.20252L16.7987 9.19501L16.7994 9.18749C16.817 8.99143 16.8756 8.79999 16.9714 8.62513L16.9661 8.63419L16.1089 9.29608ZM4.13439 9.19177L4.13334 9.19178C3.09799 9.19323 2.25147 10.0284 2.25 11.0694V11.0704L2.25 18.9667L2.25 18.9678C2.25147 20.0075 3.09761 20.844 4.13333 20.8454H4.13439H6.5714H6.57245C7.60818 20.844 8.45432 20.0075 8.45579 18.9678V18.9667L8.45579 11.0704L8.45579 11.0694C8.45432 10.0284 7.60779 9.19323 6.57246 9.19178H6.5714L4.13439 9.19177Z"></path>
</svg>
