<svg width="24" height="24" viewBox="0 0 24 24" fill="none" xmlns="http://www.w3.org/2000/svg">
<path d="M10.2146 20.4318C10.2146 20.846 10.5504 21.1818 10.9646 21.1818C11.3788 21.1818 11.7146 20.846 11.7146 20.4318H10.2146ZM9.65382 17.7228L10.1638 17.1729L10.1638 17.1729L9.65382 17.7228ZM3.31082 17.7228L3.82082 18.2727L3.82114 18.2724L3.31082 17.7228ZM1.25 20.4318C1.25 20.846 1.58579 21.1818 2 21.1818C2.41421 21.1818 2.75 20.846 2.75 20.4318H1.25ZM11.7146 20.4318C11.7146 19.0726 11.1166 18.0566 10.1638 17.1729L9.14382 18.2727C9.88176 18.9571 10.2146 19.6 10.2146 20.4318H11.7146ZM10.1638 17.1729C9.17104 16.2522 7.86105 15.75 6.48231 15.75V17.25C7.49514 17.25 8.43739 17.6176 9.14384 18.2727L10.1638 17.1729ZM6.48231 15.75C5.10397 15.75 3.79369 16.251 2.80051 17.1732L3.82114 18.2724C4.52717 17.6169 5.4691 17.25 6.48231 17.25V15.75ZM2.80083 17.1729C1.84801 18.0565 1.25 19.0726 1.25 20.4318H2.75C2.75 19.6 3.08287 18.9571 3.82082 18.2727L2.80083 17.1729ZM6.48232 8.64478C4.7745 8.64478 3.40612 10.0528 3.40612 11.7597H4.90612C4.90612 10.8581 5.62587 10.1448 6.48232 10.1448V8.64478ZM3.40612 11.7597C3.40612 13.4669 4.77387 14.8739 6.48232 14.8739V13.3739C5.62491 13.3739 4.90612 12.6612 4.90612 11.7597H3.40612ZM6.48232 14.8739C8.19111 14.8739 9.55853 13.4657 9.55853 11.7589H8.05853C8.05853 12.6608 7.3394 13.3739 6.48232 13.3739V14.8739ZM9.55853 11.7589C9.55853 10.0516 8.18982 8.64478 6.48232 8.64478V10.1448C7.33911 10.1448 8.05853 10.8576 8.05853 11.7589H9.55853Z" fill="#546579"/>
<path d="M12.5 6.64646C12.0858 6.64646 11.75 6.98225 11.75 7.39646C11.75 7.81068 12.0858 8.14646 12.5 8.14646V6.64646ZM18.3279 8.14646C18.7421 8.14646 19.0779 7.81068 19.0779 7.39646C19.0779 6.98225 18.7421 6.64646 18.3279 6.64646V8.14646ZM12.5 9.75C12.0858 9.75 11.75 10.0858 11.75 10.5C11.75 10.9142 12.0858 11.25 12.5 11.25V9.75ZM18.3279 11.25C18.7421 11.25 19.0779 10.9142 19.0779 10.5C19.0779 10.0858 18.7421 9.75 18.3279 9.75V11.25ZM7.80135 7.62079C7.80135 8.035 8.13713 8.37079 8.55135 8.37079C8.96556 8.37079 9.30135 8.035 9.30135 7.62079H7.80135ZM16.8274 13.8279V13.0779C16.6711 13.0779 16.5187 13.1267 16.3915 13.2176L16.8274 13.8279ZM13.2066 16.4141H12.4566C12.4566 16.6951 12.6137 16.9525 12.8635 17.081C13.1133 17.2096 13.414 17.1877 13.6426 17.0244L13.2066 16.4141ZM13.2066 13.8279H13.9566C13.9566 13.4136 13.6209 13.0779 13.2066 13.0779V13.8279ZM10.6204 13.0779C10.2062 13.0779 9.87037 13.4136 9.87037 13.8279C9.87037 14.2421 10.2062 14.5779 10.6204 14.5779V13.0779ZM12.5 8.14646H18.3279V6.64646H12.5V8.14646ZM12.5 11.25H18.3279V9.75H12.5V11.25ZM9.30135 7.62079V6H7.80135V7.62079H9.30135ZM10.5513 4.75H20V3.25H10.5513V4.75ZM21.25 6V11.8279H22.75V6H21.25ZM20 13.0779H16.8274V14.5779H20V13.0779ZM16.3915 13.2176L12.7707 15.8038L13.6426 17.0244L17.2634 14.4382L16.3915 13.2176ZM13.9566 16.4141V13.8279H12.4566V16.4141H13.9566ZM13.2066 13.0779H10.6204V14.5779H13.2066V13.0779ZM21.25 11.8279C21.25 12.5182 20.6904 13.0779 20 13.0779V14.5779C21.5188 14.5779 22.75 13.3466 22.75 11.8279H21.25ZM20 4.75C20.6904 4.75 21.25 5.30965 21.25 6H22.75C22.75 4.48122 21.5188 3.25 20 3.25V4.75ZM9.30135 6C9.30135 5.30964 9.86099 4.75 10.5513 4.75V3.25C9.03256 3.25 7.80135 4.48122 7.80135 6H9.30135Z" fill="#546579"/>
</svg>
