<svg xmlns="http://www.w3.org/2000/svg" fill="none" viewBox="0 0 1476 199" height="199" width="1476">
<path stroke-linejoin="round" stroke-miterlimit="10" stroke="#0B233F" fill="#0B233F" d="M1 16.667C1 8.56699 7.5665 2 15.6668 2H228.333C236.433 2 243 8.56699 243 16.667V75.333C243 83.433 236.433 90 228.333 90H15.6668C7.5665 90 1 83.433 1 75.333V16.667Z" clip-rule="evenodd" fill-rule="evenodd"></path>
<path fill="white" d="M27.3888 42.5H24.5221V36.646H19.1505V42.5H16.2745V28.9365H19.1505V34.2524H24.5221V28.9365H27.3888V42.5ZM32.8531 37.2954C32.8531 38.3221 33.0201 39.0983 33.3541 39.624C33.6943 40.1497 34.2448 40.4126 35.0055 40.4126C35.7601 40.4126 36.3012 40.1528 36.629 39.6333C36.963 39.1076 37.13 38.3283 37.13 37.2954C37.13 36.2687 36.963 35.4987 36.629 34.9854C36.295 34.472 35.7477 34.2153 34.9869 34.2153C34.2324 34.2153 33.6881 34.472 33.3541 34.9854C33.0201 35.4925 32.8531 36.2625 32.8531 37.2954ZM40.0245 37.2954C40.0245 38.9839 39.5792 40.3044 38.6886 41.2568C37.798 42.2093 36.5579 42.6855 34.9684 42.6855C33.9726 42.6855 33.0944 42.4691 32.3336 42.0361C31.5729 41.597 30.9884 40.9692 30.5802 40.1528C30.172 39.3364 29.9679 38.384 29.9679 37.2954C29.9679 35.6007 30.4101 34.2834 31.2946 33.3433C32.179 32.4032 33.4222 31.9331 35.024 31.9331C36.0198 31.9331 36.8981 32.1496 37.6588 32.5825C38.4196 33.0155 39.004 33.637 39.4122 34.4473C39.8204 35.2575 40.0245 36.2069 40.0245 37.2954ZM50.7028 42.5L49.9049 38.8726L48.8473 34.2896H48.7638L46.8712 42.5H43.8282L40.8781 32.1279H43.6984L44.8951 36.7202C45.0312 37.2645 45.2198 38.3994 45.4611 40.125H45.5353C45.56 39.6549 45.6683 38.9097 45.86 37.8892L46.0084 37.1006L47.2887 32.1279H50.4059L51.6212 37.1006C51.6954 37.4408 51.7851 37.9417 51.8903 38.6035C52.0016 39.2591 52.0634 39.7663 52.0758 40.125H52.15C52.2181 39.5745 52.3139 38.9499 52.4376 38.251C52.5613 37.5459 52.6665 37.0356 52.7531 36.7202L53.9962 32.1279H56.7701L53.7828 42.5H50.7028ZM67.7545 40.4312C68.2493 40.4312 68.8431 40.3229 69.5358 40.1064V42.2124C68.8307 42.5278 67.9648 42.6855 66.9381 42.6855C65.8063 42.6855 64.9806 42.401 64.4611 41.832C63.9477 41.2568 63.691 40.3971 63.691 39.2529V34.2524H62.3365V33.0557L63.8951 32.1094L64.7115 29.9199H66.5206V32.1279H69.4244V34.2524H66.5206V39.2529C66.5206 39.6549 66.632 39.9518 66.8546 40.1436C67.0835 40.3353 67.3834 40.4312 67.7545 40.4312ZM73.8961 37.2954C73.8961 38.3221 74.0631 39.0983 74.3971 39.624C74.7373 40.1497 75.2877 40.4126 76.0485 40.4126C76.803 40.4126 77.3442 40.1528 77.672 39.6333C78.006 39.1076 78.173 38.3283 78.173 37.2954C78.173 36.2687 78.006 35.4987 77.672 34.9854C77.338 34.472 76.7906 34.2153 76.0299 34.2153C75.2753 34.2153 74.7311 34.472 74.3971 34.9854C74.0631 35.4925 73.8961 36.2625 73.8961 37.2954ZM81.0675 37.2954C81.0675 38.9839 80.6222 40.3044 79.7316 41.2568C78.8409 42.2093 77.6009 42.6855 76.0114 42.6855C75.0156 42.6855 74.1373 42.4691 73.3766 42.0361C72.6158 41.597 72.0314 40.9692 71.6232 40.1528C71.215 39.3364 71.0109 38.384 71.0109 37.2954C71.0109 35.6007 71.4531 34.2834 72.3375 33.3433C73.222 32.4032 74.4651 31.9331 76.067 31.9331C77.0628 31.9331 77.941 32.1496 78.7018 32.5825C79.4625 33.0155 80.047 33.637 80.4552 34.4473C80.8634 35.2575 81.0675 36.2069 81.0675 37.2954ZM90.5953 37.2954C90.5953 38.3221 90.7623 39.0983 91.0963 39.624C91.4365 40.1497 91.9869 40.4126 92.7477 40.4126C93.5022 40.4126 94.0434 40.1528 94.3712 39.6333C94.7052 39.1076 94.8722 38.3283 94.8722 37.2954C94.8722 36.2687 94.7052 35.4987 94.3712 34.9854C94.0372 34.472 93.4899 34.2153 92.7291 34.2153C91.9746 34.2153 91.4303 34.472 91.0963 34.9854C90.7623 35.4925 90.5953 36.2625 90.5953 37.2954ZM97.7667 37.2954C97.7667 38.9839 97.3214 40.3044 96.4308 41.2568C95.5402 42.2093 94.3001 42.6855 92.7106 42.6855C91.7148 42.6855 90.8365 42.4691 90.0758 42.0361C89.3151 41.597 88.7306 40.9692 88.3224 40.1528C87.9142 39.3364 87.7101 38.384 87.7101 37.2954C87.7101 35.6007 88.1523 34.2834 89.0367 33.3433C89.9212 32.4032 91.1643 31.9331 92.7662 31.9331C93.762 31.9331 94.6403 32.1496 95.401 32.5825C96.1617 33.0155 96.7462 33.637 97.1544 34.4473C97.5626 35.2575 97.7667 36.2069 97.7667 37.2954ZM105.894 31.9331C106.277 31.9331 106.596 31.9609 106.849 32.0166L106.636 34.6699C106.407 34.6081 106.129 34.5771 105.801 34.5771C104.898 34.5771 104.193 34.8091 103.686 35.2729C103.185 35.7368 102.934 36.3862 102.934 37.2212V42.5H100.105V32.1279H102.248L102.665 33.8721H102.804C103.126 33.2907 103.559 32.8237 104.103 32.4712C104.654 32.1125 105.25 31.9331 105.894 31.9331ZM112.935 40.4683C113.696 40.4683 114.24 40.2518 114.568 39.8188C114.896 39.3797 115.06 38.6715 115.06 37.6943V37.3511C115.06 36.244 114.887 35.4492 114.54 34.9668C114.2 34.4782 113.65 34.2339 112.889 34.2339C111.559 34.2339 110.894 35.2791 110.894 37.3696C110.894 38.4087 111.058 39.1849 111.386 39.6982C111.72 40.2116 112.236 40.4683 112.935 40.4683ZM117.704 42.5186C117.704 44.0091 117.268 45.1379 116.396 45.9048C115.53 46.6779 114.237 47.0645 112.518 47.0645C111.002 47.0645 109.71 46.8604 108.64 46.4521V44.1885C109.895 44.7204 111.244 44.9863 112.685 44.9863C114.138 44.9863 114.865 44.2008 114.865 42.6299V42.4258L114.948 41.1548H114.865C114.203 42.1753 113.223 42.6855 111.924 42.6855C110.681 42.6855 109.716 42.2062 109.029 41.2476C108.349 40.2889 108.009 38.9839 108.009 37.3325C108.009 35.6317 108.361 34.3081 109.067 33.3618C109.778 32.4093 110.755 31.9331 111.998 31.9331C113.272 31.9331 114.274 32.4403 115.004 33.4546H115.078L115.31 32.1279H117.704V42.5186ZM127.25 42.5L126.703 41.0898H126.629C126.152 41.6898 125.661 42.1073 125.153 42.3423C124.652 42.5711 123.997 42.6855 123.187 42.6855C122.191 42.6855 121.405 42.401 120.83 41.832C120.261 41.263 119.977 40.4528 119.977 39.4014C119.977 38.3005 120.36 37.4902 121.127 36.9707C121.9 36.445 123.063 36.1543 124.615 36.0986L126.415 36.043V35.5884C126.415 34.5369 125.877 34.0112 124.801 34.0112C123.972 34.0112 122.998 34.2617 121.879 34.7627L120.942 32.8516C122.135 32.2269 123.459 31.9146 124.912 31.9146C126.304 31.9146 127.371 32.2176 128.113 32.8237C128.855 33.4299 129.226 34.3514 129.226 35.5884V42.5H127.25ZM126.415 37.6943L125.32 37.7314C124.498 37.7562 123.886 37.9046 123.484 38.1768C123.082 38.4489 122.88 38.8633 122.88 39.4199C122.88 40.2178 123.338 40.6167 124.254 40.6167C124.909 40.6167 125.432 40.4281 125.821 40.0508C126.217 39.6735 126.415 39.1725 126.415 38.5479V37.6943ZM141.723 42.5H138.893V36.4419C138.893 35.6935 138.76 35.1338 138.494 34.7627C138.228 34.3854 137.805 34.1968 137.223 34.1968C136.432 34.1968 135.859 34.4627 135.507 34.9946C135.154 35.5203 134.978 36.3955 134.978 37.6201V42.5H132.149V32.1279H134.31L134.691 33.4546H134.848C135.164 32.9536 135.597 32.5763 136.147 32.3228C136.704 32.063 137.335 31.9331 138.04 31.9331C139.246 31.9331 140.161 32.2609 140.786 32.9165C141.41 33.5659 141.723 34.506 141.723 35.7368V42.5ZM144.515 29.4468C144.515 28.5252 145.029 28.0645 146.055 28.0645C147.082 28.0645 147.595 28.5252 147.595 29.4468C147.595 29.8859 147.465 30.2292 147.206 30.4766C146.952 30.7178 146.569 30.8384 146.055 30.8384C145.029 30.8384 144.515 30.3745 144.515 29.4468ZM147.465 42.5H144.636V32.1279H147.465V42.5ZM157.68 39.4199C157.68 40.4837 157.309 41.2939 156.567 41.8506C155.831 42.4072 154.727 42.6855 153.255 42.6855C152.5 42.6855 151.857 42.633 151.325 42.5278C150.793 42.4289 150.295 42.2804 149.831 42.0825V39.7446C150.357 39.992 150.948 40.1992 151.603 40.3662C152.265 40.5332 152.846 40.6167 153.347 40.6167C154.374 40.6167 154.887 40.3198 154.887 39.7261C154.887 39.5034 154.819 39.3241 154.683 39.188C154.547 39.0457 154.312 38.888 153.978 38.7148C153.644 38.5355 153.199 38.3283 152.642 38.0933C151.844 37.7593 151.257 37.45 150.88 37.1655C150.508 36.881 150.236 36.5563 150.063 36.1914C149.896 35.8203 149.813 35.3657 149.813 34.8276C149.813 33.9061 150.168 33.1948 150.88 32.6938C151.597 32.1867 152.611 31.9331 153.922 31.9331C155.172 31.9331 156.387 32.2052 157.568 32.7495L156.715 34.7905C156.195 34.5679 155.71 34.3854 155.258 34.2432C154.807 34.1009 154.346 34.0298 153.876 34.0298C153.041 34.0298 152.624 34.2555 152.624 34.707C152.624 34.9606 152.757 35.1802 153.023 35.3657C153.295 35.5513 153.885 35.8265 154.795 36.1914C155.605 36.5192 156.199 36.8254 156.576 37.1099C156.953 37.3944 157.231 37.7222 157.411 38.0933C157.59 38.4644 157.68 38.9066 157.68 39.4199ZM164.183 33.9463C163.583 33.9463 163.113 34.138 162.773 34.5215C162.433 34.8988 162.238 35.4368 162.189 36.1357H166.159C166.147 35.4368 165.964 34.8988 165.612 34.5215C165.259 34.138 164.783 33.9463 164.183 33.9463ZM164.582 42.6855C162.912 42.6855 161.607 42.2248 160.667 41.3032C159.727 40.3817 159.257 39.0767 159.257 37.3882C159.257 35.6502 159.69 34.3081 160.556 33.3618C161.428 32.4093 162.631 31.9331 164.165 31.9331C165.63 31.9331 166.772 32.3506 167.588 33.1855C168.404 34.0205 168.813 35.174 168.813 36.646V38.019H162.124C162.155 38.8231 162.393 39.4508 162.838 39.9023C163.283 40.3538 163.908 40.5796 164.712 40.5796C165.337 40.5796 165.927 40.5146 166.484 40.3848C167.041 40.2549 167.622 40.0477 168.228 39.7632V41.9526C167.733 42.2 167.205 42.3825 166.642 42.5C166.079 42.6237 165.392 42.6855 164.582 42.6855ZM182.014 42.5L178.749 31.8589H178.665C178.783 34.0236 178.841 35.4678 178.841 36.1914V42.5H176.272V28.9365H180.187L183.397 39.3086H183.452L186.857 28.9365H190.772V42.5H188.091V36.0801C188.091 35.777 188.094 35.4276 188.1 35.0317C188.113 34.6359 188.156 33.5845 188.23 31.8774H188.147L184.649 42.5H182.014ZM192.488 32.1279H195.587L197.545 37.9634C197.712 38.4705 197.826 39.0705 197.888 39.7632H197.943C198.012 39.1261 198.144 38.5262 198.342 37.9634L200.263 32.1279H203.297L198.908 43.8267C198.506 44.909 197.931 45.7192 197.183 46.2573C196.441 46.7954 195.572 47.0645 194.576 47.0645C194.087 47.0645 193.608 47.0119 193.138 46.9067V44.6616C193.478 44.742 193.849 44.7822 194.251 44.7822C194.752 44.7822 195.188 44.6276 195.559 44.3184C195.936 44.0153 196.23 43.5545 196.441 42.936L196.608 42.4258L192.488 32.1279Z"></path>
<path fill="white" d="M22.0172 64.5L18.7516 53.8589H18.6681C18.7856 56.0236 18.8444 57.4678 18.8444 58.1914V64.5H16.2745V50.9365H20.1896L23.3995 61.3086H23.4552L26.86 50.9365H30.775V64.5H28.0939V58.0801C28.0939 57.777 28.097 57.4276 28.1031 57.0317C28.1155 56.6359 28.1588 55.5845 28.233 53.8774H28.1495L24.652 64.5H22.0172ZM36.2301 59.2954C36.2301 60.3221 36.3971 61.0983 36.7311 61.624C37.0712 62.1497 37.6217 62.4126 38.3824 62.4126C39.137 62.4126 39.6782 62.1528 40.006 61.6333C40.34 61.1076 40.507 60.3283 40.507 59.2954C40.507 58.2687 40.34 57.4987 40.006 56.9854C39.672 56.472 39.1246 56.2153 38.3639 56.2153C37.6093 56.2153 37.0651 56.472 36.7311 56.9854C36.3971 57.4925 36.2301 58.2625 36.2301 59.2954ZM43.4015 59.2954C43.4015 60.9839 42.9562 62.3044 42.0656 63.2568C41.1749 64.2093 39.9349 64.6855 38.3453 64.6855C37.3496 64.6855 36.4713 64.4691 35.7106 64.0361C34.9498 63.597 34.3654 62.9692 33.9572 62.1528C33.549 61.3364 33.3448 60.384 33.3448 59.2954C33.3448 57.6007 33.7871 56.2834 34.6715 55.3433C35.5559 54.4032 36.7991 53.9331 38.401 53.9331C39.3968 53.9331 40.275 54.1496 41.0358 54.5825C41.7965 55.0155 42.381 55.637 42.7892 56.4473C43.1974 57.2575 43.4015 58.2069 43.4015 59.2954ZM49.0236 64.6855C47.8051 64.6855 46.8465 64.2124 46.1476 63.2661C45.4549 62.3198 45.1085 61.0086 45.1085 59.3325C45.1085 57.6317 45.4611 56.3081 46.1661 55.3618C46.8774 54.4093 47.8546 53.9331 49.0978 53.9331C50.4028 53.9331 51.3986 54.4403 52.0851 55.4546H52.1779C52.0356 54.6815 51.9645 53.9919 51.9645 53.3857V50.0645H54.8033V64.5H52.6324L52.0851 63.1548H51.9645C51.3212 64.1753 50.3409 64.6855 49.0236 64.6855ZM50.0162 62.4312C50.7399 62.4312 51.2687 62.2209 51.6027 61.8003C51.9428 61.3797 52.1284 60.6654 52.1593 59.6572V59.3511C52.1593 58.2378 51.9861 57.4399 51.6398 56.9575C51.2996 56.4751 50.743 56.2339 49.9698 56.2339C49.339 56.2339 48.8473 56.5029 48.4948 57.041C48.1484 57.5729 47.9752 58.3491 47.9752 59.3696C47.9752 60.3901 48.1515 61.1571 48.504 61.6704C48.8566 62.1776 49.3606 62.4312 50.0162 62.4312ZM65.1105 64.5L64.7301 63.1733H64.5817C64.2786 63.6558 63.8488 64.0299 63.2921 64.2959C62.7355 64.5557 62.1015 64.6855 61.3903 64.6855C60.1718 64.6855 59.2534 64.3608 58.6349 63.7114C58.0164 63.0558 57.7072 62.1157 57.7072 60.8911V54.1279H60.5367V60.186C60.5367 60.9344 60.6697 61.4972 60.9357 61.8745C61.2016 62.2456 61.6253 62.4312 62.2067 62.4312C62.9983 62.4312 63.5704 62.1683 63.923 61.6426C64.2755 61.1107 64.4518 60.2324 64.4518 59.0078V54.1279H67.2814V64.5H65.1105ZM73.0797 64.5H70.2501V50.0645H73.0797V64.5ZM80.3531 55.9463C79.7532 55.9463 79.2832 56.138 78.943 56.5215C78.6028 56.8988 78.408 57.4368 78.3585 58.1357H82.3292C82.3169 57.4368 82.1344 56.8988 81.7819 56.5215C81.4293 56.138 80.9531 55.9463 80.3531 55.9463ZM80.7521 64.6855C79.0822 64.6855 77.7771 64.2248 76.837 63.3032C75.8969 62.3817 75.4269 61.0767 75.4269 59.3882C75.4269 57.6502 75.8598 56.3081 76.7257 55.3618C77.5978 54.4093 78.8007 53.9331 80.3346 53.9331C81.8004 53.9331 82.9415 54.3506 83.7579 55.1855C84.5743 56.0205 84.9825 57.174 84.9825 58.646V60.019H78.2936C78.3245 60.8231 78.5626 61.4508 79.0079 61.9023C79.4532 62.3538 80.0779 62.5796 80.882 62.5796C81.5066 62.5796 82.0973 62.5146 82.6539 62.3848C83.2106 62.2549 83.792 62.0477 84.3981 61.7632V63.9526C83.9033 64.2 83.3745 64.3825 82.8116 64.5C82.2488 64.6237 81.5623 64.6855 80.7521 64.6855ZM94.5197 61.4199C94.5197 62.4837 94.1486 63.2939 93.4064 63.8506C92.6704 64.4072 91.5664 64.6855 90.0944 64.6855C89.3398 64.6855 88.6966 64.633 88.1647 64.5278C87.6328 64.4289 87.1349 64.2804 86.671 64.0825V61.7446C87.1967 61.992 87.7874 62.1992 88.443 62.3662C89.1048 62.5332 89.6862 62.6167 90.1871 62.6167C91.2138 62.6167 91.7272 62.3198 91.7272 61.7261C91.7272 61.5034 91.6591 61.3241 91.5231 61.188C91.387 61.0457 91.152 60.888 90.818 60.7148C90.484 60.5355 90.0387 60.3283 89.4821 60.0933C88.6842 59.7593 88.0966 59.45 87.7194 59.1655C87.3483 58.881 87.0761 58.5563 86.903 58.1914C86.736 57.8203 86.6525 57.3657 86.6525 56.8276C86.6525 55.9061 87.0081 55.1948 87.7194 54.6938C88.4368 54.1867 89.4511 53.9331 90.7623 53.9331C92.0117 53.9331 93.227 54.2052 94.4083 54.7495L93.5548 56.7905C93.0353 56.5679 92.5498 56.3854 92.0983 56.2432C91.6468 56.1009 91.186 56.0298 90.7159 56.0298C89.881 56.0298 89.4635 56.2555 89.4635 56.707C89.4635 56.9606 89.5965 57.1802 89.8624 57.3657C90.1346 57.5513 90.7252 57.8265 91.6344 58.1914C92.4446 58.5192 93.0384 58.8254 93.4156 59.1099C93.7929 59.3944 94.0712 59.7222 94.2506 60.0933C94.43 60.4644 94.5197 60.9066 94.5197 61.4199ZM101.543 51.4468C101.543 50.5252 102.056 50.0645 103.083 50.0645C104.109 50.0645 104.623 50.5252 104.623 51.4468C104.623 51.8859 104.493 52.2292 104.233 52.4766C103.979 52.7178 103.596 52.8384 103.083 52.8384C102.056 52.8384 101.543 52.3745 101.543 51.4468ZM104.493 64.5H101.663V54.1279H104.493V64.5ZM117.045 64.5H114.215V58.4419C114.215 57.6935 114.082 57.1338 113.817 56.7627C113.551 56.3854 113.127 56.1968 112.546 56.1968C111.754 56.1968 111.182 56.4627 110.829 56.9946C110.477 57.5203 110.3 58.3955 110.3 59.6201V64.5H107.471V54.1279H109.632L110.013 55.4546H110.171C110.486 54.9536 110.919 54.5763 111.469 54.3228C112.026 54.063 112.657 53.9331 113.362 53.9331C114.568 53.9331 115.483 54.2609 116.108 54.9165C116.733 55.5659 117.045 56.506 117.045 57.7368V64.5ZM130.859 64.5L127.593 53.8589H127.51C127.627 56.0236 127.686 57.4678 127.686 58.1914V64.5H125.116V50.9365H129.031L132.241 61.3086H132.297L135.702 50.9365H139.617V64.5H136.936V58.0801C136.936 57.777 136.939 57.4276 136.945 57.0317C136.957 56.6359 137.001 55.5845 137.075 53.8774H136.991L133.494 64.5H130.859ZM141.333 54.1279H144.432L146.389 59.9634C146.556 60.4705 146.671 61.0705 146.733 61.7632H146.788C146.856 61.1261 146.989 60.5262 147.187 59.9634L149.108 54.1279H152.141L147.753 65.8267C147.351 66.909 146.776 67.7192 146.027 68.2573C145.285 68.7954 144.416 69.0645 143.421 69.0645C142.932 69.0645 142.453 69.0119 141.983 68.9067V66.6616C142.323 66.742 142.694 66.7822 143.096 66.7822C143.597 66.7822 144.033 66.6276 144.404 66.3184C144.781 66.0153 145.075 65.5545 145.285 64.936L145.452 64.4258L141.333 54.1279ZM170.047 57.5884C170.047 59.8211 169.409 61.5312 168.135 62.7188C166.867 63.9062 165.034 64.5 162.634 64.5H158.793V50.9365H163.051C165.266 50.9365 166.985 51.521 168.21 52.6899C169.434 53.8589 170.047 55.4917 170.047 57.5884ZM167.059 57.6626C167.059 54.7495 165.773 53.293 163.2 53.293H161.669V62.125H162.903C165.674 62.125 167.059 60.6375 167.059 57.6626ZM178.424 53.9331C178.807 53.9331 179.126 53.9609 179.38 54.0166L179.166 56.6699C178.937 56.6081 178.659 56.5771 178.331 56.5771C177.428 56.5771 176.723 56.8091 176.216 57.2729C175.715 57.7368 175.464 58.3862 175.464 59.2212V64.5H172.635V54.1279H174.778L175.195 55.8721H175.335C175.656 55.2907 176.089 54.8237 176.633 54.4712C177.184 54.1125 177.781 53.9331 178.424 53.9331ZM181.142 51.4468C181.142 50.5252 181.656 50.0645 182.682 50.0645C183.709 50.0645 184.222 50.5252 184.222 51.4468C184.222 51.8859 184.092 52.2292 183.833 52.4766C183.579 52.7178 183.196 52.8384 182.682 52.8384C181.656 52.8384 181.142 52.3745 181.142 51.4468ZM184.092 64.5H181.263V54.1279H184.092V64.5ZM189.538 64.5L185.586 54.1279H188.546L190.549 60.0376C190.754 60.6808 190.887 61.389 190.948 62.1621H191.023C191.06 61.4632 191.199 60.755 191.44 60.0376L193.435 54.1279H196.394L192.442 64.5H189.538ZM202.183 55.9463C201.583 55.9463 201.113 56.138 200.773 56.5215C200.433 56.8988 200.238 57.4368 200.189 58.1357H204.159C204.147 57.4368 203.964 56.8988 203.612 56.5215C203.259 56.138 202.783 55.9463 202.183 55.9463ZM202.582 64.6855C200.912 64.6855 199.607 64.2248 198.667 63.3032C197.727 62.3817 197.257 61.0767 197.257 59.3882C197.257 57.6502 197.69 56.3081 198.556 55.3618C199.428 54.4093 200.631 53.9331 202.165 53.9331C203.63 53.9331 204.772 54.3506 205.588 55.1855C206.404 56.0205 206.813 57.174 206.813 58.646V60.019H200.124C200.155 60.8231 200.393 61.4508 200.838 61.9023C201.283 62.3538 201.908 62.5796 202.712 62.5796C203.337 62.5796 203.927 62.5146 204.484 62.3848C205.041 62.2549 205.622 62.0477 206.228 61.7632V63.9526C205.733 64.2 205.205 64.3825 204.642 64.5C204.079 64.6237 203.392 64.6855 202.582 64.6855ZM211.025 60.0005V59.314C211.025 58.9985 211.055 58.714 211.117 58.4604C211.185 58.2007 211.284 57.9564 211.414 57.7275C211.55 57.4925 211.723 57.2668 211.934 57.0503C212.144 56.8276 212.398 56.5988 212.694 56.3638C212.954 56.1597 213.174 55.9772 213.353 55.8164C213.533 55.6556 213.678 55.4979 213.789 55.3433C213.901 55.1825 213.981 55.0155 214.03 54.8423C214.08 54.6691 214.105 54.4681 214.105 54.2393C214.105 53.8867 213.984 53.596 213.743 53.3672C213.508 53.1383 213.146 53.0239 212.657 53.0239C212.231 53.0239 211.77 53.1136 211.275 53.293C210.786 53.4723 210.279 53.6919 209.754 53.9517L208.807 51.9014C209.073 51.7467 209.361 51.6014 209.67 51.4653C209.985 51.3231 210.31 51.1994 210.644 51.0942C210.984 50.9829 211.328 50.8963 211.674 50.8345C212.02 50.7726 212.36 50.7417 212.694 50.7417C213.325 50.7417 213.894 50.819 214.401 50.9736C214.909 51.1221 215.339 51.3416 215.691 51.6323C216.044 51.923 216.313 52.2756 216.498 52.6899C216.69 53.1043 216.786 53.5775 216.786 54.1094C216.786 54.499 216.742 54.8485 216.656 55.1577C216.569 55.4608 216.439 55.7453 216.266 56.0112C216.099 56.271 215.886 56.5246 215.626 56.772C215.373 57.0132 215.076 57.2699 214.735 57.542C214.476 57.7461 214.262 57.9255 214.095 58.0801C213.935 58.2285 213.808 58.3708 213.715 58.5068C213.622 58.6429 213.557 58.7852 213.52 58.9336C213.489 59.0758 213.474 59.2459 213.474 59.4438V60.0005H211.025ZM210.718 63.1733C210.718 62.8826 210.759 62.6383 210.839 62.4404C210.926 62.2363 211.043 62.0724 211.192 61.9487C211.34 61.825 211.513 61.7354 211.711 61.6797C211.915 61.624 212.132 61.5962 212.36 61.5962C212.577 61.5962 212.781 61.624 212.973 61.6797C213.171 61.7354 213.344 61.825 213.492 61.9487C213.641 62.0724 213.758 62.2363 213.845 62.4404C213.931 62.6383 213.975 62.8826 213.975 63.1733C213.975 63.4517 213.931 63.6898 213.845 63.8877C213.758 64.0856 213.641 64.2495 213.492 64.3794C213.344 64.5093 213.171 64.6021 212.973 64.6577C212.781 64.7196 212.577 64.7505 212.36 64.7505C212.132 64.7505 211.915 64.7196 211.711 64.6577C211.513 64.6021 211.34 64.5093 211.192 64.3794C211.043 64.2495 210.926 64.0856 210.839 63.8877C210.759 63.6898 210.718 63.4517 210.718 63.1733Z"></path>
<path stroke-linejoin="round" stroke-miterlimit="10" stroke="#0B233F" fill="#F3F5F8" d="M309 16.667C309 8.56699 315.567 2 323.667 2H536.333C544.433 2 551 8.56699 551 16.667V75.333C551 83.433 544.433 90 536.333 90H323.667C315.567 90 309 83.433 309 75.333V16.667Z" clip-rule="evenodd" fill-rule="evenodd"></path>
<path fill="#0B233F" d="M332.732 53.5L331.1 49.2974H325.719L324.104 53.5H322.379L327.676 39.8809H329.216L334.504 53.5H332.732ZM330.589 47.7852L329.068 43.6753L328.418 41.6436C328.233 42.3857 328.038 43.063 327.834 43.6753L326.294 47.7852H330.589ZM340.229 53.6855C338.763 53.6855 337.622 53.2371 336.805 52.3403C335.989 51.4373 335.581 50.1447 335.581 48.4624C335.581 46.7554 335.992 45.4411 336.814 44.5195C337.643 43.5918 338.821 43.1279 340.349 43.1279C340.844 43.1279 341.333 43.1805 341.815 43.2856C342.304 43.3846 342.706 43.5145 343.021 43.6753L342.511 45.0669C341.651 44.7453 340.918 44.5845 340.312 44.5845C339.285 44.5845 338.528 44.9092 338.039 45.5586C337.55 46.2018 337.306 47.1636 337.306 48.4438C337.306 49.6746 337.55 50.6178 338.039 51.2734C338.528 51.9229 339.251 52.2476 340.21 52.2476C341.107 52.2476 341.988 52.0496 342.854 51.6538V53.1382C342.149 53.5031 341.274 53.6855 340.229 53.6855ZM349.357 53.6855C347.892 53.6855 346.75 53.2371 345.934 52.3403C345.118 51.4373 344.709 50.1447 344.709 48.4624C344.709 46.7554 345.121 45.4411 345.943 44.5195C346.772 43.5918 347.95 43.1279 349.478 43.1279C349.973 43.1279 350.461 43.1805 350.944 43.2856C351.432 43.3846 351.834 43.5145 352.15 43.6753L351.64 45.0669C350.78 44.7453 350.047 44.5845 349.441 44.5845C348.414 44.5845 347.657 44.9092 347.168 45.5586C346.679 46.2018 346.435 47.1636 346.435 48.4438C346.435 49.6746 346.679 50.6178 347.168 51.2734C347.657 51.9229 348.38 52.2476 349.339 52.2476C350.236 52.2476 351.117 52.0496 351.983 51.6538V53.1382C351.278 53.5031 350.403 53.6855 349.357 53.6855ZM358.737 53.6855C357.209 53.6855 356.009 53.2248 355.137 52.3032C354.271 51.3755 353.838 50.1014 353.838 48.481C353.838 46.8481 354.243 45.5493 355.054 44.5845C355.864 43.6134 356.959 43.1279 358.338 43.1279C359.618 43.1279 360.639 43.5423 361.399 44.3711C362.16 45.1937 362.541 46.3101 362.541 47.7202V48.7314H355.564C355.595 49.888 355.889 50.7663 356.445 51.3662C357.002 51.9661 357.791 52.2661 358.811 52.2661C359.355 52.2661 359.872 52.2197 360.36 52.127C360.849 52.028 361.421 51.8394 362.077 51.561V53.0269C361.514 53.2681 360.985 53.4382 360.49 53.5371C359.995 53.6361 359.411 53.6855 358.737 53.6855ZM358.319 44.4917C357.521 44.4917 356.891 44.7484 356.427 45.2617C355.963 45.7751 355.688 46.4894 355.601 47.4048H360.787C360.775 46.4523 360.555 45.7287 360.128 45.2339C359.702 44.7391 359.099 44.4917 358.319 44.4917ZM371.762 50.689C371.762 51.6414 371.407 52.3805 370.695 52.9062C369.984 53.4258 368.985 53.6855 367.699 53.6855C366.357 53.6855 365.29 53.4722 364.498 53.0454V51.5239C365.618 52.0682 366.697 52.3403 367.736 52.3403C368.577 52.3403 369.189 52.2043 369.573 51.9321C369.956 51.66 370.148 51.2951 370.148 50.8374C370.148 50.4354 369.962 50.0952 369.591 49.8169C369.226 49.5386 368.574 49.2201 367.634 48.8613C366.675 48.4902 366.001 48.1748 365.611 47.915C365.222 47.6491 364.934 47.3522 364.749 47.0244C364.569 46.6966 364.479 46.2977 364.479 45.8276C364.479 44.9927 364.82 44.334 365.5 43.8516C366.18 43.3691 367.114 43.1279 368.302 43.1279C369.458 43.1279 370.541 43.3568 371.549 43.8145L370.983 45.1411C369.95 44.7082 369.019 44.4917 368.19 44.4917C367.498 44.4917 366.972 44.603 366.613 44.8257C366.255 45.0422 366.075 45.3421 366.075 45.7256C366.075 46.0967 366.23 46.4059 366.539 46.6533C366.848 46.8945 367.569 47.2316 368.701 47.6646C369.548 47.98 370.173 48.2738 370.575 48.5459C370.983 48.818 371.283 49.1242 371.475 49.4644C371.666 49.8045 371.762 50.2127 371.762 50.689ZM380.873 50.689C380.873 51.6414 380.517 52.3805 379.806 52.9062C379.094 53.4258 378.096 53.6855 376.809 53.6855C375.467 53.6855 374.4 53.4722 373.608 53.0454V51.5239C374.728 52.0682 375.807 52.3403 376.846 52.3403C377.687 52.3403 378.3 52.2043 378.683 51.9321C379.067 51.66 379.258 51.2951 379.258 50.8374C379.258 50.4354 379.073 50.0952 378.702 49.8169C378.337 49.5386 377.684 49.2201 376.744 48.8613C375.785 48.4902 375.111 48.1748 374.722 47.915C374.332 47.6491 374.044 47.3522 373.859 47.0244C373.68 46.6966 373.59 46.2977 373.59 45.8276C373.59 44.9927 373.93 44.334 374.61 43.8516C375.291 43.3691 376.225 43.1279 377.412 43.1279C378.569 43.1279 379.651 43.3568 380.659 43.8145L380.093 45.1411C379.06 44.7082 378.13 44.4917 377.301 44.4917C376.608 44.4917 376.082 44.603 375.724 44.8257C375.365 45.0422 375.186 45.3421 375.186 45.7256C375.186 46.0967 375.34 46.4059 375.649 46.6533C375.959 46.8945 376.679 47.2316 377.811 47.6646C378.658 47.98 379.283 48.2738 379.685 48.5459C380.093 48.818 380.393 49.1242 380.585 49.4644C380.777 49.8045 380.873 50.2127 380.873 50.689ZM394.501 53.5L390.029 41.6064H389.955C390.048 42.596 390.094 43.8175 390.094 45.271V53.5H388.517V39.9365H391.041L395.225 51.0508H395.299L399.557 39.9365H402.062V53.5H400.374V45.1597C400.374 44.2319 400.417 43.0537 400.503 41.625H400.429L395.902 53.5H394.501ZM403.927 43.3135H405.717L407.916 49.1118C408.38 50.3735 408.664 51.2982 408.77 51.8857H408.844C408.899 51.6569 409.026 51.2301 409.224 50.6055C409.422 49.9746 409.589 49.4705 409.725 49.0933L411.794 43.3135H413.594L409.206 54.9102C408.779 56.0358 408.272 56.8429 407.684 57.3315C407.097 57.8201 406.37 58.0645 405.504 58.0645C405.04 58.0645 404.579 58.0119 404.122 57.9067V56.5801C404.431 56.6543 404.802 56.6914 405.235 56.6914C405.767 56.6914 406.218 56.543 406.589 56.2461C406.96 55.9554 407.264 55.5039 407.499 54.8916L408.027 53.5371L403.927 43.3135ZM431.239 46.5884C431.239 48.8273 430.627 50.5405 429.402 51.728C428.184 52.9093 426.434 53.5 424.151 53.5H420.375V39.9365H424.55C426.659 39.9365 428.301 40.5179 429.477 41.6807C430.652 42.8372 431.239 44.4731 431.239 46.5884ZM429.439 46.644C429.439 44.9185 429.013 43.6134 428.159 42.729C427.312 41.8384 426.028 41.3931 424.309 41.3931H422.083V52.0342H423.929C427.603 52.0342 429.439 50.2375 429.439 46.644ZM438.772 43.1279C439.224 43.1279 439.623 43.165 439.969 43.2393L439.765 44.7793C439.388 44.6927 439.02 44.6494 438.661 44.6494C438.123 44.6494 437.622 44.7979 437.158 45.0947C436.701 45.3916 436.342 45.8029 436.082 46.3286C435.822 46.8481 435.692 47.4264 435.692 48.0635V53.5H434.022V43.3135H435.396L435.581 45.1782H435.655C436.045 44.5041 436.506 43.9938 437.038 43.6475C437.569 43.3011 438.148 43.1279 438.772 43.1279ZM443.541 53.5H441.871V43.3135H443.541V53.5ZM441.741 40.5581C441.741 40.187 441.834 39.918 442.02 39.751C442.211 39.584 442.446 39.5005 442.725 39.5005C442.984 39.5005 443.21 39.584 443.402 39.751C443.6 39.918 443.699 40.187 443.699 40.5581C443.699 40.923 443.6 41.1921 443.402 41.3652C443.21 41.5384 442.984 41.625 442.725 41.625C442.446 41.625 442.211 41.5384 442.02 41.3652C441.834 41.1921 441.741 40.923 441.741 40.5581ZM449.015 53.5L445.155 43.3135H446.946L449.107 49.3159C449.534 50.522 449.806 51.4219 449.924 52.0156H449.998C450.017 51.9352 450.038 51.8455 450.063 51.7466C450.094 51.6414 450.128 51.5301 450.165 51.4126C450.202 51.2889 450.431 50.59 450.852 49.3159L453.022 43.3135H454.804L450.935 53.5H449.015ZM460.75 53.6855C459.223 53.6855 458.023 53.2248 457.151 52.3032C456.285 51.3755 455.852 50.1014 455.852 48.481C455.852 46.8481 456.257 45.5493 457.067 44.5845C457.878 43.6134 458.972 43.1279 460.352 43.1279C461.632 43.1279 462.652 43.5423 463.413 44.3711C464.174 45.1937 464.554 46.3101 464.554 47.7202V48.7314H457.578C457.609 49.888 457.902 50.7663 458.459 51.3662C459.016 51.9661 459.804 52.2661 460.825 52.2661C461.369 52.2661 461.885 52.2197 462.374 52.127C462.863 52.028 463.435 51.8394 464.09 51.561V53.0269C463.528 53.2681 462.999 53.4382 462.504 53.5371C462.009 53.6361 461.425 53.6855 460.75 53.6855ZM460.333 44.4917C459.535 44.4917 458.904 44.7484 458.44 45.2617C457.977 45.7751 457.701 46.4894 457.615 47.4048H462.801C462.788 46.4523 462.569 45.7287 462.142 45.2339C461.715 44.7391 461.112 44.4917 460.333 44.4917Z"></path>
<path fill="#E96969" d="M242.5 44.4995H275.366C275.918 44.4995 276.366 44.9475 276.366 45.4995V45.5625L275.366 44.5625H301.566V46.5625H275.366C274.814 46.5625 274.366 46.1145 274.366 45.5625V45.4995L275.366 46.4995H242.5V44.4995ZM300.232 41.5625L308.232 45.5625L300.232 49.5625V41.5625Z"></path>
<path stroke-linejoin="round" stroke-miterlimit="10" stroke="#0B233F" fill="#F3F5F8" d="M617 16.667C617 8.56699 623.567 2 631.667 2H844.333C852.433 2 859 8.56699 859 16.667V75.333C859 83.433 852.433 90 844.333 90H631.667C623.567 90 617 83.433 617 75.333V16.667Z" clip-rule="evenodd" fill-rule="evenodd"></path>
<path fill="#0B233F" d="M639.727 49.8726C639.727 51.0539 639.3 51.9847 638.447 52.665C637.593 53.3454 636.406 53.6855 634.884 53.6855C633.276 53.6855 632.033 53.4722 631.155 53.0454V51.4126C631.73 51.66 632.358 51.8548 633.038 51.9971C633.724 52.1393 634.365 52.2104 634.958 52.2104C635.973 52.2104 636.737 52.0156 637.25 51.626C637.763 51.2363 638.02 50.7013 638.02 50.021C638.02 49.5695 637.927 49.1984 637.742 48.9077C637.556 48.617 637.244 48.3449 636.805 48.0913C636.372 47.8377 635.713 47.5501 634.828 47.2285C633.573 46.7708 632.676 46.2327 632.138 45.6143C631.6 44.9896 631.331 44.1855 631.331 43.2021C631.331 42.1445 631.727 41.3034 632.518 40.6787C633.316 40.054 634.365 39.7417 635.663 39.7417C637.018 39.7417 638.264 39.9953 639.402 40.5024L638.873 41.9683C637.711 41.4858 636.628 41.2446 635.626 41.2446C634.822 41.2446 634.191 41.4178 633.734 41.7642C633.282 42.1105 633.057 42.596 633.057 43.2207C633.057 43.666 633.143 44.0371 633.316 44.334C633.496 44.6247 633.78 44.8906 634.17 45.1318C634.566 45.373 635.184 45.6483 636.025 45.9575C637.033 46.3286 637.785 46.6904 638.28 47.043C638.774 47.3893 639.139 47.7913 639.374 48.249C639.609 48.7005 639.727 49.2417 639.727 49.8726ZM646.564 53.6855C645.037 53.6855 643.837 53.2248 642.965 52.3032C642.099 51.3755 641.666 50.1014 641.666 48.481C641.666 46.8481 642.071 45.5493 642.881 44.5845C643.691 43.6134 644.786 43.1279 646.165 43.1279C647.446 43.1279 648.466 43.5423 649.227 44.3711C649.988 45.1937 650.368 46.3101 650.368 47.7202V48.7314H643.391C643.422 49.888 643.716 50.7663 644.273 51.3662C644.829 51.9661 645.618 52.2661 646.639 52.2661C647.183 52.2661 647.699 52.2197 648.188 52.127C648.676 52.028 649.249 51.8394 649.904 51.561V53.0269C649.341 53.2681 648.813 53.4382 648.318 53.5371C647.823 53.6361 647.238 53.6855 646.564 53.6855ZM646.147 44.4917C645.349 44.4917 644.718 44.7484 644.254 45.2617C643.79 45.7751 643.515 46.4894 643.429 47.4048H648.615C648.602 46.4523 648.383 45.7287 647.956 45.2339C647.529 44.7391 646.926 44.4917 646.147 44.4917ZM659.246 53.5L658.922 52.0527H658.848C658.34 52.6898 657.833 53.1227 657.326 53.3516C656.825 53.5742 656.191 53.6855 655.424 53.6855C654.422 53.6855 653.637 53.4227 653.068 52.897C652.499 52.3713 652.214 51.6291 652.214 50.6704C652.214 48.6047 653.844 47.5223 657.103 47.4233L658.829 47.3584V46.7554C658.829 45.9823 658.662 45.4132 658.328 45.0483C657.994 44.6772 657.459 44.4917 656.723 44.4917C656.185 44.4917 655.675 44.5721 655.192 44.7329C654.716 44.8937 654.268 45.0731 653.847 45.271L653.337 44.0186C653.85 43.7464 654.41 43.533 655.016 43.3784C655.622 43.2238 656.222 43.1465 656.816 43.1465C658.047 43.1465 658.962 43.4186 659.562 43.9629C660.162 44.5072 660.462 45.373 660.462 46.5605V53.5H659.246ZM655.805 52.3403C656.738 52.3403 657.471 52.0898 658.003 51.5889C658.541 51.0817 658.81 50.3643 658.81 49.4365V48.5181L657.307 48.583C656.139 48.6263 655.285 48.8118 654.747 49.1396C654.215 49.4674 653.949 49.9839 653.949 50.689C653.949 51.2209 654.11 51.6291 654.432 51.9136C654.759 52.1981 655.217 52.3403 655.805 52.3403ZM668.375 43.1279C668.827 43.1279 669.226 43.165 669.572 43.2393L669.368 44.7793C668.991 44.6927 668.623 44.6494 668.264 44.6494C667.726 44.6494 667.225 44.7979 666.761 45.0947C666.303 45.3916 665.945 45.8029 665.685 46.3286C665.425 46.8481 665.295 47.4264 665.295 48.0635V53.5H663.625V43.3135H664.998L665.184 45.1782H665.258C665.648 44.5041 666.109 43.9938 666.641 43.6475C667.172 43.3011 667.751 43.1279 668.375 43.1279ZM675.37 53.6855C673.905 53.6855 672.764 53.2371 671.947 52.3403C671.131 51.4373 670.723 50.1447 670.723 48.4624C670.723 46.7554 671.134 45.4411 671.956 44.5195C672.785 43.5918 673.963 43.1279 675.491 43.1279C675.986 43.1279 676.474 43.1805 676.957 43.2856C677.446 43.3846 677.848 43.5145 678.163 43.6753L677.653 45.0669C676.793 44.7453 676.06 44.5845 675.454 44.5845C674.427 44.5845 673.67 44.9092 673.181 45.5586C672.692 46.2018 672.448 47.1636 672.448 48.4438C672.448 49.6746 672.692 50.6178 673.181 51.2734C673.67 51.9229 674.393 52.2476 675.352 52.2476C676.249 52.2476 677.13 52.0496 677.996 51.6538V53.1382C677.291 53.5031 676.416 53.6855 675.37 53.6855ZM687.357 53.5V46.9873C687.357 46.1585 687.171 45.5431 686.8 45.1411C686.435 44.7329 685.86 44.5288 685.075 44.5288C684.042 44.5288 683.284 44.8164 682.802 45.3916C682.325 45.9668 682.087 46.9162 682.087 48.2397V53.5H680.417V39.0645H682.087V43.2949C682.087 43.8516 682.056 44.3278 681.995 44.7236H682.106C682.409 44.2288 682.839 43.8423 683.395 43.564C683.952 43.2856 684.58 43.1465 685.279 43.1465C686.516 43.1465 687.446 43.4434 688.071 44.0371C688.696 44.6247 689.008 45.5679 689.008 46.8667V53.5H687.357ZM698.768 53.5H697.098V43.3135H698.768V53.5ZM696.968 40.5581C696.968 40.187 697.061 39.918 697.246 39.751C697.438 39.584 697.673 39.5005 697.952 39.5005C698.211 39.5005 698.437 39.584 698.629 39.751C698.827 39.918 698.926 40.187 698.926 40.5581C698.926 40.923 698.827 41.1921 698.629 41.3652C698.437 41.5384 698.211 41.625 697.952 41.625C697.673 41.625 697.438 41.5384 697.246 41.3652C697.061 41.1921 696.968 40.923 696.968 40.5581ZM708.936 53.5V46.9873C708.936 46.1585 708.75 45.5431 708.379 45.1411C708.014 44.7329 707.439 44.5288 706.654 44.5288C705.608 44.5288 704.848 44.8195 704.371 45.4009C703.901 45.9761 703.666 46.9162 703.666 48.2212V53.5H701.996V43.3135H703.342L703.592 44.7051H703.685C704 44.2041 704.443 43.8175 705.012 43.5454C705.581 43.2671 706.208 43.1279 706.895 43.1279C708.144 43.1279 709.072 43.431 709.678 44.0371C710.284 44.6432 710.587 45.5864 710.587 46.8667V53.5H708.936ZM724.893 53.5L720.421 41.6064H720.347C720.44 42.596 720.486 43.8175 720.486 45.271V53.5H718.909V39.9365H721.432L725.617 51.0508H725.691L729.949 39.9365H732.454V53.5H730.766V45.1597C730.766 44.2319 730.809 43.0537 730.895 41.625H730.821L726.294 53.5H724.893ZM734.319 43.3135H736.109L738.308 49.1118C738.772 50.3735 739.056 51.2982 739.161 51.8857H739.236C739.291 51.6569 739.418 51.2301 739.616 50.6055C739.814 49.9746 739.981 49.4705 740.117 49.0933L742.186 43.3135H743.986L739.598 54.9102C739.171 56.0358 738.664 56.8429 738.076 57.3315C737.488 57.8201 736.762 58.0645 735.896 58.0645C735.432 58.0645 734.971 58.0119 734.514 57.9067V56.5801C734.823 56.6543 735.194 56.6914 735.627 56.6914C736.159 56.6914 736.61 56.543 736.981 56.2461C737.352 55.9554 737.655 55.5039 737.891 54.8916L738.419 53.5371L734.319 43.3135ZM761.631 46.5884C761.631 48.8273 761.019 50.5405 759.794 51.728C758.576 52.9093 756.826 53.5 754.543 53.5H750.767V39.9365H754.942C757.051 39.9365 758.693 40.5179 759.869 41.6807C761.044 42.8372 761.631 44.4731 761.631 46.5884ZM759.831 46.644C759.831 44.9185 759.405 43.6134 758.551 42.729C757.704 41.8384 756.42 41.3931 754.701 41.3931H752.474V52.0342H754.321C757.995 52.0342 759.831 50.2375 759.831 46.644ZM769.164 43.1279C769.616 43.1279 770.015 43.165 770.361 43.2393L770.157 44.7793C769.78 44.6927 769.412 44.6494 769.053 44.6494C768.515 44.6494 768.014 44.7979 767.55 45.0947C767.092 45.3916 766.734 45.8029 766.474 46.3286C766.214 46.8481 766.084 47.4264 766.084 48.0635V53.5H764.414V43.3135H765.787L765.973 45.1782H766.047C766.437 44.5041 766.898 43.9938 767.43 43.6475C767.961 43.3011 768.54 43.1279 769.164 43.1279ZM773.933 53.5H772.263V43.3135H773.933V53.5ZM772.133 40.5581C772.133 40.187 772.226 39.918 772.411 39.751C772.603 39.584 772.838 39.5005 773.117 39.5005C773.376 39.5005 773.602 39.584 773.794 39.751C773.992 39.918 774.091 40.187 774.091 40.5581C774.091 40.923 773.992 41.1921 773.794 41.3652C773.602 41.5384 773.376 41.625 773.117 41.625C772.838 41.625 772.603 41.5384 772.411 41.3652C772.226 41.1921 772.133 40.923 772.133 40.5581ZM779.407 53.5L775.547 43.3135H777.338L779.499 49.3159C779.926 50.522 780.198 51.4219 780.316 52.0156H780.39C780.409 51.9352 780.43 51.8455 780.455 51.7466C780.486 51.6414 780.52 51.5301 780.557 51.4126C780.594 51.2889 780.823 50.59 781.244 49.3159L783.414 43.3135H785.196L781.327 53.5H779.407ZM791.142 53.6855C789.615 53.6855 788.415 53.2248 787.543 52.3032C786.677 51.3755 786.244 50.1014 786.244 48.481C786.244 46.8481 786.649 45.5493 787.459 44.5845C788.27 43.6134 789.364 43.1279 790.744 43.1279C792.024 43.1279 793.044 43.5423 793.805 44.3711C794.566 45.1937 794.946 46.3101 794.946 47.7202V48.7314H787.97C788.001 49.888 788.294 50.7663 788.851 51.3662C789.408 51.9661 790.196 52.2661 791.217 52.2661C791.761 52.2661 792.277 52.2197 792.766 52.127C793.255 52.028 793.827 51.8394 794.482 51.561V53.0269C793.919 53.2681 793.391 53.4382 792.896 53.5371C792.401 53.6361 791.817 53.6855 791.142 53.6855ZM790.725 44.4917C789.927 44.4917 789.296 44.7484 788.832 45.2617C788.369 45.7751 788.093 46.4894 788.007 47.4048H793.193C793.18 46.4523 792.961 45.7287 792.534 45.2339C792.107 44.7391 791.504 44.4917 790.725 44.4917Z"></path>
<path fill="#E96969" d="M550.5 44.4995H583.366C583.918 44.4995 584.366 44.9475 584.366 45.4995V45.5625L583.366 44.5625H609.566V46.5625H583.366C582.814 46.5625 582.366 46.1145 582.366 45.5625V45.4995L583.366 46.4995H550.5V44.4995ZM608.232 41.5625L616.232 45.5625L608.232 49.5625V41.5625Z"></path>
<path stroke-linejoin="round" stroke-miterlimit="10" stroke="#0B233F" fill="#F3F5F8" d="M925 16.667C925 8.56699 931.57 2 939.67 2H1152.33C1160.43 2 1167 8.56699 1167 16.667V75.333C1167 83.433 1160.43 90 1152.33 90H939.67C931.57 90 925 83.433 925 75.333V16.667Z" clip-rule="evenodd" fill-rule="evenodd"></path>
<path fill="#0B233F" d="M945.654 41.2446C944.194 41.2446 943.047 41.7332 942.212 42.7104C941.377 43.6877 940.959 45.0236 940.959 46.7183C940.959 48.4686 941.365 49.82 942.175 50.7725C942.985 51.7188 944.139 52.1919 945.635 52.1919C946.6 52.1919 947.686 52.0125 948.892 51.6538V53.1382C948.316 53.3485 947.763 53.4907 947.231 53.5649C946.699 53.6453 946.087 53.6855 945.394 53.6855C943.396 53.6855 941.856 53.0794 940.774 51.8672C939.698 50.6488 939.16 48.9263 939.16 46.6997C939.16 45.3019 939.416 44.0773 939.93 43.0259C940.449 41.9744 941.201 41.1642 942.184 40.5952C943.174 40.0262 944.336 39.7417 945.672 39.7417C947.107 39.7417 948.357 40.0076 949.42 40.5396L948.734 41.9868C947.652 41.492 946.625 41.2446 945.654 41.2446ZM956.369 43.1279C956.821 43.1279 957.22 43.165 957.566 43.2393L957.362 44.7793C956.985 44.6927 956.617 44.6494 956.258 44.6494C955.72 44.6494 955.219 44.7979 954.755 45.0947C954.297 45.3916 953.938 45.8029 953.679 46.3286C953.419 46.8481 953.289 47.4264 953.289 48.0635V53.5H951.619V43.3135H952.992L953.178 45.1782H953.252C953.642 44.5041 954.102 43.9938 954.634 43.6475C955.166 43.3011 955.744 43.1279 956.369 43.1279ZM963.615 53.6855C962.087 53.6855 960.887 53.2248 960.015 52.3032C959.149 51.3755 958.716 50.1014 958.716 48.481C958.716 46.8481 959.121 45.5493 959.932 44.5845C960.742 43.6134 961.837 43.1279 963.216 43.1279C964.496 43.1279 965.517 43.5423 966.277 44.3711C967.038 45.1937 967.418 46.3101 967.418 47.7202V48.7314H960.442C960.473 49.888 960.767 50.7663 961.323 51.3662C961.88 51.9661 962.668 52.2661 963.689 52.2661C964.233 52.2661 964.75 52.2197 965.238 52.127C965.727 52.028 966.299 51.8394 966.955 51.561V53.0269C966.392 53.2681 965.863 53.4382 965.368 53.5371C964.873 53.6361 964.289 53.6855 963.615 53.6855ZM963.197 44.4917C962.399 44.4917 961.769 44.7484 961.305 45.2617C960.841 45.7751 960.566 46.4894 960.479 47.4048H965.665C965.653 46.4523 965.433 45.7287 965.006 45.2339C964.58 44.7391 963.977 44.4917 963.197 44.4917ZM976.297 53.5L975.972 52.0527H975.898C975.391 52.6898 974.884 53.1227 974.376 53.3516C973.875 53.5742 973.242 53.6855 972.475 53.6855C971.473 53.6855 970.687 53.4227 970.118 52.897C969.549 52.3713 969.265 51.6291 969.265 50.6704C969.265 48.6047 970.894 47.5223 974.154 47.4233L975.879 47.3584V46.7554C975.879 45.9823 975.712 45.4132 975.378 45.0483C975.044 44.6772 974.509 44.4917 973.773 44.4917C973.235 44.4917 972.725 44.5721 972.243 44.7329C971.766 44.8937 971.318 45.0731 970.897 45.271L970.387 44.0186C970.901 43.7464 971.46 43.533 972.066 43.3784C972.673 43.2238 973.272 43.1465 973.866 43.1465C975.097 43.1465 976.012 43.4186 976.612 43.9629C977.212 44.5072 977.512 45.373 977.512 46.5605V53.5H976.297ZM972.855 52.3403C973.789 52.3403 974.522 52.0898 975.054 51.5889C975.592 51.0817 975.861 50.3643 975.861 49.4365V48.5181L974.358 48.583C973.189 48.6263 972.335 48.8118 971.797 49.1396C971.265 49.4674 971 49.9839 971 50.689C971 51.2209 971.16 51.6291 971.482 51.9136C971.81 52.1981 972.267 52.3403 972.855 52.3403ZM984.081 52.3218C984.297 52.3218 984.551 52.3001 984.841 52.2568C985.132 52.2135 985.352 52.1641 985.5 52.1084V53.3887C985.345 53.4567 985.104 53.5216 984.776 53.5835C984.455 53.6515 984.127 53.6855 983.793 53.6855C981.801 53.6855 980.806 52.6372 980.806 50.5405V44.6123H979.368V43.8145L980.824 43.1465L981.492 40.9756H982.485V43.3135H985.426V44.6123H982.485V50.4941C982.485 51.0817 982.624 51.5332 982.902 51.8486C983.187 52.1641 983.58 52.3218 984.081 52.3218ZM991.874 53.6855C990.346 53.6855 989.146 53.2248 988.274 52.3032C987.408 51.3755 986.975 50.1014 986.975 48.481C986.975 46.8481 987.38 45.5493 988.19 44.5845C989.001 43.6134 990.095 43.1279 991.475 43.1279C992.755 43.1279 993.775 43.5423 994.536 44.3711C995.297 45.1937 995.677 46.3101 995.677 47.7202V48.7314H988.701C988.732 49.888 989.025 50.7663 989.582 51.3662C990.139 51.9661 990.927 52.2661 991.948 52.2661C992.492 52.2661 993.008 52.2197 993.497 52.127C993.986 52.028 994.558 51.8394 995.213 51.561V53.0269C994.651 53.2681 994.122 53.4382 993.627 53.5371C993.132 53.6361 992.548 53.6855 991.874 53.6855ZM991.456 44.4917C990.658 44.4917 990.027 44.7484 989.563 45.2617C989.1 45.7751 988.824 46.4894 988.738 47.4048H993.924C993.911 46.4523 993.692 45.7287 993.265 45.2339C992.838 44.7391 992.235 44.4917 991.456 44.4917ZM1014.19 53.5H1012.19L1004.93 42.2373H1004.85L1004.9 42.9888C1004.97 44.1144 1005.01 45.0916 1005.01 45.9204V53.5H1003.43V39.9365H1005.41L1005.83 40.5952L1010.28 47.479L1012.65 51.1621H1012.72C1012.71 51.0137 1012.68 50.4849 1012.65 49.5757C1012.61 48.6603 1012.59 47.9985 1012.59 47.5903V39.9365H1014.19V53.5ZM1021.97 53.6855C1020.44 53.6855 1019.24 53.2248 1018.37 52.3032C1017.5 51.3755 1017.07 50.1014 1017.07 48.481C1017.07 46.8481 1017.48 45.5493 1018.29 44.5845C1019.1 43.6134 1020.19 43.1279 1021.57 43.1279C1022.85 43.1279 1023.87 43.5423 1024.63 44.3711C1025.39 45.1937 1025.77 46.3101 1025.77 47.7202V48.7314H1018.8C1018.83 49.888 1019.12 50.7663 1019.68 51.3662C1020.23 51.9661 1021.02 52.2661 1022.04 52.2661C1022.59 52.2661 1023.1 52.2197 1023.59 52.127C1024.08 52.028 1024.65 51.8394 1025.31 51.561V53.0269C1024.75 53.2681 1024.22 53.4382 1023.72 53.5371C1023.23 53.6361 1022.64 53.6855 1021.97 53.6855ZM1021.55 44.4917C1020.75 44.4917 1020.12 44.7484 1019.66 45.2617C1019.2 45.7751 1018.92 46.4894 1018.83 47.4048H1024.02C1024.01 46.4523 1023.79 45.7287 1023.36 45.2339C1022.93 44.7391 1022.33 44.4917 1021.55 44.4917ZM1036.5 53.5L1034.75 47.7666C1034.59 47.2904 1034.36 46.3905 1034.05 45.0669H1033.97C1033.71 46.2729 1033.49 47.179 1033.29 47.7852L1031.46 53.5H1029.57L1026.77 43.3135H1028.5C1029.14 45.8184 1029.63 47.7233 1029.97 49.0283C1030.31 50.3333 1030.51 51.2549 1030.57 51.793H1030.64L1030.77 51.2178C1030.97 50.3333 1031.15 49.6128 1031.33 49.0562L1033.14 43.3135H1034.96L1036.71 49.0562C1036.77 49.2726 1036.84 49.5046 1036.91 49.752C1036.98 49.9932 1037.05 50.2344 1037.11 50.4756C1037.17 50.7106 1037.23 50.9425 1037.28 51.1714C1037.33 51.394 1037.36 51.5951 1037.39 51.7744H1037.47C1037.53 51.3044 1037.75 50.2962 1038.15 48.75L1039.58 43.3135H1041.28L1038.46 53.5H1036.5ZM1049.99 53.5H1048.28V39.9365H1055.86V41.4395H1049.99V46.2451H1055.5V47.7388H1049.99V53.5ZM1066.77 48.3882C1066.77 50.0519 1066.35 51.3507 1065.51 52.2847C1064.67 53.2186 1063.5 53.6855 1062.02 53.6855C1061.1 53.6855 1060.28 53.4722 1059.57 53.0454C1058.86 52.6125 1058.31 51.994 1057.93 51.1899C1057.54 50.3859 1057.35 49.452 1057.35 48.3882C1057.35 46.7306 1057.77 45.4411 1058.6 44.5195C1059.42 43.5918 1060.59 43.1279 1062.08 43.1279C1063.52 43.1279 1064.66 43.6011 1065.5 44.5474C1066.35 45.4875 1066.77 46.7677 1066.77 48.3882ZM1059.08 48.3882C1059.08 49.6685 1059.33 50.6426 1059.83 51.3105C1060.34 51.9723 1061.08 52.3032 1062.07 52.3032C1063.04 52.3032 1063.78 51.9723 1064.28 51.3105C1064.79 50.6426 1065.04 49.6685 1065.04 48.3882C1065.04 47.1079 1064.79 46.1462 1064.27 45.5029C1063.77 44.8535 1063.02 44.5288 1062.04 44.5288C1060.07 44.5288 1059.08 45.8153 1059.08 48.3882ZM1071.09 53.5H1069.42V39.0645H1071.09V53.5ZM1077.93 53.6855C1076.61 53.6855 1075.58 53.2279 1074.85 52.3125C1074.12 51.3971 1073.76 50.1014 1073.76 48.4253C1073.76 46.7616 1074.12 45.4627 1074.85 44.5288C1075.59 43.5949 1076.62 43.1279 1077.95 43.1279C1079.32 43.1279 1080.37 43.6289 1081.1 44.6309H1081.22C1081.21 44.5072 1081.18 44.2598 1081.15 43.8887C1081.12 43.5114 1081.1 43.2578 1081.1 43.1279V39.0645H1082.77V53.5H1081.43L1081.18 52.1362H1081.1C1080.39 53.1691 1079.33 53.6855 1077.93 53.6855ZM1078.2 52.3032C1079.21 52.3032 1079.95 52.028 1080.42 51.4775C1080.89 50.9209 1081.12 50.0117 1081.12 48.75V48.4438C1081.12 47.0275 1080.88 46.0194 1080.41 45.4194C1079.94 44.8133 1079.19 44.5103 1078.18 44.5103C1077.32 44.5103 1076.66 44.8535 1076.19 45.54C1075.72 46.2204 1075.48 47.1945 1075.48 48.4624C1075.48 49.7241 1075.71 50.6797 1076.18 51.3291C1076.65 51.9785 1077.32 52.3032 1078.2 52.3032ZM1090.34 53.6855C1088.82 53.6855 1087.62 53.2248 1086.74 52.3032C1085.88 51.3755 1085.44 50.1014 1085.44 48.481C1085.44 46.8481 1085.85 45.5493 1086.66 44.5845C1087.47 43.6134 1088.57 43.1279 1089.94 43.1279C1091.22 43.1279 1092.25 43.5423 1093.01 44.3711C1093.77 45.1937 1094.15 46.3101 1094.15 47.7202V48.7314H1087.17C1087.2 49.888 1087.5 50.7663 1088.05 51.3662C1088.61 51.9661 1089.4 52.2661 1090.42 52.2661C1090.96 52.2661 1091.48 52.2197 1091.97 52.127C1092.46 52.028 1093.03 51.8394 1093.68 51.561V53.0269C1093.12 53.2681 1092.59 53.4382 1092.1 53.5371C1091.6 53.6361 1091.02 53.6855 1090.34 53.6855ZM1089.93 44.4917C1089.13 44.4917 1088.5 44.7484 1088.03 45.2617C1087.57 45.7751 1087.29 46.4894 1087.21 47.4048H1092.39C1092.38 46.4523 1092.16 45.7287 1091.73 45.2339C1091.31 44.7391 1090.71 44.4917 1089.93 44.4917ZM1101.49 43.1279C1101.94 43.1279 1102.34 43.165 1102.68 43.2393L1102.48 44.7793C1102.1 44.6927 1101.73 44.6494 1101.37 44.6494C1100.84 44.6494 1100.33 44.7979 1099.87 45.0947C1099.41 45.3916 1099.05 45.8029 1098.79 46.3286C1098.54 46.8481 1098.41 47.4264 1098.41 48.0635V53.5H1096.74V43.3135H1098.11L1098.29 45.1782H1098.37C1098.76 44.5041 1099.22 43.9938 1099.75 43.6475C1100.28 43.3011 1100.86 43.1279 1101.49 43.1279ZM1111.22 50.689C1111.22 51.6414 1110.86 52.3805 1110.15 52.9062C1109.44 53.4258 1108.44 53.6855 1107.15 53.6855C1105.81 53.6855 1104.74 53.4722 1103.95 53.0454V51.5239C1105.07 52.0682 1106.15 52.3403 1107.19 52.3403C1108.03 52.3403 1108.64 52.2043 1109.03 51.9321C1109.41 51.66 1109.6 51.2951 1109.6 50.8374C1109.6 50.4354 1109.42 50.0952 1109.05 49.8169C1108.68 49.5386 1108.03 49.2201 1107.09 48.8613C1106.13 48.4902 1105.46 48.1748 1105.07 47.915C1104.68 47.6491 1104.39 47.3522 1104.2 47.0244C1104.02 46.6966 1103.93 46.2977 1103.93 45.8276C1103.93 44.9927 1104.27 44.334 1104.96 43.8516C1105.64 43.3691 1106.57 43.1279 1107.76 43.1279C1108.91 43.1279 1110 43.3568 1111 43.8145L1110.44 45.1411C1109.41 44.7082 1108.47 44.4917 1107.65 44.4917C1106.95 44.4917 1106.43 44.603 1106.07 44.8257C1105.71 45.0422 1105.53 45.3421 1105.53 45.7256C1105.53 46.0967 1105.68 46.4059 1105.99 46.6533C1106.3 46.8945 1107.02 47.2316 1108.16 47.6646C1109 47.98 1109.63 48.2738 1110.03 48.5459C1110.44 48.818 1110.74 49.1242 1110.93 49.4644C1111.12 49.8045 1111.22 50.2127 1111.22 50.689Z"></path>
<path stroke-linejoin="round" stroke-miterlimit="10" stroke="#0B233F" fill="#F3F5F8" d="M1233 15.667C1233 7.56699 1239.57 1 1247.67 1H1460.33C1468.43 1 1475 7.56699 1475 15.667V74.333C1475 82.433 1468.43 89 1460.33 89H1247.67C1239.57 89 1233 82.433 1233 74.333V15.667Z" clip-rule="evenodd" fill-rule="evenodd"></path>
<path fill="#0B233F" d="M1258.71 45.5884C1258.71 47.8273 1258.1 49.5405 1256.87 50.728C1255.65 51.9093 1253.9 52.5 1251.62 52.5H1247.85V38.9365H1252.02C1254.13 38.9365 1255.77 39.5179 1256.95 40.6807C1258.12 41.8372 1258.71 43.4731 1258.71 45.5884ZM1256.91 45.644C1256.91 43.9185 1256.48 42.6134 1255.63 41.729C1254.78 40.8384 1253.5 40.3931 1251.78 40.3931H1249.55V51.0342H1251.4C1255.07 51.0342 1256.91 49.2375 1256.91 45.644ZM1265.83 52.6855C1264.3 52.6855 1263.1 52.2248 1262.23 51.3032C1261.36 50.3755 1260.93 49.1014 1260.93 47.481C1260.93 45.8481 1261.33 44.5493 1262.14 43.5845C1262.95 42.6134 1264.05 42.1279 1265.43 42.1279C1266.71 42.1279 1267.73 42.5423 1268.49 43.3711C1269.25 44.1937 1269.63 45.3101 1269.63 46.7202V47.7314H1262.65C1262.68 48.888 1262.98 49.7663 1263.53 50.3662C1264.09 50.9661 1264.88 51.2661 1265.9 51.2661C1266.44 51.2661 1266.96 51.2197 1267.45 51.127C1267.94 51.028 1268.51 50.8394 1269.17 50.561V52.0269C1268.6 52.2681 1268.07 52.4382 1267.58 52.5371C1267.08 52.6361 1266.5 52.6855 1265.83 52.6855ZM1265.41 43.4917C1264.61 43.4917 1263.98 43.7484 1263.52 44.2617C1263.05 44.7751 1262.78 45.4894 1262.69 46.4048H1267.88C1267.86 45.4523 1267.64 44.7287 1267.22 44.2339C1266.79 43.7391 1266.19 43.4917 1265.41 43.4917ZM1273.89 52.5H1272.22V38.0645H1273.89V52.5ZM1281.45 52.6855C1279.92 52.6855 1278.72 52.2248 1277.85 51.3032C1276.98 50.3755 1276.55 49.1014 1276.55 47.481C1276.55 45.8481 1276.96 44.5493 1277.77 43.5845C1278.58 42.6134 1279.67 42.1279 1281.05 42.1279C1282.33 42.1279 1283.35 42.5423 1284.11 43.3711C1284.87 44.1937 1285.25 45.3101 1285.25 46.7202V47.7314H1278.28C1278.31 48.888 1278.6 49.7663 1279.16 50.3662C1279.71 50.9661 1280.5 51.2661 1281.52 51.2661C1282.07 51.2661 1282.58 51.2197 1283.07 51.127C1283.56 51.028 1284.13 50.8394 1284.79 50.561V52.0269C1284.23 52.2681 1283.7 52.4382 1283.2 52.5371C1282.71 52.6361 1282.12 52.6855 1281.45 52.6855ZM1281.03 43.4917C1280.23 43.4917 1279.6 43.7484 1279.14 44.2617C1278.67 44.7751 1278.4 45.4894 1278.31 46.4048H1283.5C1283.49 45.4523 1283.27 44.7287 1282.84 44.2339C1282.41 43.7391 1281.81 43.4917 1281.03 43.4917ZM1291.25 51.3218C1291.46 51.3218 1291.72 51.3001 1292.01 51.2568C1292.3 51.2135 1292.52 51.1641 1292.67 51.1084V52.3887C1292.51 52.4567 1292.27 52.5216 1291.94 52.5835C1291.62 52.6515 1291.29 52.6855 1290.96 52.6855C1288.97 52.6855 1287.97 51.6372 1287.97 49.5405V43.6123H1286.53V42.8145L1287.99 42.1465L1288.66 39.9756H1289.65V42.3135H1292.59V43.6123H1289.65V49.4941C1289.65 50.0817 1289.79 50.5332 1290.07 50.8486C1290.35 51.1641 1290.74 51.3218 1291.25 51.3218ZM1299.04 52.6855C1297.51 52.6855 1296.31 52.2248 1295.44 51.3032C1294.57 50.3755 1294.14 49.1014 1294.14 47.481C1294.14 45.8481 1294.55 44.5493 1295.36 43.5845C1296.17 42.6134 1297.26 42.1279 1298.64 42.1279C1299.92 42.1279 1300.94 42.5423 1301.7 43.3711C1302.46 44.1937 1302.84 45.3101 1302.84 46.7202V47.7314H1295.87C1295.9 48.888 1296.19 49.7663 1296.75 50.3662C1297.3 50.9661 1298.09 51.2661 1299.11 51.2661C1299.66 51.2661 1300.17 51.2197 1300.66 51.127C1301.15 51.028 1301.72 50.8394 1302.38 50.561V52.0269C1301.82 52.2681 1301.29 52.4382 1300.79 52.5371C1300.3 52.6361 1299.71 52.6855 1299.04 52.6855ZM1298.62 43.4917C1297.82 43.4917 1297.19 43.7484 1296.73 44.2617C1296.26 44.7751 1295.99 45.4894 1295.9 46.4048H1301.09C1301.08 45.4523 1300.86 44.7287 1300.43 44.2339C1300 43.7391 1299.4 43.4917 1298.62 43.4917ZM1312.31 45.4492H1314.34C1315.44 45.4492 1316.24 45.2327 1316.75 44.7998C1317.26 44.3669 1317.51 43.7236 1317.51 42.8701C1317.51 42.0166 1317.25 41.395 1316.74 41.0054C1316.23 40.6095 1315.39 40.4116 1314.24 40.4116H1312.31V45.4492ZM1312.31 46.8965V52.5H1310.6V38.9365H1314.34C1316.02 38.9365 1317.26 39.2581 1318.07 39.9014C1318.88 40.5384 1319.28 41.5002 1319.28 42.7866C1319.28 44.5864 1318.38 45.7987 1316.56 46.4233L1320.28 52.5H1318.29L1315 46.8965H1312.31ZM1326.52 52.6855C1324.99 52.6855 1323.79 52.2248 1322.92 51.3032C1322.05 50.3755 1321.62 49.1014 1321.62 47.481C1321.62 45.8481 1322.02 44.5493 1322.83 43.5845C1323.65 42.6134 1324.74 42.1279 1326.12 42.1279C1327.4 42.1279 1328.42 42.5423 1329.18 43.3711C1329.94 44.1937 1330.32 45.3101 1330.32 46.7202V47.7314H1323.35C1323.38 48.888 1323.67 49.7663 1324.23 50.3662C1324.78 50.9661 1325.57 51.2661 1326.59 51.2661C1327.14 51.2661 1327.65 51.2197 1328.14 51.127C1328.63 51.028 1329.2 50.8394 1329.86 50.561V52.0269C1329.3 52.2681 1328.77 52.4382 1328.27 52.5371C1327.78 52.6361 1327.19 52.6855 1326.52 52.6855ZM1326.1 43.4917C1325.3 43.4917 1324.67 43.7484 1324.21 44.2617C1323.74 44.7751 1323.47 45.4894 1323.38 46.4048H1328.57C1328.56 45.4523 1328.34 44.7287 1327.91 44.2339C1327.48 43.7391 1326.88 43.4917 1326.1 43.4917ZM1339.54 49.689C1339.54 50.6414 1339.19 51.3805 1338.48 51.9062C1337.77 52.4258 1336.77 52.6855 1335.48 52.6855C1334.14 52.6855 1333.07 52.4722 1332.28 52.0454V50.5239C1333.4 51.0682 1334.48 51.3403 1335.52 51.3403C1336.36 51.3403 1336.97 51.2043 1337.35 50.9321C1337.74 50.66 1337.93 50.2951 1337.93 49.8374C1337.93 49.4354 1337.74 49.0952 1337.37 48.8169C1337.01 48.5386 1336.36 48.2201 1335.42 47.8613C1334.46 47.4902 1333.78 47.1748 1333.39 46.915C1333 46.6491 1332.72 46.3522 1332.53 46.0244C1332.35 45.6966 1332.26 45.2977 1332.26 44.8276C1332.26 43.9927 1332.6 43.334 1333.28 42.8516C1333.96 42.3691 1334.9 42.1279 1336.08 42.1279C1337.24 42.1279 1338.32 42.3568 1339.33 42.8145L1338.76 44.1411C1337.73 43.7082 1336.8 43.4917 1335.97 43.4917C1335.28 43.4917 1334.75 43.603 1334.39 43.8257C1334.04 44.0422 1333.86 44.3421 1333.86 44.7256C1333.86 45.0967 1334.01 45.4059 1334.32 45.6533C1334.63 45.8945 1335.35 46.2316 1336.48 46.6646C1337.33 46.98 1337.95 47.2738 1338.36 47.5459C1338.76 47.818 1339.06 48.1242 1339.26 48.4644C1339.45 48.8045 1339.54 49.2127 1339.54 49.689ZM1350.87 47.3882C1350.87 49.0519 1350.45 50.3507 1349.61 51.2847C1348.77 52.2186 1347.61 52.6855 1346.12 52.6855C1345.2 52.6855 1344.38 52.4722 1343.67 52.0454C1342.96 51.6125 1342.41 50.994 1342.03 50.1899C1341.65 49.3859 1341.45 48.452 1341.45 47.3882C1341.45 45.7306 1341.87 44.4411 1342.7 43.5195C1343.53 42.5918 1344.69 42.1279 1346.19 42.1279C1347.62 42.1279 1348.76 42.6011 1349.6 43.5474C1350.45 44.4875 1350.87 45.7677 1350.87 47.3882ZM1343.18 47.3882C1343.18 48.6685 1343.43 49.6426 1343.93 50.3105C1344.44 50.9723 1345.18 51.3032 1346.17 51.3032C1347.14 51.3032 1347.88 50.9723 1348.38 50.3105C1348.89 49.6426 1349.15 48.6685 1349.15 47.3882C1349.15 46.1079 1348.89 45.1462 1348.38 44.5029C1347.87 43.8535 1347.12 43.5288 1346.14 43.5288C1344.17 43.5288 1343.18 44.8153 1343.18 47.3882ZM1355.1 42.3135V48.8726C1355.1 49.6951 1355.28 50.3075 1355.65 50.7095C1356.02 51.1053 1356.59 51.3032 1357.37 51.3032C1358.41 51.3032 1359.17 51.0125 1359.65 50.4312C1360.12 49.8498 1360.36 48.9128 1360.36 47.6201V42.3135H1362.04V52.5H1360.67L1360.43 51.1548H1360.34C1360.04 51.6434 1359.61 52.0207 1359.05 52.2866C1358.5 52.5526 1357.85 52.6855 1357.11 52.6855C1355.89 52.6855 1354.97 52.3918 1354.34 51.8042C1353.72 51.2166 1353.41 50.2765 1353.41 48.9839V42.3135H1355.1ZM1370.02 42.1279C1370.47 42.1279 1370.87 42.165 1371.22 42.2393L1371.01 43.7793C1370.63 43.6927 1370.27 43.6494 1369.91 43.6494C1369.37 43.6494 1368.87 43.7979 1368.41 44.0947C1367.95 44.3916 1367.59 44.8029 1367.33 45.3286C1367.07 45.8481 1366.94 46.4264 1366.94 47.0635V52.5H1365.27V42.3135H1366.64L1366.83 44.1782H1366.9C1367.29 43.5041 1367.75 42.9938 1368.28 42.6475C1368.82 42.3011 1369.39 42.1279 1370.02 42.1279ZM1377.01 52.6855C1375.55 52.6855 1374.41 52.2371 1373.59 51.3403C1372.77 50.4373 1372.37 49.1447 1372.37 47.4624C1372.37 45.7554 1372.78 44.4411 1373.6 43.5195C1374.43 42.5918 1375.61 42.1279 1377.14 42.1279C1377.63 42.1279 1378.12 42.1805 1378.6 42.2856C1379.09 42.3846 1379.49 42.5145 1379.81 42.6753L1379.3 44.0669C1378.44 43.7453 1377.7 43.5845 1377.1 43.5845C1376.07 43.5845 1375.31 43.9092 1374.83 44.5586C1374.34 45.2018 1374.09 46.1636 1374.09 47.4438C1374.09 48.6746 1374.34 49.6178 1374.83 50.2734C1375.31 50.9229 1376.04 51.2476 1377 51.2476C1377.89 51.2476 1378.77 51.0496 1379.64 50.6538V52.1382C1378.94 52.5031 1378.06 52.6855 1377.01 52.6855ZM1386.39 52.6855C1384.87 52.6855 1383.67 52.2248 1382.79 51.3032C1381.93 50.3755 1381.5 49.1014 1381.5 47.481C1381.5 45.8481 1381.9 44.5493 1382.71 43.5845C1383.52 42.6134 1384.62 42.1279 1386 42.1279C1387.28 42.1279 1388.3 42.5423 1389.06 43.3711C1389.82 44.1937 1390.2 45.3101 1390.2 46.7202V47.7314H1383.22C1383.25 48.888 1383.55 49.7663 1384.1 50.3662C1384.66 50.9661 1385.45 51.2661 1386.47 51.2661C1387.01 51.2661 1387.53 51.2197 1388.02 51.127C1388.51 51.028 1389.08 50.8394 1389.73 50.561V52.0269C1389.17 52.2681 1388.64 52.4382 1388.15 52.5371C1387.65 52.6361 1387.07 52.6855 1386.39 52.6855ZM1385.98 43.4917C1385.18 43.4917 1384.55 43.7484 1384.08 44.2617C1383.62 44.7751 1383.34 45.4894 1383.26 46.4048H1388.44C1388.43 45.4523 1388.21 44.7287 1387.79 44.2339C1387.36 43.7391 1386.76 43.4917 1385.98 43.4917ZM1399.42 49.689C1399.42 50.6414 1399.06 51.3805 1398.35 51.9062C1397.64 52.4258 1396.64 52.6855 1395.36 52.6855C1394.01 52.6855 1392.95 52.4722 1392.16 52.0454V50.5239C1393.27 51.0682 1394.35 51.3403 1395.39 51.3403C1396.23 51.3403 1396.85 51.2043 1397.23 50.9321C1397.61 50.66 1397.81 50.2951 1397.81 49.8374C1397.81 49.4354 1397.62 49.0952 1397.25 48.8169C1396.88 48.5386 1396.23 48.2201 1395.29 47.8613C1394.33 47.4902 1393.66 47.1748 1393.27 46.915C1392.88 46.6491 1392.59 46.3522 1392.41 46.0244C1392.23 45.6966 1392.14 45.2977 1392.14 44.8276C1392.14 43.9927 1392.48 43.334 1393.16 42.8516C1393.84 42.3691 1394.77 42.1279 1395.96 42.1279C1397.12 42.1279 1398.2 42.3568 1399.21 42.8145L1398.64 44.1411C1397.61 43.7082 1396.68 43.4917 1395.85 43.4917C1395.15 43.4917 1394.63 43.603 1394.27 43.8257C1393.91 44.0422 1393.73 44.3421 1393.73 44.7256C1393.73 45.0967 1393.89 45.4059 1394.2 45.6533C1394.51 45.8945 1395.23 46.2316 1396.36 46.6646C1397.21 46.98 1397.83 47.2738 1398.23 47.5459C1398.64 47.818 1398.94 48.1242 1399.13 48.4644C1399.32 48.8045 1399.42 49.2127 1399.42 49.689Z"></path>
<path stroke-linejoin="round" stroke-miterlimit="10" stroke="#0B233F" fill="#F3F5F8" d="M925 124.667C925 116.567 931.57 110 939.67 110H1152.33C1160.43 110 1167 116.567 1167 124.667V183.333C1167 191.433 1160.43 198 1152.33 198H939.67C931.57 198 925 191.433 925 183.333V124.667Z" clip-rule="evenodd" fill-rule="evenodd"></path>
<path fill="#0B233F" d="M938 136.937H939.791L942.843 145.639C943.232 146.74 943.517 147.726 943.696 148.598C943.851 147.819 944.139 146.82 944.559 145.602L947.593 136.937H949.402L944.559 150.5H942.843L938 136.937ZM952.695 150.5H951.025V140.313H952.695V150.5ZM950.896 137.558C950.896 137.187 950.988 136.918 951.174 136.751C951.366 136.584 951.601 136.5 951.879 136.5C952.139 136.5 952.364 136.584 952.556 136.751C952.754 136.918 952.853 137.187 952.853 137.558C952.853 137.923 952.754 138.192 952.556 138.365C952.364 138.538 952.139 138.625 951.879 138.625C951.601 138.625 951.366 138.538 951.174 138.365C950.988 138.192 950.896 137.923 950.896 137.558ZM960.256 150.686C958.729 150.686 957.529 150.225 956.657 149.303C955.791 148.375 955.358 147.101 955.358 145.481C955.358 143.848 955.763 142.549 956.573 141.584C957.383 140.613 958.478 140.128 959.857 140.128C961.138 140.128 962.158 140.542 962.919 141.371C963.68 142.194 964.06 143.31 964.06 144.72V145.731H957.083C957.114 146.888 957.408 147.766 957.965 148.366C958.521 148.966 959.31 149.266 960.331 149.266C960.875 149.266 961.391 149.22 961.88 149.127C962.368 149.028 962.941 148.839 963.596 148.561V150.027C963.033 150.268 962.505 150.438 962.01 150.537C961.515 150.636 960.931 150.686 960.256 150.686ZM959.839 141.492C959.041 141.492 958.41 141.748 957.946 142.262C957.482 142.775 957.207 143.489 957.121 144.405H962.307C962.294 143.452 962.075 142.729 961.648 142.234C961.221 141.739 960.618 141.492 959.839 141.492ZM974.785 150.5L973.041 144.767C972.88 144.29 972.645 143.39 972.335 142.067H972.261C972.001 143.273 971.773 144.179 971.575 144.785L969.747 150.5H967.854L965.062 140.313H966.788C967.431 142.818 967.919 144.723 968.253 146.028C968.594 147.333 968.795 148.255 968.856 148.793H968.931L969.061 148.218C969.252 147.333 969.438 146.613 969.617 146.056L971.426 140.313H973.245L974.998 146.056C975.06 146.273 975.125 146.505 975.193 146.752C975.267 146.993 975.335 147.234 975.397 147.476C975.459 147.711 975.514 147.943 975.564 148.171C975.613 148.394 975.651 148.595 975.675 148.774H975.759C975.814 148.304 976.04 147.296 976.436 145.75L977.865 140.313H979.572L976.742 150.5H974.785ZM992.551 150.5L988.079 138.606H988.005C988.098 139.596 988.144 140.818 988.144 142.271V150.5H986.567V136.937H989.09L993.274 148.051H993.349L997.607 136.937H1000.11V150.5H998.423V142.16C998.423 141.232 998.467 140.054 998.553 138.625H998.479L993.952 150.5H992.551ZM1012.42 145.388C1012.42 147.052 1012 148.351 1011.16 149.285C1010.32 150.219 1009.16 150.686 1007.67 150.686C1006.75 150.686 1005.93 150.472 1005.22 150.045C1004.51 149.612 1003.97 148.994 1003.58 148.19C1003.2 147.386 1003.01 146.452 1003.01 145.388C1003.01 143.731 1003.42 142.441 1004.25 141.52C1005.08 140.592 1006.24 140.128 1007.74 140.128C1009.17 140.128 1010.31 140.601 1011.15 141.547C1012 142.487 1012.42 143.768 1012.42 145.388ZM1004.73 145.388C1004.73 146.668 1004.98 147.643 1005.48 148.311C1005.99 148.972 1006.74 149.303 1007.72 149.303C1008.69 149.303 1009.43 148.972 1009.94 148.311C1010.44 147.643 1010.7 146.668 1010.7 145.388C1010.7 144.108 1010.44 143.146 1009.93 142.503C1009.42 141.854 1008.67 141.529 1007.69 141.529C1005.72 141.529 1004.73 142.815 1004.73 145.388ZM1018.69 150.686C1017.36 150.686 1016.33 150.228 1015.6 149.312C1014.88 148.397 1014.51 147.101 1014.51 145.425C1014.51 143.762 1014.88 142.463 1015.6 141.529C1016.34 140.595 1017.37 140.128 1018.7 140.128C1020.07 140.128 1021.12 140.629 1021.86 141.631H1021.98C1021.96 141.507 1021.94 141.26 1021.9 140.889C1021.87 140.511 1021.86 140.258 1021.86 140.128V136.064H1023.53V150.5H1022.18L1021.93 149.136H1021.86C1021.15 150.169 1020.09 150.686 1018.69 150.686ZM1018.95 149.303C1019.97 149.303 1020.71 149.028 1021.17 148.478C1021.64 147.921 1021.88 147.012 1021.88 145.75V145.444C1021.88 144.028 1021.64 143.019 1021.16 142.419C1020.69 141.813 1019.95 141.51 1018.94 141.51C1018.08 141.51 1017.41 141.854 1016.94 142.54C1016.47 143.22 1016.24 144.194 1016.24 145.462C1016.24 146.724 1016.47 147.68 1016.93 148.329C1017.4 148.979 1018.08 149.303 1018.95 149.303ZM1028.34 140.313V146.873C1028.34 147.695 1028.53 148.307 1028.89 148.709C1029.26 149.105 1029.83 149.303 1030.61 149.303C1031.65 149.303 1032.41 149.013 1032.89 148.431C1033.36 147.85 1033.6 146.913 1033.6 145.62V140.313H1035.28V150.5H1033.91L1033.67 149.155H1033.58C1033.28 149.643 1032.85 150.021 1032.29 150.287C1031.74 150.553 1031.09 150.686 1030.36 150.686C1029.13 150.686 1028.21 150.392 1027.58 149.804C1026.96 149.217 1026.65 148.277 1026.65 146.984V140.313H1028.34ZM1040.18 150.5H1038.51V136.064H1040.18V150.5ZM1047.74 150.686C1046.21 150.686 1045.01 150.225 1044.14 149.303C1043.28 148.375 1042.84 147.101 1042.84 145.481C1042.84 143.848 1043.25 142.549 1044.06 141.584C1044.87 140.613 1045.96 140.128 1047.34 140.128C1048.62 140.128 1049.64 140.542 1050.4 141.371C1051.17 142.194 1051.55 143.31 1051.55 144.72V145.731H1044.57C1044.6 146.888 1044.89 147.766 1045.45 148.366C1046.01 148.966 1046.8 149.266 1047.82 149.266C1048.36 149.266 1048.88 149.22 1049.37 149.127C1049.85 149.028 1050.43 148.839 1051.08 148.561V150.027C1050.52 150.268 1049.99 150.438 1049.5 150.537C1049 150.636 1048.42 150.686 1047.74 150.686ZM1047.32 141.492C1046.53 141.492 1045.9 141.748 1045.43 142.262C1044.97 142.775 1044.69 143.489 1044.61 144.405H1049.79C1049.78 143.452 1049.56 142.729 1049.13 142.234C1048.71 141.739 1048.1 141.492 1047.32 141.492ZM1060.77 147.689C1060.77 148.641 1060.41 149.381 1059.7 149.906C1058.99 150.426 1057.99 150.686 1056.7 150.686C1055.36 150.686 1054.29 150.472 1053.5 150.045V148.524C1054.62 149.068 1055.7 149.34 1056.74 149.34C1057.58 149.34 1058.19 149.204 1058.58 148.932C1058.96 148.66 1059.15 148.295 1059.15 147.837C1059.15 147.435 1058.97 147.095 1058.6 146.817C1058.23 146.539 1057.58 146.22 1056.64 145.861C1055.68 145.49 1055.01 145.175 1054.62 144.915C1054.23 144.649 1053.94 144.352 1053.75 144.024C1053.57 143.697 1053.48 143.298 1053.48 142.828C1053.48 141.993 1053.82 141.334 1054.5 140.852C1055.19 140.369 1056.12 140.128 1057.31 140.128C1058.46 140.128 1059.55 140.357 1060.55 140.814L1059.99 142.141C1058.95 141.708 1058.02 141.492 1057.2 141.492C1056.5 141.492 1055.98 141.603 1055.62 141.826C1055.26 142.042 1055.08 142.342 1055.08 142.726C1055.08 143.097 1055.23 143.406 1055.54 143.653C1055.85 143.895 1056.57 144.232 1057.71 144.665C1058.55 144.98 1059.18 145.274 1059.58 145.546C1059.99 145.818 1060.29 146.124 1060.48 146.464C1060.67 146.805 1060.77 147.213 1060.77 147.689ZM1076.1 146.873C1076.1 148.054 1075.68 148.985 1074.82 149.665C1073.97 150.345 1072.78 150.686 1071.26 150.686C1069.65 150.686 1068.41 150.472 1067.53 150.045V148.413C1068.11 148.66 1068.73 148.855 1069.41 148.997C1070.1 149.139 1070.74 149.21 1071.33 149.21C1072.35 149.21 1073.11 149.016 1073.63 148.626C1074.14 148.236 1074.4 147.701 1074.4 147.021C1074.4 146.569 1074.3 146.198 1074.12 145.908C1073.93 145.617 1073.62 145.345 1073.18 145.091C1072.75 144.838 1072.09 144.55 1071.2 144.229C1069.95 143.771 1069.05 143.233 1068.51 142.614C1067.98 141.99 1067.71 141.186 1067.71 140.202C1067.71 139.145 1068.1 138.303 1068.89 137.679C1069.69 137.054 1070.74 136.742 1072.04 136.742C1073.39 136.742 1074.64 136.995 1075.78 137.502L1075.25 138.968C1074.09 138.486 1073 138.245 1072 138.245C1071.2 138.245 1070.57 138.418 1070.11 138.764C1069.66 139.111 1069.43 139.596 1069.43 140.221C1069.43 140.666 1069.52 141.037 1069.69 141.334C1069.87 141.625 1070.16 141.891 1070.55 142.132C1070.94 142.373 1071.56 142.648 1072.4 142.958C1073.41 143.329 1074.16 143.69 1074.66 144.043C1075.15 144.389 1075.51 144.791 1075.75 145.249C1075.99 145.701 1076.1 146.242 1076.1 146.873ZM1085.55 150.5V143.987C1085.55 143.159 1085.36 142.543 1084.99 142.141C1084.63 141.733 1084.05 141.529 1083.26 141.529C1082.23 141.529 1081.47 141.816 1080.99 142.392C1080.52 142.967 1080.28 143.916 1080.28 145.24V150.5H1078.61V136.064H1080.28V140.295C1080.28 140.852 1080.25 141.328 1080.18 141.724H1080.3C1080.6 141.229 1081.03 140.842 1081.59 140.564C1082.14 140.286 1082.77 140.146 1083.47 140.146C1084.71 140.146 1085.64 140.443 1086.26 141.037C1086.89 141.625 1087.2 142.568 1087.2 143.867V150.5H1085.55ZM1096.64 150.5L1096.32 149.053H1096.24C1095.74 149.69 1095.23 150.123 1094.72 150.352C1094.22 150.574 1093.59 150.686 1092.82 150.686C1091.82 150.686 1091.03 150.423 1090.46 149.897C1089.89 149.371 1089.61 148.629 1089.61 147.67C1089.61 145.605 1091.24 144.522 1094.5 144.423L1096.23 144.358V143.755C1096.23 142.982 1096.06 142.413 1095.72 142.048C1095.39 141.677 1094.86 141.492 1094.12 141.492C1093.58 141.492 1093.07 141.572 1092.59 141.733C1092.11 141.894 1091.66 142.073 1091.24 142.271L1090.73 141.019C1091.25 140.746 1091.81 140.533 1092.41 140.378C1093.02 140.224 1093.62 140.146 1094.21 140.146C1095.44 140.146 1096.36 140.419 1096.96 140.963C1097.56 141.507 1097.86 142.373 1097.86 143.561V150.5H1096.64ZM1093.2 149.34C1094.13 149.34 1094.87 149.09 1095.4 148.589C1095.94 148.082 1096.21 147.364 1096.21 146.437V145.518L1094.7 145.583C1093.53 145.626 1092.68 145.812 1092.14 146.14C1091.61 146.467 1091.35 146.984 1091.35 147.689C1091.35 148.221 1091.51 148.629 1091.83 148.914C1092.16 149.198 1092.61 149.34 1093.2 149.34ZM1105.77 140.128C1106.22 140.128 1106.62 140.165 1106.97 140.239L1106.76 141.779C1106.39 141.693 1106.02 141.649 1105.66 141.649C1105.12 141.649 1104.62 141.798 1104.16 142.095C1103.7 142.392 1103.34 142.803 1103.08 143.329C1102.82 143.848 1102.69 144.426 1102.69 145.063V150.5H1101.02V140.313H1102.39L1102.58 142.178H1102.65C1103.04 141.504 1103.5 140.994 1104.04 140.647C1104.57 140.301 1105.15 140.128 1105.77 140.128ZM1113.02 150.686C1111.49 150.686 1110.29 150.225 1109.42 149.303C1108.55 148.375 1108.12 147.101 1108.12 145.481C1108.12 143.848 1108.52 142.549 1109.33 141.584C1110.14 140.613 1111.24 140.128 1112.62 140.128C1113.9 140.128 1114.92 140.542 1115.68 141.371C1116.44 142.194 1116.82 143.31 1116.82 144.72V145.731H1109.84C1109.88 146.888 1110.17 147.766 1110.73 148.366C1111.28 148.966 1112.07 149.266 1113.09 149.266C1113.64 149.266 1114.15 149.22 1114.64 149.127C1115.13 149.028 1115.7 148.839 1116.36 148.561V150.027C1115.79 150.268 1115.27 150.438 1114.77 150.537C1114.28 150.636 1113.69 150.686 1113.02 150.686ZM1112.6 141.492C1111.8 141.492 1111.17 141.748 1110.71 142.262C1110.24 142.775 1109.97 143.489 1109.88 144.405H1115.07C1115.06 143.452 1114.84 142.729 1114.41 142.234C1113.98 141.739 1113.38 141.492 1112.6 141.492ZM1123.02 150.686C1121.69 150.686 1120.67 150.228 1119.94 149.312C1119.21 148.397 1118.84 147.101 1118.84 145.425C1118.84 143.762 1119.21 142.463 1119.94 141.529C1120.67 140.595 1121.71 140.128 1123.04 140.128C1124.4 140.128 1125.45 140.629 1126.19 141.631H1126.31C1126.29 141.507 1126.27 141.26 1126.24 140.889C1126.21 140.511 1126.19 140.258 1126.19 140.128V136.064H1127.86V150.5H1126.52L1126.27 149.136H1126.19C1125.48 150.169 1124.42 150.686 1123.02 150.686ZM1123.29 149.303C1124.3 149.303 1125.04 149.028 1125.5 148.478C1125.97 147.921 1126.21 147.012 1126.21 145.75V145.444C1126.21 144.028 1125.97 143.019 1125.5 142.419C1125.03 141.813 1124.28 141.51 1123.27 141.51C1122.41 141.51 1121.74 141.854 1121.27 142.54C1120.8 143.22 1120.57 144.194 1120.57 145.462C1120.57 146.724 1120.8 147.68 1121.26 148.329C1121.73 148.979 1122.41 149.303 1123.29 149.303Z"></path>
<path fill="#0B233F" d="M947.936 172.5L946.192 166.767C946.031 166.29 945.796 165.39 945.487 164.067H945.413C945.153 165.273 944.924 166.179 944.726 166.785L942.898 172.5H941.006L938.213 162.313H939.939C940.582 164.818 941.071 166.723 941.405 168.028C941.745 169.333 941.946 170.255 942.008 170.793H942.082L942.212 170.218C942.404 169.333 942.589 168.613 942.769 168.056L944.578 162.313H946.396L948.149 168.056C948.211 168.273 948.276 168.505 948.344 168.752C948.418 168.993 948.486 169.234 948.548 169.476C948.61 169.711 948.666 169.943 948.715 170.171C948.765 170.394 948.802 170.595 948.827 170.774H948.91C948.966 170.304 949.192 169.296 949.587 167.75L951.016 162.313H952.723L949.894 172.5H947.936ZM956.221 172.5H954.551V162.313H956.221V172.5ZM954.421 159.558C954.421 159.187 954.514 158.918 954.699 158.751C954.891 158.584 955.126 158.5 955.404 158.5C955.664 158.5 955.89 158.584 956.082 158.751C956.279 158.918 956.378 159.187 956.378 159.558C956.378 159.923 956.279 160.192 956.082 160.365C955.89 160.538 955.664 160.625 955.404 160.625C955.126 160.625 954.891 160.538 954.699 160.365C954.514 160.192 954.421 159.923 954.421 159.558ZM962.854 171.322C963.07 171.322 963.324 171.3 963.615 171.257C963.905 171.214 964.125 171.164 964.273 171.108V172.389C964.119 172.457 963.878 172.522 963.55 172.583C963.228 172.652 962.9 172.686 962.566 172.686C960.575 172.686 959.579 171.637 959.579 169.541V163.612H958.141V162.814L959.598 162.146L960.266 159.976H961.258V162.313H964.199V163.612H961.258V169.494C961.258 170.082 961.397 170.533 961.676 170.849C961.96 171.164 962.353 171.322 962.854 171.322ZM973.254 172.5V165.987C973.254 165.159 973.068 164.543 972.697 164.141C972.332 163.733 971.757 163.529 970.972 163.529C969.939 163.529 969.181 163.816 968.699 164.392C968.222 164.967 967.984 165.916 967.984 167.24V172.5H966.314V158.064H967.984V162.295C967.984 162.852 967.953 163.328 967.892 163.724H968.003C968.306 163.229 968.736 162.842 969.292 162.564C969.849 162.286 970.477 162.146 971.176 162.146C972.413 162.146 973.344 162.443 973.968 163.037C974.593 163.625 974.905 164.568 974.905 165.867V172.5H973.254ZM989.211 172.5L984.739 160.606H984.665C984.758 161.596 984.804 162.818 984.804 164.271V172.5H983.227V158.937H985.75L989.935 170.051H990.009L994.267 158.937H996.772V172.5H995.083V164.16C995.083 163.232 995.127 162.054 995.213 160.625H995.139L990.612 172.5H989.211ZM1004.56 172.686C1003.04 172.686 1001.84 172.225 1000.97 171.303C1000.1 170.375 999.667 169.101 999.667 167.481C999.667 165.848 1000.07 164.549 1000.88 163.584C1001.69 162.613 1002.79 162.128 1004.17 162.128C1005.45 162.128 1006.47 162.542 1007.23 163.371C1007.99 164.194 1008.37 165.31 1008.37 166.72V167.731H1001.39C1001.42 168.888 1001.72 169.766 1002.27 170.366C1002.83 170.966 1003.62 171.266 1004.64 171.266C1005.18 171.266 1005.7 171.22 1006.19 171.127C1006.68 171.028 1007.25 170.839 1007.9 170.561V172.027C1007.34 172.268 1006.81 172.438 1006.32 172.537C1005.82 172.636 1005.24 172.686 1004.56 172.686ZM1004.15 163.492C1003.35 163.492 1002.72 163.748 1002.25 164.262C1001.79 164.775 1001.52 165.489 1001.43 166.405H1006.62C1006.6 165.452 1006.38 164.729 1005.96 164.234C1005.53 163.739 1004.93 163.492 1004.15 163.492Z"></path>
<path fill="#E96969" d="M858.5 44.4995H891.366C891.918 44.4995 892.366 44.9475 892.366 45.4995V45.5625L891.366 44.5625H917.566V46.5625H891.366C890.814 46.5625 890.366 46.1145 890.366 45.5625V45.4995L891.366 46.4995H858.5V44.4995ZM916.232 41.5625L924.232 45.5625L916.232 49.5625V41.5625Z"></path>
<path fill="#E96969" d="M858.5 44.5H891.366C891.918 44.5 892.366 44.948 892.366 45.5V153.594L891.366 152.594H917.566V154.594H891.366C890.814 154.594 890.366 154.147 890.366 153.594V45.5L891.366 46.5H858.5V44.5ZM916.232 149.594L924.232 153.594L916.232 157.594V149.594Z"></path>
<path fill="#E96969" d="M1166.5 44.4995H1199.37C1199.92 44.4995 1200.37 44.9475 1200.37 45.4995V45.5625L1199.37 44.5625H1225.57V46.5625H1199.37C1198.81 46.5625 1198.37 46.1145 1198.37 45.5625V45.4995L1199.37 46.4995H1166.5V44.4995ZM1224.23 41.5625L1232.23 45.5625L1224.23 49.5625V41.5625Z"></path>
</svg>
