<svg xmlns="http://www.w3.org/2000/svg" fill="none" viewBox="0 0 551 89" height="89" width="551">
<path stroke-linejoin="round" stroke-miterlimit="10" stroke="#0B233F" fill="#0B233F" d="M0.5 15.167C0.5 7.06699 7.0665 0.5 15.1668 0.5H227.833C235.933 0.5 242.5 7.06699 242.5 15.167V73.833C242.5 81.933 235.933 88.5 227.833 88.5H15.1668C7.0665 88.5 0.5 81.933 0.5 73.833V15.167Z" clip-rule="evenodd" fill-rule="evenodd"></path>
<path fill="white" d="M27.1094 41H24.2427V35.146H18.8711V41H15.9951V27.4365H18.8711V32.7524H24.2427V27.4365H27.1094V41ZM32.5737 35.7954C32.5737 36.8221 32.7407 37.5983 33.0747 38.124C33.4149 38.6497 33.9653 38.9126 34.7261 38.9126C35.4806 38.9126 36.0218 38.6528 36.3496 38.1333C36.6836 37.6076 36.8506 36.8283 36.8506 35.7954C36.8506 34.7687 36.6836 33.9987 36.3496 33.4854C36.0156 32.972 35.4683 32.7153 34.7075 32.7153C33.953 32.7153 33.4087 32.972 33.0747 33.4854C32.7407 33.9925 32.5737 34.7625 32.5737 35.7954ZM39.7451 35.7954C39.7451 37.4839 39.2998 38.8044 38.4092 39.7568C37.5186 40.7093 36.2785 41.1855 34.689 41.1855C33.6932 41.1855 32.8149 40.9691 32.0542 40.5361C31.2935 40.097 30.709 39.4692 30.3008 38.6528C29.8926 37.8364 29.6885 36.884 29.6885 35.7954C29.6885 34.1007 30.1307 32.7834 31.0151 31.8433C31.8996 30.9032 33.1427 30.4331 34.7446 30.4331C35.7404 30.4331 36.6187 30.6496 37.3794 31.0825C38.1401 31.5155 38.7246 32.137 39.1328 32.9473C39.541 33.7575 39.7451 34.7069 39.7451 35.7954ZM50.4233 41L49.6255 37.3726L48.5679 32.7896H48.4844L46.5918 41H43.5488L40.5986 30.6279H43.4189L44.6157 35.2202C44.7518 35.7645 44.9404 36.8994 45.1816 38.625H45.2559C45.2806 38.1549 45.3888 37.4097 45.5806 36.3892L45.729 35.6006L47.0093 30.6279H50.1265L51.3418 35.6006C51.416 35.9408 51.5057 36.4417 51.6108 37.1035C51.7222 37.7591 51.784 38.2663 51.7964 38.625H51.8706C51.9386 38.0745 52.0345 37.4499 52.1582 36.751C52.2819 36.0459 52.387 35.5356 52.4736 35.2202L53.7168 30.6279H56.4907L53.5034 41H50.4233ZM67.4751 38.9312C67.9699 38.9312 68.5636 38.8229 69.2563 38.6064V40.7124C68.5513 41.0278 67.6854 41.1855 66.6587 41.1855C65.5269 41.1855 64.7012 40.901 64.1816 40.332C63.6683 39.7568 63.4116 38.8971 63.4116 37.7529V32.7524H62.0571V31.5557L63.6157 30.6094L64.4321 28.4199H66.2412V30.6279H69.145V32.7524H66.2412V37.7529C66.2412 38.1549 66.3525 38.4518 66.5752 38.6436C66.804 38.8353 67.104 38.9312 67.4751 38.9312ZM73.6167 35.7954C73.6167 36.8221 73.7837 37.5983 74.1177 38.124C74.4578 38.6497 75.0083 38.9126 75.769 38.9126C76.5236 38.9126 77.0648 38.6528 77.3926 38.1333C77.7266 37.6076 77.8936 36.8283 77.8936 35.7954C77.8936 34.7687 77.7266 33.9987 77.3926 33.4854C77.0586 32.972 76.5112 32.7153 75.7505 32.7153C74.9959 32.7153 74.4517 32.972 74.1177 33.4854C73.7837 33.9925 73.6167 34.7625 73.6167 35.7954ZM80.7881 35.7954C80.7881 37.4839 80.3428 38.8044 79.4521 39.7568C78.5615 40.7093 77.3215 41.1855 75.7319 41.1855C74.7362 41.1855 73.8579 40.9691 73.0972 40.5361C72.3364 40.097 71.752 39.4692 71.3438 38.6528C70.9355 37.8364 70.7314 36.884 70.7314 35.7954C70.7314 34.1007 71.1737 32.7834 72.0581 31.8433C72.9425 30.9032 74.1857 30.4331 75.7876 30.4331C76.7834 30.4331 77.6616 30.6496 78.4224 31.0825C79.1831 31.5155 79.7676 32.137 80.1758 32.9473C80.584 33.7575 80.7881 34.7069 80.7881 35.7954ZM92.2734 41.1855C89.0449 41.1855 87.4307 39.4136 87.4307 35.8696C87.4307 34.1069 87.8698 32.7617 88.748 31.834C89.6263 30.9001 90.8849 30.4331 92.5239 30.4331C93.7238 30.4331 94.8 30.6681 95.7524 31.1382L94.9175 33.3276C94.4722 33.1483 94.0578 33.0029 93.6743 32.8916C93.2909 32.7741 92.9074 32.7153 92.5239 32.7153C91.0519 32.7153 90.3159 33.7606 90.3159 35.8511C90.3159 37.8797 91.0519 38.894 92.5239 38.894C93.0682 38.894 93.5723 38.8229 94.0361 38.6807C94.5 38.5322 94.9639 38.3034 95.4277 37.9941V40.4155C94.9701 40.7062 94.5062 40.9072 94.0361 41.0186C93.5723 41.1299 92.9847 41.1855 92.2734 41.1855ZM103.629 30.4331C104.012 30.4331 104.331 30.4609 104.584 30.5166L104.371 33.1699C104.142 33.1081 103.864 33.0771 103.536 33.0771C102.633 33.0771 101.928 33.3091 101.421 33.7729C100.92 34.2368 100.669 34.8862 100.669 35.7212V41H97.8398V30.6279H99.9829L100.4 32.3721H100.54C100.861 31.7907 101.294 31.3237 101.838 30.9712C102.389 30.6125 102.986 30.4331 103.629 30.4331ZM110.578 32.4463C109.978 32.4463 109.508 32.638 109.167 33.0215C108.827 33.3988 108.632 33.9368 108.583 34.6357H112.554C112.541 33.9368 112.359 33.3988 112.006 33.0215C111.654 32.638 111.178 32.4463 110.578 32.4463ZM110.977 41.1855C109.307 41.1855 108.002 40.7248 107.062 39.8032C106.121 38.8817 105.651 37.5767 105.651 35.8882C105.651 34.1502 106.084 32.8081 106.95 31.8618C107.822 30.9093 109.025 30.4331 110.559 30.4331C112.025 30.4331 113.166 30.8506 113.982 31.6855C114.799 32.5205 115.207 33.674 115.207 35.146V36.519H108.518C108.549 37.3231 108.787 37.9508 109.232 38.4023C109.678 38.8538 110.302 39.0796 111.106 39.0796C111.731 39.0796 112.322 39.0146 112.878 38.8848C113.435 38.7549 114.016 38.5477 114.623 38.2632V40.4526C114.128 40.7 113.599 40.8825 113.036 41C112.473 41.1237 111.787 41.1855 110.977 41.1855ZM124.095 41L123.547 39.5898H123.473C122.997 40.1898 122.505 40.6073 121.998 40.8423C121.497 41.0711 120.841 41.1855 120.031 41.1855C119.035 41.1855 118.25 40.901 117.675 40.332C117.106 39.763 116.821 38.9528 116.821 37.9014C116.821 36.8005 117.205 35.9902 117.972 35.4707C118.745 34.945 119.908 34.6543 121.46 34.5986L123.26 34.543V34.0884C123.26 33.0369 122.722 32.5112 121.646 32.5112C120.817 32.5112 119.843 32.7617 118.723 33.2627L117.786 31.3516C118.98 30.7269 120.303 30.4146 121.757 30.4146C123.148 30.4146 124.215 30.7176 124.958 31.3237C125.7 31.9299 126.071 32.8514 126.071 34.0884V41H124.095ZM123.26 36.1943L122.165 36.2314C121.342 36.2562 120.73 36.4046 120.328 36.6768C119.926 36.9489 119.725 37.3633 119.725 37.9199C119.725 38.7178 120.183 39.1167 121.098 39.1167C121.754 39.1167 122.276 38.9281 122.666 38.5508C123.062 38.1735 123.26 37.6725 123.26 37.0479V36.1943ZM133.363 38.9312C133.858 38.9312 134.451 38.8229 135.144 38.6064V40.7124C134.439 41.0278 133.573 41.1855 132.546 41.1855C131.415 41.1855 130.589 40.901 130.069 40.332C129.556 39.7568 129.299 38.8971 129.299 37.7529V32.7524H127.945V31.5557L129.503 30.6094L130.32 28.4199H132.129V30.6279H135.033V32.7524H132.129V37.7529C132.129 38.1549 132.24 38.4518 132.463 38.6436C132.692 38.8353 132.992 38.9312 133.363 38.9312ZM141.545 32.4463C140.945 32.4463 140.475 32.638 140.135 33.0215C139.795 33.3988 139.6 33.9368 139.551 34.6357H143.521C143.509 33.9368 143.327 33.3988 142.974 33.0215C142.622 32.638 142.145 32.4463 141.545 32.4463ZM141.944 41.1855C140.274 41.1855 138.969 40.7248 138.029 39.8032C137.089 38.8817 136.619 37.5767 136.619 35.8882C136.619 34.1502 137.052 32.8081 137.918 31.8618C138.79 30.9093 139.993 30.4331 141.527 30.4331C142.993 30.4331 144.134 30.8506 144.95 31.6855C145.767 32.5205 146.175 33.674 146.175 35.146V36.519H139.486C139.517 37.3231 139.755 37.9508 140.2 38.4023C140.646 38.8538 141.27 39.0796 142.074 39.0796C142.699 39.0796 143.29 39.0146 143.846 38.8848C144.403 38.7549 144.984 38.5477 145.59 38.2632V40.4526C145.096 40.7 144.567 40.8825 144.004 41C143.441 41.1237 142.755 41.1855 141.944 41.1855ZM162.698 41H159.868V34.9419C159.868 34.1935 159.741 33.6338 159.488 33.2627C159.24 32.8854 158.848 32.6968 158.31 32.6968C157.586 32.6968 157.06 32.9627 156.732 33.4946C156.405 34.0265 156.241 34.9017 156.241 36.1201V41H153.411V30.6279H155.573L155.953 31.9546H156.111C156.389 31.4784 156.791 31.1073 157.317 30.8413C157.843 30.5692 158.446 30.4331 159.126 30.4331C160.678 30.4331 161.73 30.9403 162.28 31.9546H162.531C162.809 31.4722 163.217 31.098 163.755 30.832C164.3 30.5661 164.912 30.4331 165.592 30.4331C166.767 30.4331 167.655 30.7362 168.255 31.3423C168.861 31.9422 169.164 32.9071 169.164 34.2368V41H166.325V34.9419C166.325 34.1935 166.198 33.6338 165.945 33.2627C165.697 32.8854 165.305 32.6968 164.767 32.6968C164.074 32.6968 163.554 32.9442 163.208 33.439C162.868 33.9338 162.698 34.7192 162.698 35.7954V41ZM170.593 30.6279H173.691L175.649 36.4634C175.816 36.9705 175.93 37.5705 175.992 38.2632H176.048C176.116 37.6261 176.249 37.0262 176.447 36.4634L178.367 30.6279H181.401L177.013 42.3267C176.611 43.409 176.035 44.2192 175.287 44.7573C174.545 45.2954 173.676 45.5645 172.68 45.5645C172.192 45.5645 171.712 45.5119 171.242 45.4067V43.1616C171.582 43.242 171.953 43.2822 172.355 43.2822C172.856 43.2822 173.292 43.1276 173.664 42.8184C174.041 42.5153 174.335 42.0545 174.545 41.436L174.712 40.9258L170.593 30.6279ZM190.084 35.7954C190.084 36.8221 190.251 37.5983 190.585 38.124C190.926 38.6497 191.476 38.9126 192.237 38.9126C192.991 38.9126 193.533 38.6528 193.86 38.1333C194.194 37.6076 194.361 36.8283 194.361 35.7954C194.361 34.7687 194.194 33.9987 193.86 33.4854C193.526 32.972 192.979 32.7153 192.218 32.7153C191.464 32.7153 190.919 32.972 190.585 33.4854C190.251 33.9925 190.084 34.7625 190.084 35.7954ZM197.256 35.7954C197.256 37.4839 196.811 38.8044 195.92 39.7568C195.029 40.7093 193.789 41.1855 192.2 41.1855C191.204 41.1855 190.326 40.9691 189.565 40.5361C188.804 40.097 188.22 39.4692 187.812 38.6528C187.403 37.8364 187.199 36.884 187.199 35.7954C187.199 34.1007 187.641 32.7834 188.526 31.8433C189.41 30.9032 190.653 30.4331 192.255 30.4331C193.251 30.4331 194.129 30.6496 194.89 31.0825C195.651 31.5155 196.235 32.137 196.644 32.9473C197.052 33.7575 197.256 34.7069 197.256 35.7954ZM207.934 41L207.136 37.3726L206.079 32.7896H205.995L204.103 41H201.06L198.109 30.6279H200.93L202.126 35.2202C202.263 35.7645 202.451 36.8994 202.692 38.625H202.767C202.791 38.1549 202.9 37.4097 203.091 36.3892L203.24 35.6006L204.52 30.6279H207.637L208.853 35.6006C208.927 35.9408 209.016 36.4417 209.122 37.1035C209.233 37.7591 209.295 38.2663 209.307 38.625H209.381C209.449 38.0745 209.545 37.4499 209.669 36.751C209.793 36.0459 209.898 35.5356 209.984 35.2202L211.228 30.6279H214.001L211.014 41H207.934ZM225.255 41H222.425V34.9419C222.425 34.1935 222.292 33.6338 222.026 33.2627C221.76 32.8854 221.337 32.6968 220.755 32.6968C219.964 32.6968 219.392 32.9627 219.039 33.4946C218.687 34.0203 218.51 34.8955 218.51 36.1201V41H215.681V30.6279H217.842L218.223 31.9546H218.38C218.696 31.4536 219.129 31.0763 219.679 30.8228C220.236 30.563 220.867 30.4331 221.572 30.4331C222.778 30.4331 223.693 30.7609 224.318 31.4165C224.943 32.0659 225.255 33.006 225.255 34.2368V41Z"></path>
<path fill="white" d="M21.7378 63L18.4722 52.3589H18.3887C18.5062 54.5236 18.5649 55.9678 18.5649 56.6914V63H15.9951V49.4365H19.9102L23.1201 59.8086H23.1758L26.5806 49.4365H30.4956V63H27.8145V56.5801C27.8145 56.277 27.8175 55.9276 27.8237 55.5317C27.8361 55.1359 27.8794 54.0845 27.9536 52.3774H27.8701L24.3726 63H21.7378ZM35.9507 57.7954C35.9507 58.8221 36.1177 59.5983 36.4517 60.124C36.7918 60.6497 37.3423 60.9126 38.103 60.9126C38.8576 60.9126 39.3988 60.6528 39.7266 60.1333C40.0605 59.6076 40.2275 58.8283 40.2275 57.7954C40.2275 56.7687 40.0605 55.9987 39.7266 55.4854C39.3926 54.972 38.8452 54.7153 38.0845 54.7153C37.3299 54.7153 36.7856 54.972 36.4517 55.4854C36.1177 55.9925 35.9507 56.7625 35.9507 57.7954ZM43.1221 57.7954C43.1221 59.4839 42.6768 60.8044 41.7861 61.7568C40.8955 62.7093 39.6554 63.1855 38.0659 63.1855C37.0701 63.1855 36.1919 62.9691 35.4312 62.5361C34.6704 62.097 34.0859 61.4692 33.6777 60.6528C33.2695 59.8364 33.0654 58.884 33.0654 57.7954C33.0654 56.1007 33.5076 54.7834 34.3921 53.8433C35.2765 52.9032 36.5197 52.4331 38.1216 52.4331C39.1174 52.4331 39.9956 52.6496 40.7563 53.0825C41.5171 53.5155 42.1016 54.137 42.5098 54.9473C42.918 55.7575 43.1221 56.7069 43.1221 57.7954ZM48.7441 63.1855C47.5257 63.1855 46.5671 62.7124 45.8682 61.7661C45.1755 60.8198 44.8291 59.5086 44.8291 57.8325C44.8291 56.1317 45.1816 54.8081 45.8867 53.8618C46.598 52.9093 47.5752 52.4331 48.8184 52.4331C50.1234 52.4331 51.1191 52.9403 51.8057 53.9546H51.8984C51.7562 53.1815 51.6851 52.4919 51.6851 51.8857V48.5645H54.5239V63H52.353L51.8057 61.6548H51.6851C51.0418 62.6753 50.0615 63.1855 48.7441 63.1855ZM49.7368 60.9312C50.4604 60.9312 50.9893 60.7209 51.3232 60.3003C51.6634 59.8797 51.849 59.1654 51.8799 58.1572V57.8511C51.8799 56.7378 51.7067 55.9399 51.3604 55.4575C51.0202 54.9751 50.4635 54.7339 49.6904 54.7339C49.0596 54.7339 48.5679 55.0029 48.2153 55.541C47.869 56.0729 47.6958 56.8491 47.6958 57.8696C47.6958 58.8901 47.8721 59.6571 48.2246 60.1704C48.5771 60.6776 49.0812 60.9312 49.7368 60.9312ZM64.8311 63L64.4507 61.6733H64.3022C63.9992 62.1558 63.5693 62.5299 63.0127 62.7959C62.4561 63.0557 61.8221 63.1855 61.1108 63.1855C59.8924 63.1855 58.974 62.8608 58.3555 62.2114C57.737 61.5558 57.4277 60.6157 57.4277 59.3911V52.6279H60.2573V58.686C60.2573 59.4344 60.3903 59.9972 60.6562 60.3745C60.9222 60.7456 61.3459 60.9312 61.9272 60.9312C62.7189 60.9312 63.291 60.6683 63.6436 60.1426C63.9961 59.6107 64.1724 58.7324 64.1724 57.5078V52.6279H67.002V63H64.8311ZM72.8003 63H69.9707V48.5645H72.8003V63ZM80.0737 54.4463C79.4738 54.4463 79.0037 54.638 78.6636 55.0215C78.3234 55.3988 78.1286 55.9368 78.0791 56.6357H82.0498C82.0374 55.9368 81.855 55.3988 81.5024 55.0215C81.1499 54.638 80.6737 54.4463 80.0737 54.4463ZM80.4727 63.1855C78.8027 63.1855 77.4977 62.7248 76.5576 61.8032C75.6175 60.8817 75.1475 59.5767 75.1475 57.8882C75.1475 56.1502 75.5804 54.8081 76.4463 53.8618C77.3184 52.9093 78.5213 52.4331 80.0552 52.4331C81.521 52.4331 82.6621 52.8506 83.4785 53.6855C84.2949 54.5205 84.7031 55.674 84.7031 57.146V58.519H78.0142C78.0451 59.3231 78.2832 59.9508 78.7285 60.4023C79.1738 60.8538 79.7985 61.0796 80.6025 61.0796C81.2272 61.0796 81.8179 61.0146 82.3745 60.8848C82.9312 60.7549 83.5125 60.5477 84.1187 60.2632V62.4526C83.6239 62.7 83.0951 62.8825 82.5322 63C81.9694 63.1237 81.2829 63.1855 80.4727 63.1855ZM97.3945 63H94.5186V51.8301H90.8354V49.4365H101.078V51.8301H97.3945V63ZM106.588 54.4463C105.988 54.4463 105.518 54.638 105.178 55.0215C104.838 55.3988 104.643 55.9368 104.594 56.6357H108.564C108.552 55.9368 108.37 55.3988 108.017 55.0215C107.665 54.638 107.188 54.4463 106.588 54.4463ZM106.987 63.1855C105.317 63.1855 104.012 62.7248 103.072 61.8032C102.132 60.8817 101.662 59.5767 101.662 57.8882C101.662 56.1502 102.095 54.8081 102.961 53.8618C103.833 52.9093 105.036 52.4331 106.57 52.4331C108.036 52.4331 109.177 52.8506 109.993 53.6855C110.81 54.5205 111.218 55.674 111.218 57.146V58.519H104.529C104.56 59.3231 104.798 59.9508 105.243 60.4023C105.688 60.8538 106.313 61.0796 107.117 61.0796C107.742 61.0796 108.333 61.0146 108.889 60.8848C109.446 60.7549 110.027 60.5477 110.633 60.2632V62.4526C110.139 62.7 109.61 62.8825 109.047 63C108.484 63.1237 107.798 63.1855 106.987 63.1855ZM122.805 63H119.976V56.9419C119.976 56.1935 119.849 55.6338 119.595 55.2627C119.348 54.8854 118.955 54.6968 118.417 54.6968C117.693 54.6968 117.168 54.9627 116.84 55.4946C116.512 56.0265 116.348 56.9017 116.348 58.1201V63H113.519V52.6279H115.68L116.061 53.9546H116.218C116.497 53.4784 116.899 53.1073 117.424 52.8413C117.95 52.5692 118.553 52.4331 119.233 52.4331C120.786 52.4331 121.837 52.9403 122.388 53.9546H122.638C122.917 53.4722 123.325 53.098 123.863 52.832C124.407 52.5661 125.019 52.4331 125.7 52.4331C126.875 52.4331 127.762 52.7362 128.362 53.3423C128.968 53.9422 129.271 54.9071 129.271 56.2368V63H126.433V56.9419C126.433 56.1935 126.306 55.6338 126.052 55.2627C125.805 54.8854 125.412 54.6968 124.874 54.6968C124.181 54.6968 123.662 54.9442 123.315 55.439C122.975 55.9338 122.805 56.7192 122.805 57.7954V63ZM137.881 63.1855C136.662 63.1855 135.707 62.7433 135.014 61.8589H134.866C134.965 62.7248 135.014 63.2257 135.014 63.3618V67.5645H132.185V52.6279H134.485L134.884 53.9731H135.014C135.676 52.9465 136.656 52.4331 137.955 52.4331C139.18 52.4331 140.138 52.9062 140.831 53.8525C141.524 54.7988 141.87 56.1131 141.87 57.7954C141.87 58.9025 141.706 59.8643 141.378 60.6807C141.057 61.4971 140.596 62.1187 139.996 62.5454C139.396 62.9722 138.691 63.1855 137.881 63.1855ZM137.046 54.6968C136.347 54.6968 135.837 54.9132 135.515 55.3462C135.194 55.7729 135.027 56.4811 135.014 57.4707V57.7769C135.014 58.8901 135.178 59.688 135.506 60.1704C135.84 60.6528 136.366 60.894 137.083 60.894C138.351 60.894 138.985 59.8488 138.985 57.7583C138.985 56.7378 138.827 55.974 138.512 55.4668C138.202 54.9535 137.714 54.6968 137.046 54.6968ZM147.038 63H144.208V48.5645H147.038V63ZM156.603 63L156.055 61.5898H155.981C155.505 62.1898 155.013 62.6073 154.506 62.8423C154.005 63.0711 153.349 63.1855 152.539 63.1855C151.543 63.1855 150.758 62.901 150.183 62.332C149.614 61.763 149.329 60.9528 149.329 59.9014C149.329 58.8005 149.713 57.9902 150.479 57.4707C151.253 56.945 152.415 56.6543 153.968 56.5986L155.768 56.543V56.0884C155.768 55.0369 155.229 54.5112 154.153 54.5112C153.325 54.5112 152.35 54.7617 151.231 55.2627L150.294 53.3516C151.488 52.7269 152.811 52.4146 154.265 52.4146C155.656 52.4146 156.723 52.7176 157.465 53.3237C158.208 53.9299 158.579 54.8514 158.579 56.0884V63H156.603ZM155.768 58.1943L154.673 58.2314C153.85 58.2562 153.238 58.4046 152.836 58.6768C152.434 58.9489 152.233 59.3633 152.233 59.9199C152.233 60.7178 152.691 61.1167 153.606 61.1167C154.262 61.1167 154.784 60.9281 155.174 60.5508C155.57 60.1735 155.768 59.6725 155.768 59.0479V58.1943ZM165.871 60.9312C166.365 60.9312 166.959 60.8229 167.652 60.6064V62.7124C166.947 63.0278 166.081 63.1855 165.054 63.1855C163.922 63.1855 163.097 62.901 162.577 62.332C162.064 61.7568 161.807 60.8971 161.807 59.7529V54.7524H160.453V53.5557L162.011 52.6094L162.828 50.4199H164.637V52.6279H167.541V54.7524H164.637V59.7529C164.637 60.1549 164.748 60.4518 164.971 60.6436C165.2 60.8353 165.5 60.9312 165.871 60.9312ZM174.053 54.4463C173.453 54.4463 172.983 54.638 172.643 55.0215C172.303 55.3988 172.108 55.9368 172.059 56.6357H176.029C176.017 55.9368 175.834 55.3988 175.482 55.0215C175.129 54.638 174.653 54.4463 174.053 54.4463ZM174.452 63.1855C172.782 63.1855 171.477 62.7248 170.537 61.8032C169.597 60.8817 169.127 59.5767 169.127 57.8882C169.127 56.1502 169.56 54.8081 170.426 53.8618C171.298 52.9093 172.501 52.4331 174.035 52.4331C175.5 52.4331 176.642 52.8506 177.458 53.6855C178.274 54.5205 178.683 55.674 178.683 57.146V58.519H171.994C172.025 59.3231 172.263 59.9508 172.708 60.4023C173.153 60.8538 173.778 61.0796 174.582 61.0796C175.207 61.0796 175.797 61.0146 176.354 60.8848C176.911 60.7549 177.492 60.5477 178.098 60.2632V62.4526C177.603 62.7 177.075 62.8825 176.512 63C175.949 63.1237 175.262 63.1855 174.452 63.1855ZM188.22 59.9199C188.22 60.9837 187.849 61.7939 187.106 62.3506C186.37 62.9072 185.266 63.1855 183.794 63.1855C183.04 63.1855 182.397 63.133 181.865 63.0278C181.333 62.9289 180.835 62.7804 180.371 62.5825V60.2446C180.897 60.492 181.487 60.6992 182.143 60.8662C182.805 61.0332 183.386 61.1167 183.887 61.1167C184.914 61.1167 185.427 60.8198 185.427 60.2261C185.427 60.0034 185.359 59.8241 185.223 59.688C185.087 59.5457 184.852 59.388 184.518 59.2148C184.184 59.0355 183.739 58.8283 183.182 58.5933C182.384 58.2593 181.797 57.95 181.419 57.6655C181.048 57.381 180.776 57.0563 180.603 56.6914C180.436 56.3203 180.353 55.8657 180.353 55.3276C180.353 54.4061 180.708 53.6948 181.419 53.1938C182.137 52.6867 183.151 52.4331 184.462 52.4331C185.712 52.4331 186.927 52.7052 188.108 53.2495L187.255 55.2905C186.735 55.0679 186.25 54.8854 185.798 54.7432C185.347 54.6009 184.886 54.5298 184.416 54.5298C183.581 54.5298 183.164 54.7555 183.164 55.207C183.164 55.4606 183.297 55.6802 183.562 55.8657C183.835 56.0513 184.425 56.3265 185.334 56.6914C186.145 57.0192 186.738 57.3254 187.116 57.6099C187.493 57.8944 187.771 58.2222 187.951 58.5933C188.13 58.9644 188.22 59.4066 188.22 59.9199ZM192.339 58.5005V57.814C192.339 57.4985 192.37 57.214 192.432 56.9604C192.5 56.7007 192.599 56.4564 192.729 56.2275C192.865 55.9925 193.038 55.7668 193.248 55.5503C193.458 55.3276 193.712 55.0988 194.009 54.8638C194.269 54.6597 194.488 54.4772 194.667 54.3164C194.847 54.1556 194.992 53.9979 195.104 53.8433C195.215 53.6825 195.295 53.5155 195.345 53.3423C195.394 53.1691 195.419 52.9681 195.419 52.7393C195.419 52.3867 195.298 52.096 195.057 51.8672C194.822 51.6383 194.46 51.5239 193.972 51.5239C193.545 51.5239 193.084 51.6136 192.589 51.793C192.101 51.9723 191.594 52.1919 191.068 52.4517L190.122 50.4014C190.388 50.2467 190.675 50.1014 190.984 49.9653C191.3 49.8231 191.625 49.6994 191.958 49.5942C192.299 49.4829 192.642 49.3963 192.988 49.3345C193.335 49.2726 193.675 49.2417 194.009 49.2417C194.64 49.2417 195.209 49.319 195.716 49.4736C196.223 49.6221 196.653 49.8416 197.005 50.1323C197.358 50.423 197.627 50.7756 197.812 51.1899C198.004 51.6043 198.1 52.0775 198.1 52.6094C198.1 52.999 198.057 53.3485 197.97 53.6577C197.884 53.9608 197.754 54.2453 197.581 54.5112C197.414 54.771 197.2 55.0246 196.94 55.272C196.687 55.5132 196.39 55.7699 196.05 56.042C195.79 56.2461 195.577 56.4255 195.41 56.5801C195.249 56.7285 195.122 56.8708 195.029 57.0068C194.937 57.1429 194.872 57.2852 194.834 57.4336C194.804 57.5758 194.788 57.7459 194.788 57.9438V58.5005H192.339ZM192.033 61.6733C192.033 61.3826 192.073 61.1383 192.153 60.9404C192.24 60.7363 192.357 60.5724 192.506 60.4487C192.654 60.325 192.827 60.2354 193.025 60.1797C193.229 60.124 193.446 60.0962 193.675 60.0962C193.891 60.0962 194.095 60.124 194.287 60.1797C194.485 60.2354 194.658 60.325 194.807 60.4487C194.955 60.5724 195.073 60.7363 195.159 60.9404C195.246 61.1383 195.289 61.3826 195.289 61.6733C195.289 61.9517 195.246 62.1898 195.159 62.3877C195.073 62.5856 194.955 62.7495 194.807 62.8794C194.658 63.0093 194.485 63.1021 194.287 63.1577C194.095 63.2196 193.891 63.2505 193.675 63.2505C193.446 63.2505 193.229 63.2196 193.025 63.1577C192.827 63.1021 192.654 63.0093 192.506 62.8794C192.357 62.7495 192.24 62.5856 192.153 62.3877C192.073 62.1898 192.033 61.9517 192.033 61.6733Z"></path>
<path stroke-linejoin="round" stroke-miterlimit="10" stroke="#0B233F" fill="#F3F5F8" d="M308.5 15.167C308.5 7.06699 315.067 0.5 323.167 0.5H535.833C543.933 0.5 550.5 7.06699 550.5 15.167V73.833C550.5 81.933 543.933 88.5 535.833 88.5H323.167C315.067 88.5 308.5 81.933 308.5 73.833V15.167Z" clip-rule="evenodd" fill-rule="evenodd"></path>
<path fill="#0B233F" d="M329.929 52L325.458 40.1064H325.383C325.476 41.096 325.522 42.3175 325.522 43.771V52H323.945V38.4365H326.469L330.653 49.5508H330.727L334.985 38.4365H337.49V52H335.802V43.6597C335.802 42.7319 335.845 41.5537 335.932 40.125H335.857L331.33 52H329.929ZM347.241 52L346.916 50.5527H346.842C346.335 51.1898 345.827 51.6227 345.32 51.8516C344.819 52.0742 344.185 52.1855 343.418 52.1855C342.417 52.1855 341.631 51.9227 341.062 51.397C340.493 50.8713 340.208 50.1291 340.208 49.1704C340.208 47.1047 341.838 46.0223 345.098 45.9233L346.823 45.8584V45.2554C346.823 44.4823 346.656 43.9132 346.322 43.5483C345.988 43.1772 345.453 42.9917 344.717 42.9917C344.179 42.9917 343.669 43.0721 343.187 43.2329C342.71 43.3937 342.262 43.5731 341.841 43.771L341.331 42.5186C341.844 42.2464 342.404 42.033 343.01 41.8784C343.616 41.7238 344.216 41.6465 344.81 41.6465C346.041 41.6465 346.956 41.9186 347.556 42.4629C348.156 43.0072 348.456 43.873 348.456 45.0605V52H347.241ZM343.799 50.8403C344.733 50.8403 345.466 50.5898 345.998 50.0889C346.536 49.5817 346.805 48.8643 346.805 47.9365V47.0181L345.302 47.083C344.133 47.1263 343.279 47.3118 342.741 47.6396C342.209 47.9674 341.943 48.4839 341.943 49.189C341.943 49.7209 342.104 50.1291 342.426 50.4136C342.754 50.6981 343.211 50.8403 343.799 50.8403ZM358.559 52V45.4873C358.559 44.6585 358.374 44.0431 358.002 43.6411C357.638 43.2329 357.062 43.0288 356.277 43.0288C355.232 43.0288 354.471 43.3195 353.995 43.9009C353.525 44.4761 353.29 45.4162 353.29 46.7212V52H351.62V41.8135H352.965L353.215 43.2051H353.308C353.624 42.7041 354.066 42.3175 354.635 42.0454C355.204 41.7671 355.832 41.6279 356.518 41.6279C357.767 41.6279 358.695 41.931 359.301 42.5371C359.907 43.1432 360.21 44.0864 360.21 45.3667V52H358.559ZM369.655 52L369.33 50.5527H369.256C368.749 51.1898 368.242 51.6227 367.734 51.8516C367.233 52.0742 366.599 52.1855 365.833 52.1855C364.831 52.1855 364.045 51.9227 363.476 51.397C362.907 50.8713 362.623 50.1291 362.623 49.1704C362.623 47.1047 364.252 46.0223 367.512 45.9233L369.237 45.8584V45.2554C369.237 44.4823 369.07 43.9132 368.736 43.5483C368.402 43.1772 367.867 42.9917 367.131 42.9917C366.593 42.9917 366.083 43.0721 365.601 43.2329C365.124 43.3937 364.676 43.5731 364.255 43.771L363.745 42.5186C364.258 42.2464 364.818 42.033 365.424 41.8784C366.03 41.7238 366.63 41.6465 367.224 41.6465C368.455 41.6465 369.37 41.9186 369.97 42.4629C370.57 43.0072 370.87 43.873 370.87 45.0605V52H369.655ZM366.213 50.8403C367.147 50.8403 367.88 50.5898 368.412 50.0889C368.95 49.5817 369.219 48.8643 369.219 47.9365V47.0181L367.716 47.083C366.547 47.1263 365.693 47.3118 365.155 47.6396C364.623 47.9674 364.357 48.4839 364.357 49.189C364.357 49.7209 364.518 50.1291 364.84 50.4136C365.168 50.6981 365.625 50.8403 366.213 50.8403ZM377.912 50.8218C378.938 50.8218 379.684 50.5465 380.147 49.9961C380.618 49.4395 380.853 48.5488 380.853 47.3242V46.9253C380.853 45.5646 380.618 44.575 380.147 43.9565C379.677 43.3381 378.92 43.0288 377.875 43.0288C377.021 43.0288 376.359 43.369 375.889 44.0493C375.425 44.7235 375.193 45.6883 375.193 46.9438C375.193 48.2056 375.419 49.1673 375.871 49.8291C376.328 50.4909 377.009 50.8218 377.912 50.8218ZM380.834 51.9072L380.89 50.6548H380.815C380.129 51.6753 379.077 52.1855 377.661 52.1855C376.344 52.1855 375.314 51.7279 374.572 50.8125C373.836 49.891 373.468 48.5952 373.468 46.9253C373.468 45.2863 373.839 43.9937 374.581 43.0474C375.329 42.1011 376.35 41.6279 377.643 41.6279C379.022 41.6279 380.086 42.1413 380.834 43.168H380.936L381.159 41.8135H382.485V52.167C382.485 53.6266 382.114 54.7244 381.372 55.4604C380.636 56.1965 379.489 56.5645 377.93 56.5645C376.446 56.5645 375.224 56.348 374.266 55.915V54.375C375.255 54.9069 376.508 55.1729 378.023 55.1729C378.889 55.1729 379.572 54.9193 380.073 54.4121C380.58 53.9049 380.834 53.203 380.834 52.3062V51.9072ZM390.056 52.1855C388.528 52.1855 387.328 51.7248 386.456 50.8032C385.59 49.8755 385.157 48.6014 385.157 46.981C385.157 45.3481 385.562 44.0493 386.373 43.0845C387.183 42.1134 388.278 41.6279 389.657 41.6279C390.937 41.6279 391.958 42.0423 392.718 42.8711C393.479 43.6937 393.859 44.8101 393.859 46.2202V47.2314H386.883C386.914 48.388 387.208 49.2663 387.764 49.8662C388.321 50.4661 389.109 50.7661 390.13 50.7661C390.674 50.7661 391.191 50.7197 391.679 50.627C392.168 50.528 392.74 50.3394 393.396 50.061V51.5269C392.833 51.7681 392.304 51.9382 391.809 52.0371C391.314 52.1361 390.73 52.1855 390.056 52.1855ZM389.638 42.9917C388.84 42.9917 388.209 43.2484 387.746 43.7617C387.282 44.2751 387.007 44.9894 386.92 45.9048H392.106C392.094 44.9523 391.874 44.2287 391.447 43.7339C391.021 43.2391 390.417 42.9917 389.638 42.9917ZM407.599 52L403.127 40.1064H403.053C403.146 41.096 403.192 42.3175 403.192 43.771V52H401.615V38.4365H404.139L408.323 49.5508H408.397L412.655 38.4365H415.16V52H413.472V43.6597C413.472 42.7319 413.515 41.5537 413.602 40.125H413.527L409 52H407.599ZM417.025 41.8135H418.815L421.014 47.6118C421.478 48.8735 421.763 49.7982 421.868 50.3857H421.942C421.998 50.1569 422.124 49.7301 422.322 49.1055C422.52 48.4746 422.687 47.9705 422.823 47.5933L424.892 41.8135H426.692L422.304 53.4102C421.877 54.5358 421.37 55.3429 420.782 55.8315C420.195 56.3201 419.468 56.5645 418.602 56.5645C418.138 56.5645 417.677 56.5119 417.22 56.4067V55.0801C417.529 55.1543 417.9 55.1914 418.333 55.1914C418.865 55.1914 419.316 55.043 419.688 54.7461C420.059 54.4554 420.362 54.0039 420.597 53.3916L421.125 52.0371L417.025 41.8135ZM437.769 52H436.053V39.9395H431.813V38.4365H441.981V39.9395H437.769V52ZM447.501 52.1855C445.973 52.1855 444.773 51.7248 443.901 50.8032C443.035 49.8755 442.603 48.6014 442.603 46.981C442.603 45.3481 443.008 44.0493 443.818 43.0845C444.628 42.1134 445.723 41.6279 447.102 41.6279C448.382 41.6279 449.403 42.0423 450.164 42.8711C450.924 43.6937 451.305 44.8101 451.305 46.2202V47.2314H444.328C444.359 48.388 444.653 49.2663 445.209 49.8662C445.766 50.4661 446.555 50.7661 447.575 50.7661C448.119 50.7661 448.636 50.7197 449.125 50.627C449.613 50.528 450.185 50.3394 450.841 50.061V51.5269C450.278 51.7681 449.749 51.9382 449.254 52.0371C448.76 52.1361 448.175 52.1855 447.501 52.1855ZM447.083 42.9917C446.286 42.9917 445.655 43.2484 445.191 43.7617C444.727 44.2751 444.452 44.9894 444.365 45.9048H449.551C449.539 44.9523 449.319 44.2287 448.893 43.7339C448.466 43.2391 447.863 42.9917 447.083 42.9917ZM466.854 52V45.4409C466.854 43.8328 466.164 43.0288 464.785 43.0288C463.838 43.0288 463.143 43.304 462.697 43.8545C462.252 44.4049 462.029 45.2461 462.029 46.3779V52H460.369V45.4409C460.369 44.6369 460.199 44.0339 459.858 43.6318C459.524 43.2298 458.999 43.0288 458.281 43.0288C457.341 43.0288 456.652 43.3164 456.212 43.8916C455.779 44.4668 455.563 45.41 455.563 46.7212V52H453.893V41.8135H455.238L455.489 43.2051H455.582C455.872 42.7103 456.28 42.3237 456.806 42.0454C457.338 41.7671 457.932 41.6279 458.587 41.6279C460.183 41.6279 461.222 42.1969 461.705 43.335H461.797C462.125 42.7907 462.57 42.3701 463.133 42.0732C463.702 41.7764 464.346 41.6279 465.063 41.6279C466.213 41.6279 467.073 41.9248 467.642 42.5186C468.217 43.1123 468.505 44.0617 468.505 45.3667V52H466.854ZM476.493 52.1855C475.126 52.1855 474.074 51.6938 473.338 50.7104H473.227L473.264 51.0908C473.314 51.5732 473.338 52.0031 473.338 52.3804V56.5645H471.668V41.8135H473.042L473.264 43.2051H473.338C473.734 42.6484 474.192 42.2464 474.711 41.999C475.231 41.7516 475.831 41.6279 476.511 41.6279C477.835 41.6279 478.861 42.0887 479.591 43.0103C480.327 43.9256 480.695 45.2183 480.695 46.8882C480.695 48.5519 480.327 49.8507 479.591 50.7847C478.855 51.7186 477.822 52.1855 476.493 52.1855ZM476.214 43.0288C475.206 43.0288 474.476 43.3133 474.025 43.8823C473.58 44.4513 473.351 45.3451 473.338 46.5635V46.8882C473.338 48.2674 473.567 49.2663 474.025 49.8848C474.483 50.4971 475.225 50.8032 476.251 50.8032C477.105 50.8032 477.77 50.4569 478.246 49.7642C478.729 49.0715 478.97 48.1066 478.97 46.8696C478.97 45.6265 478.729 44.6771 478.246 44.0215C477.77 43.3597 477.093 43.0288 476.214 43.0288ZM485.028 52H483.358V37.5645H485.028V52ZM494.546 52L494.222 50.5527H494.147C493.64 51.1898 493.133 51.6227 492.626 51.8516C492.125 52.0742 491.491 52.1855 490.724 52.1855C489.722 52.1855 488.937 51.9227 488.368 51.397C487.799 50.8713 487.514 50.1291 487.514 49.1704C487.514 47.1047 489.144 46.0223 492.403 45.9233L494.129 45.8584V45.2554C494.129 44.4823 493.962 43.9132 493.628 43.5483C493.294 43.1772 492.759 42.9917 492.023 42.9917C491.485 42.9917 490.975 43.0721 490.492 43.2329C490.016 43.3937 489.568 43.5731 489.147 43.771L488.637 42.5186C489.15 42.2464 489.71 42.033 490.316 41.8784C490.922 41.7238 491.522 41.6465 492.116 41.6465C493.347 41.6465 494.262 41.9186 494.862 42.4629C495.462 43.0072 495.762 43.873 495.762 45.0605V52H494.546ZM491.104 50.8403C492.038 50.8403 492.771 50.5898 493.303 50.0889C493.841 49.5817 494.11 48.8643 494.11 47.9365V47.0181L492.607 47.083C491.438 47.1263 490.585 47.3118 490.047 47.6396C489.515 47.9674 489.249 48.4839 489.249 49.189C489.249 49.7209 489.41 50.1291 489.731 50.4136C490.059 50.6981 490.517 50.8403 491.104 50.8403ZM502.33 50.8218C502.547 50.8218 502.8 50.8001 503.091 50.7568C503.382 50.7135 503.601 50.6641 503.75 50.6084V51.8887C503.595 51.9567 503.354 52.0216 503.026 52.0835C502.704 52.1515 502.376 52.1855 502.042 52.1855C500.051 52.1855 499.055 51.1372 499.055 49.0405V43.1123H497.617V42.3145L499.074 41.6465L499.742 39.4756H500.734V41.8135H503.675V43.1123H500.734V48.9941C500.734 49.5817 500.874 50.0332 501.152 50.3486C501.436 50.6641 501.829 50.8218 502.33 50.8218ZM510.123 52.1855C508.595 52.1855 507.396 51.7248 506.523 50.8032C505.658 49.8755 505.225 48.6014 505.225 46.981C505.225 45.3481 505.63 44.0493 506.44 43.0845C507.25 42.1134 508.345 41.6279 509.724 41.6279C511.004 41.6279 512.025 42.0423 512.786 42.8711C513.546 43.6937 513.927 44.8101 513.927 46.2202V47.2314H506.95C506.981 48.388 507.275 49.2663 507.832 49.8662C508.388 50.4661 509.177 50.7661 510.197 50.7661C510.742 50.7661 511.258 50.7197 511.747 50.627C512.235 50.528 512.807 50.3394 513.463 50.061V51.5269C512.9 51.7681 512.371 51.9382 511.876 52.0371C511.382 52.1361 510.797 52.1855 510.123 52.1855ZM509.706 42.9917C508.908 42.9917 508.277 43.2484 507.813 43.7617C507.349 44.2751 507.074 44.9894 506.987 45.9048H512.173C512.161 44.9523 511.941 44.2287 511.515 43.7339C511.088 43.2391 510.485 42.9917 509.706 42.9917ZM523.148 49.189C523.148 50.1414 522.793 50.8805 522.082 51.4062C521.37 51.9258 520.371 52.1855 519.085 52.1855C517.743 52.1855 516.676 51.9722 515.884 51.5454V50.0239C517.004 50.5682 518.083 50.8403 519.122 50.8403C519.963 50.8403 520.576 50.7043 520.959 50.4321C521.342 50.16 521.534 49.7951 521.534 49.3374C521.534 48.9354 521.349 48.5952 520.978 48.3169C520.613 48.0386 519.96 47.7201 519.02 47.3613C518.061 46.9902 517.387 46.6748 516.998 46.415C516.608 46.1491 516.32 45.8522 516.135 45.5244C515.955 45.1966 515.866 44.7977 515.866 44.3276C515.866 43.4927 516.206 42.834 516.886 42.3516C517.567 41.8691 518.5 41.6279 519.688 41.6279C520.845 41.6279 521.927 41.8568 522.935 42.3145L522.369 43.6411C521.336 43.2082 520.405 42.9917 519.577 42.9917C518.884 42.9917 518.358 43.103 518 43.3257C517.641 43.5422 517.461 43.8421 517.461 44.2256C517.461 44.5967 517.616 44.9059 517.925 45.1533C518.235 45.3945 518.955 45.7316 520.087 46.1646C520.934 46.48 521.559 46.7738 521.961 47.0459C522.369 47.318 522.669 47.6242 522.861 47.9644C523.053 48.3045 523.148 48.7127 523.148 49.189Z"></path>
<path fill="#E96969" d="M242 42.9995H274.866C275.418 42.9995 275.866 43.4475 275.866 43.9995V44.0625L274.866 43.0625H301.066V45.0625H274.866C274.314 45.0625 273.866 44.6145 273.866 44.0625V43.9995L274.866 44.9995H242V42.9995ZM299.732 40.0625L307.732 44.0625L299.732 48.0625V40.0625Z"></path>
</svg>
