<svg xmlns="http://www.w3.org/2000/svg" fill="none" viewBox="0 0 860 414" height="414" width="860">
<path stroke-linejoin="round" stroke-miterlimit="10" stroke="#0B233F" fill="#0B233F" d="M1 15.667C1 7.56699 7.5665 1 15.6668 1H228.333C236.433 1 243 7.56699 243 15.667V74.333C243 82.433 236.433 89 228.333 89H15.6668C7.5665 89 1 82.433 1 74.333V15.667Z" clip-rule="evenodd" fill-rule="evenodd"></path>
<path fill="white" d="M26.7654 29.5H23.6684V23.648H19.1464V29.5H16.0684V15.934H19.1464V21.254H23.6684V15.934H26.7654V29.5ZM38.6917 24.294C38.6917 25.1553 38.5777 25.9217 38.3497 26.593C38.1344 27.2643 37.8177 27.8343 37.3997 28.303C36.9817 28.759 36.4687 29.1073 35.8607 29.348C35.2654 29.576 34.5941 29.69 33.8467 29.69C33.1501 29.69 32.5041 29.576 31.9087 29.348C31.3134 29.1073 30.8004 28.759 30.3697 28.303C29.9517 27.8343 29.6224 27.2643 29.3817 26.593C29.1537 25.9217 29.0397 25.1553 29.0397 24.294C29.0397 23.1413 29.2361 22.1723 29.6287 21.387C30.0214 20.589 30.5787 19.981 31.3007 19.563C32.0227 19.145 32.8904 18.936 33.9037 18.936C34.8411 18.936 35.6644 19.145 36.3737 19.563C37.0957 19.981 37.6594 20.589 38.0647 21.387C38.4827 22.1723 38.6917 23.1413 38.6917 24.294ZM32.1367 24.294C32.1367 24.978 32.1937 25.5543 32.3077 26.023C32.4344 26.479 32.6244 26.8273 32.8777 27.068C33.1437 27.296 33.4794 27.41 33.8847 27.41C34.3027 27.41 34.6321 27.296 34.8727 27.068C35.1261 26.8273 35.3097 26.479 35.4237 26.023C35.5377 25.5543 35.5947 24.978 35.5947 24.294C35.5947 23.61 35.5377 23.04 35.4237 22.584C35.3097 22.128 35.1197 21.786 34.8537 21.558C34.6004 21.33 34.2711 21.216 33.8657 21.216C33.2451 21.216 32.8017 21.4757 32.5357 21.995C32.2697 22.5017 32.1367 23.268 32.1367 24.294ZM47.4752 24.028C47.4372 23.8127 47.3929 23.5973 47.3422 23.382C47.3042 23.154 47.2599 22.9323 47.2092 22.717C47.1712 22.5017 47.1396 22.2927 47.1142 22.09C47.0889 21.8747 47.0636 21.672 47.0382 21.482H46.9812C46.9686 21.672 46.9432 21.8747 46.9052 22.09C46.8799 22.3053 46.8482 22.527 46.8102 22.755C46.7722 22.9703 46.7279 23.192 46.6772 23.42C46.6392 23.648 46.5949 23.876 46.5442 24.104L45.3472 29.5H41.7942L39.3052 19.126H42.2692L43.2572 24.427C43.3206 24.7437 43.3776 25.0667 43.4282 25.396C43.4789 25.7127 43.5232 26.023 43.5612 26.327C43.6119 26.6183 43.6436 26.8843 43.6562 27.125H43.7322C43.7576 26.9477 43.7892 26.7323 43.8272 26.479C43.8652 26.2257 43.9032 25.9723 43.9412 25.719C43.9919 25.453 44.0362 25.2123 44.0742 24.997C44.1122 24.7817 44.1439 24.6233 44.1692 24.522L45.3662 19.126H48.6722L49.8312 24.503C49.8692 24.6803 49.9136 24.9337 49.9642 25.263C50.0149 25.5797 50.0592 25.909 50.0972 26.251C50.1479 26.593 50.1796 26.8843 50.1922 27.125H50.2492C50.2746 26.8843 50.3062 26.6183 50.3442 26.327C50.3949 26.0357 50.4456 25.7253 50.4962 25.396C50.5596 25.0667 50.6229 24.7437 50.6862 24.427L51.7882 19.126H54.6762L52.1112 29.5H48.5772L47.4752 24.028ZM65.2638 27.429C65.5678 27.429 65.8465 27.3973 66.0998 27.334C66.3658 27.2707 66.6382 27.1947 66.9168 27.106V29.215C66.6002 29.3417 66.2265 29.4493 65.7958 29.538C65.3778 29.6393 64.8838 29.69 64.3138 29.69C63.7058 29.69 63.1612 29.5887 62.6798 29.386C62.2112 29.1833 61.8438 28.835 61.5778 28.341C61.3118 27.8343 61.1788 27.1377 61.1788 26.251V21.254H59.9438V20.057L61.4258 19.107L62.2618 16.922H64.2188V19.126H66.8028V21.254H64.2188V26.251C64.2188 26.6437 64.3138 26.9413 64.5038 27.144C64.6938 27.334 64.9472 27.429 65.2638 27.429ZM77.9164 24.294C77.9164 25.1553 77.8024 25.9217 77.5744 26.593C77.359 27.2643 77.0424 27.8343 76.6244 28.303C76.2064 28.759 75.6934 29.1073 75.0854 29.348C74.49 29.576 73.8187 29.69 73.0714 29.69C72.3747 29.69 71.7287 29.576 71.1334 29.348C70.538 29.1073 70.025 28.759 69.5944 28.303C69.1764 27.8343 68.847 27.2643 68.6064 26.593C68.3784 25.9217 68.2644 25.1553 68.2644 24.294C68.2644 23.1413 68.4607 22.1723 68.8534 21.387C69.246 20.589 69.8034 19.981 70.5254 19.563C71.2474 19.145 72.115 18.936 73.1284 18.936C74.0657 18.936 74.889 19.145 75.5984 19.563C76.3204 19.981 76.884 20.589 77.2894 21.387C77.7074 22.1723 77.9164 23.1413 77.9164 24.294ZM71.3614 24.294C71.3614 24.978 71.4184 25.5543 71.5324 26.023C71.659 26.479 71.849 26.8273 72.1024 27.068C72.3684 27.296 72.704 27.41 73.1094 27.41C73.5274 27.41 73.8567 27.296 74.0974 27.068C74.3507 26.8273 74.5344 26.479 74.6484 26.023C74.7624 25.5543 74.8194 24.978 74.8194 24.294C74.8194 23.61 74.7624 23.04 74.6484 22.584C74.5344 22.128 74.3444 21.786 74.0784 21.558C73.825 21.33 73.4957 21.216 73.0904 21.216C72.4697 21.216 72.0264 21.4757 71.7604 21.995C71.4944 22.5017 71.3614 23.268 71.3614 24.294ZM96.3651 18.936C97.4924 18.936 98.3411 19.24 98.9111 19.848C99.4937 20.4433 99.7851 21.406 99.7851 22.736V29.5H96.7641V23.439C96.7641 22.6917 96.6501 22.1343 96.4221 21.767C96.2067 21.387 95.8774 21.197 95.4341 21.197C94.8007 21.197 94.3574 21.463 94.1041 21.995C93.8507 22.527 93.7241 23.2933 93.7241 24.294V29.5H90.6841V23.439C90.6841 22.945 90.6334 22.5333 90.5321 22.204C90.4434 21.8747 90.3041 21.6277 90.1141 21.463C89.9241 21.2857 89.6707 21.197 89.3541 21.197C88.9234 21.197 88.5814 21.33 88.3281 21.596C88.0874 21.862 87.9164 22.2483 87.8151 22.755C87.7137 23.2617 87.6631 23.8823 87.6631 24.617V29.5H84.6231V19.126H86.9221L87.3591 20.456H87.4731C87.6631 20.1013 87.8974 19.8163 88.1761 19.601C88.4674 19.373 88.7967 19.2083 89.1641 19.107C89.5441 18.993 89.9494 18.936 90.3801 18.936C91.0894 18.936 91.6847 19.0627 92.1661 19.316C92.6601 19.5567 93.0464 19.9367 93.3251 20.456H93.4961C93.8001 19.924 94.2054 19.5377 94.7121 19.297C95.2314 19.0563 95.7824 18.936 96.3651 18.936ZM111.445 24.294C111.445 25.1553 111.331 25.9217 111.103 26.593C110.887 27.2643 110.571 27.8343 110.153 28.303C109.735 28.759 109.222 29.1073 108.614 29.348C108.018 29.576 107.347 29.69 106.6 29.69C105.903 29.69 105.257 29.576 104.662 29.348C104.066 29.1073 103.553 28.759 103.123 28.303C102.705 27.8343 102.375 27.2643 102.135 26.593C101.907 25.9217 101.793 25.1553 101.793 24.294C101.793 23.1413 101.989 22.1723 102.382 21.387C102.774 20.589 103.332 19.981 104.054 19.563C104.776 19.145 105.643 18.936 106.657 18.936C107.594 18.936 108.417 19.145 109.127 19.563C109.849 19.981 110.412 20.589 110.818 21.387C111.236 22.1723 111.445 23.1413 111.445 24.294ZM104.89 24.294C104.89 24.978 104.947 25.5543 105.061 26.023C105.187 26.479 105.377 26.8273 105.631 27.068C105.897 27.296 106.232 27.41 106.638 27.41C107.056 27.41 107.385 27.296 107.626 27.068C107.879 26.8273 108.063 26.479 108.177 26.023C108.291 25.5543 108.348 24.978 108.348 24.294C108.348 23.61 108.291 23.04 108.177 22.584C108.063 22.128 107.873 21.786 107.607 21.558C107.353 21.33 107.024 21.216 106.619 21.216C105.998 21.216 105.555 21.4757 105.289 21.995C105.023 22.5017 104.89 23.268 104.89 24.294ZM119.365 18.936C120.403 18.936 121.239 19.24 121.873 19.848C122.519 20.4433 122.842 21.406 122.842 22.736V29.5H119.802V23.439C119.802 22.6917 119.688 22.1343 119.46 21.767C119.244 21.387 118.896 21.197 118.415 21.197C117.68 21.197 117.186 21.4947 116.933 22.09C116.679 22.6727 116.553 23.515 116.553 24.617V29.5H113.513V19.126H115.812L116.23 20.456H116.363C116.578 20.1013 116.831 19.8163 117.123 19.601C117.427 19.373 117.769 19.2083 118.149 19.107C118.529 18.993 118.934 18.936 119.365 18.936ZM128.409 19.126V29.5H125.369V19.126H128.409ZM126.908 15.06C127.351 15.06 127.731 15.1613 128.048 15.364C128.365 15.554 128.523 15.915 128.523 16.447C128.523 16.9663 128.365 17.3273 128.048 17.53C127.731 17.7327 127.351 17.834 126.908 17.834C126.452 17.834 126.066 17.7327 125.749 17.53C125.432 17.3273 125.274 16.9663 125.274 16.447C125.274 15.915 125.432 15.554 125.749 15.364C126.066 15.1613 126.452 15.06 126.908 15.06ZM135.456 27.429C135.76 27.429 136.039 27.3973 136.292 27.334C136.558 27.2707 136.831 27.1947 137.109 27.106V29.215C136.793 29.3417 136.419 29.4493 135.988 29.538C135.57 29.6393 135.076 29.69 134.506 29.69C133.898 29.69 133.354 29.5887 132.872 29.386C132.404 29.1833 132.036 28.835 131.77 28.341C131.504 27.8343 131.371 27.1377 131.371 26.251V21.254H130.136V20.057L131.618 19.107L132.454 16.922H134.411V19.126H136.995V21.254H134.411V26.251C134.411 26.6437 134.506 26.9413 134.696 27.144C134.886 27.334 135.14 27.429 135.456 27.429ZM148.109 24.294C148.109 25.1553 147.995 25.9217 147.767 26.593C147.551 27.2643 147.235 27.8343 146.817 28.303C146.399 28.759 145.886 29.1073 145.278 29.348C144.682 29.576 144.011 29.69 143.264 29.69C142.567 29.69 141.921 29.576 141.326 29.348C140.73 29.1073 140.217 28.759 139.787 28.303C139.369 27.8343 139.039 27.2643 138.799 26.593C138.571 25.9217 138.457 25.1553 138.457 24.294C138.457 23.1413 138.653 22.1723 139.046 21.387C139.438 20.589 139.996 19.981 140.718 19.563C141.44 19.145 142.307 18.936 143.321 18.936C144.258 18.936 145.081 19.145 145.791 19.563C146.513 19.981 147.076 20.589 147.482 21.387C147.9 22.1723 148.109 23.1413 148.109 24.294ZM141.554 24.294C141.554 24.978 141.611 25.5543 141.725 26.023C141.851 26.479 142.041 26.8273 142.295 27.068C142.561 27.296 142.896 27.41 143.302 27.41C143.72 27.41 144.049 27.296 144.29 27.068C144.543 26.8273 144.727 26.479 144.841 26.023C144.955 25.5543 145.012 24.978 145.012 24.294C145.012 23.61 144.955 23.04 144.841 22.584C144.727 22.128 144.537 21.786 144.271 21.558C144.017 21.33 143.688 21.216 143.283 21.216C142.662 21.216 142.219 21.4757 141.953 21.995C141.687 22.5017 141.554 23.268 141.554 24.294ZM155.877 18.936C156.041 18.936 156.219 18.9423 156.409 18.955C156.599 18.9677 156.744 18.9867 156.846 19.012L156.599 21.672C156.497 21.6467 156.364 21.6277 156.2 21.615C156.035 21.5897 155.845 21.577 155.63 21.577C155.351 21.577 155.066 21.6277 154.775 21.729C154.496 21.8177 154.236 21.9633 153.996 22.166C153.768 22.3687 153.578 22.641 153.426 22.983C153.286 23.3123 153.217 23.724 153.217 24.218V29.5H150.177V19.126H152.457L152.913 20.874H153.065C153.255 20.5193 153.489 20.1963 153.768 19.905C154.046 19.6137 154.363 19.3793 154.718 19.202C155.085 19.0247 155.471 18.936 155.877 18.936Z"></path>
<path fill="white" d="M22.9274 48.422C22.9274 49.1187 22.7754 49.714 22.4714 50.208C22.18 50.6893 21.7304 51.0567 21.1224 51.31C20.5144 51.5633 19.729 51.69 18.7664 51.69C18.0697 51.69 17.4617 51.6393 16.9424 51.538C16.423 51.4493 15.8974 51.2973 15.3654 51.082V48.745C15.948 48.9983 16.5497 49.2073 17.1704 49.372C17.791 49.5367 18.3104 49.619 18.7284 49.619C19.1844 49.619 19.5074 49.5367 19.6974 49.372C19.9 49.2073 20.0014 48.992 20.0014 48.726C20.0014 48.5487 19.9507 48.3903 19.8494 48.251C19.748 48.1117 19.5454 47.9533 19.2414 47.776C18.9374 47.5987 18.4877 47.3707 17.8924 47.092C17.3097 46.8133 16.8284 46.541 16.4484 46.275C16.081 45.9963 15.8024 45.667 15.6124 45.287C15.435 44.8943 15.3464 44.4067 15.3464 43.824C15.3464 42.8613 15.7074 42.1393 16.4294 41.658C17.164 41.1767 18.1267 40.936 19.3174 40.936C19.9507 40.936 20.546 40.9993 21.1034 41.126C21.6607 41.2527 22.237 41.4617 22.8324 41.753L21.9774 43.786C21.648 43.634 21.325 43.501 21.0084 43.387C20.6917 43.273 20.3877 43.1843 20.0964 43.121C19.8177 43.0577 19.5517 43.026 19.2984 43.026C18.969 43.026 18.7157 43.083 18.5384 43.197C18.3737 43.311 18.2914 43.482 18.2914 43.71C18.2914 43.8747 18.342 44.0267 18.4434 44.166C18.5447 44.2927 18.741 44.4383 19.0324 44.603C19.3237 44.755 19.748 44.9513 20.3054 45.192C20.8754 45.4327 21.3504 45.686 21.7304 45.952C22.123 46.2053 22.4207 46.5283 22.6234 46.921C22.826 47.301 22.9274 47.8013 22.9274 48.422ZM29.3791 49.429C29.6831 49.429 29.9617 49.3973 30.2151 49.334C30.4811 49.2707 30.7534 49.1947 31.0321 49.106V51.215C30.7154 51.3417 30.3417 51.4493 29.9111 51.538C29.4931 51.6393 28.9991 51.69 28.4291 51.69C27.8211 51.69 27.2764 51.5887 26.7951 51.386C26.3264 51.1833 25.9591 50.835 25.6931 50.341C25.4271 49.8343 25.2941 49.1377 25.2941 48.251V43.254H24.0591V42.057L25.5411 41.107L26.3771 38.922H28.3341V41.126H30.9181V43.254H28.3341V48.251C28.3341 48.6437 28.4291 48.9413 28.6191 49.144C28.8091 49.334 29.0624 49.429 29.3791 49.429ZM42.1646 41.126V51.5H39.8656L39.4666 50.17H39.2956C39.0929 50.5247 38.8333 50.816 38.5166 51.044C38.2126 51.2593 37.8706 51.4177 37.4906 51.519C37.1106 51.633 36.7179 51.69 36.3126 51.69C35.6413 51.69 35.0459 51.557 34.5266 51.291C34.0073 51.025 33.5956 50.6133 33.2916 50.056C33.0003 49.4987 32.8546 48.7767 32.8546 47.89V41.126H35.8946V47.187C35.8946 47.9217 36.0023 48.479 36.2176 48.859C36.4329 49.239 36.7813 49.429 37.2626 49.429C37.7566 49.429 38.1366 49.296 38.4026 49.03C38.6686 48.764 38.8523 48.3777 38.9536 47.871C39.0676 47.3643 39.1246 46.7437 39.1246 46.009V41.126H42.1646ZM47.827 51.69C46.7757 51.69 45.9144 51.2403 45.243 50.341C44.5717 49.429 44.236 48.0927 44.236 46.332C44.236 44.5587 44.578 43.216 45.262 42.304C45.946 41.392 46.8327 40.936 47.922 40.936C48.378 40.936 48.7707 41.0057 49.1 41.145C49.442 41.2717 49.7334 41.449 49.974 41.677C50.2274 41.905 50.4427 42.1647 50.62 42.456H50.696C50.658 42.2533 50.62 41.962 50.582 41.582C50.544 41.1893 50.525 40.7903 50.525 40.385V37.06H53.565V51.5H51.266L50.639 50.151H50.525C50.3604 50.4297 50.1577 50.6893 49.917 50.93C49.6764 51.158 49.385 51.3417 49.043 51.481C48.701 51.6203 48.2957 51.69 47.827 51.69ZM48.986 49.429C49.6194 49.429 50.069 49.201 50.335 48.745C50.6137 48.2763 50.753 47.5797 50.753 46.655V46.351C50.753 45.3377 50.6264 44.565 50.373 44.033C50.1197 43.501 49.6447 43.235 48.948 43.235C48.454 43.235 48.055 43.5073 47.751 44.052C47.4597 44.584 47.314 45.3567 47.314 46.37C47.314 47.3833 47.4597 48.1497 47.751 48.669C48.055 49.1757 48.4667 49.429 48.986 49.429ZM60.3786 40.936C61.3033 40.936 62.1013 41.1197 62.7726 41.487C63.4439 41.8543 63.9633 42.3863 64.3306 43.083C64.6979 43.7797 64.8816 44.6347 64.8816 45.648V47.016H58.7066C58.7319 47.814 58.9346 48.441 59.3146 48.897C59.7073 49.353 60.2646 49.581 60.9866 49.581C61.6199 49.581 62.1899 49.5177 62.6966 49.391C63.2159 49.2517 63.7479 49.0427 64.2926 48.764V50.949C63.8239 51.2023 63.3109 51.386 62.7536 51.5C62.2089 51.6267 61.5313 51.69 60.7206 51.69C59.7326 51.69 58.8523 51.5 58.0796 51.12C57.3196 50.7273 56.7179 50.1383 56.2746 49.353C55.8439 48.5677 55.6286 47.5797 55.6286 46.389C55.6286 45.173 55.8249 44.166 56.2176 43.368C56.6229 42.5573 57.1803 41.9493 57.8896 41.544C58.6116 41.1387 59.4413 40.936 60.3786 40.936ZM60.4356 42.95C59.9796 42.95 59.5996 43.1273 59.2956 43.482C58.9916 43.8367 58.8143 44.3877 58.7636 45.135H62.0886C62.0886 44.717 62.0253 44.3433 61.8986 44.014C61.7719 43.6847 61.5883 43.425 61.3476 43.235C61.1069 43.045 60.8029 42.95 60.4356 42.95ZM72.7924 40.936C73.8311 40.936 74.6671 41.24 75.3004 41.848C75.9464 42.4433 76.2694 43.406 76.2694 44.736V51.5H73.2294V45.439C73.2294 44.6917 73.1154 44.1343 72.8874 43.767C72.6721 43.387 72.3238 43.197 71.8424 43.197C71.1078 43.197 70.6138 43.4947 70.3604 44.09C70.1071 44.6727 69.9804 45.515 69.9804 46.617V51.5H66.9404V41.126H69.2394L69.6574 42.456H69.7904C70.0058 42.1013 70.2591 41.8163 70.5504 41.601C70.8544 41.373 71.1964 41.2083 71.5764 41.107C71.9564 40.993 72.3618 40.936 72.7924 40.936ZM83.2619 49.429C83.5659 49.429 83.8445 49.3973 84.0979 49.334C84.3639 49.2707 84.6362 49.1947 84.9149 49.106V51.215C84.5982 51.3417 84.2245 51.4493 83.7939 51.538C83.3759 51.6393 82.8819 51.69 82.3119 51.69C81.7039 51.69 81.1592 51.5887 80.6779 51.386C80.2092 51.1833 79.8419 50.835 79.5759 50.341C79.3099 49.8343 79.1769 49.1377 79.1769 48.251V43.254H77.9419V42.057L79.4239 41.107L80.2599 38.922H82.2169V41.126H84.8009V43.254H82.2169V48.251C82.2169 48.6437 82.3119 48.9413 82.5019 49.144C82.6919 49.334 82.9452 49.429 83.2619 49.429ZM89.8069 38.143C89.7056 38.5863 89.5663 39.0677 89.3889 39.587C89.2243 40.0937 89.0469 40.6067 88.8569 41.126C88.6669 41.6327 88.4706 42.1203 88.2679 42.589H86.1019C86.1906 42.209 86.2729 41.8163 86.3489 41.411C86.4376 41.0057 86.5199 40.6003 86.5959 40.195C86.6846 39.777 86.7606 39.378 86.8239 38.998C86.8873 38.618 86.9379 38.2633 86.9759 37.934H89.6739L89.8069 38.143ZM97.8141 48.422C97.8141 49.1187 97.6621 49.714 97.3581 50.208C97.0668 50.6893 96.6171 51.0567 96.0091 51.31C95.4011 51.5633 94.6158 51.69 93.6531 51.69C92.9564 51.69 92.3484 51.6393 91.8291 51.538C91.3098 51.4493 90.7841 51.2973 90.2521 51.082V48.745C90.8348 48.9983 91.4364 49.2073 92.0571 49.372C92.6778 49.5367 93.1971 49.619 93.6151 49.619C94.0711 49.619 94.3941 49.5367 94.5841 49.372C94.7868 49.2073 94.8881 48.992 94.8881 48.726C94.8881 48.5487 94.8374 48.3903 94.7361 48.251C94.6348 48.1117 94.4321 47.9533 94.1281 47.776C93.8241 47.5987 93.3744 47.3707 92.7791 47.092C92.1964 46.8133 91.7151 46.541 91.3351 46.275C90.9678 45.9963 90.6891 45.667 90.4991 45.287C90.3218 44.8943 90.2331 44.4067 90.2331 43.824C90.2331 42.8613 90.5941 42.1393 91.3161 41.658C92.0508 41.1767 93.0134 40.936 94.2041 40.936C94.8374 40.936 95.4328 40.9993 95.9901 41.126C96.5474 41.2527 97.1238 41.4617 97.7191 41.753L96.8641 43.786C96.5348 43.634 96.2118 43.501 95.8951 43.387C95.5784 43.273 95.2744 43.1843 94.9831 43.121C94.7044 43.0577 94.4384 43.026 94.1851 43.026C93.8558 43.026 93.6024 43.083 93.4251 43.197C93.2604 43.311 93.1781 43.482 93.1781 43.71C93.1781 43.8747 93.2288 44.0267 93.3301 44.166C93.4314 44.2927 93.6278 44.4383 93.9191 44.603C94.2104 44.755 94.6348 44.9513 95.1921 45.192C95.7621 45.4327 96.2371 45.686 96.6171 45.952C97.0098 46.2053 97.3074 46.5283 97.5101 46.921C97.7128 47.301 97.8141 47.8013 97.8141 48.422ZM104.648 51.5V37.934H107.726V49.125H112.761V51.5H104.648ZM118.919 40.936C119.843 40.936 120.641 41.1197 121.313 41.487C121.984 41.8543 122.503 42.3863 122.871 43.083C123.238 43.7797 123.422 44.6347 123.422 45.648V47.016H117.247C117.272 47.814 117.475 48.441 117.855 48.897C118.247 49.353 118.805 49.581 119.527 49.581C120.16 49.581 120.73 49.5177 121.237 49.391C121.756 49.2517 122.288 49.0427 122.833 48.764V50.949C122.364 51.2023 121.851 51.386 121.294 51.5C120.749 51.6267 120.071 51.69 119.261 51.69C118.273 51.69 117.392 51.5 116.62 51.12C115.86 50.7273 115.258 50.1383 114.815 49.353C114.384 48.5677 114.169 47.5797 114.169 46.389C114.169 45.173 114.365 44.166 114.758 43.368C115.163 42.5573 115.72 41.9493 116.43 41.544C117.152 41.1387 117.981 40.936 118.919 40.936ZM118.976 42.95C118.52 42.95 118.14 43.1273 117.836 43.482C117.532 43.8367 117.354 44.3877 117.304 45.135H120.629C120.629 44.717 120.565 44.3433 120.439 44.014C120.312 43.6847 120.128 43.425 119.888 43.235C119.647 43.045 119.343 42.95 118.976 42.95ZM129.888 40.917C131.168 40.917 132.156 41.221 132.852 41.829C133.562 42.4243 133.916 43.3427 133.916 44.584V51.5H131.807L131.218 50.094H131.142C130.864 50.4613 130.579 50.7653 130.287 51.006C129.996 51.2467 129.66 51.4177 129.28 51.519C128.9 51.633 128.438 51.69 127.893 51.69C127.323 51.69 126.81 51.576 126.354 51.348C125.911 51.1073 125.556 50.7463 125.29 50.265C125.024 49.771 124.891 49.1503 124.891 48.403C124.891 47.301 125.252 46.4903 125.974 45.971C126.709 45.439 127.786 45.1477 129.204 45.097L130.876 45.04V44.584C130.876 44.0393 130.756 43.6403 130.515 43.387C130.275 43.1337 129.945 43.007 129.527 43.007C129.097 43.007 128.647 43.083 128.178 43.235C127.71 43.3743 127.241 43.5517 126.772 43.767L125.841 41.848C126.399 41.5567 127.013 41.3287 127.684 41.164C128.368 40.9993 129.103 40.917 129.888 40.917ZM130.002 46.731C129.255 46.7563 128.729 46.921 128.425 47.225C128.134 47.529 127.988 47.928 127.988 48.422C127.988 48.8527 128.09 49.163 128.292 49.353C128.508 49.5303 128.786 49.619 129.128 49.619C129.61 49.619 130.021 49.4417 130.363 49.087C130.718 48.7197 130.895 48.2067 130.895 47.548V46.693L130.002 46.731ZM142.146 40.936C142.311 40.936 142.488 40.9423 142.678 40.955C142.868 40.9677 143.014 40.9867 143.115 41.012L142.868 43.672C142.767 43.6467 142.634 43.6277 142.469 43.615C142.305 43.5897 142.115 43.577 141.899 43.577C141.621 43.577 141.336 43.6277 141.044 43.729C140.766 43.8177 140.506 43.9633 140.265 44.166C140.037 44.3687 139.847 44.641 139.695 44.983C139.556 45.3123 139.486 45.724 139.486 46.218V51.5H136.446V41.126H138.726L139.182 42.874H139.334C139.524 42.5193 139.759 42.1963 140.037 41.905C140.316 41.6137 140.633 41.3793 140.987 41.202C141.355 41.0247 141.741 40.936 142.146 40.936ZM150.537 40.936C151.575 40.936 152.411 41.24 153.045 41.848C153.691 42.4433 154.014 43.406 154.014 44.736V51.5H150.974V45.439C150.974 44.6917 150.86 44.1343 150.632 43.767C150.416 43.387 150.068 43.197 149.587 43.197C148.852 43.197 148.358 43.4947 148.105 44.09C147.851 44.6727 147.725 45.515 147.725 46.617V51.5H144.685V41.126H146.984L147.402 42.456H147.535C147.75 42.1013 148.003 41.8163 148.295 41.601C148.599 41.373 148.941 41.2083 149.321 41.107C149.701 40.993 150.106 40.936 150.537 40.936ZM159.581 41.126V51.5H156.541V41.126H159.581ZM158.08 37.06C158.523 37.06 158.903 37.1613 159.22 37.364C159.537 37.554 159.695 37.915 159.695 38.447C159.695 38.9663 159.537 39.3273 159.22 39.53C158.903 39.7327 158.523 39.834 158.08 39.834C157.624 39.834 157.238 39.7327 156.921 39.53C156.604 39.3273 156.446 38.9663 156.446 38.447C156.446 37.915 156.604 37.554 156.921 37.364C157.238 37.1613 157.624 37.06 158.08 37.06ZM168.015 40.936C169.054 40.936 169.89 41.24 170.523 41.848C171.169 42.4433 171.492 43.406 171.492 44.736V51.5H168.452V45.439C168.452 44.6917 168.338 44.1343 168.11 43.767C167.895 43.387 167.546 43.197 167.065 43.197C166.33 43.197 165.836 43.4947 165.583 44.09C165.33 44.6727 165.203 45.515 165.203 46.617V51.5H162.163V41.126H164.462L164.88 42.456H165.013C165.228 42.1013 165.482 41.8163 165.773 41.601C166.077 41.373 166.419 41.2083 166.799 41.107C167.179 40.993 167.584 40.936 168.015 40.936ZM177.174 40.936C177.82 40.936 178.364 41.0627 178.808 41.316C179.264 41.5693 179.637 41.9493 179.929 42.456H180.005L180.233 41.126H182.836V51.519C182.836 52.507 182.646 53.3367 182.266 54.008C181.898 54.6793 181.341 55.186 180.594 55.528C179.846 55.8827 178.903 56.06 177.763 56.06C177.028 56.06 176.357 56.0157 175.749 55.927C175.153 55.8383 174.577 55.68 174.02 55.452V53.191C174.425 53.3683 174.818 53.514 175.198 53.628C175.59 53.7547 175.989 53.8433 176.395 53.894C176.813 53.9573 177.262 53.989 177.744 53.989C178.44 53.989 178.953 53.7927 179.283 53.4C179.625 53.0073 179.796 52.4183 179.796 51.633V51.424C179.796 51.2087 179.802 50.987 179.815 50.759C179.84 50.531 179.865 50.3283 179.891 50.151H179.796C179.517 50.6957 179.156 51.0883 178.713 51.329C178.282 51.5697 177.75 51.69 177.117 51.69C176.015 51.69 175.134 51.2213 174.476 50.284C173.83 49.334 173.507 48.0167 173.507 46.332C173.507 45.192 173.659 44.223 173.963 43.425C174.267 42.6143 174.691 42 175.236 41.582C175.793 41.1513 176.439 40.936 177.174 40.936ZM178.238 43.235C177.87 43.235 177.566 43.3553 177.326 43.596C177.085 43.824 176.901 44.1723 176.775 44.641C176.661 45.097 176.604 45.6733 176.604 46.37C176.604 47.4087 176.737 48.1877 177.003 48.707C177.281 49.2137 177.706 49.467 178.276 49.467C178.58 49.467 178.839 49.4227 179.055 49.334C179.283 49.2327 179.466 49.0743 179.606 48.859C179.745 48.631 179.846 48.3397 179.91 47.985C179.986 47.6303 180.024 47.1997 180.024 46.693V46.351C180.024 45.6037 179.967 45.002 179.853 44.546C179.739 44.09 179.549 43.7607 179.283 43.558C179.029 43.3427 178.681 43.235 178.238 43.235Z"></path>
<path fill="white" d="M20.3054 59.934C21.9394 59.934 23.1427 60.314 23.9154 61.074C24.7007 61.8213 25.0934 62.8537 25.0934 64.171C25.0934 64.7663 25.011 65.3363 24.8464 65.881C24.6817 66.413 24.4094 66.8943 24.0294 67.325C23.6494 67.743 23.1427 68.0723 22.5094 68.313C21.8887 68.5537 21.1224 68.674 20.2104 68.674H19.1464V73.5H16.0684V59.934H20.3054ZM20.2104 62.29H19.1464V66.318H19.9254C20.3307 66.318 20.6917 66.2483 21.0084 66.109C21.325 65.9697 21.572 65.748 21.7494 65.444C21.9267 65.14 22.0154 64.7473 22.0154 64.266C22.0154 63.5947 21.8634 63.1007 21.5594 62.784C21.2681 62.4547 20.8184 62.29 20.2104 62.29ZM32.8221 62.936C32.9867 62.936 33.1641 62.9423 33.3541 62.955C33.5441 62.9677 33.6897 62.9867 33.7911 63.012L33.5441 65.672C33.4427 65.6467 33.3097 65.6277 33.1451 65.615C32.9804 65.5897 32.7904 65.577 32.5751 65.577C32.2964 65.577 32.0114 65.6277 31.7201 65.729C31.4414 65.8177 31.1817 65.9633 30.9411 66.166C30.7131 66.3687 30.5231 66.641 30.3711 66.983C30.2317 67.3123 30.1621 67.724 30.1621 68.218V73.5H27.1221V63.126H29.4021L29.8581 64.874H30.0101C30.2001 64.5193 30.4344 64.1963 30.7131 63.905C30.9917 63.6137 31.3084 63.3793 31.6631 63.202C32.0304 63.0247 32.4167 62.936 32.8221 62.936ZM44.1468 68.294C44.1468 69.1553 44.0328 69.9217 43.8048 70.593C43.5895 71.2643 43.2728 71.8343 42.8548 72.303C42.4368 72.759 41.9238 73.1073 41.3158 73.348C40.7205 73.576 40.0492 73.69 39.3018 73.69C38.6052 73.69 37.9592 73.576 37.3638 73.348C36.7685 73.1073 36.2555 72.759 35.8248 72.303C35.4068 71.8343 35.0775 71.2643 34.8368 70.593C34.6088 69.9217 34.4948 69.1553 34.4948 68.294C34.4948 67.1413 34.6912 66.1723 35.0838 65.387C35.4765 64.589 36.0338 63.981 36.7558 63.563C37.4778 63.145 38.3455 62.936 39.3588 62.936C40.2962 62.936 41.1195 63.145 41.8288 63.563C42.5508 63.981 43.1145 64.589 43.5198 65.387C43.9378 66.1723 44.1468 67.1413 44.1468 68.294ZM37.5918 68.294C37.5918 68.978 37.6488 69.5543 37.7628 70.023C37.8895 70.479 38.0795 70.8273 38.3328 71.068C38.5988 71.296 38.9345 71.41 39.3398 71.41C39.7578 71.41 40.0872 71.296 40.3278 71.068C40.5812 70.8273 40.7648 70.479 40.8788 70.023C40.9928 69.5543 41.0498 68.978 41.0498 68.294C41.0498 67.61 40.9928 67.04 40.8788 66.584C40.7648 66.128 40.5748 65.786 40.3088 65.558C40.0555 65.33 39.7262 65.216 39.3208 65.216C38.7002 65.216 38.2568 65.4757 37.9908 65.995C37.7248 66.5017 37.5918 67.268 37.5918 68.294ZM49.3689 62.936C50.0149 62.936 50.5595 63.0627 51.0029 63.316C51.4589 63.5693 51.8325 63.9493 52.1239 64.456H52.1999L52.4279 63.126H55.0309V73.519C55.0309 74.507 54.8409 75.3367 54.4609 76.008C54.0935 76.6793 53.5362 77.186 52.7889 77.528C52.0415 77.8827 51.0979 78.06 49.9579 78.06C49.2232 78.06 48.5519 78.0157 47.9439 77.927C47.3485 77.8383 46.7722 77.68 46.2149 77.452V75.191C46.6202 75.3683 47.0129 75.514 47.3929 75.628C47.7855 75.7547 48.1845 75.8433 48.5899 75.894C49.0079 75.9573 49.4575 75.989 49.9389 75.989C50.6355 75.989 51.1485 75.7927 51.4779 75.4C51.8199 75.0073 51.9909 74.4183 51.9909 73.633V73.424C51.9909 73.2087 51.9972 72.987 52.0099 72.759C52.0352 72.531 52.0605 72.3283 52.0859 72.151H51.9909C51.7122 72.6957 51.3512 73.0883 50.9079 73.329C50.4772 73.5697 49.9452 73.69 49.3119 73.69C48.2099 73.69 47.3295 73.2213 46.6709 72.284C46.0249 71.334 45.7019 70.0167 45.7019 68.332C45.7019 67.192 45.8539 66.223 46.1579 65.425C46.4619 64.6143 46.8862 64 47.4309 63.582C47.9882 63.1513 48.6342 62.936 49.3689 62.936ZM50.4329 65.235C50.0655 65.235 49.7615 65.3553 49.5209 65.596C49.2802 65.824 49.0965 66.1723 48.9699 66.641C48.8559 67.097 48.7989 67.6733 48.7989 68.37C48.7989 69.4087 48.9319 70.1877 49.1979 70.707C49.4765 71.2137 49.9009 71.467 50.4709 71.467C50.7749 71.467 51.0345 71.4227 51.2499 71.334C51.4779 71.2327 51.6615 71.0743 51.8009 70.859C51.9402 70.631 52.0415 70.3397 52.1049 69.985C52.1809 69.6303 52.2189 69.1997 52.2189 68.693V68.351C52.2189 67.6037 52.1619 67.002 52.0479 66.546C51.9339 66.09 51.7439 65.7607 51.4779 65.558C51.2245 65.3427 50.8762 65.235 50.4329 65.235ZM63.3074 62.936C63.4721 62.936 63.6494 62.9423 63.8394 62.955C64.0294 62.9677 64.1751 62.9867 64.2764 63.012L64.0294 65.672C63.9281 65.6467 63.7951 65.6277 63.6304 65.615C63.4658 65.5897 63.2758 65.577 63.0604 65.577C62.7818 65.577 62.4968 65.6277 62.2054 65.729C61.9268 65.8177 61.6671 65.9633 61.4264 66.166C61.1984 66.3687 61.0084 66.641 60.8564 66.983C60.7171 67.3123 60.6474 67.724 60.6474 68.218V73.5H57.6074V63.126H59.8874L60.3434 64.874H60.4954C60.6854 64.5193 60.9198 64.1963 61.1984 63.905C61.4771 63.6137 61.7938 63.3793 62.1484 63.202C62.5158 63.0247 62.9021 62.936 63.3074 62.936ZM69.7302 62.936C70.6548 62.936 71.4528 63.1197 72.1242 63.487C72.7955 63.8543 73.3148 64.3863 73.6822 65.083C74.0495 65.7797 74.2332 66.6347 74.2332 67.648V69.016H68.0582C68.0835 69.814 68.2862 70.441 68.6662 70.897C69.0588 71.353 69.6162 71.581 70.3382 71.581C70.9715 71.581 71.5415 71.5177 72.0482 71.391C72.5675 71.2517 73.0995 71.0427 73.6442 70.764V72.949C73.1755 73.2023 72.6625 73.386 72.1052 73.5C71.5605 73.6267 70.8828 73.69 70.0722 73.69C69.0842 73.69 68.2038 73.5 67.4312 73.12C66.6712 72.7273 66.0695 72.1383 65.6262 71.353C65.1955 70.5677 64.9802 69.5797 64.9802 68.389C64.9802 67.173 65.1765 66.166 65.5692 65.368C65.9745 64.5573 66.5318 63.9493 67.2412 63.544C67.9632 63.1387 68.7928 62.936 69.7302 62.936ZM69.7872 64.95C69.3312 64.95 68.9512 65.1273 68.6472 65.482C68.3432 65.8367 68.1658 66.3877 68.1152 67.135H71.4402C71.4402 66.717 71.3768 66.3433 71.2502 66.014C71.1235 65.6847 70.9398 65.425 70.6992 65.235C70.4585 65.045 70.1545 64.95 69.7872 64.95ZM83.36 70.422C83.36 71.1187 83.208 71.714 82.904 72.208C82.6127 72.6893 82.163 73.0567 81.555 73.31C80.947 73.5633 80.1617 73.69 79.199 73.69C78.5023 73.69 77.8943 73.6393 77.375 73.538C76.8557 73.4493 76.33 73.2973 75.798 73.082V70.745C76.3807 70.9983 76.9823 71.2073 77.603 71.372C78.2237 71.5367 78.743 71.619 79.161 71.619C79.617 71.619 79.94 71.5367 80.13 71.372C80.3327 71.2073 80.434 70.992 80.434 70.726C80.434 70.5487 80.3833 70.3903 80.282 70.251C80.1807 70.1117 79.978 69.9533 79.674 69.776C79.37 69.5987 78.9203 69.3707 78.325 69.092C77.7423 68.8133 77.261 68.541 76.881 68.275C76.5137 67.9963 76.235 67.667 76.045 67.287C75.8677 66.8943 75.779 66.4067 75.779 65.824C75.779 64.8613 76.14 64.1393 76.862 63.658C77.5967 63.1767 78.5593 62.936 79.75 62.936C80.3833 62.936 80.9787 62.9993 81.536 63.126C82.0933 63.2527 82.6697 63.4617 83.265 63.753L82.41 65.786C82.0807 65.634 81.7577 65.501 81.441 65.387C81.1243 65.273 80.8203 65.1843 80.529 65.121C80.2503 65.0577 79.9843 65.026 79.731 65.026C79.4017 65.026 79.1483 65.083 78.971 65.197C78.8063 65.311 78.724 65.482 78.724 65.71C78.724 65.8747 78.7747 66.0267 78.876 66.166C78.9773 66.2927 79.1737 66.4383 79.465 66.603C79.7563 66.755 80.1807 66.9513 80.738 67.192C81.308 67.4327 81.783 67.686 82.163 67.952C82.5557 68.2053 82.8533 68.5283 83.056 68.921C83.2587 69.301 83.36 69.8013 83.36 70.422ZM92.4147 70.422C92.4147 71.1187 92.2627 71.714 91.9587 72.208C91.6674 72.6893 91.2177 73.0567 90.6097 73.31C90.0017 73.5633 89.2164 73.69 88.2537 73.69C87.557 73.69 86.949 73.6393 86.4297 73.538C85.9104 73.4493 85.3847 73.2973 84.8527 73.082V70.745C85.4354 70.9983 86.037 71.2073 86.6577 71.372C87.2784 71.5367 87.7977 71.619 88.2157 71.619C88.6717 71.619 88.9947 71.5367 89.1847 71.372C89.3874 71.2073 89.4887 70.992 89.4887 70.726C89.4887 70.5487 89.438 70.3903 89.3367 70.251C89.2354 70.1117 89.0327 69.9533 88.7287 69.776C88.4247 69.5987 87.975 69.3707 87.3797 69.092C86.797 68.8133 86.3157 68.541 85.9357 68.275C85.5684 67.9963 85.2897 67.667 85.0997 67.287C84.9224 66.8943 84.8337 66.4067 84.8337 65.824C84.8337 64.8613 85.1947 64.1393 85.9167 63.658C86.6514 63.1767 87.614 62.936 88.8047 62.936C89.438 62.936 90.0334 62.9993 90.5907 63.126C91.148 63.2527 91.7244 63.4617 92.3197 63.753L91.4647 65.786C91.1354 65.634 90.8124 65.501 90.4957 65.387C90.179 65.273 89.875 65.1843 89.5837 65.121C89.305 65.0577 89.039 65.026 88.7857 65.026C88.4564 65.026 88.203 65.083 88.0257 65.197C87.861 65.311 87.7787 65.482 87.7787 65.71C87.7787 65.8747 87.8294 66.0267 87.9307 66.166C88.032 66.2927 88.2284 66.4383 88.5197 66.603C88.811 66.755 89.2354 66.9513 89.7927 67.192C90.3627 67.4327 90.8377 67.686 91.2177 67.952C91.6104 68.2053 91.908 68.5283 92.1107 68.921C92.3134 69.301 92.4147 69.8013 92.4147 70.422ZM95.5984 68.313C95.5984 67.895 95.649 67.5213 95.7504 67.192C95.8517 66.8627 96.0164 66.5523 96.2444 66.261C96.485 65.9697 96.8144 65.672 97.2324 65.368C97.6124 65.0893 97.9037 64.8423 98.1064 64.627C98.309 64.4117 98.4484 64.1963 98.5244 63.981C98.6004 63.7657 98.6384 63.525 98.6384 63.259C98.6384 62.8537 98.5117 62.5497 98.2584 62.347C98.005 62.1317 97.663 62.024 97.2324 62.024C96.7637 62.024 96.276 62.1063 95.7694 62.271C95.2754 62.4357 94.756 62.6573 94.2114 62.936L93.1284 60.903C93.749 60.561 94.414 60.2823 95.1234 60.067C95.8327 59.8517 96.6117 59.744 97.4604 59.744C98.7397 59.744 99.7277 60.0607 100.424 60.694C101.134 61.3273 101.488 62.1317 101.488 63.107C101.488 63.6263 101.412 64.076 101.26 64.456C101.108 64.8233 100.88 65.1717 100.576 65.501C100.272 65.8303 99.886 66.1787 99.4174 66.546C99.0754 66.812 98.803 67.04 98.6004 67.23C98.4104 67.42 98.2774 67.6037 98.2014 67.781C98.1254 67.9583 98.0874 68.18 98.0874 68.446V68.997H95.5984V68.313ZM95.2564 72.17C95.2564 71.5873 95.421 71.182 95.7504 70.954C96.0797 70.7133 96.4787 70.593 96.9474 70.593C97.4034 70.593 97.796 70.7133 98.1254 70.954C98.4547 71.182 98.6194 71.5873 98.6194 72.17C98.6194 72.7273 98.4547 73.1327 98.1254 73.386C97.796 73.6267 97.4034 73.747 96.9474 73.747C96.4787 73.747 96.0797 73.6267 95.7504 73.386C95.421 73.1327 95.2564 72.7273 95.2564 72.17Z"></path>
<path stroke-linejoin="round" stroke-miterlimit="10" stroke="#0B233F" fill="#F3F5F8" d="M309 15.667C309 7.56699 315.567 1 323.667 1H536.333C544.433 1 551 7.56699 551 15.667V74.333C551 82.433 544.433 89 536.333 89H323.667C315.567 89 309 82.433 309 74.333V15.667Z" clip-rule="evenodd" fill-rule="evenodd"></path>
<path fill="#0B233F" d="M332.732 41.5L331.1 37.2974H325.719L324.104 41.5H322.379L327.676 27.8809H329.216L334.504 41.5H332.732ZM330.589 35.7852L329.068 31.6753L328.418 29.6436C328.233 30.3857 328.038 31.063 327.834 31.6753L326.294 35.7852H330.589ZM340.229 41.6855C338.763 41.6855 337.622 41.2371 336.805 40.3403C335.989 39.4373 335.581 38.1447 335.581 36.4624C335.581 34.7554 335.992 33.4411 336.814 32.5195C337.643 31.5918 338.821 31.1279 340.349 31.1279C340.844 31.1279 341.333 31.1805 341.815 31.2856C342.304 31.3846 342.706 31.5145 343.021 31.6753L342.511 33.0669C341.651 32.7453 340.918 32.5845 340.312 32.5845C339.285 32.5845 338.528 32.9092 338.039 33.5586C337.55 34.2018 337.306 35.1636 337.306 36.4438C337.306 37.6746 337.55 38.6178 338.039 39.2734C338.528 39.9229 339.251 40.2476 340.21 40.2476C341.107 40.2476 341.988 40.0496 342.854 39.6538V41.1382C342.149 41.5031 341.274 41.6855 340.229 41.6855ZM349.357 41.6855C347.892 41.6855 346.75 41.2371 345.934 40.3403C345.118 39.4373 344.709 38.1447 344.709 36.4624C344.709 34.7554 345.121 33.4411 345.943 32.5195C346.772 31.5918 347.95 31.1279 349.478 31.1279C349.973 31.1279 350.461 31.1805 350.944 31.2856C351.432 31.3846 351.834 31.5145 352.15 31.6753L351.64 33.0669C350.78 32.7453 350.047 32.5845 349.441 32.5845C348.414 32.5845 347.657 32.9092 347.168 33.5586C346.679 34.2018 346.435 35.1636 346.435 36.4438C346.435 37.6746 346.679 38.6178 347.168 39.2734C347.657 39.9229 348.38 40.2476 349.339 40.2476C350.236 40.2476 351.117 40.0496 351.983 39.6538V41.1382C351.278 41.5031 350.403 41.6855 349.357 41.6855ZM358.737 41.6855C357.209 41.6855 356.009 41.2248 355.137 40.3032C354.271 39.3755 353.838 38.1014 353.838 36.481C353.838 34.8481 354.243 33.5493 355.054 32.5845C355.864 31.6134 356.959 31.1279 358.338 31.1279C359.618 31.1279 360.639 31.5423 361.399 32.3711C362.16 33.1937 362.541 34.3101 362.541 35.7202V36.7314H355.564C355.595 37.888 355.889 38.7663 356.445 39.3662C357.002 39.9661 357.791 40.2661 358.811 40.2661C359.355 40.2661 359.872 40.2197 360.36 40.127C360.849 40.028 361.421 39.8394 362.077 39.561V41.0269C361.514 41.2681 360.985 41.4382 360.49 41.5371C359.995 41.6361 359.411 41.6855 358.737 41.6855ZM358.319 32.4917C357.521 32.4917 356.891 32.7484 356.427 33.2617C355.963 33.7751 355.688 34.4894 355.601 35.4048H360.787C360.775 34.4523 360.555 33.7287 360.128 33.2339C359.702 32.7391 359.099 32.4917 358.319 32.4917ZM371.762 38.689C371.762 39.6414 371.407 40.3805 370.695 40.9062C369.984 41.4258 368.985 41.6855 367.699 41.6855C366.357 41.6855 365.29 41.4722 364.498 41.0454V39.5239C365.618 40.0682 366.697 40.3403 367.736 40.3403C368.577 40.3403 369.189 40.2043 369.573 39.9321C369.956 39.66 370.148 39.2951 370.148 38.8374C370.148 38.4354 369.962 38.0952 369.591 37.8169C369.226 37.5386 368.574 37.2201 367.634 36.8613C366.675 36.4902 366.001 36.1748 365.611 35.915C365.222 35.6491 364.934 35.3522 364.749 35.0244C364.569 34.6966 364.479 34.2977 364.479 33.8276C364.479 32.9927 364.82 32.334 365.5 31.8516C366.18 31.3691 367.114 31.1279 368.302 31.1279C369.458 31.1279 370.541 31.3568 371.549 31.8145L370.983 33.1411C369.95 32.7082 369.019 32.4917 368.19 32.4917C367.498 32.4917 366.972 32.603 366.613 32.8257C366.255 33.0422 366.075 33.3421 366.075 33.7256C366.075 34.0967 366.23 34.4059 366.539 34.6533C366.848 34.8945 367.569 35.2316 368.701 35.6646C369.548 35.98 370.173 36.2738 370.575 36.5459C370.983 36.818 371.283 37.1242 371.475 37.4644C371.666 37.8045 371.762 38.2127 371.762 38.689ZM380.873 38.689C380.873 39.6414 380.517 40.3805 379.806 40.9062C379.094 41.4258 378.096 41.6855 376.809 41.6855C375.467 41.6855 374.4 41.4722 373.608 41.0454V39.5239C374.728 40.0682 375.807 40.3403 376.846 40.3403C377.687 40.3403 378.3 40.2043 378.683 39.9321C379.067 39.66 379.258 39.2951 379.258 38.8374C379.258 38.4354 379.073 38.0952 378.702 37.8169C378.337 37.5386 377.684 37.2201 376.744 36.8613C375.785 36.4902 375.111 36.1748 374.722 35.915C374.332 35.6491 374.044 35.3522 373.859 35.0244C373.68 34.6966 373.59 34.2977 373.59 33.8276C373.59 32.9927 373.93 32.334 374.61 31.8516C375.291 31.3691 376.225 31.1279 377.412 31.1279C378.569 31.1279 379.651 31.3568 380.659 31.8145L380.093 33.1411C379.06 32.7082 378.13 32.4917 377.301 32.4917C376.608 32.4917 376.082 32.603 375.724 32.8257C375.365 33.0422 375.186 33.3421 375.186 33.7256C375.186 34.0967 375.34 34.4059 375.649 34.6533C375.959 34.8945 376.679 35.2316 377.811 35.6646C378.658 35.98 379.283 36.2738 379.685 36.5459C380.093 36.818 380.393 37.1242 380.585 37.4644C380.777 37.8045 380.873 38.2127 380.873 38.689ZM388.517 41.5V27.9365H390.224V39.9785H396.152V41.5H388.517ZM402.582 41.6855C401.054 41.6855 399.854 41.2248 398.982 40.3032C398.116 39.3755 397.683 38.1014 397.683 36.481C397.683 34.8481 398.088 33.5493 398.898 32.5845C399.709 31.6134 400.803 31.1279 402.183 31.1279C403.463 31.1279 404.483 31.5423 405.244 32.3711C406.005 33.1937 406.385 34.3101 406.385 35.7202V36.7314H399.409C399.44 37.888 399.733 38.7663 400.29 39.3662C400.847 39.9661 401.635 40.2661 402.656 40.2661C403.2 40.2661 403.716 40.2197 404.205 40.127C404.694 40.028 405.266 39.8394 405.921 39.561V41.0269C405.359 41.2681 404.83 41.4382 404.335 41.5371C403.84 41.6361 403.256 41.6855 402.582 41.6855ZM402.164 32.4917C401.366 32.4917 400.735 32.7484 400.271 33.2617C399.808 33.7751 399.532 34.4894 399.446 35.4048H404.632C404.619 34.4523 404.4 33.7287 403.973 33.2339C403.546 32.7391 402.943 32.4917 402.164 32.4917ZM415.264 41.5L414.939 40.0527H414.865C414.358 40.6898 413.85 41.1227 413.343 41.3516C412.842 41.5742 412.208 41.6855 411.441 41.6855C410.439 41.6855 409.654 41.4227 409.085 40.897C408.516 40.3713 408.231 39.6291 408.231 38.6704C408.231 36.6047 409.861 35.5223 413.121 35.4233L414.846 35.3584V34.7554C414.846 33.9823 414.679 33.4132 414.345 33.0483C414.011 32.6772 413.476 32.4917 412.74 32.4917C412.202 32.4917 411.692 32.5721 411.209 32.7329C410.733 32.8937 410.285 33.0731 409.864 33.271L409.354 32.0186C409.867 31.7464 410.427 31.533 411.033 31.3784C411.639 31.2238 412.239 31.1465 412.833 31.1465C414.064 31.1465 414.979 31.4186 415.579 31.9629C416.179 32.5072 416.479 33.373 416.479 34.5605V41.5H415.264ZM411.822 40.3403C412.756 40.3403 413.489 40.0898 414.021 39.5889C414.559 39.0817 414.828 38.3643 414.828 37.4365V36.5181L413.325 36.583C412.156 36.6263 411.302 36.8118 410.764 37.1396C410.232 37.4674 409.966 37.9839 409.966 38.689C409.966 39.2209 410.127 39.6291 410.449 39.9136C410.777 40.1981 411.234 40.3403 411.822 40.3403ZM424.393 31.1279C424.844 31.1279 425.243 31.165 425.589 31.2393L425.385 32.7793C425.008 32.6927 424.64 32.6494 424.281 32.6494C423.743 32.6494 423.242 32.7979 422.778 33.0947C422.321 33.3916 421.962 33.8029 421.702 34.3286C421.442 34.8481 421.312 35.4264 421.312 36.0635V41.5H419.643V31.3135H421.016L421.201 33.1782H421.275C421.665 32.5041 422.126 31.9938 422.658 31.6475C423.19 31.3011 423.768 31.1279 424.393 31.1279ZM434.431 41.5V34.9873C434.431 34.1585 434.245 33.5431 433.874 33.1411C433.509 32.7329 432.934 32.5288 432.148 32.5288C431.103 32.5288 430.342 32.8195 429.866 33.4009C429.396 33.9761 429.161 34.9162 429.161 36.2212V41.5H427.491V31.3135H428.836L429.087 32.7051H429.18C429.495 32.2041 429.937 31.8175 430.506 31.5454C431.075 31.2671 431.703 31.1279 432.39 31.1279C433.639 31.1279 434.567 31.431 435.173 32.0371C435.779 32.6432 436.082 33.5864 436.082 34.8667V41.5H434.431ZM440.906 41.5H439.236V31.3135H440.906V41.5ZM439.106 28.5581C439.106 28.187 439.199 27.918 439.385 27.751C439.576 27.584 439.812 27.5005 440.09 27.5005C440.35 27.5005 440.575 27.584 440.767 27.751C440.965 27.918 441.064 28.187 441.064 28.5581C441.064 28.923 440.965 29.1921 440.767 29.3652C440.575 29.5384 440.35 29.625 440.09 29.625C439.812 29.625 439.576 29.5384 439.385 29.3652C439.199 29.1921 439.106 28.923 439.106 28.5581ZM451.074 41.5V34.9873C451.074 34.1585 450.889 33.5431 450.518 33.1411C450.153 32.7329 449.577 32.5288 448.792 32.5288C447.747 32.5288 446.986 32.8195 446.51 33.4009C446.04 33.9761 445.805 34.9162 445.805 36.2212V41.5H444.135V31.3135H445.48L445.73 32.7051H445.823C446.139 32.2041 446.581 31.8175 447.15 31.5454C447.719 31.2671 448.347 31.1279 449.033 31.1279C450.283 31.1279 451.21 31.431 451.816 32.0371C452.423 32.6432 452.726 33.5864 452.726 34.8667V41.5H451.074ZM459.758 40.3218C460.785 40.3218 461.53 40.0465 461.994 39.4961C462.464 38.9395 462.699 38.0488 462.699 36.8242V36.4253C462.699 35.0646 462.464 34.075 461.994 33.4565C461.524 32.8381 460.766 32.5288 459.721 32.5288C458.867 32.5288 458.205 32.869 457.735 33.5493C457.271 34.2235 457.04 35.1883 457.04 36.4438C457.04 37.7056 457.265 38.6673 457.717 39.3291C458.174 39.9909 458.855 40.3218 459.758 40.3218ZM462.68 41.4072L462.736 40.1548H462.662C461.975 41.1753 460.924 41.6855 459.507 41.6855C458.19 41.6855 457.16 41.2279 456.418 40.3125C455.682 39.391 455.314 38.0952 455.314 36.4253C455.314 34.7863 455.685 33.4937 456.427 32.5474C457.176 31.6011 458.196 31.1279 459.489 31.1279C460.868 31.1279 461.932 31.6413 462.68 32.668H462.782L463.005 31.3135H464.332V41.667C464.332 43.1266 463.96 44.2244 463.218 44.9604C462.482 45.6965 461.335 46.0645 459.776 46.0645C458.292 46.0645 457.07 45.848 456.112 45.415V43.875C457.101 44.4069 458.354 44.6729 459.869 44.6729C460.735 44.6729 461.418 44.4193 461.919 43.9121C462.427 43.4049 462.68 42.703 462.68 41.8062V41.4072Z"></path>
<path fill="#0B233F" d="M332.909 53.9258C332.909 55.3112 332.436 56.375 331.489 57.1172C330.543 57.8532 329.21 58.2212 327.491 58.2212H325.932V63.5H324.225V49.9365H327.815C331.211 49.9365 332.909 51.2663 332.909 53.9258ZM325.932 56.7554H327.296C328.644 56.7554 329.621 56.5389 330.228 56.106C330.834 55.6668 331.137 54.9648 331.137 54C331.137 53.1279 330.855 52.4754 330.292 52.0425C329.73 51.6095 328.851 51.3931 327.658 51.3931H325.932V56.7554ZM340.247 53.1279C340.699 53.1279 341.097 53.165 341.444 53.2393L341.24 54.7793C340.862 54.6927 340.494 54.6494 340.136 54.6494C339.598 54.6494 339.097 54.7979 338.633 55.0947C338.175 55.3916 337.816 55.8029 337.557 56.3286C337.297 56.8481 337.167 57.4264 337.167 58.0635V63.5H335.497V53.3135H336.87L337.056 55.1782H337.13C337.52 54.5041 337.98 53.9938 338.512 53.6475C339.044 53.3011 339.622 53.1279 340.247 53.1279ZM352.011 58.3882C352.011 60.0519 351.59 61.3507 350.749 62.2847C349.908 63.2186 348.745 63.6855 347.261 63.6855C346.339 63.6855 345.523 63.4722 344.812 63.0454C344.1 62.6125 343.553 61.994 343.169 61.1899C342.786 60.3859 342.594 59.452 342.594 58.3882C342.594 56.7306 343.009 55.4411 343.837 54.5195C344.666 53.5918 345.829 53.1279 347.326 53.1279C348.761 53.1279 349.899 53.6011 350.74 54.5474C351.587 55.4875 352.011 56.7677 352.011 58.3882ZM344.32 58.3882C344.32 59.6685 344.57 60.6426 345.071 61.3105C345.578 61.9723 346.324 62.3032 347.307 62.3032C348.278 62.3032 349.017 61.9723 349.524 61.3105C350.032 60.6426 350.285 59.6685 350.285 58.3882C350.285 57.1079 350.028 56.1462 349.515 55.5029C349.008 54.8535 348.263 54.5288 347.279 54.5288C345.306 54.5288 344.32 55.8153 344.32 58.3882ZM358.542 62.3218C359.569 62.3218 360.314 62.0465 360.778 61.4961C361.248 60.9395 361.483 60.0488 361.483 58.8242V58.4253C361.483 57.0646 361.248 56.075 360.778 55.4565C360.308 54.8381 359.55 54.5288 358.505 54.5288C357.651 54.5288 356.99 54.869 356.52 55.5493C356.056 56.2235 355.824 57.1883 355.824 58.4438C355.824 59.7056 356.049 60.6673 356.501 61.3291C356.959 61.9909 357.639 62.3218 358.542 62.3218ZM361.464 63.4072L361.52 62.1548H361.446C360.759 63.1753 359.708 63.6855 358.292 63.6855C356.974 63.6855 355.944 63.2279 355.202 62.3125C354.466 61.391 354.098 60.0952 354.098 58.4253C354.098 56.7863 354.469 55.4937 355.211 54.5474C355.96 53.6011 356.98 53.1279 358.273 53.1279C359.652 53.1279 360.716 53.6413 361.464 54.668H361.566L361.789 53.3135H363.116V63.667C363.116 65.1266 362.745 66.2244 362.002 66.9604C361.266 67.6965 360.119 68.0645 358.561 68.0645C357.076 68.0645 355.855 67.848 354.896 67.415V65.875C355.886 66.4069 357.138 66.6729 358.653 66.6729C359.519 66.6729 360.203 66.4193 360.704 65.9121C361.211 65.4049 361.464 64.703 361.464 63.8062V63.4072ZM371.104 53.1279C371.555 53.1279 371.954 53.165 372.3 53.2393L372.096 54.7793C371.719 54.6927 371.351 54.6494 370.992 54.6494C370.454 54.6494 369.953 54.7979 369.489 55.0947C369.032 55.3916 368.673 55.8029 368.413 56.3286C368.153 56.8481 368.023 57.4264 368.023 58.0635V63.5H366.354V53.3135H367.727L367.912 55.1782H367.986C368.376 54.5041 368.837 53.9938 369.369 53.6475C369.901 53.3011 370.479 53.1279 371.104 53.1279ZM378.349 63.6855C376.821 63.6855 375.622 63.2248 374.75 62.3032C373.884 61.3755 373.451 60.1014 373.451 58.481C373.451 56.8481 373.856 55.5493 374.666 54.5845C375.476 53.6134 376.571 53.1279 377.95 53.1279C379.23 53.1279 380.251 53.5423 381.012 54.3711C381.772 55.1937 382.153 56.3101 382.153 57.7202V58.7314H375.176C375.207 59.888 375.501 60.7663 376.058 61.3662C376.614 61.9661 377.403 62.2661 378.423 62.2661C378.968 62.2661 379.484 62.2197 379.973 62.127C380.461 62.028 381.033 61.8394 381.689 61.561V63.0269C381.126 63.2681 380.597 63.4382 380.103 63.5371C379.608 63.6361 379.023 63.6855 378.349 63.6855ZM377.932 54.4917C377.134 54.4917 376.503 54.7484 376.039 55.2617C375.575 55.7751 375.3 56.4894 375.213 57.4048H380.399C380.387 56.4523 380.167 55.7287 379.741 55.2339C379.314 54.7391 378.711 54.4917 377.932 54.4917ZM391.375 60.689C391.375 61.6414 391.019 62.3805 390.308 62.9062C389.596 63.4258 388.597 63.6855 387.311 63.6855C385.969 63.6855 384.902 63.4722 384.11 63.0454V61.5239C385.23 62.0682 386.309 62.3403 387.348 62.3403C388.189 62.3403 388.802 62.2043 389.185 61.9321C389.569 61.66 389.76 61.2951 389.76 60.8374C389.76 60.4354 389.575 60.0952 389.204 59.8169C388.839 59.5386 388.186 59.2201 387.246 58.8613C386.287 58.4902 385.613 58.1748 385.224 57.915C384.834 57.6491 384.546 57.3522 384.361 57.0244C384.181 56.6966 384.092 56.2977 384.092 55.8276C384.092 54.9927 384.432 54.334 385.112 53.8516C385.793 53.3691 386.727 53.1279 387.914 53.1279C389.071 53.1279 390.153 53.3568 391.161 53.8145L390.595 55.1411C389.562 54.7082 388.632 54.4917 387.803 54.4917C387.11 54.4917 386.584 54.603 386.226 54.8257C385.867 55.0422 385.688 55.3421 385.688 55.7256C385.688 56.0967 385.842 56.4059 386.151 56.6533C386.461 56.8945 387.181 57.2316 388.313 57.6646C389.16 57.98 389.785 58.2738 390.187 58.5459C390.595 58.818 390.895 59.1242 391.087 59.4644C391.279 59.8045 391.375 60.2127 391.375 60.689ZM400.485 60.689C400.485 61.6414 400.129 62.3805 399.418 62.9062C398.707 63.4258 397.708 63.6855 396.421 63.6855C395.079 63.6855 394.012 63.4722 393.221 63.0454V61.5239C394.34 62.0682 395.419 62.3403 396.458 62.3403C397.3 62.3403 397.912 62.2043 398.295 61.9321C398.679 61.66 398.871 61.2951 398.871 60.8374C398.871 60.4354 398.685 60.0952 398.314 59.8169C397.949 59.5386 397.297 59.2201 396.356 58.8613C395.398 58.4902 394.724 58.1748 394.334 57.915C393.944 57.6491 393.657 57.3522 393.471 57.0244C393.292 56.6966 393.202 56.2977 393.202 55.8276C393.202 54.9927 393.542 54.334 394.223 53.8516C394.903 53.3691 395.837 53.1279 397.024 53.1279C398.181 53.1279 399.263 53.3568 400.271 53.8145L399.706 55.1411C398.673 54.7082 397.742 54.4917 396.913 54.4917C396.22 54.4917 395.695 54.603 395.336 54.8257C394.977 55.0422 394.798 55.3421 394.798 55.7256C394.798 56.0967 394.952 56.4059 395.262 56.6533C395.571 56.8945 396.292 57.2316 397.423 57.6646C398.271 57.98 398.895 58.2738 399.297 58.5459C399.706 58.818 400.006 59.1242 400.197 59.4644C400.389 59.8045 400.485 60.2127 400.485 60.689Z"></path>
<path fill="#E96969" d="M242.5 43.4995H275.366C275.918 43.4995 276.366 43.9475 276.366 44.4995V44.5625L275.366 43.5625H301.566V45.5625H275.366C274.814 45.5625 274.366 45.1145 274.366 44.5625V44.4995L275.366 45.4995H242.5V43.4995ZM300.232 40.5625L308.232 44.5625L300.232 48.5625V40.5625Z"></path>
<path stroke-linejoin="round" stroke-miterlimit="10" stroke="#0B233F" fill="#F3F5F8" d="M309 123.667C309 115.567 315.567 109 323.667 109H536.333C544.433 109 551 115.567 551 123.667V182.333C551 190.433 544.433 197 536.333 197H323.667C315.567 197 309 190.433 309 182.333V123.667Z" clip-rule="evenodd" fill-rule="evenodd"></path>
<path fill="#0B233F" d="M322.379 135.937H324.169L327.222 144.639C327.611 145.74 327.896 146.726 328.075 147.598C328.23 146.819 328.517 145.82 328.938 144.602L331.972 135.937H333.781L328.938 149.5H327.222L322.379 135.937ZM337.074 149.5H335.404V139.313H337.074V149.5ZM335.274 136.558C335.274 136.187 335.367 135.918 335.553 135.751C335.744 135.584 335.979 135.5 336.258 135.5C336.518 135.5 336.743 135.584 336.935 135.751C337.133 135.918 337.232 136.187 337.232 136.558C337.232 136.923 337.133 137.192 336.935 137.365C336.743 137.538 336.518 137.625 336.258 137.625C335.979 137.625 335.744 137.538 335.553 137.365C335.367 137.192 335.274 136.923 335.274 136.558ZM344.635 149.686C343.108 149.686 341.908 149.225 341.036 148.303C340.17 147.375 339.737 146.101 339.737 144.481C339.737 142.848 340.142 141.549 340.952 140.584C341.762 139.613 342.857 139.128 344.236 139.128C345.517 139.128 346.537 139.542 347.298 140.371C348.059 141.194 348.439 142.31 348.439 143.72V144.731H341.462C341.493 145.888 341.787 146.766 342.344 147.366C342.9 147.966 343.689 148.266 344.709 148.266C345.254 148.266 345.77 148.22 346.259 148.127C346.747 148.028 347.319 147.839 347.975 147.561V149.027C347.412 149.268 346.883 149.438 346.389 149.537C345.894 149.636 345.309 149.686 344.635 149.686ZM344.218 140.492C343.42 140.492 342.789 140.748 342.325 141.262C341.861 141.775 341.586 142.489 341.5 143.405H346.686C346.673 142.452 346.454 141.729 346.027 141.234C345.6 140.739 344.997 140.492 344.218 140.492ZM359.164 149.5L357.419 143.767C357.259 143.29 357.024 142.39 356.714 141.067H356.64C356.38 142.273 356.152 143.179 355.954 143.785L354.126 149.5H352.233L349.441 139.313H351.167C351.81 141.818 352.298 143.723 352.632 145.028C352.972 146.333 353.174 147.255 353.235 147.793H353.31L353.439 147.218C353.631 146.333 353.817 145.613 353.996 145.056L355.805 139.313H357.624L359.377 145.056C359.439 145.273 359.504 145.505 359.572 145.752C359.646 145.993 359.714 146.234 359.776 146.476C359.838 146.711 359.893 146.943 359.943 147.171C359.992 147.394 360.029 147.595 360.054 147.774H360.138C360.193 147.304 360.419 146.296 360.815 144.75L362.244 139.313H363.951L361.121 149.5H359.164ZM378.525 149.5H370.946V135.937H378.525V137.439H372.653V141.67H378.182V143.154H372.653V147.997H378.525V149.5ZM383.702 144.295L380.186 139.313H382.088L384.713 143.154L387.311 139.313H389.194L385.678 144.295L389.389 149.5H387.487L384.713 145.437L381.902 149.5H380.019L383.702 144.295ZM395.243 149.686C393.777 149.686 392.636 149.237 391.82 148.34C391.003 147.437 390.595 146.145 390.595 144.462C390.595 142.755 391.007 141.441 391.829 140.52C392.658 139.592 393.836 139.128 395.364 139.128C395.859 139.128 396.347 139.181 396.83 139.286C397.318 139.385 397.72 139.514 398.036 139.675L397.525 141.067C396.666 140.745 395.933 140.584 395.327 140.584C394.3 140.584 393.542 140.909 393.054 141.559C392.565 142.202 392.321 143.164 392.321 144.444C392.321 145.675 392.565 146.618 393.054 147.273C393.542 147.923 394.266 148.248 395.225 148.248C396.121 148.248 397.003 148.05 397.869 147.654V149.138C397.164 149.503 396.288 149.686 395.243 149.686ZM401.96 149.5H400.29V135.064H401.96V149.5ZM406.766 139.313V145.873C406.766 146.695 406.948 147.307 407.313 147.709C407.684 148.105 408.256 148.303 409.029 148.303C410.075 148.303 410.835 148.013 411.312 147.431C411.788 146.85 412.026 145.913 412.026 144.62V139.313H413.705V149.5H412.332L412.091 148.155H412.007C411.704 148.643 411.274 149.021 410.718 149.287C410.161 149.553 409.515 149.686 408.779 149.686C407.554 149.686 406.63 149.392 406.005 148.804C405.386 148.217 405.077 147.277 405.077 145.984V139.313H406.766ZM420.542 149.686C419.219 149.686 418.192 149.228 417.462 148.312C416.733 147.397 416.368 146.101 416.368 144.425C416.368 142.762 416.733 141.463 417.462 140.529C418.198 139.595 419.231 139.128 420.561 139.128C421.928 139.128 422.979 139.629 423.715 140.631H423.836C423.817 140.507 423.793 140.26 423.762 139.889C423.731 139.511 423.715 139.258 423.715 139.128V135.064H425.385V149.5H424.04L423.79 148.136H423.715C423.004 149.169 421.946 149.686 420.542 149.686ZM420.812 148.303C421.826 148.303 422.565 148.028 423.029 147.478C423.499 146.921 423.734 146.012 423.734 144.75V144.444C423.734 143.028 423.496 142.019 423.02 141.419C422.549 140.813 421.807 140.51 420.793 140.51C419.933 140.51 419.268 140.854 418.798 141.54C418.328 142.22 418.093 143.194 418.093 144.462C418.093 145.724 418.325 146.68 418.789 147.329C419.259 147.979 419.933 148.303 420.812 148.303ZM432.956 149.686C431.428 149.686 430.228 149.225 429.356 148.303C428.49 147.375 428.057 146.101 428.057 144.481C428.057 142.848 428.462 141.549 429.272 140.584C430.083 139.613 431.177 139.128 432.557 139.128C433.837 139.128 434.857 139.542 435.618 140.371C436.379 141.194 436.759 142.31 436.759 143.72V144.731H429.783C429.814 145.888 430.107 146.766 430.664 147.366C431.221 147.966 432.009 148.266 433.03 148.266C433.574 148.266 434.09 148.22 434.579 148.127C435.068 148.028 435.64 147.839 436.295 147.561V149.027C435.733 149.268 435.204 149.438 434.709 149.537C434.214 149.636 433.63 149.686 432.956 149.686ZM432.538 140.492C431.74 140.492 431.109 140.748 430.646 141.262C430.182 141.775 429.906 142.489 429.82 143.405H435.006C434.993 142.452 434.774 141.729 434.347 141.234C433.92 140.739 433.317 140.492 432.538 140.492ZM442.957 149.686C441.633 149.686 440.606 149.228 439.876 148.312C439.147 147.397 438.782 146.101 438.782 144.425C438.782 142.762 439.147 141.463 439.876 140.529C440.612 139.595 441.645 139.128 442.975 139.128C444.342 139.128 445.393 139.629 446.129 140.631H446.25C446.231 140.507 446.207 140.26 446.176 139.889C446.145 139.511 446.129 139.258 446.129 139.128V135.064H447.799V149.5H446.454L446.204 148.136H446.129C445.418 149.169 444.361 149.686 442.957 149.686ZM443.226 148.303C444.24 148.303 444.979 148.028 445.443 147.478C445.913 146.921 446.148 146.012 446.148 144.75V144.444C446.148 143.028 445.91 142.019 445.434 141.419C444.964 140.813 444.221 140.51 443.207 140.51C442.347 140.51 441.682 140.854 441.212 141.54C440.742 142.22 440.507 143.194 440.507 144.462C440.507 145.724 440.739 146.68 441.203 147.329C441.673 147.979 442.347 148.303 443.226 148.303Z"></path>
<path fill="#0B233F" d="M336.063 164.7C336.063 166.413 335.72 167.842 335.033 168.986C334.347 170.13 333.373 170.919 332.111 171.352L335.358 174.729H332.909L330.283 171.667L329.81 171.686C327.812 171.686 326.266 171.076 325.171 169.858C324.083 168.633 323.539 166.908 323.539 164.681C323.539 162.473 324.08 160.763 325.162 159.551C326.251 158.332 327.806 157.723 329.829 157.723C331.795 157.723 333.326 158.342 334.421 159.579C335.516 160.809 336.063 162.516 336.063 164.7ZM325.338 164.7C325.338 166.493 325.719 167.86 326.479 168.8C327.24 169.74 328.35 170.21 329.81 170.21C331.264 170.21 332.368 169.747 333.122 168.819C333.877 167.891 334.254 166.518 334.254 164.7C334.254 162.888 333.88 161.524 333.131 160.608C332.383 159.687 331.282 159.226 329.829 159.226C328.357 159.226 327.24 159.693 326.479 160.627C325.719 161.555 325.338 162.912 325.338 164.7ZM340.414 161.313V167.873C340.414 168.695 340.597 169.307 340.961 169.709C341.333 170.105 341.905 170.303 342.678 170.303C343.723 170.303 344.484 170.013 344.96 169.431C345.436 168.85 345.674 167.913 345.674 166.62V161.313H347.354V171.5H345.98L345.739 170.155H345.656C345.353 170.643 344.923 171.021 344.366 171.287C343.81 171.553 343.163 171.686 342.427 171.686C341.203 171.686 340.278 171.392 339.653 170.804C339.035 170.217 338.726 169.277 338.726 167.984V161.313H340.414ZM354.915 171.686C353.387 171.686 352.187 171.225 351.315 170.303C350.449 169.375 350.016 168.101 350.016 166.481C350.016 164.848 350.421 163.549 351.231 162.584C352.042 161.613 353.136 161.128 354.516 161.128C355.796 161.128 356.816 161.542 357.577 162.371C358.338 163.194 358.718 164.31 358.718 165.72V166.731H351.742C351.773 167.888 352.066 168.766 352.623 169.366C353.18 169.966 353.968 170.266 354.989 170.266C355.533 170.266 356.049 170.22 356.538 170.127C357.027 170.028 357.599 169.839 358.254 169.561V171.027C357.692 171.268 357.163 171.438 356.668 171.537C356.173 171.636 355.589 171.686 354.915 171.686ZM354.497 162.492C353.699 162.492 353.068 162.748 352.604 163.262C352.141 163.775 351.865 164.489 351.779 165.405H356.965C356.952 164.452 356.733 163.729 356.306 163.234C355.879 162.739 355.276 162.492 354.497 162.492ZM367.94 168.689C367.94 169.641 367.584 170.381 366.873 170.906C366.162 171.426 365.163 171.686 363.876 171.686C362.534 171.686 361.467 171.472 360.676 171.045V169.524C361.795 170.068 362.875 170.34 363.914 170.34C364.755 170.34 365.367 170.204 365.75 169.932C366.134 169.66 366.326 169.295 366.326 168.837C366.326 168.435 366.14 168.095 365.769 167.817C365.404 167.539 364.752 167.22 363.812 166.861C362.853 166.49 362.179 166.175 361.789 165.915C361.399 165.649 361.112 165.352 360.926 165.024C360.747 164.697 360.657 164.298 360.657 163.828C360.657 162.993 360.997 162.334 361.678 161.852C362.358 161.369 363.292 161.128 364.479 161.128C365.636 161.128 366.718 161.357 367.727 161.814L367.161 163.141C366.128 162.708 365.197 162.492 364.368 162.492C363.675 162.492 363.15 162.603 362.791 162.826C362.432 163.042 362.253 163.342 362.253 163.726C362.253 164.097 362.408 164.406 362.717 164.653C363.026 164.895 363.747 165.232 364.878 165.665C365.726 165.98 366.35 166.274 366.752 166.546C367.161 166.818 367.461 167.124 367.652 167.464C367.844 167.805 367.94 168.213 367.94 168.689ZM373.822 170.322C374.038 170.322 374.292 170.3 374.583 170.257C374.873 170.214 375.093 170.164 375.241 170.108V171.389C375.087 171.457 374.845 171.522 374.518 171.583C374.196 171.652 373.868 171.686 373.534 171.686C371.543 171.686 370.547 170.637 370.547 168.541V162.612H369.109V161.814L370.565 161.146L371.233 158.976H372.226V161.313H375.167V162.612H372.226V168.494C372.226 169.082 372.365 169.533 372.644 169.849C372.928 170.164 373.321 170.322 373.822 170.322ZM378.952 171.5H377.282V161.313H378.952V171.5ZM377.152 158.558C377.152 158.187 377.245 157.918 377.431 157.751C377.622 157.584 377.857 157.5 378.136 157.5C378.396 157.5 378.621 157.584 378.813 157.751C379.011 157.918 379.11 158.187 379.11 158.558C379.11 158.923 379.011 159.192 378.813 159.365C378.621 159.538 378.396 159.625 378.136 159.625C377.857 159.625 377.622 159.538 377.431 159.365C377.245 159.192 377.152 158.923 377.152 158.558ZM391.031 166.388C391.031 168.052 390.611 169.351 389.77 170.285C388.928 171.219 387.766 171.686 386.281 171.686C385.36 171.686 384.543 171.472 383.832 171.045C383.121 170.612 382.573 169.994 382.19 169.19C381.806 168.386 381.615 167.452 381.615 166.388C381.615 164.731 382.029 163.441 382.858 162.52C383.687 161.592 384.849 161.128 386.346 161.128C387.781 161.128 388.919 161.601 389.76 162.547C390.608 163.487 391.031 164.768 391.031 166.388ZM383.34 166.388C383.34 167.668 383.591 168.643 384.092 169.311C384.599 169.972 385.344 170.303 386.328 170.303C387.299 170.303 388.038 169.972 388.545 169.311C389.052 168.643 389.306 167.668 389.306 166.388C389.306 165.108 389.049 164.146 388.536 163.503C388.028 162.854 387.283 162.529 386.3 162.529C384.327 162.529 383.34 163.815 383.34 166.388ZM400.624 171.5V164.987C400.624 164.159 400.438 163.543 400.067 163.141C399.702 162.733 399.127 162.529 398.342 162.529C397.297 162.529 396.536 162.819 396.06 163.401C395.59 163.976 395.354 164.916 395.354 166.221V171.5H393.685V161.313H395.03L395.28 162.705H395.373C395.688 162.204 396.131 161.818 396.7 161.545C397.269 161.267 397.896 161.128 398.583 161.128C399.832 161.128 400.76 161.431 401.366 162.037C401.972 162.643 402.275 163.586 402.275 164.867V171.5H400.624ZM412.063 168.689C412.063 169.641 411.707 170.381 410.996 170.906C410.285 171.426 409.286 171.686 408 171.686C406.657 171.686 405.59 171.472 404.799 171.045V169.524C405.918 170.068 406.998 170.34 408.037 170.34C408.878 170.34 409.49 170.204 409.874 169.932C410.257 169.66 410.449 169.295 410.449 168.837C410.449 168.435 410.263 168.095 409.892 167.817C409.527 167.539 408.875 167.22 407.935 166.861C406.976 166.49 406.302 166.175 405.912 165.915C405.522 165.649 405.235 165.352 405.049 165.024C404.87 164.697 404.78 164.298 404.78 163.828C404.78 162.993 405.12 162.334 405.801 161.852C406.481 161.369 407.415 161.128 408.603 161.128C409.759 161.128 410.841 161.357 411.85 161.814L411.284 163.141C410.251 162.708 409.32 162.492 408.491 162.492C407.799 162.492 407.273 162.603 406.914 162.826C406.555 163.042 406.376 163.342 406.376 163.726C406.376 164.097 406.531 164.406 406.84 164.653C407.149 164.895 407.87 165.232 409.001 165.665C409.849 165.98 410.473 166.274 410.875 166.546C411.284 166.818 411.584 167.124 411.775 167.464C411.967 167.805 412.063 168.213 412.063 168.689Z"></path>
<path fill="#E96969" d="M242.5 43.5H275.366C275.918 43.5 276.366 43.948 276.366 44.5V152.626L275.366 151.626H301.566V153.626H275.366C274.814 153.626 274.366 153.178 274.366 152.626V44.5L275.366 45.5H242.5V43.5ZM300.232 148.626L308.232 152.626L300.232 156.626V148.626Z"></path>
<path stroke-linejoin="round" stroke-miterlimit="10" stroke="#0B233F" fill="#F3F5F8" d="M617 15.667C617 7.56699 623.567 1 631.667 1H844.333C852.433 1 859 7.56699 859 15.667V74.333C859 82.433 852.433 89 844.333 89H631.667C623.567 89 617 82.433 617 74.333V15.667Z" clip-rule="evenodd" fill-rule="evenodd"></path>
<path fill="#0B233F" d="M630.19 38.9365H631.98L635.033 47.6387C635.422 48.7396 635.707 49.7261 635.886 50.5981C636.041 49.8188 636.328 48.82 636.749 47.6016L639.783 38.9365H641.592L636.749 52.5H635.033L630.19 38.9365ZM644.885 52.5H643.215V42.3135H644.885V52.5ZM643.085 39.5581C643.085 39.187 643.178 38.918 643.364 38.751C643.556 38.584 643.791 38.5005 644.069 38.5005C644.329 38.5005 644.554 38.584 644.746 38.751C644.944 38.918 645.043 39.187 645.043 39.5581C645.043 39.923 644.944 40.1921 644.746 40.3652C644.554 40.5384 644.329 40.625 644.069 40.625C643.791 40.625 643.556 40.5384 643.364 40.3652C643.178 40.1921 643.085 39.923 643.085 39.5581ZM652.446 52.6855C650.919 52.6855 649.719 52.2248 648.847 51.3032C647.981 50.3755 647.548 49.1014 647.548 47.481C647.548 45.8481 647.953 44.5493 648.763 43.5845C649.573 42.6134 650.668 42.1279 652.047 42.1279C653.328 42.1279 654.348 42.5423 655.109 43.3711C655.87 44.1937 656.25 45.3101 656.25 46.7202V47.7314H649.273C649.304 48.888 649.598 49.7663 650.155 50.3662C650.711 50.9661 651.5 51.2661 652.521 51.2661C653.065 51.2661 653.581 51.2197 654.07 51.127C654.558 51.028 655.131 50.8394 655.786 50.561V52.0269C655.223 52.2681 654.694 52.4382 654.2 52.5371C653.705 52.6361 653.12 52.6855 652.446 52.6855ZM652.029 43.4917C651.231 43.4917 650.6 43.7484 650.136 44.2617C649.672 44.7751 649.397 45.4894 649.311 46.4048H654.497C654.484 45.4523 654.265 44.7287 653.838 44.2339C653.411 43.7391 652.808 43.4917 652.029 43.4917ZM666.975 52.5L665.23 46.7666C665.07 46.2904 664.835 45.3905 664.525 44.0669H664.451C664.191 45.2729 663.963 46.179 663.765 46.7852L661.937 52.5H660.044L657.252 42.3135H658.978C659.621 44.8184 660.109 46.7233 660.443 48.0283C660.784 49.3333 660.985 50.2549 661.046 50.793H661.121L661.25 50.2178C661.442 49.3333 661.628 48.6128 661.807 48.0562L663.616 42.3135H665.435L667.188 48.0562C667.25 48.2726 667.315 48.5046 667.383 48.752C667.457 48.9932 667.525 49.2344 667.587 49.4756C667.649 49.7106 667.704 49.9425 667.754 50.1714C667.803 50.394 667.84 50.5951 667.865 50.7744H667.949C668.004 50.3044 668.23 49.2962 668.626 47.75L670.055 42.3135H671.762L668.932 52.5H666.975ZM683.349 42.1465C684.691 42.1465 685.727 42.6104 686.457 43.5381C687.187 44.4596 687.552 45.7492 687.552 47.4067C687.552 49.089 687.181 50.391 686.438 51.3125C685.696 52.2279 684.667 52.6855 683.349 52.6855C682.663 52.6855 682.05 52.5618 681.512 52.3145C680.974 52.0671 680.535 51.6991 680.195 51.2104H680.065C679.873 51.9526 679.759 52.3825 679.722 52.5H678.525V38.0645H680.195V41.5713C680.195 42.2702 680.164 42.9691 680.102 43.668H680.195C680.881 42.6536 681.933 42.1465 683.349 42.1465ZM683.071 43.5288C682.044 43.5288 681.308 43.8195 680.863 44.4009C680.417 44.9823 680.195 45.9657 680.195 47.3511V47.4253C680.195 48.8169 680.421 49.8127 680.872 50.4126C681.33 51.0063 682.075 51.3032 683.108 51.3032C684.023 51.3032 684.704 50.9692 685.149 50.3013C685.6 49.6271 685.826 48.6561 685.826 47.3882C685.826 46.1017 685.6 45.1369 685.149 44.4937C684.697 43.8504 684.005 43.5288 683.071 43.5288ZM688.433 42.3135H690.224L692.422 48.1118C692.886 49.3735 693.171 50.2982 693.276 50.8857H693.35C693.406 50.6569 693.533 50.2301 693.73 49.6055C693.928 48.9746 694.095 48.4705 694.231 48.0933L696.3 42.3135H698.1L693.712 53.9102C693.285 55.0358 692.778 55.8429 692.19 56.3315C691.603 56.8201 690.876 57.0645 690.01 57.0645C689.546 57.0645 689.086 57.0119 688.628 56.9067V55.5801C688.937 55.6543 689.308 55.6914 689.741 55.6914C690.273 55.6914 690.725 55.543 691.096 55.2461C691.467 54.9554 691.77 54.5039 692.005 53.8916L692.534 52.5371L688.433 42.3135ZM709.177 52.5H707.461V40.4395H703.221V38.9365H713.389V40.4395H709.177V52.5ZM723.427 47.3882C723.427 49.0519 723.007 50.3507 722.166 51.2847C721.324 52.2186 720.162 52.6855 718.677 52.6855C717.756 52.6855 716.939 52.4722 716.228 52.0454C715.517 51.6125 714.969 50.994 714.586 50.1899C714.202 49.3859 714.011 48.452 714.011 47.3882C714.011 45.7306 714.425 44.4411 715.254 43.5195C716.083 42.5918 717.245 42.1279 718.742 42.1279C720.177 42.1279 721.315 42.6011 722.156 43.5474C723.004 44.4875 723.427 45.7677 723.427 47.3882ZM715.736 47.3882C715.736 48.6685 715.987 49.6426 716.488 50.3105C716.995 50.9723 717.74 51.3032 718.724 51.3032C719.695 51.3032 720.434 50.9723 720.941 50.3105C721.448 49.6426 721.702 48.6685 721.702 47.3882C721.702 46.1079 721.445 45.1462 720.932 44.5029C720.424 43.8535 719.679 43.5288 718.696 43.5288C716.723 43.5288 715.736 44.8153 715.736 47.3882ZM730.905 52.6855C729.538 52.6855 728.486 52.1938 727.75 51.2104H727.639L727.676 51.5908C727.726 52.0732 727.75 52.5031 727.75 52.8804V57.0645H726.081V42.3135H727.454L727.676 43.7051H727.75C728.146 43.1484 728.604 42.7464 729.124 42.499C729.643 42.2516 730.243 42.1279 730.923 42.1279C732.247 42.1279 733.274 42.5887 734.003 43.5103C734.739 44.4256 735.107 45.7183 735.107 47.3882C735.107 49.0519 734.739 50.3507 734.003 51.2847C733.267 52.2186 732.235 52.6855 730.905 52.6855ZM730.626 43.5288C729.618 43.5288 728.889 43.8133 728.437 44.3823C727.992 44.9513 727.763 45.8451 727.75 47.0635V47.3882C727.75 48.7674 727.979 49.7663 728.437 50.3848C728.895 50.9971 729.637 51.3032 730.664 51.3032C731.517 51.3032 732.182 50.9569 732.658 50.2642C733.141 49.5715 733.382 48.6066 733.382 47.3696C733.382 46.1265 733.141 45.1771 732.658 44.5215C732.182 43.8597 731.505 43.5288 730.626 43.5288ZM739.44 52.5H737.77V42.3135H739.44V52.5ZM737.64 39.5581C737.64 39.187 737.733 38.918 737.918 38.751C738.11 38.584 738.345 38.5005 738.624 38.5005C738.883 38.5005 739.109 38.584 739.301 38.751C739.499 38.918 739.598 39.187 739.598 39.5581C739.598 39.923 739.499 40.1921 739.301 40.3652C739.109 40.5384 738.883 40.625 738.624 40.625C738.345 40.625 738.11 40.5384 737.918 40.3652C737.733 40.1921 737.64 39.923 737.64 39.5581ZM746.75 52.6855C745.285 52.6855 744.144 52.2371 743.327 51.3403C742.511 50.4373 742.103 49.1447 742.103 47.4624C742.103 45.7554 742.514 44.4411 743.336 43.5195C744.165 42.5918 745.343 42.1279 746.871 42.1279C747.366 42.1279 747.854 42.1805 748.337 42.2856C748.826 42.3846 749.228 42.5145 749.543 42.6753L749.033 44.0669C748.173 43.7453 747.44 43.5845 746.834 43.5845C745.807 43.5845 745.05 43.9092 744.561 44.5586C744.072 45.2018 743.828 46.1636 743.828 47.4438C743.828 48.6746 744.072 49.6178 744.561 50.2734C745.05 50.9229 745.773 51.2476 746.732 51.2476C747.629 51.2476 748.51 51.0496 749.376 50.6538V52.1382C748.671 52.5031 747.796 52.6855 746.75 52.6855Z"></path>
<path fill="#E96969" d="M550.5 43.4995H583.366C583.918 43.4995 584.366 43.9475 584.366 44.4995V44.5625L583.366 43.5625H609.566V45.5625H583.366C582.814 45.5625 582.366 45.1145 582.366 44.5625V44.4995L583.366 45.4995H550.5V43.4995ZM608.232 40.5625L616.232 44.5625L608.232 48.5625V40.5625Z"></path>
<path stroke-linejoin="round" stroke-miterlimit="10" stroke="#0B233F" fill="#F3F5F8" d="M617 123.667C617 115.567 623.567 109 631.667 109H844.333C852.433 109 859 115.567 859 123.667V182.333C859 190.433 852.433 197 844.333 197H631.667C623.567 197 617 190.433 617 182.333V123.667Z" clip-rule="evenodd" fill-rule="evenodd"></path>
<path fill="#0B233F" d="M630.19 146.937H631.98L635.033 155.639C635.422 156.74 635.707 157.726 635.886 158.598C636.041 157.819 636.328 156.82 636.749 155.602L639.783 146.937H641.592L636.749 160.5H635.033L630.19 146.937ZM644.885 160.5H643.215V150.313H644.885V160.5ZM643.085 147.558C643.085 147.187 643.178 146.918 643.364 146.751C643.556 146.584 643.791 146.5 644.069 146.5C644.329 146.5 644.554 146.584 644.746 146.751C644.944 146.918 645.043 147.187 645.043 147.558C645.043 147.923 644.944 148.192 644.746 148.365C644.554 148.538 644.329 148.625 644.069 148.625C643.791 148.625 643.556 148.538 643.364 148.365C643.178 148.192 643.085 147.923 643.085 147.558ZM652.446 160.686C650.919 160.686 649.719 160.225 648.847 159.303C647.981 158.375 647.548 157.101 647.548 155.481C647.548 153.848 647.953 152.549 648.763 151.584C649.573 150.613 650.668 150.128 652.047 150.128C653.328 150.128 654.348 150.542 655.109 151.371C655.87 152.194 656.25 153.31 656.25 154.72V155.731H649.273C649.304 156.888 649.598 157.766 650.155 158.366C650.711 158.966 651.5 159.266 652.521 159.266C653.065 159.266 653.581 159.22 654.07 159.127C654.558 159.028 655.131 158.839 655.786 158.561V160.027C655.223 160.268 654.694 160.438 654.2 160.537C653.705 160.636 653.12 160.686 652.446 160.686ZM652.029 151.492C651.231 151.492 650.6 151.748 650.136 152.262C649.672 152.775 649.397 153.489 649.311 154.405H654.497C654.484 153.452 654.265 152.729 653.838 152.234C653.411 151.739 652.808 151.492 652.029 151.492ZM666.975 160.5L665.23 154.767C665.07 154.29 664.835 153.39 664.525 152.067H664.451C664.191 153.273 663.963 154.179 663.765 154.785L661.937 160.5H660.044L657.252 150.313H658.978C659.621 152.818 660.109 154.723 660.443 156.028C660.784 157.333 660.985 158.255 661.046 158.793H661.121L661.25 158.218C661.442 157.333 661.628 156.613 661.807 156.056L663.616 150.313H665.435L667.188 156.056C667.25 156.273 667.315 156.505 667.383 156.752C667.457 156.993 667.525 157.234 667.587 157.476C667.649 157.711 667.704 157.943 667.754 158.171C667.803 158.394 667.84 158.595 667.865 158.774H667.949C668.004 158.304 668.23 157.296 668.626 155.75L670.055 150.313H671.762L668.932 160.5H666.975ZM683.349 150.146C684.691 150.146 685.727 150.61 686.457 151.538C687.187 152.46 687.552 153.749 687.552 155.407C687.552 157.089 687.181 158.391 686.438 159.312C685.696 160.228 684.667 160.686 683.349 160.686C682.663 160.686 682.05 160.562 681.512 160.314C680.974 160.067 680.535 159.699 680.195 159.21H680.065C679.873 159.953 679.759 160.382 679.722 160.5H678.525V146.064H680.195V149.571C680.195 150.27 680.164 150.969 680.102 151.668H680.195C680.881 150.654 681.933 150.146 683.349 150.146ZM683.071 151.529C682.044 151.529 681.308 151.819 680.863 152.401C680.417 152.982 680.195 153.966 680.195 155.351V155.425C680.195 156.817 680.421 157.813 680.872 158.413C681.33 159.006 682.075 159.303 683.108 159.303C684.023 159.303 684.704 158.969 685.149 158.301C685.6 157.627 685.826 156.656 685.826 155.388C685.826 154.102 685.6 153.137 685.149 152.494C684.697 151.85 684.005 151.529 683.071 151.529ZM688.433 150.313H690.224L692.422 156.112C692.886 157.374 693.171 158.298 693.276 158.886H693.35C693.406 158.657 693.533 158.23 693.73 157.605C693.928 156.975 694.095 156.471 694.231 156.093L696.3 150.313H698.1L693.712 161.91C693.285 163.036 692.778 163.843 692.19 164.332C691.603 164.82 690.876 165.064 690.01 165.064C689.546 165.064 689.086 165.012 688.628 164.907V163.58C688.937 163.654 689.308 163.691 689.741 163.691C690.273 163.691 690.725 163.543 691.096 163.246C691.467 162.955 691.77 162.504 692.005 161.892L692.534 160.537L688.433 150.313ZM710.866 160.5L706.394 148.606H706.32C706.413 149.596 706.459 150.818 706.459 152.271V160.5H704.882V146.937H707.405L711.589 158.051H711.664L715.922 146.937H718.427V160.5H716.738V152.16C716.738 151.232 716.782 150.054 716.868 148.625H716.794L712.267 160.5H710.866ZM730.738 155.388C730.738 157.052 730.317 158.351 729.476 159.285C728.635 160.219 727.472 160.686 725.988 160.686C725.066 160.686 724.25 160.472 723.539 160.045C722.827 159.612 722.28 158.994 721.896 158.19C721.513 157.386 721.321 156.452 721.321 155.388C721.321 153.731 721.736 152.441 722.564 151.52C723.393 150.592 724.556 150.128 726.053 150.128C727.488 150.128 728.626 150.601 729.467 151.547C730.314 152.487 730.738 153.768 730.738 155.388ZM723.047 155.388C723.047 156.668 723.297 157.643 723.798 158.311C724.306 158.972 725.051 159.303 726.034 159.303C727.005 159.303 727.744 158.972 728.251 158.311C728.759 157.643 729.012 156.668 729.012 155.388C729.012 154.108 728.756 153.146 728.242 152.503C727.735 151.854 726.99 151.529 726.006 151.529C724.033 151.529 723.047 152.815 723.047 155.388ZM740.331 160.5V153.987C740.331 153.159 740.145 152.543 739.774 152.141C739.409 151.733 738.834 151.529 738.048 151.529C737.003 151.529 736.242 151.819 735.766 152.401C735.296 152.976 735.061 153.916 735.061 155.221V160.5H733.391V150.313H734.736L734.987 151.705H735.08C735.395 151.204 735.837 150.818 736.406 150.545C736.975 150.267 737.603 150.128 738.29 150.128C739.539 150.128 740.467 150.431 741.073 151.037C741.679 151.643 741.982 152.586 741.982 153.867V160.5H740.331ZM748.541 159.322C748.757 159.322 749.011 159.3 749.302 159.257C749.592 159.214 749.812 159.164 749.96 159.108V160.389C749.806 160.457 749.565 160.522 749.237 160.583C748.915 160.652 748.587 160.686 748.253 160.686C746.262 160.686 745.266 159.637 745.266 157.541V151.612H743.828V150.814L745.285 150.146L745.953 147.976H746.945V150.313H749.886V151.612H746.945V157.494C746.945 158.082 747.084 158.533 747.363 158.849C747.647 159.164 748.04 159.322 748.541 159.322ZM758.941 160.5V153.987C758.941 153.159 758.755 152.543 758.384 152.141C758.019 151.733 757.444 151.529 756.659 151.529C755.626 151.529 754.868 151.816 754.386 152.392C753.91 152.967 753.671 153.916 753.671 155.24V160.5H752.001V146.064H753.671V150.295C753.671 150.852 753.64 151.328 753.579 151.724H753.69C753.993 151.229 754.423 150.842 754.979 150.564C755.536 150.286 756.164 150.146 756.863 150.146C758.1 150.146 759.031 150.443 759.655 151.037C760.28 151.625 760.592 152.568 760.592 153.867V160.5H758.941Z"></path>
<path stroke-linejoin="round" stroke-miterlimit="10" stroke="#0B233F" fill="#F3F5F8" d="M617 231.667C617 223.567 623.567 217 631.667 217H844.333C852.433 217 859 223.567 859 231.667V290.333C859 298.433 852.433 305 844.333 305H631.667C623.567 305 617 298.433 617 290.333V231.667Z" clip-rule="evenodd" fill-rule="evenodd"></path>
<path fill="#0B233F" d="M630.19 254.937H631.98L635.033 263.639C635.422 264.74 635.707 265.726 635.886 266.598C636.041 265.819 636.328 264.82 636.749 263.602L639.783 254.937H641.592L636.749 268.5H635.033L630.19 254.937ZM644.885 268.5H643.215V258.313H644.885V268.5ZM643.085 255.558C643.085 255.187 643.178 254.918 643.364 254.751C643.556 254.584 643.791 254.5 644.069 254.5C644.329 254.5 644.554 254.584 644.746 254.751C644.944 254.918 645.043 255.187 645.043 255.558C645.043 255.923 644.944 256.192 644.746 256.365C644.554 256.538 644.329 256.625 644.069 256.625C643.791 256.625 643.556 256.538 643.364 256.365C643.178 256.192 643.085 255.923 643.085 255.558ZM652.446 268.686C650.919 268.686 649.719 268.225 648.847 267.303C647.981 266.375 647.548 265.101 647.548 263.481C647.548 261.848 647.953 260.549 648.763 259.584C649.573 258.613 650.668 258.128 652.047 258.128C653.328 258.128 654.348 258.542 655.109 259.371C655.87 260.194 656.25 261.31 656.25 262.72V263.731H649.273C649.304 264.888 649.598 265.766 650.155 266.366C650.711 266.966 651.5 267.266 652.521 267.266C653.065 267.266 653.581 267.22 654.07 267.127C654.558 267.028 655.131 266.839 655.786 266.561V268.027C655.223 268.268 654.694 268.438 654.2 268.537C653.705 268.636 653.12 268.686 652.446 268.686ZM652.029 259.492C651.231 259.492 650.6 259.748 650.136 260.262C649.672 260.775 649.397 261.489 649.311 262.405H654.497C654.484 261.452 654.265 260.729 653.838 260.234C653.411 259.739 652.808 259.492 652.029 259.492ZM666.975 268.5L665.23 262.767C665.07 262.29 664.835 261.39 664.525 260.067H664.451C664.191 261.273 663.963 262.179 663.765 262.785L661.937 268.5H660.044L657.252 258.313H658.978C659.621 260.818 660.109 262.723 660.443 264.028C660.784 265.333 660.985 266.255 661.046 266.793H661.121L661.25 266.218C661.442 265.333 661.628 264.613 661.807 264.056L663.616 258.313H665.435L667.188 264.056C667.25 264.273 667.315 264.505 667.383 264.752C667.457 264.993 667.525 265.234 667.587 265.476C667.649 265.711 667.704 265.943 667.754 266.171C667.803 266.394 667.84 266.595 667.865 266.774H667.949C668.004 266.304 668.23 265.296 668.626 263.75L670.055 258.313H671.762L668.932 268.5H666.975ZM683.349 258.146C684.691 258.146 685.727 258.61 686.457 259.538C687.187 260.46 687.552 261.749 687.552 263.407C687.552 265.089 687.181 266.391 686.438 267.312C685.696 268.228 684.667 268.686 683.349 268.686C682.663 268.686 682.05 268.562 681.512 268.314C680.974 268.067 680.535 267.699 680.195 267.21H680.065C679.873 267.953 679.759 268.382 679.722 268.5H678.525V254.064H680.195V257.571C680.195 258.27 680.164 258.969 680.102 259.668H680.195C680.881 258.654 681.933 258.146 683.349 258.146ZM683.071 259.529C682.044 259.529 681.308 259.819 680.863 260.401C680.417 260.982 680.195 261.966 680.195 263.351V263.425C680.195 264.817 680.421 265.813 680.872 266.413C681.33 267.006 682.075 267.303 683.108 267.303C684.023 267.303 684.704 266.969 685.149 266.301C685.6 265.627 685.826 264.656 685.826 263.388C685.826 262.102 685.6 261.137 685.149 260.494C684.697 259.85 684.005 259.529 683.071 259.529ZM688.433 258.313H690.224L692.422 264.112C692.886 265.374 693.171 266.298 693.276 266.886H693.35C693.406 266.657 693.533 266.23 693.73 265.605C693.928 264.975 694.095 264.471 694.231 264.093L696.3 258.313H698.1L693.712 269.91C693.285 271.036 692.778 271.843 692.19 272.332C691.603 272.82 690.876 273.064 690.01 273.064C689.546 273.064 689.086 273.012 688.628 272.907V271.58C688.937 271.654 689.308 271.691 689.741 271.691C690.273 271.691 690.725 271.543 691.096 271.246C691.467 270.955 691.77 270.504 692.005 269.892L692.534 268.537L688.433 258.313ZM712.573 264.873C712.573 266.054 712.146 266.985 711.292 267.665C710.439 268.345 709.251 268.686 707.73 268.686C706.122 268.686 704.879 268.472 704 268.045V266.413C704.576 266.66 705.203 266.855 705.884 266.997C706.57 267.139 707.21 267.21 707.804 267.21C708.819 267.21 709.582 267.016 710.096 266.626C710.609 266.236 710.866 265.701 710.866 265.021C710.866 264.569 710.773 264.198 710.587 263.908C710.402 263.617 710.09 263.345 709.65 263.091C709.217 262.838 708.559 262.55 707.674 262.229C706.419 261.771 705.522 261.233 704.984 260.614C704.446 259.99 704.177 259.186 704.177 258.202C704.177 257.145 704.573 256.303 705.364 255.679C706.162 255.054 707.21 254.742 708.509 254.742C709.864 254.742 711.11 254.995 712.248 255.502L711.719 256.968C710.556 256.486 709.474 256.245 708.472 256.245C707.668 256.245 707.037 256.418 706.58 256.764C706.128 257.111 705.902 257.596 705.902 258.221C705.902 258.666 705.989 259.037 706.162 259.334C706.341 259.625 706.626 259.891 707.016 260.132C707.411 260.373 708.03 260.648 708.871 260.958C709.879 261.329 710.631 261.69 711.125 262.043C711.62 262.389 711.985 262.791 712.22 263.249C712.455 263.701 712.573 264.242 712.573 264.873ZM718.482 267.322C718.699 267.322 718.952 267.3 719.243 267.257C719.534 267.214 719.753 267.164 719.902 267.108V268.389C719.747 268.457 719.506 268.522 719.178 268.583C718.857 268.652 718.529 268.686 718.195 268.686C716.203 268.686 715.208 267.637 715.208 265.541V259.612H713.77V258.814L715.226 258.146L715.894 255.976H716.887V258.313H719.828V259.612H716.887V265.494C716.887 266.082 717.026 266.533 717.304 266.849C717.589 267.164 717.981 267.322 718.482 267.322ZM723.52 258.313V264.873C723.52 265.695 723.702 266.307 724.067 266.709C724.438 267.105 725.011 267.303 725.784 267.303C726.829 267.303 727.59 267.013 728.066 266.431C728.542 265.85 728.78 264.913 728.78 263.62V258.313H730.459V268.5H729.086L728.845 267.155H728.762C728.459 267.643 728.029 268.021 727.472 268.287C726.916 268.553 726.269 268.686 725.533 268.686C724.309 268.686 723.384 268.392 722.759 267.804C722.141 267.217 721.832 266.277 721.832 264.984V258.313H723.52ZM737.297 268.686C735.973 268.686 734.947 268.228 734.217 267.312C733.487 266.397 733.122 265.101 733.122 263.425C733.122 261.762 733.487 260.463 734.217 259.529C734.953 258.595 735.986 258.128 737.315 258.128C738.682 258.128 739.734 258.629 740.47 259.631H740.59C740.572 259.507 740.547 259.26 740.516 258.889C740.485 258.511 740.47 258.258 740.47 258.128V254.064H742.14V268.5H740.794L740.544 267.136H740.47C739.758 268.169 738.701 268.686 737.297 268.686ZM737.566 267.303C738.58 267.303 739.319 267.028 739.783 266.478C740.253 265.921 740.488 265.012 740.488 263.75V263.444C740.488 262.028 740.25 261.019 739.774 260.419C739.304 259.813 738.562 259.51 737.547 259.51C736.688 259.51 736.023 259.854 735.553 260.54C735.083 261.22 734.848 262.194 734.848 263.462C734.848 264.724 735.08 265.68 735.543 266.329C736.014 266.979 736.688 267.303 737.566 267.303ZM749.71 268.686C748.182 268.686 746.982 268.225 746.11 267.303C745.244 266.375 744.812 265.101 744.812 263.481C744.812 261.848 745.217 260.549 746.027 259.584C746.837 258.613 747.932 258.128 749.311 258.128C750.591 258.128 751.612 258.542 752.373 259.371C753.133 260.194 753.514 261.31 753.514 262.72V263.731H746.537C746.568 264.888 746.862 265.766 747.418 266.366C747.975 266.966 748.764 267.266 749.784 267.266C750.328 267.266 750.845 267.22 751.333 267.127C751.822 267.028 752.394 266.839 753.05 266.561V268.027C752.487 268.268 751.958 268.438 751.463 268.537C750.969 268.636 750.384 268.686 749.71 268.686ZM749.292 259.492C748.495 259.492 747.864 259.748 747.4 260.262C746.936 260.775 746.661 261.489 746.574 262.405H751.76C751.748 261.452 751.528 260.729 751.102 260.234C750.675 259.739 750.072 259.492 749.292 259.492ZM763.042 268.5V261.987C763.042 261.159 762.856 260.543 762.485 260.141C762.12 259.733 761.545 259.529 760.759 259.529C759.714 259.529 758.953 259.819 758.477 260.401C758.007 260.976 757.772 261.916 757.772 263.221V268.5H756.102V258.313H757.447L757.698 259.705H757.791C758.106 259.204 758.548 258.818 759.117 258.545C759.686 258.267 760.314 258.128 761 258.128C762.25 258.128 763.178 258.431 763.784 259.037C764.39 259.643 764.693 260.586 764.693 261.867V268.5H763.042ZM771.252 267.322C771.468 267.322 771.722 267.3 772.013 267.257C772.303 267.214 772.523 267.164 772.671 267.108V268.389C772.517 268.457 772.276 268.522 771.948 268.583C771.626 268.652 771.298 268.686 770.964 268.686C768.973 268.686 767.977 267.637 767.977 265.541V259.612H766.539V258.814L767.996 258.146L768.664 255.976H769.656V258.313H772.597V259.612H769.656V265.494C769.656 266.082 769.795 266.533 770.074 266.849C770.358 267.164 770.751 267.322 771.252 267.322Z"></path>
<path fill="#E96969" d="M550.5 43.5H583.366C583.918 43.5 584.366 43.948 584.366 44.5V152.626L583.366 151.626H609.566V153.626H583.366C582.814 153.626 582.366 153.178 582.366 152.626V44.5L583.366 45.5H550.5V43.5ZM608.232 148.626L616.232 152.626L608.232 156.626V148.626Z"></path>
<path fill="#E96969" d="M550.5 43.5H583.366C583.918 43.5 584.366 43.948 584.366 44.5V260.752L583.366 259.752H609.566V261.752H583.366C582.814 261.752 582.366 261.304 582.366 260.752V44.5L583.366 45.5H550.5V43.5ZM608.232 256.752L616.232 260.752L608.232 264.752V256.752Z"></path>
<path stroke-linejoin="round" stroke-miterlimit="10" stroke="#0B233F" fill="#F3F5F8" d="M617 339.667C617 331.567 623.567 325 631.667 325H844.333C852.433 325 859 331.567 859 339.667V398.333C859 406.433 852.433 413 844.333 413H631.667C623.567 413 617 406.433 617 398.333V339.667Z" clip-rule="evenodd" fill-rule="evenodd"></path>
<path fill="#0B233F" d="M630.19 351.937H631.98L635.033 360.639C635.422 361.74 635.707 362.726 635.886 363.598C636.041 362.819 636.328 361.82 636.749 360.602L639.783 351.937H641.592L636.749 365.5H635.033L630.19 351.937ZM644.885 365.5H643.215V355.313H644.885V365.5ZM643.085 352.558C643.085 352.187 643.178 351.918 643.364 351.751C643.556 351.584 643.791 351.5 644.069 351.5C644.329 351.5 644.554 351.584 644.746 351.751C644.944 351.918 645.043 352.187 645.043 352.558C645.043 352.923 644.944 353.192 644.746 353.365C644.554 353.538 644.329 353.625 644.069 353.625C643.791 353.625 643.556 353.538 643.364 353.365C643.178 353.192 643.085 352.923 643.085 352.558ZM652.446 365.686C650.919 365.686 649.719 365.225 648.847 364.303C647.981 363.375 647.548 362.101 647.548 360.481C647.548 358.848 647.953 357.549 648.763 356.584C649.573 355.613 650.668 355.128 652.047 355.128C653.328 355.128 654.348 355.542 655.109 356.371C655.87 357.194 656.25 358.31 656.25 359.72V360.731H649.273C649.304 361.888 649.598 362.766 650.155 363.366C650.711 363.966 651.5 364.266 652.521 364.266C653.065 364.266 653.581 364.22 654.07 364.127C654.558 364.028 655.131 363.839 655.786 363.561V365.027C655.223 365.268 654.694 365.438 654.2 365.537C653.705 365.636 653.12 365.686 652.446 365.686ZM652.029 356.492C651.231 356.492 650.6 356.748 650.136 357.262C649.672 357.775 649.397 358.489 649.311 359.405H654.497C654.484 358.452 654.265 357.729 653.838 357.234C653.411 356.739 652.808 356.492 652.029 356.492ZM666.975 365.5L665.23 359.767C665.07 359.29 664.835 358.39 664.525 357.067H664.451C664.191 358.273 663.963 359.179 663.765 359.785L661.937 365.5H660.044L657.252 355.313H658.978C659.621 357.818 660.109 359.723 660.443 361.028C660.784 362.333 660.985 363.255 661.046 363.793H661.121L661.25 363.218C661.442 362.333 661.628 361.613 661.807 361.056L663.616 355.313H665.435L667.188 361.056C667.25 361.273 667.315 361.505 667.383 361.752C667.457 361.993 667.525 362.234 667.587 362.476C667.649 362.711 667.704 362.943 667.754 363.171C667.803 363.394 667.84 363.595 667.865 363.774H667.949C668.004 363.304 668.23 362.296 668.626 360.75L670.055 355.313H671.762L668.932 365.5H666.975ZM687.264 365.5L685.631 361.297H680.25L678.636 365.5H676.911L682.208 351.881H683.748L689.036 365.5H687.264ZM685.121 359.785L683.6 355.675L682.95 353.644C682.765 354.386 682.57 355.063 682.366 355.675L680.826 359.785H685.121ZM690.91 365.5V351.937H692.617V363.979H698.545V365.5H690.91ZM708.565 361.873C708.565 363.054 708.138 363.985 707.285 364.665C706.431 365.345 705.244 365.686 703.722 365.686C702.114 365.686 700.871 365.472 699.993 365.045V363.413C700.568 363.66 701.196 363.855 701.876 363.997C702.562 364.139 703.203 364.21 703.796 364.21C704.811 364.21 705.575 364.016 706.088 363.626C706.601 363.236 706.858 362.701 706.858 362.021C706.858 361.569 706.765 361.198 706.58 360.908C706.394 360.617 706.082 360.345 705.643 360.091C705.21 359.838 704.551 359.55 703.667 359.229C702.411 358.771 701.514 358.233 700.976 357.614C700.438 356.99 700.169 356.186 700.169 355.202C700.169 354.145 700.565 353.303 701.356 352.679C702.154 352.054 703.203 351.742 704.501 351.742C705.856 351.742 707.102 351.995 708.24 352.502L707.711 353.968C706.549 353.486 705.466 353.245 704.464 353.245C703.66 353.245 703.029 353.418 702.572 353.764C702.12 354.111 701.895 354.596 701.895 355.221C701.895 355.666 701.981 356.037 702.154 356.334C702.334 356.625 702.618 356.891 703.008 357.132C703.404 357.373 704.022 357.648 704.863 357.958C705.871 358.329 706.623 358.69 707.118 359.043C707.612 359.389 707.977 359.791 708.212 360.249C708.447 360.701 708.565 361.242 708.565 361.873ZM716.237 365.5V351.937H717.944V363.979H723.873V365.5H716.237ZM730.302 365.686C728.774 365.686 727.574 365.225 726.702 364.303C725.836 363.375 725.403 362.101 725.403 360.481C725.403 358.848 725.808 357.549 726.619 356.584C727.429 355.613 728.524 355.128 729.903 355.128C731.183 355.128 732.204 355.542 732.964 356.371C733.725 357.194 734.105 358.31 734.105 359.72V360.731H727.129C727.16 361.888 727.454 362.766 728.01 363.366C728.567 363.966 729.355 364.266 730.376 364.266C730.92 364.266 731.437 364.22 731.925 364.127C732.414 364.028 732.986 363.839 733.642 363.561V365.027C733.079 365.268 732.55 365.438 732.055 365.537C731.56 365.636 730.976 365.686 730.302 365.686ZM729.884 356.492C729.086 356.492 728.456 356.748 727.992 357.262C727.528 357.775 727.253 358.489 727.166 359.405H732.352C732.34 358.452 732.12 357.729 731.693 357.234C731.267 356.739 730.664 356.492 729.884 356.492ZM742.984 365.5L742.659 364.053H742.585C742.078 364.69 741.571 365.123 741.063 365.352C740.562 365.574 739.929 365.686 739.162 365.686C738.16 365.686 737.374 365.423 736.805 364.897C736.236 364.371 735.952 363.629 735.952 362.67C735.952 360.605 737.581 359.522 740.841 359.423L742.566 359.358V358.755C742.566 357.982 742.399 357.413 742.065 357.048C741.731 356.677 741.196 356.492 740.46 356.492C739.922 356.492 739.412 356.572 738.93 356.733C738.453 356.894 738.005 357.073 737.584 357.271L737.074 356.019C737.588 355.746 738.147 355.533 738.753 355.378C739.36 355.224 739.959 355.146 740.553 355.146C741.784 355.146 742.699 355.419 743.299 355.963C743.899 356.507 744.199 357.373 744.199 358.561V365.5H742.984ZM739.542 364.34C740.476 364.34 741.209 364.09 741.741 363.589C742.279 363.082 742.548 362.364 742.548 361.437V360.518L741.045 360.583C739.876 360.626 739.022 360.812 738.484 361.14C737.952 361.467 737.687 361.984 737.687 362.689C737.687 363.221 737.847 363.629 738.169 363.914C738.497 364.198 738.954 364.34 739.542 364.34ZM752.113 355.128C752.564 355.128 752.963 355.165 753.31 355.239L753.105 356.779C752.728 356.693 752.36 356.649 752.001 356.649C751.463 356.649 750.962 356.798 750.499 357.095C750.041 357.392 749.682 357.803 749.422 358.329C749.163 358.848 749.033 359.426 749.033 360.063V365.5H747.363V355.313H748.736L748.921 357.178H748.996C749.385 356.504 749.846 355.994 750.378 355.647C750.91 355.301 751.488 355.128 752.113 355.128ZM762.151 365.5V358.987C762.151 358.159 761.965 357.543 761.594 357.141C761.229 356.733 760.654 356.529 759.869 356.529C758.823 356.529 758.063 356.819 757.586 357.401C757.116 357.976 756.881 358.916 756.881 360.221V365.5H755.211V355.313H756.557L756.807 356.705H756.9C757.215 356.204 757.658 355.818 758.227 355.545C758.796 355.267 759.423 355.128 760.11 355.128C761.359 355.128 762.287 355.431 762.893 356.037C763.499 356.643 763.802 357.586 763.802 358.867V365.5H762.151ZM768.626 365.5H766.957V355.313H768.626V365.5ZM766.827 352.558C766.827 352.187 766.919 351.918 767.105 351.751C767.297 351.584 767.532 351.5 767.81 351.5C768.07 351.5 768.296 351.584 768.487 351.751C768.685 351.918 768.784 352.187 768.784 352.558C768.784 352.923 768.685 353.192 768.487 353.365C768.296 353.538 768.07 353.625 767.81 353.625C767.532 353.625 767.297 353.538 767.105 353.365C766.919 353.192 766.827 352.923 766.827 352.558ZM778.794 365.5V358.987C778.794 358.159 778.609 357.543 778.238 357.141C777.873 356.733 777.298 356.529 776.512 356.529C775.467 356.529 774.706 356.819 774.23 357.401C773.76 357.976 773.525 358.916 773.525 360.221V365.5H771.855V355.313H773.2L773.451 356.705H773.543C773.859 356.204 774.301 355.818 774.87 355.545C775.439 355.267 776.067 355.128 776.753 355.128C778.003 355.128 778.931 355.431 779.537 356.037C780.143 356.643 780.446 357.586 780.446 358.867V365.5H778.794ZM787.478 364.322C788.505 364.322 789.25 364.047 789.714 363.496C790.184 362.939 790.419 362.049 790.419 360.824V360.425C790.419 359.065 790.184 358.075 789.714 357.457C789.244 356.838 788.486 356.529 787.441 356.529C786.587 356.529 785.926 356.869 785.456 357.549C784.992 358.223 784.76 359.188 784.76 360.444C784.76 361.706 784.986 362.667 785.437 363.329C785.895 363.991 786.575 364.322 787.478 364.322ZM790.4 365.407L790.456 364.155H790.382C789.695 365.175 788.644 365.686 787.228 365.686C785.91 365.686 784.88 365.228 784.138 364.312C783.402 363.391 783.034 362.095 783.034 360.425C783.034 358.786 783.405 357.494 784.147 356.547C784.896 355.601 785.916 355.128 787.209 355.128C788.588 355.128 789.652 355.641 790.4 356.668H790.502L790.725 355.313H792.052V365.667C792.052 367.127 791.681 368.224 790.938 368.96C790.202 369.696 789.055 370.064 787.497 370.064C786.012 370.064 784.791 369.848 783.832 369.415V367.875C784.822 368.407 786.074 368.673 787.589 368.673C788.455 368.673 789.139 368.419 789.64 367.912C790.147 367.405 790.4 366.703 790.4 365.806V365.407Z"></path>
<path fill="#0B233F" d="M640.72 377.926C640.72 379.311 640.247 380.375 639.3 381.117C638.354 381.853 637.021 382.221 635.302 382.221H633.743V387.5H632.036V373.937H635.626C639.022 373.937 640.72 375.266 640.72 377.926ZM633.743 380.755H635.107C636.455 380.755 637.432 380.539 638.039 380.106C638.645 379.667 638.948 378.965 638.948 378C638.948 377.128 638.666 376.475 638.104 376.042C637.541 375.61 636.662 375.393 635.469 375.393H633.743V380.755ZM648.058 377.128C648.51 377.128 648.909 377.165 649.255 377.239L649.051 378.779C648.674 378.693 648.306 378.649 647.947 378.649C647.409 378.649 646.908 378.798 646.444 379.095C645.986 379.392 645.627 379.803 645.368 380.329C645.108 380.848 644.978 381.426 644.978 382.063V387.5H643.308V377.313H644.681L644.867 379.178H644.941C645.331 378.504 645.791 377.994 646.323 377.647C646.855 377.301 647.433 377.128 648.058 377.128ZM659.822 382.388C659.822 384.052 659.401 385.351 658.56 386.285C657.719 387.219 656.556 387.686 655.072 387.686C654.15 387.686 653.334 387.472 652.623 387.045C651.911 386.612 651.364 385.994 650.98 385.19C650.597 384.386 650.405 383.452 650.405 382.388C650.405 380.731 650.82 379.441 651.648 378.52C652.477 377.592 653.64 377.128 655.137 377.128C656.572 377.128 657.71 377.601 658.551 378.547C659.398 379.487 659.822 380.768 659.822 382.388ZM652.131 382.388C652.131 383.668 652.381 384.643 652.882 385.311C653.389 385.972 654.135 386.303 655.118 386.303C656.089 386.303 656.828 385.972 657.335 385.311C657.843 384.643 658.096 383.668 658.096 382.388C658.096 381.108 657.84 380.146 657.326 379.503C656.819 378.854 656.074 378.529 655.09 378.529C653.117 378.529 652.131 379.815 652.131 382.388ZM666.353 386.322C667.38 386.322 668.125 386.047 668.589 385.496C669.059 384.939 669.294 384.049 669.294 382.824V382.425C669.294 381.065 669.059 380.075 668.589 379.457C668.119 378.838 667.361 378.529 666.316 378.529C665.462 378.529 664.801 378.869 664.331 379.549C663.867 380.223 663.635 381.188 663.635 382.444C663.635 383.706 663.861 384.667 664.312 385.329C664.77 385.991 665.45 386.322 666.353 386.322ZM669.275 387.407L669.331 386.155H669.257C668.57 387.175 667.519 387.686 666.103 387.686C664.785 387.686 663.755 387.228 663.013 386.312C662.277 385.391 661.909 384.095 661.909 382.425C661.909 380.786 662.28 379.494 663.022 378.547C663.771 377.601 664.791 377.128 666.084 377.128C667.463 377.128 668.527 377.641 669.275 378.668H669.377L669.6 377.313H670.927V387.667C670.927 389.127 670.556 390.224 669.813 390.96C669.077 391.696 667.93 392.064 666.372 392.064C664.887 392.064 663.666 391.848 662.707 391.415V389.875C663.697 390.407 664.949 390.673 666.464 390.673C667.33 390.673 668.014 390.419 668.515 389.912C669.022 389.405 669.275 388.703 669.275 387.806V387.407ZM678.915 377.128C679.366 377.128 679.765 377.165 680.111 377.239L679.907 378.779C679.53 378.693 679.162 378.649 678.803 378.649C678.265 378.649 677.764 378.798 677.3 379.095C676.843 379.392 676.484 379.803 676.224 380.329C675.964 380.848 675.834 381.426 675.834 382.063V387.5H674.165V377.313H675.538L675.723 379.178H675.797C676.187 378.504 676.648 377.994 677.18 377.647C677.712 377.301 678.29 377.128 678.915 377.128ZM686.16 387.686C684.632 387.686 683.433 387.225 682.561 386.303C681.695 385.375 681.262 384.101 681.262 382.481C681.262 380.848 681.667 379.549 682.477 378.584C683.287 377.613 684.382 377.128 685.761 377.128C687.042 377.128 688.062 377.542 688.823 378.371C689.583 379.194 689.964 380.31 689.964 381.72V382.731H682.987C683.018 383.888 683.312 384.766 683.869 385.366C684.425 385.966 685.214 386.266 686.234 386.266C686.779 386.266 687.295 386.22 687.784 386.127C688.272 386.028 688.844 385.839 689.5 385.561V387.027C688.937 387.268 688.408 387.438 687.914 387.537C687.419 387.636 686.834 387.686 686.16 387.686ZM685.743 378.492C684.945 378.492 684.314 378.748 683.85 379.262C683.386 379.775 683.111 380.489 683.024 381.405H688.21C688.198 380.452 687.979 379.729 687.552 379.234C687.125 378.739 686.522 378.492 685.743 378.492ZM699.186 384.689C699.186 385.641 698.83 386.381 698.119 386.906C697.407 387.426 696.409 387.686 695.122 387.686C693.78 387.686 692.713 387.472 691.921 387.045V385.524C693.041 386.068 694.12 386.34 695.159 386.34C696 386.34 696.613 386.204 696.996 385.932C697.38 385.66 697.571 385.295 697.571 384.837C697.571 384.435 697.386 384.095 697.015 383.817C696.65 383.539 695.997 383.22 695.057 382.861C694.098 382.49 693.424 382.175 693.035 381.915C692.645 381.649 692.357 381.352 692.172 381.024C691.993 380.697 691.903 380.298 691.903 379.828C691.903 378.993 692.243 378.334 692.923 377.852C693.604 377.369 694.538 377.128 695.725 377.128C696.882 377.128 697.964 377.357 698.972 377.814L698.406 379.141C697.373 378.708 696.443 378.492 695.614 378.492C694.921 378.492 694.395 378.603 694.037 378.826C693.678 379.042 693.499 379.342 693.499 379.726C693.499 380.097 693.653 380.406 693.962 380.653C694.272 380.895 694.992 381.232 696.124 381.665C696.971 381.98 697.596 382.274 697.998 382.546C698.406 382.818 698.706 383.124 698.898 383.464C699.09 383.805 699.186 384.213 699.186 384.689ZM708.296 384.689C708.296 385.641 707.94 386.381 707.229 386.906C706.518 387.426 705.519 387.686 704.232 387.686C702.89 387.686 701.823 387.472 701.032 387.045V385.524C702.151 386.068 703.23 386.34 704.27 386.34C705.111 386.34 705.723 386.204 706.106 385.932C706.49 385.66 706.682 385.295 706.682 384.837C706.682 384.435 706.496 384.095 706.125 383.817C705.76 383.539 705.108 383.22 704.167 382.861C703.209 382.49 702.535 382.175 702.145 381.915C701.755 381.649 701.468 381.352 701.282 381.024C701.103 380.697 701.013 380.298 701.013 379.828C701.013 378.993 701.353 378.334 702.034 377.852C702.714 377.369 703.648 377.128 704.835 377.128C705.992 377.128 707.074 377.357 708.083 377.814L707.517 379.141C706.484 378.708 705.553 378.492 704.724 378.492C704.031 378.492 703.506 378.603 703.147 378.826C702.788 379.042 702.609 379.342 702.609 379.726C702.609 380.097 702.764 380.406 703.073 380.653C703.382 380.895 704.103 381.232 705.234 381.665C706.082 381.98 706.706 382.274 707.108 382.546C707.517 382.818 707.817 383.124 708.008 383.464C708.2 383.805 708.296 384.213 708.296 384.689Z"></path>
<path fill="#E96969" d="M550.5 43.5H583.366C583.918 43.5 584.366 43.948 584.366 44.5V368.846L583.366 367.846H609.566V369.846H583.366C582.814 369.846 582.366 369.399 582.366 368.846V44.5L583.366 45.5H550.5V43.5ZM608.232 364.846L616.232 368.846L608.232 372.846V364.846Z"></path>
</svg>
