<svg xmlns="http://www.w3.org/2000/svg" fill="none" viewBox="0 0 552 305" height="305" width="552">
<path stroke-linejoin="round" stroke-miterlimit="10" stroke="#0B233F" fill="#0B233F" d="M1.5 15.167C1.5 7.06699 8.0665 0.5 16.1668 0.5H228.833C236.933 0.5 243.5 7.06699 243.5 15.167V73.833C243.5 81.933 236.933 88.5 228.833 88.5H16.1668C8.0665 88.5 1.5 81.933 1.5 73.833V15.167Z" clip-rule="evenodd" fill-rule="evenodd"></path>
<path fill="white" d="M27.8889 41H25.0222V35.146H19.6506V41H16.7747V27.4365H19.6506V32.7524H25.0222V27.4365H27.8889V41ZM33.3533 35.7954C33.3533 36.8221 33.5203 37.5983 33.8542 38.124C34.1944 38.6497 34.7449 38.9126 35.5056 38.9126C36.2602 38.9126 36.8014 38.6528 37.1292 38.1333C37.4631 37.6076 37.6301 36.8283 37.6301 35.7954C37.6301 34.7687 37.4631 33.9987 37.1292 33.4854C36.7952 32.972 36.2478 32.7153 35.4871 32.7153C34.7325 32.7153 34.1882 32.972 33.8542 33.4854C33.5203 33.9925 33.3533 34.7625 33.3533 35.7954ZM40.5247 35.7954C40.5247 37.4839 40.0793 38.8044 39.1887 39.7568C38.2981 40.7093 37.058 41.1855 35.4685 41.1855C34.4727 41.1855 33.5945 40.9691 32.8337 40.5361C32.073 40.097 31.4885 39.4692 31.0803 38.6528C30.6721 37.8364 30.468 36.884 30.468 35.7954C30.468 34.1007 30.9102 32.7834 31.7947 31.8433C32.6791 30.9032 33.9223 30.4331 35.5242 30.4331C36.5199 30.4331 37.3982 30.6496 38.1589 31.0825C38.9197 31.5155 39.5042 32.137 39.9124 32.9473C40.3206 33.7575 40.5247 34.7069 40.5247 35.7954ZM51.2029 41L50.405 37.3726L49.3474 32.7896H49.2639L47.3713 41H44.3284L41.3782 30.6279H44.1985L45.3953 35.2202C45.5313 35.7645 45.72 36.8994 45.9612 38.625H46.0354C46.0601 38.1549 46.1684 37.4097 46.3601 36.3892L46.5085 35.6006L47.7888 30.6279H50.906L52.1213 35.6006C52.1956 35.9408 52.2852 36.4417 52.3904 37.1035C52.5017 37.7591 52.5636 38.2663 52.5759 38.625H52.6501C52.7182 38.0745 52.814 37.4499 52.9377 36.751C53.0614 36.0459 53.1666 35.5356 53.2532 35.2202L54.4963 30.6279H57.2703L54.283 41H51.2029ZM68.2546 38.9312C68.7494 38.9312 69.3432 38.8229 70.0359 38.6064V40.7124C69.3308 41.0278 68.4649 41.1855 67.4382 41.1855C66.3064 41.1855 65.4807 40.901 64.9612 40.332C64.4478 39.7568 64.1912 38.8971 64.1912 37.7529V32.7524H62.8367V31.5557L64.3953 30.6094L65.2117 28.4199H67.0208V30.6279H69.9246V32.7524H67.0208V37.7529C67.0208 38.1549 67.1321 38.4518 67.3547 38.6436C67.5836 38.8353 67.8835 38.9312 68.2546 38.9312ZM74.3962 35.7954C74.3962 36.8221 74.5632 37.5983 74.8972 38.124C75.2374 38.6497 75.7878 38.9126 76.5486 38.9126C77.3031 38.9126 77.8443 38.6528 78.1721 38.1333C78.5061 37.6076 78.6731 36.8283 78.6731 35.7954C78.6731 34.7687 78.5061 33.9987 78.1721 33.4854C77.8381 32.972 77.2908 32.7153 76.53 32.7153C75.7755 32.7153 75.2312 32.972 74.8972 33.4854C74.5632 33.9925 74.3962 34.7625 74.3962 35.7954ZM81.5676 35.7954C81.5676 37.4839 81.1223 38.8044 80.2317 39.7568C79.3411 40.7093 78.101 41.1855 76.5115 41.1855C75.5157 41.1855 74.6375 40.9691 73.8767 40.5361C73.116 40.097 72.5315 39.4692 72.1233 38.6528C71.7151 37.8364 71.511 36.884 71.511 35.7954C71.511 34.1007 71.9532 32.7834 72.8376 31.8433C73.7221 30.9032 74.9653 30.4331 76.5671 30.4331C77.5629 30.4331 78.4412 30.6496 79.2019 31.0825C79.9626 31.5155 80.5471 32.137 80.9553 32.9473C81.3635 33.7575 81.5676 34.7069 81.5676 35.7954ZM98.1277 41H95.2981V34.9419C95.2981 34.1935 95.1713 33.6338 94.9177 33.2627C94.6703 32.8854 94.2776 32.6968 93.7395 32.6968C93.0159 32.6968 92.4902 32.9627 92.1624 33.4946C91.8346 34.0265 91.6707 34.9017 91.6707 36.1201V41H88.8411V30.6279H91.0027L91.3831 31.9546H91.5408C91.8191 31.4784 92.2211 31.1073 92.7468 30.8413C93.2725 30.5692 93.8756 30.4331 94.5559 30.4331C96.1083 30.4331 97.1597 30.9403 97.7102 31.9546H97.9607C98.239 31.4722 98.6472 31.098 99.1853 30.832C99.7296 30.5661 100.342 30.4331 101.022 30.4331C102.197 30.4331 103.085 30.7362 103.685 31.3423C104.291 31.9422 104.594 32.9071 104.594 34.2368V41H101.755V34.9419C101.755 34.1935 101.628 33.6338 101.375 33.2627C101.127 32.8854 100.735 32.6968 100.197 32.6968C99.5038 32.6968 98.9843 32.9442 98.6379 33.439C98.2978 33.9338 98.1277 34.7192 98.1277 35.7954V41ZM114.094 41L113.547 39.5898H113.472C112.996 40.1898 112.504 40.6073 111.997 40.8423C111.496 41.0711 110.841 41.1855 110.031 41.1855C109.035 41.1855 108.249 40.901 107.674 40.332C107.105 39.763 106.821 38.9528 106.821 37.9014C106.821 36.8005 107.204 35.9902 107.971 35.4707C108.744 34.945 109.907 34.6543 111.459 34.5986L113.259 34.543V34.0884C113.259 33.0369 112.721 32.5112 111.645 32.5112C110.816 32.5112 109.842 32.7617 108.722 33.2627L107.785 31.3516C108.979 30.7269 110.303 30.4146 111.756 30.4146C113.148 30.4146 114.215 30.7176 114.957 31.3237C115.699 31.9299 116.07 32.8514 116.07 34.0884V41H114.094ZM113.259 36.1943L112.164 36.2314C111.342 36.2562 110.729 36.4046 110.327 36.6768C109.925 36.9489 109.724 37.3633 109.724 37.9199C109.724 38.7178 110.182 39.1167 111.097 39.1167C111.753 39.1167 112.276 38.9281 112.665 38.5508C113.061 38.1735 113.259 37.6725 113.259 37.0479V36.1943ZM128.567 41H125.737V34.9419C125.737 34.1935 125.604 33.6338 125.338 33.2627C125.072 32.8854 124.649 32.6968 124.067 32.6968C123.275 32.6968 122.703 32.9627 122.351 33.4946C121.998 34.0203 121.822 34.8955 121.822 36.1201V41H118.992V30.6279H121.154L121.534 31.9546H121.692C122.008 31.4536 122.441 31.0763 122.991 30.8228C123.548 30.563 124.178 30.4331 124.884 30.4331C126.09 30.4331 127.005 30.7609 127.63 31.4165C128.254 32.0659 128.567 33.006 128.567 34.2368V41ZM138.067 41L137.519 39.5898H137.445C136.969 40.1898 136.477 40.6073 135.97 40.8423C135.469 41.0711 134.813 41.1855 134.003 41.1855C133.007 41.1855 132.222 40.901 131.647 40.332C131.078 39.763 130.793 38.9528 130.793 37.9014C130.793 36.8005 131.177 35.9902 131.944 35.4707C132.717 34.945 133.879 34.6543 135.432 34.5986L137.232 34.543V34.0884C137.232 33.0369 136.694 32.5112 135.617 32.5112C134.789 32.5112 133.815 32.7617 132.695 33.2627L131.758 31.3516C132.952 30.7269 134.275 30.4146 135.729 30.4146C137.12 30.4146 138.187 30.7176 138.929 31.3237C139.672 31.9299 140.043 32.8514 140.043 34.0884V41H138.067ZM137.232 36.1943L136.137 36.2314C135.314 36.2562 134.702 36.4046 134.3 36.6768C133.898 36.9489 133.697 37.3633 133.697 37.9199C133.697 38.7178 134.155 39.1167 135.07 39.1167C135.726 39.1167 136.248 38.9281 136.638 38.5508C137.034 38.1735 137.232 37.6725 137.232 37.0479V36.1943ZM147.26 38.9683C148.021 38.9683 148.566 38.7518 148.893 38.3188C149.221 37.8797 149.385 37.1715 149.385 36.1943V35.8511C149.385 34.744 149.212 33.9492 148.865 33.4668C148.525 32.9782 147.975 32.7339 147.214 32.7339C145.884 32.7339 145.219 33.7791 145.219 35.8696C145.219 36.9087 145.383 37.6849 145.711 38.1982C146.045 38.7116 146.562 38.9683 147.26 38.9683ZM152.029 41.0186C152.029 42.5091 151.593 43.6379 150.721 44.4048C149.855 45.1779 148.562 45.5645 146.843 45.5645C145.328 45.5645 144.035 45.3604 142.965 44.9521V42.6885C144.221 43.2204 145.569 43.4863 147.01 43.4863C148.463 43.4863 149.19 42.7008 149.19 41.1299V40.9258L149.274 39.6548H149.19C148.528 40.6753 147.548 41.1855 146.249 41.1855C145.006 41.1855 144.041 40.7062 143.355 39.7476C142.674 38.7889 142.334 37.4839 142.334 35.8325C142.334 34.1317 142.687 32.8081 143.392 31.8618C144.103 30.9093 145.08 30.4331 146.323 30.4331C147.598 30.4331 148.6 30.9403 149.329 31.9546H149.404L149.635 30.6279H152.029V41.0186ZM159.284 32.4463C158.684 32.4463 158.214 32.638 157.874 33.0215C157.534 33.3988 157.339 33.9368 157.289 34.6357H161.26C161.248 33.9368 161.065 33.3988 160.713 33.0215C160.36 32.638 159.884 32.4463 159.284 32.4463ZM159.683 41.1855C158.013 41.1855 156.708 40.7248 155.768 39.8032C154.828 38.8817 154.358 37.5767 154.358 35.8882C154.358 34.1502 154.791 32.8081 155.656 31.8618C156.529 30.9093 157.732 30.4331 159.265 30.4331C160.731 30.4331 161.872 30.8506 162.689 31.6855C163.505 32.5205 163.913 33.674 163.913 35.146V36.519H157.224C157.255 37.3231 157.493 37.9508 157.939 38.4023C158.384 38.8538 159.009 39.0796 159.813 39.0796C160.437 39.0796 161.028 39.0146 161.585 38.8848C162.141 38.7549 162.723 38.5477 163.329 38.2632V40.4526C162.834 40.7 162.305 40.8825 161.742 41C161.18 41.1237 160.493 41.1855 159.683 41.1855ZM180.436 41H177.607V34.9419C177.607 34.1935 177.48 33.6338 177.226 33.2627C176.979 32.8854 176.586 32.6968 176.048 32.6968C175.324 32.6968 174.799 32.9627 174.471 33.4946C174.143 34.0265 173.979 34.9017 173.979 36.1201V41H171.15V30.6279H173.311L173.692 31.9546H173.849C174.128 31.4784 174.53 31.1073 175.055 30.8413C175.581 30.5692 176.184 30.4331 176.865 30.4331C178.417 30.4331 179.468 30.9403 180.019 31.9546H180.269C180.548 31.4722 180.956 31.098 181.494 30.832C182.038 30.5661 182.65 30.4331 183.331 30.4331C184.506 30.4331 185.393 30.7362 185.993 31.3423C186.6 31.9422 186.903 32.9071 186.903 34.2368V41H184.064V34.9419C184.064 34.1935 183.937 33.6338 183.683 33.2627C183.436 32.8854 183.043 32.6968 182.505 32.6968C181.812 32.6968 181.293 32.9442 180.947 33.439C180.606 33.9338 180.436 34.7192 180.436 35.7954V41ZM188.331 30.6279H191.43L193.387 36.4634C193.554 36.9705 193.669 37.5705 193.731 38.2632H193.786C193.854 37.6261 193.987 37.0262 194.185 36.4634L196.106 30.6279H199.139L194.751 42.3267C194.349 43.409 193.774 44.2192 193.026 44.7573C192.283 45.2954 191.414 45.5645 190.419 45.5645C189.93 45.5645 189.451 45.5119 188.981 45.4067V43.1616C189.321 43.242 189.692 43.2822 190.094 43.2822C190.595 43.2822 191.031 43.1276 191.402 42.8184C191.779 42.5153 192.073 42.0545 192.283 41.436L192.45 40.9258L188.331 30.6279Z"></path>
<path fill="white" d="M24.781 59.2334C24.781 60.458 24.3388 61.4229 23.4543 62.1279C22.5761 62.833 21.3515 63.1855 19.7805 63.1855C18.3333 63.1855 17.053 62.9134 15.9397 62.3691V59.6973C16.8551 60.1055 17.6282 60.3931 18.259 60.5601C18.8961 60.7271 19.4775 60.8105 20.0032 60.8105C20.634 60.8105 21.1165 60.6899 21.4504 60.4487C21.7906 60.2075 21.9607 59.8488 21.9607 59.3726C21.9607 59.1066 21.8865 58.8716 21.738 58.6675C21.5896 58.4572 21.37 58.2562 21.0793 58.0645C20.7948 57.8727 20.2104 57.5666 19.3259 57.146C18.4972 56.7563 17.8756 56.3822 17.4612 56.0234C17.0468 55.6647 16.7159 55.2472 16.4685 54.771C16.2211 54.2948 16.0974 53.7381 16.0974 53.1011C16.0974 51.9012 16.5025 50.958 17.3127 50.2715C18.1292 49.585 19.2548 49.2417 20.6897 49.2417C21.3948 49.2417 22.0658 49.3252 22.7029 49.4922C23.3461 49.6592 24.0172 49.8942 24.7161 50.1973L23.7883 52.4331C23.0647 52.1362 22.4648 51.929 21.9885 51.8115C21.5185 51.694 21.0546 51.6353 20.5969 51.6353C20.0527 51.6353 19.6352 51.762 19.3445 52.0156C19.0538 52.2692 18.9084 52.6001 18.9084 53.0083C18.9084 53.2619 18.9672 53.4845 19.0847 53.6763C19.2022 53.8618 19.3878 54.0443 19.6414 54.2236C19.9011 54.3968 20.5103 54.7122 21.469 55.1699C22.7369 55.776 23.6059 56.3853 24.0759 56.9976C24.546 57.6037 24.781 58.349 24.781 59.2334ZM27.2395 63V49.4365H30.1155V60.625H35.6169V63H27.2395ZM45.989 59.2334C45.989 60.458 45.5468 61.4229 44.6624 62.1279C43.7841 62.833 42.5595 63.1855 40.9885 63.1855C39.5413 63.1855 38.261 62.9134 37.1477 62.3691V59.6973C38.0631 60.1055 38.8362 60.3931 39.467 60.5601C40.1041 60.7271 40.6855 60.8105 41.2112 60.8105C41.842 60.8105 42.3245 60.6899 42.6584 60.4487C42.9986 60.2075 43.1687 59.8488 43.1687 59.3726C43.1687 59.1066 43.0945 58.8716 42.946 58.6675C42.7976 58.4572 42.578 58.2562 42.2874 58.0645C42.0028 57.8727 41.4184 57.5666 40.5339 57.146C39.7052 56.7563 39.0836 56.3822 38.6692 56.0234C38.2548 55.6647 37.9239 55.2472 37.6765 54.771C37.4291 54.2948 37.3054 53.7381 37.3054 53.1011C37.3054 51.9012 37.7105 50.958 38.5208 50.2715C39.3372 49.585 40.4628 49.2417 41.8977 49.2417C42.6028 49.2417 43.2738 49.3252 43.9109 49.4922C44.5541 49.6592 45.2252 49.8942 45.9241 50.1973L44.9963 52.4331C44.2727 52.1362 43.6728 51.929 43.1965 51.8115C42.7265 51.694 42.2626 51.6353 41.8049 51.6353C41.2607 51.6353 40.8432 51.762 40.5525 52.0156C40.2618 52.2692 40.1165 52.6001 40.1165 53.0083C40.1165 53.2619 40.1752 53.4845 40.2927 53.6763C40.4102 53.8618 40.5958 54.0443 40.8494 54.2236C41.1091 54.3968 41.7183 54.7122 42.677 55.1699C43.9449 55.776 44.8139 56.3853 45.2839 56.9976C45.754 57.6037 45.989 58.349 45.989 59.2334ZM59.7473 63L59.2 61.5898H59.1257C58.6495 62.1898 58.1578 62.6073 57.6506 62.8423C57.1497 63.0711 56.4941 63.1855 55.6838 63.1855C54.6881 63.1855 53.9026 62.901 53.3274 62.332C52.7584 61.763 52.4739 60.9528 52.4739 59.9014C52.4739 58.8005 52.8573 57.9902 53.6243 57.4707C54.3974 56.945 55.5601 56.6543 57.1125 56.5986L58.9124 56.543V56.0884C58.9124 55.0369 58.3743 54.5112 57.2981 54.5112C56.4693 54.5112 55.4952 54.7617 54.3757 55.2627L53.4387 53.3516C54.6324 52.7269 55.956 52.4146 57.4094 52.4146C58.801 52.4146 59.8679 52.7176 60.6101 53.3237C61.3523 53.9299 61.7234 54.8514 61.7234 56.0884V63H59.7473ZM58.9124 58.1943L57.8176 58.2314C56.995 58.2562 56.3827 58.4046 55.9807 58.6768C55.5787 58.9489 55.3777 59.3633 55.3777 59.9199C55.3777 60.7178 55.8354 61.1167 56.7507 61.1167C57.4063 61.1167 57.929 60.9281 58.3186 60.5508C58.7144 60.1735 58.9124 59.6725 58.9124 59.0479V58.1943ZM68.8577 63.1855C65.6292 63.1855 64.0149 61.4136 64.0149 57.8696C64.0149 56.1069 64.454 54.7617 65.3323 53.834C66.2105 52.9001 67.4692 52.4331 69.1082 52.4331C70.308 52.4331 71.3842 52.6681 72.3367 53.1382L71.5017 55.3276C71.0564 55.1483 70.642 55.0029 70.2585 54.8916C69.8751 54.7741 69.4916 54.7153 69.1082 54.7153C67.6361 54.7153 66.9001 55.7606 66.9001 57.8511C66.9001 59.8797 67.6361 60.894 69.1082 60.894C69.6524 60.894 70.1565 60.8229 70.6204 60.6807C71.0842 60.5322 71.5481 60.3034 72.012 59.9941V62.4155C71.5543 62.7062 71.0904 62.9072 70.6204 63.0186C70.1565 63.1299 69.5689 63.1855 68.8577 63.1855ZM78.636 63.1855C75.4075 63.1855 73.7932 61.4136 73.7932 57.8696C73.7932 56.1069 74.2323 54.7617 75.1106 53.834C75.9889 52.9001 77.2475 52.4331 78.8865 52.4331C80.0863 52.4331 81.1625 52.6681 82.115 53.1382L81.28 55.3276C80.8347 55.1483 80.4203 55.0029 80.0369 54.8916C79.6534 54.7741 79.2699 54.7153 78.8865 54.7153C77.4145 54.7153 76.6785 55.7606 76.6785 57.8511C76.6785 59.8797 77.4145 60.894 78.8865 60.894C79.4307 60.894 79.9348 60.8229 80.3987 60.6807C80.8625 60.5322 81.3264 60.3034 81.7903 59.9941V62.4155C81.3326 62.7062 80.8687 62.9072 80.3987 63.0186C79.9348 63.1299 79.3472 63.1855 78.636 63.1855ZM86.4568 57.7954C86.4568 58.8221 86.6238 59.5983 86.9578 60.124C87.2979 60.6497 87.8484 60.9126 88.6091 60.9126C89.3637 60.9126 89.9049 60.6528 90.2327 60.1333C90.5667 59.6076 90.7336 58.8283 90.7336 57.7954C90.7336 56.7687 90.5667 55.9987 90.2327 55.4854C89.8987 54.972 89.3513 54.7153 88.5906 54.7153C87.836 54.7153 87.2917 54.972 86.9578 55.4854C86.6238 55.9925 86.4568 56.7625 86.4568 57.7954ZM93.6282 57.7954C93.6282 59.4839 93.1829 60.8044 92.2922 61.7568C91.4016 62.7093 90.1615 63.1855 88.572 63.1855C87.5763 63.1855 86.698 62.9691 85.9373 62.5361C85.1765 62.097 84.592 61.4692 84.1838 60.6528C83.7756 59.8364 83.5715 58.884 83.5715 57.7954C83.5715 56.1007 84.0138 54.7834 84.8982 53.8433C85.7826 52.9032 87.0258 52.4331 88.6277 52.4331C89.6235 52.4331 90.5017 52.6496 91.2625 53.0825C92.0232 53.5155 92.6077 54.137 93.0159 54.9473C93.4241 55.7575 93.6282 56.7069 93.6282 57.7954ZM103.314 63L102.933 61.6733H102.785C102.482 62.1558 102.052 62.5299 101.495 62.7959C100.939 63.0557 100.305 63.1855 99.5935 63.1855C98.3751 63.1855 97.4566 62.8608 96.8381 62.2114C96.2196 61.5558 95.9104 60.6157 95.9104 59.3911V52.6279H98.74V58.686C98.74 59.4344 98.873 59.9972 99.1389 60.3745C99.4049 60.7456 99.8285 60.9312 100.41 60.9312C101.202 60.9312 101.774 60.6683 102.126 60.1426C102.479 59.6107 102.655 58.7324 102.655 57.5078V52.6279H105.485V63H103.314ZM118.028 63H115.198V56.9419C115.198 56.1935 115.065 55.6338 114.799 55.2627C114.533 54.8854 114.109 54.6968 113.528 54.6968C112.736 54.6968 112.164 54.9627 111.812 55.4946C111.459 56.0203 111.283 56.8955 111.283 58.1201V63H108.453V52.6279H110.615L110.995 53.9546H111.153C111.469 53.4536 111.901 53.0763 112.452 52.8228C113.009 52.563 113.639 52.4331 114.344 52.4331C115.551 52.4331 116.466 52.7609 117.091 53.4165C117.715 54.0659 118.028 55.006 118.028 56.2368V63ZM125.31 60.9312C125.805 60.9312 126.399 60.8229 127.092 60.6064V62.7124C126.386 63.0278 125.521 63.1855 124.494 63.1855C123.362 63.1855 122.536 62.901 122.017 62.332C121.503 61.7568 121.247 60.8971 121.247 59.7529V54.7524H119.892V53.5557L121.451 52.6094L122.267 50.4199H124.076V52.6279H126.98V54.7524H124.076V59.7529C124.076 60.1549 124.188 60.4518 124.41 60.6436C124.639 60.8353 124.939 60.9312 125.31 60.9312ZM131.109 58.5005V57.814C131.109 57.4985 131.14 57.214 131.201 56.9604C131.269 56.7007 131.368 56.4564 131.498 56.2275C131.634 55.9925 131.808 55.7668 132.018 55.5503C132.228 55.3276 132.482 55.0988 132.779 54.8638C133.038 54.6597 133.258 54.4772 133.437 54.3164C133.617 54.1556 133.762 53.9979 133.873 53.8433C133.985 53.6825 134.065 53.5155 134.115 53.3423C134.164 53.1691 134.189 52.9681 134.189 52.7393C134.189 52.3867 134.068 52.096 133.827 51.8672C133.592 51.6383 133.23 51.5239 132.741 51.5239C132.315 51.5239 131.854 51.6136 131.359 51.793C130.871 51.9723 130.363 52.1919 129.838 52.4517L128.891 50.4014C129.157 50.2467 129.445 50.1014 129.754 49.9653C130.07 49.8231 130.394 49.6994 130.728 49.5942C131.068 49.4829 131.412 49.3963 131.758 49.3345C132.104 49.2726 132.445 49.2417 132.779 49.2417C133.409 49.2417 133.978 49.319 134.486 49.4736C134.993 49.6221 135.423 49.8416 135.775 50.1323C136.128 50.423 136.397 50.7756 136.582 51.1899C136.774 51.6043 136.87 52.0775 136.87 52.6094C136.87 52.999 136.827 53.3485 136.74 53.6577C136.653 53.9608 136.524 54.2453 136.35 54.5112C136.183 54.771 135.97 55.0246 135.71 55.272C135.457 55.5132 135.16 55.7699 134.82 56.042C134.56 56.2461 134.346 56.4255 134.179 56.5801C134.019 56.7285 133.892 56.8708 133.799 57.0068C133.706 57.1429 133.641 57.2852 133.604 57.4336C133.573 57.5758 133.558 57.7459 133.558 57.9438V58.5005H131.109ZM130.802 61.6733C130.802 61.3826 130.843 61.1383 130.923 60.9404C131.01 60.7363 131.127 60.5724 131.276 60.4487C131.424 60.325 131.597 60.2354 131.795 60.1797C131.999 60.124 132.216 60.0962 132.445 60.0962C132.661 60.0962 132.865 60.124 133.057 60.1797C133.255 60.2354 133.428 60.325 133.576 60.4487C133.725 60.5724 133.842 60.7363 133.929 60.9404C134.016 61.1383 134.059 61.3826 134.059 61.6733C134.059 61.9517 134.016 62.1898 133.929 62.3877C133.842 62.5856 133.725 62.7495 133.576 62.8794C133.428 63.0093 133.255 63.1021 133.057 63.1577C132.865 63.2196 132.661 63.2505 132.445 63.2505C132.216 63.2505 131.999 63.2196 131.795 63.1577C131.597 63.1021 131.424 63.0093 131.276 62.8794C131.127 62.7495 131.01 62.5856 130.923 62.3877C130.843 62.1898 130.802 61.9517 130.802 61.6733Z"></path>
<path stroke-linejoin="round" stroke-miterlimit="10" stroke="#0B233F" fill="#F3F5F8" d="M309.5 15.167C309.5 7.06699 316.067 0.5 324.167 0.5H536.833C544.933 0.5 551.5 7.06699 551.5 15.167V73.833C551.5 81.933 544.933 88.5 536.833 88.5H324.167C316.067 88.5 309.5 81.933 309.5 73.833V15.167Z" clip-rule="evenodd" fill-rule="evenodd"></path>
<path fill="#0B233F" d="M330.709 41L326.237 29.1064H326.163C326.256 30.096 326.302 31.3175 326.302 32.771V41H324.725V27.4365H327.249L331.433 38.5508H331.507L335.765 27.4365H338.27V41H336.582V32.6597C336.582 31.7319 336.625 30.5537 336.711 29.125H336.637L332.11 41H330.709ZM348.021 41L347.696 39.5527H347.622C347.114 40.1898 346.607 40.6227 346.1 40.8516C345.599 41.0742 344.965 41.1855 344.198 41.1855C343.196 41.1855 342.411 40.9227 341.842 40.397C341.273 39.8713 340.988 39.1291 340.988 38.1704C340.988 36.1047 342.618 35.0223 345.877 34.9233L347.603 34.8584V34.2554C347.603 33.4823 347.436 32.9132 347.102 32.5483C346.768 32.1772 346.233 31.9917 345.497 31.9917C344.959 31.9917 344.449 32.0721 343.966 32.2329C343.49 32.3937 343.042 32.5731 342.621 32.771L342.111 31.5186C342.624 31.2464 343.184 31.033 343.79 30.8784C344.396 30.7238 344.996 30.6465 345.59 30.6465C346.821 30.6465 347.736 30.9186 348.336 31.4629C348.936 32.0072 349.236 32.873 349.236 34.0605V41H348.021ZM344.579 39.8403C345.513 39.8403 346.245 39.5898 346.777 39.0889C347.315 38.5817 347.584 37.8643 347.584 36.9365V36.0181L346.082 36.083C344.913 36.1263 344.059 36.3118 343.521 36.6396C342.989 36.9674 342.723 37.4839 342.723 38.189C342.723 38.7209 342.884 39.1291 343.206 39.4136C343.533 39.6981 343.991 39.8403 344.579 39.8403ZM359.339 41V34.4873C359.339 33.6585 359.153 33.0431 358.782 32.6411C358.417 32.2329 357.842 32.0288 357.057 32.0288C356.011 32.0288 355.251 32.3195 354.774 32.9009C354.304 33.4761 354.069 34.4162 354.069 35.7212V41H352.399V30.8135H353.745L353.995 32.2051H354.088C354.403 31.7041 354.846 31.3175 355.415 31.0454C355.984 30.7671 356.611 30.6279 357.298 30.6279C358.547 30.6279 359.475 30.931 360.081 31.5371C360.687 32.1432 360.99 33.0864 360.99 34.3667V41H359.339ZM370.435 41L370.11 39.5527H370.036C369.528 40.1898 369.021 40.6227 368.514 40.8516C368.013 41.0742 367.379 41.1855 366.612 41.1855C365.61 41.1855 364.825 40.9227 364.256 40.397C363.687 39.8713 363.402 39.1291 363.402 38.1704C363.402 36.1047 365.032 35.0223 368.292 34.9233L370.017 34.8584V34.2554C370.017 33.4823 369.85 32.9132 369.516 32.5483C369.182 32.1772 368.647 31.9917 367.911 31.9917C367.373 31.9917 366.863 32.0721 366.38 32.2329C365.904 32.3937 365.456 32.5731 365.035 32.771L364.525 31.5186C365.038 31.2464 365.598 31.033 366.204 30.8784C366.81 30.7238 367.41 30.6465 368.004 30.6465C369.235 30.6465 370.15 30.9186 370.75 31.4629C371.35 32.0072 371.65 32.873 371.65 34.0605V41H370.435ZM366.993 39.8403C367.927 39.8403 368.66 39.5898 369.191 39.0889C369.729 38.5817 369.999 37.8643 369.999 36.9365V36.0181L368.496 36.083C367.327 36.1263 366.473 36.3118 365.935 36.6396C365.403 36.9674 365.137 37.4839 365.137 38.189C365.137 38.7209 365.298 39.1291 365.62 39.4136C365.947 39.6981 366.405 39.8403 366.993 39.8403ZM378.691 39.8218C379.718 39.8218 380.463 39.5465 380.927 38.9961C381.397 38.4395 381.632 37.5488 381.632 36.3242V35.9253C381.632 34.5646 381.397 33.575 380.927 32.9565C380.457 32.3381 379.7 32.0288 378.654 32.0288C377.801 32.0288 377.139 32.369 376.669 33.0493C376.205 33.7235 375.973 34.6883 375.973 35.9438C375.973 37.2056 376.199 38.1673 376.65 38.8291C377.108 39.4909 377.788 39.8218 378.691 39.8218ZM381.614 40.9072L381.669 39.6548H381.595C380.909 40.6753 379.857 41.1855 378.441 41.1855C377.124 41.1855 376.094 40.7279 375.352 39.8125C374.616 38.891 374.248 37.5952 374.248 35.9253C374.248 34.2863 374.619 32.9937 375.361 32.0474C376.109 31.1011 377.13 30.6279 378.422 30.6279C379.802 30.6279 380.865 31.1413 381.614 32.168H381.716L381.938 30.8135H383.265V41.167C383.265 42.6266 382.894 43.7244 382.152 44.4604C381.416 45.1965 380.269 45.5645 378.71 45.5645C377.226 45.5645 376.004 45.348 375.045 44.915V43.375C376.035 43.9069 377.287 44.1729 378.803 44.1729C379.669 44.1729 380.352 43.9193 380.853 43.4121C381.36 42.9049 381.614 42.203 381.614 41.3062V40.9072ZM390.835 41.1855C389.308 41.1855 388.108 40.7248 387.236 39.8032C386.37 38.8755 385.937 37.6014 385.937 35.981C385.937 34.3481 386.342 33.0493 387.152 32.0845C387.963 31.1134 389.057 30.6279 390.437 30.6279C391.717 30.6279 392.737 31.0423 393.498 31.8711C394.259 32.6937 394.639 33.8101 394.639 35.2202V36.2314H387.663C387.694 37.388 387.987 38.2663 388.544 38.8662C389.101 39.4661 389.889 39.7661 390.91 39.7661C391.454 39.7661 391.97 39.7197 392.459 39.627C392.948 39.528 393.52 39.3394 394.175 39.061V40.5269C393.612 40.7681 393.084 40.9382 392.589 41.0371C392.094 41.1361 391.51 41.1855 390.835 41.1855ZM390.418 31.9917C389.62 31.9917 388.989 32.2484 388.525 32.7617C388.062 33.2751 387.786 33.9894 387.7 34.9048H392.886C392.873 33.9523 392.654 33.2287 392.227 32.7339C391.8 32.2391 391.197 31.9917 390.418 31.9917ZM411.079 31.4258C411.079 32.8112 410.605 33.875 409.659 34.6172C408.713 35.3532 407.38 35.7212 405.661 35.7212H404.102V41H402.395V27.4365H405.985C409.381 27.4365 411.079 28.7663 411.079 31.4258ZM404.102 34.2554H405.466C406.814 34.2554 407.791 34.0389 408.397 33.606C409.004 33.1668 409.307 32.4648 409.307 31.5C409.307 30.6279 409.025 29.9754 408.462 29.5425C407.9 29.1095 407.021 28.8931 405.828 28.8931H404.102V34.2554ZM418 41.1855C416.472 41.1855 415.272 40.7248 414.4 39.8032C413.534 38.8755 413.101 37.6014 413.101 35.981C413.101 34.3481 413.506 33.0493 414.316 32.0845C415.127 31.1134 416.221 30.6279 417.601 30.6279C418.881 30.6279 419.901 31.0423 420.662 31.8711C421.423 32.6937 421.803 33.8101 421.803 35.2202V36.2314H414.827C414.858 37.388 415.151 38.2663 415.708 38.8662C416.265 39.4661 417.053 39.7661 418.074 39.7661C418.618 39.7661 419.134 39.7197 419.623 39.627C420.112 39.528 420.684 39.3394 421.339 39.061V40.5269C420.777 40.7681 420.248 40.9382 419.753 41.0371C419.258 41.1361 418.674 41.1855 418 41.1855ZM417.582 31.9917C416.784 31.9917 416.153 32.2484 415.689 32.7617C415.226 33.2751 414.95 33.9894 414.864 34.9048H420.05C420.037 33.9523 419.818 33.2287 419.391 32.7339C418.964 32.2391 418.361 31.9917 417.582 31.9917ZM429.142 30.6279C429.593 30.6279 429.992 30.665 430.338 30.7393L430.134 32.2793C429.757 32.1927 429.389 32.1494 429.03 32.1494C428.492 32.1494 427.991 32.2979 427.527 32.5947C427.07 32.8916 426.711 33.3029 426.451 33.8286C426.191 34.3481 426.062 34.9264 426.062 35.5635V41H424.392V30.8135H425.765L425.95 32.6782H426.024C426.414 32.0041 426.875 31.4938 427.407 31.1475C427.939 30.8011 428.517 30.6279 429.142 30.6279ZM438.874 38.189C438.874 39.1414 438.518 39.8805 437.807 40.4062C437.095 40.9258 436.097 41.1855 434.81 41.1855C433.468 41.1855 432.401 40.9722 431.609 40.5454V39.0239C432.729 39.5682 433.808 39.8403 434.847 39.8403C435.688 39.8403 436.301 39.7043 436.684 39.4321C437.068 39.16 437.259 38.7951 437.259 38.3374C437.259 37.9354 437.074 37.5952 436.703 37.3169C436.338 37.0386 435.685 36.7201 434.745 36.3613C433.786 35.9902 433.112 35.6748 432.723 35.415C432.333 35.1491 432.045 34.8522 431.86 34.5244C431.681 34.1966 431.591 33.7977 431.591 33.3276C431.591 32.4927 431.931 31.834 432.611 31.3516C433.292 30.8691 434.226 30.6279 435.413 30.6279C436.57 30.6279 437.652 30.8568 438.66 31.3145L438.094 32.6411C437.061 32.2082 436.131 31.9917 435.302 31.9917C434.609 31.9917 434.083 32.103 433.725 32.3257C433.366 32.5422 433.187 32.8421 433.187 33.2256C433.187 33.5967 433.341 33.9059 433.65 34.1533C433.96 34.3945 434.68 34.7316 435.812 35.1646C436.659 35.48 437.284 35.7738 437.686 36.0459C438.094 36.318 438.394 36.6242 438.586 36.9644C438.778 37.3045 438.874 37.7127 438.874 38.189ZM450.201 35.8882C450.201 37.5519 449.781 38.8507 448.939 39.7847C448.098 40.7186 446.936 41.1855 445.451 41.1855C444.53 41.1855 443.713 40.9722 443.002 40.5454C442.291 40.1125 441.743 39.494 441.36 38.6899C440.976 37.8859 440.785 36.952 440.785 35.8882C440.785 34.2306 441.199 32.9411 442.028 32.0195C442.857 31.0918 444.019 30.6279 445.516 30.6279C446.951 30.6279 448.089 31.1011 448.93 32.0474C449.778 32.9875 450.201 34.2677 450.201 35.8882ZM442.51 35.8882C442.51 37.1685 442.761 38.1426 443.262 38.8105C443.769 39.4723 444.514 39.8032 445.498 39.8032C446.469 39.8032 447.208 39.4723 447.715 38.8105C448.222 38.1426 448.476 37.1685 448.476 35.8882C448.476 34.6079 448.219 33.6462 447.706 33.0029C447.198 32.3535 446.453 32.0288 445.47 32.0288C443.497 32.0288 442.51 33.3153 442.51 35.8882ZM459.794 41V34.4873C459.794 33.6585 459.608 33.0431 459.237 32.6411C458.872 32.2329 458.297 32.0288 457.512 32.0288C456.466 32.0288 455.706 32.3195 455.229 32.9009C454.759 33.4761 454.524 34.4162 454.524 35.7212V41H452.854V30.8135H454.2L454.45 32.2051H454.543C454.858 31.7041 455.301 31.3175 455.87 31.0454C456.439 30.7671 457.066 30.6279 457.753 30.6279C459.002 30.6279 459.93 30.931 460.536 31.5371C461.142 32.1432 461.445 33.0864 461.445 34.3667V41H459.794ZM470.89 41L470.565 39.5527H470.491C469.984 40.1898 469.476 40.6227 468.969 40.8516C468.468 41.0742 467.834 41.1855 467.067 41.1855C466.065 41.1855 465.28 40.9227 464.711 40.397C464.142 39.8713 463.857 39.1291 463.857 38.1704C463.857 36.1047 465.487 35.0223 468.747 34.9233L470.472 34.8584V34.2554C470.472 33.4823 470.305 32.9132 469.971 32.5483C469.637 32.1772 469.102 31.9917 468.366 31.9917C467.828 31.9917 467.318 32.0721 466.835 32.2329C466.359 32.3937 465.911 32.5731 465.49 32.771L464.98 31.5186C465.493 31.2464 466.053 31.033 466.659 30.8784C467.265 30.7238 467.865 30.6465 468.459 30.6465C469.69 30.6465 470.605 30.9186 471.205 31.4629C471.805 32.0072 472.105 32.873 472.105 34.0605V41H470.89ZM467.448 39.8403C468.382 39.8403 469.115 39.5898 469.646 39.0889C470.185 38.5817 470.454 37.8643 470.454 36.9365V36.0181L468.951 36.083C467.782 36.1263 466.928 36.3118 466.39 36.6396C465.858 36.9674 465.592 37.4839 465.592 38.189C465.592 38.7209 465.753 39.1291 466.075 39.4136C466.403 39.6981 466.86 39.8403 467.448 39.8403ZM476.938 41H475.269V26.5645H476.938V41Z"></path>
<path fill="#0B233F" d="M333.232 63L331.6 58.7974H326.219L324.604 63H322.879L328.176 49.3809H329.716L335.004 63H333.232ZM331.089 57.2852L329.568 53.1753L328.918 51.1436C328.733 51.8857 328.538 52.563 328.334 53.1753L326.794 57.2852H331.089ZM340.729 63.1855C339.263 63.1855 338.122 62.7371 337.305 61.8403C336.489 60.9373 336.081 59.6447 336.081 57.9624C336.081 56.2554 336.492 54.9411 337.314 54.0195C338.143 53.0918 339.321 52.6279 340.849 52.6279C341.344 52.6279 341.833 52.6805 342.315 52.7856C342.804 52.8846 343.206 53.0145 343.521 53.1753L343.011 54.5669C342.151 54.2453 341.418 54.0845 340.812 54.0845C339.785 54.0845 339.028 54.4092 338.539 55.0586C338.05 55.7018 337.806 56.6636 337.806 57.9438C337.806 59.1746 338.05 60.1178 338.539 60.7734C339.028 61.4229 339.751 61.7476 340.71 61.7476C341.607 61.7476 342.488 61.5496 343.354 61.1538V62.6382C342.649 63.0031 341.774 63.1855 340.729 63.1855ZM349.857 63.1855C348.392 63.1855 347.25 62.7371 346.434 61.8403C345.618 60.9373 345.209 59.6447 345.209 57.9624C345.209 56.2554 345.621 54.9411 346.443 54.0195C347.272 53.0918 348.45 52.6279 349.978 52.6279C350.473 52.6279 350.961 52.6805 351.444 52.7856C351.932 52.8846 352.334 53.0145 352.65 53.1753L352.14 54.5669C351.28 54.2453 350.547 54.0845 349.941 54.0845C348.914 54.0845 348.157 54.4092 347.668 55.0586C347.179 55.7018 346.935 56.6636 346.935 57.9438C346.935 59.1746 347.179 60.1178 347.668 60.7734C348.157 61.4229 348.88 61.7476 349.839 61.7476C350.736 61.7476 351.617 61.5496 352.483 61.1538V62.6382C351.778 63.0031 350.903 63.1855 349.857 63.1855ZM363.755 57.8882C363.755 59.5519 363.334 60.8507 362.493 61.7847C361.652 62.7186 360.489 63.1855 359.005 63.1855C358.083 63.1855 357.267 62.9722 356.556 62.5454C355.844 62.1125 355.297 61.494 354.914 60.6899C354.53 59.8859 354.338 58.952 354.338 57.8882C354.338 56.2306 354.753 54.9411 355.582 54.0195C356.41 53.0918 357.573 52.6279 359.07 52.6279C360.505 52.6279 361.643 53.1011 362.484 54.0474C363.331 54.9875 363.755 56.2677 363.755 57.8882ZM356.064 57.8882C356.064 59.1685 356.314 60.1426 356.815 60.8105C357.323 61.4723 358.068 61.8032 359.051 61.8032C360.022 61.8032 360.761 61.4723 361.269 60.8105C361.776 60.1426 362.029 59.1685 362.029 57.8882C362.029 56.6079 361.773 55.6462 361.259 55.0029C360.752 54.3535 360.007 54.0288 359.023 54.0288C357.05 54.0288 356.064 55.3153 356.064 57.8882ZM367.985 52.8135V59.3726C367.985 60.1951 368.168 60.8075 368.533 61.2095C368.904 61.6053 369.476 61.8032 370.249 61.8032C371.294 61.8032 372.055 61.5125 372.531 60.9312C373.007 60.3498 373.246 59.4128 373.246 58.1201V52.8135H374.925V63H373.552L373.311 61.6548H373.227C372.924 62.1434 372.494 62.5207 371.938 62.7866C371.381 63.0526 370.735 63.1855 369.999 63.1855C368.774 63.1855 367.849 62.8918 367.225 62.3042C366.606 61.7166 366.297 60.7765 366.297 59.4839V52.8135H367.985ZM385.093 63V56.4873C385.093 55.6585 384.907 55.0431 384.536 54.6411C384.171 54.2329 383.596 54.0288 382.811 54.0288C381.765 54.0288 381.005 54.3195 380.528 54.9009C380.058 55.4761 379.823 56.4162 379.823 57.7212V63H378.153V52.8135H379.499L379.749 54.2051H379.842C380.157 53.7041 380.599 53.3175 381.168 53.0454C381.737 52.7671 382.365 52.6279 383.052 52.6279C384.301 52.6279 385.229 52.931 385.835 53.5371C386.441 54.1432 386.744 55.0864 386.744 56.3667V63H385.093ZM393.303 61.8218C393.52 61.8218 393.773 61.8001 394.064 61.7568C394.355 61.7135 394.574 61.6641 394.723 61.6084V62.8887C394.568 62.9567 394.327 63.0216 393.999 63.0835C393.677 63.1515 393.35 63.1855 393.016 63.1855C391.024 63.1855 390.028 62.1372 390.028 60.0405V54.1123H388.59V53.3145L390.047 52.6465L390.715 50.4756H391.708V52.8135H394.648V54.1123H391.708V59.9941C391.708 60.5817 391.847 61.0332 392.125 61.3486C392.41 61.6641 392.802 61.8218 393.303 61.8218Z"></path>
<path fill="#E96969" d="M243 42.9995H275.866C276.418 42.9995 276.866 43.4475 276.866 43.9995V44.0625L275.866 43.0625H302.066V45.0625H275.866C275.314 45.0625 274.866 44.6145 274.866 44.0625V43.9995L275.866 44.9995H243V42.9995ZM300.732 40.0625L308.732 44.0625L300.732 48.0625V40.0625Z"></path>
<path stroke-linejoin="round" stroke-miterlimit="10" stroke="#0B233F" fill="#F3F5F8" d="M309.5 123.167C309.5 115.067 316.067 108.5 324.167 108.5H536.833C544.933 108.5 551.5 115.067 551.5 123.167V181.833C551.5 189.933 544.933 196.5 536.833 196.5H324.167C316.067 196.5 309.5 189.933 309.5 181.833V123.167Z" clip-rule="evenodd" fill-rule="evenodd"></path>
<path fill="#0B233F" d="M335.042 135.437V144.213C335.042 145.759 334.575 146.974 333.641 147.859C332.707 148.743 331.411 149.186 329.753 149.186C328.114 149.186 326.843 148.74 325.94 147.85C325.037 146.953 324.586 145.728 324.586 144.176V135.437H326.302V144.231C326.302 145.339 326.596 146.195 327.184 146.801C327.777 147.407 328.668 147.71 329.855 147.71C330.975 147.71 331.835 147.41 332.435 146.811C333.041 146.211 333.344 145.345 333.344 144.213V135.437H335.042ZM345.024 146.189C345.024 147.141 344.668 147.881 343.957 148.406C343.246 148.926 342.247 149.186 340.96 149.186C339.618 149.186 338.551 148.972 337.76 148.545V147.024C338.879 147.568 339.958 147.84 340.998 147.84C341.839 147.84 342.451 147.704 342.834 147.432C343.218 147.16 343.41 146.795 343.41 146.337C343.41 145.935 343.224 145.595 342.853 145.317C342.488 145.039 341.836 144.72 340.896 144.361C339.937 143.99 339.263 143.675 338.873 143.415C338.483 143.149 338.196 142.852 338.01 142.524C337.831 142.197 337.741 141.798 337.741 141.328C337.741 140.493 338.081 139.834 338.762 139.352C339.442 138.869 340.376 138.628 341.563 138.628C342.72 138.628 343.802 138.857 344.811 139.314L344.245 140.641C343.212 140.208 342.281 139.992 341.452 139.992C340.759 139.992 340.234 140.103 339.875 140.326C339.516 140.542 339.337 140.842 339.337 141.226C339.337 141.597 339.492 141.906 339.801 142.153C340.11 142.395 340.831 142.732 341.962 143.165C342.81 143.48 343.434 143.774 343.836 144.046C344.245 144.318 344.545 144.624 344.736 144.964C344.928 145.305 345.024 145.713 345.024 146.189ZM349.171 149H347.501V138.813H349.171V149ZM347.371 136.058C347.371 135.687 347.464 135.418 347.649 135.251C347.841 135.084 348.076 135 348.354 135C348.614 135 348.84 135.084 349.032 135.251C349.23 135.418 349.329 135.687 349.329 136.058C349.329 136.423 349.23 136.692 349.032 136.865C348.84 137.038 348.614 137.125 348.354 137.125C348.076 137.125 347.841 137.038 347.649 136.865C347.464 136.692 347.371 136.423 347.371 136.058ZM359.339 149V142.487C359.339 141.659 359.153 141.043 358.782 140.641C358.417 140.233 357.842 140.029 357.057 140.029C356.011 140.029 355.251 140.319 354.774 140.901C354.304 141.476 354.069 142.416 354.069 143.721V149H352.399V138.813H353.745L353.995 140.205H354.088C354.403 139.704 354.846 139.318 355.415 139.045C355.984 138.767 356.611 138.628 357.298 138.628C358.547 138.628 359.475 138.931 360.081 139.537C360.687 140.143 360.99 141.086 360.99 142.367V149H359.339ZM368.022 147.822C369.049 147.822 369.794 147.547 370.258 146.996C370.728 146.439 370.963 145.549 370.963 144.324V143.925C370.963 142.565 370.728 141.575 370.258 140.957C369.788 140.338 369.031 140.029 367.985 140.029C367.132 140.029 366.47 140.369 366 141.049C365.536 141.723 365.304 142.688 365.304 143.944C365.304 145.206 365.53 146.167 365.981 146.829C366.439 147.491 367.119 147.822 368.022 147.822ZM370.945 148.907L371 147.655H370.926C370.24 148.675 369.188 149.186 367.772 149.186C366.455 149.186 365.425 148.728 364.683 147.812C363.947 146.891 363.579 145.595 363.579 143.925C363.579 142.286 363.95 140.994 364.692 140.047C365.44 139.101 366.461 138.628 367.753 138.628C369.133 138.628 370.196 139.141 370.945 140.168H371.047L371.27 138.813H372.596V149.167C372.596 150.627 372.225 151.724 371.483 152.46C370.747 153.196 369.6 153.564 368.041 153.564C366.557 153.564 365.335 153.348 364.376 152.915V151.375C365.366 151.907 366.618 152.173 368.134 152.173C369 152.173 369.683 151.919 370.184 151.412C370.691 150.905 370.945 150.203 370.945 149.306V148.907ZM385.297 149H383.581V136.939H379.341V135.437H389.509V136.939H385.297V149ZM395.029 149.186C393.501 149.186 392.301 148.725 391.429 147.803C390.563 146.875 390.13 145.601 390.13 143.981C390.13 142.348 390.535 141.049 391.346 140.084C392.156 139.113 393.251 138.628 394.63 138.628C395.91 138.628 396.931 139.042 397.691 139.871C398.452 140.694 398.833 141.81 398.833 143.22V144.231H391.856C391.887 145.388 392.181 146.266 392.737 146.866C393.294 147.466 394.083 147.766 395.103 147.766C395.647 147.766 396.164 147.72 396.652 147.627C397.141 147.528 397.713 147.339 398.369 147.061V148.527C397.806 148.768 397.277 148.938 396.782 149.037C396.287 149.136 395.703 149.186 395.029 149.186ZM394.611 139.992C393.813 139.992 393.183 140.248 392.719 140.762C392.255 141.275 391.98 141.989 391.893 142.905H397.079C397.067 141.952 396.847 141.229 396.42 140.734C395.994 140.239 395.391 139.992 394.611 139.992ZM407.711 149L407.386 147.553H407.312C406.805 148.19 406.298 148.623 405.791 148.852C405.29 149.074 404.656 149.186 403.889 149.186C402.887 149.186 402.101 148.923 401.532 148.397C400.963 147.871 400.679 147.129 400.679 146.17C400.679 144.105 402.308 143.022 405.568 142.923L407.293 142.858V142.255C407.293 141.482 407.126 140.913 406.792 140.548C406.458 140.177 405.924 139.992 405.188 139.992C404.649 139.992 404.139 140.072 403.657 140.233C403.181 140.394 402.732 140.573 402.312 140.771L401.801 139.519C402.315 139.246 402.874 139.033 403.48 138.878C404.087 138.724 404.687 138.646 405.28 138.646C406.511 138.646 407.426 138.919 408.026 139.463C408.626 140.007 408.926 140.873 408.926 142.061V149H407.711ZM404.269 147.84C405.203 147.84 405.936 147.59 406.468 147.089C407.006 146.582 407.275 145.864 407.275 144.937V144.018L405.772 144.083C404.603 144.126 403.75 144.312 403.211 144.64C402.68 144.967 402.414 145.484 402.414 146.189C402.414 146.721 402.574 147.129 402.896 147.414C403.224 147.698 403.681 147.84 404.269 147.84ZM416.172 149.186C414.706 149.186 413.565 148.737 412.749 147.84C411.932 146.937 411.524 145.645 411.524 143.962C411.524 142.255 411.935 140.941 412.758 140.02C413.587 139.092 414.765 138.628 416.292 138.628C416.787 138.628 417.276 138.681 417.758 138.786C418.247 138.885 418.649 139.014 418.964 139.175L418.454 140.567C417.594 140.245 416.861 140.084 416.255 140.084C415.229 140.084 414.471 140.409 413.982 141.059C413.494 141.702 413.25 142.664 413.25 143.944C413.25 145.175 413.494 146.118 413.982 146.773C414.471 147.423 415.195 147.748 416.153 147.748C417.05 147.748 417.931 147.55 418.797 147.154V148.638C418.092 149.003 417.217 149.186 416.172 149.186ZM428.158 149V142.487C428.158 141.659 427.973 141.043 427.602 140.641C427.237 140.233 426.661 140.029 425.876 140.029C424.843 140.029 424.085 140.316 423.603 140.892C423.127 141.467 422.889 142.416 422.889 143.74V149H421.219V134.564H422.889V138.795C422.889 139.352 422.858 139.828 422.796 140.224H422.907C423.21 139.729 423.64 139.342 424.197 139.064C424.753 138.786 425.381 138.646 426.08 138.646C427.317 138.646 428.248 138.943 428.873 139.537C429.497 140.125 429.81 141.068 429.81 142.367V149H428.158ZM437.296 149.186C435.769 149.186 434.569 148.725 433.697 147.803C432.831 146.875 432.398 145.601 432.398 143.981C432.398 142.348 432.803 141.049 433.613 140.084C434.424 139.113 435.518 138.628 436.897 138.628C438.178 138.628 439.198 139.042 439.959 139.871C440.72 140.694 441.1 141.81 441.1 143.22V144.231H434.124C434.154 145.388 434.448 146.266 435.005 146.866C435.562 147.466 436.35 147.766 437.371 147.766C437.915 147.766 438.431 147.72 438.92 147.627C439.409 147.528 439.981 147.339 440.636 147.061V148.527C440.073 148.768 439.545 148.938 439.05 149.037C438.555 149.136 437.971 149.186 437.296 149.186ZM436.879 139.992C436.081 139.992 435.45 140.248 434.986 140.762C434.522 141.275 434.247 141.989 434.161 142.905H439.347C439.334 141.952 439.115 141.229 438.688 140.734C438.261 140.239 437.658 139.992 436.879 139.992ZM448.438 138.628C448.89 138.628 449.289 138.665 449.635 138.739L449.431 140.279C449.054 140.193 448.686 140.149 448.327 140.149C447.789 140.149 447.288 140.298 446.824 140.595C446.367 140.892 446.008 141.303 445.748 141.829C445.488 142.348 445.358 142.926 445.358 143.563V149H443.688V138.813H445.062L445.247 140.678H445.321C445.711 140.004 446.172 139.494 446.704 139.147C447.236 138.801 447.814 138.628 448.438 138.628ZM454.237 135.149L454.367 135.353C454.28 135.693 454.175 136.052 454.051 136.429C453.934 136.8 453.801 137.181 453.652 137.57C453.51 137.954 453.359 138.334 453.198 138.711C453.043 139.089 452.889 139.451 452.734 139.797H451.463C451.549 139.426 451.636 139.036 451.723 138.628C451.815 138.22 451.902 137.812 451.982 137.403C452.069 136.995 452.146 136.599 452.214 136.216C452.282 135.832 452.341 135.477 452.391 135.149H454.237ZM464.089 146.189C464.089 147.141 463.734 147.881 463.022 148.406C462.311 148.926 461.312 149.186 460.026 149.186C458.684 149.186 457.617 148.972 456.825 148.545V147.024C457.945 147.568 459.024 147.84 460.063 147.84C460.904 147.84 461.516 147.704 461.9 147.432C462.283 147.16 462.475 146.795 462.475 146.337C462.475 145.935 462.29 145.595 461.918 145.317C461.554 145.039 460.901 144.72 459.961 144.361C459.002 143.99 458.328 143.675 457.938 143.415C457.549 143.149 457.261 142.852 457.076 142.524C456.896 142.197 456.807 141.798 456.807 141.328C456.807 140.493 457.147 139.834 457.827 139.352C458.507 138.869 459.441 138.628 460.629 138.628C461.785 138.628 462.868 138.857 463.876 139.314L463.31 140.641C462.277 140.208 461.346 139.992 460.518 139.992C459.825 139.992 459.299 140.103 458.94 140.326C458.582 140.542 458.402 140.842 458.402 141.226C458.402 141.597 458.557 141.906 458.866 142.153C459.175 142.395 459.896 142.732 461.028 143.165C461.875 143.48 462.5 143.774 462.902 144.046C463.31 144.318 463.61 144.624 463.802 144.964C463.993 145.305 464.089 145.713 464.089 146.189ZM479.425 145.373C479.425 146.554 478.998 147.485 478.145 148.165C477.291 148.845 476.104 149.186 474.582 149.186C472.974 149.186 471.731 148.972 470.853 148.545V146.913C471.428 147.16 472.056 147.355 472.736 147.497C473.422 147.639 474.062 147.71 474.656 147.71C475.671 147.71 476.434 147.516 476.948 147.126C477.461 146.736 477.718 146.201 477.718 145.521C477.718 145.069 477.625 144.698 477.439 144.408C477.254 144.117 476.942 143.845 476.502 143.591C476.069 143.338 475.411 143.05 474.526 142.729C473.271 142.271 472.374 141.733 471.836 141.114C471.298 140.49 471.029 139.686 471.029 138.702C471.029 137.645 471.425 136.803 472.216 136.179C473.014 135.554 474.062 135.242 475.361 135.242C476.716 135.242 477.962 135.495 479.1 136.002L478.571 137.468C477.409 136.986 476.326 136.745 475.324 136.745C474.52 136.745 473.889 136.918 473.432 137.264C472.98 137.611 472.754 138.096 472.754 138.721C472.754 139.166 472.841 139.537 473.014 139.834C473.194 140.125 473.478 140.391 473.868 140.632C474.264 140.873 474.882 141.148 475.723 141.458C476.731 141.829 477.483 142.19 477.978 142.543C478.472 142.889 478.837 143.291 479.072 143.749C479.307 144.201 479.425 144.742 479.425 145.373ZM485.334 147.822C485.551 147.822 485.805 147.8 486.095 147.757C486.386 147.714 486.605 147.664 486.754 147.608V148.889C486.599 148.957 486.358 149.022 486.03 149.083C485.709 149.152 485.381 149.186 485.047 149.186C483.055 149.186 482.06 148.137 482.06 146.041V140.112H480.622V139.314L482.078 138.646L482.746 136.476H483.739V138.813H486.68V140.112H483.739V145.994C483.739 146.582 483.878 147.033 484.156 147.349C484.441 147.664 484.833 147.822 485.334 147.822ZM490.372 138.813V145.373C490.372 146.195 490.555 146.807 490.919 147.209C491.291 147.605 491.863 147.803 492.636 147.803C493.681 147.803 494.442 147.513 494.918 146.931C495.394 146.35 495.632 145.413 495.632 144.12V138.813H497.312V149H495.938L495.697 147.655H495.614C495.311 148.143 494.881 148.521 494.324 148.787C493.768 149.053 493.121 149.186 492.385 149.186C491.161 149.186 490.236 148.892 489.611 148.304C488.993 147.717 488.684 146.777 488.684 145.484V138.813H490.372ZM504.149 149.186C502.825 149.186 501.799 148.728 501.069 147.812C500.339 146.897 499.974 145.601 499.974 143.925C499.974 142.262 500.339 140.963 501.069 140.029C501.805 139.095 502.838 138.628 504.167 138.628C505.534 138.628 506.586 139.129 507.322 140.131H507.442C507.424 140.007 507.399 139.76 507.368 139.389C507.337 139.011 507.322 138.758 507.322 138.628V134.564H508.992V149H507.646L507.396 147.636H507.322C506.611 148.669 505.553 149.186 504.149 149.186ZM504.418 147.803C505.432 147.803 506.171 147.528 506.635 146.978C507.105 146.421 507.34 145.512 507.34 144.25V143.944C507.34 142.528 507.102 141.519 506.626 140.919C506.156 140.313 505.414 140.01 504.399 140.01C503.54 140.01 502.875 140.354 502.405 141.04C501.935 141.72 501.7 142.694 501.7 143.962C501.7 145.224 501.932 146.18 502.396 146.829C502.866 147.479 503.54 147.803 504.418 147.803ZM516.562 149.186C515.034 149.186 513.834 148.725 512.962 147.803C512.097 146.875 511.664 145.601 511.664 143.981C511.664 142.348 512.069 141.049 512.879 140.084C513.689 139.113 514.784 138.628 516.163 138.628C517.443 138.628 518.464 139.042 519.225 139.871C519.985 140.694 520.366 141.81 520.366 143.22V144.231H513.389C513.42 145.388 513.714 146.266 514.271 146.866C514.827 147.466 515.616 147.766 516.636 147.766C517.181 147.766 517.697 147.72 518.186 147.627C518.674 147.528 519.246 147.339 519.902 147.061V148.527C519.339 148.768 518.81 148.938 518.315 149.037C517.821 149.136 517.236 149.186 516.562 149.186ZM516.145 139.992C515.347 139.992 514.716 140.248 514.252 140.762C513.788 141.275 513.513 141.989 513.426 142.905H518.612C518.6 141.952 518.38 141.229 517.954 140.734C517.527 140.239 516.924 139.992 516.145 139.992ZM529.894 149V142.487C529.894 141.659 529.708 141.043 529.337 140.641C528.972 140.233 528.397 140.029 527.611 140.029C526.566 140.029 525.805 140.319 525.329 140.901C524.859 141.476 524.624 142.416 524.624 143.721V149H522.954V138.813H524.299L524.55 140.205H524.643C524.958 139.704 525.4 139.318 525.969 139.045C526.538 138.767 527.166 138.628 527.853 138.628C529.102 138.628 530.03 138.931 530.636 139.537C531.242 140.143 531.545 141.086 531.545 142.367V149H529.894ZM538.104 147.822C538.32 147.822 538.574 147.8 538.865 147.757C539.155 147.714 539.375 147.664 539.523 147.608V148.889C539.369 148.957 539.128 149.022 538.8 149.083C538.478 149.152 538.15 149.186 537.816 149.186C535.825 149.186 534.829 148.137 534.829 146.041V140.112H533.391V139.314L534.848 138.646L535.516 136.476H536.508V138.813H539.449V140.112H536.508V145.994C536.508 146.582 536.647 147.033 536.926 147.349C537.21 147.664 537.603 147.822 538.104 147.822Z"></path>
<path fill="#0B233F" d="M333.232 171L331.6 166.797H326.219L324.604 171H322.879L328.176 157.381H329.716L335.004 171H333.232ZM331.089 165.285L329.568 161.175L328.918 159.144C328.733 159.886 328.538 160.563 328.334 161.175L326.794 165.285H331.089ZM340.729 171.186C339.263 171.186 338.122 170.737 337.305 169.84C336.489 168.937 336.081 167.645 336.081 165.962C336.081 164.255 336.492 162.941 337.314 162.02C338.143 161.092 339.321 160.628 340.849 160.628C341.344 160.628 341.833 160.681 342.315 160.786C342.804 160.885 343.206 161.014 343.521 161.175L343.011 162.567C342.151 162.245 341.418 162.084 340.812 162.084C339.785 162.084 339.028 162.409 338.539 163.059C338.05 163.702 337.806 164.664 337.806 165.944C337.806 167.175 338.05 168.118 338.539 168.773C339.028 169.423 339.751 169.748 340.71 169.748C341.607 169.748 342.488 169.55 343.354 169.154V170.638C342.649 171.003 341.774 171.186 340.729 171.186ZM349.857 171.186C348.392 171.186 347.25 170.737 346.434 169.84C345.618 168.937 345.209 167.645 345.209 165.962C345.209 164.255 345.621 162.941 346.443 162.02C347.272 161.092 348.45 160.628 349.978 160.628C350.473 160.628 350.961 160.681 351.444 160.786C351.932 160.885 352.334 161.014 352.65 161.175L352.14 162.567C351.28 162.245 350.547 162.084 349.941 162.084C348.914 162.084 348.157 162.409 347.668 163.059C347.179 163.702 346.935 164.664 346.935 165.944C346.935 167.175 347.179 168.118 347.668 168.773C348.157 169.423 348.88 169.748 349.839 169.748C350.736 169.748 351.617 169.55 352.483 169.154V170.638C351.778 171.003 350.903 171.186 349.857 171.186ZM363.755 165.888C363.755 167.552 363.334 168.851 362.493 169.785C361.652 170.719 360.489 171.186 359.005 171.186C358.083 171.186 357.267 170.972 356.556 170.545C355.844 170.112 355.297 169.494 354.914 168.69C354.53 167.886 354.338 166.952 354.338 165.888C354.338 164.231 354.753 162.941 355.582 162.02C356.41 161.092 357.573 160.628 359.07 160.628C360.505 160.628 361.643 161.101 362.484 162.047C363.331 162.987 363.755 164.268 363.755 165.888ZM356.064 165.888C356.064 167.168 356.314 168.143 356.815 168.811C357.323 169.472 358.068 169.803 359.051 169.803C360.022 169.803 360.761 169.472 361.269 168.811C361.776 168.143 362.029 167.168 362.029 165.888C362.029 164.608 361.773 163.646 361.259 163.003C360.752 162.354 360.007 162.029 359.023 162.029C357.05 162.029 356.064 163.315 356.064 165.888ZM367.985 160.813V167.373C367.985 168.195 368.168 168.807 368.533 169.209C368.904 169.605 369.476 169.803 370.249 169.803C371.294 169.803 372.055 169.513 372.531 168.931C373.007 168.35 373.246 167.413 373.246 166.12V160.813H374.925V171H373.552L373.311 169.655H373.227C372.924 170.143 372.494 170.521 371.938 170.787C371.381 171.053 370.735 171.186 369.999 171.186C368.774 171.186 367.849 170.892 367.225 170.304C366.606 169.717 366.297 168.777 366.297 167.484V160.813H367.985ZM385.093 171V164.487C385.093 163.659 384.907 163.043 384.536 162.641C384.171 162.233 383.596 162.029 382.811 162.029C381.765 162.029 381.005 162.319 380.528 162.901C380.058 163.476 379.823 164.416 379.823 165.721V171H378.153V160.813H379.499L379.749 162.205H379.842C380.157 161.704 380.599 161.318 381.168 161.045C381.737 160.767 382.365 160.628 383.052 160.628C384.301 160.628 385.229 160.931 385.835 161.537C386.441 162.143 386.744 163.086 386.744 164.367V171H385.093ZM393.303 169.822C393.52 169.822 393.773 169.8 394.064 169.757C394.355 169.714 394.574 169.664 394.723 169.608V170.889C394.568 170.957 394.327 171.022 393.999 171.083C393.677 171.152 393.35 171.186 393.016 171.186C391.024 171.186 390.028 170.137 390.028 168.041V162.112H388.59V161.314L390.047 160.646L390.715 158.476H391.708V160.813H394.648V162.112H391.708V167.994C391.708 168.582 391.847 169.033 392.125 169.349C392.41 169.664 392.802 169.822 393.303 169.822Z"></path>
<path fill="#E96969" d="M243 43H275.866C276.418 43 276.866 43.448 276.866 44V152.126L275.866 151.126H302.066V153.126H275.866C275.314 153.126 274.866 152.678 274.866 152.126V44L275.866 45H243V43ZM300.732 148.126L308.732 152.126L300.732 156.126V148.126Z"></path>
<path stroke-linejoin="round" stroke-miterlimit="10" stroke="#0B233F" fill="#0B233F" d="M0.5 231.167C0.5 223.067 7.0665 216.5 15.1668 216.5H227.833C235.933 216.5 242.5 223.067 242.5 231.167V289.833C242.5 297.933 235.933 304.5 227.833 304.5H15.1668C7.0665 304.5 0.5 297.933 0.5 289.833V231.167Z" clip-rule="evenodd" fill-rule="evenodd"></path>
<path fill="white" d="M27.1094 257H24.2427V251.146H18.8711V257H15.9951V243.437H18.8711V248.752H24.2427V243.437H27.1094V257ZM32.5737 251.795C32.5737 252.822 32.7407 253.598 33.0747 254.124C33.4149 254.65 33.9653 254.913 34.7261 254.913C35.4806 254.913 36.0218 254.653 36.3496 254.133C36.6836 253.608 36.8506 252.828 36.8506 251.795C36.8506 250.769 36.6836 249.999 36.3496 249.485C36.0156 248.972 35.4683 248.715 34.7075 248.715C33.953 248.715 33.4087 248.972 33.0747 249.485C32.7407 249.993 32.5737 250.763 32.5737 251.795ZM39.7451 251.795C39.7451 253.484 39.2998 254.804 38.4092 255.757C37.5186 256.709 36.2785 257.186 34.689 257.186C33.6932 257.186 32.8149 256.969 32.0542 256.536C31.2935 256.097 30.709 255.469 30.3008 254.653C29.8926 253.836 29.6885 252.884 29.6885 251.795C29.6885 250.101 30.1307 248.783 31.0151 247.843C31.8996 246.903 33.1427 246.433 34.7446 246.433C35.7404 246.433 36.6187 246.65 37.3794 247.083C38.1401 247.515 38.7246 248.137 39.1328 248.947C39.541 249.757 39.7451 250.707 39.7451 251.795ZM50.4233 257L49.6255 253.373L48.5679 248.79H48.4844L46.5918 257H43.5488L40.5986 246.628H43.4189L44.6157 251.22C44.7518 251.764 44.9404 252.899 45.1816 254.625H45.2559C45.2806 254.155 45.3888 253.41 45.5806 252.389L45.729 251.601L47.0093 246.628H50.1265L51.3418 251.601C51.416 251.941 51.5057 252.442 51.6108 253.104C51.7222 253.759 51.784 254.266 51.7964 254.625H51.8706C51.9386 254.075 52.0345 253.45 52.1582 252.751C52.2819 252.046 52.387 251.536 52.4736 251.22L53.7168 246.628H56.4907L53.5034 257H50.4233ZM67.4751 254.931C67.9699 254.931 68.5636 254.823 69.2563 254.606V256.712C68.5513 257.028 67.6854 257.186 66.6587 257.186C65.5269 257.186 64.7012 256.901 64.1816 256.332C63.6683 255.757 63.4116 254.897 63.4116 253.753V248.752H62.0571V247.556L63.6157 246.609L64.4321 244.42H66.2412V246.628H69.145V248.752H66.2412V253.753C66.2412 254.155 66.3525 254.452 66.5752 254.644C66.804 254.835 67.104 254.931 67.4751 254.931ZM73.6167 251.795C73.6167 252.822 73.7837 253.598 74.1177 254.124C74.4578 254.65 75.0083 254.913 75.769 254.913C76.5236 254.913 77.0648 254.653 77.3926 254.133C77.7266 253.608 77.8936 252.828 77.8936 251.795C77.8936 250.769 77.7266 249.999 77.3926 249.485C77.0586 248.972 76.5112 248.715 75.7505 248.715C74.9959 248.715 74.4517 248.972 74.1177 249.485C73.7837 249.993 73.6167 250.763 73.6167 251.795ZM80.7881 251.795C80.7881 253.484 80.3428 254.804 79.4521 255.757C78.5615 256.709 77.3215 257.186 75.7319 257.186C74.7362 257.186 73.8579 256.969 73.0972 256.536C72.3364 256.097 71.752 255.469 71.3438 254.653C70.9355 253.836 70.7314 252.884 70.7314 251.795C70.7314 250.101 71.1737 248.783 72.0581 247.843C72.9425 246.903 74.1857 246.433 75.7876 246.433C76.7834 246.433 77.6616 246.65 78.4224 247.083C79.1831 247.515 79.7676 248.137 80.1758 248.947C80.584 249.757 80.7881 250.707 80.7881 251.795ZM92.2734 257.186C89.0449 257.186 87.4307 255.414 87.4307 251.87C87.4307 250.107 87.8698 248.762 88.748 247.834C89.6263 246.9 90.8849 246.433 92.5239 246.433C93.7238 246.433 94.8 246.668 95.7524 247.138L94.9175 249.328C94.4722 249.148 94.0578 249.003 93.6743 248.892C93.2909 248.774 92.9074 248.715 92.5239 248.715C91.0519 248.715 90.3159 249.761 90.3159 251.851C90.3159 253.88 91.0519 254.894 92.5239 254.894C93.0682 254.894 93.5723 254.823 94.0361 254.681C94.5 254.532 94.9639 254.303 95.4277 253.994V256.416C94.9701 256.706 94.5062 256.907 94.0361 257.019C93.5723 257.13 92.9847 257.186 92.2734 257.186ZM103.629 246.433C104.012 246.433 104.331 246.461 104.584 246.517L104.371 249.17C104.142 249.108 103.864 249.077 103.536 249.077C102.633 249.077 101.928 249.309 101.421 249.773C100.92 250.237 100.669 250.886 100.669 251.721V257H97.8398V246.628H99.9829L100.4 248.372H100.54C100.861 247.791 101.294 247.324 101.838 246.971C102.389 246.612 102.986 246.433 103.629 246.433ZM110.578 248.446C109.978 248.446 109.508 248.638 109.167 249.021C108.827 249.399 108.632 249.937 108.583 250.636H112.554C112.541 249.937 112.359 249.399 112.006 249.021C111.654 248.638 111.178 248.446 110.578 248.446ZM110.977 257.186C109.307 257.186 108.002 256.725 107.062 255.803C106.121 254.882 105.651 253.577 105.651 251.888C105.651 250.15 106.084 248.808 106.95 247.862C107.822 246.909 109.025 246.433 110.559 246.433C112.025 246.433 113.166 246.851 113.982 247.686C114.799 248.521 115.207 249.674 115.207 251.146V252.519H108.518C108.549 253.323 108.787 253.951 109.232 254.402C109.678 254.854 110.302 255.08 111.106 255.08C111.731 255.08 112.322 255.015 112.878 254.885C113.435 254.755 114.016 254.548 114.623 254.263V256.453C114.128 256.7 113.599 256.882 113.036 257C112.473 257.124 111.787 257.186 110.977 257.186ZM124.095 257L123.547 255.59H123.473C122.997 256.19 122.505 256.607 121.998 256.842C121.497 257.071 120.841 257.186 120.031 257.186C119.035 257.186 118.25 256.901 117.675 256.332C117.106 255.763 116.821 254.953 116.821 253.901C116.821 252.8 117.205 251.99 117.972 251.471C118.745 250.945 119.908 250.654 121.46 250.599L123.26 250.543V250.088C123.26 249.037 122.722 248.511 121.646 248.511C120.817 248.511 119.843 248.762 118.723 249.263L117.786 247.352C118.98 246.727 120.303 246.415 121.757 246.415C123.148 246.415 124.215 246.718 124.958 247.324C125.7 247.93 126.071 248.851 126.071 250.088V257H124.095ZM123.26 252.194L122.165 252.231C121.342 252.256 120.73 252.405 120.328 252.677C119.926 252.949 119.725 253.363 119.725 253.92C119.725 254.718 120.183 255.117 121.098 255.117C121.754 255.117 122.276 254.928 122.666 254.551C123.062 254.174 123.26 253.673 123.26 253.048V252.194ZM133.363 254.931C133.858 254.931 134.451 254.823 135.144 254.606V256.712C134.439 257.028 133.573 257.186 132.546 257.186C131.415 257.186 130.589 256.901 130.069 256.332C129.556 255.757 129.299 254.897 129.299 253.753V248.752H127.945V247.556L129.503 246.609L130.32 244.42H132.129V246.628H135.033V248.752H132.129V253.753C132.129 254.155 132.24 254.452 132.463 254.644C132.692 254.835 132.992 254.931 133.363 254.931ZM141.545 248.446C140.945 248.446 140.475 248.638 140.135 249.021C139.795 249.399 139.6 249.937 139.551 250.636H143.521C143.509 249.937 143.327 249.399 142.974 249.021C142.622 248.638 142.145 248.446 141.545 248.446ZM141.944 257.186C140.274 257.186 138.969 256.725 138.029 255.803C137.089 254.882 136.619 253.577 136.619 251.888C136.619 250.15 137.052 248.808 137.918 247.862C138.79 246.909 139.993 246.433 141.527 246.433C142.993 246.433 144.134 246.851 144.95 247.686C145.767 248.521 146.175 249.674 146.175 251.146V252.519H139.486C139.517 253.323 139.755 253.951 140.2 254.402C140.646 254.854 141.27 255.08 142.074 255.08C142.699 255.08 143.29 255.015 143.846 254.885C144.403 254.755 144.984 254.548 145.59 254.263V256.453C145.096 256.7 144.567 256.882 144.004 257C143.441 257.124 142.755 257.186 141.944 257.186ZM162.698 257H159.868V250.942C159.868 250.194 159.741 249.634 159.488 249.263C159.24 248.885 158.848 248.697 158.31 248.697C157.586 248.697 157.06 248.963 156.732 249.495C156.405 250.027 156.241 250.902 156.241 252.12V257H153.411V246.628H155.573L155.953 247.955H156.111C156.389 247.478 156.791 247.107 157.317 246.841C157.843 246.569 158.446 246.433 159.126 246.433C160.678 246.433 161.73 246.94 162.28 247.955H162.531C162.809 247.472 163.217 247.098 163.755 246.832C164.3 246.566 164.912 246.433 165.592 246.433C166.767 246.433 167.655 246.736 168.255 247.342C168.861 247.942 169.164 248.907 169.164 250.237V257H166.325V250.942C166.325 250.194 166.198 249.634 165.945 249.263C165.697 248.885 165.305 248.697 164.767 248.697C164.074 248.697 163.554 248.944 163.208 249.439C162.868 249.934 162.698 250.719 162.698 251.795V257ZM170.593 246.628H173.691L175.649 252.463C175.816 252.971 175.93 253.57 175.992 254.263H176.048C176.116 253.626 176.249 253.026 176.447 252.463L178.367 246.628H181.401L177.013 258.327C176.611 259.409 176.035 260.219 175.287 260.757C174.545 261.295 173.676 261.564 172.68 261.564C172.192 261.564 171.712 261.512 171.242 261.407V259.162C171.582 259.242 171.953 259.282 172.355 259.282C172.856 259.282 173.292 259.128 173.664 258.818C174.041 258.515 174.335 258.055 174.545 257.436L174.712 256.926L170.593 246.628ZM190.084 251.795C190.084 252.822 190.251 253.598 190.585 254.124C190.926 254.65 191.476 254.913 192.237 254.913C192.991 254.913 193.533 254.653 193.86 254.133C194.194 253.608 194.361 252.828 194.361 251.795C194.361 250.769 194.194 249.999 193.86 249.485C193.526 248.972 192.979 248.715 192.218 248.715C191.464 248.715 190.919 248.972 190.585 249.485C190.251 249.993 190.084 250.763 190.084 251.795ZM197.256 251.795C197.256 253.484 196.811 254.804 195.92 255.757C195.029 256.709 193.789 257.186 192.2 257.186C191.204 257.186 190.326 256.969 189.565 256.536C188.804 256.097 188.22 255.469 187.812 254.653C187.403 253.836 187.199 252.884 187.199 251.795C187.199 250.101 187.641 248.783 188.526 247.843C189.41 246.903 190.653 246.433 192.255 246.433C193.251 246.433 194.129 246.65 194.89 247.083C195.651 247.515 196.235 248.137 196.644 248.947C197.052 249.757 197.256 250.707 197.256 251.795ZM207.934 257L207.136 253.373L206.079 248.79H205.995L204.103 257H201.06L198.109 246.628H200.93L202.126 251.22C202.263 251.764 202.451 252.899 202.692 254.625H202.767C202.791 254.155 202.9 253.41 203.091 252.389L203.24 251.601L204.52 246.628H207.637L208.853 251.601C208.927 251.941 209.016 252.442 209.122 253.104C209.233 253.759 209.295 254.266 209.307 254.625H209.381C209.449 254.075 209.545 253.45 209.669 252.751C209.793 252.046 209.898 251.536 209.984 251.22L211.228 246.628H214.001L211.014 257H207.934ZM225.255 257H222.425V250.942C222.425 250.194 222.292 249.634 222.026 249.263C221.76 248.885 221.337 248.697 220.755 248.697C219.964 248.697 219.392 248.963 219.039 249.495C218.687 250.02 218.51 250.896 218.51 252.12V257H215.681V246.628H217.842L218.223 247.955H218.38C218.696 247.454 219.129 247.076 219.679 246.823C220.236 246.563 220.867 246.433 221.572 246.433C222.778 246.433 223.693 246.761 224.318 247.417C224.943 248.066 225.255 249.006 225.255 250.237V257Z"></path>
<path fill="white" d="M21.7378 279L18.4722 268.359H18.3887C18.5062 270.524 18.5649 271.968 18.5649 272.691V279H15.9951V265.437H19.9102L23.1201 275.809H23.1758L26.5806 265.437H30.4956V279H27.8145V272.58C27.8145 272.277 27.8175 271.928 27.8237 271.532C27.8361 271.136 27.8794 270.084 27.9536 268.377H27.8701L24.3726 279H21.7378ZM35.9507 273.795C35.9507 274.822 36.1177 275.598 36.4517 276.124C36.7918 276.65 37.3423 276.913 38.103 276.913C38.8576 276.913 39.3988 276.653 39.7266 276.133C40.0605 275.608 40.2275 274.828 40.2275 273.795C40.2275 272.769 40.0605 271.999 39.7266 271.485C39.3926 270.972 38.8452 270.715 38.0845 270.715C37.3299 270.715 36.7856 270.972 36.4517 271.485C36.1177 271.993 35.9507 272.763 35.9507 273.795ZM43.1221 273.795C43.1221 275.484 42.6768 276.804 41.7861 277.757C40.8955 278.709 39.6554 279.186 38.0659 279.186C37.0701 279.186 36.1919 278.969 35.4312 278.536C34.6704 278.097 34.0859 277.469 33.6777 276.653C33.2695 275.836 33.0654 274.884 33.0654 273.795C33.0654 272.101 33.5076 270.783 34.3921 269.843C35.2765 268.903 36.5197 268.433 38.1216 268.433C39.1174 268.433 39.9956 268.65 40.7563 269.083C41.5171 269.515 42.1016 270.137 42.5098 270.947C42.918 271.757 43.1221 272.707 43.1221 273.795ZM48.7441 279.186C47.5257 279.186 46.5671 278.712 45.8682 277.766C45.1755 276.82 44.8291 275.509 44.8291 273.833C44.8291 272.132 45.1816 270.808 45.8867 269.862C46.598 268.909 47.5752 268.433 48.8184 268.433C50.1234 268.433 51.1191 268.94 51.8057 269.955H51.8984C51.7562 269.181 51.6851 268.492 51.6851 267.886V264.564H54.5239V279H52.353L51.8057 277.655H51.6851C51.0418 278.675 50.0615 279.186 48.7441 279.186ZM49.7368 276.931C50.4604 276.931 50.9893 276.721 51.3232 276.3C51.6634 275.88 51.849 275.165 51.8799 274.157V273.851C51.8799 272.738 51.7067 271.94 51.3604 271.458C51.0202 270.975 50.4635 270.734 49.6904 270.734C49.0596 270.734 48.5679 271.003 48.2153 271.541C47.869 272.073 47.6958 272.849 47.6958 273.87C47.6958 274.89 47.8721 275.657 48.2246 276.17C48.5771 276.678 49.0812 276.931 49.7368 276.931ZM64.8311 279L64.4507 277.673H64.3022C63.9992 278.156 63.5693 278.53 63.0127 278.796C62.4561 279.056 61.8221 279.186 61.1108 279.186C59.8924 279.186 58.974 278.861 58.3555 278.211C57.737 277.556 57.4277 276.616 57.4277 275.391V268.628H60.2573V274.686C60.2573 275.434 60.3903 275.997 60.6562 276.375C60.9222 276.746 61.3459 276.931 61.9272 276.931C62.7189 276.931 63.291 276.668 63.6436 276.143C63.9961 275.611 64.1724 274.732 64.1724 273.508V268.628H67.002V279H64.8311ZM72.8003 279H69.9707V264.564H72.8003V279ZM80.0737 270.446C79.4738 270.446 79.0037 270.638 78.6636 271.021C78.3234 271.399 78.1286 271.937 78.0791 272.636H82.0498C82.0374 271.937 81.855 271.399 81.5024 271.021C81.1499 270.638 80.6737 270.446 80.0737 270.446ZM80.4727 279.186C78.8027 279.186 77.4977 278.725 76.5576 277.803C75.6175 276.882 75.1475 275.577 75.1475 273.888C75.1475 272.15 75.5804 270.808 76.4463 269.862C77.3184 268.909 78.5213 268.433 80.0552 268.433C81.521 268.433 82.6621 268.851 83.4785 269.686C84.2949 270.521 84.7031 271.674 84.7031 273.146V274.519H78.0142C78.0451 275.323 78.2832 275.951 78.7285 276.402C79.1738 276.854 79.7985 277.08 80.6025 277.08C81.2272 277.08 81.8179 277.015 82.3745 276.885C82.9312 276.755 83.5125 276.548 84.1187 276.263V278.453C83.6239 278.7 83.0951 278.882 82.5322 279C81.9694 279.124 81.2829 279.186 80.4727 279.186ZM97.3945 279H94.5186V267.83H90.8354V265.437H101.078V267.83H97.3945V279ZM106.588 270.446C105.988 270.446 105.518 270.638 105.178 271.021C104.838 271.399 104.643 271.937 104.594 272.636H108.564C108.552 271.937 108.37 271.399 108.017 271.021C107.665 270.638 107.188 270.446 106.588 270.446ZM106.987 279.186C105.317 279.186 104.012 278.725 103.072 277.803C102.132 276.882 101.662 275.577 101.662 273.888C101.662 272.15 102.095 270.808 102.961 269.862C103.833 268.909 105.036 268.433 106.57 268.433C108.036 268.433 109.177 268.851 109.993 269.686C110.81 270.521 111.218 271.674 111.218 273.146V274.519H104.529C104.56 275.323 104.798 275.951 105.243 276.402C105.688 276.854 106.313 277.08 107.117 277.08C107.742 277.08 108.333 277.015 108.889 276.885C109.446 276.755 110.027 276.548 110.633 276.263V278.453C110.139 278.7 109.61 278.882 109.047 279C108.484 279.124 107.798 279.186 106.987 279.186ZM122.805 279H119.976V272.942C119.976 272.194 119.849 271.634 119.595 271.263C119.348 270.885 118.955 270.697 118.417 270.697C117.693 270.697 117.168 270.963 116.84 271.495C116.512 272.027 116.348 272.902 116.348 274.12V279H113.519V268.628H115.68L116.061 269.955H116.218C116.497 269.478 116.899 269.107 117.424 268.841C117.95 268.569 118.553 268.433 119.233 268.433C120.786 268.433 121.837 268.94 122.388 269.955H122.638C122.917 269.472 123.325 269.098 123.863 268.832C124.407 268.566 125.019 268.433 125.7 268.433C126.875 268.433 127.762 268.736 128.362 269.342C128.968 269.942 129.271 270.907 129.271 272.237V279H126.433V272.942C126.433 272.194 126.306 271.634 126.052 271.263C125.805 270.885 125.412 270.697 124.874 270.697C124.181 270.697 123.662 270.944 123.315 271.439C122.975 271.934 122.805 272.719 122.805 273.795V279ZM137.881 279.186C136.662 279.186 135.707 278.743 135.014 277.859H134.866C134.965 278.725 135.014 279.226 135.014 279.362V283.564H132.185V268.628H134.485L134.884 269.973H135.014C135.676 268.946 136.656 268.433 137.955 268.433C139.18 268.433 140.138 268.906 140.831 269.853C141.524 270.799 141.87 272.113 141.87 273.795C141.87 274.903 141.706 275.864 141.378 276.681C141.057 277.497 140.596 278.119 139.996 278.545C139.396 278.972 138.691 279.186 137.881 279.186ZM137.046 270.697C136.347 270.697 135.837 270.913 135.515 271.346C135.194 271.773 135.027 272.481 135.014 273.471V273.777C135.014 274.89 135.178 275.688 135.506 276.17C135.84 276.653 136.366 276.894 137.083 276.894C138.351 276.894 138.985 275.849 138.985 273.758C138.985 272.738 138.827 271.974 138.512 271.467C138.202 270.953 137.714 270.697 137.046 270.697ZM147.038 279H144.208V264.564H147.038V279ZM156.603 279L156.055 277.59H155.981C155.505 278.19 155.013 278.607 154.506 278.842C154.005 279.071 153.349 279.186 152.539 279.186C151.543 279.186 150.758 278.901 150.183 278.332C149.614 277.763 149.329 276.953 149.329 275.901C149.329 274.8 149.713 273.99 150.479 273.471C151.253 272.945 152.415 272.654 153.968 272.599L155.768 272.543V272.088C155.768 271.037 155.229 270.511 154.153 270.511C153.325 270.511 152.35 270.762 151.231 271.263L150.294 269.352C151.488 268.727 152.811 268.415 154.265 268.415C155.656 268.415 156.723 268.718 157.465 269.324C158.208 269.93 158.579 270.851 158.579 272.088V279H156.603ZM155.768 274.194L154.673 274.231C153.85 274.256 153.238 274.405 152.836 274.677C152.434 274.949 152.233 275.363 152.233 275.92C152.233 276.718 152.691 277.117 153.606 277.117C154.262 277.117 154.784 276.928 155.174 276.551C155.57 276.174 155.768 275.673 155.768 275.048V274.194ZM165.871 276.931C166.365 276.931 166.959 276.823 167.652 276.606V278.712C166.947 279.028 166.081 279.186 165.054 279.186C163.922 279.186 163.097 278.901 162.577 278.332C162.064 277.757 161.807 276.897 161.807 275.753V270.752H160.453V269.556L162.011 268.609L162.828 266.42H164.637V268.628H167.541V270.752H164.637V275.753C164.637 276.155 164.748 276.452 164.971 276.644C165.2 276.835 165.5 276.931 165.871 276.931ZM174.053 270.446C173.453 270.446 172.983 270.638 172.643 271.021C172.303 271.399 172.108 271.937 172.059 272.636H176.029C176.017 271.937 175.834 271.399 175.482 271.021C175.129 270.638 174.653 270.446 174.053 270.446ZM174.452 279.186C172.782 279.186 171.477 278.725 170.537 277.803C169.597 276.882 169.127 275.577 169.127 273.888C169.127 272.15 169.56 270.808 170.426 269.862C171.298 268.909 172.501 268.433 174.035 268.433C175.5 268.433 176.642 268.851 177.458 269.686C178.274 270.521 178.683 271.674 178.683 273.146V274.519H171.994C172.025 275.323 172.263 275.951 172.708 276.402C173.153 276.854 173.778 277.08 174.582 277.08C175.207 277.08 175.797 277.015 176.354 276.885C176.911 276.755 177.492 276.548 178.098 276.263V278.453C177.603 278.7 177.075 278.882 176.512 279C175.949 279.124 175.262 279.186 174.452 279.186ZM188.22 275.92C188.22 276.984 187.849 277.794 187.106 278.351C186.37 278.907 185.266 279.186 183.794 279.186C183.04 279.186 182.397 279.133 181.865 279.028C181.333 278.929 180.835 278.78 180.371 278.583V276.245C180.897 276.492 181.487 276.699 182.143 276.866C182.805 277.033 183.386 277.117 183.887 277.117C184.914 277.117 185.427 276.82 185.427 276.226C185.427 276.003 185.359 275.824 185.223 275.688C185.087 275.546 184.852 275.388 184.518 275.215C184.184 275.035 183.739 274.828 183.182 274.593C182.384 274.259 181.797 273.95 181.419 273.666C181.048 273.381 180.776 273.056 180.603 272.691C180.436 272.32 180.353 271.866 180.353 271.328C180.353 270.406 180.708 269.695 181.419 269.194C182.137 268.687 183.151 268.433 184.462 268.433C185.712 268.433 186.927 268.705 188.108 269.25L187.255 271.291C186.735 271.068 186.25 270.885 185.798 270.743C185.347 270.601 184.886 270.53 184.416 270.53C183.581 270.53 183.164 270.756 183.164 271.207C183.164 271.461 183.297 271.68 183.562 271.866C183.835 272.051 184.425 272.326 185.334 272.691C186.145 273.019 186.738 273.325 187.116 273.61C187.493 273.894 187.771 274.222 187.951 274.593C188.13 274.964 188.22 275.407 188.22 275.92ZM192.339 274.5V273.814C192.339 273.499 192.37 273.214 192.432 272.96C192.5 272.701 192.599 272.456 192.729 272.228C192.865 271.993 193.038 271.767 193.248 271.55C193.458 271.328 193.712 271.099 194.009 270.864C194.269 270.66 194.488 270.477 194.667 270.316C194.847 270.156 194.992 269.998 195.104 269.843C195.215 269.682 195.295 269.515 195.345 269.342C195.394 269.169 195.419 268.968 195.419 268.739C195.419 268.387 195.298 268.096 195.057 267.867C194.822 267.638 194.46 267.524 193.972 267.524C193.545 267.524 193.084 267.614 192.589 267.793C192.101 267.972 191.594 268.192 191.068 268.452L190.122 266.401C190.388 266.247 190.675 266.101 190.984 265.965C191.3 265.823 191.625 265.699 191.958 265.594C192.299 265.483 192.642 265.396 192.988 265.334C193.335 265.273 193.675 265.242 194.009 265.242C194.64 265.242 195.209 265.319 195.716 265.474C196.223 265.622 196.653 265.842 197.005 266.132C197.358 266.423 197.627 266.776 197.812 267.19C198.004 267.604 198.1 268.077 198.1 268.609C198.1 268.999 198.057 269.348 197.97 269.658C197.884 269.961 197.754 270.245 197.581 270.511C197.414 270.771 197.2 271.025 196.94 271.272C196.687 271.513 196.39 271.77 196.05 272.042C195.79 272.246 195.577 272.425 195.41 272.58C195.249 272.729 195.122 272.871 195.029 273.007C194.937 273.143 194.872 273.285 194.834 273.434C194.804 273.576 194.788 273.746 194.788 273.944V274.5H192.339ZM192.033 277.673C192.033 277.383 192.073 277.138 192.153 276.94C192.24 276.736 192.357 276.572 192.506 276.449C192.654 276.325 192.827 276.235 193.025 276.18C193.229 276.124 193.446 276.096 193.675 276.096C193.891 276.096 194.095 276.124 194.287 276.18C194.485 276.235 194.658 276.325 194.807 276.449C194.955 276.572 195.073 276.736 195.159 276.94C195.246 277.138 195.289 277.383 195.289 277.673C195.289 277.952 195.246 278.19 195.159 278.388C195.073 278.586 194.955 278.75 194.807 278.879C194.658 279.009 194.485 279.102 194.287 279.158C194.095 279.22 193.891 279.25 193.675 279.25C193.446 279.25 193.229 279.22 193.025 279.158C192.827 279.102 192.654 279.009 192.506 278.879C192.357 278.75 192.24 278.586 192.153 278.388C192.073 278.19 192.033 277.952 192.033 277.673Z"></path>
<path stroke-linejoin="round" stroke-miterlimit="10" stroke="#0B233F" fill="#F3F5F8" d="M308.5 231.167C308.5 223.067 315.067 216.5 323.167 216.5H535.833C543.933 216.5 550.5 223.067 550.5 231.167V289.833C550.5 297.933 543.933 304.5 535.833 304.5H323.167C315.067 304.5 308.5 297.933 308.5 289.833V231.167Z" clip-rule="evenodd" fill-rule="evenodd"></path>
<path fill="#0B233F" d="M329.929 268L325.458 256.106H325.383C325.476 257.096 325.522 258.318 325.522 259.771V268H323.945V254.437H326.469L330.653 265.551H330.727L334.985 254.437H337.49V268H335.802V259.66C335.802 258.732 335.845 257.554 335.932 256.125H335.857L331.33 268H329.929ZM347.241 268L346.916 266.553H346.842C346.335 267.19 345.827 267.623 345.32 267.852C344.819 268.074 344.185 268.186 343.418 268.186C342.417 268.186 341.631 267.923 341.062 267.397C340.493 266.871 340.208 266.129 340.208 265.17C340.208 263.105 341.838 262.022 345.098 261.923L346.823 261.858V261.255C346.823 260.482 346.656 259.913 346.322 259.548C345.988 259.177 345.453 258.992 344.717 258.992C344.179 258.992 343.669 259.072 343.187 259.233C342.71 259.394 342.262 259.573 341.841 259.771L341.331 258.519C341.844 258.246 342.404 258.033 343.01 257.878C343.616 257.724 344.216 257.646 344.81 257.646C346.041 257.646 346.956 257.919 347.556 258.463C348.156 259.007 348.456 259.873 348.456 261.061V268H347.241ZM343.799 266.84C344.733 266.84 345.466 266.59 345.998 266.089C346.536 265.582 346.805 264.864 346.805 263.937V263.018L345.302 263.083C344.133 263.126 343.279 263.312 342.741 263.64C342.209 263.967 341.943 264.484 341.943 265.189C341.943 265.721 342.104 266.129 342.426 266.414C342.754 266.698 343.211 266.84 343.799 266.84ZM358.559 268V261.487C358.559 260.659 358.374 260.043 358.002 259.641C357.638 259.233 357.062 259.029 356.277 259.029C355.232 259.029 354.471 259.319 353.995 259.901C353.525 260.476 353.29 261.416 353.29 262.721V268H351.62V257.813H352.965L353.215 259.205H353.308C353.624 258.704 354.066 258.318 354.635 258.045C355.204 257.767 355.832 257.628 356.518 257.628C357.767 257.628 358.695 257.931 359.301 258.537C359.907 259.143 360.21 260.086 360.21 261.367V268H358.559ZM369.655 268L369.33 266.553H369.256C368.749 267.19 368.242 267.623 367.734 267.852C367.233 268.074 366.599 268.186 365.833 268.186C364.831 268.186 364.045 267.923 363.476 267.397C362.907 266.871 362.623 266.129 362.623 265.17C362.623 263.105 364.252 262.022 367.512 261.923L369.237 261.858V261.255C369.237 260.482 369.07 259.913 368.736 259.548C368.402 259.177 367.867 258.992 367.131 258.992C366.593 258.992 366.083 259.072 365.601 259.233C365.124 259.394 364.676 259.573 364.255 259.771L363.745 258.519C364.258 258.246 364.818 258.033 365.424 257.878C366.03 257.724 366.63 257.646 367.224 257.646C368.455 257.646 369.37 257.919 369.97 258.463C370.57 259.007 370.87 259.873 370.87 261.061V268H369.655ZM366.213 266.84C367.147 266.84 367.88 266.59 368.412 266.089C368.95 265.582 369.219 264.864 369.219 263.937V263.018L367.716 263.083C366.547 263.126 365.693 263.312 365.155 263.64C364.623 263.967 364.357 264.484 364.357 265.189C364.357 265.721 364.518 266.129 364.84 266.414C365.168 266.698 365.625 266.84 366.213 266.84ZM377.912 266.822C378.938 266.822 379.684 266.547 380.147 265.996C380.618 265.439 380.853 264.549 380.853 263.324V262.925C380.853 261.565 380.618 260.575 380.147 259.957C379.677 259.338 378.92 259.029 377.875 259.029C377.021 259.029 376.359 259.369 375.889 260.049C375.425 260.723 375.193 261.688 375.193 262.944C375.193 264.206 375.419 265.167 375.871 265.829C376.328 266.491 377.009 266.822 377.912 266.822ZM380.834 267.907L380.89 266.655H380.815C380.129 267.675 379.077 268.186 377.661 268.186C376.344 268.186 375.314 267.728 374.572 266.812C373.836 265.891 373.468 264.595 373.468 262.925C373.468 261.286 373.839 259.994 374.581 259.047C375.329 258.101 376.35 257.628 377.643 257.628C379.022 257.628 380.086 258.141 380.834 259.168H380.936L381.159 257.813H382.485V268.167C382.485 269.627 382.114 270.724 381.372 271.46C380.636 272.196 379.489 272.564 377.93 272.564C376.446 272.564 375.224 272.348 374.266 271.915V270.375C375.255 270.907 376.508 271.173 378.023 271.173C378.889 271.173 379.572 270.919 380.073 270.412C380.58 269.905 380.834 269.203 380.834 268.306V267.907ZM390.056 268.186C388.528 268.186 387.328 267.725 386.456 266.803C385.59 265.875 385.157 264.601 385.157 262.981C385.157 261.348 385.562 260.049 386.373 259.084C387.183 258.113 388.278 257.628 389.657 257.628C390.937 257.628 391.958 258.042 392.718 258.871C393.479 259.694 393.859 260.81 393.859 262.22V263.231H386.883C386.914 264.388 387.208 265.266 387.764 265.866C388.321 266.466 389.109 266.766 390.13 266.766C390.674 266.766 391.191 266.72 391.679 266.627C392.168 266.528 392.74 266.339 393.396 266.061V267.527C392.833 267.768 392.304 267.938 391.809 268.037C391.314 268.136 390.73 268.186 390.056 268.186ZM389.638 258.992C388.84 258.992 388.209 259.248 387.746 259.762C387.282 260.275 387.007 260.989 386.92 261.905H392.106C392.094 260.952 391.874 260.229 391.447 259.734C391.021 259.239 390.417 258.992 389.638 258.992ZM407.599 268L403.127 256.106H403.053C403.146 257.096 403.192 258.318 403.192 259.771V268H401.615V254.437H404.139L408.323 265.551H408.397L412.655 254.437H415.16V268H413.472V259.66C413.472 258.732 413.515 257.554 413.602 256.125H413.527L409 268H407.599ZM417.025 257.813H418.815L421.014 263.612C421.478 264.874 421.763 265.798 421.868 266.386H421.942C421.998 266.157 422.124 265.73 422.322 265.105C422.52 264.475 422.687 263.971 422.823 263.593L424.892 257.813H426.692L422.304 269.41C421.877 270.536 421.37 271.343 420.782 271.832C420.195 272.32 419.468 272.564 418.602 272.564C418.138 272.564 417.677 272.512 417.22 272.407V271.08C417.529 271.154 417.9 271.191 418.333 271.191C418.865 271.191 419.316 271.043 419.688 270.746C420.059 270.455 420.362 270.004 420.597 269.392L421.125 268.037L417.025 257.813ZM437.769 268H436.053V255.939H431.813V254.437H441.981V255.939H437.769V268ZM447.501 268.186C445.973 268.186 444.773 267.725 443.901 266.803C443.035 265.875 442.603 264.601 442.603 262.981C442.603 261.348 443.008 260.049 443.818 259.084C444.628 258.113 445.723 257.628 447.102 257.628C448.382 257.628 449.403 258.042 450.164 258.871C450.924 259.694 451.305 260.81 451.305 262.22V263.231H444.328C444.359 264.388 444.653 265.266 445.209 265.866C445.766 266.466 446.555 266.766 447.575 266.766C448.119 266.766 448.636 266.72 449.125 266.627C449.613 266.528 450.185 266.339 450.841 266.061V267.527C450.278 267.768 449.749 267.938 449.254 268.037C448.76 268.136 448.175 268.186 447.501 268.186ZM447.083 258.992C446.286 258.992 445.655 259.248 445.191 259.762C444.727 260.275 444.452 260.989 444.365 261.905H449.551C449.539 260.952 449.319 260.229 448.893 259.734C448.466 259.239 447.863 258.992 447.083 258.992ZM466.854 268V261.441C466.854 259.833 466.164 259.029 464.785 259.029C463.838 259.029 463.143 259.304 462.697 259.854C462.252 260.405 462.029 261.246 462.029 262.378V268H460.369V261.441C460.369 260.637 460.199 260.034 459.858 259.632C459.524 259.23 458.999 259.029 458.281 259.029C457.341 259.029 456.652 259.316 456.212 259.892C455.779 260.467 455.563 261.41 455.563 262.721V268H453.893V257.813H455.238L455.489 259.205H455.582C455.872 258.71 456.28 258.324 456.806 258.045C457.338 257.767 457.932 257.628 458.587 257.628C460.183 257.628 461.222 258.197 461.705 259.335H461.797C462.125 258.791 462.57 258.37 463.133 258.073C463.702 257.776 464.346 257.628 465.063 257.628C466.213 257.628 467.073 257.925 467.642 258.519C468.217 259.112 468.505 260.062 468.505 261.367V268H466.854ZM476.493 268.186C475.126 268.186 474.074 267.694 473.338 266.71H473.227L473.264 267.091C473.314 267.573 473.338 268.003 473.338 268.38V272.564H471.668V257.813H473.042L473.264 259.205H473.338C473.734 258.648 474.192 258.246 474.711 257.999C475.231 257.752 475.831 257.628 476.511 257.628C477.835 257.628 478.861 258.089 479.591 259.01C480.327 259.926 480.695 261.218 480.695 262.888C480.695 264.552 480.327 265.851 479.591 266.785C478.855 267.719 477.822 268.186 476.493 268.186ZM476.214 259.029C475.206 259.029 474.476 259.313 474.025 259.882C473.58 260.451 473.351 261.345 473.338 262.563V262.888C473.338 264.267 473.567 265.266 474.025 265.885C474.483 266.497 475.225 266.803 476.251 266.803C477.105 266.803 477.77 266.457 478.246 265.764C478.729 265.071 478.97 264.107 478.97 262.87C478.97 261.626 478.729 260.677 478.246 260.021C477.77 259.36 477.093 259.029 476.214 259.029ZM485.028 268H483.358V253.564H485.028V268ZM494.546 268L494.222 266.553H494.147C493.64 267.19 493.133 267.623 492.626 267.852C492.125 268.074 491.491 268.186 490.724 268.186C489.722 268.186 488.937 267.923 488.368 267.397C487.799 266.871 487.514 266.129 487.514 265.17C487.514 263.105 489.144 262.022 492.403 261.923L494.129 261.858V261.255C494.129 260.482 493.962 259.913 493.628 259.548C493.294 259.177 492.759 258.992 492.023 258.992C491.485 258.992 490.975 259.072 490.492 259.233C490.016 259.394 489.568 259.573 489.147 259.771L488.637 258.519C489.15 258.246 489.71 258.033 490.316 257.878C490.922 257.724 491.522 257.646 492.116 257.646C493.347 257.646 494.262 257.919 494.862 258.463C495.462 259.007 495.762 259.873 495.762 261.061V268H494.546ZM491.104 266.84C492.038 266.84 492.771 266.59 493.303 266.089C493.841 265.582 494.11 264.864 494.11 263.937V263.018L492.607 263.083C491.438 263.126 490.585 263.312 490.047 263.64C489.515 263.967 489.249 264.484 489.249 265.189C489.249 265.721 489.41 266.129 489.731 266.414C490.059 266.698 490.517 266.84 491.104 266.84ZM502.33 266.822C502.547 266.822 502.8 266.8 503.091 266.757C503.382 266.714 503.601 266.664 503.75 266.608V267.889C503.595 267.957 503.354 268.022 503.026 268.083C502.704 268.152 502.376 268.186 502.042 268.186C500.051 268.186 499.055 267.137 499.055 265.041V259.112H497.617V258.314L499.074 257.646L499.742 255.476H500.734V257.813H503.675V259.112H500.734V264.994C500.734 265.582 500.874 266.033 501.152 266.349C501.436 266.664 501.829 266.822 502.33 266.822ZM510.123 268.186C508.595 268.186 507.396 267.725 506.523 266.803C505.658 265.875 505.225 264.601 505.225 262.981C505.225 261.348 505.63 260.049 506.44 259.084C507.25 258.113 508.345 257.628 509.724 257.628C511.004 257.628 512.025 258.042 512.786 258.871C513.546 259.694 513.927 260.81 513.927 262.22V263.231H506.95C506.981 264.388 507.275 265.266 507.832 265.866C508.388 266.466 509.177 266.766 510.197 266.766C510.742 266.766 511.258 266.72 511.747 266.627C512.235 266.528 512.807 266.339 513.463 266.061V267.527C512.9 267.768 512.371 267.938 511.876 268.037C511.382 268.136 510.797 268.186 510.123 268.186ZM509.706 258.992C508.908 258.992 508.277 259.248 507.813 259.762C507.349 260.275 507.074 260.989 506.987 261.905H512.173C512.161 260.952 511.941 260.229 511.515 259.734C511.088 259.239 510.485 258.992 509.706 258.992ZM523.148 265.189C523.148 266.141 522.793 266.881 522.082 267.406C521.37 267.926 520.371 268.186 519.085 268.186C517.743 268.186 516.676 267.972 515.884 267.545V266.024C517.004 266.568 518.083 266.84 519.122 266.84C519.963 266.84 520.576 266.704 520.959 266.432C521.342 266.16 521.534 265.795 521.534 265.337C521.534 264.935 521.349 264.595 520.978 264.317C520.613 264.039 519.96 263.72 519.02 263.361C518.061 262.99 517.387 262.675 516.998 262.415C516.608 262.149 516.32 261.852 516.135 261.524C515.955 261.197 515.866 260.798 515.866 260.328C515.866 259.493 516.206 258.834 516.886 258.352C517.567 257.869 518.5 257.628 519.688 257.628C520.845 257.628 521.927 257.857 522.935 258.314L522.369 259.641C521.336 259.208 520.405 258.992 519.577 258.992C518.884 258.992 518.358 259.103 518 259.326C517.641 259.542 517.461 259.842 517.461 260.226C517.461 260.597 517.616 260.906 517.925 261.153C518.235 261.395 518.955 261.732 520.087 262.165C520.934 262.48 521.559 262.774 521.961 263.046C522.369 263.318 522.669 263.624 522.861 263.964C523.053 264.305 523.148 264.713 523.148 265.189Z"></path>
<path fill="#E96969" d="M242 259H274.866C275.418 259 275.866 259.448 275.866 260V260.062L274.866 259.062H301.066V261.062H274.866C274.314 261.062 273.866 260.615 273.866 260.062V260L274.866 261H242V259ZM299.732 256.062L307.732 260.062L299.732 264.062V256.062Z"></path>
</svg>
