<svg xmlns="http://www.w3.org/2000/svg" fill="none" viewBox="0 0 552 529" height="529" width="552">
<path stroke-linejoin="round" stroke-miterlimit="10" stroke="#0B233F" fill="#0B233F" d="M1 15.667C1 7.56699 7.5665 1 15.6668 1H228.333C236.433 1 243 7.56699 243 15.667V74.333C243 82.433 236.433 89 228.333 89H15.6668C7.5665 89 1 82.433 1 74.333V15.667Z" clip-rule="evenodd" fill-rule="evenodd"></path>
<path fill="white" d="M27.3889 41.5H24.5222V35.646H19.1506V41.5H16.2747V27.9365H19.1506V33.2524H24.5222V27.9365H27.3889V41.5ZM32.8533 36.2954C32.8533 37.3221 33.0203 38.0983 33.3542 38.624C33.6944 39.1497 34.2449 39.4126 35.0056 39.4126C35.7602 39.4126 36.3014 39.1528 36.6292 38.6333C36.9631 38.1076 37.1301 37.3283 37.1301 36.2954C37.1301 35.2687 36.9631 34.4987 36.6292 33.9854C36.2952 33.472 35.7478 33.2153 34.9871 33.2153C34.2325 33.2153 33.6882 33.472 33.3542 33.9854C33.0203 34.4925 32.8533 35.2625 32.8533 36.2954ZM40.0247 36.2954C40.0247 37.9839 39.5793 39.3044 38.6887 40.2568C37.7981 41.2093 36.558 41.6855 34.9685 41.6855C33.9727 41.6855 33.0945 41.4691 32.3337 41.0361C31.573 40.597 30.9885 39.9692 30.5803 39.1528C30.1721 38.3364 29.968 37.384 29.968 36.2954C29.968 34.6007 30.4102 33.2834 31.2947 32.3433C32.1791 31.4032 33.4223 30.9331 35.0242 30.9331C36.0199 30.9331 36.8982 31.1496 37.6589 31.5825C38.4197 32.0155 39.0042 32.637 39.4124 33.4473C39.8206 34.2575 40.0247 35.2069 40.0247 36.2954ZM50.7029 41.5L49.905 37.8726L48.8474 33.2896H48.7639L46.8713 41.5H43.8284L40.8782 31.1279H43.6985L44.8953 35.7202C45.0313 36.2645 45.22 37.3994 45.4612 39.125H45.5354C45.5601 38.6549 45.6684 37.9097 45.8601 36.8892L46.0085 36.1006L47.2888 31.1279H50.406L51.6213 36.1006C51.6956 36.4408 51.7852 36.9417 51.8904 37.6035C52.0017 38.2591 52.0636 38.7663 52.0759 39.125H52.1501C52.2182 38.5745 52.314 37.9499 52.4377 37.251C52.5614 36.5459 52.6666 36.0356 52.7532 35.7202L53.9963 31.1279H56.7703L53.783 41.5H50.7029ZM67.7546 39.4312C68.2494 39.4312 68.8432 39.3229 69.5359 39.1064V41.2124C68.8308 41.5278 67.9649 41.6855 66.9382 41.6855C65.8064 41.6855 64.9807 41.401 64.4612 40.832C63.9478 40.2568 63.6912 39.3971 63.6912 38.2529V33.2524H62.3367V32.0557L63.8953 31.1094L64.7117 28.9199H66.5208V31.1279H69.4246V33.2524H66.5208V38.2529C66.5208 38.6549 66.6321 38.9518 66.8547 39.1436C67.0836 39.3353 67.3835 39.4312 67.7546 39.4312ZM73.8962 36.2954C73.8962 37.3221 74.0632 38.0983 74.3972 38.624C74.7374 39.1497 75.2878 39.4126 76.0486 39.4126C76.8031 39.4126 77.3443 39.1528 77.6721 38.6333C78.0061 38.1076 78.1731 37.3283 78.1731 36.2954C78.1731 35.2687 78.0061 34.4987 77.6721 33.9854C77.3381 33.472 76.7908 33.2153 76.03 33.2153C75.2755 33.2153 74.7312 33.472 74.3972 33.9854C74.0632 34.4925 73.8962 35.2625 73.8962 36.2954ZM81.0676 36.2954C81.0676 37.9839 80.6223 39.3044 79.7317 40.2568C78.8411 41.2093 77.601 41.6855 76.0115 41.6855C75.0157 41.6855 74.1375 41.4691 73.3767 41.0361C72.616 40.597 72.0315 39.9692 71.6233 39.1528C71.2151 38.3364 71.011 37.384 71.011 36.2954C71.011 34.6007 71.4532 33.2834 72.3376 32.3433C73.2221 31.4032 74.4653 30.9331 76.0671 30.9331C77.0629 30.9331 77.9412 31.1496 78.7019 31.5825C79.4626 32.0155 80.0471 32.637 80.4553 33.4473C80.8635 34.2575 81.0676 35.2069 81.0676 36.2954ZM92.553 41.6855C89.3245 41.6855 87.7102 39.9136 87.7102 36.3696C87.7102 34.6069 88.1493 33.2617 89.0276 32.334C89.9058 31.4001 91.1645 30.9331 92.8035 30.9331C94.0033 30.9331 95.0795 31.1681 96.032 31.6382L95.197 33.8276C94.7517 33.6483 94.3373 33.5029 93.9539 33.3916C93.5704 33.2741 93.1869 33.2153 92.8035 33.2153C91.3315 33.2153 90.5955 34.2606 90.5955 36.3511C90.5955 38.3797 91.3315 39.394 92.8035 39.394C93.3477 39.394 93.8518 39.3229 94.3157 39.1807C94.7795 39.0322 95.2434 38.8034 95.7073 38.4941V40.9155C95.2496 41.2062 94.7857 41.4072 94.3157 41.5186C93.8518 41.6299 93.2642 41.6855 92.553 41.6855ZM103.908 30.9331C104.292 30.9331 104.61 30.9609 104.864 31.0166L104.651 33.6699C104.422 33.6081 104.143 33.5771 103.816 33.5771C102.913 33.5771 102.208 33.8091 101.7 34.2729C101.199 34.7368 100.949 35.3862 100.949 36.2212V41.5H98.1194V31.1279H100.262L100.68 32.8721H100.819C101.141 32.2907 101.574 31.8237 102.118 31.4712C102.668 31.1125 103.265 30.9331 103.908 30.9331ZM110.857 32.9463C110.257 32.9463 109.787 33.138 109.447 33.5215C109.107 33.8988 108.912 34.4368 108.863 35.1357H112.833C112.821 34.4368 112.638 33.8988 112.286 33.5215C111.933 33.138 111.457 32.9463 110.857 32.9463ZM111.256 41.6855C109.586 41.6855 108.281 41.2248 107.341 40.3032C106.401 39.3817 105.931 38.0767 105.931 36.3882C105.931 34.6502 106.364 33.3081 107.23 32.3618C108.102 31.4093 109.305 30.9331 110.839 30.9331C112.304 30.9331 113.446 31.3506 114.262 32.1855C115.078 33.0205 115.487 34.174 115.487 35.646V37.019H108.798C108.829 37.8231 109.067 38.4508 109.512 38.9023C109.957 39.3538 110.582 39.5796 111.386 39.5796C112.011 39.5796 112.601 39.5146 113.158 39.3848C113.715 39.2549 114.296 39.0477 114.902 38.7632V40.9526C114.407 41.2 113.878 41.3825 113.316 41.5C112.753 41.6237 112.066 41.6855 111.256 41.6855ZM124.374 41.5L123.827 40.0898H123.753C123.276 40.6898 122.785 41.1073 122.278 41.3423C121.777 41.5711 121.121 41.6855 120.311 41.6855C119.315 41.6855 118.53 41.401 117.954 40.832C117.385 40.263 117.101 39.4528 117.101 38.4014C117.101 37.3005 117.484 36.4902 118.251 35.9707C119.024 35.445 120.187 35.1543 121.74 35.0986L123.539 35.043V34.5884C123.539 33.5369 123.001 33.0112 121.925 33.0112C121.096 33.0112 120.122 33.2617 119.003 33.7627L118.066 31.8516C119.259 31.2269 120.583 30.9146 122.036 30.9146C123.428 30.9146 124.495 31.2176 125.237 31.8237C125.979 32.4299 126.35 33.3514 126.35 34.5884V41.5H124.374ZM123.539 36.6943L122.445 36.7314C121.622 36.7562 121.01 36.9046 120.608 37.1768C120.206 37.4489 120.005 37.8633 120.005 38.4199C120.005 39.2178 120.462 39.6167 121.378 39.6167C122.033 39.6167 122.556 39.4281 122.946 39.0508C123.341 38.6735 123.539 38.1725 123.539 37.5479V36.6943ZM133.642 39.4312C134.137 39.4312 134.731 39.3229 135.424 39.1064V41.2124C134.719 41.5278 133.853 41.6855 132.826 41.6855C131.694 41.6855 130.868 41.401 130.349 40.832C129.836 40.2568 129.579 39.3971 129.579 38.2529V33.2524H128.224V32.0557L129.783 31.1094L130.599 28.9199H132.408V31.1279H135.312V33.2524H132.408V38.2529C132.408 38.6549 132.52 38.9518 132.742 39.1436C132.971 39.3353 133.271 39.4312 133.642 39.4312ZM141.825 32.9463C141.225 32.9463 140.755 33.138 140.415 33.5215C140.075 33.8988 139.88 34.4368 139.83 35.1357H143.801C143.789 34.4368 143.606 33.8988 143.254 33.5215C142.901 33.138 142.425 32.9463 141.825 32.9463ZM142.224 41.6855C140.554 41.6855 139.249 41.2248 138.309 40.3032C137.369 39.3817 136.899 38.0767 136.899 36.3882C136.899 34.6502 137.332 33.3081 138.198 32.3618C139.07 31.4093 140.273 30.9331 141.806 30.9331C143.272 30.9331 144.413 31.3506 145.23 32.1855C146.046 33.0205 146.454 34.174 146.454 35.646V37.019H139.765C139.796 37.8231 140.034 38.4508 140.48 38.9023C140.925 39.3538 141.55 39.5796 142.354 39.5796C142.978 39.5796 143.569 39.5146 144.126 39.3848C144.682 39.2549 145.264 39.0477 145.87 38.7632V40.9526C145.375 41.2 144.846 41.3825 144.283 41.5C143.721 41.6237 143.034 41.6855 142.224 41.6855Z"></path>
<path fill="white" d="M24.5779 63.5L23.5945 60.2715H18.6497L17.6663 63.5H14.5676L19.3547 49.8809H22.8708L27.6765 63.5H24.5779ZM22.908 57.8594C21.9988 54.9339 21.4854 53.2795 21.3679 52.896C21.2566 52.5125 21.1762 52.2095 21.1267 51.9868C20.9226 52.7785 20.3381 54.736 19.3733 57.8594H22.908ZM36.4065 60.4199C36.4065 61.4837 36.0354 62.2939 35.2932 62.8506C34.5572 63.4072 33.4532 63.6855 31.9812 63.6855C31.2266 63.6855 30.5834 63.633 30.0515 63.5278C29.5196 63.4289 29.0217 63.2804 28.5579 63.0825V60.7446C29.0836 60.992 29.6742 61.1992 30.3298 61.3662C30.9916 61.5332 31.573 61.6167 32.074 61.6167C33.1007 61.6167 33.614 61.3198 33.614 60.7261C33.614 60.5034 33.546 60.3241 33.4099 60.188C33.2738 60.0457 33.0388 59.888 32.7048 59.7148C32.3708 59.5355 31.9255 59.3283 31.3689 59.0933C30.571 58.7593 29.9835 58.45 29.6062 58.1655C29.2351 57.881 28.963 57.5563 28.7898 57.1914C28.6228 56.8203 28.5393 56.3657 28.5393 55.8276C28.5393 54.9061 28.8949 54.1948 29.6062 53.6938C30.3236 53.1867 31.338 52.9331 32.6492 52.9331C33.8985 52.9331 35.1139 53.2052 36.2952 53.7495L35.4417 55.7905C34.9221 55.5679 34.4366 55.3854 33.9851 55.2432C33.5336 55.1009 33.0728 55.0298 32.6028 55.0298C31.7678 55.0298 31.3503 55.2555 31.3503 55.707C31.3503 55.9606 31.4833 56.1802 31.7493 56.3657C32.0214 56.5513 32.6121 56.8265 33.5212 57.1914C34.3315 57.5192 34.9252 57.8254 35.3025 58.1099C35.6798 58.3944 35.9581 58.7222 36.1375 59.0933C36.3168 59.4644 36.4065 59.9066 36.4065 60.4199ZM45.8508 60.4199C45.8508 61.4837 45.4797 62.2939 44.7375 62.8506C44.0015 63.4072 42.8975 63.6855 41.4255 63.6855C40.671 63.6855 40.0278 63.633 39.4958 63.5278C38.9639 63.4289 38.4661 63.2804 38.0022 63.0825V60.7446C38.5279 60.992 39.1186 61.1992 39.7742 61.3662C40.436 61.5332 41.0173 61.6167 41.5183 61.6167C42.545 61.6167 43.0583 61.3198 43.0583 60.7261C43.0583 60.5034 42.9903 60.3241 42.8542 60.188C42.7182 60.0457 42.4832 59.888 42.1492 59.7148C41.8152 59.5355 41.3699 59.3283 40.8132 59.0933C40.0154 58.7593 39.4278 58.45 39.0505 58.1655C38.6794 57.881 38.4073 57.5563 38.2341 57.1914C38.0671 56.8203 37.9836 56.3657 37.9836 55.8276C37.9836 54.9061 38.3393 54.1948 39.0505 53.6938C39.768 53.1867 40.7823 52.9331 42.0935 52.9331C43.3429 52.9331 44.5582 53.2052 45.7395 53.7495L44.886 55.7905C44.3665 55.5679 43.8809 55.3854 43.4294 55.2432C42.9779 55.1009 42.5172 55.0298 42.0471 55.0298C41.2122 55.0298 40.7947 55.2555 40.7947 55.707C40.7947 55.9606 40.9277 56.1802 41.1936 56.3657C41.4657 56.5513 42.0564 56.8265 42.9656 57.1914C43.7758 57.5192 44.3695 57.8254 44.7468 58.1099C45.1241 58.3944 45.4024 58.7222 45.5818 59.0933C45.7611 59.4644 45.8508 59.9066 45.8508 60.4199ZM47.9382 50.4468C47.9382 49.5252 48.4516 49.0645 49.4783 49.0645C50.505 49.0645 51.0183 49.5252 51.0183 50.4468C51.0183 50.8859 50.8884 51.2292 50.6287 51.4766C50.3751 51.7178 49.9916 51.8384 49.4783 51.8384C48.4516 51.8384 47.9382 51.3745 47.9382 50.4468ZM50.8884 63.5H48.0588V53.1279H50.8884V63.5ZM58.1619 61.4683C58.9226 61.4683 59.4669 61.2518 59.7947 60.8188C60.1225 60.3797 60.2864 59.6715 60.2864 58.6943V58.3511C60.2864 57.244 60.1132 56.4492 59.7668 55.9668C59.4267 55.4782 58.8762 55.2339 58.1155 55.2339C56.7857 55.2339 56.1208 56.2791 56.1208 58.3696C56.1208 59.4087 56.2847 60.1849 56.6125 60.6982C56.9465 61.2116 57.463 61.4683 58.1619 61.4683ZM62.9304 63.5186C62.9304 65.0091 62.4944 66.1379 61.6223 66.9048C60.7564 67.6779 59.4638 68.0645 57.7444 68.0645C56.2291 68.0645 54.9364 67.8604 53.8665 67.4521V65.1885C55.122 65.7204 56.4703 65.9863 57.9114 65.9863C59.3648 65.9863 60.0916 65.2008 60.0916 63.6299V63.4258L60.175 62.1548H60.0916C59.4298 63.1753 58.4495 63.6855 57.1506 63.6855C55.9075 63.6855 54.9426 63.2062 54.2561 62.2476C53.5758 61.2889 53.2356 59.9839 53.2356 58.3325C53.2356 56.6317 53.5881 55.3081 54.2932 54.3618C55.0045 53.4093 55.9817 52.9331 57.2249 52.9331C58.4989 52.9331 59.5009 53.4403 60.2307 54.4546H60.3049L60.5369 53.1279H62.9304V63.5186ZM75.4641 63.5H72.6345V57.4419C72.6345 56.6935 72.5015 56.1338 72.2356 55.7627C71.9696 55.3854 71.546 55.1968 70.9646 55.1968C70.1729 55.1968 69.6008 55.4627 69.2483 55.9946C68.8958 56.5203 68.7195 57.3955 68.7195 58.6201V63.5H65.8899V53.1279H68.0515L68.4319 54.4546H68.5896C68.905 53.9536 69.338 53.5763 69.8884 53.3228C70.4451 53.063 71.0759 52.9331 71.781 52.9331C72.9871 52.9331 73.9024 53.2609 74.5271 53.9165C75.1518 54.5659 75.4641 55.506 75.4641 56.7368V63.5ZM87.6638 63.5H84.8342V57.4419C84.8342 56.6935 84.7074 56.1338 84.4539 55.7627C84.2065 55.3854 83.8137 55.1968 83.2756 55.1968C82.552 55.1968 82.0263 55.4627 81.6985 55.9946C81.3707 56.5265 81.2068 57.4017 81.2068 58.6201V63.5H78.3772V53.1279H80.5388L80.9192 54.4546H81.0769C81.3552 53.9784 81.7572 53.6073 82.283 53.3413C82.8087 53.0692 83.4117 52.9331 84.092 52.9331C85.6444 52.9331 86.6959 53.4403 87.2463 54.4546H87.4968C87.7751 53.9722 88.1833 53.598 88.7214 53.332C89.2657 53.0661 89.878 52.9331 90.5583 52.9331C91.7335 52.9331 92.621 53.2362 93.2209 53.8423C93.8271 54.4422 94.1301 55.4071 94.1301 56.7368V63.5H91.2913V57.4419C91.2913 56.6935 91.1645 56.1338 90.9109 55.7627C90.6635 55.3854 90.2708 55.1968 89.7327 55.1968C89.04 55.1968 88.5204 55.4442 88.1741 55.939C87.8339 56.4338 87.6638 57.2192 87.6638 58.2954V63.5ZM101.339 54.9463C100.739 54.9463 100.269 55.138 99.9285 55.5215C99.5883 55.8988 99.3935 56.4368 99.344 57.1357H103.315C103.302 56.4368 103.12 55.8988 102.767 55.5215C102.415 55.138 101.939 54.9463 101.339 54.9463ZM101.738 63.6855C100.068 63.6855 98.7626 63.2248 97.8225 62.3032C96.8824 61.3817 96.4124 60.0767 96.4124 58.3882C96.4124 56.6502 96.8453 55.3081 97.7112 54.3618C98.5833 53.4093 99.7862 52.9331 101.32 52.9331C102.786 52.9331 103.927 53.3506 104.743 54.1855C105.56 55.0205 105.968 56.174 105.968 57.646V59.019H99.2791C99.31 59.8231 99.5481 60.4508 99.9934 60.9023C100.439 61.3538 101.063 61.5796 101.867 61.5796C102.492 61.5796 103.083 61.5146 103.639 61.3848C104.196 61.2549 104.777 61.0477 105.384 60.7632V62.9526C104.889 63.2 104.36 63.3825 103.797 63.5C103.234 63.6237 102.548 63.6855 101.738 63.6855ZM117.843 63.5H115.013V57.4419C115.013 56.6935 114.88 56.1338 114.615 55.7627C114.349 55.3854 113.925 55.1968 113.344 55.1968C112.552 55.1968 111.98 55.4627 111.627 55.9946C111.275 56.5203 111.098 57.3955 111.098 58.6201V63.5H108.269V53.1279H110.43L110.811 54.4546H110.969C111.284 53.9536 111.717 53.5763 112.267 53.3228C112.824 53.063 113.455 52.9331 114.16 52.9331C115.366 52.9331 116.281 53.2609 116.906 53.9165C117.531 54.5659 117.843 55.506 117.843 56.7368V63.5ZM125.126 61.4312C125.621 61.4312 126.214 61.3229 126.907 61.1064V63.2124C126.202 63.5278 125.336 63.6855 124.309 63.6855C123.177 63.6855 122.352 63.401 121.832 62.832C121.319 62.2568 121.062 61.3971 121.062 60.2529V55.2524H119.708V54.0557L121.266 53.1094L122.083 50.9199H123.892V53.1279H126.796V55.2524H123.892V60.2529C123.892 60.6549 124.003 60.9518 124.226 61.1436C124.455 61.3353 124.755 61.4312 125.126 61.4312ZM136.249 60.4199C136.249 61.4837 135.878 62.2939 135.136 62.8506C134.4 63.4072 133.296 63.6855 131.824 63.6855C131.069 63.6855 130.426 63.633 129.894 63.5278C129.362 63.4289 128.865 63.2804 128.401 63.0825V60.7446C128.926 60.992 129.517 61.1992 130.173 61.3662C130.834 61.5332 131.416 61.6167 131.917 61.6167C132.943 61.6167 133.457 61.3198 133.457 60.7261C133.457 60.5034 133.389 60.3241 133.253 60.188C133.117 60.0457 132.882 59.888 132.548 59.7148C132.214 59.5355 131.768 59.3283 131.212 59.0933C130.414 58.7593 129.826 58.45 129.449 58.1655C129.078 57.881 128.806 57.5563 128.633 57.1914C128.466 56.8203 128.382 56.3657 128.382 55.8276C128.382 54.9061 128.738 54.1948 129.449 53.6938C130.166 53.1867 131.181 52.9331 132.492 52.9331C133.741 52.9331 134.957 53.2052 136.138 53.7495L135.284 55.7905C134.765 55.5679 134.279 55.3854 133.828 55.2432C133.376 55.1009 132.916 55.0298 132.446 55.0298C131.611 55.0298 131.193 55.2555 131.193 55.707C131.193 55.9606 131.326 56.1802 131.592 56.3657C131.864 56.5513 132.455 56.8265 133.364 57.1914C134.174 57.5192 134.768 57.8254 135.145 58.1099C135.523 58.3944 135.801 58.7222 135.98 59.0933C136.16 59.4644 136.249 59.9066 136.249 60.4199ZM140.368 59.0005V58.314C140.368 57.9985 140.399 57.714 140.461 57.4604C140.529 57.2007 140.628 56.9564 140.758 56.7275C140.894 56.4925 141.067 56.2668 141.278 56.0503C141.488 55.8276 141.741 55.5988 142.038 55.3638C142.298 55.1597 142.518 54.9772 142.697 54.8164C142.876 54.6556 143.022 54.4979 143.133 54.3433C143.244 54.1825 143.325 54.0155 143.374 53.8423C143.424 53.6691 143.448 53.4681 143.448 53.2393C143.448 52.8867 143.328 52.596 143.087 52.3672C142.852 52.1383 142.49 52.0239 142.001 52.0239C141.574 52.0239 141.114 52.1136 140.619 52.293C140.13 52.4723 139.623 52.6919 139.097 52.9517L138.151 50.9014C138.417 50.7467 138.705 50.6014 139.014 50.4653C139.329 50.3231 139.654 50.1994 139.988 50.0942C140.328 49.9829 140.671 49.8963 141.018 49.8345C141.364 49.7726 141.704 49.7417 142.038 49.7417C142.669 49.7417 143.238 49.819 143.745 49.9736C144.253 50.1221 144.682 50.3416 145.035 50.6323C145.387 50.923 145.656 51.2756 145.842 51.6899C146.034 52.1043 146.13 52.5775 146.13 53.1094C146.13 53.499 146.086 53.8485 146 54.1577C145.913 54.4608 145.783 54.7453 145.61 55.0112C145.443 55.271 145.23 55.5246 144.97 55.772C144.716 56.0132 144.42 56.2699 144.079 56.542C143.82 56.7461 143.606 56.9255 143.439 57.0801C143.278 57.2285 143.152 57.3708 143.059 57.5068C142.966 57.6429 142.901 57.7852 142.864 57.9336C142.833 58.0758 142.818 58.2459 142.818 58.4438V59.0005H140.368ZM140.062 62.1733C140.062 61.8826 140.102 61.6383 140.183 61.4404C140.269 61.2363 140.387 61.0724 140.535 60.9487C140.684 60.825 140.857 60.7354 141.055 60.6797C141.259 60.624 141.476 60.5962 141.704 60.5962C141.921 60.5962 142.125 60.624 142.317 60.6797C142.515 60.7354 142.688 60.825 142.836 60.9487C142.985 61.0724 143.102 61.2363 143.189 61.4404C143.275 61.6383 143.319 61.8826 143.319 62.1733C143.319 62.4517 143.275 62.6898 143.189 62.8877C143.102 63.0856 142.985 63.2495 142.836 63.3794C142.688 63.5093 142.515 63.6021 142.317 63.6577C142.125 63.7196 141.921 63.7505 141.704 63.7505C141.476 63.7505 141.259 63.7196 141.055 63.6577C140.857 63.6021 140.684 63.5093 140.535 63.3794C140.387 63.2495 140.269 63.0856 140.183 62.8877C140.102 62.6898 140.062 62.4517 140.062 62.1733Z"></path>
<path stroke-linejoin="round" stroke-miterlimit="10" stroke="#0B233F" fill="#F3F5F8" d="M309 15.667C309 7.56699 315.567 1 323.667 1H536.333C544.433 1 551 7.56699 551 15.667V74.333C551 82.433 544.433 89 536.333 89H323.667C315.567 89 309 82.433 309 74.333V15.667Z" clip-rule="evenodd" fill-rule="evenodd"></path>
<path fill="#0B233F" d="M330.033 40.2446C328.573 40.2446 327.426 40.7332 326.591 41.7104C325.756 42.6877 325.338 44.0236 325.338 45.7183C325.338 47.4686 325.743 48.82 326.554 49.7725C327.364 50.7188 328.517 51.1919 330.014 51.1919C330.979 51.1919 332.064 51.0125 333.271 50.6538V52.1382C332.695 52.3485 332.142 52.4907 331.61 52.5649C331.078 52.6453 330.466 52.6855 329.773 52.6855C327.775 52.6855 326.235 52.0794 325.153 50.8672C324.077 49.6488 323.539 47.9263 323.539 45.6997C323.539 44.3019 323.795 43.0773 324.309 42.0259C324.828 40.9744 325.58 40.1642 326.563 39.5952C327.553 39.0262 328.715 38.7417 330.051 38.7417C331.486 38.7417 332.736 39.0076 333.799 39.5396L333.113 40.9868C332.03 40.492 331.004 40.2446 330.033 40.2446ZM340.748 42.1279C341.2 42.1279 341.598 42.165 341.945 42.2393L341.741 43.7793C341.363 43.6927 340.995 43.6494 340.637 43.6494C340.099 43.6494 339.598 43.7979 339.134 44.0947C338.676 44.3916 338.317 44.8029 338.058 45.3286C337.798 45.8481 337.668 46.4264 337.668 47.0635V52.5H335.998V42.3135H337.371L337.557 44.1782H337.631C338.021 43.5041 338.481 42.9938 339.013 42.6475C339.545 42.3011 340.123 42.1279 340.748 42.1279ZM347.994 52.6855C346.466 52.6855 345.266 52.2248 344.394 51.3032C343.528 50.3755 343.095 49.1014 343.095 47.481C343.095 45.8481 343.5 44.5493 344.311 43.5845C345.121 42.6134 346.215 42.1279 347.595 42.1279C348.875 42.1279 349.896 42.5423 350.656 43.3711C351.417 44.1937 351.797 45.3101 351.797 46.7202V47.7314H344.821C344.852 48.888 345.146 49.7663 345.702 50.3662C346.259 50.9661 347.047 51.2661 348.068 51.2661C348.612 51.2661 349.129 51.2197 349.617 51.127C350.106 51.028 350.678 50.8394 351.333 50.561V52.0269C350.771 52.2681 350.242 52.4382 349.747 52.5371C349.252 52.6361 348.668 52.6855 347.994 52.6855ZM347.576 43.4917C346.778 43.4917 346.147 43.7484 345.684 44.2617C345.22 44.7751 344.944 45.4894 344.858 46.4048H350.044C350.032 45.4523 349.812 44.7287 349.385 44.2339C348.958 43.7391 348.355 43.4917 347.576 43.4917ZM360.676 52.5L360.351 51.0527H360.277C359.77 51.6898 359.263 52.1227 358.755 52.3516C358.254 52.5742 357.62 52.6855 356.854 52.6855C355.852 52.6855 355.066 52.4227 354.497 51.897C353.928 51.3713 353.644 50.6291 353.644 49.6704C353.644 47.6047 355.273 46.5223 358.533 46.4233L360.258 46.3584V45.7554C360.258 44.9823 360.091 44.4132 359.757 44.0483C359.423 43.6772 358.888 43.4917 358.152 43.4917C357.614 43.4917 357.104 43.5721 356.622 43.7329C356.145 43.8937 355.697 44.0731 355.276 44.271L354.766 43.0186C355.279 42.7464 355.839 42.533 356.445 42.3784C357.051 42.2238 357.651 42.1465 358.245 42.1465C359.476 42.1465 360.391 42.4186 360.991 42.9629C361.591 43.5072 361.891 44.373 361.891 45.5605V52.5H360.676ZM357.234 51.3403C358.168 51.3403 358.901 51.0898 359.433 50.5889C359.971 50.0817 360.24 49.3643 360.24 48.4365V47.5181L358.737 47.583C357.568 47.6263 356.714 47.8118 356.176 48.1396C355.644 48.4674 355.378 48.9839 355.378 49.689C355.378 50.2209 355.539 50.6291 355.861 50.9136C356.189 51.1981 356.646 51.3403 357.234 51.3403ZM368.459 51.3218C368.676 51.3218 368.93 51.3001 369.22 51.2568C369.511 51.2135 369.73 51.1641 369.879 51.1084V52.3887C369.724 52.4567 369.483 52.5216 369.155 52.5835C368.834 52.6515 368.506 52.6855 368.172 52.6855C366.18 52.6855 365.185 51.6372 365.185 49.5405V43.6123H363.747V42.8145L365.203 42.1465L365.871 39.9756H366.864V42.3135H369.805V43.6123H366.864V49.4941C366.864 50.0817 367.003 50.5332 367.281 50.8486C367.566 51.1641 367.958 51.3218 368.459 51.3218ZM376.252 52.6855C374.725 52.6855 373.525 52.2248 372.653 51.3032C371.787 50.3755 371.354 49.1014 371.354 47.481C371.354 45.8481 371.759 44.5493 372.569 43.5845C373.38 42.6134 374.474 42.1279 375.854 42.1279C377.134 42.1279 378.154 42.5423 378.915 43.3711C379.676 44.1937 380.056 45.3101 380.056 46.7202V47.7314H373.08C373.111 48.888 373.404 49.7663 373.961 50.3662C374.518 50.9661 375.306 51.2661 376.327 51.2661C376.871 51.2661 377.387 51.2197 377.876 51.127C378.365 51.028 378.937 50.8394 379.592 50.561V52.0269C379.029 52.2681 378.501 52.4382 378.006 52.5371C377.511 52.6361 376.927 52.6855 376.252 52.6855ZM375.835 43.4917C375.037 43.4917 374.406 43.7484 373.942 44.2617C373.479 44.7751 373.203 45.4894 373.117 46.4048H378.303C378.29 45.4523 378.071 44.7287 377.644 44.2339C377.217 43.7391 376.614 43.4917 375.835 43.4917ZM396.319 52.5L394.687 48.2974H389.306L387.691 52.5H385.966L391.263 38.8809H392.803L398.091 52.5H396.319ZM394.176 46.7852L392.655 42.6753L392.005 40.6436C391.82 41.3857 391.625 42.063 391.421 42.6753L389.881 46.7852H394.176ZM406.367 49.689C406.367 50.6414 406.011 51.3805 405.3 51.9062C404.589 52.4258 403.59 52.6855 402.303 52.6855C400.961 52.6855 399.894 52.4722 399.103 52.0454V50.5239C400.222 51.0682 401.301 51.3403 402.34 51.3403C403.181 51.3403 403.794 51.2043 404.177 50.9321C404.561 50.66 404.752 50.2951 404.752 49.8374C404.752 49.4354 404.567 49.0952 404.196 48.8169C403.831 48.5386 403.178 48.2201 402.238 47.8613C401.28 47.4902 400.605 47.1748 400.216 46.915C399.826 46.6491 399.539 46.3522 399.353 46.0244C399.174 45.6966 399.084 45.2977 399.084 44.8276C399.084 43.9927 399.424 43.334 400.104 42.8516C400.785 42.3691 401.719 42.1279 402.906 42.1279C404.063 42.1279 405.145 42.3568 406.153 42.8145L405.587 44.1411C404.555 43.7082 403.624 43.4917 402.795 43.4917C402.102 43.4917 401.576 43.603 401.218 43.8257C400.859 44.0422 400.68 44.3421 400.68 44.7256C400.68 45.0967 400.834 45.4059 401.144 45.6533C401.453 45.8945 402.173 46.2316 403.305 46.6646C404.153 46.98 404.777 47.2738 405.179 47.5459C405.587 47.818 405.887 48.1242 406.079 48.4644C406.271 48.8045 406.367 49.2127 406.367 49.689ZM415.477 49.689C415.477 50.6414 415.121 51.3805 414.41 51.9062C413.699 52.4258 412.7 52.6855 411.414 52.6855C410.071 52.6855 409.005 52.4722 408.213 52.0454V50.5239C409.332 51.0682 410.412 51.3403 411.451 51.3403C412.292 51.3403 412.904 51.2043 413.288 50.9321C413.671 50.66 413.863 50.2951 413.863 49.8374C413.863 49.4354 413.677 49.0952 413.306 48.8169C412.941 48.5386 412.289 48.2201 411.349 47.8613C410.39 47.4902 409.716 47.1748 409.326 46.915C408.937 46.6491 408.649 46.3522 408.463 46.0244C408.284 45.6966 408.194 45.2977 408.194 44.8276C408.194 43.9927 408.535 43.334 409.215 42.8516C409.895 42.3691 410.829 42.1279 412.017 42.1279C413.173 42.1279 414.256 42.3568 415.264 42.8145L414.698 44.1411C413.665 43.7082 412.734 43.4917 411.905 43.4917C411.213 43.4917 410.687 43.603 410.328 43.8257C409.969 44.0422 409.79 44.3421 409.79 44.7256C409.79 45.0967 409.945 45.4059 410.254 45.6533C410.563 45.8945 411.284 46.2316 412.416 46.6646C413.263 46.98 413.888 47.2738 414.29 47.5459C414.698 47.818 414.998 48.1242 415.189 48.4644C415.381 48.8045 415.477 49.2127 415.477 49.689ZM419.624 52.5H417.954V42.3135H419.624V52.5ZM417.824 39.5581C417.824 39.187 417.917 38.918 418.103 38.751C418.294 38.584 418.529 38.5005 418.808 38.5005C419.067 38.5005 419.293 38.584 419.485 38.751C419.683 38.918 419.782 39.187 419.782 39.5581C419.782 39.923 419.683 40.1921 419.485 40.3652C419.293 40.5384 419.067 40.625 418.808 40.625C418.529 40.625 418.294 40.5384 418.103 40.3652C417.917 40.1921 417.824 39.923 417.824 39.5581ZM426.73 51.3218C427.757 51.3218 428.502 51.0465 428.966 50.4961C429.436 49.9395 429.671 49.0488 429.671 47.8242V47.4253C429.671 46.0646 429.436 45.075 428.966 44.4565C428.496 43.8381 427.739 43.5288 426.693 43.5288C425.84 43.5288 425.178 43.869 424.708 44.5493C424.244 45.2235 424.012 46.1883 424.012 47.4438C424.012 48.7056 424.238 49.6673 424.689 50.3291C425.147 50.9909 425.827 51.3218 426.73 51.3218ZM429.653 52.4072L429.708 51.1548H429.634C428.948 52.1753 427.896 52.6855 426.48 52.6855C425.163 52.6855 424.133 52.2279 423.391 51.3125C422.655 50.391 422.287 49.0952 422.287 47.4253C422.287 45.7863 422.658 44.4937 423.4 43.5474C424.148 42.6011 425.169 42.1279 426.461 42.1279C427.841 42.1279 428.904 42.6413 429.653 43.668H429.755L429.978 42.3135H431.304V52.667C431.304 54.1266 430.933 55.2244 430.191 55.9604C429.455 56.6965 428.308 57.0645 426.749 57.0645C425.265 57.0645 424.043 56.848 423.084 56.415V54.875C424.074 55.4069 425.326 55.6729 426.842 55.6729C427.708 55.6729 428.391 55.4193 428.892 54.9121C429.399 54.4049 429.653 53.703 429.653 52.8062V52.4072ZM441.481 52.5V45.9873C441.481 45.1585 441.296 44.5431 440.925 44.1411C440.56 43.7329 439.985 43.5288 439.199 43.5288C438.154 43.5288 437.393 43.8195 436.917 44.4009C436.447 44.9761 436.212 45.9162 436.212 47.2212V52.5H434.542V42.3135H435.887L436.138 43.7051H436.23C436.546 43.2041 436.988 42.8175 437.557 42.5454C438.126 42.2671 438.754 42.1279 439.44 42.1279C440.69 42.1279 441.618 42.431 442.224 43.0371C442.83 43.6432 443.133 44.5864 443.133 45.8667V52.5H441.481ZM459.248 52.5V45.9409C459.248 44.3328 458.558 43.5288 457.179 43.5288C456.232 43.5288 455.537 43.804 455.091 44.3545C454.646 44.9049 454.423 45.7461 454.423 46.8779V52.5H452.763V45.9409C452.763 45.1369 452.593 44.5339 452.252 44.1318C451.918 43.7298 451.393 43.5288 450.675 43.5288C449.735 43.5288 449.046 43.8164 448.606 44.3916C448.174 44.9668 447.957 45.91 447.957 47.2212V52.5H446.287V42.3135H447.632L447.883 43.7051H447.976C448.266 43.2103 448.674 42.8237 449.2 42.5454C449.732 42.2671 450.326 42.1279 450.981 42.1279C452.577 42.1279 453.616 42.6969 454.099 43.835H454.191C454.519 43.2907 454.965 42.8701 455.527 42.5732C456.096 42.2764 456.74 42.1279 457.457 42.1279C458.607 42.1279 459.467 42.4248 460.036 43.0186C460.611 43.6123 460.899 44.5617 460.899 45.8667V52.5H459.248ZM468.395 52.6855C466.867 52.6855 465.667 52.2248 464.795 51.3032C463.93 50.3755 463.497 49.1014 463.497 47.481C463.497 45.8481 463.902 44.5493 464.712 43.5845C465.522 42.6134 466.617 42.1279 467.996 42.1279C469.276 42.1279 470.297 42.5423 471.058 43.3711C471.818 44.1937 472.199 45.3101 472.199 46.7202V47.7314H465.222C465.253 48.888 465.547 49.7663 466.104 50.3662C466.66 50.9661 467.449 51.2661 468.469 51.2661C469.014 51.2661 469.53 51.2197 470.019 51.127C470.507 51.028 471.079 50.8394 471.735 50.561V52.0269C471.172 52.2681 470.643 52.4382 470.148 52.5371C469.654 52.6361 469.069 52.6855 468.395 52.6855ZM467.978 43.4917C467.18 43.4917 466.549 43.7484 466.085 44.2617C465.621 44.7751 465.346 45.4894 465.259 46.4048H470.445C470.433 45.4523 470.213 44.7287 469.787 44.2339C469.36 43.7391 468.757 43.4917 467.978 43.4917ZM481.727 52.5V45.9873C481.727 45.1585 481.541 44.5431 481.17 44.1411C480.805 43.7329 480.23 43.5288 479.444 43.5288C478.399 43.5288 477.638 43.8195 477.162 44.4009C476.692 44.9761 476.457 45.9162 476.457 47.2212V52.5H474.787V42.3135H476.132L476.383 43.7051H476.476C476.791 43.2041 477.233 42.8175 477.802 42.5454C478.371 42.2671 478.999 42.1279 479.686 42.1279C480.935 42.1279 481.863 42.431 482.469 43.0371C483.075 43.6432 483.378 44.5864 483.378 45.8667V52.5H481.727ZM489.937 51.3218C490.153 51.3218 490.407 51.3001 490.698 51.2568C490.988 51.2135 491.208 51.1641 491.356 51.1084V52.3887C491.202 52.4567 490.961 52.5216 490.633 52.5835C490.311 52.6515 489.983 52.6855 489.649 52.6855C487.658 52.6855 486.662 51.6372 486.662 49.5405V43.6123H485.224V42.8145L486.681 42.1465L487.349 39.9756H488.341V42.3135H491.282V43.6123H488.341V49.4941C488.341 50.0817 488.48 50.5332 488.759 50.8486C489.043 51.1641 489.436 51.3218 489.937 51.3218ZM500.031 49.689C500.031 50.6414 499.675 51.3805 498.964 51.9062C498.253 52.4258 497.254 52.6855 495.967 52.6855C494.625 52.6855 493.558 52.4722 492.767 52.0454V50.5239C493.886 51.0682 494.965 51.3403 496.004 51.3403C496.846 51.3403 497.458 51.2043 497.841 50.9321C498.225 50.66 498.417 50.2951 498.417 49.8374C498.417 49.4354 498.231 49.0952 497.86 48.8169C497.495 48.5386 496.842 48.2201 495.902 47.8613C494.944 47.4902 494.27 47.1748 493.88 46.915C493.49 46.6491 493.203 46.3522 493.017 46.0244C492.838 45.6966 492.748 45.2977 492.748 44.8276C492.748 43.9927 493.088 43.334 493.769 42.8516C494.449 42.3691 495.383 42.1279 496.57 42.1279C497.727 42.1279 498.809 42.3568 499.817 42.8145L499.251 44.1411C498.219 43.7082 497.288 43.4917 496.459 43.4917C495.766 43.4917 495.241 43.603 494.882 43.8257C494.523 44.0422 494.344 44.3421 494.344 44.7256C494.344 45.0967 494.498 45.4059 494.808 45.6533C495.117 45.8945 495.837 46.2316 496.969 46.6646C497.817 46.98 498.441 47.2738 498.843 47.5459C499.251 47.818 499.551 48.1242 499.743 48.4644C499.935 48.8045 500.031 49.2127 500.031 49.689Z"></path>
<path fill="#E96969" d="M242.5 43.4995H275.366C275.918 43.4995 276.366 43.9475 276.366 44.4995V44.5625L275.366 43.5625H301.566V45.5625H275.366C274.814 45.5625 274.366 45.1145 274.366 44.5625V44.4995L275.366 45.4995H242.5V43.4995ZM300.232 40.5625L308.232 44.5625L300.232 48.5625V40.5625Z"></path>
<path stroke-linejoin="round" stroke-miterlimit="10" stroke="#0B233F" fill="#F3F5F8" d="M309 123.667C309 115.567 315.567 109 323.667 109H536.333C544.433 109 551 115.567 551 123.667V182.333C551 190.433 544.433 197 536.333 197H323.667C315.567 197 309 190.433 309 182.333V123.667Z" clip-rule="evenodd" fill-rule="evenodd"></path>
<path fill="#0B233F" d="M336.063 142.7C336.063 144.413 335.72 145.842 335.033 146.986C334.347 148.13 333.373 148.919 332.111 149.352L335.358 152.729H332.909L330.283 149.667L329.81 149.686C327.812 149.686 326.266 149.076 325.171 147.858C324.083 146.633 323.539 144.908 323.539 142.681C323.539 140.473 324.08 138.763 325.162 137.551C326.251 136.332 327.806 135.723 329.829 135.723C331.795 135.723 333.326 136.342 334.421 137.579C335.516 138.809 336.063 140.516 336.063 142.7ZM325.338 142.7C325.338 144.493 325.719 145.86 326.479 146.8C327.24 147.74 328.35 148.21 329.81 148.21C331.264 148.21 332.368 147.747 333.122 146.819C333.877 145.891 334.254 144.518 334.254 142.7C334.254 140.888 333.88 139.524 333.131 138.608C332.383 137.687 331.282 137.226 329.829 137.226C328.357 137.226 327.24 137.693 326.479 138.627C325.719 139.555 325.338 140.912 325.338 142.7ZM340.414 139.313V145.873C340.414 146.695 340.597 147.307 340.961 147.709C341.333 148.105 341.905 148.303 342.678 148.303C343.723 148.303 344.484 148.013 344.96 147.431C345.436 146.85 345.674 145.913 345.674 144.62V139.313H347.354V149.5H345.98L345.739 148.155H345.656C345.353 148.643 344.923 149.021 344.366 149.287C343.81 149.553 343.163 149.686 342.427 149.686C341.203 149.686 340.278 149.392 339.653 148.804C339.035 148.217 338.726 147.277 338.726 145.984V139.313H340.414ZM352.252 149.5H350.582V139.313H352.252V149.5ZM350.452 136.558C350.452 136.187 350.545 135.918 350.73 135.751C350.922 135.584 351.157 135.5 351.436 135.5C351.695 135.5 351.921 135.584 352.113 135.751C352.311 135.918 352.41 136.187 352.41 136.558C352.41 136.923 352.311 137.192 352.113 137.365C351.921 137.538 351.695 137.625 351.436 137.625C351.157 137.625 350.922 137.538 350.73 137.365C350.545 137.192 350.452 136.923 350.452 136.558ZM359.562 149.686C358.097 149.686 356.956 149.237 356.139 148.34C355.323 147.437 354.915 146.145 354.915 144.462C354.915 142.755 355.326 141.441 356.148 140.52C356.977 139.592 358.155 139.128 359.683 139.128C360.178 139.128 360.667 139.181 361.149 139.286C361.638 139.385 362.04 139.514 362.355 139.675L361.845 141.067C360.985 140.745 360.252 140.584 359.646 140.584C358.619 140.584 357.862 140.909 357.373 141.559C356.884 142.202 356.64 143.164 356.64 144.444C356.64 145.675 356.884 146.618 357.373 147.273C357.862 147.923 358.585 148.248 359.544 148.248C360.441 148.248 361.322 148.05 362.188 147.654V149.138C361.483 149.503 360.608 149.686 359.562 149.686ZM366.261 144.258L366.827 143.535L367.476 142.755L370.732 139.313H372.681L368.562 143.665L372.968 149.5H370.955L367.42 144.75L366.261 145.761V149.5H364.609V135.064H366.261V142.607L366.187 144.258H366.261ZM388.434 149.5L386.801 145.297H381.42L379.806 149.5H378.08L383.377 135.881H384.917L390.206 149.5H388.434ZM386.291 143.785L384.769 139.675L384.12 137.644C383.934 138.386 383.739 139.063 383.535 139.675L381.995 143.785H386.291ZM398.481 146.689C398.481 147.641 398.125 148.381 397.414 148.906C396.703 149.426 395.704 149.686 394.417 149.686C393.075 149.686 392.008 149.472 391.217 149.045V147.524C392.336 148.068 393.416 148.34 394.455 148.34C395.296 148.34 395.908 148.204 396.292 147.932C396.675 147.66 396.867 147.295 396.867 146.837C396.867 146.435 396.681 146.095 396.31 145.817C395.945 145.539 395.293 145.22 394.353 144.861C393.394 144.49 392.72 144.175 392.33 143.915C391.94 143.649 391.653 143.352 391.467 143.024C391.288 142.697 391.198 142.298 391.198 141.828C391.198 140.993 391.538 140.334 392.219 139.852C392.899 139.369 393.833 139.128 395.021 139.128C396.177 139.128 397.259 139.357 398.268 139.814L397.702 141.141C396.669 140.708 395.738 140.492 394.909 140.492C394.216 140.492 393.691 140.603 393.332 140.826C392.973 141.042 392.794 141.342 392.794 141.726C392.794 142.097 392.949 142.406 393.258 142.653C393.567 142.895 394.288 143.232 395.419 143.665C396.267 143.98 396.891 144.274 397.293 144.546C397.702 144.818 398.002 145.124 398.193 145.464C398.385 145.805 398.481 146.213 398.481 146.689ZM407.591 146.689C407.591 147.641 407.236 148.381 406.524 148.906C405.813 149.426 404.814 149.686 403.528 149.686C402.186 149.686 401.119 149.472 400.327 149.045V147.524C401.447 148.068 402.526 148.34 403.565 148.34C404.406 148.34 405.018 148.204 405.402 147.932C405.785 147.66 405.977 147.295 405.977 146.837C405.977 146.435 405.792 146.095 405.42 145.817C405.056 145.539 404.403 145.22 403.463 144.861C402.504 144.49 401.83 144.175 401.44 143.915C401.051 143.649 400.763 143.352 400.578 143.024C400.398 142.697 400.309 142.298 400.309 141.828C400.309 140.993 400.649 140.334 401.329 139.852C402.009 139.369 402.943 139.128 404.131 139.128C405.287 139.128 406.37 139.357 407.378 139.814L406.812 141.141C405.779 140.708 404.848 140.492 404.02 140.492C403.327 140.492 402.801 140.603 402.442 140.826C402.084 141.042 401.904 141.342 401.904 141.726C401.904 142.097 402.059 142.406 402.368 142.653C402.677 142.895 403.398 143.232 404.53 143.665C405.377 143.98 406.002 144.274 406.404 144.546C406.812 144.818 407.112 145.124 407.304 145.464C407.495 145.805 407.591 146.213 407.591 146.689ZM411.738 149.5H410.068V139.313H411.738V149.5ZM409.938 136.558C409.938 136.187 410.031 135.918 410.217 135.751C410.409 135.584 410.644 135.5 410.922 135.5C411.182 135.5 411.407 135.584 411.599 135.751C411.797 135.918 411.896 136.187 411.896 136.558C411.896 136.923 411.797 137.192 411.599 137.365C411.407 137.538 411.182 137.625 410.922 137.625C410.644 137.625 410.409 137.538 410.217 137.365C410.031 137.192 409.938 136.923 409.938 136.558ZM418.845 148.322C419.871 148.322 420.617 148.047 421.081 147.496C421.551 146.939 421.786 146.049 421.786 144.824V144.425C421.786 143.065 421.551 142.075 421.081 141.457C420.611 140.838 419.853 140.529 418.808 140.529C417.954 140.529 417.292 140.869 416.822 141.549C416.358 142.223 416.126 143.188 416.126 144.444C416.126 145.706 416.352 146.667 416.804 147.329C417.261 147.991 417.942 148.322 418.845 148.322ZM421.767 149.407L421.823 148.155H421.749C421.062 149.175 420.011 149.686 418.594 149.686C417.277 149.686 416.247 149.228 415.505 148.312C414.769 147.391 414.401 146.095 414.401 144.425C414.401 142.786 414.772 141.494 415.514 140.547C416.263 139.601 417.283 139.128 418.576 139.128C419.955 139.128 421.019 139.641 421.767 140.668H421.869L422.092 139.313H423.418V149.667C423.418 151.127 423.047 152.224 422.305 152.96C421.569 153.696 420.422 154.064 418.863 154.064C417.379 154.064 416.157 153.848 415.199 153.415V151.875C416.188 152.407 417.441 152.673 418.956 152.673C419.822 152.673 420.505 152.419 421.006 151.912C421.514 151.405 421.767 150.703 421.767 149.806V149.407ZM433.596 149.5V142.987C433.596 142.159 433.41 141.543 433.039 141.141C432.674 140.733 432.099 140.529 431.313 140.529C430.268 140.529 429.507 140.819 429.031 141.401C428.561 141.976 428.326 142.916 428.326 144.221V149.5H426.656V139.313H428.001L428.252 140.705H428.345C428.66 140.204 429.102 139.818 429.671 139.545C430.24 139.267 430.868 139.128 431.555 139.128C432.804 139.128 433.732 139.431 434.338 140.037C434.944 140.643 435.247 141.586 435.247 142.867V149.5H433.596Z"></path>
<path fill="#0B233F" d="M332.732 171.5L331.1 167.297H325.719L324.104 171.5H322.379L327.676 157.881H329.216L334.504 171.5H332.732ZM330.589 165.785L329.068 161.675L328.418 159.644C328.233 160.386 328.038 161.063 327.834 161.675L326.294 165.785H330.589ZM340.229 171.686C338.763 171.686 337.622 171.237 336.805 170.34C335.989 169.437 335.581 168.145 335.581 166.462C335.581 164.755 335.992 163.441 336.814 162.52C337.643 161.592 338.821 161.128 340.349 161.128C340.844 161.128 341.333 161.181 341.815 161.286C342.304 161.385 342.706 161.514 343.021 161.675L342.511 163.067C341.651 162.745 340.918 162.584 340.312 162.584C339.285 162.584 338.528 162.909 338.039 163.559C337.55 164.202 337.306 165.164 337.306 166.444C337.306 167.675 337.55 168.618 338.039 169.273C338.528 169.923 339.251 170.248 340.21 170.248C341.107 170.248 341.988 170.05 342.854 169.654V171.138C342.149 171.503 341.274 171.686 340.229 171.686ZM348.68 170.322C348.897 170.322 349.15 170.3 349.441 170.257C349.732 170.214 349.951 170.164 350.1 170.108V171.389C349.945 171.457 349.704 171.522 349.376 171.583C349.054 171.652 348.727 171.686 348.393 171.686C346.401 171.686 345.405 170.637 345.405 168.541V162.612H343.967V161.814L345.424 161.146L346.092 158.976H347.084V161.313H350.025V162.612H347.084V168.494C347.084 169.082 347.224 169.533 347.502 169.849C347.786 170.164 348.179 170.322 348.68 170.322ZM353.811 171.5H352.141V161.313H353.811V171.5ZM352.011 158.558C352.011 158.187 352.104 157.918 352.289 157.751C352.481 157.584 352.716 157.5 352.994 157.5C353.254 157.5 353.48 157.584 353.671 157.751C353.869 157.918 353.968 158.187 353.968 158.558C353.968 158.923 353.869 159.192 353.671 159.365C353.48 159.538 353.254 159.625 352.994 159.625C352.716 159.625 352.481 159.538 352.289 159.365C352.104 159.192 352.011 158.923 352.011 158.558ZM359.284 171.5L355.425 161.313H357.215L359.377 167.316C359.804 168.522 360.076 169.422 360.193 170.016H360.268C360.286 169.935 360.308 169.846 360.333 169.747C360.363 169.641 360.397 169.53 360.435 169.413C360.472 169.289 360.701 168.59 361.121 167.316L363.292 161.313H365.073L361.205 171.5H359.284ZM368.357 171.5H366.688V161.313H368.357V171.5ZM366.558 158.558C366.558 158.187 366.65 157.918 366.836 157.751C367.028 157.584 367.263 157.5 367.541 157.5C367.801 157.5 368.027 157.584 368.218 157.751C368.416 157.918 368.515 158.187 368.515 158.558C368.515 158.923 368.416 159.192 368.218 159.365C368.027 159.538 367.801 159.625 367.541 159.625C367.263 159.625 367.028 159.538 366.836 159.365C366.65 159.192 366.558 158.923 366.558 158.558ZM374.991 170.322C375.207 170.322 375.461 170.3 375.751 170.257C376.042 170.214 376.262 170.164 376.41 170.108V171.389C376.256 171.457 376.014 171.522 375.687 171.583C375.365 171.652 375.037 171.686 374.703 171.686C372.712 171.686 371.716 170.637 371.716 168.541V162.612H370.278V161.814L371.734 161.146L372.402 158.976H373.395V161.313H376.336V162.612H373.395V168.494C373.395 169.082 373.534 169.533 373.812 169.849C374.097 170.164 374.49 170.322 374.991 170.322ZM380.121 171.5H378.451V161.313H380.121V171.5ZM378.321 158.558C378.321 158.187 378.414 157.918 378.6 157.751C378.791 157.584 379.026 157.5 379.305 157.5C379.564 157.5 379.79 157.584 379.982 157.751C380.18 157.918 380.279 158.187 380.279 158.558C380.279 158.923 380.18 159.192 379.982 159.365C379.79 159.538 379.564 159.625 379.305 159.625C379.026 159.625 378.791 159.538 378.6 159.365C378.414 159.192 378.321 158.923 378.321 158.558ZM387.682 171.686C386.154 171.686 384.955 171.225 384.083 170.303C383.217 169.375 382.784 168.101 382.784 166.481C382.784 164.848 383.189 163.549 383.999 162.584C384.809 161.613 385.904 161.128 387.283 161.128C388.563 161.128 389.584 161.542 390.345 162.371C391.105 163.194 391.486 164.31 391.486 165.72V166.731H384.509C384.54 167.888 384.834 168.766 385.391 169.366C385.947 169.966 386.736 170.266 387.756 170.266C388.301 170.266 388.817 170.22 389.306 170.127C389.794 170.028 390.366 169.839 391.022 169.561V171.027C390.459 171.268 389.93 171.438 389.436 171.537C388.941 171.636 388.356 171.686 387.682 171.686ZM387.265 162.492C386.467 162.492 385.836 162.748 385.372 163.262C384.908 163.775 384.633 164.489 384.546 165.405H389.732C389.72 164.452 389.5 163.729 389.074 163.234C388.647 162.739 388.044 162.492 387.265 162.492ZM400.708 168.689C400.708 169.641 400.352 170.381 399.641 170.906C398.929 171.426 397.931 171.686 396.644 171.686C395.302 171.686 394.235 171.472 393.443 171.045V169.524C394.563 170.068 395.642 170.34 396.681 170.34C397.522 170.34 398.135 170.204 398.518 169.932C398.902 169.66 399.093 169.295 399.093 168.837C399.093 168.435 398.908 168.095 398.537 167.817C398.172 167.539 397.519 167.22 396.579 166.861C395.62 166.49 394.946 166.175 394.557 165.915C394.167 165.649 393.879 165.352 393.694 165.024C393.514 164.697 393.425 164.298 393.425 163.828C393.425 162.993 393.765 162.334 394.445 161.852C395.126 161.369 396.06 161.128 397.247 161.128C398.404 161.128 399.486 161.357 400.494 161.814L399.928 163.141C398.895 162.708 397.965 162.492 397.136 162.492C396.443 162.492 395.917 162.603 395.559 162.826C395.2 163.042 395.021 163.342 395.021 163.726C395.021 164.097 395.175 164.406 395.484 164.653C395.794 164.895 396.514 165.232 397.646 165.665C398.493 165.98 399.118 166.274 399.52 166.546C399.928 166.818 400.228 167.124 400.42 167.464C400.612 167.805 400.708 168.213 400.708 168.689ZM408.927 155.682L403.945 174.645H402.368L407.369 155.682H408.927ZM423.418 164.7C423.418 166.413 423.075 167.842 422.389 168.986C421.702 170.13 420.728 170.919 419.466 171.352L422.713 174.729H420.264L417.639 171.667L417.166 171.686C415.168 171.686 413.622 171.076 412.527 169.858C411.438 168.633 410.894 166.908 410.894 164.681C410.894 162.473 411.435 160.763 412.518 159.551C413.606 158.332 415.162 157.723 417.184 157.723C419.151 157.723 420.682 158.342 421.776 159.579C422.871 160.809 423.418 162.516 423.418 164.7ZM412.694 164.7C412.694 166.493 413.074 167.86 413.835 168.8C414.596 169.74 415.706 170.21 417.166 170.21C418.619 170.21 419.723 169.747 420.478 168.819C421.232 167.891 421.609 166.518 421.609 164.7C421.609 162.888 421.235 161.524 420.487 160.608C419.738 159.687 418.638 159.226 417.184 159.226C415.712 159.226 414.596 159.693 413.835 160.627C413.074 161.555 412.694 162.912 412.694 164.7ZM427.77 161.313V167.873C427.77 168.695 427.952 169.307 428.317 169.709C428.688 170.105 429.26 170.303 430.033 170.303C431.078 170.303 431.839 170.013 432.315 169.431C432.792 168.85 433.03 167.913 433.03 166.62V161.313H434.709V171.5H433.336L433.095 170.155H433.011C432.708 170.643 432.278 171.021 431.722 171.287C431.165 171.553 430.519 171.686 429.783 171.686C428.558 171.686 427.633 171.392 427.009 170.804C426.39 170.217 426.081 169.277 426.081 167.984V161.313H427.77ZM439.607 171.5H437.938V161.313H439.607V171.5ZM437.808 158.558C437.808 158.187 437.9 157.918 438.086 157.751C438.278 157.584 438.513 157.5 438.791 157.5C439.051 157.5 439.277 157.584 439.468 157.751C439.666 157.918 439.765 158.187 439.765 158.558C439.765 158.923 439.666 159.192 439.468 159.365C439.277 159.538 439.051 159.625 438.791 159.625C438.513 159.625 438.278 159.538 438.086 159.365C437.9 159.192 437.808 158.923 437.808 158.558ZM449.414 171.5H441.964V170.396L447.438 162.612H442.289V161.313H449.274V162.566L443.884 170.21H449.414V171.5ZM458.357 171.5H450.907V170.396L456.381 162.612H451.232V161.313H458.218V162.566L452.828 170.21H458.357V171.5ZM465.055 171.686C463.528 171.686 462.328 171.225 461.456 170.303C460.59 169.375 460.157 168.101 460.157 166.481C460.157 164.848 460.562 163.549 461.372 162.584C462.182 161.613 463.277 161.128 464.656 161.128C465.937 161.128 466.957 161.542 467.718 162.371C468.479 163.194 468.859 164.31 468.859 165.72V166.731H461.882C461.913 167.888 462.207 168.766 462.764 169.366C463.32 169.966 464.109 170.266 465.129 170.266C465.674 170.266 466.19 170.22 466.679 170.127C467.167 170.028 467.739 169.839 468.395 169.561V171.027C467.832 171.268 467.303 171.438 466.809 171.537C466.314 171.636 465.729 171.686 465.055 171.686ZM464.638 162.492C463.84 162.492 463.209 162.748 462.745 163.262C462.281 163.775 462.006 164.489 461.919 165.405H467.105C467.093 164.452 466.874 163.729 466.447 163.234C466.02 162.739 465.417 162.492 464.638 162.492ZM478.081 168.689C478.081 169.641 477.725 170.381 477.014 170.906C476.302 171.426 475.304 171.686 474.017 171.686C472.675 171.686 471.608 171.472 470.816 171.045V169.524C471.936 170.068 473.015 170.34 474.054 170.34C474.895 170.34 475.508 170.204 475.891 169.932C476.275 169.66 476.466 169.295 476.466 168.837C476.466 168.435 476.281 168.095 475.91 167.817C475.545 167.539 474.892 167.22 473.952 166.861C472.993 166.49 472.319 166.175 471.93 165.915C471.54 165.649 471.252 165.352 471.067 165.024C470.888 164.697 470.798 164.298 470.798 163.828C470.798 162.993 471.138 162.334 471.818 161.852C472.499 161.369 473.433 161.128 474.62 161.128C475.777 161.128 476.859 161.357 477.867 161.814L477.301 163.141C476.268 162.708 475.338 162.492 474.509 162.492C473.816 162.492 473.29 162.603 472.932 162.826C472.573 163.042 472.394 163.342 472.394 163.726C472.394 164.097 472.548 164.406 472.857 164.653C473.167 164.895 473.887 165.232 475.019 165.665C475.866 165.98 476.491 166.274 476.893 166.546C477.301 166.818 477.601 167.124 477.793 167.464C477.985 167.805 478.081 168.213 478.081 168.689Z"></path>
<path stroke-linejoin="round" stroke-miterlimit="10" stroke="#0B233F" fill="#F3F5F8" d="M309 231.667C309 223.567 315.567 217 323.667 217H536.333C544.433 217 551 223.567 551 231.667V290.333C551 298.433 544.433 305 536.333 305H323.667C315.567 305 309 298.433 309 290.333V231.667Z" clip-rule="evenodd" fill-rule="evenodd"></path>
<path fill="#0B233F" d="M332.732 257.5L331.1 253.297H325.719L324.104 257.5H322.379L327.676 243.881H329.216L334.504 257.5H332.732ZM330.589 251.785L329.068 247.675L328.418 245.644C328.233 246.386 328.038 247.063 327.834 247.675L326.294 251.785H330.589ZM342.78 254.689C342.78 255.641 342.424 256.381 341.713 256.906C341.002 257.426 340.003 257.686 338.716 257.686C337.374 257.686 336.307 257.472 335.516 257.045V255.524C336.635 256.068 337.714 256.34 338.753 256.34C339.595 256.34 340.207 256.204 340.59 255.932C340.974 255.66 341.166 255.295 341.166 254.837C341.166 254.435 340.98 254.095 340.609 253.817C340.244 253.539 339.591 253.22 338.651 252.861C337.693 252.49 337.019 252.175 336.629 251.915C336.239 251.649 335.952 251.352 335.766 251.024C335.587 250.697 335.497 250.298 335.497 249.828C335.497 248.993 335.837 248.334 336.518 247.852C337.198 247.369 338.132 247.128 339.319 247.128C340.476 247.128 341.558 247.357 342.566 247.814L342 249.141C340.968 248.708 340.037 248.492 339.208 248.492C338.515 248.492 337.99 248.603 337.631 248.826C337.272 249.042 337.093 249.342 337.093 249.726C337.093 250.097 337.247 250.406 337.557 250.653C337.866 250.895 338.586 251.232 339.718 251.665C340.566 251.98 341.19 252.274 341.592 252.546C342 252.818 342.3 253.124 342.492 253.464C342.684 253.805 342.78 254.213 342.78 254.689ZM351.89 254.689C351.89 255.641 351.535 256.381 350.823 256.906C350.112 257.426 349.113 257.686 347.827 257.686C346.485 257.686 345.418 257.472 344.626 257.045V255.524C345.745 256.068 346.825 256.34 347.864 256.34C348.705 256.34 349.317 256.204 349.701 255.932C350.084 255.66 350.276 255.295 350.276 254.837C350.276 254.435 350.09 254.095 349.719 253.817C349.354 253.539 348.702 253.22 347.762 252.861C346.803 252.49 346.129 252.175 345.739 251.915C345.35 251.649 345.062 251.352 344.876 251.024C344.697 250.697 344.607 250.298 344.607 249.828C344.607 248.993 344.948 248.334 345.628 247.852C346.308 247.369 347.242 247.128 348.43 247.128C349.586 247.128 350.669 247.357 351.677 247.814L351.111 249.141C350.078 248.708 349.147 248.492 348.318 248.492C347.626 248.492 347.1 248.603 346.741 248.826C346.382 249.042 346.203 249.342 346.203 249.726C346.203 250.097 346.358 250.406 346.667 250.653C346.976 250.895 347.697 251.232 348.829 251.665C349.676 251.98 350.301 252.274 350.703 252.546C351.111 252.818 351.411 253.124 351.603 253.464C351.794 253.805 351.89 254.213 351.89 254.689ZM356.037 257.5H354.367V247.313H356.037V257.5ZM354.237 244.558C354.237 244.187 354.33 243.918 354.516 243.751C354.707 243.584 354.942 243.5 355.221 243.5C355.48 243.5 355.706 243.584 355.898 243.751C356.096 243.918 356.195 244.187 356.195 244.558C356.195 244.923 356.096 245.192 355.898 245.365C355.706 245.538 355.48 245.625 355.221 245.625C354.942 245.625 354.707 245.538 354.516 245.365C354.33 245.192 354.237 244.923 354.237 244.558ZM363.144 256.322C364.17 256.322 364.916 256.047 365.379 255.496C365.849 254.939 366.084 254.049 366.084 252.824V252.425C366.084 251.065 365.849 250.075 365.379 249.457C364.909 248.838 364.152 248.529 363.106 248.529C362.253 248.529 361.591 248.869 361.121 249.549C360.657 250.223 360.425 251.188 360.425 252.444C360.425 253.706 360.651 254.667 361.103 255.329C361.56 255.991 362.241 256.322 363.144 256.322ZM366.066 257.407L366.122 256.155H366.047C365.361 257.175 364.309 257.686 362.893 257.686C361.576 257.686 360.546 257.228 359.804 256.312C359.068 255.391 358.7 254.095 358.7 252.425C358.7 250.786 359.071 249.494 359.813 248.547C360.561 247.601 361.582 247.128 362.875 247.128C364.254 247.128 365.318 247.641 366.066 248.668H366.168L366.391 247.313H367.717V257.667C367.717 259.127 367.346 260.224 366.604 260.96C365.868 261.696 364.721 262.064 363.162 262.064C361.678 262.064 360.456 261.848 359.498 261.415V259.875C360.487 260.407 361.74 260.673 363.255 260.673C364.121 260.673 364.804 260.419 365.305 259.912C365.812 259.405 366.066 258.703 366.066 257.806V257.407ZM377.895 257.5V250.987C377.895 250.159 377.709 249.543 377.338 249.141C376.973 248.733 376.398 248.529 375.612 248.529C374.567 248.529 373.806 248.819 373.33 249.401C372.86 249.976 372.625 250.916 372.625 252.221V257.5H370.955V247.313H372.3L372.551 248.705H372.644C372.959 248.204 373.401 247.818 373.97 247.545C374.539 247.267 375.167 247.128 375.854 247.128C377.103 247.128 378.031 247.431 378.637 248.037C379.243 248.643 379.546 249.586 379.546 250.867V257.5H377.895ZM392.33 248.612H389.76V257.5H388.09V248.612H386.309V247.833L388.09 247.258V246.673C388.09 245.436 388.359 244.509 388.897 243.89C389.442 243.272 390.277 242.962 391.402 242.962C392.052 242.962 392.71 243.077 393.378 243.306L392.933 244.614C392.358 244.428 391.854 244.335 391.421 244.335C390.858 244.335 390.441 244.521 390.168 244.892C389.896 245.263 389.76 245.851 389.76 246.655V247.313H392.33V248.612ZM398.936 247.128C399.387 247.128 399.786 247.165 400.132 247.239L399.928 248.779C399.551 248.693 399.183 248.649 398.824 248.649C398.286 248.649 397.785 248.798 397.321 249.095C396.864 249.392 396.505 249.803 396.245 250.329C395.985 250.848 395.855 251.426 395.855 252.063V257.5H394.186V247.313H395.559L395.744 249.178H395.818C396.208 248.504 396.669 247.994 397.201 247.647C397.733 247.301 398.311 247.128 398.936 247.128ZM410.699 252.388C410.699 254.052 410.279 255.351 409.438 256.285C408.596 257.219 407.434 257.686 405.949 257.686C405.028 257.686 404.211 257.472 403.5 257.045C402.789 256.612 402.241 255.994 401.858 255.19C401.474 254.386 401.283 253.452 401.283 252.388C401.283 250.731 401.697 249.441 402.526 248.52C403.355 247.592 404.517 247.128 406.014 247.128C407.449 247.128 408.587 247.601 409.428 248.547C410.276 249.487 410.699 250.768 410.699 252.388ZM403.008 252.388C403.008 253.668 403.259 254.643 403.76 255.311C404.267 255.972 405.012 256.303 405.996 256.303C406.967 256.303 407.706 255.972 408.213 255.311C408.72 254.643 408.974 253.668 408.974 252.388C408.974 251.108 408.717 250.146 408.204 249.503C407.696 248.854 406.951 248.529 405.968 248.529C403.995 248.529 403.008 249.815 403.008 252.388ZM426.313 257.5V250.941C426.313 249.333 425.623 248.529 424.244 248.529C423.298 248.529 422.602 248.804 422.157 249.354C421.711 249.905 421.489 250.746 421.489 251.878V257.5H419.828V250.941C419.828 250.137 419.658 249.534 419.318 249.132C418.984 248.73 418.458 248.529 417.741 248.529C416.801 248.529 416.111 248.816 415.672 249.392C415.239 249.967 415.022 250.91 415.022 252.221V257.5H413.353V247.313H414.698L414.948 248.705H415.041C415.332 248.21 415.74 247.824 416.266 247.545C416.798 247.267 417.391 247.128 418.047 247.128C419.643 247.128 420.682 247.697 421.164 248.835H421.257C421.585 248.291 422.03 247.87 422.593 247.573C423.162 247.276 423.805 247.128 424.522 247.128C425.673 247.128 426.533 247.425 427.102 248.019C427.677 248.612 427.964 249.562 427.964 250.867V257.5H426.313ZM442.279 257.5L437.808 245.606H437.733C437.826 246.596 437.873 247.818 437.873 249.271V257.5H436.295V243.937H438.819L443.003 255.051H443.077L447.335 243.937H449.84V257.5H448.152V249.16C448.152 248.232 448.195 247.054 448.282 245.625H448.208L443.68 257.5H442.279ZM465.371 250.7C465.371 252.871 464.82 254.578 463.719 255.821C462.625 257.064 461.091 257.686 459.118 257.686C457.12 257.686 455.574 257.076 454.479 255.858C453.39 254.633 452.846 252.908 452.846 250.681C452.846 248.473 453.387 246.763 454.47 245.551C455.558 244.332 457.114 243.723 459.136 243.723C461.103 243.723 462.634 244.342 463.729 245.579C464.823 246.809 465.371 248.516 465.371 250.7ZM454.646 250.7C454.646 252.493 455.026 253.86 455.787 254.8C456.548 255.74 457.658 256.21 459.118 256.21C460.571 256.21 461.675 255.747 462.43 254.819C463.184 253.891 463.562 252.518 463.562 250.7C463.562 248.888 463.187 247.524 462.439 246.608C461.691 245.687 460.59 245.226 459.136 245.226C457.664 245.226 456.548 245.693 455.787 246.627C455.026 247.555 454.646 248.912 454.646 250.7ZM475.956 257.5H468.376V243.937H475.956V245.439H470.083V249.67H475.613V251.154H470.083V255.997H475.956V257.5Z"></path>
<path fill="#0B233F" d="M324.225 279.5V265.937H325.932V277.979H331.86V279.5H324.225ZM335.627 279.5H333.957V269.313H335.627V279.5ZM333.827 266.558C333.827 266.187 333.92 265.918 334.105 265.751C334.297 265.584 334.532 265.5 334.811 265.5C335.07 265.5 335.296 265.584 335.488 265.751C335.686 265.918 335.785 266.187 335.785 266.558C335.785 266.923 335.686 267.192 335.488 267.365C335.296 267.538 335.07 267.625 334.811 267.625C334.532 267.625 334.297 267.538 334.105 267.365C333.92 267.192 333.827 266.923 333.827 266.558ZM343.68 269.146C345.022 269.146 346.058 269.61 346.788 270.538C347.517 271.46 347.882 272.749 347.882 274.407C347.882 276.089 347.511 277.391 346.769 278.312C346.027 279.228 344.997 279.686 343.68 279.686C342.993 279.686 342.381 279.562 341.843 279.314C341.305 279.067 340.866 278.699 340.525 278.21H340.396C340.204 278.953 340.089 279.382 340.052 279.5H338.855V265.064H340.525V268.571C340.525 269.27 340.494 269.969 340.433 270.668H340.525C341.212 269.654 342.263 269.146 343.68 269.146ZM343.401 270.529C342.375 270.529 341.639 270.819 341.193 271.401C340.748 271.982 340.525 272.966 340.525 274.351V274.425C340.525 275.817 340.751 276.813 341.203 277.413C341.66 278.006 342.406 278.303 343.438 278.303C344.354 278.303 345.034 277.969 345.479 277.301C345.931 276.627 346.157 275.656 346.157 274.388C346.157 273.102 345.931 272.137 345.479 271.494C345.028 270.85 344.335 270.529 343.401 270.529ZM355.295 269.128C355.746 269.128 356.145 269.165 356.492 269.239L356.288 270.779C355.91 270.693 355.542 270.649 355.184 270.649C354.646 270.649 354.145 270.798 353.681 271.095C353.223 271.392 352.864 271.803 352.604 272.329C352.345 272.848 352.215 273.426 352.215 274.063V279.5H350.545V269.313H351.918L352.104 271.178H352.178C352.567 270.504 353.028 269.994 353.56 269.647C354.092 269.301 354.67 269.128 355.295 269.128ZM364.498 279.5L364.173 278.053H364.099C363.592 278.69 363.085 279.123 362.578 279.352C362.077 279.574 361.443 279.686 360.676 279.686C359.674 279.686 358.888 279.423 358.319 278.897C357.75 278.371 357.466 277.629 357.466 276.67C357.466 274.605 359.096 273.522 362.355 273.423L364.081 273.358V272.755C364.081 271.982 363.914 271.413 363.58 271.048C363.246 270.677 362.711 270.492 361.975 270.492C361.437 270.492 360.926 270.572 360.444 270.733C359.968 270.894 359.519 271.073 359.099 271.271L358.588 270.019C359.102 269.746 359.661 269.533 360.268 269.378C360.874 269.224 361.474 269.146 362.067 269.146C363.298 269.146 364.214 269.419 364.813 269.963C365.413 270.507 365.713 271.373 365.713 272.561V279.5H364.498ZM361.056 278.34C361.99 278.34 362.723 278.09 363.255 277.589C363.793 277.082 364.062 276.364 364.062 275.437V274.518L362.559 274.583C361.39 274.626 360.537 274.812 359.999 275.14C359.467 275.467 359.201 275.984 359.201 276.689C359.201 277.221 359.361 277.629 359.683 277.914C360.011 278.198 360.469 278.34 361.056 278.34ZM373.627 269.128C374.078 269.128 374.477 269.165 374.824 269.239L374.62 270.779C374.242 270.693 373.874 270.649 373.516 270.649C372.978 270.649 372.477 270.798 372.013 271.095C371.555 271.392 371.196 271.803 370.937 272.329C370.677 272.848 370.547 273.426 370.547 274.063V279.5H368.877V269.313H370.25L370.436 271.178H370.51C370.899 270.504 371.36 269.994 371.892 269.647C372.424 269.301 373.002 269.128 373.627 269.128ZM375.13 269.313H376.92L379.119 275.112C379.583 276.374 379.868 277.298 379.973 277.886H380.047C380.103 277.657 380.229 277.23 380.427 276.605C380.625 275.975 380.792 275.471 380.928 275.093L382.997 269.313H384.797L380.409 280.91C379.982 282.036 379.475 282.843 378.887 283.332C378.3 283.82 377.573 284.064 376.707 284.064C376.243 284.064 375.782 284.012 375.325 283.907V282.58C375.634 282.654 376.005 282.691 376.438 282.691C376.97 282.691 377.421 282.543 377.792 282.246C378.164 281.955 378.467 281.504 378.702 280.892L379.23 279.537L375.13 269.313ZM397.562 279.5L393.091 267.606H393.017C393.109 268.596 393.156 269.818 393.156 271.271V279.5H391.579V265.937H394.102L398.286 277.051H398.36L402.619 265.937H405.124V279.5H403.435V271.16C403.435 270.232 403.478 269.054 403.565 267.625H403.491L398.963 279.5H397.562ZM417.435 274.388C417.435 276.052 417.014 277.351 416.173 278.285C415.332 279.219 414.169 279.686 412.685 279.686C411.763 279.686 410.947 279.472 410.235 279.045C409.524 278.612 408.977 277.994 408.593 277.19C408.21 276.386 408.018 275.452 408.018 274.388C408.018 272.731 408.432 271.441 409.261 270.52C410.09 269.592 411.253 269.128 412.75 269.128C414.184 269.128 415.322 269.601 416.164 270.547C417.011 271.487 417.435 272.768 417.435 274.388ZM409.744 274.388C409.744 275.668 409.994 276.643 410.495 277.311C411.002 277.972 411.748 278.303 412.731 278.303C413.702 278.303 414.441 277.972 414.948 277.311C415.455 276.643 415.709 275.668 415.709 274.388C415.709 273.108 415.452 272.146 414.939 271.503C414.432 270.854 413.687 270.529 412.703 270.529C410.73 270.529 409.744 271.815 409.744 274.388ZM423.697 279.686C422.373 279.686 421.347 279.228 420.617 278.312C419.887 277.397 419.522 276.101 419.522 274.425C419.522 272.762 419.887 271.463 420.617 270.529C421.353 269.595 422.386 269.128 423.715 269.128C425.082 269.128 426.134 269.629 426.87 270.631H426.99C426.972 270.507 426.947 270.26 426.916 269.889C426.885 269.511 426.87 269.258 426.87 269.128V265.064H428.54V279.5H427.194L426.944 278.136H426.87C426.158 279.169 425.101 279.686 423.697 279.686ZM423.966 278.303C424.98 278.303 425.719 278.028 426.183 277.478C426.653 276.921 426.888 276.012 426.888 274.75V274.444C426.888 273.028 426.65 272.019 426.174 271.419C425.704 270.813 424.962 270.51 423.947 270.51C423.088 270.51 422.423 270.854 421.953 271.54C421.483 272.22 421.248 273.194 421.248 274.462C421.248 275.724 421.479 276.68 421.943 277.329C422.413 277.979 423.088 278.303 423.966 278.303ZM433.354 269.313V275.873C433.354 276.695 433.537 277.307 433.902 277.709C434.273 278.105 434.845 278.303 435.618 278.303C436.663 278.303 437.424 278.013 437.9 277.431C438.377 276.85 438.615 275.913 438.615 274.62V269.313H440.294V279.5H438.921L438.68 278.155H438.596C438.293 278.643 437.863 279.021 437.307 279.287C436.75 279.553 436.104 279.686 435.368 279.686C434.143 279.686 433.218 279.392 432.594 278.804C431.975 278.217 431.666 277.277 431.666 275.984V269.313H433.354ZM445.192 279.5H443.522V265.064H445.192V279.5ZM452.753 279.686C451.226 279.686 450.026 279.225 449.154 278.303C448.288 277.375 447.855 276.101 447.855 274.481C447.855 272.848 448.26 271.549 449.07 270.584C449.881 269.613 450.975 269.128 452.354 269.128C453.635 269.128 454.655 269.542 455.416 270.371C456.177 271.194 456.557 272.31 456.557 273.72V274.731H449.581C449.611 275.888 449.905 276.766 450.462 277.366C451.019 277.966 451.807 278.266 452.828 278.266C453.372 278.266 453.888 278.22 454.377 278.127C454.866 278.028 455.438 277.839 456.093 277.561V279.027C455.53 279.268 455.002 279.438 454.507 279.537C454.012 279.636 453.428 279.686 452.753 279.686ZM452.336 270.492C451.538 270.492 450.907 270.748 450.443 271.262C449.979 271.775 449.704 272.489 449.618 273.405H454.804C454.791 272.452 454.572 271.729 454.145 271.234C453.718 270.739 453.115 270.492 452.336 270.492ZM465.779 276.689C465.779 277.641 465.423 278.381 464.712 278.906C464.001 279.426 463.002 279.686 461.715 279.686C460.373 279.686 459.306 279.472 458.515 279.045V277.524C459.634 278.068 460.713 278.34 461.752 278.34C462.594 278.34 463.206 278.204 463.589 277.932C463.973 277.66 464.165 277.295 464.165 276.837C464.165 276.435 463.979 276.095 463.608 275.817C463.243 275.539 462.59 275.22 461.65 274.861C460.692 274.49 460.018 274.175 459.628 273.915C459.238 273.649 458.951 273.352 458.765 273.024C458.586 272.697 458.496 272.298 458.496 271.828C458.496 270.993 458.836 270.334 459.517 269.852C460.197 269.369 461.131 269.128 462.318 269.128C463.475 269.128 464.557 269.357 465.565 269.814L465 271.141C463.967 270.708 463.036 270.492 462.207 270.492C461.514 270.492 460.989 270.603 460.63 270.826C460.271 271.042 460.092 271.342 460.092 271.726C460.092 272.097 460.246 272.406 460.556 272.653C460.865 272.895 461.585 273.232 462.717 273.665C463.565 273.98 464.189 274.274 464.591 274.546C465 274.818 465.299 275.124 465.491 275.464C465.683 275.805 465.779 276.213 465.779 276.689Z"></path>
<path fill="#E96969" d="M242.5 43.5H275.366C275.918 43.5 276.366 43.948 276.366 44.5V152.626L275.366 151.626H301.566V153.626H275.366C274.814 153.626 274.366 153.178 274.366 152.626V44.5L275.366 45.5H242.5V43.5ZM300.232 148.626L308.232 152.626L300.232 156.626V148.626Z"></path>
<path fill="#E96969" d="M242.5 43.5H275.366C275.918 43.5 276.366 43.948 276.366 44.5V260.752L275.366 259.752H301.566V261.752H275.366C274.814 261.752 274.366 261.304 274.366 260.752V44.5L275.366 45.5H242.5V43.5ZM300.232 256.752L308.232 260.752L300.232 264.752V256.752Z"></path>
<path stroke-linejoin="round" stroke-miterlimit="10" stroke="#0B233F" fill="#F3F5F8" d="M309 346.5C309 338.492 315.492 332 323.5 332H536.5C544.508 332 551 338.492 551 346.5V404.5C551 412.508 544.508 419 536.5 419H323.5C315.492 419 309 412.508 309 404.5V346.5Z" clip-rule="evenodd" fill-rule="evenodd"></path>
<path fill="#0B233F" d="M332.732 371.5L331.1 367.297H325.719L324.104 371.5H322.379L327.676 357.881H329.216L334.504 371.5H332.732ZM330.589 365.785L329.068 361.675L328.418 359.644C328.233 360.386 328.038 361.063 327.834 361.675L326.294 365.785H330.589ZM342.78 368.689C342.78 369.641 342.424 370.381 341.713 370.906C341.002 371.426 340.003 371.686 338.716 371.686C337.374 371.686 336.307 371.472 335.516 371.045V369.524C336.635 370.068 337.714 370.34 338.753 370.34C339.595 370.34 340.207 370.204 340.59 369.932C340.974 369.66 341.166 369.295 341.166 368.837C341.166 368.435 340.98 368.095 340.609 367.817C340.244 367.539 339.591 367.22 338.651 366.861C337.693 366.49 337.019 366.175 336.629 365.915C336.239 365.649 335.952 365.352 335.766 365.024C335.587 364.697 335.497 364.298 335.497 363.828C335.497 362.993 335.837 362.334 336.518 361.852C337.198 361.369 338.132 361.128 339.319 361.128C340.476 361.128 341.558 361.357 342.566 361.814L342 363.141C340.968 362.708 340.037 362.492 339.208 362.492C338.515 362.492 337.99 362.603 337.631 362.826C337.272 363.042 337.093 363.342 337.093 363.726C337.093 364.097 337.247 364.406 337.557 364.653C337.866 364.895 338.586 365.232 339.718 365.665C340.566 365.98 341.19 366.274 341.592 366.546C342 366.818 342.3 367.124 342.492 367.464C342.684 367.805 342.78 368.213 342.78 368.689ZM351.89 368.689C351.89 369.641 351.535 370.381 350.823 370.906C350.112 371.426 349.113 371.686 347.827 371.686C346.485 371.686 345.418 371.472 344.626 371.045V369.524C345.745 370.068 346.825 370.34 347.864 370.34C348.705 370.34 349.317 370.204 349.701 369.932C350.084 369.66 350.276 369.295 350.276 368.837C350.276 368.435 350.09 368.095 349.719 367.817C349.354 367.539 348.702 367.22 347.762 366.861C346.803 366.49 346.129 366.175 345.739 365.915C345.35 365.649 345.062 365.352 344.876 365.024C344.697 364.697 344.607 364.298 344.607 363.828C344.607 362.993 344.948 362.334 345.628 361.852C346.308 361.369 347.242 361.128 348.43 361.128C349.586 361.128 350.669 361.357 351.677 361.814L351.111 363.141C350.078 362.708 349.147 362.492 348.318 362.492C347.626 362.492 347.1 362.603 346.741 362.826C346.382 363.042 346.203 363.342 346.203 363.726C346.203 364.097 346.358 364.406 346.667 364.653C346.976 364.895 347.697 365.232 348.829 365.665C349.676 365.98 350.301 366.274 350.703 366.546C351.111 366.818 351.411 367.124 351.603 367.464C351.794 367.805 351.89 368.213 351.89 368.689ZM356.037 371.5H354.367V361.313H356.037V371.5ZM354.237 358.558C354.237 358.187 354.33 357.918 354.516 357.751C354.707 357.584 354.942 357.5 355.221 357.5C355.48 357.5 355.706 357.584 355.898 357.751C356.096 357.918 356.195 358.187 356.195 358.558C356.195 358.923 356.096 359.192 355.898 359.365C355.706 359.538 355.48 359.625 355.221 359.625C354.942 359.625 354.707 359.538 354.516 359.365C354.33 359.192 354.237 358.923 354.237 358.558ZM363.144 370.322C364.17 370.322 364.916 370.047 365.379 369.496C365.849 368.939 366.084 368.049 366.084 366.824V366.425C366.084 365.065 365.849 364.075 365.379 363.457C364.909 362.838 364.152 362.529 363.106 362.529C362.253 362.529 361.591 362.869 361.121 363.549C360.657 364.223 360.425 365.188 360.425 366.444C360.425 367.706 360.651 368.667 361.103 369.329C361.56 369.991 362.241 370.322 363.144 370.322ZM366.066 371.407L366.122 370.155H366.047C365.361 371.175 364.309 371.686 362.893 371.686C361.576 371.686 360.546 371.228 359.804 370.312C359.068 369.391 358.7 368.095 358.7 366.425C358.7 364.786 359.071 363.494 359.813 362.547C360.561 361.601 361.582 361.128 362.875 361.128C364.254 361.128 365.318 361.641 366.066 362.668H366.168L366.391 361.313H367.717V371.667C367.717 373.127 367.346 374.224 366.604 374.96C365.868 375.696 364.721 376.064 363.162 376.064C361.678 376.064 360.456 375.848 359.498 375.415V373.875C360.487 374.407 361.74 374.673 363.255 374.673C364.121 374.673 364.804 374.419 365.305 373.912C365.812 373.405 366.066 372.703 366.066 371.806V371.407ZM377.895 371.5V364.987C377.895 364.159 377.709 363.543 377.338 363.141C376.973 362.733 376.398 362.529 375.612 362.529C374.567 362.529 373.806 362.819 373.33 363.401C372.86 363.976 372.625 364.916 372.625 366.221V371.5H370.955V361.313H372.3L372.551 362.705H372.644C372.959 362.204 373.401 361.818 373.97 361.545C374.539 361.267 375.167 361.128 375.854 361.128C377.103 361.128 378.031 361.431 378.637 362.037C379.243 362.643 379.546 363.586 379.546 364.867V371.5H377.895ZM393.675 359.245C392.216 359.245 391.068 359.733 390.233 360.71C389.398 361.688 388.981 363.024 388.981 364.718C388.981 366.469 389.386 367.82 390.196 368.772C391.007 369.719 392.16 370.192 393.657 370.192C394.622 370.192 395.707 370.013 396.913 369.654V371.138C396.338 371.348 395.784 371.491 395.252 371.565C394.721 371.645 394.108 371.686 393.416 371.686C391.418 371.686 389.878 371.079 388.795 369.867C387.719 368.649 387.181 366.926 387.181 364.7C387.181 363.302 387.438 362.077 387.951 361.026C388.471 359.974 389.222 359.164 390.206 358.595C391.195 358.026 392.358 357.742 393.694 357.742C395.129 357.742 396.378 358.008 397.442 358.54L396.755 359.987C395.673 359.492 394.646 359.245 393.675 359.245ZM408.491 366.388C408.491 368.052 408.071 369.351 407.229 370.285C406.388 371.219 405.226 371.686 403.741 371.686C402.82 371.686 402.003 371.472 401.292 371.045C400.581 370.612 400.033 369.994 399.65 369.19C399.266 368.386 399.075 367.452 399.075 366.388C399.075 364.731 399.489 363.441 400.318 362.52C401.147 361.592 402.309 361.128 403.806 361.128C405.241 361.128 406.379 361.601 407.22 362.547C408.068 363.487 408.491 364.768 408.491 366.388ZM400.8 366.388C400.8 367.668 401.051 368.643 401.552 369.311C402.059 369.972 402.804 370.303 403.788 370.303C404.759 370.303 405.498 369.972 406.005 369.311C406.512 368.643 406.766 367.668 406.766 366.388C406.766 365.108 406.509 364.146 405.996 363.503C405.488 362.854 404.743 362.529 403.76 362.529C401.787 362.529 400.8 363.815 400.8 366.388ZM424.105 371.5V364.941C424.105 363.333 423.415 362.529 422.036 362.529C421.09 362.529 420.394 362.804 419.949 363.354C419.503 363.905 419.281 364.746 419.281 365.878V371.5H417.62V364.941C417.62 364.137 417.45 363.534 417.11 363.132C416.776 362.73 416.25 362.529 415.533 362.529C414.593 362.529 413.903 362.816 413.464 363.392C413.031 363.967 412.814 364.91 412.814 366.221V371.5H411.145V361.313H412.49L412.74 362.705H412.833C413.124 362.21 413.532 361.824 414.058 361.545C414.59 361.267 415.183 361.128 415.839 361.128C417.435 361.128 418.474 361.697 418.956 362.835H419.049C419.377 362.291 419.822 361.87 420.385 361.573C420.954 361.276 421.597 361.128 422.314 361.128C423.465 361.128 424.325 361.425 424.894 362.019C425.469 362.612 425.756 363.562 425.756 364.867V371.5H424.105ZM441.88 371.5V364.941C441.88 363.333 441.191 362.529 439.812 362.529C438.865 362.529 438.169 362.804 437.724 363.354C437.279 363.905 437.056 364.746 437.056 365.878V371.5H435.396V364.941C435.396 364.137 435.225 363.534 434.885 363.132C434.551 362.73 434.026 362.529 433.308 362.529C432.368 362.529 431.678 362.816 431.239 363.392C430.806 363.967 430.59 364.91 430.59 366.221V371.5H428.92V361.313H430.265L430.516 362.705H430.608C430.899 362.21 431.307 361.824 431.833 361.545C432.365 361.267 432.959 361.128 433.614 361.128C435.21 361.128 436.249 361.697 436.731 362.835H436.824C437.152 362.291 437.597 361.87 438.16 361.573C438.729 361.276 439.372 361.128 440.09 361.128C441.24 361.128 442.1 361.425 442.669 362.019C443.244 362.612 443.532 363.562 443.532 364.867V371.5H441.88ZM448.272 361.313V367.873C448.272 368.695 448.455 369.307 448.82 369.709C449.191 370.105 449.763 370.303 450.536 370.303C451.581 370.303 452.342 370.013 452.818 369.431C453.295 368.85 453.533 367.913 453.533 366.62V361.313H455.212V371.5H453.839L453.598 370.155H453.514C453.211 370.643 452.781 371.021 452.225 371.287C451.668 371.553 451.022 371.686 450.286 371.686C449.061 371.686 448.136 371.392 447.512 370.804C446.893 370.217 446.584 369.277 446.584 367.984V361.313H448.272ZM465.38 371.5V364.987C465.38 364.159 465.194 363.543 464.823 363.141C464.458 362.733 463.883 362.529 463.098 362.529C462.052 362.529 461.292 362.819 460.815 363.401C460.345 363.976 460.11 364.916 460.11 366.221V371.5H458.44V361.313H459.786L460.036 362.705H460.129C460.444 362.204 460.887 361.818 461.456 361.545C462.025 361.267 462.652 361.128 463.339 361.128C464.588 361.128 465.516 361.431 466.122 362.037C466.728 362.643 467.031 363.586 467.031 364.867V371.5H465.38ZM471.855 371.5H470.186V361.313H471.855V371.5ZM470.056 358.558C470.056 358.187 470.148 357.918 470.334 357.751C470.526 357.584 470.761 357.5 471.039 357.5C471.299 357.5 471.525 357.584 471.716 357.751C471.914 357.918 472.013 358.187 472.013 358.558C472.013 358.923 471.914 359.192 471.716 359.365C471.525 359.538 471.299 359.625 471.039 359.625C470.761 359.625 470.526 359.538 470.334 359.365C470.148 359.192 470.056 358.923 470.056 358.558ZM478.489 370.322C478.705 370.322 478.959 370.3 479.25 370.257C479.54 370.214 479.76 370.164 479.908 370.108V371.389C479.754 371.457 479.512 371.522 479.185 371.583C478.863 371.652 478.535 371.686 478.201 371.686C476.21 371.686 475.214 370.637 475.214 368.541V362.612H473.776V361.814L475.232 361.146L475.9 358.976H476.893V361.313H479.834V362.612H476.893V368.494C476.893 369.082 477.032 369.533 477.311 369.849C477.595 370.164 477.988 370.322 478.489 370.322ZM480.354 361.313H482.144L484.343 367.112C484.807 368.374 485.091 369.298 485.196 369.886H485.271C485.326 369.657 485.453 369.23 485.651 368.605C485.849 367.975 486.016 367.471 486.152 367.093L488.221 361.313H490.021L485.632 372.91C485.206 374.036 484.698 374.843 484.111 375.332C483.523 375.82 482.797 376.064 481.931 376.064C481.467 376.064 481.006 376.012 480.548 375.907V374.58C480.858 374.654 481.229 374.691 481.662 374.691C482.194 374.691 482.645 374.543 483.016 374.246C483.387 373.955 483.69 373.504 483.925 372.892L484.454 371.537L480.354 361.313Z"></path>
<path fill="#0B233F" d="M330.116 386.338H334.801V392.99C334.084 393.219 333.354 393.392 332.612 393.509C331.87 393.627 331.01 393.686 330.033 393.686C327.967 393.686 326.368 393.073 325.236 391.849C324.104 390.624 323.539 388.914 323.539 386.718C323.539 385.302 323.82 384.065 324.383 383.007C324.946 381.95 325.756 381.143 326.813 380.586C327.877 380.023 329.13 379.742 330.571 379.742C332.018 379.742 333.366 380.008 334.616 380.54L333.966 382.024C332.773 381.504 331.607 381.245 330.469 381.245C328.854 381.245 327.593 381.733 326.684 382.71C325.774 383.688 325.32 385.024 325.32 386.718C325.32 388.512 325.756 389.876 326.628 390.81C327.5 391.743 328.768 392.21 330.432 392.21C331.341 392.21 332.228 392.102 333.094 391.886V387.859H330.116V386.338ZM344.125 393.5L343.8 392.053H343.726C343.219 392.69 342.712 393.123 342.205 393.352C341.704 393.574 341.07 393.686 340.303 393.686C339.301 393.686 338.515 393.423 337.946 392.897C337.377 392.371 337.093 391.629 337.093 390.67C337.093 388.605 338.722 387.522 341.982 387.423L343.708 387.358V386.755C343.708 385.982 343.541 385.413 343.207 385.048C342.873 384.677 342.338 384.492 341.602 384.492C341.063 384.492 340.553 384.572 340.071 384.733C339.595 384.894 339.146 385.073 338.726 385.271L338.215 384.019C338.729 383.746 339.288 383.533 339.895 383.378C340.501 383.224 341.101 383.146 341.694 383.146C342.925 383.146 343.84 383.419 344.44 383.963C345.04 384.507 345.34 385.373 345.34 386.561V393.5H344.125ZM340.683 392.34C341.617 392.34 342.35 392.09 342.882 391.589C343.42 391.082 343.689 390.364 343.689 389.437V388.518L342.186 388.583C341.017 388.626 340.164 388.812 339.625 389.14C339.094 389.467 338.828 389.984 338.828 390.689C338.828 391.221 338.988 391.629 339.31 391.914C339.638 392.198 340.096 392.34 340.683 392.34ZM350.174 393.5H348.504V379.064H350.174V393.5ZM355.072 393.5H353.402V379.064H355.072V393.5ZM362.633 393.686C361.106 393.686 359.906 393.225 359.034 392.303C358.168 391.375 357.735 390.101 357.735 388.481C357.735 386.848 358.14 385.549 358.95 384.584C359.76 383.613 360.855 383.128 362.234 383.128C363.515 383.128 364.535 383.542 365.296 384.371C366.057 385.194 366.437 386.31 366.437 387.72V388.731H359.46C359.491 389.888 359.785 390.766 360.342 391.366C360.898 391.966 361.687 392.266 362.708 392.266C363.252 392.266 363.768 392.22 364.257 392.127C364.745 392.028 365.318 391.839 365.973 391.561V393.027C365.41 393.268 364.882 393.438 364.387 393.537C363.892 393.636 363.307 393.686 362.633 393.686ZM362.216 384.492C361.418 384.492 360.787 384.748 360.323 385.262C359.859 385.775 359.584 386.489 359.498 387.405H364.684C364.671 386.452 364.452 385.729 364.025 385.234C363.598 384.739 362.995 384.492 362.216 384.492ZM373.775 383.128C374.227 383.128 374.626 383.165 374.972 383.239L374.768 384.779C374.391 384.693 374.023 384.649 373.664 384.649C373.126 384.649 372.625 384.798 372.161 385.095C371.703 385.392 371.345 385.803 371.085 386.329C370.825 386.848 370.695 387.426 370.695 388.063V393.5H369.025V383.313H370.398L370.584 385.178H370.658C371.048 384.504 371.509 383.994 372.041 383.647C372.572 383.301 373.151 383.128 373.775 383.128ZM375.278 383.313H377.069L379.268 389.112C379.731 390.374 380.016 391.298 380.121 391.886H380.195C380.251 391.657 380.378 391.23 380.576 390.605C380.774 389.975 380.941 389.471 381.077 389.093L383.146 383.313H384.945L380.557 394.91C380.13 396.036 379.623 396.843 379.036 397.332C378.448 397.82 377.721 398.064 376.855 398.064C376.392 398.064 375.931 398.012 375.473 397.907V396.58C375.782 396.654 376.153 396.691 376.586 396.691C377.118 396.691 377.57 396.543 377.941 396.246C378.312 395.955 378.615 395.504 378.85 394.892L379.379 393.537L375.278 383.313ZM397.711 393.5L393.239 381.606H393.165C393.258 382.596 393.304 383.818 393.304 385.271V393.5H391.727V379.937H394.25L398.435 391.051H398.509L402.767 379.937H405.272V393.5H403.583V385.16C403.583 384.232 403.627 383.054 403.713 381.625H403.639L399.112 393.5H397.711ZM417.583 388.388C417.583 390.052 417.162 391.351 416.321 392.285C415.48 393.219 414.317 393.686 412.833 393.686C411.911 393.686 411.095 393.472 410.384 393.045C409.673 392.612 409.125 391.994 408.742 391.19C408.358 390.386 408.167 389.452 408.167 388.388C408.167 386.731 408.581 385.441 409.41 384.52C410.238 383.592 411.401 383.128 412.898 383.128C414.333 383.128 415.471 383.601 416.312 384.547C417.159 385.487 417.583 386.768 417.583 388.388ZM409.892 388.388C409.892 389.668 410.143 390.643 410.644 391.311C411.151 391.972 411.896 392.303 412.879 392.303C413.85 392.303 414.59 391.972 415.097 391.311C415.604 390.643 415.857 389.668 415.857 388.388C415.857 387.108 415.601 386.146 415.087 385.503C414.58 384.854 413.835 384.529 412.852 384.529C410.879 384.529 409.892 385.815 409.892 388.388ZM423.845 393.686C422.522 393.686 421.495 393.228 420.765 392.312C420.035 391.397 419.67 390.101 419.67 388.425C419.67 386.762 420.035 385.463 420.765 384.529C421.501 383.595 422.534 383.128 423.864 383.128C425.231 383.128 426.282 383.629 427.018 384.631H427.139C427.12 384.507 427.095 384.26 427.064 383.889C427.034 383.511 427.018 383.258 427.018 383.128V379.064H428.688V393.5H427.343L427.092 392.136H427.018C426.307 393.169 425.249 393.686 423.845 393.686ZM424.114 392.303C425.129 392.303 425.868 392.028 426.332 391.478C426.802 390.921 427.037 390.012 427.037 388.75V388.444C427.037 387.028 426.799 386.019 426.322 385.419C425.852 384.813 425.11 384.51 424.096 384.51C423.236 384.51 422.571 384.854 422.101 385.54C421.631 386.22 421.396 387.194 421.396 388.462C421.396 389.724 421.628 390.68 422.092 391.329C422.562 391.979 423.236 392.303 424.114 392.303ZM433.503 383.313V389.873C433.503 390.695 433.685 391.307 434.05 391.709C434.421 392.105 434.993 392.303 435.767 392.303C436.812 392.303 437.573 392.013 438.049 391.431C438.525 390.85 438.763 389.913 438.763 388.62V383.313H440.442V393.5H439.069L438.828 392.155H438.745C438.442 392.643 438.012 393.021 437.455 393.287C436.898 393.553 436.252 393.686 435.516 393.686C434.292 393.686 433.367 393.392 432.742 392.804C432.124 392.217 431.814 391.277 431.814 389.984V383.313H433.503ZM445.341 393.5H443.671V379.064H445.341V393.5ZM452.902 393.686C451.374 393.686 450.174 393.225 449.302 392.303C448.436 391.375 448.003 390.101 448.003 388.481C448.003 386.848 448.409 385.549 449.219 384.584C450.029 383.613 451.124 383.128 452.503 383.128C453.783 383.128 454.804 383.542 455.564 384.371C456.325 385.194 456.706 386.31 456.706 387.72V388.731H449.729C449.76 389.888 450.054 390.766 450.61 391.366C451.167 391.966 451.956 392.266 452.976 392.266C453.52 392.266 454.037 392.22 454.525 392.127C455.014 392.028 455.586 391.839 456.242 391.561V393.027C455.679 393.268 455.15 393.438 454.655 393.537C454.16 393.636 453.576 393.686 452.902 393.686ZM452.484 384.492C451.687 384.492 451.056 384.748 450.592 385.262C450.128 385.775 449.853 386.489 449.766 387.405H454.952C454.94 386.452 454.72 385.729 454.293 385.234C453.867 384.739 453.264 384.492 452.484 384.492ZM465.927 390.689C465.927 391.641 465.572 392.381 464.86 392.906C464.149 393.426 463.15 393.686 461.864 393.686C460.522 393.686 459.455 393.472 458.663 393.045V391.524C459.783 392.068 460.862 392.34 461.901 392.34C462.742 392.34 463.354 392.204 463.738 391.932C464.121 391.66 464.313 391.295 464.313 390.837C464.313 390.435 464.127 390.095 463.756 389.817C463.391 389.539 462.739 389.22 461.799 388.861C460.84 388.49 460.166 388.175 459.776 387.915C459.387 387.649 459.099 387.352 458.914 387.024C458.734 386.697 458.645 386.298 458.645 385.828C458.645 384.993 458.985 384.334 459.665 383.852C460.345 383.369 461.279 383.128 462.467 383.128C463.623 383.128 464.706 383.357 465.714 383.814L465.148 385.141C464.115 384.708 463.184 384.492 462.355 384.492C461.663 384.492 461.137 384.603 460.778 384.826C460.42 385.042 460.24 385.342 460.24 385.726C460.24 386.097 460.395 386.406 460.704 386.653C461.013 386.895 461.734 387.232 462.866 387.665C463.713 387.98 464.338 388.274 464.74 388.546C465.148 388.818 465.448 389.124 465.64 389.464C465.831 389.805 465.927 390.213 465.927 390.689Z"></path>
<path stroke-linejoin="round" stroke-miterlimit="10" stroke="#0B233F" fill="#F3F5F8" d="M309 454.667C309 446.567 315.567 440 323.667 440H536.333C544.433 440 551 446.567 551 454.667V513.333C551 521.433 544.433 528 536.333 528H323.667C315.567 528 309 521.433 309 513.333V454.667Z" clip-rule="evenodd" fill-rule="evenodd"></path>
<path fill="#0B233F" d="M332.732 479.5L331.1 475.297H325.719L324.104 479.5H322.379L327.676 465.881H329.216L334.504 479.5H332.732ZM330.589 473.785L329.068 469.675L328.418 467.644C328.233 468.386 328.038 469.063 327.834 469.675L326.294 473.785H330.589ZM339.755 479.686C338.432 479.686 337.405 479.228 336.675 478.312C335.945 477.397 335.581 476.101 335.581 474.425C335.581 472.762 335.945 471.463 336.675 470.529C337.411 469.595 338.444 469.128 339.774 469.128C341.141 469.128 342.192 469.629 342.928 470.631H343.049C343.03 470.507 343.006 470.26 342.975 469.889C342.944 469.511 342.928 469.258 342.928 469.128V465.064H344.598V479.5H343.253L343.002 478.136H342.928C342.217 479.169 341.159 479.686 339.755 479.686ZM340.024 478.303C341.039 478.303 341.778 478.028 342.242 477.478C342.712 476.921 342.947 476.012 342.947 474.75V474.444C342.947 473.028 342.709 472.019 342.232 471.419C341.762 470.813 341.02 470.51 340.006 470.51C339.146 470.51 338.481 470.854 338.011 471.54C337.541 472.22 337.306 473.194 337.306 474.462C337.306 475.724 337.538 476.68 338.002 477.329C338.472 477.979 339.146 478.303 340.024 478.303ZM351.445 479.686C350.121 479.686 349.095 479.228 348.365 478.312C347.635 477.397 347.27 476.101 347.27 474.425C347.27 472.762 347.635 471.463 348.365 470.529C349.101 469.595 350.134 469.128 351.463 469.128C352.83 469.128 353.882 469.629 354.618 470.631H354.738C354.72 470.507 354.695 470.26 354.664 469.889C354.633 469.511 354.618 469.258 354.618 469.128V465.064H356.288V479.5H354.942L354.692 478.136H354.618C353.906 479.169 352.849 479.686 351.445 479.686ZM351.714 478.303C352.728 478.303 353.467 478.028 353.931 477.478C354.401 476.921 354.636 476.012 354.636 474.75V474.444C354.636 473.028 354.398 472.019 353.922 471.419C353.452 470.813 352.71 470.51 351.695 470.51C350.836 470.51 350.171 470.854 349.701 471.54C349.231 472.22 348.996 473.194 348.996 474.462C348.996 475.724 349.228 476.68 349.691 477.329C350.161 477.979 350.836 478.303 351.714 478.303ZM373.2 479.5L371.567 475.297H366.187L364.572 479.5H362.847L368.144 465.881H369.684L374.972 479.5H373.2ZM371.057 473.785L369.536 469.675L368.886 467.644C368.701 468.386 368.506 469.063 368.302 469.675L366.762 473.785H371.057ZM383.248 476.689C383.248 477.641 382.892 478.381 382.181 478.906C381.469 479.426 380.471 479.686 379.184 479.686C377.842 479.686 376.775 479.472 375.983 479.045V477.524C377.103 478.068 378.182 478.34 379.221 478.34C380.062 478.34 380.675 478.204 381.058 477.932C381.442 477.66 381.633 477.295 381.633 476.837C381.633 476.435 381.448 476.095 381.077 475.817C380.712 475.539 380.059 475.22 379.119 474.861C378.16 474.49 377.486 474.175 377.097 473.915C376.707 473.649 376.419 473.352 376.234 473.024C376.055 472.697 375.965 472.298 375.965 471.828C375.965 470.993 376.305 470.334 376.985 469.852C377.666 469.369 378.6 469.128 379.787 469.128C380.944 469.128 382.026 469.357 383.034 469.814L382.468 471.141C381.435 470.708 380.505 470.492 379.676 470.492C378.983 470.492 378.457 470.603 378.099 470.826C377.74 471.042 377.561 471.342 377.561 471.726C377.561 472.097 377.715 472.406 378.024 472.653C378.334 472.895 379.054 473.232 380.186 473.665C381.033 473.98 381.658 474.274 382.06 474.546C382.468 474.818 382.768 475.124 382.96 475.464C383.152 475.805 383.248 476.213 383.248 476.689ZM392.358 476.689C392.358 477.641 392.002 478.381 391.291 478.906C390.58 479.426 389.581 479.686 388.294 479.686C386.952 479.686 385.885 479.472 385.094 479.045V477.524C386.213 478.068 387.292 478.34 388.332 478.34C389.173 478.34 389.785 478.204 390.168 477.932C390.552 477.66 390.744 477.295 390.744 476.837C390.744 476.435 390.558 476.095 390.187 475.817C389.822 475.539 389.17 475.22 388.229 474.861C387.271 474.49 386.597 474.175 386.207 473.915C385.817 473.649 385.53 473.352 385.344 473.024C385.165 472.697 385.075 472.298 385.075 471.828C385.075 470.993 385.415 470.334 386.096 469.852C386.776 469.369 387.71 469.128 388.897 469.128C390.054 469.128 391.136 469.357 392.145 469.814L391.579 471.141C390.546 470.708 389.615 470.492 388.786 470.492C388.093 470.492 387.568 470.603 387.209 470.826C386.85 471.042 386.671 471.342 386.671 471.726C386.671 472.097 386.826 472.406 387.135 472.653C387.444 472.895 388.165 473.232 389.296 473.665C390.144 473.98 390.768 474.274 391.17 474.546C391.579 474.818 391.879 475.124 392.07 475.464C392.262 475.805 392.358 476.213 392.358 476.689ZM396.505 479.5H394.835V469.313H396.505V479.5ZM394.705 466.558C394.705 466.187 394.798 465.918 394.983 465.751C395.175 465.584 395.41 465.5 395.688 465.5C395.948 465.5 396.174 465.584 396.366 465.751C396.564 465.918 396.663 466.187 396.663 466.558C396.663 466.923 396.564 467.192 396.366 467.365C396.174 467.538 395.948 467.625 395.688 467.625C395.41 467.625 395.175 467.538 394.983 467.365C394.798 467.192 394.705 466.923 394.705 466.558ZM403.611 478.322C404.638 478.322 405.383 478.047 405.847 477.496C406.317 476.939 406.552 476.049 406.552 474.824V474.425C406.552 473.065 406.317 472.075 405.847 471.457C405.377 470.838 404.619 470.529 403.574 470.529C402.721 470.529 402.059 470.869 401.589 471.549C401.125 472.223 400.893 473.188 400.893 474.444C400.893 475.706 401.119 476.667 401.57 477.329C402.028 477.991 402.708 478.322 403.611 478.322ZM406.534 479.407L406.589 478.155H406.515C405.829 479.175 404.777 479.686 403.361 479.686C402.043 479.686 401.014 479.228 400.271 478.312C399.535 477.391 399.167 476.095 399.167 474.425C399.167 472.786 399.539 471.494 400.281 470.547C401.029 469.601 402.05 469.128 403.342 469.128C404.722 469.128 405.785 469.641 406.534 470.668H406.636L406.858 469.313H408.185V479.667C408.185 481.127 407.814 482.224 407.072 482.96C406.336 483.696 405.188 484.064 403.63 484.064C402.146 484.064 400.924 483.848 399.965 483.415V481.875C400.955 482.407 402.207 482.673 403.723 482.673C404.589 482.673 405.272 482.419 405.773 481.912C406.28 481.405 406.534 480.703 406.534 479.806V479.407ZM418.362 479.5V472.987C418.362 472.159 418.177 471.543 417.806 471.141C417.441 470.733 416.866 470.529 416.08 470.529C415.035 470.529 414.274 470.819 413.798 471.401C413.328 471.976 413.093 472.916 413.093 474.221V479.5H411.423V469.313H412.768L413.019 470.705H413.111C413.427 470.204 413.869 469.818 414.438 469.545C415.007 469.267 415.635 469.128 416.321 469.128C417.571 469.128 418.498 469.431 419.104 470.037C419.711 470.643 420.014 471.586 420.014 472.867V479.5H418.362ZM436.128 479.5V472.941C436.128 471.333 435.439 470.529 434.06 470.529C433.113 470.529 432.417 470.804 431.972 471.354C431.527 471.905 431.304 472.746 431.304 473.878V479.5H429.644V472.941C429.644 472.137 429.473 471.534 429.133 471.132C428.799 470.73 428.274 470.529 427.556 470.529C426.616 470.529 425.926 470.816 425.487 471.392C425.054 471.967 424.838 472.91 424.838 474.221V479.5H423.168V469.313H424.513L424.764 470.705H424.856C425.147 470.21 425.555 469.824 426.081 469.545C426.613 469.267 427.207 469.128 427.862 469.128C429.458 469.128 430.497 469.697 430.979 470.835H431.072C431.4 470.291 431.845 469.87 432.408 469.573C432.977 469.276 433.62 469.128 434.338 469.128C435.488 469.128 436.348 469.425 436.917 470.019C437.492 470.612 437.78 471.562 437.78 472.867V479.5H436.128ZM445.276 479.686C443.748 479.686 442.548 479.225 441.676 478.303C440.81 477.375 440.377 476.101 440.377 474.481C440.377 472.848 440.783 471.549 441.593 470.584C442.403 469.613 443.498 469.128 444.877 469.128C446.157 469.128 447.178 469.542 447.938 470.371C448.699 471.194 449.08 472.31 449.08 473.72V474.731H442.103C442.134 475.888 442.428 476.766 442.984 477.366C443.541 477.966 444.33 478.266 445.35 478.266C445.894 478.266 446.411 478.22 446.899 478.127C447.388 478.028 447.96 477.839 448.616 477.561V479.027C448.053 479.268 447.524 479.438 447.029 479.537C446.535 479.636 445.95 479.686 445.276 479.686ZM444.858 470.492C444.061 470.492 443.43 470.748 442.966 471.262C442.502 471.775 442.227 472.489 442.14 473.405H447.326C447.314 472.452 447.094 471.729 446.667 471.234C446.241 470.739 445.638 470.492 444.858 470.492ZM458.607 479.5V472.987C458.607 472.159 458.422 471.543 458.051 471.141C457.686 470.733 457.111 470.529 456.325 470.529C455.28 470.529 454.519 470.819 454.043 471.401C453.573 471.976 453.338 472.916 453.338 474.221V479.5H451.668V469.313H453.013L453.264 470.705H453.356C453.672 470.204 454.114 469.818 454.683 469.545C455.252 469.267 455.88 469.128 456.566 469.128C457.816 469.128 458.743 469.431 459.35 470.037C459.956 470.643 460.259 471.586 460.259 472.867V479.5H458.607ZM466.818 478.322C467.034 478.322 467.288 478.3 467.579 478.257C467.869 478.214 468.089 478.164 468.237 478.108V479.389C468.083 479.457 467.841 479.522 467.514 479.583C467.192 479.652 466.864 479.686 466.53 479.686C464.539 479.686 463.543 478.637 463.543 476.541V470.612H462.105V469.814L463.562 469.146L464.229 466.976H465.222V469.313H468.163V470.612H465.222V476.494C465.222 477.082 465.361 477.533 465.64 477.849C465.924 478.164 466.317 478.322 466.818 478.322ZM476.912 476.689C476.912 477.641 476.556 478.381 475.845 478.906C475.133 479.426 474.135 479.686 472.848 479.686C471.506 479.686 470.439 479.472 469.647 479.045V477.524C470.767 478.068 471.846 478.34 472.885 478.34C473.726 478.34 474.339 478.204 474.722 477.932C475.106 477.66 475.297 477.295 475.297 476.837C475.297 476.435 475.112 476.095 474.741 475.817C474.376 475.539 473.723 475.22 472.783 474.861C471.825 474.49 471.15 474.175 470.761 473.915C470.371 473.649 470.083 473.352 469.898 473.024C469.719 472.697 469.629 472.298 469.629 471.828C469.629 470.993 469.969 470.334 470.649 469.852C471.33 469.369 472.264 469.128 473.451 469.128C474.608 469.128 475.69 469.357 476.698 469.814L476.132 471.141C475.099 470.708 474.169 470.492 473.34 470.492C472.647 470.492 472.121 470.603 471.763 470.826C471.404 471.042 471.225 471.342 471.225 471.726C471.225 472.097 471.379 472.406 471.688 472.653C471.998 472.895 472.718 473.232 473.85 473.665C474.697 473.98 475.322 474.274 475.724 474.546C476.132 474.818 476.432 475.124 476.624 475.464C476.816 475.805 476.912 476.213 476.912 476.689ZM487.729 478.322C487.945 478.322 488.199 478.3 488.49 478.257C488.78 478.214 489 478.164 489.148 478.108V479.389C488.994 479.457 488.753 479.522 488.425 479.583C488.103 479.652 487.775 479.686 487.441 479.686C485.45 479.686 484.454 478.637 484.454 476.541V470.612H483.016V469.814L484.473 469.146L485.141 466.976H486.133V469.313H489.074V470.612H486.133V476.494C486.133 477.082 486.272 477.533 486.551 477.849C486.835 478.164 487.228 478.322 487.729 478.322ZM500.04 474.388C500.04 476.052 499.619 477.351 498.778 478.285C497.937 479.219 496.774 479.686 495.29 479.686C494.368 479.686 493.552 479.472 492.841 479.045C492.13 478.612 491.582 477.994 491.199 477.19C490.815 476.386 490.624 475.452 490.624 474.388C490.624 472.731 491.038 471.441 491.867 470.52C492.695 469.592 493.858 469.128 495.355 469.128C496.79 469.128 497.928 469.601 498.769 470.547C499.616 471.487 500.04 472.768 500.04 474.388ZM492.349 474.388C492.349 475.668 492.6 476.643 493.101 477.311C493.608 477.972 494.353 478.303 495.336 478.303C496.307 478.303 497.047 477.972 497.554 477.311C498.061 476.643 498.314 475.668 498.314 474.388C498.314 473.108 498.058 472.146 497.544 471.503C497.037 470.854 496.292 470.529 495.309 470.529C493.336 470.529 492.349 471.815 492.349 474.388Z"></path>
<path fill="#E96969" d="M242.5 43.5H275.366C275.919 43.5 276.366 43.948 276.366 44.5V375.114L275.366 374.114H301.566V376.114H275.366C274.814 376.114 274.366 375.666 274.366 375.114V44.5L275.366 45.5H242.5V43.5ZM300.232 371.114L308.232 375.114L300.232 379.114V371.114Z"></path>
<path fill="#E96969" d="M242.5 43.5H275.366C275.919 43.5 276.366 43.948 276.366 44.5V483.209L275.366 482.209H301.566V484.209H275.366C274.814 484.209 274.366 483.761 274.366 483.209V44.5L275.366 45.5H242.5V43.5ZM300.232 479.209L308.232 483.209L300.232 487.209V479.209Z"></path>
</svg>
