<svg xmlns="http://www.w3.org/2000/svg" fill="none" viewBox="0 0 551 89" height="89" width="551">
<path stroke-linejoin="round" stroke-miterlimit="10" stroke="#0B233F" fill="#0B233F" d="M0.500092 15.167C0.500092 7.06699 7.06659 0.5 15.1669 0.5H227.833C235.933 0.5 242.5 7.06699 242.5 15.167V73.833C242.5 81.933 235.933 88.5 227.833 88.5H15.1669C7.06659 88.5 0.500092 81.933 0.500092 73.833V15.167Z" clip-rule="evenodd" fill-rule="evenodd"></path>
<path fill="white" d="M26.8889 41H24.0222V35.146H18.6506V41H15.7746V27.4365H18.6506V32.7524H24.0222V27.4365H26.8889V41ZM32.3532 35.7954C32.3532 36.8221 32.5202 37.5983 32.8542 38.124C33.1944 38.6497 33.7448 38.9126 34.5056 38.9126C35.2601 38.9126 35.8013 38.6528 36.1291 38.1333C36.4631 37.6076 36.6301 36.8283 36.6301 35.7954C36.6301 34.7687 36.4631 33.9987 36.1291 33.4854C35.7951 32.972 35.2478 32.7153 34.487 32.7153C33.7325 32.7153 33.1882 32.972 32.8542 33.4854C32.5202 33.9925 32.3532 34.7625 32.3532 35.7954ZM39.5246 35.7954C39.5246 37.4839 39.0793 38.8044 38.1887 39.7568C37.2981 40.7093 36.058 41.1855 34.4685 41.1855C33.4727 41.1855 32.5945 40.9691 31.8337 40.5361C31.073 40.097 30.4885 39.4692 30.0803 38.6528C29.6721 37.8364 29.468 36.884 29.468 35.7954C29.468 34.1007 29.9102 32.7834 30.7946 31.8433C31.6791 30.9032 32.9223 30.4331 34.5241 30.4331C35.5199 30.4331 36.3982 30.6496 37.1589 31.0825C37.9196 31.5155 38.5041 32.137 38.9123 32.9473C39.3205 33.7575 39.5246 34.7069 39.5246 35.7954ZM50.2029 41L49.405 37.3726L48.3474 32.7896H48.2639L46.3713 41H43.3283L40.3781 30.6279H43.1985L44.3952 35.2202C44.5313 35.7645 44.7199 36.8994 44.9612 38.625H45.0354C45.0601 38.1549 45.1683 37.4097 45.3601 36.3892L45.5085 35.6006L46.7888 30.6279H49.906L51.1213 35.6006C51.1955 35.9408 51.2852 36.4417 51.3904 37.1035C51.5017 37.7591 51.5635 38.2663 51.5759 38.625H51.6501C51.7181 38.0745 51.814 37.4499 51.9377 36.751C52.0614 36.0459 52.1666 35.5356 52.2531 35.2202L53.4963 30.6279H56.2702L53.2829 41H50.2029ZM67.2546 38.9312C67.7494 38.9312 68.3431 38.8229 69.0359 38.6064V40.7124C68.3308 41.0278 67.4649 41.1855 66.4382 41.1855C65.3064 41.1855 64.4807 40.901 63.9612 40.332C63.4478 39.7568 63.1911 38.8971 63.1911 37.7529V32.7524H61.8366V31.5557L63.3952 30.6094L64.2116 28.4199H66.0207V30.6279H68.9245V32.7524H66.0207V37.7529C66.0207 38.1549 66.132 38.4518 66.3547 38.6436C66.5835 38.8353 66.8835 38.9312 67.2546 38.9312ZM73.3962 35.7954C73.3962 36.8221 73.5632 37.5983 73.8972 38.124C74.2374 38.6497 74.7878 38.9126 75.5486 38.9126C76.3031 38.9126 76.8443 38.6528 77.1721 38.1333C77.5061 37.6076 77.6731 36.8283 77.6731 35.7954C77.6731 34.7687 77.5061 33.9987 77.1721 33.4854C76.8381 32.972 76.2907 32.7153 75.53 32.7153C74.7754 32.7153 74.2312 32.972 73.8972 33.4854C73.5632 33.9925 73.3962 34.7625 73.3962 35.7954ZM80.5676 35.7954C80.5676 37.4839 80.1223 38.8044 79.2317 39.7568C78.341 40.7093 77.101 41.1855 75.5114 41.1855C74.5157 41.1855 73.6374 40.9691 72.8767 40.5361C72.1159 40.097 71.5315 39.4692 71.1233 38.6528C70.7151 37.8364 70.511 36.884 70.511 35.7954C70.511 34.1007 70.9532 32.7834 71.8376 31.8433C72.7221 30.9032 73.9652 30.4331 75.5671 30.4331C76.5629 30.4331 77.4411 30.6496 78.2019 31.0825C78.9626 31.5155 79.5471 32.137 79.9553 32.9473C80.3635 33.7575 80.5676 34.7069 80.5676 35.7954ZM93.5373 41.1855C92.3189 41.1855 91.3633 40.7433 90.6706 39.8589H90.5222C90.6211 40.7248 90.6706 41.2257 90.6706 41.3618V45.5645H87.841V30.6279H90.1418L90.5407 31.9731H90.6706C91.3324 30.9465 92.3127 30.4331 93.6115 30.4331C94.8362 30.4331 95.7948 30.9062 96.4875 31.8525C97.1802 32.7988 97.5266 34.1131 97.5266 35.7954C97.5266 36.9025 97.3627 37.8643 97.0349 38.6807C96.7133 39.4971 96.2525 40.1187 95.6526 40.5454C95.0526 40.9722 94.3475 41.1855 93.5373 41.1855ZM92.7024 32.6968C92.0035 32.6968 91.4932 32.9132 91.1716 33.3462C90.85 33.7729 90.683 34.4811 90.6706 35.4707V35.7769C90.6706 36.8901 90.8345 37.688 91.1623 38.1704C91.4963 38.6528 92.022 38.894 92.7395 38.894C94.0074 38.894 94.6413 37.8488 94.6413 35.7583C94.6413 34.7378 94.4836 33.974 94.1682 33.4668C93.8589 32.9535 93.3703 32.6968 92.7024 32.6968ZM104.16 32.4463C103.56 32.4463 103.09 32.638 102.75 33.0215C102.41 33.3988 102.215 33.9368 102.165 34.6357H106.136C106.124 33.9368 105.941 33.3988 105.589 33.0215C105.236 32.638 104.76 32.4463 104.16 32.4463ZM104.559 41.1855C102.889 41.1855 101.584 40.7248 100.644 39.8032C99.7037 38.8817 99.2336 37.5767 99.2336 35.8882C99.2336 34.1502 99.6666 32.8081 100.532 31.8618C101.405 30.9093 102.607 30.4331 104.141 30.4331C105.607 30.4331 106.748 30.8506 107.565 31.6855C108.381 32.5205 108.789 33.674 108.789 35.146V36.519H102.1C102.131 37.3231 102.369 37.9508 102.815 38.4023C103.26 38.8538 103.885 39.0796 104.689 39.0796C105.313 39.0796 105.904 39.0146 106.461 38.8848C107.017 38.7549 107.599 38.5477 108.205 38.2632V40.4526C107.71 40.7 107.181 40.8825 106.618 41C106.056 41.1237 105.369 41.1855 104.559 41.1855ZM116.879 30.4331C117.263 30.4331 117.581 30.4609 117.835 30.5166L117.621 33.1699C117.392 33.1081 117.114 33.0771 116.786 33.0771C115.883 33.0771 115.178 33.3091 114.671 33.7729C114.17 34.2368 113.92 34.8862 113.92 35.7212V41H111.09V30.6279H113.233L113.651 32.3721H113.79C114.111 31.7907 114.544 31.3237 115.089 30.9712C115.639 30.6125 116.236 30.4331 116.879 30.4331ZM126.954 37.9199C126.954 38.9837 126.583 39.7939 125.841 40.3506C125.105 40.9072 124.001 41.1855 122.529 41.1855C121.774 41.1855 121.131 41.133 120.599 41.0278C120.067 40.9289 119.57 40.7804 119.106 40.5825V38.2446C119.631 38.492 120.222 38.6992 120.878 38.8662C121.539 39.0332 122.121 39.1167 122.622 39.1167C123.648 39.1167 124.162 38.8198 124.162 38.2261C124.162 38.0034 124.094 37.8241 123.958 37.688C123.822 37.5457 123.587 37.388 123.253 37.2148C122.919 37.0355 122.473 36.8283 121.917 36.5933C121.119 36.2593 120.531 35.95 120.154 35.6655C119.783 35.381 119.511 35.0563 119.338 34.6914C119.171 34.3203 119.087 33.8657 119.087 33.3276C119.087 32.4061 119.443 31.6948 120.154 31.1938C120.871 30.6867 121.886 30.4331 123.197 30.4331C124.446 30.4331 125.662 30.7052 126.843 31.2495L125.989 33.2905C125.47 33.0679 124.984 32.8854 124.533 32.7432C124.081 32.6009 123.621 32.5298 123.151 32.5298C122.316 32.5298 121.898 32.7555 121.898 33.207C121.898 33.4606 122.031 33.6802 122.297 33.8657C122.569 34.0513 123.16 34.3265 124.069 34.6914C124.879 35.0192 125.473 35.3254 125.85 35.6099C126.228 35.8944 126.506 36.2222 126.685 36.5933C126.865 36.9644 126.954 37.4066 126.954 37.9199ZM131.417 35.7954C131.417 36.8221 131.584 37.5983 131.918 38.124C132.258 38.6497 132.808 38.9126 133.569 38.9126C134.324 38.9126 134.865 38.6528 135.193 38.1333C135.527 37.6076 135.694 36.8283 135.694 35.7954C135.694 34.7687 135.527 33.9987 135.193 33.4854C134.859 32.972 134.311 32.7153 133.551 32.7153C132.796 32.7153 132.252 32.972 131.918 33.4854C131.584 33.9925 131.417 34.7625 131.417 35.7954ZM138.588 35.7954C138.588 37.4839 138.143 38.8044 137.252 39.7568C136.362 40.7093 135.121 41.1855 133.532 41.1855C132.536 41.1855 131.658 40.9691 130.897 40.5361C130.136 40.097 129.552 39.4692 129.144 38.6528C128.736 37.8364 128.531 36.884 128.531 35.7954C128.531 34.1007 128.974 32.7834 129.858 31.8433C130.743 30.9032 131.986 30.4331 133.588 30.4331C134.583 30.4331 135.462 30.6496 136.222 31.0825C136.983 31.5155 137.568 32.137 137.976 32.9473C138.384 33.7575 138.588 34.7069 138.588 35.7954ZM150.5 41H147.671V34.9419C147.671 34.1935 147.538 33.6338 147.272 33.2627C147.006 32.8854 146.582 32.6968 146.001 32.6968C145.209 32.6968 144.637 32.9627 144.284 33.4946C143.932 34.0203 143.756 34.8955 143.756 36.1201V41H140.926V30.6279H143.088L143.468 31.9546H143.626C143.941 31.4536 144.374 31.0763 144.925 30.8228C145.481 30.563 146.112 30.4331 146.817 30.4331C148.023 30.4331 148.939 30.7609 149.563 31.4165C150.188 32.0659 150.5 33.006 150.5 34.2368V41ZM160 41L159.453 39.5898H159.379C158.902 40.1898 158.411 40.6073 157.904 40.8423C157.403 41.0711 156.747 41.1855 155.937 41.1855C154.941 41.1855 154.155 40.901 153.58 40.332C153.011 39.763 152.727 38.9528 152.727 37.9014C152.727 36.8005 153.11 35.9902 153.877 35.4707C154.65 34.945 155.813 34.6543 157.365 34.5986L159.165 34.543V34.0884C159.165 33.0369 158.627 32.5112 157.551 32.5112C156.722 32.5112 155.748 32.7617 154.629 33.2627L153.692 31.3516C154.885 30.7269 156.209 30.4146 157.662 30.4146C159.054 30.4146 160.121 30.7176 160.863 31.3237C161.605 31.9299 161.976 32.8514 161.976 34.0884V41H160ZM159.165 36.1943L158.071 36.2314C157.248 36.2562 156.636 36.4046 156.234 36.6768C155.832 36.9489 155.631 37.3633 155.631 37.9199C155.631 38.7178 156.088 39.1167 157.004 39.1167C157.659 39.1167 158.182 38.9281 158.572 38.5508C158.967 38.1735 159.165 37.6725 159.165 37.0479V36.1943ZM167.728 41H164.899V26.5645H167.728V41ZM170.586 27.9468C170.586 27.0252 171.099 26.5645 172.126 26.5645C173.152 26.5645 173.666 27.0252 173.666 27.9468C173.666 28.3859 173.536 28.7292 173.276 28.9766C173.023 29.2178 172.639 29.3384 172.126 29.3384C171.099 29.3384 170.586 28.8745 170.586 27.9468ZM173.536 41H170.706V30.6279H173.536V41ZM183.75 37.9199C183.75 38.9837 183.379 39.7939 182.637 40.3506C181.901 40.9072 180.797 41.1855 179.325 41.1855C178.57 41.1855 177.927 41.133 177.395 41.0278C176.863 40.9289 176.365 40.7804 175.902 40.5825V38.2446C176.427 38.492 177.018 38.6992 177.674 38.8662C178.335 39.0332 178.917 39.1167 179.418 39.1167C180.444 39.1167 180.958 38.8198 180.958 38.2261C180.958 38.0034 180.89 37.8241 180.754 37.688C180.618 37.5457 180.383 37.388 180.049 37.2148C179.715 37.0355 179.269 36.8283 178.713 36.5933C177.915 36.2593 177.327 35.95 176.95 35.6655C176.579 35.381 176.307 35.0563 176.134 34.6914C175.967 34.3203 175.883 33.8657 175.883 33.3276C175.883 32.4061 176.239 31.6948 176.95 31.1938C177.667 30.6867 178.682 30.4331 179.993 30.4331C181.242 30.4331 182.458 30.7052 183.639 31.2495L182.785 33.2905C182.266 33.0679 181.78 32.8854 181.329 32.7432C180.877 32.6009 180.417 32.5298 179.947 32.5298C179.112 32.5298 178.694 32.7555 178.694 33.207C178.694 33.4606 178.827 33.6802 179.093 33.8657C179.365 34.0513 179.956 34.3265 180.865 34.6914C181.675 35.0192 182.269 35.3254 182.646 35.6099C183.023 35.8944 183.302 36.2222 183.481 36.5933C183.661 36.9644 183.75 37.4066 183.75 37.9199ZM190.254 32.4463C189.654 32.4463 189.184 32.638 188.843 33.0215C188.503 33.3988 188.308 33.9368 188.259 34.6357H192.23C192.217 33.9368 192.035 33.3988 191.682 33.0215C191.33 32.638 190.854 32.4463 190.254 32.4463ZM190.653 41.1855C188.983 41.1855 187.678 40.7248 186.738 39.8032C185.797 38.8817 185.327 37.5767 185.327 35.8882C185.327 34.1502 185.76 32.8081 186.626 31.8618C187.498 30.9093 188.701 30.4331 190.235 30.4331C191.701 30.4331 192.842 30.8506 193.658 31.6855C194.475 32.5205 194.883 33.674 194.883 35.146V36.519H188.194C188.225 37.3231 188.463 37.9508 188.908 38.4023C189.354 38.8538 189.978 39.0796 190.782 39.0796C191.407 39.0796 191.998 39.0146 192.554 38.8848C193.111 38.7549 193.692 38.5477 194.299 38.2632V40.4526C193.804 40.7 193.275 40.8825 192.712 41C192.149 41.1237 191.463 41.1855 190.653 41.1855Z"></path>
<path fill="white" d="M21.5173 63L18.2517 52.3589H18.1682C18.2857 54.5236 18.3445 55.9678 18.3445 56.6914V63H15.7746V49.4365H19.6897L22.8996 59.8086H22.9553L26.3601 49.4365H30.2751V63H27.594V56.5801C27.594 56.277 27.5971 55.9276 27.6032 55.5317C27.6156 55.1359 27.6589 54.0845 27.7331 52.3774H27.6496L24.1521 63H21.5173ZM35.7302 57.7954C35.7302 58.8221 35.8972 59.5983 36.2312 60.124C36.5713 60.6497 37.1218 60.9126 37.8825 60.9126C38.6371 60.9126 39.1783 60.6528 39.5061 60.1333C39.8401 59.6076 40.007 58.8283 40.007 57.7954C40.007 56.7687 39.8401 55.9987 39.5061 55.4854C39.1721 54.972 38.6247 54.7153 37.864 54.7153C37.1094 54.7153 36.5652 54.972 36.2312 55.4854C35.8972 55.9925 35.7302 56.7625 35.7302 57.7954ZM42.9016 57.7954C42.9016 59.4839 42.4563 60.8044 41.5656 61.7568C40.675 62.7093 39.4349 63.1855 37.8454 63.1855C36.8497 63.1855 35.9714 62.9691 35.2107 62.5361C34.4499 62.097 33.8654 61.4692 33.4572 60.6528C33.049 59.8364 32.8449 58.884 32.8449 57.7954C32.8449 56.1007 33.2872 54.7834 34.1716 53.8433C35.056 52.9032 36.2992 52.4331 37.9011 52.4331C38.8969 52.4331 39.7751 52.6496 40.5359 53.0825C41.2966 53.5155 41.8811 54.137 42.2893 54.9473C42.6975 55.7575 42.9016 56.7069 42.9016 57.7954ZM48.5237 63.1855C47.3052 63.1855 46.3466 62.7124 45.6477 61.7661C44.955 60.8198 44.6086 59.5086 44.6086 57.8325C44.6086 56.1317 44.9612 54.8081 45.6662 53.8618C46.3775 52.9093 47.3547 52.4331 48.5979 52.4331C49.9029 52.4331 50.8987 52.9403 51.5852 53.9546H51.6779C51.5357 53.1815 51.4646 52.4919 51.4646 51.8857V48.5645H54.3034V63H52.1325L51.5852 61.6548H51.4646C50.8213 62.6753 49.841 63.1855 48.5237 63.1855ZM49.5163 60.9312C50.24 60.9312 50.7688 60.7209 51.1028 60.3003C51.4429 59.8797 51.6285 59.1654 51.6594 58.1572V57.8511C51.6594 56.7378 51.4862 55.9399 51.1399 55.4575C50.7997 54.9751 50.2431 54.7339 49.4699 54.7339C48.8391 54.7339 48.3474 55.0029 47.9948 55.541C47.6485 56.0729 47.4753 56.8491 47.4753 57.8696C47.4753 58.8901 47.6516 59.6571 48.0041 60.1704C48.3567 60.6776 48.8607 60.9312 49.5163 60.9312ZM64.6106 63L64.2302 61.6733H64.0818C63.7787 62.1558 63.3488 62.5299 62.7922 62.7959C62.2356 63.0557 61.6016 63.1855 60.8904 63.1855C59.6719 63.1855 58.7535 62.8608 58.135 62.2114C57.5165 61.5558 57.2072 60.6157 57.2072 59.3911V52.6279H60.0368V58.686C60.0368 59.4344 60.1698 59.9972 60.4358 60.3745C60.7017 60.7456 61.1254 60.9312 61.7068 60.9312C62.4984 60.9312 63.0705 60.6683 63.4231 60.1426C63.7756 59.6107 63.9519 58.7324 63.9519 57.5078V52.6279H66.7815V63H64.6106ZM72.5798 63H69.7502V48.5645H72.5798V63ZM79.8532 54.4463C79.2533 54.4463 78.7833 54.638 78.4431 55.0215C78.1029 55.3988 77.9081 55.9368 77.8586 56.6357H81.8293C81.8169 55.9368 81.6345 55.3988 81.282 55.0215C80.9294 54.638 80.4532 54.4463 79.8532 54.4463ZM80.2522 63.1855C78.5822 63.1855 77.2772 62.7248 76.3371 61.8032C75.397 60.8817 74.927 59.5767 74.927 57.8882C74.927 56.1502 75.3599 54.8081 76.2258 53.8618C77.0979 52.9093 78.3008 52.4331 79.8347 52.4331C81.3005 52.4331 82.4416 52.8506 83.258 53.6855C84.0744 54.5205 84.4826 55.674 84.4826 57.146V58.519H77.7937C77.8246 59.3231 78.0627 59.9508 78.508 60.4023C78.9533 60.8538 79.578 61.0796 80.382 61.0796C81.0067 61.0796 81.5974 61.0146 82.154 60.8848C82.7107 60.7549 83.292 60.5477 83.8982 60.2632V62.4526C83.4034 62.7 82.8746 62.8825 82.3117 63C81.7489 63.1237 81.0624 63.1855 80.2522 63.1855ZM94.0197 59.9199C94.0197 60.9837 93.6487 61.7939 92.9065 62.3506C92.1705 62.9072 91.0665 63.1855 89.5945 63.1855C88.8399 63.1855 88.1967 63.133 87.6648 63.0278C87.1329 62.9289 86.635 62.7804 86.1711 62.5825V60.2446C86.6968 60.492 87.2875 60.6992 87.9431 60.8662C88.6049 61.0332 89.1862 61.1167 89.6872 61.1167C90.7139 61.1167 91.2273 60.8198 91.2273 60.2261C91.2273 60.0034 91.1592 59.8241 91.0232 59.688C90.8871 59.5457 90.6521 59.388 90.3181 59.2148C89.9841 59.0355 89.5388 58.8283 88.9821 58.5933C88.1843 58.2593 87.5967 57.95 87.2195 57.6655C86.8484 57.381 86.5762 57.0563 86.403 56.6914C86.2361 56.3203 86.1526 55.8657 86.1526 55.3276C86.1526 54.4061 86.5082 53.6948 87.2195 53.1938C87.9369 52.6867 88.9512 52.4331 90.2624 52.4331C91.5118 52.4331 92.7271 52.7052 93.9084 53.2495L93.0549 55.2905C92.5354 55.0679 92.0499 54.8854 91.5984 54.7432C91.1469 54.6009 90.6861 54.5298 90.216 54.5298C89.3811 54.5298 88.9636 54.7555 88.9636 55.207C88.9636 55.4606 89.0966 55.6802 89.3625 55.8657C89.6347 56.0513 90.2253 56.3265 91.1345 56.6914C91.9447 57.0192 92.5385 57.3254 92.9157 57.6099C93.293 57.8944 93.5713 58.2222 93.7507 58.5933C93.9301 58.9644 94.0197 59.4066 94.0197 59.9199ZM106.897 54.7524H104.447V63H101.618V54.7524H100.059V53.3887L101.618 52.6279V51.8672C101.618 50.6859 101.909 49.8231 102.49 49.2788C103.071 48.7345 104.002 48.4624 105.282 48.4624C106.26 48.4624 107.129 48.6077 107.889 48.8984L107.166 50.9766C106.597 50.7972 106.071 50.7075 105.589 50.7075C105.187 50.7075 104.896 50.8281 104.717 51.0693C104.537 51.3044 104.447 51.6074 104.447 51.9785V52.6279H106.897V54.7524ZM110.784 57.7954C110.784 58.8221 110.951 59.5983 111.285 60.124C111.625 60.6497 112.176 60.9126 112.936 60.9126C113.691 60.9126 114.232 60.6528 114.56 60.1333C114.894 59.6076 115.061 58.8283 115.061 57.7954C115.061 56.7687 114.894 55.9987 114.56 55.4854C114.226 54.972 113.678 54.7153 112.918 54.7153C112.163 54.7153 111.619 54.972 111.285 55.4854C110.951 55.9925 110.784 56.7625 110.784 57.7954ZM117.955 57.7954C117.955 59.4839 117.51 60.8044 116.619 61.7568C115.729 62.7093 114.489 63.1855 112.899 63.1855C111.903 63.1855 111.025 62.9691 110.264 62.5361C109.504 62.097 108.919 61.4692 108.511 60.6528C108.103 59.8364 107.899 58.884 107.899 57.7954C107.899 56.1007 108.341 54.7834 109.225 53.8433C110.11 52.9032 111.353 52.4331 112.955 52.4331C113.951 52.4331 114.829 52.6496 115.59 53.0825C116.35 53.5155 116.935 54.137 117.343 54.9473C117.751 55.7575 117.955 56.7069 117.955 57.7954ZM126.082 52.4331C126.466 52.4331 126.784 52.4609 127.038 52.5166L126.824 55.1699C126.596 55.1081 126.317 55.0771 125.989 55.0771C125.086 55.0771 124.381 55.3091 123.874 55.7729C123.373 56.2368 123.123 56.8862 123.123 57.7212V63H120.293V52.6279H122.436L122.854 54.3721H122.993C123.315 53.7907 123.747 53.3237 124.292 52.9712C124.842 52.6125 125.439 52.4331 126.082 52.4331ZM141.093 59.9199C141.093 60.9837 140.722 61.7939 139.98 62.3506C139.244 62.9072 138.14 63.1855 136.668 63.1855C135.913 63.1855 135.27 63.133 134.738 63.0278C134.206 62.9289 133.708 62.7804 133.244 62.5825V60.2446C133.77 60.492 134.361 60.6992 135.016 60.8662C135.678 61.0332 136.259 61.1167 136.76 61.1167C137.787 61.1167 138.301 60.8198 138.301 60.2261C138.301 60.0034 138.232 59.8241 138.096 59.688C137.96 59.5457 137.725 59.388 137.391 59.2148C137.057 59.0355 136.612 58.8283 136.055 58.5933C135.258 58.2593 134.67 57.95 134.293 57.6655C133.922 57.381 133.649 57.0563 133.476 56.6914C133.309 56.3203 133.226 55.8657 133.226 55.3276C133.226 54.4061 133.581 53.6948 134.293 53.1938C135.01 52.6867 136.024 52.4331 137.336 52.4331C138.585 52.4331 139.8 52.7052 140.982 53.2495L140.128 55.2905C139.609 55.0679 139.123 54.8854 138.672 54.7432C138.22 54.6009 137.759 54.5298 137.289 54.5298C136.454 54.5298 136.037 54.7555 136.037 55.207C136.037 55.4606 136.17 55.6802 136.436 55.8657C136.708 56.0513 137.299 56.3265 138.208 56.6914C139.018 57.0192 139.612 57.3254 139.989 57.6099C140.366 57.8944 140.645 58.2222 140.824 58.5933C141.003 58.9644 141.093 59.4066 141.093 59.9199ZM147.671 60.9312C148.165 60.9312 148.759 60.8229 149.452 60.6064V62.7124C148.747 63.0278 147.881 63.1855 146.854 63.1855C145.722 63.1855 144.897 62.901 144.377 62.332C143.864 61.7568 143.607 60.8971 143.607 59.7529V54.7524H142.253V53.5557L143.811 52.6094L144.628 50.4199H146.437V52.6279H149.341V54.7524H146.437V59.7529C146.437 60.1549 146.548 60.4518 146.771 60.6436C147 60.8353 147.3 60.9312 147.671 60.9312ZM158.905 63L158.525 61.6733H158.377C158.074 62.1558 157.644 62.5299 157.087 62.7959C156.53 63.0557 155.897 63.1855 155.185 63.1855C153.967 63.1855 153.048 62.8608 152.43 62.2114C151.811 61.5558 151.502 60.6157 151.502 59.3911V52.6279H154.332V58.686C154.332 59.4344 154.465 59.9972 154.731 60.3745C154.997 60.7456 155.42 60.9312 156.002 60.9312C156.793 60.9312 157.365 60.6683 157.718 60.1426C158.071 59.6107 158.247 58.7324 158.247 57.5078V52.6279H161.076V63H158.905ZM167.329 63.1855C166.111 63.1855 165.152 62.7124 164.453 61.7661C163.761 60.8198 163.414 59.5086 163.414 57.8325C163.414 56.1317 163.767 54.8081 164.472 53.8618C165.183 52.9093 166.16 52.4331 167.404 52.4331C168.709 52.4331 169.704 52.9403 170.391 53.9546H170.484C170.341 53.1815 170.27 52.4919 170.27 51.8857V48.5645H173.109V63H170.938L170.391 61.6548H170.27C169.627 62.6753 168.647 63.1855 167.329 63.1855ZM168.322 60.9312C169.046 60.9312 169.574 60.7209 169.908 60.3003C170.249 59.8797 170.434 59.1654 170.465 58.1572V57.8511C170.465 56.7378 170.292 55.9399 169.946 55.4575C169.605 54.9751 169.049 54.7339 168.276 54.7339C167.645 54.7339 167.153 55.0029 166.801 55.541C166.454 56.0729 166.281 56.8491 166.281 57.8696C166.281 58.8901 166.457 59.6571 166.81 60.1704C167.162 60.6776 167.666 60.9312 168.322 60.9312ZM180.364 54.4463C179.764 54.4463 179.294 54.638 178.954 55.0215C178.614 55.3988 178.419 55.9368 178.369 56.6357H182.34C182.328 55.9368 182.145 55.3988 181.793 55.0215C181.44 54.638 180.964 54.4463 180.364 54.4463ZM180.763 63.1855C179.093 63.1855 177.788 62.7248 176.848 61.8032C175.908 60.8817 175.438 59.5767 175.438 57.8882C175.438 56.1502 175.871 54.8081 176.737 53.8618C177.609 52.9093 178.812 52.4331 180.345 52.4331C181.811 52.4331 182.952 52.8506 183.769 53.6855C184.585 54.5205 184.993 55.674 184.993 57.146V58.519H178.304C178.335 59.3231 178.573 59.9508 179.019 60.4023C179.464 60.8538 180.089 61.0796 180.893 61.0796C181.517 61.0796 182.108 61.0146 182.665 60.8848C183.221 60.7549 183.803 60.5477 184.409 60.2632V62.4526C183.914 62.7 183.385 62.8825 182.822 63C182.26 63.1237 181.573 63.1855 180.763 63.1855ZM196.868 63H194.039V56.9419C194.039 56.1935 193.906 55.6338 193.64 55.2627C193.374 54.8854 192.95 54.6968 192.369 54.6968C191.577 54.6968 191.005 54.9627 190.653 55.4946C190.3 56.0203 190.124 56.8955 190.124 58.1201V63H187.294V52.6279H189.456L189.836 53.9546H189.994C190.309 53.4536 190.742 53.0763 191.293 52.8228C191.849 52.563 192.48 52.4331 193.185 52.4331C194.391 52.4331 195.307 52.7609 195.931 53.4165C196.556 54.0659 196.868 55.006 196.868 56.2368V63ZM204.151 60.9312C204.646 60.9312 205.24 60.8229 205.932 60.6064V62.7124C205.227 63.0278 204.361 63.1855 203.335 63.1855C202.203 63.1855 201.377 62.901 200.858 62.332C200.344 61.7568 200.088 60.8971 200.088 59.7529V54.7524H198.733V53.5557L200.292 52.6094L201.108 50.4199H202.917V52.6279H205.821V54.7524H202.917V59.7529C202.917 60.1549 203.029 60.4518 203.251 60.6436C203.48 60.8353 203.78 60.9312 204.151 60.9312ZM215.275 59.9199C215.275 60.9837 214.904 61.7939 214.161 62.3506C213.425 62.9072 212.321 63.1855 210.849 63.1855C210.095 63.1855 209.452 63.133 208.92 63.0278C208.388 62.9289 207.89 62.7804 207.426 62.5825V60.2446C207.952 60.492 208.542 60.6992 209.198 60.8662C209.86 61.0332 210.441 61.1167 210.942 61.1167C211.969 61.1167 212.482 60.8198 212.482 60.2261C212.482 60.0034 212.414 59.8241 212.278 59.688C212.142 59.5457 211.907 59.388 211.573 59.2148C211.239 59.0355 210.794 58.8283 210.237 58.5933C209.439 58.2593 208.852 57.95 208.474 57.6655C208.103 57.381 207.831 57.0563 207.658 56.6914C207.491 56.3203 207.407 55.8657 207.407 55.3276C207.407 54.4061 207.763 53.6948 208.474 53.1938C209.192 52.6867 210.206 52.4331 211.517 52.4331C212.767 52.4331 213.982 52.7052 215.163 53.2495L214.31 55.2905C213.79 55.0679 213.305 54.8854 212.853 54.7432C212.402 54.6009 211.941 54.5298 211.471 54.5298C210.636 54.5298 210.218 54.7555 210.218 55.207C210.218 55.4606 210.351 55.6802 210.617 55.8657C210.89 56.0513 211.48 56.3265 212.389 56.6914C213.2 57.0192 213.793 57.3254 214.171 57.6099C214.548 57.8944 214.826 58.2222 215.006 58.5933C215.185 58.9644 215.275 59.4066 215.275 59.9199ZM219.394 58.5005V57.814C219.394 57.4985 219.425 57.214 219.487 56.9604C219.555 56.7007 219.654 56.4564 219.783 56.2275C219.919 55.9925 220.093 55.7668 220.303 55.5503C220.513 55.3276 220.767 55.0988 221.064 54.8638C221.323 54.6597 221.543 54.4772 221.722 54.3164C221.902 54.1556 222.047 53.9979 222.158 53.8433C222.27 53.6825 222.35 53.5155 222.4 53.3423C222.449 53.1691 222.474 52.9681 222.474 52.7393C222.474 52.3867 222.353 52.096 222.112 51.8672C221.877 51.6383 221.515 51.5239 221.027 51.5239C220.6 51.5239 220.139 51.6136 219.644 51.793C219.156 51.9723 218.648 52.1919 218.123 52.4517L217.176 50.4014C217.442 50.2467 217.73 50.1014 218.039 49.9653C218.355 49.8231 218.679 49.6994 219.013 49.5942C219.354 49.4829 219.697 49.3963 220.043 49.3345C220.39 49.2726 220.73 49.2417 221.064 49.2417C221.695 49.2417 222.264 49.319 222.771 49.4736C223.278 49.6221 223.708 49.8416 224.06 50.1323C224.413 50.423 224.682 50.7756 224.867 51.1899C225.059 51.6043 225.155 52.0775 225.155 52.6094C225.155 52.999 225.112 53.3485 225.025 53.6577C224.939 53.9608 224.809 54.2453 224.635 54.5112C224.468 54.771 224.255 55.0246 223.995 55.272C223.742 55.5132 223.445 55.7699 223.105 56.042C222.845 56.2461 222.632 56.4255 222.465 56.5801C222.304 56.7285 222.177 56.8708 222.084 57.0068C221.991 57.1429 221.926 57.2852 221.889 57.4336C221.858 57.5758 221.843 57.7459 221.843 57.9438V58.5005H219.394ZM219.088 61.6733C219.088 61.3826 219.128 61.1383 219.208 60.9404C219.295 60.7363 219.412 60.5724 219.561 60.4487C219.709 60.325 219.882 60.2354 220.08 60.1797C220.284 60.124 220.501 60.0962 220.73 60.0962C220.946 60.0962 221.15 60.124 221.342 60.1797C221.54 60.2354 221.713 60.325 221.862 60.4487C222.01 60.5724 222.127 60.7363 222.214 60.9404C222.301 61.1383 222.344 61.3826 222.344 61.6733C222.344 61.9517 222.301 62.1898 222.214 62.3877C222.127 62.5856 222.01 62.7495 221.862 62.8794C221.713 63.0093 221.54 63.1021 221.342 63.1577C221.15 63.2196 220.946 63.2505 220.73 63.2505C220.501 63.2505 220.284 63.2196 220.08 63.1577C219.882 63.1021 219.709 63.0093 219.561 62.8794C219.412 62.7495 219.295 62.5856 219.208 62.3877C219.128 62.1898 219.088 61.9517 219.088 61.6733Z"></path>
<path stroke-linejoin="round" stroke-miterlimit="10" stroke="#0B233F" fill="#F3F5F8" d="M308.5 15.167C308.5 7.06699 315.067 0.5 323.167 0.5H535.833C543.933 0.5 550.5 7.06699 550.5 15.167V73.833C550.5 81.933 543.933 88.5 535.833 88.5H323.167C315.067 88.5 308.5 81.933 308.5 73.833V15.167Z" clip-rule="evenodd" fill-rule="evenodd"></path>
<path fill="#0B233F" d="M331.416 37.3726C331.416 38.5539 330.989 39.4847 330.136 40.165C329.282 40.8454 328.095 41.1855 326.573 41.1855C324.965 41.1855 323.722 40.9722 322.844 40.5454V38.9126C323.419 39.16 324.047 39.3548 324.727 39.4971C325.414 39.6393 326.054 39.7104 326.648 39.7104C327.662 39.7104 328.426 39.5156 328.939 39.126C329.452 38.7363 329.709 38.2013 329.709 37.521C329.709 37.0695 329.616 36.6984 329.431 36.4077C329.245 36.117 328.933 35.8449 328.494 35.5913C328.061 35.3377 327.402 35.0501 326.518 34.7285C325.262 34.2708 324.365 33.7327 323.827 33.1143C323.289 32.4896 323.02 31.6855 323.02 30.7021C323.02 29.6445 323.416 28.8034 324.208 28.1787C325.005 27.554 326.054 27.2417 327.353 27.2417C328.707 27.2417 329.953 27.4953 331.091 28.0024L330.563 29.4683C329.4 28.9858 328.317 28.7446 327.316 28.7446C326.511 28.7446 325.881 28.9178 325.423 29.2642C324.971 29.6105 324.746 30.096 324.746 30.7207C324.746 31.166 324.832 31.5371 325.005 31.834C325.185 32.1247 325.469 32.3906 325.859 32.6318C326.255 32.873 326.873 33.1483 327.714 33.4575C328.723 33.8286 329.474 34.1904 329.969 34.543C330.464 34.8893 330.829 35.2913 331.064 35.749C331.299 36.2005 331.416 36.7417 331.416 37.3726ZM338.254 41.1855C336.726 41.1855 335.526 40.7248 334.654 39.8032C333.788 38.8755 333.355 37.6014 333.355 35.981C333.355 34.3481 333.76 33.0493 334.57 32.0845C335.381 31.1134 336.475 30.6279 337.855 30.6279C339.135 30.6279 340.155 31.0423 340.916 31.8711C341.677 32.6937 342.057 33.8101 342.057 35.2202V36.2314H335.081C335.112 37.388 335.405 38.2663 335.962 38.8662C336.519 39.4661 337.307 39.7661 338.328 39.7661C338.872 39.7661 339.388 39.7197 339.877 39.627C340.366 39.528 340.938 39.3394 341.593 39.061V40.5269C341.031 40.7681 340.502 40.9382 340.007 41.0371C339.512 41.1361 338.928 41.1855 338.254 41.1855ZM337.836 31.9917C337.038 31.9917 336.407 32.2484 335.943 32.7617C335.48 33.2751 335.204 33.9894 335.118 34.9048H340.304C340.291 33.9523 340.072 33.2287 339.645 32.7339C339.218 32.2391 338.615 31.9917 337.836 31.9917ZM348.05 39.8218C348.267 39.8218 348.52 39.8001 348.811 39.7568C349.102 39.7135 349.321 39.6641 349.47 39.6084V40.8887C349.315 40.9567 349.074 41.0216 348.746 41.0835C348.425 41.1515 348.097 41.1855 347.763 41.1855C345.771 41.1855 344.775 40.1372 344.775 38.0405V32.1123H343.337V31.3145L344.794 30.6465L345.462 28.4756H346.455V30.8135H349.396V32.1123H346.455V37.9941C346.455 38.5817 346.594 39.0332 346.872 39.3486C347.157 39.6641 347.549 39.8218 348.05 39.8218ZM368.516 34.1997C368.516 36.3706 367.966 38.0776 366.865 39.3208C365.77 40.564 364.236 41.1855 362.263 41.1855C360.266 41.1855 358.719 40.5763 357.625 39.3579C356.536 38.1333 355.992 36.4077 355.992 34.1812C355.992 31.9731 356.533 30.263 357.615 29.0508C358.704 27.8324 360.259 27.2231 362.282 27.2231C364.249 27.2231 365.779 27.8416 366.874 29.0786C367.969 30.3094 368.516 32.0164 368.516 34.1997ZM357.792 34.1997C357.792 35.9933 358.172 37.3602 358.933 38.3003C359.693 39.2404 360.804 39.7104 362.263 39.7104C363.717 39.7104 364.821 39.2466 365.575 38.3188C366.33 37.3911 366.707 36.0181 366.707 34.1997C366.707 32.3875 366.333 31.0238 365.585 30.1084C364.836 29.1868 363.735 28.7261 362.282 28.7261C360.81 28.7261 359.693 29.193 358.933 30.127C358.172 31.0547 357.792 32.4123 357.792 34.1997ZM376.114 41.1855C374.747 41.1855 373.696 40.6938 372.96 39.7104H372.849L372.886 40.0908C372.935 40.5732 372.96 41.0031 372.96 41.3804V45.5645H371.29V30.8135H372.663L372.886 32.2051H372.96C373.356 31.6484 373.814 31.2464 374.333 30.999C374.853 30.7516 375.453 30.6279 376.133 30.6279C377.456 30.6279 378.483 31.0887 379.213 32.0103C379.949 32.9256 380.317 34.2183 380.317 35.8882C380.317 37.5519 379.949 38.8507 379.213 39.7847C378.477 40.7186 377.444 41.1855 376.114 41.1855ZM375.836 32.0288C374.828 32.0288 374.098 32.3133 373.647 32.8823C373.201 33.4513 372.972 34.3451 372.96 35.5635V35.8882C372.96 37.2674 373.189 38.2663 373.647 38.8848C374.104 39.4971 374.846 39.8032 375.873 39.8032C376.727 39.8032 377.392 39.4569 377.868 38.7642C378.35 38.0715 378.591 37.1066 378.591 35.8696C378.591 34.6265 378.35 33.6771 377.868 33.0215C377.392 32.3597 376.714 32.0288 375.836 32.0288ZM386.384 39.8218C386.601 39.8218 386.854 39.8001 387.145 39.7568C387.436 39.7135 387.655 39.6641 387.804 39.6084V40.8887C387.649 40.9567 387.408 41.0216 387.08 41.0835C386.759 41.1515 386.431 41.1855 386.097 41.1855C384.105 41.1855 383.109 40.1372 383.109 38.0405V32.1123H381.671V31.3145L383.128 30.6465L383.796 28.4756H384.789V30.8135H387.73V32.1123H384.789V37.9941C384.789 38.5817 384.928 39.0332 385.206 39.3486C385.491 39.6641 385.883 39.8218 386.384 39.8218ZM391.515 41H389.845V30.8135H391.515V41ZM389.715 28.0581C389.715 27.687 389.808 27.418 389.993 27.251C390.185 27.084 390.42 27.0005 390.698 27.0005C390.958 27.0005 391.184 27.084 391.376 27.251C391.573 27.418 391.672 27.687 391.672 28.0581C391.672 28.423 391.573 28.6921 391.376 28.8652C391.184 29.0384 390.958 29.125 390.698 29.125C390.42 29.125 390.185 29.0384 389.993 28.8652C389.808 28.6921 389.715 28.423 389.715 28.0581ZM403.594 35.8882C403.594 37.5519 403.173 38.8507 402.332 39.7847C401.491 40.7186 400.328 41.1855 398.844 41.1855C397.922 41.1855 397.106 40.9722 396.395 40.5454C395.683 40.1125 395.136 39.494 394.753 38.6899C394.369 37.8859 394.177 36.952 394.177 35.8882C394.177 34.2306 394.592 32.9411 395.421 32.0195C396.249 31.0918 397.412 30.6279 398.909 30.6279C400.344 30.6279 401.482 31.1011 402.323 32.0474C403.17 32.9875 403.594 34.2677 403.594 35.8882ZM395.903 35.8882C395.903 37.1685 396.153 38.1426 396.654 38.8105C397.162 39.4723 397.907 39.8032 398.89 39.8032C399.861 39.8032 400.6 39.4723 401.108 38.8105C401.615 38.1426 401.868 37.1685 401.868 35.8882C401.868 34.6079 401.612 33.6462 401.098 33.0029C400.591 32.3535 399.846 32.0288 398.862 32.0288C396.889 32.0288 395.903 33.3153 395.903 35.8882ZM413.187 41V34.4873C413.187 33.6585 413.001 33.0431 412.63 32.6411C412.265 32.2329 411.69 32.0288 410.904 32.0288C409.859 32.0288 409.098 32.3195 408.622 32.9009C408.152 33.4761 407.917 34.4162 407.917 35.7212V41H406.247V30.8135H407.592L407.843 32.2051H407.936C408.251 31.7041 408.693 31.3175 409.262 31.0454C409.831 30.7671 410.459 30.6279 411.146 30.6279C412.395 30.6279 413.323 30.931 413.929 31.5371C414.535 32.1432 414.838 33.0864 414.838 34.3667V41H413.187ZM424.282 41L423.958 39.5527H423.883C423.376 40.1898 422.869 40.6227 422.362 40.8516C421.861 41.0742 421.227 41.1855 420.46 41.1855C419.458 41.1855 418.673 40.9227 418.104 40.397C417.535 39.8713 417.25 39.1291 417.25 38.1704C417.25 36.1047 418.88 35.0223 422.139 34.9233L423.865 34.8584V34.2554C423.865 33.4823 423.698 32.9132 423.364 32.5483C423.03 32.1772 422.495 31.9917 421.759 31.9917C421.221 31.9917 420.711 32.0721 420.228 32.2329C419.752 32.3937 419.303 32.5731 418.883 32.771L418.373 31.5186C418.886 31.2464 419.446 31.033 420.052 30.8784C420.658 30.7238 421.258 30.6465 421.852 30.6465C423.082 30.6465 423.998 30.9186 424.598 31.4629C425.198 32.0072 425.498 32.873 425.498 34.0605V41H424.282ZM420.84 39.8403C421.774 39.8403 422.507 39.5898 423.039 39.0889C423.577 38.5817 423.846 37.8643 423.846 36.9365V36.0181L422.343 36.083C421.174 36.1263 420.321 36.3118 419.783 36.6396C419.251 36.9674 418.985 37.4839 418.985 38.189C418.985 38.7209 419.146 39.1291 419.467 39.4136C419.795 39.6981 420.253 39.8403 420.84 39.8403ZM430.331 41H428.661V26.5645H430.331V41Z"></path>
<path fill="#0B233F" d="M332.233 63L330.6 58.7974H325.219L323.605 63H321.879L327.176 49.3809H328.716L334.004 63H332.233ZM330.089 57.2852L328.568 53.1753L327.919 51.1436C327.733 51.8857 327.538 52.563 327.334 53.1753L325.794 57.2852H330.089ZM339.729 63.1855C338.263 63.1855 337.122 62.7371 336.305 61.8403C335.489 60.9373 335.081 59.6447 335.081 57.9624C335.081 56.2554 335.492 54.9411 336.315 54.0195C337.143 53.0918 338.322 52.6279 339.849 52.6279C340.344 52.6279 340.833 52.6805 341.315 52.7856C341.804 52.8846 342.206 53.0145 342.521 53.1753L342.011 54.5669C341.151 54.2453 340.418 54.0845 339.812 54.0845C338.785 54.0845 338.028 54.4092 337.539 55.0586C337.051 55.7018 336.806 56.6636 336.806 57.9438C336.806 59.1746 337.051 60.1178 337.539 60.7734C338.028 61.4229 338.751 61.7476 339.71 61.7476C340.607 61.7476 341.488 61.5496 342.354 61.1538V62.6382C341.649 63.0031 340.774 63.1855 339.729 63.1855ZM348.18 61.8218C348.397 61.8218 348.65 61.8001 348.941 61.7568C349.232 61.7135 349.451 61.6641 349.6 61.6084V62.8887C349.445 62.9567 349.204 63.0216 348.876 63.0835C348.554 63.1515 348.227 63.1855 347.893 63.1855C345.901 63.1855 344.905 62.1372 344.905 60.0405V54.1123H343.467V53.3145L344.924 52.6465L345.592 50.4756H346.585V52.8135H349.525V54.1123H346.585V59.9941C346.585 60.5817 346.724 61.0332 347.002 61.3486C347.287 61.6641 347.679 61.8218 348.18 61.8218ZM353.311 63H351.641V52.8135H353.311V63ZM351.511 50.0581C351.511 49.687 351.604 49.418 351.789 49.251C351.981 49.084 352.216 49.0005 352.494 49.0005C352.754 49.0005 352.98 49.084 353.171 49.251C353.369 49.418 353.468 49.687 353.468 50.0581C353.468 50.423 353.369 50.6921 353.171 50.8652C352.98 51.0384 352.754 51.125 352.494 51.125C352.216 51.125 351.981 51.0384 351.789 50.8652C351.604 50.6921 351.511 50.423 351.511 50.0581ZM358.784 63L354.925 52.8135H356.715L358.877 58.8159C359.304 60.022 359.576 60.9219 359.693 61.5156H359.768C359.786 61.4352 359.808 61.3455 359.833 61.2466C359.864 61.1414 359.898 61.0301 359.935 60.9126C359.972 60.7889 360.201 60.09 360.621 58.8159L362.792 52.8135H364.573L360.705 63H358.784ZM367.858 63H366.188V52.8135H367.858V63ZM366.058 50.0581C366.058 49.687 366.15 49.418 366.336 49.251C366.528 49.084 366.763 49.0005 367.041 49.0005C367.301 49.0005 367.527 49.084 367.718 49.251C367.916 49.418 368.015 49.687 368.015 50.0581C368.015 50.423 367.916 50.6921 367.718 50.8652C367.527 51.0384 367.301 51.125 367.041 51.125C366.763 51.125 366.528 51.0384 366.336 50.8652C366.15 50.6921 366.058 50.423 366.058 50.0581ZM374.491 61.8218C374.707 61.8218 374.961 61.8001 375.252 61.7568C375.542 61.7135 375.762 61.6641 375.91 61.6084V62.8887C375.756 62.9567 375.514 63.0216 375.187 63.0835C374.865 63.1515 374.537 63.1855 374.203 63.1855C372.212 63.1855 371.216 62.1372 371.216 60.0405V54.1123H369.778V53.3145L371.234 52.6465L371.902 50.4756H372.895V52.8135H375.836V54.1123H372.895V59.9941C372.895 60.5817 373.034 61.0332 373.313 61.3486C373.597 61.6641 373.99 61.8218 374.491 61.8218ZM379.621 63H377.951V52.8135H379.621V63ZM377.821 50.0581C377.821 49.687 377.914 49.418 378.1 49.251C378.291 49.084 378.526 49.0005 378.805 49.0005C379.065 49.0005 379.29 49.084 379.482 49.251C379.68 49.418 379.779 49.687 379.779 50.0581C379.779 50.423 379.68 50.6921 379.482 50.8652C379.29 51.0384 379.065 51.125 378.805 51.125C378.526 51.125 378.291 51.0384 378.1 50.8652C377.914 50.6921 377.821 50.423 377.821 50.0581ZM387.182 63.1855C385.655 63.1855 384.455 62.7248 383.583 61.8032C382.717 60.8755 382.284 59.6014 382.284 57.981C382.284 56.3481 382.689 55.0493 383.499 54.0845C384.309 53.1134 385.404 52.6279 386.783 52.6279C388.064 52.6279 389.084 53.0423 389.845 53.8711C390.606 54.6937 390.986 55.8101 390.986 57.2202V58.2314H384.009C384.04 59.388 384.334 60.2663 384.891 60.8662C385.447 61.4661 386.236 61.7661 387.256 61.7661C387.801 61.7661 388.317 61.7197 388.806 61.627C389.294 61.528 389.866 61.3394 390.522 61.061V62.5269C389.959 62.7681 389.43 62.9382 388.936 63.0371C388.441 63.1361 387.856 63.1855 387.182 63.1855ZM386.765 53.9917C385.967 53.9917 385.336 54.2484 384.872 54.7617C384.408 55.2751 384.133 55.9894 384.046 56.9048H389.233C389.22 55.9523 389.001 55.2287 388.574 54.7339C388.147 54.2391 387.544 53.9917 386.765 53.9917ZM400.208 60.189C400.208 61.1414 399.852 61.8805 399.141 62.4062C398.429 62.9258 397.431 63.1855 396.144 63.1855C394.802 63.1855 393.735 62.9722 392.943 62.5454V61.0239C394.063 61.5682 395.142 61.8403 396.181 61.8403C397.022 61.8403 397.635 61.7043 398.018 61.4321C398.402 61.16 398.593 60.7951 398.593 60.3374C398.593 59.9354 398.408 59.5952 398.037 59.3169C397.672 59.0386 397.019 58.7201 396.079 58.3613C395.121 57.9902 394.446 57.6748 394.057 57.415C393.667 57.1491 393.379 56.8522 393.194 56.5244C393.015 56.1966 392.925 55.7977 392.925 55.3276C392.925 54.4927 393.265 53.834 393.945 53.3516C394.626 52.8691 395.56 52.6279 396.747 52.6279C397.904 52.6279 398.986 52.8568 399.994 53.3145L399.428 54.6411C398.395 54.2082 397.465 53.9917 396.636 53.9917C395.943 53.9917 395.417 54.103 395.059 54.3257C394.7 54.5422 394.521 54.8421 394.521 55.2256C394.521 55.5967 394.675 55.9059 394.984 56.1533C395.294 56.3945 396.014 56.7316 397.146 57.1646C397.993 57.48 398.618 57.7738 399.02 58.0459C399.428 58.318 399.728 58.6242 399.92 58.9644C400.112 59.3045 400.208 59.7127 400.208 60.189ZM408.427 47.1821L403.445 66.145H401.868L406.869 47.1821H408.427ZM422.919 56.1997C422.919 57.9129 422.575 59.3416 421.889 60.4858C421.202 61.63 420.228 62.4186 418.966 62.8516L422.213 66.2285H419.764L417.139 63.167L416.666 63.1855C414.668 63.1855 413.122 62.5763 412.027 61.3579C410.938 60.1333 410.394 58.4077 410.394 56.1812C410.394 53.9731 410.935 52.263 412.018 51.0508C413.106 49.8324 414.662 49.2231 416.684 49.2231C418.651 49.2231 420.182 49.8416 421.276 51.0786C422.371 52.3094 422.919 54.0164 422.919 56.1997ZM412.194 56.1997C412.194 57.9933 412.574 59.3602 413.335 60.3003C414.096 61.2404 415.206 61.7104 416.666 61.7104C418.119 61.7104 419.223 61.2466 419.978 60.3188C420.732 59.3911 421.109 58.0181 421.109 56.1997C421.109 54.3875 420.735 53.0238 419.987 52.1084C419.239 51.1868 418.138 50.7261 416.684 50.7261C415.212 50.7261 414.096 51.193 413.335 52.127C412.574 53.0547 412.194 54.4123 412.194 56.1997ZM427.27 52.8135V59.3726C427.27 60.1951 427.452 60.8075 427.817 61.2095C428.188 61.6053 428.76 61.8032 429.533 61.8032C430.579 61.8032 431.339 61.5125 431.816 60.9312C432.292 60.3498 432.53 59.4128 432.53 58.1201V52.8135H434.209V63H432.836L432.595 61.6548H432.511C432.208 62.1434 431.778 62.5207 431.222 62.7866C430.665 63.0526 430.019 63.1855 429.283 63.1855C428.058 63.1855 427.134 62.8918 426.509 62.3042C425.89 61.7166 425.581 60.7765 425.581 59.4839V52.8135H427.27ZM439.108 63H437.438V52.8135H439.108V63ZM437.308 50.0581C437.308 49.687 437.4 49.418 437.586 49.251C437.778 49.084 438.013 49.0005 438.291 49.0005C438.551 49.0005 438.777 49.084 438.968 49.251C439.166 49.418 439.265 49.687 439.265 50.0581C439.265 50.423 439.166 50.6921 438.968 50.8652C438.777 51.0384 438.551 51.125 438.291 51.125C438.013 51.125 437.778 51.0384 437.586 50.8652C437.4 50.6921 437.308 50.423 437.308 50.0581ZM448.914 63H441.464V61.896L446.938 54.1123H441.789V52.8135H448.775V54.0659L443.384 61.7104H448.914V63ZM457.857 63H450.407V61.896L455.881 54.1123H450.732V52.8135H457.718V54.0659L452.328 61.7104H457.857V63ZM464.555 63.1855C463.028 63.1855 461.828 62.7248 460.956 61.8032C460.09 60.8755 459.657 59.6014 459.657 57.981C459.657 56.3481 460.062 55.0493 460.872 54.0845C461.682 53.1134 462.777 52.6279 464.156 52.6279C465.437 52.6279 466.457 53.0423 467.218 53.8711C467.979 54.6937 468.359 55.8101 468.359 57.2202V58.2314H461.382C461.413 59.388 461.707 60.2663 462.264 60.8662C462.82 61.4661 463.609 61.7661 464.629 61.7661C465.174 61.7661 465.69 61.7197 466.179 61.627C466.667 61.528 467.24 61.3394 467.895 61.061V62.5269C467.332 62.7681 466.803 62.9382 466.309 63.0371C465.814 63.1361 465.229 63.1855 464.555 63.1855ZM464.138 53.9917C463.34 53.9917 462.709 54.2484 462.245 54.7617C461.781 55.2751 461.506 55.9894 461.42 56.9048H466.606C466.593 55.9523 466.374 55.2287 465.947 54.7339C465.52 54.2391 464.917 53.9917 464.138 53.9917ZM477.581 60.189C477.581 61.1414 477.225 61.8805 476.514 62.4062C475.803 62.9258 474.804 63.1855 473.517 63.1855C472.175 63.1855 471.108 62.9722 470.316 62.5454V61.0239C471.436 61.5682 472.515 61.8403 473.554 61.8403C474.395 61.8403 475.008 61.7043 475.391 61.4321C475.775 61.16 475.966 60.7951 475.966 60.3374C475.966 59.9354 475.781 59.5952 475.41 59.3169C475.045 59.0386 474.392 58.7201 473.452 58.3613C472.494 57.9902 471.819 57.6748 471.43 57.415C471.04 57.1491 470.753 56.8522 470.567 56.5244C470.388 56.1966 470.298 55.7977 470.298 55.3276C470.298 54.4927 470.638 53.834 471.318 53.3516C471.999 52.8691 472.933 52.6279 474.12 52.6279C475.277 52.6279 476.359 52.8568 477.367 53.3145L476.801 54.6411C475.768 54.2082 474.838 53.9917 474.009 53.9917C473.316 53.9917 472.79 54.103 472.432 54.3257C472.073 54.5422 471.894 54.8421 471.894 55.2256C471.894 55.5967 472.048 55.9059 472.358 56.1533C472.667 56.3945 473.387 56.7316 474.519 57.1646C475.366 57.48 475.991 57.7738 476.393 58.0459C476.801 58.318 477.101 58.6242 477.293 58.9644C477.485 59.3045 477.581 59.7127 477.581 60.189Z"></path>
<path fill="#E96969" d="M242 42.9995H274.866C275.418 42.9995 275.866 43.4475 275.866 43.9995V44.0625L274.866 43.0625H301.066V45.0625H274.866C274.314 45.0625 273.866 44.6145 273.866 44.0625V43.9995L274.866 44.9995H242V42.9995ZM299.732 40.0625L307.732 44.0625L299.732 48.0625V40.0625Z"></path>
</svg>
