<svg xmlns="http://www.w3.org/2000/svg" fill="none" viewBox="0 0 860 198" height="198" width="860">
<path stroke-linejoin="round" stroke-miterlimit="10" stroke="#0B233F" fill="#0B233F" d="M1 15.667C1 7.56699 7.5665 1 15.6668 1H228.333C236.433 1 243 7.56699 243 15.667V74.333C243 82.433 236.433 89 228.333 89H15.6668C7.5665 89 1 82.433 1 74.333V15.667Z" clip-rule="evenodd" fill-rule="evenodd"></path>
<path fill="white" d="M27.3889 41.5H24.5222V35.646H19.1506V41.5H16.2747V27.9365H19.1506V33.2524H24.5222V27.9365H27.3889V41.5ZM32.8533 36.2954C32.8533 37.3221 33.0203 38.0983 33.3542 38.624C33.6944 39.1497 34.2449 39.4126 35.0056 39.4126C35.7602 39.4126 36.3014 39.1528 36.6292 38.6333C36.9631 38.1076 37.1301 37.3283 37.1301 36.2954C37.1301 35.2687 36.9631 34.4987 36.6292 33.9854C36.2952 33.472 35.7478 33.2153 34.9871 33.2153C34.2325 33.2153 33.6882 33.472 33.3542 33.9854C33.0203 34.4925 32.8533 35.2625 32.8533 36.2954ZM40.0247 36.2954C40.0247 37.9839 39.5793 39.3044 38.6887 40.2568C37.7981 41.2093 36.558 41.6855 34.9685 41.6855C33.9727 41.6855 33.0945 41.4691 32.3337 41.0361C31.573 40.597 30.9885 39.9692 30.5803 39.1528C30.1721 38.3364 29.968 37.384 29.968 36.2954C29.968 34.6007 30.4102 33.2834 31.2947 32.3433C32.1791 31.4032 33.4223 30.9331 35.0242 30.9331C36.0199 30.9331 36.8982 31.1496 37.6589 31.5825C38.4197 32.0155 39.0042 32.637 39.4124 33.4473C39.8206 34.2575 40.0247 35.2069 40.0247 36.2954ZM50.7029 41.5L49.905 37.8726L48.8474 33.2896H48.7639L46.8713 41.5H43.8284L40.8782 31.1279H43.6985L44.8953 35.7202C45.0313 36.2645 45.22 37.3994 45.4612 39.125H45.5354C45.5601 38.6549 45.6684 37.9097 45.8601 36.8892L46.0085 36.1006L47.2888 31.1279H50.406L51.6213 36.1006C51.6956 36.4408 51.7852 36.9417 51.8904 37.6035C52.0017 38.2591 52.0636 38.7663 52.0759 39.125H52.1501C52.2182 38.5745 52.314 37.9499 52.4377 37.251C52.5614 36.5459 52.6666 36.0356 52.7532 35.7202L53.9963 31.1279H56.7703L53.783 41.5H50.7029ZM67.7546 39.4312C68.2494 39.4312 68.8432 39.3229 69.5359 39.1064V41.2124C68.8308 41.5278 67.9649 41.6855 66.9382 41.6855C65.8064 41.6855 64.9807 41.401 64.4612 40.832C63.9478 40.2568 63.6912 39.3971 63.6912 38.2529V33.2524H62.3367V32.0557L63.8953 31.1094L64.7117 28.9199H66.5208V31.1279H69.4246V33.2524H66.5208V38.2529C66.5208 38.6549 66.6321 38.9518 66.8547 39.1436C67.0836 39.3353 67.3835 39.4312 67.7546 39.4312ZM73.8962 36.2954C73.8962 37.3221 74.0632 38.0983 74.3972 38.624C74.7374 39.1497 75.2878 39.4126 76.0486 39.4126C76.8031 39.4126 77.3443 39.1528 77.6721 38.6333C78.0061 38.1076 78.1731 37.3283 78.1731 36.2954C78.1731 35.2687 78.0061 34.4987 77.6721 33.9854C77.3381 33.472 76.7908 33.2153 76.03 33.2153C75.2755 33.2153 74.7312 33.472 74.3972 33.9854C74.0632 34.4925 73.8962 35.2625 73.8962 36.2954ZM81.0676 36.2954C81.0676 37.9839 80.6223 39.3044 79.7317 40.2568C78.8411 41.2093 77.601 41.6855 76.0115 41.6855C75.0157 41.6855 74.1375 41.4691 73.3767 41.0361C72.616 40.597 72.0315 39.9692 71.6233 39.1528C71.2151 38.3364 71.011 37.384 71.011 36.2954C71.011 34.6007 71.4532 33.2834 72.3376 32.3433C73.2221 31.4032 74.4653 30.9331 76.0671 30.9331C77.0629 30.9331 77.9412 31.1496 78.7019 31.5825C79.4626 32.0155 80.0471 32.637 80.4553 33.4473C80.8635 34.2575 81.0676 35.2069 81.0676 36.2954ZM94.928 41.5L94.3806 40.0898H94.3064C93.8302 40.6898 93.3385 41.1073 92.8313 41.3423C92.3303 41.5711 91.6747 41.6855 90.8645 41.6855C89.8687 41.6855 89.0833 41.401 88.5081 40.832C87.939 40.263 87.6545 39.4528 87.6545 38.4014C87.6545 37.3005 88.038 36.4902 88.8049 35.9707C89.578 35.445 90.7408 35.1543 92.2932 35.0986L94.093 35.043V34.5884C94.093 33.5369 93.5549 33.0112 92.4788 33.0112C91.65 33.0112 90.6759 33.2617 89.5564 33.7627L88.6194 31.8516C89.8131 31.2269 91.1366 30.9146 92.5901 30.9146C93.9817 30.9146 95.0486 31.2176 95.7908 31.8237C96.533 32.4299 96.9041 33.3514 96.9041 34.5884V41.5H94.928ZM94.093 36.6943L92.9983 36.7314C92.1757 36.7562 91.5634 36.9046 91.1614 37.1768C90.7594 37.4489 90.5583 37.8633 90.5583 38.4199C90.5583 39.2178 91.016 39.6167 91.9314 39.6167C92.587 39.6167 93.1096 39.4281 93.4993 39.0508C93.8951 38.6735 94.093 38.1725 94.093 37.5479V36.6943ZM104.196 39.4312C104.691 39.4312 105.285 39.3229 105.977 39.1064V41.2124C105.272 41.5278 104.406 41.6855 103.38 41.6855C102.248 41.6855 101.422 41.401 100.903 40.832C100.389 40.2568 100.133 39.3971 100.133 38.2529V33.2524H98.7781V32.0557L100.337 31.1094L101.153 28.9199H102.962V31.1279H105.866V33.2524H102.962V38.2529C102.962 38.6549 103.073 38.9518 103.296 39.1436C103.525 39.3353 103.825 39.4312 104.196 39.4312ZM112.453 39.4312C112.948 39.4312 113.541 39.3229 114.234 39.1064V41.2124C113.529 41.5278 112.663 41.6855 111.636 41.6855C110.505 41.6855 109.679 41.401 109.159 40.832C108.646 40.2568 108.389 39.3971 108.389 38.2529V33.2524H107.035V32.0557L108.594 31.1094L109.41 28.9199H111.219V31.1279H114.123V33.2524H111.219V38.2529C111.219 38.6549 111.33 38.9518 111.553 39.1436C111.782 39.3353 112.082 39.4312 112.453 39.4312ZM120.635 32.9463C120.036 32.9463 119.566 33.138 119.225 33.5215C118.885 33.8988 118.69 34.4368 118.641 35.1357H122.612C122.599 34.4368 122.417 33.8988 122.064 33.5215C121.712 33.138 121.235 32.9463 120.635 32.9463ZM121.034 41.6855C119.365 41.6855 118.059 41.2248 117.119 40.3032C116.179 39.3817 115.709 38.0767 115.709 36.3882C115.709 34.6502 116.142 33.3081 117.008 32.3618C117.88 31.4093 119.083 30.9331 120.617 30.9331C122.083 30.9331 123.224 31.3506 124.04 32.1855C124.857 33.0205 125.265 34.174 125.265 35.646V37.019H118.576C118.607 37.8231 118.845 38.4508 119.29 38.9023C119.736 39.3538 120.36 39.5796 121.164 39.5796C121.789 39.5796 122.38 39.5146 122.936 39.3848C123.493 39.2549 124.074 39.0477 124.68 38.7632V40.9526C124.186 41.2 123.657 41.3825 123.094 41.5C122.531 41.6237 121.845 41.6855 121.034 41.6855ZM136.852 41.5H134.023V35.4419C134.023 34.6935 133.896 34.1338 133.642 33.7627C133.395 33.3854 133.002 33.1968 132.464 33.1968C131.74 33.1968 131.215 33.4627 130.887 33.9946C130.559 34.5265 130.395 35.4017 130.395 36.6201V41.5H127.566V31.1279H129.727L130.108 32.4546H130.265C130.544 31.9784 130.946 31.6073 131.471 31.3413C131.997 31.0692 132.6 30.9331 133.281 30.9331C134.833 30.9331 135.884 31.4403 136.435 32.4546H136.685C136.964 31.9722 137.372 31.598 137.91 31.332C138.454 31.0661 139.066 30.9331 139.747 30.9331C140.922 30.9331 141.809 31.2362 142.409 31.8423C143.016 32.4422 143.319 33.4071 143.319 34.7368V41.5H140.48V35.4419C140.48 34.6935 140.353 34.1338 140.099 33.7627C139.852 33.3854 139.459 33.1968 138.921 33.1968C138.228 33.1968 137.709 33.4442 137.363 33.939C137.022 34.4338 136.852 35.2192 136.852 36.2954V41.5ZM151.928 41.6855C150.71 41.6855 149.754 41.2433 149.061 40.3589H148.913C149.012 41.2248 149.061 41.7257 149.061 41.8618V46.0645H146.232V31.1279H148.532L148.931 32.4731H149.061C149.723 31.4465 150.703 30.9331 152.002 30.9331C153.227 30.9331 154.185 31.4062 154.878 32.3525C155.571 33.2988 155.917 34.6131 155.917 36.2954C155.917 37.4025 155.753 38.3643 155.426 39.1807C155.104 39.9971 154.643 40.6187 154.043 41.0454C153.443 41.4722 152.738 41.6855 151.928 41.6855ZM151.093 33.1968C150.394 33.1968 149.884 33.4132 149.562 33.8462C149.241 34.2729 149.074 34.9811 149.061 35.9707V36.2769C149.061 37.3901 149.225 38.188 149.553 38.6704C149.887 39.1528 150.413 39.394 151.13 39.394C152.398 39.394 153.032 38.3488 153.032 36.2583C153.032 35.2378 152.874 34.474 152.559 33.9668C152.25 33.4535 151.761 33.1968 151.093 33.1968ZM162.625 39.4312C163.12 39.4312 163.713 39.3229 164.406 39.1064V41.2124C163.701 41.5278 162.835 41.6855 161.808 41.6855C160.677 41.6855 159.851 41.401 159.331 40.832C158.818 40.2568 158.561 39.3971 158.561 38.2529V33.2524H157.207V32.0557L158.765 31.1094L159.582 28.9199H161.391V31.1279H164.295V33.2524H161.391V38.2529C161.391 38.6549 161.502 38.9518 161.725 39.1436C161.954 39.3353 162.254 39.4312 162.625 39.4312Z"></path>
<path fill="white" d="M20.3474 61.4683C21.1082 61.4683 21.6524 61.2518 21.9802 60.8188C22.308 60.3797 22.4719 59.6715 22.4719 58.6943V58.3511C22.4719 57.244 22.2987 56.4492 21.9524 55.9668C21.6122 55.4782 21.0618 55.2339 20.301 55.2339C18.9713 55.2339 18.3064 56.2791 18.3064 58.3696C18.3064 59.4087 18.4703 60.1849 18.7981 60.6982C19.1321 61.2116 19.6485 61.4683 20.3474 61.4683ZM25.116 63.5186C25.116 65.0091 24.6799 66.1379 23.8079 66.9048C22.942 67.6779 21.6493 68.0645 19.9299 68.0645C18.4146 68.0645 17.122 67.8604 16.052 67.4521V65.1885C17.3075 65.7204 18.6558 65.9863 20.0969 65.9863C21.5504 65.9863 22.2771 65.2008 22.2771 63.6299V63.4258L22.3606 62.1548H22.2771C21.6153 63.1753 20.635 63.6855 19.3362 63.6855C18.093 63.6855 17.1282 63.2062 16.4417 62.2476C15.7613 61.2889 15.4211 59.9839 15.4211 58.3325C15.4211 56.6317 15.7737 55.3081 16.4788 54.3618C17.19 53.4093 18.1672 52.9331 19.4104 52.9331C20.6845 52.9331 21.6864 53.4403 22.4163 54.4546H22.4905L22.7224 53.1279H25.116V63.5186ZM34.6624 63.5L34.115 62.0898H34.0408C33.5645 62.6898 33.0728 63.1073 32.5657 63.3423C32.0647 63.5711 31.4091 63.6855 30.5989 63.6855C29.6031 63.6855 28.8176 63.401 28.2424 62.832C27.6734 62.263 27.3889 61.4528 27.3889 60.4014C27.3889 59.3005 27.7724 58.4902 28.5393 57.9707C29.3124 57.445 30.4752 57.1543 32.0276 57.0986L33.8274 57.043V56.5884C33.8274 55.5369 33.2893 55.0112 32.2131 55.0112C31.3844 55.0112 30.4102 55.2617 29.2908 55.7627L28.3538 53.8516C29.5474 53.2269 30.871 52.9146 32.3245 52.9146C33.7161 52.9146 34.783 53.2176 35.5251 53.8237C36.2673 54.4299 36.6384 55.3514 36.6384 56.5884V63.5H34.6624ZM33.8274 58.6943L32.7327 58.7314C31.9101 58.7562 31.2978 58.9046 30.8958 59.1768C30.4937 59.4489 30.2927 59.8633 30.2927 60.4199C30.2927 61.2178 30.7504 61.6167 31.6658 61.6167C32.3214 61.6167 32.844 61.4281 33.2336 61.0508C33.6295 60.6735 33.8274 60.1725 33.8274 59.5479V58.6943ZM48.8474 63.5H46.0178V57.4419C46.0178 56.6935 45.891 56.1338 45.6375 55.7627C45.3901 55.3854 44.9973 55.1968 44.4592 55.1968C43.7356 55.1968 43.2099 55.4627 42.8821 55.9946C42.5543 56.5265 42.3904 57.4017 42.3904 58.6201V63.5H39.5608V53.1279H41.7224L42.1028 54.4546H42.2605C42.5388 53.9784 42.9408 53.6073 43.4666 53.3413C43.9923 53.0692 44.5953 52.9331 45.2756 52.9331C46.828 52.9331 47.8795 53.4403 48.4299 54.4546H48.6804C48.9587 53.9722 49.3669 53.598 49.905 53.332C50.4493 53.0661 51.0616 52.9331 51.7419 52.9331C52.9171 52.9331 53.8046 53.2362 54.4045 53.8423C55.0107 54.4422 55.3137 55.4071 55.3137 56.7368V63.5H52.4749V57.4419C52.4749 56.6935 52.3481 56.1338 52.0945 55.7627C51.8471 55.3854 51.4543 55.1968 50.9163 55.1968C50.2236 55.1968 49.704 55.4442 49.3577 55.939C49.0175 56.4338 48.8474 57.2192 48.8474 58.2954V63.5ZM58.1062 50.4468C58.1062 49.5252 58.6195 49.0645 59.6462 49.0645C60.6729 49.0645 61.1863 49.5252 61.1863 50.4468C61.1863 50.8859 61.0564 51.2292 60.7966 51.4766C60.5431 51.7178 60.1596 51.8384 59.6462 51.8384C58.6195 51.8384 58.1062 51.3745 58.1062 50.4468ZM61.0564 63.5H58.2268V53.1279H61.0564V63.5ZM69.7678 55.2524H67.3186V63.5H64.489V55.2524H62.9304V53.8887L64.489 53.1279V52.3672C64.489 51.1859 64.7797 50.3231 65.3611 49.7788C65.9425 49.2345 66.8733 48.9624 68.1536 48.9624C69.1308 48.9624 69.9998 49.1077 70.7605 49.3984L70.0369 51.4766C69.4679 51.2972 68.9421 51.2075 68.4597 51.2075C68.0577 51.2075 67.767 51.3281 67.5876 51.5693C67.4083 51.8044 67.3186 52.1074 67.3186 52.4785V53.1279H69.7678V55.2524ZM71.28 50.4468C71.28 49.5252 71.7934 49.0645 72.8201 49.0645C73.8468 49.0645 74.3601 49.5252 74.3601 50.4468C74.3601 50.8859 74.2302 51.2292 73.9705 51.4766C73.7169 51.7178 73.3334 51.8384 72.8201 51.8384C71.7934 51.8384 71.28 51.3745 71.28 50.4468ZM74.2302 63.5H71.4006V53.1279H74.2302V63.5ZM81.5037 54.9463C80.9037 54.9463 80.4337 55.138 80.0935 55.5215C79.7533 55.8988 79.5585 56.4368 79.509 57.1357H83.4797C83.4674 56.4368 83.2849 55.8988 82.9324 55.5215C82.5798 55.138 82.1036 54.9463 81.5037 54.9463ZM81.9026 63.6855C80.2327 63.6855 78.9277 63.2248 77.9875 62.3032C77.0474 61.3817 76.5774 60.0767 76.5774 58.3882C76.5774 56.6502 77.0103 55.3081 77.8762 54.3618C78.7483 53.4093 79.9513 52.9331 81.4851 52.9331C82.9509 52.9331 84.092 53.3506 84.9084 54.1855C85.7249 55.0205 86.1331 56.174 86.1331 57.646V59.019H79.4441C79.475 59.8231 79.7131 60.4508 80.1584 60.9023C80.6038 61.3538 81.2284 61.5796 82.0325 61.5796C82.6571 61.5796 83.2478 61.5146 83.8044 61.3848C84.3611 61.2549 84.9425 61.0477 85.5486 60.7632V62.9526C85.0538 63.2 84.525 63.3825 83.9622 63.5C83.3993 63.6237 82.7128 63.6855 81.9026 63.6855ZM91.718 63.6855C90.4996 63.6855 89.5409 63.2124 88.842 62.2661C88.1493 61.3198 87.803 60.0086 87.803 58.3325C87.803 56.6317 88.1555 55.3081 88.8606 54.3618C89.5719 53.4093 90.5491 52.9331 91.7922 52.9331C93.0972 52.9331 94.093 53.4403 94.7795 54.4546H94.8723C94.7301 53.6815 94.6589 52.9919 94.6589 52.3857V49.0645H97.4978V63.5H95.3269L94.7795 62.1548H94.6589C94.0157 63.1753 93.0354 63.6855 91.718 63.6855ZM92.7107 61.4312C93.4343 61.4312 93.9631 61.2209 94.2971 60.8003C94.6373 60.3797 94.8228 59.6654 94.8538 58.6572V58.3511C94.8538 57.2378 94.6806 56.4399 94.3342 55.9575C93.9941 55.4751 93.4374 55.2339 92.6643 55.2339C92.0334 55.2339 91.5417 55.5029 91.1892 56.041C90.8429 56.5729 90.6697 57.3491 90.6697 58.3696C90.6697 59.3901 90.8459 60.1571 91.1985 60.6704C91.551 61.1776 92.0551 61.4312 92.7107 61.4312ZM111.182 52.9331C111.565 52.9331 111.884 52.9609 112.137 53.0166L111.924 55.6699C111.695 55.6081 111.417 55.5771 111.089 55.5771C110.186 55.5771 109.481 55.8091 108.974 56.2729C108.473 56.7368 108.222 57.3862 108.222 58.2212V63.5H105.393V53.1279H107.536L107.953 54.8721H108.093C108.414 54.2907 108.847 53.8237 109.391 53.4712C109.942 53.1125 110.539 52.9331 111.182 52.9331ZM118.131 54.9463C117.531 54.9463 117.061 55.138 116.72 55.5215C116.38 55.8988 116.185 56.4368 116.136 57.1357H120.107C120.094 56.4368 119.912 55.8988 119.559 55.5215C119.207 55.138 118.731 54.9463 118.131 54.9463ZM118.53 63.6855C116.86 63.6855 115.555 63.2248 114.615 62.3032C113.674 61.3817 113.204 60.0767 113.204 58.3882C113.204 56.6502 113.637 55.3081 114.503 54.3618C115.375 53.4093 116.578 52.9331 118.112 52.9331C119.578 52.9331 120.719 53.3506 121.535 54.1855C122.352 55.0205 122.76 56.174 122.76 57.646V59.019H116.071C116.102 59.8231 116.34 60.4508 116.785 60.9023C117.231 61.3538 117.855 61.5796 118.659 61.5796C119.284 61.5796 119.875 61.5146 120.431 61.3848C120.988 61.2549 121.569 61.0477 122.176 60.7632V62.9526C121.681 63.2 121.152 63.3825 120.589 63.5C120.026 63.6237 119.34 63.6855 118.53 63.6855ZM132.297 60.4199C132.297 61.4837 131.926 62.2939 131.184 62.8506C130.448 63.4072 129.344 63.6855 127.872 63.6855C127.117 63.6855 126.474 63.633 125.942 63.5278C125.41 63.4289 124.912 63.2804 124.448 63.0825V60.7446C124.974 60.992 125.565 61.1992 126.22 61.3662C126.882 61.5332 127.464 61.6167 127.965 61.6167C128.991 61.6167 129.505 61.3198 129.505 60.7261C129.505 60.5034 129.437 60.3241 129.301 60.188C129.164 60.0457 128.929 59.888 128.595 59.7148C128.261 59.5355 127.816 59.3283 127.26 59.0933C126.462 58.7593 125.874 58.45 125.497 58.1655C125.126 57.881 124.854 57.5563 124.68 57.1914C124.513 56.8203 124.43 56.3657 124.43 55.8276C124.43 54.9061 124.786 54.1948 125.497 53.6938C126.214 53.1867 127.229 52.9331 128.54 52.9331C129.789 52.9331 131.004 53.2052 132.186 53.7495L131.332 55.7905C130.813 55.5679 130.327 55.3854 129.876 55.2432C129.424 55.1009 128.963 55.0298 128.493 55.0298C127.658 55.0298 127.241 55.2555 127.241 55.707C127.241 55.9606 127.374 56.1802 127.64 56.3657C127.912 56.5513 128.503 56.8265 129.412 57.1914C130.222 57.5192 130.816 57.8254 131.193 58.1099C131.57 58.3944 131.849 58.7222 132.028 59.0933C132.207 59.4644 132.297 59.9066 132.297 60.4199ZM136.76 58.2954C136.76 59.3221 136.927 60.0983 137.26 60.624C137.601 61.1497 138.151 61.4126 138.912 61.4126C139.666 61.4126 140.208 61.1528 140.535 60.6333C140.869 60.1076 141.036 59.3283 141.036 58.2954C141.036 57.2687 140.869 56.4987 140.535 55.9854C140.201 55.472 139.654 55.2153 138.893 55.2153C138.139 55.2153 137.594 55.472 137.26 55.9854C136.927 56.4925 136.76 57.2625 136.76 58.2954ZM143.931 58.2954C143.931 59.9839 143.486 61.3044 142.595 62.2568C141.704 63.2093 140.464 63.6855 138.875 63.6855C137.879 63.6855 137.001 63.4691 136.24 63.0361C135.479 62.597 134.895 61.9692 134.487 61.1528C134.078 60.3364 133.874 59.384 133.874 58.2954C133.874 56.6007 134.316 55.2834 135.201 54.3433C136.085 53.4032 137.329 52.9331 138.93 52.9331C139.926 52.9331 140.804 53.1496 141.565 53.5825C142.326 54.0155 142.91 54.637 143.319 55.4473C143.727 56.2575 143.931 57.2069 143.931 58.2954ZM153.616 63.5L153.236 62.1733H153.088C152.785 62.6558 152.355 63.0299 151.798 63.2959C151.241 63.5557 150.608 63.6855 149.896 63.6855C148.678 63.6855 147.759 63.3608 147.141 62.7114C146.522 62.0558 146.213 61.1157 146.213 59.8911V53.1279H149.043V59.186C149.043 59.9344 149.176 60.4972 149.442 60.8745C149.708 61.2456 150.131 61.4312 150.713 61.4312C151.504 61.4312 152.076 61.1683 152.429 60.6426C152.781 60.1107 152.958 59.2324 152.958 58.0078V53.1279H155.787V63.5H153.616ZM164.545 52.9331C164.929 52.9331 165.247 52.9609 165.501 53.0166L165.287 55.6699C165.059 55.6081 164.78 55.5771 164.452 55.5771C163.549 55.5771 162.844 55.8091 162.337 56.2729C161.836 56.7368 161.586 57.3862 161.586 58.2212V63.5H158.756V53.1279H160.899L161.317 54.8721H161.456C161.777 54.2907 162.21 53.8237 162.755 53.4712C163.305 53.1125 163.902 52.9331 164.545 52.9331ZM171.41 63.6855C168.182 63.6855 166.568 61.9136 166.568 58.3696C166.568 56.6069 167.007 55.2617 167.885 54.334C168.763 53.4001 170.022 52.9331 171.661 52.9331C172.861 52.9331 173.937 53.1681 174.889 53.6382L174.054 55.8276C173.609 55.6483 173.195 55.5029 172.811 55.3916C172.428 55.2741 172.044 55.2153 171.661 55.2153C170.189 55.2153 169.453 56.2606 169.453 58.3511C169.453 60.3797 170.189 61.394 171.661 61.394C172.205 61.394 172.709 61.3229 173.173 61.1807C173.637 61.0322 174.101 60.8034 174.565 60.4941V62.9155C174.107 63.2062 173.643 63.4072 173.173 63.5186C172.709 63.6299 172.122 63.6855 171.41 63.6855ZM181.272 54.9463C180.672 54.9463 180.202 55.138 179.862 55.5215C179.522 55.8988 179.327 56.4368 179.278 57.1357H183.248C183.236 56.4368 183.053 55.8988 182.701 55.5215C182.348 55.138 181.872 54.9463 181.272 54.9463ZM181.671 63.6855C180.001 63.6855 178.696 63.2248 177.756 62.3032C176.816 61.3817 176.346 60.0767 176.346 58.3882C176.346 56.6502 176.779 55.3081 177.645 54.3618C178.517 53.4093 179.72 52.9331 181.254 52.9331C182.719 52.9331 183.861 53.3506 184.677 54.1855C185.493 55.0205 185.902 56.174 185.902 57.646V59.019H179.213C179.244 59.8231 179.482 60.4508 179.927 60.9023C180.372 61.3538 180.997 61.5796 181.801 61.5796C182.426 61.5796 183.016 61.5146 183.573 61.3848C184.13 61.2549 184.711 61.0477 185.317 60.7632V62.9526C184.822 63.2 184.294 63.3825 183.731 63.5C183.168 63.6237 182.481 63.6855 181.671 63.6855ZM195.439 60.4199C195.439 61.4837 195.068 62.2939 194.325 62.8506C193.589 63.4072 192.485 63.6855 191.013 63.6855C190.259 63.6855 189.616 63.633 189.084 63.5278C188.552 63.4289 188.054 63.2804 187.59 63.0825V60.7446C188.116 60.992 188.706 61.1992 189.362 61.3662C190.024 61.5332 190.605 61.6167 191.106 61.6167C192.133 61.6167 192.646 61.3198 192.646 60.7261C192.646 60.5034 192.578 60.3241 192.442 60.188C192.306 60.0457 192.071 59.888 191.737 59.7148C191.403 59.5355 190.958 59.3283 190.401 59.0933C189.603 58.7593 189.016 58.45 188.638 58.1655C188.267 57.881 187.995 57.5563 187.822 57.1914C187.655 56.8203 187.572 56.3657 187.572 55.8276C187.572 54.9061 187.927 54.1948 188.638 53.6938C189.356 53.1867 190.37 52.9331 191.681 52.9331C192.931 52.9331 194.146 53.2052 195.327 53.7495L194.474 55.7905C193.954 55.5679 193.469 55.3854 193.017 55.2432C192.566 55.1009 192.105 55.0298 191.635 55.0298C190.8 55.0298 190.383 55.2555 190.383 55.707C190.383 55.9606 190.516 56.1802 190.781 56.3657C191.054 56.5513 191.644 56.8265 192.553 57.1914C193.364 57.5192 193.957 57.8254 194.335 58.1099C194.712 58.3944 194.99 58.7222 195.17 59.0933C195.349 59.4644 195.439 59.9066 195.439 60.4199ZM199.558 59.0005V58.314C199.558 57.9985 199.589 57.714 199.651 57.4604C199.719 57.2007 199.818 56.9564 199.948 56.7275C200.084 56.4925 200.257 56.2668 200.467 56.0503C200.677 55.8276 200.931 55.5988 201.228 55.3638C201.488 55.1597 201.707 54.9772 201.886 54.8164C202.066 54.6556 202.211 54.4979 202.323 54.3433C202.434 54.1825 202.514 54.0155 202.564 53.8423C202.613 53.6691 202.638 53.4681 202.638 53.2393C202.638 52.8867 202.517 52.596 202.276 52.3672C202.041 52.1383 201.679 52.0239 201.191 52.0239C200.764 52.0239 200.303 52.1136 199.808 52.293C199.32 52.4723 198.813 52.6919 198.287 52.9517L197.341 50.9014C197.607 50.7467 197.894 50.6014 198.203 50.4653C198.519 50.3231 198.844 50.1994 199.177 50.0942C199.518 49.9829 199.861 49.8963 200.207 49.8345C200.554 49.7726 200.894 49.7417 201.228 49.7417C201.859 49.7417 202.428 49.819 202.935 49.9736C203.442 50.1221 203.872 50.3416 204.224 50.6323C204.577 50.923 204.846 51.2756 205.031 51.6899C205.223 52.1043 205.319 52.5775 205.319 53.1094C205.319 53.499 205.276 53.8485 205.189 54.1577C205.103 54.4608 204.973 54.7453 204.8 55.0112C204.633 55.271 204.419 55.5246 204.159 55.772C203.906 56.0132 203.609 56.2699 203.269 56.542C203.009 56.7461 202.796 56.9255 202.629 57.0801C202.468 57.2285 202.341 57.3708 202.248 57.5068C202.156 57.6429 202.091 57.7852 202.053 57.9336C202.023 58.0758 202.007 58.2459 202.007 58.4438V59.0005H199.558ZM199.252 62.1733C199.252 61.8826 199.292 61.6383 199.372 61.4404C199.459 61.2363 199.576 61.0724 199.725 60.9487C199.873 60.825 200.046 60.7354 200.244 60.6797C200.448 60.624 200.665 60.5962 200.894 60.5962C201.11 60.5962 201.314 60.624 201.506 60.6797C201.704 60.7354 201.877 60.825 202.026 60.9487C202.174 61.0724 202.292 61.2363 202.378 61.4404C202.465 61.6383 202.508 61.8826 202.508 62.1733C202.508 62.4517 202.465 62.6898 202.378 62.8877C202.292 63.0856 202.174 63.2495 202.026 63.3794C201.877 63.5093 201.704 63.6021 201.506 63.6577C201.314 63.7196 201.11 63.7505 200.894 63.7505C200.665 63.7505 200.448 63.7196 200.244 63.6577C200.046 63.6021 199.873 63.5093 199.725 63.3794C199.576 63.2495 199.459 63.0856 199.372 62.8877C199.292 62.6898 199.252 62.4517 199.252 62.1733Z"></path>
<path stroke-linejoin="round" stroke-miterlimit="10" stroke="#0B233F" fill="#F3F5F8" d="M309 15.667C309 7.56699 315.567 1 323.667 1H536.333C544.433 1 551 7.56699 551 15.667V74.333C551 82.433 544.433 89 536.333 89H323.667C315.567 89 309 82.433 309 74.333V15.667Z" clip-rule="evenodd" fill-rule="evenodd"></path>
<path fill="#0B233F" d="M334.978 41.5H332.983L325.719 30.2373H325.645L325.691 30.9888C325.765 32.1144 325.802 33.0916 325.802 33.9204V41.5H324.225V27.9365H326.201L326.619 28.5952L331.072 35.479L333.438 39.1621H333.512C333.499 39.0137 333.475 38.4849 333.438 37.5757C333.4 36.6603 333.382 35.9985 333.382 35.5903V27.9365H334.978V41.5ZM344.719 41.5L344.394 40.0527H344.32C343.813 40.6898 343.306 41.1227 342.798 41.3516C342.297 41.5742 341.663 41.6855 340.896 41.6855C339.895 41.6855 339.109 41.4227 338.54 40.897C337.971 40.3713 337.687 39.6291 337.687 38.6704C337.687 36.6047 339.316 35.5223 342.576 35.4233L344.301 35.3584V34.7554C344.301 33.9823 344.134 33.4132 343.8 33.0483C343.466 32.6772 342.931 32.4917 342.195 32.4917C341.657 32.4917 341.147 32.5721 340.665 32.7329C340.188 32.8937 339.74 33.0731 339.319 33.271L338.809 32.0186C339.322 31.7464 339.882 31.533 340.488 31.3784C341.094 31.2238 341.694 31.1465 342.288 31.1465C343.519 31.1465 344.434 31.4186 345.034 31.9629C345.634 32.5072 345.934 33.373 345.934 34.5605V41.5H344.719ZM341.277 40.3403C342.211 40.3403 342.944 40.0898 343.476 39.5889C344.014 39.0817 344.283 38.3643 344.283 37.4365V36.5181L342.78 36.583C341.611 36.6263 340.757 36.8118 340.219 37.1396C339.687 37.4674 339.421 37.9839 339.421 38.689C339.421 39.2209 339.582 39.6291 339.904 39.9136C340.232 40.1981 340.689 40.3403 341.277 40.3403ZM351.343 41.5L347.483 31.3135H349.274L351.436 37.3159C351.862 38.522 352.134 39.4219 352.252 40.0156H352.326C352.345 39.9352 352.366 39.8455 352.391 39.7466C352.422 39.6414 352.456 39.5301 352.493 39.4126C352.53 39.2889 352.759 38.59 353.18 37.3159L355.351 31.3135H357.132L353.263 41.5H351.343ZM360.416 41.5H358.746V31.3135H360.416V41.5ZM358.616 28.5581C358.616 28.187 358.709 27.918 358.895 27.751C359.086 27.584 359.321 27.5005 359.6 27.5005C359.859 27.5005 360.085 27.584 360.277 27.751C360.475 27.918 360.574 28.187 360.574 28.5581C360.574 28.923 360.475 29.1921 360.277 29.3652C360.085 29.5384 359.859 29.625 359.6 29.625C359.321 29.625 359.086 29.5384 358.895 29.3652C358.709 29.1921 358.616 28.923 358.616 28.5581ZM367.522 40.3218C368.549 40.3218 369.294 40.0465 369.758 39.4961C370.228 38.9395 370.463 38.0488 370.463 36.8242V36.4253C370.463 35.0646 370.228 34.075 369.758 33.4565C369.288 32.8381 368.531 32.5288 367.485 32.5288C366.632 32.5288 365.97 32.869 365.5 33.5493C365.036 34.2235 364.804 35.1883 364.804 36.4438C364.804 37.7056 365.03 38.6673 365.481 39.3291C365.939 39.9909 366.619 40.3218 367.522 40.3218ZM370.445 41.4072L370.5 40.1548H370.426C369.74 41.1753 368.688 41.6855 367.272 41.6855C365.955 41.6855 364.925 41.2279 364.183 40.3125C363.447 39.391 363.079 38.0952 363.079 36.4253C363.079 34.7863 363.45 33.4937 364.192 32.5474C364.94 31.6011 365.961 31.1279 367.253 31.1279C368.633 31.1279 369.696 31.6413 370.445 32.668H370.547L370.77 31.3135H372.096V41.667C372.096 43.1266 371.725 44.2244 370.983 44.9604C370.247 45.6965 369.1 46.0645 367.541 46.0645C366.057 46.0645 364.835 45.848 363.876 45.415V43.875C364.866 44.4069 366.118 44.6729 367.634 44.6729C368.5 44.6729 369.183 44.4193 369.684 43.9121C370.191 43.4049 370.445 42.703 370.445 41.8062V41.4072ZM381.624 41.5L381.299 40.0527H381.225C380.718 40.6898 380.211 41.1227 379.704 41.3516C379.203 41.5742 378.569 41.6855 377.802 41.6855C376.8 41.6855 376.014 41.4227 375.445 40.897C374.876 40.3713 374.592 39.6291 374.592 38.6704C374.592 36.6047 376.222 35.5223 379.481 35.4233L381.207 35.3584V34.7554C381.207 33.9823 381.04 33.4132 380.706 33.0483C380.372 32.6772 379.837 32.4917 379.101 32.4917C378.562 32.4917 378.052 32.5721 377.57 32.7329C377.094 32.8937 376.645 33.0731 376.225 33.271L375.714 32.0186C376.228 31.7464 376.787 31.533 377.394 31.3784C378 31.2238 378.6 31.1465 379.193 31.1465C380.424 31.1465 381.34 31.4186 381.939 31.9629C382.539 32.5072 382.839 33.373 382.839 34.5605V41.5H381.624ZM378.182 40.3403C379.116 40.3403 379.849 40.0898 380.381 39.5889C380.919 39.0817 381.188 38.3643 381.188 37.4365V36.5181L379.685 36.583C378.516 36.6263 377.663 36.8118 377.125 37.1396C376.593 37.4674 376.327 37.9839 376.327 38.689C376.327 39.2209 376.487 39.6291 376.809 39.9136C377.137 40.1981 377.595 40.3403 378.182 40.3403ZM389.408 40.3218C389.624 40.3218 389.878 40.3001 390.168 40.2568C390.459 40.2135 390.679 40.1641 390.827 40.1084V41.3887C390.673 41.4567 390.431 41.5216 390.104 41.5835C389.782 41.6515 389.454 41.6855 389.12 41.6855C387.129 41.6855 386.133 40.6372 386.133 38.5405V32.6123H384.695V31.8145L386.151 31.1465L386.819 28.9756H387.812V31.3135H390.753V32.6123H387.812V38.4941C387.812 39.0817 387.951 39.5332 388.229 39.8486C388.514 40.1641 388.907 40.3218 389.408 40.3218ZM397.201 41.6855C395.673 41.6855 394.473 41.2248 393.601 40.3032C392.735 39.3755 392.302 38.1014 392.302 36.481C392.302 34.8481 392.707 33.5493 393.518 32.5845C394.328 31.6134 395.423 31.1279 396.802 31.1279C398.082 31.1279 399.103 31.5423 399.863 32.3711C400.624 33.1937 401.004 34.3101 401.004 35.7202V36.7314H394.028C394.059 37.888 394.353 38.7663 394.909 39.3662C395.466 39.9661 396.254 40.2661 397.275 40.2661C397.819 40.2661 398.336 40.2197 398.824 40.127C399.313 40.028 399.885 39.8394 400.541 39.561V41.0269C399.978 41.2681 399.449 41.4382 398.954 41.5371C398.459 41.6361 397.875 41.6855 397.201 41.6855ZM396.783 32.4917C395.985 32.4917 395.354 32.7484 394.891 33.2617C394.427 33.7751 394.152 34.4894 394.065 35.4048H399.251C399.239 34.4523 399.019 33.7287 398.592 33.2339C398.166 32.7391 397.562 32.4917 396.783 32.4917ZM414.818 41.5L414.494 40.0527H414.419C413.912 40.6898 413.405 41.1227 412.898 41.3516C412.397 41.5742 411.763 41.6855 410.996 41.6855C409.994 41.6855 409.209 41.4227 408.64 40.897C408.071 40.3713 407.786 39.6291 407.786 38.6704C407.786 36.6047 409.416 35.5223 412.675 35.4233L414.401 35.3584V34.7554C414.401 33.9823 414.234 33.4132 413.9 33.0483C413.566 32.6772 413.031 32.4917 412.295 32.4917C411.757 32.4917 411.247 32.5721 410.764 32.7329C410.288 32.8937 409.84 33.0731 409.419 33.271L408.909 32.0186C409.422 31.7464 409.982 31.533 410.588 31.3784C411.194 31.2238 411.794 31.1465 412.388 31.1465C413.618 31.1465 414.534 31.4186 415.134 31.9629C415.734 32.5072 416.034 33.373 416.034 34.5605V41.5H414.818ZM411.376 40.3403C412.31 40.3403 413.043 40.0898 413.575 39.5889C414.113 39.0817 414.382 38.3643 414.382 37.4365V36.5181L412.879 36.583C411.71 36.6263 410.857 36.8118 410.319 37.1396C409.787 37.4674 409.521 37.9839 409.521 38.689C409.521 39.2209 409.682 39.6291 410.003 39.9136C410.331 40.1981 410.789 40.3403 411.376 40.3403ZM430.256 34.3379H434.941V40.9897C434.223 41.2186 433.494 41.3918 432.751 41.5093C432.009 41.6268 431.15 41.6855 430.172 41.6855C428.107 41.6855 426.508 41.0732 425.376 39.8486C424.244 38.624 423.678 36.9139 423.678 34.7183C423.678 33.3019 423.96 32.0649 424.522 31.0073C425.085 29.9497 425.896 29.1426 426.953 28.5859C428.017 28.0231 429.269 27.7417 430.71 27.7417C432.158 27.7417 433.506 28.0076 434.755 28.5396L434.106 30.0239C432.912 29.5044 431.746 29.2446 430.608 29.2446C428.994 29.2446 427.732 29.7332 426.823 30.7104C425.914 31.6877 425.459 33.0236 425.459 34.7183C425.459 36.5119 425.896 37.8757 426.768 38.8096C427.64 39.7435 428.908 40.2104 430.571 40.2104C431.48 40.2104 432.368 40.1022 433.234 39.8857V35.8594H430.256V34.3379ZM444.265 41.5L443.94 40.0527H443.866C443.359 40.6898 442.851 41.1227 442.344 41.3516C441.843 41.5742 441.209 41.6855 440.442 41.6855C439.44 41.6855 438.655 41.4227 438.086 40.897C437.517 40.3713 437.232 39.6291 437.232 38.6704C437.232 36.6047 438.862 35.5223 442.122 35.4233L443.847 35.3584V34.7554C443.847 33.9823 443.68 33.4132 443.346 33.0483C443.012 32.6772 442.477 32.4917 441.741 32.4917C441.203 32.4917 440.693 32.5721 440.21 32.7329C439.734 32.8937 439.286 33.0731 438.865 33.271L438.355 32.0186C438.868 31.7464 439.428 31.533 440.034 31.3784C440.64 31.2238 441.24 31.1465 441.834 31.1465C443.065 31.1465 443.98 31.4186 444.58 31.9629C445.18 32.5072 445.48 33.373 445.48 34.5605V41.5H444.265ZM440.823 40.3403C441.757 40.3403 442.49 40.0898 443.021 39.5889C443.56 39.0817 443.829 38.3643 443.829 37.4365V36.5181L442.326 36.583C441.157 36.6263 440.303 36.8118 439.765 37.1396C439.233 37.4674 438.967 37.9839 438.967 38.689C438.967 39.2209 439.128 39.6291 439.45 39.9136C439.778 40.1981 440.235 40.3403 440.823 40.3403ZM461.604 41.5V34.9409C461.604 33.3328 460.914 32.5288 459.535 32.5288C458.589 32.5288 457.893 32.804 457.448 33.3545C457.002 33.9049 456.78 34.7461 456.78 35.8779V41.5H455.119V34.9409C455.119 34.1369 454.949 33.5339 454.609 33.1318C454.275 32.7298 453.749 32.5288 453.032 32.5288C452.092 32.5288 451.402 32.8164 450.963 33.3916C450.53 33.9668 450.313 34.91 450.313 36.2212V41.5H448.644V31.3135H449.989L450.239 32.7051H450.332C450.623 32.2103 451.031 31.8237 451.557 31.5454C452.089 31.2671 452.682 31.1279 453.338 31.1279C454.934 31.1279 455.973 31.6969 456.455 32.835H456.548C456.876 32.2907 457.321 31.8701 457.884 31.5732C458.453 31.2764 459.096 31.1279 459.813 31.1279C460.964 31.1279 461.824 31.4248 462.393 32.0186C462.968 32.6123 463.255 33.5617 463.255 34.8667V41.5H461.604ZM468.089 41.5H466.419V31.3135H468.089V41.5ZM466.289 28.5581C466.289 28.187 466.382 27.918 466.567 27.751C466.759 27.584 466.994 27.5005 467.272 27.5005C467.532 27.5005 467.758 27.584 467.95 27.751C468.148 27.918 468.247 28.187 468.247 28.5581C468.247 28.923 468.148 29.1921 467.95 29.3652C467.758 29.5384 467.532 29.625 467.272 29.625C466.994 29.625 466.759 29.5384 466.567 29.3652C466.382 29.1921 466.289 28.923 466.289 28.5581ZM476.012 32.6123H473.442V41.5H471.772V32.6123H469.991V31.833L471.772 31.2578V30.6733C471.772 29.4364 472.041 28.5086 472.579 27.8901C473.123 27.2716 473.958 26.9624 475.084 26.9624C475.733 26.9624 476.392 27.0768 477.06 27.3057L476.615 28.6138C476.04 28.4282 475.535 28.3354 475.103 28.3354C474.54 28.3354 474.122 28.521 473.85 28.8921C473.578 29.2632 473.442 29.8507 473.442 30.6548V31.3135H476.012V32.6123ZM479.537 41.5H477.867V31.3135H479.537V41.5ZM477.737 28.5581C477.737 28.187 477.83 27.918 478.016 27.751C478.207 27.584 478.442 27.5005 478.721 27.5005C478.98 27.5005 479.206 27.584 479.398 27.751C479.596 27.918 479.695 28.187 479.695 28.5581C479.695 28.923 479.596 29.1921 479.398 29.3652C479.206 29.5384 478.98 29.625 478.721 29.625C478.442 29.625 478.207 29.5384 478.016 29.3652C477.83 29.1921 477.737 28.923 477.737 28.5581ZM487.098 41.6855C485.57 41.6855 484.371 41.2248 483.499 40.3032C482.633 39.3755 482.2 38.1014 482.2 36.481C482.2 34.8481 482.605 33.5493 483.415 32.5845C484.225 31.6134 485.32 31.1279 486.699 31.1279C487.979 31.1279 489 31.5423 489.761 32.3711C490.521 33.1937 490.902 34.3101 490.902 35.7202V36.7314H483.925C483.956 37.888 484.25 38.7663 484.807 39.3662C485.363 39.9661 486.152 40.2661 487.172 40.2661C487.717 40.2661 488.233 40.2197 488.722 40.127C489.21 40.028 489.782 39.8394 490.438 39.561V41.0269C489.875 41.2681 489.346 41.4382 488.852 41.5371C488.357 41.6361 487.772 41.6855 487.098 41.6855ZM486.681 32.4917C485.883 32.4917 485.252 32.7484 484.788 33.2617C484.324 33.7751 484.049 34.4894 483.962 35.4048H489.148C489.136 34.4523 488.917 33.7287 488.49 33.2339C488.063 32.7391 487.46 32.4917 486.681 32.4917ZM497.099 41.6855C495.776 41.6855 494.749 41.2279 494.019 40.3125C493.289 39.3971 492.924 38.1014 492.924 36.4253C492.924 34.7616 493.289 33.4627 494.019 32.5288C494.755 31.5949 495.788 31.1279 497.118 31.1279C498.485 31.1279 499.536 31.6289 500.272 32.6309H500.393C500.374 32.5072 500.349 32.2598 500.318 31.8887C500.287 31.5114 500.272 31.2578 500.272 31.1279V27.0645H501.942V41.5H500.597L500.346 40.1362H500.272C499.561 41.1691 498.503 41.6855 497.099 41.6855ZM497.368 40.3032C498.382 40.3032 499.122 40.028 499.585 39.4775C500.056 38.9209 500.291 38.0117 500.291 36.75V36.4438C500.291 35.0275 500.052 34.0194 499.576 33.4194C499.106 32.8133 498.364 32.5103 497.35 32.5103C496.49 32.5103 495.825 32.8535 495.355 33.54C494.885 34.2204 494.65 35.1945 494.65 36.4624C494.65 37.7241 494.882 38.6797 495.346 39.3291C495.816 39.9785 496.49 40.3032 497.368 40.3032Z"></path>
<path fill="#0B233F" d="M332.732 63.5L331.1 59.2974H325.719L324.104 63.5H322.379L327.676 49.8809H329.216L334.504 63.5H332.732ZM330.589 57.7852L329.068 53.6753L328.418 51.6436C328.233 52.3857 328.038 53.063 327.834 53.6753L326.294 57.7852H330.589ZM342.78 60.689C342.78 61.6414 342.424 62.3805 341.713 62.9062C341.002 63.4258 340.003 63.6855 338.716 63.6855C337.374 63.6855 336.307 63.4722 335.516 63.0454V61.5239C336.635 62.0682 337.714 62.3403 338.753 62.3403C339.595 62.3403 340.207 62.2043 340.59 61.9321C340.974 61.66 341.166 61.2951 341.166 60.8374C341.166 60.4354 340.98 60.0952 340.609 59.8169C340.244 59.5386 339.591 59.2201 338.651 58.8613C337.693 58.4902 337.019 58.1748 336.629 57.915C336.239 57.6491 335.952 57.3522 335.766 57.0244C335.587 56.6966 335.497 56.2977 335.497 55.8276C335.497 54.9927 335.837 54.334 336.518 53.8516C337.198 53.3691 338.132 53.1279 339.319 53.1279C340.476 53.1279 341.558 53.3568 342.566 53.8145L342 55.1411C340.968 54.7082 340.037 54.4917 339.208 54.4917C338.515 54.4917 337.99 54.603 337.631 54.8257C337.272 55.0422 337.093 55.3421 337.093 55.7256C337.093 56.0967 337.247 56.4059 337.557 56.6533C337.866 56.8945 338.586 57.2316 339.718 57.6646C340.566 57.98 341.19 58.2738 341.592 58.5459C342 58.818 342.3 59.1242 342.492 59.4644C342.684 59.8045 342.78 60.2127 342.78 60.689ZM351.89 60.689C351.89 61.6414 351.535 62.3805 350.823 62.9062C350.112 63.4258 349.113 63.6855 347.827 63.6855C346.485 63.6855 345.418 63.4722 344.626 63.0454V61.5239C345.745 62.0682 346.825 62.3403 347.864 62.3403C348.705 62.3403 349.317 62.2043 349.701 61.9321C350.084 61.66 350.276 61.2951 350.276 60.8374C350.276 60.4354 350.09 60.0952 349.719 59.8169C349.354 59.5386 348.702 59.2201 347.762 58.8613C346.803 58.4902 346.129 58.1748 345.739 57.915C345.35 57.6491 345.062 57.3522 344.876 57.0244C344.697 56.6966 344.607 56.2977 344.607 55.8276C344.607 54.9927 344.948 54.334 345.628 53.8516C346.308 53.3691 347.242 53.1279 348.43 53.1279C349.586 53.1279 350.669 53.3568 351.677 53.8145L351.111 55.1411C350.078 54.7082 349.147 54.4917 348.318 54.4917C347.626 54.4917 347.1 54.603 346.741 54.8257C346.382 55.0422 346.203 55.3421 346.203 55.7256C346.203 56.0967 346.358 56.4059 346.667 56.6533C346.976 56.8945 347.697 57.2316 348.829 57.6646C349.676 57.98 350.301 58.2738 350.703 58.5459C351.111 58.818 351.411 59.1242 351.603 59.4644C351.794 59.8045 351.89 60.2127 351.89 60.689ZM356.037 63.5H354.367V53.3135H356.037V63.5ZM354.237 50.5581C354.237 50.187 354.33 49.918 354.516 49.751C354.707 49.584 354.942 49.5005 355.221 49.5005C355.48 49.5005 355.706 49.584 355.898 49.751C356.096 49.918 356.195 50.187 356.195 50.5581C356.195 50.923 356.096 51.1921 355.898 51.3652C355.706 51.5384 355.48 51.625 355.221 51.625C354.942 51.625 354.707 51.5384 354.516 51.3652C354.33 51.1921 354.237 50.923 354.237 50.5581ZM363.144 62.3218C364.17 62.3218 364.916 62.0465 365.379 61.4961C365.849 60.9395 366.084 60.0488 366.084 58.8242V58.4253C366.084 57.0646 365.849 56.075 365.379 55.4565C364.909 54.8381 364.152 54.5288 363.106 54.5288C362.253 54.5288 361.591 54.869 361.121 55.5493C360.657 56.2235 360.425 57.1883 360.425 58.4438C360.425 59.7056 360.651 60.6673 361.103 61.3291C361.56 61.9909 362.241 62.3218 363.144 62.3218ZM366.066 63.4072L366.122 62.1548H366.047C365.361 63.1753 364.309 63.6855 362.893 63.6855C361.576 63.6855 360.546 63.2279 359.804 62.3125C359.068 61.391 358.7 60.0952 358.7 58.4253C358.7 56.7863 359.071 55.4937 359.813 54.5474C360.561 53.6011 361.582 53.1279 362.875 53.1279C364.254 53.1279 365.318 53.6413 366.066 54.668H366.168L366.391 53.3135H367.717V63.667C367.717 65.1266 367.346 66.2244 366.604 66.9604C365.868 67.6965 364.721 68.0645 363.162 68.0645C361.678 68.0645 360.456 67.848 359.498 67.415V65.875C360.487 66.4069 361.74 66.6729 363.255 66.6729C364.121 66.6729 364.804 66.4193 365.305 65.9121C365.812 65.4049 366.066 64.703 366.066 63.8062V63.4072ZM377.895 63.5V56.9873C377.895 56.1585 377.709 55.5431 377.338 55.1411C376.973 54.7329 376.398 54.5288 375.612 54.5288C374.567 54.5288 373.806 54.8195 373.33 55.4009C372.86 55.9761 372.625 56.9162 372.625 58.2212V63.5H370.955V53.3135H372.3L372.551 54.7051H372.644C372.959 54.2041 373.401 53.8175 373.97 53.5454C374.539 53.2671 375.167 53.1279 375.854 53.1279C377.103 53.1279 378.031 53.431 378.637 54.0371C379.243 54.6432 379.546 55.5864 379.546 56.8667V63.5H377.895ZM395.661 63.5V56.9409C395.661 55.3328 394.971 54.5288 393.592 54.5288C392.646 54.5288 391.95 54.804 391.504 55.3545C391.059 55.9049 390.836 56.7461 390.836 57.8779V63.5H389.176V56.9409C389.176 56.1369 389.006 55.5339 388.666 55.1318C388.332 54.7298 387.806 54.5288 387.088 54.5288C386.148 54.5288 385.459 54.8164 385.02 55.3916C384.587 55.9668 384.37 56.91 384.37 58.2212V63.5H382.7V53.3135H384.045L384.296 54.7051H384.389C384.679 54.2103 385.088 53.8237 385.613 53.5454C386.145 53.2671 386.739 53.1279 387.395 53.1279C388.99 53.1279 390.029 53.6969 390.512 54.835H390.604C390.932 54.2907 391.378 53.8701 391.94 53.5732C392.509 53.2764 393.153 53.1279 393.87 53.1279C395.021 53.1279 395.88 53.4248 396.449 54.0186C397.024 54.6123 397.312 55.5617 397.312 56.8667V63.5H395.661ZM404.808 63.6855C403.28 63.6855 402.081 63.2248 401.208 62.3032C400.343 61.3755 399.91 60.1014 399.91 58.481C399.91 56.8481 400.315 55.5493 401.125 54.5845C401.935 53.6134 403.03 53.1279 404.409 53.1279C405.689 53.1279 406.71 53.5423 407.471 54.3711C408.231 55.1937 408.612 56.3101 408.612 57.7202V58.7314H401.635C401.666 59.888 401.96 60.7663 402.517 61.3662C403.073 61.9661 403.862 62.2661 404.882 62.2661C405.427 62.2661 405.943 62.2197 406.432 62.127C406.92 62.028 407.492 61.8394 408.148 61.561V63.0269C407.585 63.2681 407.056 63.4382 406.562 63.5371C406.067 63.6361 405.482 63.6855 404.808 63.6855ZM404.391 54.4917C403.593 54.4917 402.962 54.7484 402.498 55.2617C402.034 55.7751 401.759 56.4894 401.672 57.4048H406.858C406.846 56.4523 406.626 55.7287 406.2 55.2339C405.773 54.7391 405.17 54.4917 404.391 54.4917ZM418.14 63.5V56.9873C418.14 56.1585 417.954 55.5431 417.583 55.1411C417.218 54.7329 416.643 54.5288 415.857 54.5288C414.812 54.5288 414.051 54.8195 413.575 55.4009C413.105 55.9761 412.87 56.9162 412.87 58.2212V63.5H411.2V53.3135H412.545L412.796 54.7051H412.889C413.204 54.2041 413.646 53.8175 414.215 53.5454C414.784 53.2671 415.412 53.1279 416.099 53.1279C417.348 53.1279 418.276 53.431 418.882 54.0371C419.488 54.6432 419.791 55.5864 419.791 56.8667V63.5H418.14ZM426.35 62.3218C426.567 62.3218 426.82 62.3001 427.111 62.2568C427.402 62.2135 427.621 62.1641 427.77 62.1084V63.3887C427.615 63.4567 427.374 63.5216 427.046 63.5835C426.724 63.6515 426.396 63.6855 426.062 63.6855C424.071 63.6855 423.075 62.6372 423.075 60.5405V54.6123H421.637V53.8145L423.094 53.1465L423.762 50.9756H424.754V53.3135H427.695V54.6123H424.754V60.4941C424.754 61.0817 424.894 61.5332 425.172 61.8486C425.456 62.1641 425.849 62.3218 426.35 62.3218Z"></path>
<path fill="#E96969" d="M242.5 43.4995H275.366C275.918 43.4995 276.366 43.9475 276.366 44.4995V44.5625L275.366 43.5625H301.566V45.5625H275.366C274.814 45.5625 274.366 45.1145 274.366 44.5625V44.4995L275.366 45.4995H242.5V43.4995ZM300.232 40.5625L308.232 44.5625L300.232 48.5625V40.5625Z"></path>
<path stroke-linejoin="round" stroke-miterlimit="10" stroke="#0B233F" fill="#0B233F" d="M1 123.667C1 115.567 7.5665 109 15.6668 109H228.333C236.433 109 243 115.567 243 123.667V182.333C243 190.433 236.433 197 228.333 197H15.6668C7.5665 197 1 190.433 1 182.333V123.667Z" clip-rule="evenodd" fill-rule="evenodd"></path>
<path fill="white" d="M29.4856 149.5H26.2107L24.3738 142.375C24.3057 142.121 24.1882 141.599 24.0212 140.807C23.8604 140.009 23.7677 139.474 23.7429 139.202C23.7058 139.536 23.613 140.074 23.4646 140.816C23.3162 141.552 23.2017 142.078 23.1213 142.394L21.2937 149.5H18.0281L14.5676 135.937H17.3972L19.1321 143.34C19.4351 144.707 19.6547 145.891 19.7908 146.893C19.8279 146.541 19.9114 145.996 20.0413 145.26C20.1773 144.518 20.3041 143.943 20.4216 143.535L22.3977 135.937H25.116L27.092 143.535C27.1786 143.875 27.2869 144.394 27.4167 145.093C27.5466 145.792 27.6456 146.392 27.7136 146.893C27.7755 146.411 27.8744 145.811 28.0105 145.093C28.1466 144.37 28.2703 143.785 28.3816 143.34L30.1072 135.937H32.9368L29.4856 149.5ZM43.9954 149.5H41.1658V143.442C41.1658 141.945 40.6091 141.197 39.4958 141.197C38.7042 141.197 38.1321 141.466 37.7795 142.004C37.427 142.542 37.2507 143.414 37.2507 144.62V149.5H34.4211V135.064H37.2507V138.005C37.2507 138.234 37.2291 138.772 37.1858 139.62L37.1208 140.455H37.2693C37.9001 139.44 38.9021 138.933 40.2751 138.933C41.4936 138.933 42.4182 139.261 43.0491 139.917C43.6799 140.572 43.9954 141.512 43.9954 142.737V149.5ZM51.2039 140.946C50.6039 140.946 50.1339 141.138 49.7937 141.521C49.4535 141.899 49.2587 142.437 49.2092 143.136H53.1799C53.1676 142.437 52.9851 141.899 52.6326 141.521C52.28 141.138 51.8038 140.946 51.2039 140.946ZM51.6028 149.686C49.9329 149.686 48.6278 149.225 47.6877 148.303C46.7476 147.382 46.2776 146.077 46.2776 144.388C46.2776 142.65 46.7105 141.308 47.5764 140.362C48.4485 139.409 49.6514 138.933 51.1853 138.933C52.6511 138.933 53.7922 139.351 54.6086 140.186C55.425 141.021 55.8333 142.174 55.8333 143.646V145.019H49.1443C49.1752 145.823 49.4133 146.451 49.8586 146.902C50.304 147.354 50.9286 147.58 51.7327 147.58C52.3573 147.58 52.948 147.515 53.5046 147.385C54.0613 147.255 54.6427 147.048 55.2488 146.763V148.953C54.754 149.2 54.2252 149.382 53.6624 149.5C53.0995 149.624 52.413 149.686 51.6028 149.686ZM63.9231 138.933C64.3066 138.933 64.6251 138.961 64.8787 139.017L64.6653 141.67C64.4364 141.608 64.1581 141.577 63.8303 141.577C62.9273 141.577 62.2222 141.809 61.7151 142.273C61.2141 142.737 60.9636 143.386 60.9636 144.221V149.5H58.134V139.128H60.2771L60.6946 140.872H60.8337C61.1554 140.291 61.5883 139.824 62.1326 139.471C62.683 139.112 63.2799 138.933 63.9231 138.933ZM70.8718 140.946C70.2719 140.946 69.8018 141.138 69.4617 141.521C69.1215 141.899 68.9267 142.437 68.8772 143.136H72.8479C72.8355 142.437 72.6531 141.899 72.3005 141.521C71.948 141.138 71.4718 140.946 70.8718 140.946ZM71.2708 149.686C69.6008 149.686 68.2958 149.225 67.3557 148.303C66.4156 147.382 65.9456 146.077 65.9456 144.388C65.9456 142.65 66.3785 141.308 67.2444 140.362C68.1165 139.409 69.3194 138.933 70.8533 138.933C72.3191 138.933 73.4602 139.351 74.2766 140.186C75.093 141.021 75.5012 142.174 75.5012 143.646V145.019H68.8123C68.8432 145.823 69.0813 146.451 69.5266 146.902C69.9719 147.354 70.5966 147.58 71.4006 147.58C72.0253 147.58 72.616 147.515 73.1726 147.385C73.7292 147.255 74.3106 147.048 74.9167 146.763V148.953C74.422 149.2 73.8931 149.382 73.3303 149.5C72.7675 149.624 72.081 149.686 71.2708 149.686ZM87.1072 147.431C87.602 147.431 88.1957 147.323 88.8884 147.106V149.212C88.1833 149.528 87.3175 149.686 86.2908 149.686C85.1589 149.686 84.3333 149.401 83.8137 148.832C83.3004 148.257 83.0437 147.397 83.0437 146.253V141.252H81.6892V140.056L83.2478 139.109L84.0642 136.92H85.8733V139.128H88.7771V141.252H85.8733V146.253C85.8733 146.655 85.9846 146.952 86.2073 147.144C86.4361 147.335 86.7361 147.431 87.1072 147.431ZM93.2488 144.295C93.2488 145.322 93.4158 146.098 93.7498 146.624C94.0899 147.15 94.6404 147.413 95.4011 147.413C96.1557 147.413 96.6969 147.153 97.0247 146.633C97.3586 146.108 97.5256 145.328 97.5256 144.295C97.5256 143.269 97.3586 142.499 97.0247 141.985C96.6907 141.472 96.1433 141.215 95.3826 141.215C94.628 141.215 94.0837 141.472 93.7498 141.985C93.4158 142.493 93.2488 143.263 93.2488 144.295ZM100.42 144.295C100.42 145.984 99.9749 147.304 99.0842 148.257C98.1936 149.209 96.9535 149.686 95.364 149.686C94.3682 149.686 93.49 149.469 92.7292 149.036C91.9685 148.597 91.384 147.969 90.9758 147.153C90.5676 146.336 90.3635 145.384 90.3635 144.295C90.3635 142.601 90.8057 141.283 91.6902 140.343C92.5746 139.403 93.8178 138.933 95.4197 138.933C96.4154 138.933 97.2937 139.15 98.0544 139.583C98.8152 140.015 99.3997 140.637 99.8079 141.447C100.216 142.257 100.42 143.207 100.42 144.295ZM113.427 141.252H110.978V149.5H108.148V141.252H106.59V139.889L108.148 139.128V138.367C108.148 137.186 108.439 136.323 109.02 135.779C109.602 135.235 110.532 134.962 111.813 134.962C112.79 134.962 113.659 135.108 114.42 135.398L113.696 137.477C113.127 137.297 112.601 137.208 112.119 137.208C111.717 137.208 111.426 137.328 111.247 137.569C111.067 137.804 110.978 138.107 110.978 138.479V139.128H113.427V141.252ZM114.939 136.447C114.939 135.525 115.453 135.064 116.479 135.064C117.506 135.064 118.019 135.525 118.019 136.447C118.019 136.886 117.889 137.229 117.63 137.477C117.376 137.718 116.993 137.838 116.479 137.838C115.453 137.838 114.939 137.375 114.939 136.447ZM117.889 149.5H115.06V139.128H117.889V149.5ZM130.442 149.5H127.612V143.442C127.612 142.694 127.479 142.134 127.213 141.763C126.947 141.385 126.524 141.197 125.942 141.197C125.15 141.197 124.578 141.463 124.226 141.995C123.873 142.52 123.697 143.396 123.697 144.62V149.5H120.867V139.128H123.029L123.409 140.455H123.567C123.883 139.954 124.316 139.576 124.866 139.323C125.423 139.063 126.053 138.933 126.759 138.933C127.965 138.933 128.88 139.261 129.505 139.917C130.129 140.566 130.442 141.506 130.442 142.737V149.5ZM136.639 149.686C135.42 149.686 134.462 149.212 133.763 148.266C133.07 147.32 132.724 146.009 132.724 144.333C132.724 142.632 133.076 141.308 133.781 140.362C134.493 139.409 135.47 138.933 136.713 138.933C138.018 138.933 139.014 139.44 139.7 140.455H139.793C139.651 139.681 139.58 138.992 139.58 138.386V135.064H142.419V149.5H140.248L139.7 148.155H139.58C138.937 149.175 137.956 149.686 136.639 149.686ZM137.632 147.431C138.355 147.431 138.884 147.221 139.218 146.8C139.558 146.38 139.744 145.665 139.775 144.657V144.351C139.775 143.238 139.601 142.44 139.255 141.958C138.915 141.475 138.358 141.234 137.585 141.234C136.954 141.234 136.463 141.503 136.11 142.041C135.764 142.573 135.591 143.349 135.591 144.37C135.591 145.39 135.767 146.157 136.119 146.67C136.472 147.178 136.976 147.431 137.632 147.431ZM154.609 147.468C155.37 147.468 155.914 147.252 156.242 146.819C156.57 146.38 156.734 145.672 156.734 144.694V144.351C156.734 143.244 156.56 142.449 156.214 141.967C155.874 141.478 155.323 141.234 154.563 141.234C153.233 141.234 152.568 142.279 152.568 144.37C152.568 145.409 152.732 146.185 153.06 146.698C153.394 147.212 153.91 147.468 154.609 147.468ZM159.378 149.519C159.378 151.009 158.942 152.138 158.07 152.905C157.204 153.678 155.911 154.064 154.192 154.064C152.676 154.064 151.384 153.86 150.314 153.452V151.188C151.569 151.72 152.918 151.986 154.359 151.986C155.812 151.986 156.539 151.201 156.539 149.63V149.426L156.622 148.155H156.539C155.877 149.175 154.897 149.686 153.598 149.686C152.355 149.686 151.39 149.206 150.703 148.248C150.023 147.289 149.683 145.984 149.683 144.333C149.683 142.632 150.035 141.308 150.74 140.362C151.452 139.409 152.429 138.933 153.672 138.933C154.946 138.933 155.948 139.44 156.678 140.455H156.752L156.984 139.128H159.378V149.519ZM168.924 149.5L168.377 148.09H168.302C167.826 148.69 167.335 149.107 166.827 149.342C166.326 149.571 165.671 149.686 164.861 149.686C163.865 149.686 163.079 149.401 162.504 148.832C161.935 148.263 161.651 147.453 161.651 146.401C161.651 145.3 162.034 144.49 162.801 143.971C163.574 143.445 164.737 143.154 166.289 143.099L168.089 143.043V142.588C168.089 141.537 167.551 141.011 166.475 141.011C165.646 141.011 164.672 141.262 163.552 141.763L162.615 139.852C163.809 139.227 165.133 138.915 166.586 138.915C167.978 138.915 169.045 139.218 169.787 139.824C170.529 140.43 170.9 141.351 170.9 142.588V149.5H168.924ZM168.089 144.694L166.994 144.731C166.172 144.756 165.559 144.905 165.157 145.177C164.755 145.449 164.554 145.863 164.554 146.42C164.554 147.218 165.012 147.617 165.927 147.617C166.583 147.617 167.106 147.428 167.495 147.051C167.891 146.674 168.089 146.173 168.089 145.548V144.694ZM183.109 149.5H180.28V143.442C180.28 142.694 180.153 142.134 179.899 141.763C179.652 141.385 179.259 141.197 178.721 141.197C177.997 141.197 177.472 141.463 177.144 141.995C176.816 142.527 176.652 143.402 176.652 144.62V149.5H173.823V139.128H175.984L176.365 140.455H176.522C176.801 139.978 177.203 139.607 177.728 139.341C178.254 139.069 178.857 138.933 179.537 138.933C181.09 138.933 182.141 139.44 182.692 140.455H182.942C183.22 139.972 183.629 139.598 184.167 139.332C184.711 139.066 185.323 138.933 186.004 138.933C187.179 138.933 188.066 139.236 188.666 139.842C189.272 140.442 189.575 141.407 189.575 142.737V149.5H186.737V143.442C186.737 142.694 186.61 142.134 186.356 141.763C186.109 141.385 185.716 141.197 185.178 141.197C184.485 141.197 183.966 141.444 183.619 141.939C183.279 142.434 183.109 143.219 183.109 144.295V149.5ZM196.784 140.946C196.184 140.946 195.714 141.138 195.374 141.521C195.034 141.899 194.839 142.437 194.789 143.136H198.76C198.748 142.437 198.565 141.899 198.213 141.521C197.86 141.138 197.384 140.946 196.784 140.946ZM197.183 149.686C195.513 149.686 194.208 149.225 193.268 148.303C192.328 147.382 191.858 146.077 191.858 144.388C191.858 142.65 192.291 141.308 193.156 140.362C194.029 139.409 195.232 138.933 196.765 138.933C198.231 138.933 199.372 139.351 200.189 140.186C201.005 141.021 201.413 142.174 201.413 143.646V145.019H194.724C194.755 145.823 194.993 146.451 195.439 146.902C195.884 147.354 196.509 147.58 197.313 147.58C197.937 147.58 198.528 147.515 199.085 147.385C199.641 147.255 200.223 147.048 200.829 146.763V148.953C200.334 149.2 199.805 149.382 199.242 149.5C198.68 149.624 197.993 149.686 197.183 149.686Z"></path>
<path fill="white" d="M16.2747 171.5V157.937H19.1506V169.125H24.6521V171.5H16.2747ZM31.0906 162.946C30.4906 162.946 30.0206 163.138 29.6804 163.521C29.3403 163.899 29.1454 164.437 29.0959 165.136H33.0667C33.0543 164.437 32.8718 163.899 32.5193 163.521C32.1667 163.138 31.6905 162.946 31.0906 162.946ZM31.4895 171.686C29.8196 171.686 28.5146 171.225 27.5745 170.303C26.6344 169.382 26.1643 168.077 26.1643 166.388C26.1643 164.65 26.5972 163.308 27.4631 162.362C28.3352 161.409 29.5382 160.933 31.072 160.933C32.5378 160.933 33.679 161.351 34.4954 162.186C35.3118 163.021 35.72 164.174 35.72 165.646V167.019H29.031C29.0619 167.823 29.3 168.451 29.7454 168.902C30.1907 169.354 30.8153 169.58 31.6194 169.58C32.2441 169.58 32.8347 169.515 33.3914 169.385C33.948 169.255 34.5294 169.048 35.1355 168.763V170.953C34.6407 171.2 34.1119 171.382 33.5491 171.5C32.9862 171.624 32.2997 171.686 31.4895 171.686ZM44.6077 171.5L44.0603 170.09H43.9861C43.5098 170.69 43.0181 171.107 42.511 171.342C42.01 171.571 41.3544 171.686 40.5442 171.686C39.5484 171.686 38.7629 171.401 38.1877 170.832C37.6187 170.263 37.3342 169.453 37.3342 168.401C37.3342 167.3 37.7177 166.49 38.4846 165.971C39.2577 165.445 40.4205 165.154 41.9729 165.099L43.7727 165.043V164.588C43.7727 163.537 43.2346 163.011 42.1584 163.011C41.3297 163.011 40.3556 163.262 39.2361 163.763L38.2991 161.852C39.4928 161.227 40.8163 160.915 42.2698 160.915C43.6614 160.915 44.7283 161.218 45.4705 161.824C46.2126 162.43 46.5837 163.351 46.5837 164.588V171.5H44.6077ZM43.7727 166.694L42.678 166.731C41.8554 166.756 41.2431 166.905 40.8411 167.177C40.439 167.449 40.238 167.863 40.238 168.42C40.238 169.218 40.6957 169.617 41.6111 169.617C42.2667 169.617 42.7893 169.428 43.179 169.051C43.5748 168.674 43.7727 168.173 43.7727 167.548V166.694ZM52.7903 171.686C51.5719 171.686 50.6132 171.212 49.9143 170.266C49.2216 169.32 48.8752 168.009 48.8752 166.333C48.8752 164.632 49.2278 163.308 49.9329 162.362C50.6441 161.409 51.6213 160.933 52.8645 160.933C54.1695 160.933 55.1653 161.44 55.8518 162.455H55.9446C55.8023 161.681 55.7312 160.992 55.7312 160.386V157.064H58.5701V171.5H56.3992L55.8518 170.155H55.7312C55.088 171.175 54.1077 171.686 52.7903 171.686ZM53.783 169.431C54.5066 169.431 55.0354 169.221 55.3694 168.8C55.7096 168.38 55.8951 167.665 55.926 166.657V166.351C55.926 165.238 55.7528 164.44 55.4065 163.958C55.0663 163.475 54.5097 163.234 53.7366 163.234C53.1057 163.234 52.614 163.503 52.2615 164.041C51.9151 164.573 51.7419 165.349 51.7419 166.37C51.7419 167.39 51.9182 168.157 52.2708 168.67C52.6233 169.178 53.1274 169.431 53.783 169.431ZM65.825 162.946C65.225 162.946 64.755 163.138 64.4148 163.521C64.0746 163.899 63.8798 164.437 63.8303 165.136H67.801C67.7887 164.437 67.6062 163.899 67.2537 163.521C66.9011 163.138 66.4249 162.946 65.825 162.946ZM66.2239 171.686C64.554 171.686 63.2489 171.225 62.3088 170.303C61.3687 169.382 60.8987 168.077 60.8987 166.388C60.8987 164.65 61.3316 163.308 62.1975 162.362C63.0696 161.409 64.2725 160.933 65.8064 160.933C67.2722 160.933 68.4133 161.351 69.2297 162.186C70.0461 163.021 70.4543 164.174 70.4543 165.646V167.019H63.7654C63.7963 167.823 64.0344 168.451 64.4797 168.902C64.925 169.354 65.5497 169.58 66.3538 169.58C66.9784 169.58 67.5691 169.515 68.1257 169.385C68.6824 169.255 69.2638 169.048 69.8699 168.763V170.953C69.3751 171.2 68.8463 171.382 68.2834 171.5C67.7206 171.624 67.0341 171.686 66.2239 171.686ZM78.5442 160.933C78.9277 160.933 79.2462 160.961 79.4998 161.017L79.2864 163.67C79.0575 163.608 78.7792 163.577 78.4514 163.577C77.5484 163.577 76.8433 163.809 76.3362 164.273C75.8352 164.737 75.5847 165.386 75.5847 166.221V171.5H72.7551V161.128H74.8982L75.3157 162.872H75.4548C75.7764 162.291 76.2094 161.824 76.7537 161.471C77.3041 161.112 77.901 160.933 78.5442 160.933ZM87.1536 160.933C88.3782 160.933 89.3368 161.412 90.0295 162.371C90.7222 163.324 91.0686 164.632 91.0686 166.295C91.0686 168.009 90.7099 169.335 89.9924 170.275C89.2812 171.215 88.3101 171.686 87.0793 171.686C85.8609 171.686 84.9054 171.243 84.2126 170.359H84.0178L83.5447 171.5H81.3831V157.064H84.2126V160.423C84.2126 160.85 84.1755 161.533 84.1013 162.473H84.2126C84.8744 161.446 85.8547 160.933 87.1536 160.933ZM86.2444 163.197C85.5455 163.197 85.0352 163.413 84.7136 163.846C84.392 164.273 84.225 164.981 84.2126 165.971V166.277C84.2126 167.39 84.3765 168.188 84.7043 168.67C85.0383 169.153 85.564 169.394 86.2815 169.394C86.8629 169.394 87.3236 169.128 87.6638 168.596C88.0102 168.058 88.1833 167.279 88.1833 166.258C88.1833 165.238 88.0102 164.474 87.6638 163.967C87.3175 163.453 86.8443 163.197 86.2444 163.197ZM95.6609 166.295C95.6609 167.322 95.8279 168.098 96.1619 168.624C96.502 169.15 97.0525 169.413 97.8132 169.413C98.5678 169.413 99.109 169.153 99.4368 168.633C99.7708 168.108 99.9377 167.328 99.9377 166.295C99.9377 165.269 99.7708 164.499 99.4368 163.985C99.1028 163.472 98.5554 163.215 97.7947 163.215C97.0401 163.215 96.4958 163.472 96.1619 163.985C95.8279 164.493 95.6609 165.263 95.6609 166.295ZM102.832 166.295C102.832 167.984 102.387 169.304 101.496 170.257C100.606 171.209 99.3656 171.686 97.7761 171.686C96.7804 171.686 95.9021 171.469 95.1414 171.036C94.3806 170.597 93.7961 169.969 93.3879 169.153C92.9797 168.336 92.7756 167.384 92.7756 166.295C92.7756 164.601 93.2179 163.283 94.1023 162.343C94.9867 161.403 96.2299 160.933 97.8318 160.933C98.8276 160.933 99.7058 161.15 100.467 161.583C101.227 162.015 101.812 162.637 102.22 163.447C102.628 164.257 102.832 165.207 102.832 166.295ZM111.757 171.5L111.21 170.09H111.135C110.659 170.69 110.168 171.107 109.66 171.342C109.159 171.571 108.504 171.686 107.694 171.686C106.698 171.686 105.912 171.401 105.337 170.832C104.768 170.263 104.484 169.453 104.484 168.401C104.484 167.3 104.867 166.49 105.634 165.971C106.407 165.445 107.57 165.154 109.122 165.099L110.922 165.043V164.588C110.922 163.537 110.384 163.011 109.308 163.011C108.479 163.011 107.505 163.262 106.385 163.763L105.448 161.852C106.642 161.227 107.966 160.915 109.419 160.915C110.811 160.915 111.878 161.218 112.62 161.824C113.362 162.43 113.733 163.351 113.733 164.588V171.5H111.757ZM110.922 166.694L109.827 166.731C109.005 166.756 108.392 166.905 107.99 167.177C107.588 167.449 107.387 167.863 107.387 168.42C107.387 169.218 107.845 169.617 108.76 169.617C109.416 169.617 109.939 169.428 110.328 169.051C110.724 168.674 110.922 168.173 110.922 167.548V166.694ZM122.445 160.933C122.828 160.933 123.147 160.961 123.4 161.017L123.187 163.67C122.958 163.608 122.68 163.577 122.352 163.577C121.449 163.577 120.744 163.809 120.237 164.273C119.736 164.737 119.485 165.386 119.485 166.221V171.5H116.656V161.128H118.799L119.216 162.872H119.355C119.677 162.291 120.11 161.824 120.654 161.471C121.205 161.112 121.801 160.933 122.445 160.933ZM128.382 171.686C127.164 171.686 126.205 171.212 125.506 170.266C124.813 169.32 124.467 168.009 124.467 166.333C124.467 164.632 124.82 163.308 125.525 162.362C126.236 161.409 127.213 160.933 128.456 160.933C129.761 160.933 130.757 161.44 131.444 162.455H131.536C131.394 161.681 131.323 160.992 131.323 160.386V157.064H134.162V171.5H131.991L131.444 170.155H131.323C130.68 171.175 129.699 171.686 128.382 171.686ZM129.375 169.431C130.098 169.431 130.627 169.221 130.961 168.8C131.301 168.38 131.487 167.665 131.518 166.657V166.351C131.518 165.238 131.345 164.44 130.998 163.958C130.658 163.475 130.101 163.234 129.328 163.234C128.698 163.234 128.206 163.503 127.853 164.041C127.507 164.573 127.334 165.349 127.334 166.37C127.334 167.39 127.51 168.157 127.863 168.67C128.215 169.178 128.719 169.431 129.375 169.431ZM139.032 167V166.314C139.032 165.999 139.063 165.714 139.125 165.46C139.193 165.201 139.292 164.956 139.422 164.728C139.558 164.493 139.731 164.267 139.942 164.05C140.152 163.828 140.406 163.599 140.702 163.364C140.962 163.16 141.182 162.977 141.361 162.816C141.54 162.656 141.686 162.498 141.797 162.343C141.908 162.182 141.989 162.015 142.038 161.842C142.088 161.669 142.113 161.468 142.113 161.239C142.113 160.887 141.992 160.596 141.751 160.367C141.516 160.138 141.154 160.024 140.665 160.024C140.239 160.024 139.778 160.114 139.283 160.293C138.794 160.472 138.287 160.692 137.761 160.952L136.815 158.901C137.081 158.747 137.369 158.601 137.678 158.465C137.993 158.323 138.318 158.199 138.652 158.094C138.992 157.983 139.336 157.896 139.682 157.834C140.028 157.773 140.368 157.742 140.702 157.742C141.333 157.742 141.902 157.819 142.409 157.974C142.917 158.122 143.346 158.342 143.699 158.632C144.052 158.923 144.321 159.276 144.506 159.69C144.698 160.104 144.794 160.577 144.794 161.109C144.794 161.499 144.75 161.848 144.664 162.158C144.577 162.461 144.447 162.745 144.274 163.011C144.107 163.271 143.894 163.525 143.634 163.772C143.38 164.013 143.084 164.27 142.743 164.542C142.484 164.746 142.27 164.925 142.103 165.08C141.942 165.229 141.816 165.371 141.723 165.507C141.63 165.643 141.565 165.785 141.528 165.934C141.497 166.076 141.482 166.246 141.482 166.444V167H139.032ZM138.726 170.173C138.726 169.883 138.767 169.638 138.847 169.44C138.934 169.236 139.051 169.072 139.199 168.949C139.348 168.825 139.521 168.735 139.719 168.68C139.923 168.624 140.14 168.596 140.368 168.596C140.585 168.596 140.789 168.624 140.981 168.68C141.179 168.735 141.352 168.825 141.5 168.949C141.649 169.072 141.766 169.236 141.853 169.44C141.939 169.638 141.983 169.883 141.983 170.173C141.983 170.452 141.939 170.69 141.853 170.888C141.766 171.086 141.649 171.25 141.5 171.379C141.352 171.509 141.179 171.602 140.981 171.658C140.789 171.72 140.585 171.75 140.368 171.75C140.14 171.75 139.923 171.72 139.719 171.658C139.521 171.602 139.348 171.509 139.199 171.379C139.051 171.25 138.934 171.086 138.847 170.888C138.767 170.69 138.726 170.452 138.726 170.173Z"></path>
<path stroke-linejoin="round" stroke-miterlimit="10" stroke="#0B233F" fill="#F3F5F8" d="M309 123.667C309 115.567 315.567 109 323.667 109H536.333C544.433 109 551 115.567 551 123.667V182.333C551 190.433 544.433 197 536.333 197H323.667C315.567 197 309 190.433 309 182.333V123.667Z" clip-rule="evenodd" fill-rule="evenodd"></path>
<path fill="#0B233F" d="M330.033 137.245C328.573 137.245 327.426 137.733 326.591 138.71C325.756 139.688 325.338 141.024 325.338 142.718C325.338 144.469 325.743 145.82 326.554 146.772C327.364 147.719 328.517 148.192 330.014 148.192C330.979 148.192 332.064 148.013 333.271 147.654V149.138C332.695 149.348 332.142 149.491 331.61 149.565C331.078 149.645 330.466 149.686 329.773 149.686C327.775 149.686 326.235 149.079 325.153 147.867C324.077 146.649 323.539 144.926 323.539 142.7C323.539 141.302 323.795 140.077 324.309 139.026C324.828 137.974 325.58 137.164 326.563 136.595C327.553 136.026 328.715 135.742 330.051 135.742C331.486 135.742 332.736 136.008 333.799 136.54L333.113 137.987C332.03 137.492 331.004 137.245 330.033 137.245ZM342.938 149.5V142.987C342.938 142.159 342.752 141.543 342.381 141.141C342.016 140.733 341.441 140.529 340.655 140.529C339.622 140.529 338.865 140.816 338.382 141.392C337.906 141.967 337.668 142.916 337.668 144.24V149.5H335.998V135.064H337.668V139.295C337.668 139.852 337.637 140.328 337.575 140.724H337.687C337.99 140.229 338.419 139.842 338.976 139.564C339.533 139.286 340.16 139.146 340.859 139.146C342.096 139.146 343.027 139.443 343.652 140.037C344.277 140.625 344.589 141.568 344.589 142.867V149.5H342.938ZM352.076 149.686C350.548 149.686 349.348 149.225 348.476 148.303C347.61 147.375 347.177 146.101 347.177 144.481C347.177 142.848 347.582 141.549 348.393 140.584C349.203 139.613 350.298 139.128 351.677 139.128C352.957 139.128 353.978 139.542 354.738 140.371C355.499 141.194 355.879 142.31 355.879 143.72V144.731H348.903C348.934 145.888 349.228 146.766 349.784 147.366C350.341 147.966 351.129 148.266 352.15 148.266C352.694 148.266 353.211 148.22 353.699 148.127C354.188 148.028 354.76 147.839 355.416 147.561V149.027C354.853 149.268 354.324 149.438 353.829 149.537C353.334 149.636 352.75 149.686 352.076 149.686ZM351.658 140.492C350.86 140.492 350.229 140.748 349.766 141.262C349.302 141.775 349.027 142.489 348.94 143.405H354.126C354.114 142.452 353.894 141.729 353.467 141.234C353.041 140.739 352.438 140.492 351.658 140.492ZM362.55 149.686C361.084 149.686 359.943 149.237 359.126 148.34C358.31 147.437 357.902 146.145 357.902 144.462C357.902 142.755 358.313 141.441 359.136 140.52C359.965 139.592 361.143 139.128 362.67 139.128C363.165 139.128 363.654 139.181 364.136 139.286C364.625 139.385 365.027 139.514 365.342 139.675L364.832 141.067C363.972 140.745 363.239 140.584 362.633 140.584C361.607 140.584 360.849 140.909 360.36 141.559C359.872 142.202 359.627 143.164 359.627 144.444C359.627 145.675 359.872 146.618 360.36 147.273C360.849 147.923 361.573 148.248 362.531 148.248C363.428 148.248 364.309 148.05 365.175 147.654V149.138C364.47 149.503 363.595 149.686 362.55 149.686ZM369.248 144.258L369.814 143.535L370.463 142.755L373.72 139.313H375.668L371.549 143.665L375.956 149.5H373.942L370.408 144.75L369.248 145.761V149.5H367.597V135.064H369.248V142.607L369.174 144.258H369.248ZM391.597 139.926C391.597 141.311 391.124 142.375 390.178 143.117C389.231 143.853 387.899 144.221 386.179 144.221H384.621V149.5H382.914V135.937H386.504C389.899 135.937 391.597 137.266 391.597 139.926ZM384.621 142.755H385.984C387.333 142.755 388.31 142.539 388.916 142.106C389.522 141.667 389.825 140.965 389.825 140C389.825 139.128 389.544 138.475 388.981 138.042C388.418 137.61 387.54 137.393 386.346 137.393H384.621V142.755ZM398.936 139.128C399.387 139.128 399.786 139.165 400.132 139.239L399.928 140.779C399.551 140.693 399.183 140.649 398.824 140.649C398.286 140.649 397.785 140.798 397.321 141.095C396.864 141.392 396.505 141.803 396.245 142.329C395.985 142.848 395.855 143.426 395.855 144.063V149.5H394.186V139.313H395.559L395.744 141.178H395.818C396.208 140.504 396.669 139.994 397.201 139.647C397.733 139.301 398.311 139.128 398.936 139.128ZM410.699 144.388C410.699 146.052 410.279 147.351 409.438 148.285C408.596 149.219 407.434 149.686 405.949 149.686C405.028 149.686 404.211 149.472 403.5 149.045C402.789 148.612 402.241 147.994 401.858 147.19C401.474 146.386 401.283 145.452 401.283 144.388C401.283 142.731 401.697 141.441 402.526 140.52C403.355 139.592 404.517 139.128 406.014 139.128C407.449 139.128 408.587 139.601 409.428 140.547C410.276 141.487 410.699 142.768 410.699 144.388ZM403.008 144.388C403.008 145.668 403.259 146.643 403.76 147.311C404.267 147.972 405.012 148.303 405.996 148.303C406.967 148.303 407.706 147.972 408.213 147.311C408.72 146.643 408.974 145.668 408.974 144.388C408.974 143.108 408.717 142.146 408.204 141.503C407.696 140.854 406.951 140.529 405.968 140.529C403.995 140.529 403.008 141.815 403.008 144.388ZM417.23 148.322C418.257 148.322 419.002 148.047 419.466 147.496C419.936 146.939 420.171 146.049 420.171 144.824V144.425C420.171 143.065 419.936 142.075 419.466 141.457C418.996 140.838 418.239 140.529 417.193 140.529C416.34 140.529 415.678 140.869 415.208 141.549C414.744 142.223 414.512 143.188 414.512 144.444C414.512 145.706 414.738 146.667 415.189 147.329C415.647 147.991 416.327 148.322 417.23 148.322ZM420.153 149.407L420.208 148.155H420.134C419.448 149.175 418.396 149.686 416.98 149.686C415.663 149.686 414.633 149.228 413.891 148.312C413.155 147.391 412.787 146.095 412.787 144.425C412.787 142.786 413.158 141.494 413.9 140.547C414.648 139.601 415.669 139.128 416.961 139.128C418.341 139.128 419.404 139.641 420.153 140.668H420.255L420.478 139.313H421.804V149.667C421.804 151.127 421.433 152.224 420.691 152.96C419.955 153.696 418.808 154.064 417.249 154.064C415.765 154.064 414.543 153.848 413.584 153.415V151.875C414.574 152.407 415.826 152.673 417.342 152.673C418.208 152.673 418.891 152.419 419.392 151.912C419.899 151.405 420.153 150.703 420.153 149.806V149.407ZM429.792 139.128C430.243 139.128 430.642 139.165 430.989 139.239L430.785 140.779C430.407 140.693 430.039 140.649 429.681 140.649C429.143 140.649 428.642 140.798 428.178 141.095C427.72 141.392 427.361 141.803 427.102 142.329C426.842 142.848 426.712 143.426 426.712 144.063V149.5H425.042V139.313H426.415L426.601 141.178H426.675C427.064 140.504 427.525 139.994 428.057 139.647C428.589 139.301 429.167 139.128 429.792 139.128ZM437.038 149.686C435.51 149.686 434.31 149.225 433.438 148.303C432.572 147.375 432.139 146.101 432.139 144.481C432.139 142.848 432.544 141.549 433.354 140.584C434.165 139.613 435.259 139.128 436.639 139.128C437.919 139.128 438.939 139.542 439.7 140.371C440.461 141.194 440.841 142.31 440.841 143.72V144.731H433.865C433.896 145.888 434.189 146.766 434.746 147.366C435.303 147.966 436.091 148.266 437.112 148.266C437.656 148.266 438.173 148.22 438.661 148.127C439.15 148.028 439.722 147.839 440.377 147.561V149.027C439.815 149.268 439.286 149.438 438.791 149.537C438.296 149.636 437.712 149.686 437.038 149.686ZM436.62 140.492C435.822 140.492 435.191 140.748 434.728 141.262C434.264 141.775 433.988 142.489 433.902 143.405H439.088C439.076 142.452 438.856 141.729 438.429 141.234C438.002 140.739 437.399 140.492 436.62 140.492ZM450.063 146.689C450.063 147.641 449.707 148.381 448.996 148.906C448.285 149.426 447.286 149.686 446 149.686C444.657 149.686 443.59 149.472 442.799 149.045V147.524C443.918 148.068 444.998 148.34 446.037 148.34C446.878 148.34 447.49 148.204 447.874 147.932C448.257 147.66 448.449 147.295 448.449 146.837C448.449 146.435 448.263 146.095 447.892 145.817C447.527 145.539 446.875 145.22 445.935 144.861C444.976 144.49 444.302 144.175 443.912 143.915C443.522 143.649 443.235 143.352 443.049 143.024C442.87 142.697 442.78 142.298 442.78 141.828C442.78 140.993 443.12 140.334 443.801 139.852C444.481 139.369 445.415 139.128 446.603 139.128C447.759 139.128 448.841 139.357 449.85 139.814L449.284 141.141C448.251 140.708 447.32 140.492 446.491 140.492C445.799 140.492 445.273 140.603 444.914 140.826C444.555 141.042 444.376 141.342 444.376 141.726C444.376 142.097 444.531 142.406 444.84 142.653C445.149 142.895 445.87 143.232 447.001 143.665C447.849 143.98 448.473 144.274 448.875 144.546C449.284 144.818 449.584 145.124 449.775 145.464C449.967 145.805 450.063 146.213 450.063 146.689ZM459.173 146.689C459.173 147.641 458.818 148.381 458.106 148.906C457.395 149.426 456.396 149.686 455.11 149.686C453.768 149.686 452.701 149.472 451.909 149.045V147.524C453.029 148.068 454.108 148.34 455.147 148.34C455.988 148.34 456.6 148.204 456.984 147.932C457.367 147.66 457.559 147.295 457.559 146.837C457.559 146.435 457.374 146.095 457.002 145.817C456.638 145.539 455.985 145.22 455.045 144.861C454.086 144.49 453.412 144.175 453.022 143.915C452.633 143.649 452.345 143.352 452.16 143.024C451.98 142.697 451.891 142.298 451.891 141.828C451.891 140.993 452.231 140.334 452.911 139.852C453.591 139.369 454.525 139.128 455.713 139.128C456.869 139.128 457.952 139.357 458.96 139.814L458.394 141.141C457.361 140.708 456.43 140.492 455.602 140.492C454.909 140.492 454.383 140.603 454.024 140.826C453.666 141.042 453.486 141.342 453.486 141.726C453.486 142.097 453.641 142.406 453.95 142.653C454.259 142.895 454.98 143.232 456.112 143.665C456.959 143.98 457.584 144.274 457.986 144.546C458.394 144.818 458.694 145.124 458.886 145.464C459.077 145.805 459.173 146.213 459.173 146.689ZM475.437 144.388C475.437 146.052 475.016 147.351 474.175 148.285C473.334 149.219 472.171 149.686 470.687 149.686C469.765 149.686 468.949 149.472 468.237 149.045C467.526 148.612 466.979 147.994 466.595 147.19C466.212 146.386 466.02 145.452 466.02 144.388C466.02 142.731 466.434 141.441 467.263 140.52C468.092 139.592 469.255 139.128 470.751 139.128C472.186 139.128 473.324 139.601 474.166 140.547C475.013 141.487 475.437 142.768 475.437 144.388ZM467.746 144.388C467.746 145.668 467.996 146.643 468.497 147.311C469.004 147.972 469.75 148.303 470.733 148.303C471.704 148.303 472.443 147.972 472.95 147.311C473.457 146.643 473.711 145.668 473.711 144.388C473.711 143.108 473.454 142.146 472.941 141.503C472.434 140.854 471.688 140.529 470.705 140.529C468.732 140.529 467.746 141.815 467.746 144.388ZM485.029 149.5V142.987C485.029 142.159 484.844 141.543 484.473 141.141C484.108 140.733 483.533 140.529 482.747 140.529C481.702 140.529 480.941 140.819 480.465 141.401C479.995 141.976 479.76 142.916 479.76 144.221V149.5H478.09V139.313H479.435L479.686 140.705H479.778C480.094 140.204 480.536 139.818 481.105 139.545C481.674 139.267 482.302 139.128 482.988 139.128C484.238 139.128 485.165 139.431 485.771 140.037C486.378 140.643 486.681 141.586 486.681 142.867V149.5H485.029Z"></path>
<path fill="#0B233F" d="M324.225 171.5V157.937H325.932V169.979H331.86V171.5H324.225ZM338.29 171.686C336.762 171.686 335.562 171.225 334.69 170.303C333.824 169.375 333.391 168.101 333.391 166.481C333.391 164.848 333.796 163.549 334.606 162.584C335.417 161.613 336.511 161.128 337.891 161.128C339.171 161.128 340.191 161.542 340.952 162.371C341.713 163.194 342.093 164.31 342.093 165.72V166.731H335.117C335.148 167.888 335.441 168.766 335.998 169.366C336.555 169.966 337.343 170.266 338.364 170.266C338.908 170.266 339.424 170.22 339.913 170.127C340.402 170.028 340.974 169.839 341.629 169.561V171.027C341.067 171.268 340.538 171.438 340.043 171.537C339.548 171.636 338.964 171.686 338.29 171.686ZM337.872 162.492C337.074 162.492 336.443 162.748 335.979 163.262C335.516 163.775 335.24 164.489 335.154 165.405H340.34C340.327 164.452 340.108 163.729 339.681 163.234C339.254 162.739 338.651 162.492 337.872 162.492ZM350.972 171.5L350.647 170.053H350.573C350.066 170.69 349.558 171.123 349.051 171.352C348.55 171.574 347.916 171.686 347.149 171.686C346.147 171.686 345.362 171.423 344.793 170.897C344.224 170.371 343.939 169.629 343.939 168.67C343.939 166.605 345.569 165.522 348.829 165.423L350.554 165.358V164.755C350.554 163.982 350.387 163.413 350.053 163.048C349.719 162.677 349.184 162.492 348.448 162.492C347.91 162.492 347.4 162.572 346.917 162.733C346.441 162.894 345.993 163.073 345.572 163.271L345.062 162.019C345.575 161.746 346.135 161.533 346.741 161.378C347.347 161.224 347.947 161.146 348.541 161.146C349.772 161.146 350.687 161.419 351.287 161.963C351.887 162.507 352.187 163.373 352.187 164.561V171.5H350.972ZM347.53 170.34C348.464 170.34 349.197 170.09 349.729 169.589C350.267 169.082 350.536 168.364 350.536 167.437V166.518L349.033 166.583C347.864 166.626 347.01 166.812 346.472 167.14C345.94 167.467 345.674 167.984 345.674 168.689C345.674 169.221 345.835 169.629 346.157 169.914C346.485 170.198 346.942 170.34 347.53 170.34ZM358.959 171.686C357.636 171.686 356.609 171.228 355.879 170.312C355.15 169.397 354.785 168.101 354.785 166.425C354.785 164.762 355.15 163.463 355.879 162.529C356.615 161.595 357.648 161.128 358.978 161.128C360.345 161.128 361.396 161.629 362.132 162.631H362.253C362.234 162.507 362.21 162.26 362.179 161.889C362.148 161.511 362.132 161.258 362.132 161.128V157.064H363.802V171.5H362.457L362.207 170.136H362.132C361.421 171.169 360.363 171.686 358.959 171.686ZM359.229 170.303C360.243 170.303 360.982 170.028 361.446 169.478C361.916 168.921 362.151 168.012 362.151 166.75V166.444C362.151 165.028 361.913 164.019 361.437 163.419C360.966 162.813 360.224 162.51 359.21 162.51C358.35 162.51 357.685 162.854 357.215 163.54C356.745 164.22 356.51 165.194 356.51 166.462C356.51 167.724 356.742 168.68 357.206 169.329C357.676 169.979 358.35 170.303 359.229 170.303ZM371.373 171.686C369.845 171.686 368.645 171.225 367.773 170.303C366.907 169.375 366.474 168.101 366.474 166.481C366.474 164.848 366.879 163.549 367.689 162.584C368.5 161.613 369.594 161.128 370.974 161.128C372.254 161.128 373.274 161.542 374.035 162.371C374.796 163.194 375.176 164.31 375.176 165.72V166.731H368.2C368.231 167.888 368.524 168.766 369.081 169.366C369.638 169.966 370.426 170.266 371.447 170.266C371.991 170.266 372.507 170.22 372.996 170.127C373.485 170.028 374.057 169.839 374.712 169.561V171.027C374.15 171.268 373.621 171.438 373.126 171.537C372.631 171.636 372.047 171.686 371.373 171.686ZM370.955 162.492C370.157 162.492 369.526 162.748 369.062 163.262C368.599 163.775 368.323 164.489 368.237 165.405H373.423C373.41 164.452 373.191 163.729 372.764 163.234C372.337 162.739 371.734 162.492 370.955 162.492ZM382.515 161.128C382.966 161.128 383.365 161.165 383.711 161.239L383.507 162.779C383.13 162.693 382.762 162.649 382.403 162.649C381.865 162.649 381.364 162.798 380.9 163.095C380.443 163.392 380.084 163.803 379.824 164.329C379.564 164.848 379.435 165.426 379.435 166.063V171.5H377.765V161.313H379.138L379.323 163.178H379.397C379.787 162.504 380.248 161.994 380.78 161.647C381.312 161.301 381.89 161.128 382.515 161.128ZM390.438 161.146C391.78 161.146 392.816 161.61 393.545 162.538C394.275 163.46 394.64 164.749 394.64 166.407C394.64 168.089 394.269 169.391 393.527 170.312C392.785 171.228 391.755 171.686 390.438 171.686C389.751 171.686 389.139 171.562 388.601 171.314C388.062 171.067 387.623 170.699 387.283 170.21H387.153C386.962 170.953 386.847 171.382 386.81 171.5H385.613V157.064H387.283V160.571C387.283 161.27 387.252 161.969 387.19 162.668H387.283C387.97 161.654 389.021 161.146 390.438 161.146ZM390.159 162.529C389.132 162.529 388.396 162.819 387.951 163.401C387.506 163.982 387.283 164.966 387.283 166.351V166.425C387.283 167.817 387.509 168.813 387.96 169.413C388.418 170.006 389.163 170.303 390.196 170.303C391.112 170.303 391.792 169.969 392.237 169.301C392.689 168.627 392.915 167.656 392.915 166.388C392.915 165.102 392.689 164.137 392.237 163.494C391.786 162.85 391.093 162.529 390.159 162.529ZM406.153 166.388C406.153 168.052 405.733 169.351 404.892 170.285C404.05 171.219 402.888 171.686 401.403 171.686C400.482 171.686 399.665 171.472 398.954 171.045C398.243 170.612 397.695 169.994 397.312 169.19C396.929 168.386 396.737 167.452 396.737 166.388C396.737 164.731 397.151 163.441 397.98 162.52C398.809 161.592 399.972 161.128 401.468 161.128C402.903 161.128 404.041 161.601 404.882 162.547C405.73 163.487 406.153 164.768 406.153 166.388ZM398.462 166.388C398.462 167.668 398.713 168.643 399.214 169.311C399.721 169.972 400.466 170.303 401.45 170.303C402.421 170.303 403.16 169.972 403.667 169.311C404.174 168.643 404.428 167.668 404.428 166.388C404.428 165.108 404.171 164.146 403.658 163.503C403.151 162.854 402.405 162.529 401.422 162.529C399.449 162.529 398.462 163.815 398.462 166.388ZM415.097 171.5L414.772 170.053H414.698C414.191 170.69 413.683 171.123 413.176 171.352C412.675 171.574 412.041 171.686 411.274 171.686C410.272 171.686 409.487 171.423 408.918 170.897C408.349 170.371 408.064 169.629 408.064 168.67C408.064 166.605 409.694 165.522 412.954 165.423L414.679 165.358V164.755C414.679 163.982 414.512 163.413 414.178 163.048C413.844 162.677 413.309 162.492 412.573 162.492C412.035 162.492 411.525 162.572 411.042 162.733C410.566 162.894 410.118 163.073 409.697 163.271L409.187 162.019C409.7 161.746 410.26 161.533 410.866 161.378C411.472 161.224 412.072 161.146 412.666 161.146C413.897 161.146 414.812 161.419 415.412 161.963C416.012 162.507 416.312 163.373 416.312 164.561V171.5H415.097ZM411.655 170.34C412.589 170.34 413.322 170.09 413.854 169.589C414.392 169.082 414.661 168.364 414.661 167.437V166.518L413.158 166.583C411.989 166.626 411.135 166.812 410.597 167.14C410.065 167.467 409.799 167.984 409.799 168.689C409.799 169.221 409.96 169.629 410.282 169.914C410.61 170.198 411.067 170.34 411.655 170.34ZM424.226 161.128C424.677 161.128 425.076 161.165 425.422 161.239L425.218 162.779C424.841 162.693 424.473 162.649 424.114 162.649C423.576 162.649 423.075 162.798 422.611 163.095C422.154 163.392 421.795 163.803 421.535 164.329C421.275 164.848 421.146 165.426 421.146 166.063V171.5H419.476V161.313H420.849L421.034 163.178H421.108C421.498 162.504 421.959 161.994 422.491 161.647C423.023 161.301 423.601 161.128 424.226 161.128ZM430.748 171.686C429.424 171.686 428.397 171.228 427.667 170.312C426.938 169.397 426.573 168.101 426.573 166.425C426.573 164.762 426.938 163.463 427.667 162.529C428.403 161.595 429.436 161.128 430.766 161.128C432.133 161.128 433.184 161.629 433.92 162.631H434.041C434.022 162.507 433.998 162.26 433.967 161.889C433.936 161.511 433.92 161.258 433.92 161.128V157.064H435.59V171.5H434.245L433.995 170.136H433.92C433.209 171.169 432.152 171.686 430.748 171.686ZM431.017 170.303C432.031 170.303 432.77 170.028 433.234 169.478C433.704 168.921 433.939 168.012 433.939 166.75V166.444C433.939 165.028 433.701 164.019 433.225 163.419C432.755 162.813 432.012 162.51 430.998 162.51C430.138 162.51 429.473 162.854 429.003 163.54C428.533 164.22 428.298 165.194 428.298 166.462C428.298 167.724 428.53 168.68 428.994 169.329C429.464 169.979 430.138 170.303 431.017 170.303Z"></path>
<path fill="#E96969" d="M242.5 151.5H275.366C275.918 151.5 276.366 151.948 276.366 152.5V152.562L275.366 151.562H301.566V153.562H275.366C274.814 153.562 274.366 153.115 274.366 152.562V152.5L275.366 153.5H242.5V151.5ZM300.232 148.562L308.232 152.562L300.232 156.562V148.562Z"></path>
<path stroke-linejoin="round" stroke-miterlimit="10" stroke="#0B233F" fill="#F3F5F8" d="M617 15.667C617 7.56699 623.567 1 631.667 1H844.333C852.433 1 859 7.56699 859 15.667V74.333C859 82.433 852.433 89 844.333 89H631.667C623.567 89 617 82.433 617 74.333V15.667Z" clip-rule="evenodd" fill-rule="evenodd"></path>
<path fill="#0B233F" d="M640.543 41.5L638.911 37.2974H633.53L631.916 41.5H630.19L635.487 27.8809H637.027L642.315 41.5H640.543ZM638.4 35.7852L636.879 31.6753L636.229 29.6436C636.044 30.3857 635.849 31.063 635.645 31.6753L634.105 35.7852H638.4ZM647.362 40.3218C647.579 40.3218 647.832 40.3001 648.123 40.2568C648.414 40.2135 648.633 40.1641 648.782 40.1084V41.3887C648.627 41.4567 648.386 41.5216 648.058 41.5835C647.736 41.6515 647.409 41.6855 647.075 41.6855C645.083 41.6855 644.087 40.6372 644.087 38.5405V32.6123H642.649V31.8145L644.106 31.1465L644.774 28.9756H645.767V31.3135H648.708V32.6123H645.767V38.4941C645.767 39.0817 645.906 39.5332 646.184 39.8486C646.469 40.1641 646.861 40.3218 647.362 40.3218ZM654.228 40.3218C654.444 40.3218 654.698 40.3001 654.988 40.2568C655.279 40.2135 655.499 40.1641 655.647 40.1084V41.3887C655.492 41.4567 655.251 41.5216 654.923 41.5835C654.602 41.6515 654.274 41.6855 653.94 41.6855C651.948 41.6855 650.953 40.6372 650.953 38.5405V32.6123H649.515V31.8145L650.971 31.1465L651.639 28.9756H652.632V31.3135H655.573V32.6123H652.632V38.4941C652.632 39.0817 652.771 39.5332 653.049 39.8486C653.334 40.1641 653.727 40.3218 654.228 40.3218ZM662.021 41.6855C660.493 41.6855 659.293 41.2248 658.421 40.3032C657.555 39.3755 657.122 38.1014 657.122 36.481C657.122 34.8481 657.527 33.5493 658.337 32.5845C659.148 31.6134 660.242 31.1279 661.622 31.1279C662.902 31.1279 663.922 31.5423 664.683 32.3711C665.444 33.1937 665.824 34.3101 665.824 35.7202V36.7314H658.848C658.879 37.888 659.172 38.7663 659.729 39.3662C660.286 39.9661 661.074 40.2661 662.095 40.2661C662.639 40.2661 663.155 40.2197 663.644 40.127C664.133 40.028 664.705 39.8394 665.36 39.561V41.0269C664.798 41.2681 664.269 41.4382 663.774 41.5371C663.279 41.6361 662.695 41.6855 662.021 41.6855ZM661.603 32.4917C660.805 32.4917 660.174 32.7484 659.71 33.2617C659.247 33.7751 658.971 34.4894 658.885 35.4048H664.071C664.058 34.4523 663.839 33.7287 663.412 33.2339C662.985 32.7391 662.382 32.4917 661.603 32.4917ZM681.373 41.5V34.9409C681.373 33.3328 680.683 32.5288 679.304 32.5288C678.358 32.5288 677.662 32.804 677.217 33.3545C676.771 33.9049 676.549 34.7461 676.549 35.8779V41.5H674.888V34.9409C674.888 34.1369 674.718 33.5339 674.378 33.1318C674.044 32.7298 673.518 32.5288 672.801 32.5288C671.861 32.5288 671.171 32.8164 670.732 33.3916C670.299 33.9668 670.083 34.91 670.083 36.2212V41.5H668.413V31.3135H669.758L670.008 32.7051H670.101C670.392 32.2103 670.8 31.8237 671.326 31.5454C671.858 31.2671 672.451 31.1279 673.107 31.1279C674.703 31.1279 675.742 31.6969 676.224 32.835H676.317C676.645 32.2907 677.09 31.8701 677.653 31.5732C678.222 31.2764 678.865 31.1279 679.583 31.1279C680.733 31.1279 681.593 31.4248 682.162 32.0186C682.737 32.6123 683.024 33.5617 683.024 34.8667V41.5H681.373ZM691.012 41.6855C689.645 41.6855 688.594 41.1938 687.858 40.2104H687.747L687.784 40.5908C687.833 41.0732 687.858 41.5031 687.858 41.8804V46.0645H686.188V31.3135H687.561L687.784 32.7051H687.858C688.254 32.1484 688.711 31.7464 689.231 31.499C689.75 31.2516 690.35 31.1279 691.031 31.1279C692.354 31.1279 693.381 31.5887 694.111 32.5103C694.847 33.4256 695.215 34.7183 695.215 36.3882C695.215 38.0519 694.847 39.3507 694.111 40.2847C693.375 41.2186 692.342 41.6855 691.012 41.6855ZM690.734 32.5288C689.726 32.5288 688.996 32.8133 688.544 33.3823C688.099 33.9513 687.87 34.8451 687.858 36.0635V36.3882C687.858 37.7674 688.087 38.7663 688.544 39.3848C689.002 39.9971 689.744 40.3032 690.771 40.3032C691.625 40.3032 692.289 39.9569 692.766 39.2642C693.248 38.5715 693.489 37.6066 693.489 36.3696C693.489 35.1265 693.248 34.1771 692.766 33.5215C692.289 32.8597 691.612 32.5288 690.734 32.5288ZM701.282 40.3218C701.499 40.3218 701.752 40.3001 702.043 40.2568C702.334 40.2135 702.553 40.1641 702.702 40.1084V41.3887C702.547 41.4567 702.306 41.5216 701.978 41.5835C701.656 41.6515 701.329 41.6855 700.995 41.6855C699.003 41.6855 698.007 40.6372 698.007 38.5405V32.6123H696.569V31.8145L698.026 31.1465L698.694 28.9756H699.687V31.3135H702.627V32.6123H699.687V38.4941C699.687 39.0817 699.826 39.5332 700.104 39.8486C700.389 40.1641 700.781 40.3218 701.282 40.3218ZM715.968 41.5L715.644 40.0527H715.569C715.062 40.6898 714.555 41.1227 714.048 41.3516C713.547 41.5742 712.913 41.6855 712.146 41.6855C711.144 41.6855 710.359 41.4227 709.79 40.897C709.221 40.3713 708.936 39.6291 708.936 38.6704C708.936 36.6047 710.566 35.5223 713.825 35.4233L715.551 35.3584V34.7554C715.551 33.9823 715.384 33.4132 715.05 33.0483C714.716 32.6772 714.181 32.4917 713.445 32.4917C712.907 32.4917 712.396 32.5721 711.914 32.7329C711.438 32.8937 710.989 33.0731 710.569 33.271L710.059 32.0186C710.572 31.7464 711.132 31.533 711.738 31.3784C712.344 31.2238 712.944 31.1465 713.538 31.1465C714.768 31.1465 715.684 31.4186 716.284 31.9629C716.884 32.5072 717.184 33.373 717.184 34.5605V41.5H715.968ZM712.526 40.3403C713.46 40.3403 714.193 40.0898 714.725 39.5889C715.263 39.0817 715.532 38.3643 715.532 37.4365V36.5181L714.029 36.583C712.86 36.6263 712.007 36.8118 711.469 37.1396C710.937 37.4674 710.671 37.9839 710.671 38.689C710.671 39.2209 710.832 39.6291 711.153 39.9136C711.481 40.1981 711.939 40.3403 712.526 40.3403ZM731.406 34.3379H736.091V40.9897C735.373 41.2186 734.644 41.3918 733.901 41.5093C733.159 41.6268 732.299 41.6855 731.322 41.6855C729.257 41.6855 727.658 41.0732 726.526 39.8486C725.394 38.624 724.828 36.9139 724.828 34.7183C724.828 33.3019 725.11 32.0649 725.672 31.0073C726.235 29.9497 727.045 29.1426 728.103 28.5859C729.167 28.0231 730.419 27.7417 731.86 27.7417C733.308 27.7417 734.656 28.0076 735.905 28.5396L735.256 30.0239C734.062 29.5044 732.896 29.2446 731.758 29.2446C730.144 29.2446 728.882 29.7332 727.973 30.7104C727.064 31.6877 726.609 33.0236 726.609 34.7183C726.609 36.5119 727.045 37.8757 727.917 38.8096C728.79 39.7435 730.057 40.2104 731.721 40.2104C732.63 40.2104 733.518 40.1022 734.384 39.8857V35.8594H731.406V34.3379ZM745.415 41.5L745.09 40.0527H745.016C744.508 40.6898 744.001 41.1227 743.494 41.3516C742.993 41.5742 742.359 41.6855 741.592 41.6855C740.59 41.6855 739.805 41.4227 739.236 40.897C738.667 40.3713 738.382 39.6291 738.382 38.6704C738.382 36.6047 740.012 35.5223 743.271 35.4233L744.997 35.3584V34.7554C744.997 33.9823 744.83 33.4132 744.496 33.0483C744.162 32.6772 743.627 32.4917 742.891 32.4917C742.353 32.4917 741.843 32.5721 741.36 32.7329C740.884 32.8937 740.436 33.0731 740.015 33.271L739.505 32.0186C740.018 31.7464 740.578 31.533 741.184 31.3784C741.79 31.2238 742.39 31.1465 742.984 31.1465C744.215 31.1465 745.13 31.4186 745.73 31.9629C746.33 32.5072 746.63 33.373 746.63 34.5605V41.5H745.415ZM741.973 40.3403C742.907 40.3403 743.639 40.0898 744.171 39.5889C744.709 39.0817 744.979 38.3643 744.979 37.4365V36.5181L743.476 36.583C742.307 36.6263 741.453 36.8118 740.915 37.1396C740.383 37.4674 740.117 37.9839 740.117 38.689C740.117 39.2209 740.278 39.6291 740.6 39.9136C740.927 40.1981 741.385 40.3403 741.973 40.3403ZM762.754 41.5V34.9409C762.754 33.3328 762.064 32.5288 760.685 32.5288C759.739 32.5288 759.043 32.804 758.598 33.3545C758.152 33.9049 757.93 34.7461 757.93 35.8779V41.5H756.269V34.9409C756.269 34.1369 756.099 33.5339 755.759 33.1318C755.425 32.7298 754.899 32.5288 754.182 32.5288C753.242 32.5288 752.552 32.8164 752.113 33.3916C751.68 33.9668 751.463 34.91 751.463 36.2212V41.5H749.793V31.3135H751.139L751.389 32.7051H751.482C751.773 32.2103 752.181 31.8237 752.707 31.5454C753.238 31.2671 753.832 31.1279 754.488 31.1279C756.083 31.1279 757.123 31.6969 757.605 32.835H757.698C758.026 32.2907 758.471 31.8701 759.034 31.5732C759.603 31.2764 760.246 31.1279 760.963 31.1279C762.114 31.1279 762.973 31.4248 763.542 32.0186C764.118 32.6123 764.405 33.5617 764.405 34.8667V41.5H762.754ZM769.239 41.5H767.569V31.3135H769.239V41.5ZM767.439 28.5581C767.439 28.187 767.532 27.918 767.717 27.751C767.909 27.584 768.144 27.5005 768.422 27.5005C768.682 27.5005 768.908 27.584 769.1 27.751C769.298 27.918 769.396 28.187 769.396 28.5581C769.396 28.923 769.298 29.1921 769.1 29.3652C768.908 29.5384 768.682 29.625 768.422 29.625C768.144 29.625 767.909 29.5384 767.717 29.3652C767.532 29.1921 767.439 28.923 767.439 28.5581ZM777.162 32.6123H774.592V41.5H772.922V32.6123H771.141V31.833L772.922 31.2578V30.6733C772.922 29.4364 773.191 28.5086 773.729 27.8901C774.273 27.2716 775.108 26.9624 776.234 26.9624C776.883 26.9624 777.542 27.0768 778.21 27.3057L777.765 28.6138C777.189 28.4282 776.685 28.3354 776.252 28.3354C775.69 28.3354 775.272 28.521 775 28.8921C774.728 29.2632 774.592 29.8507 774.592 30.6548V31.3135H777.162V32.6123ZM780.687 41.5H779.017V31.3135H780.687V41.5ZM778.887 28.5581C778.887 28.187 778.98 27.918 779.166 27.751C779.357 27.584 779.592 27.5005 779.871 27.5005C780.13 27.5005 780.356 27.584 780.548 27.751C780.746 27.918 780.845 28.187 780.845 28.5581C780.845 28.923 780.746 29.1921 780.548 29.3652C780.356 29.5384 780.13 29.625 779.871 29.625C779.592 29.625 779.357 29.5384 779.166 29.3652C778.98 29.1921 778.887 28.923 778.887 28.5581ZM788.248 41.6855C786.72 41.6855 785.521 41.2248 784.648 40.3032C783.783 39.3755 783.35 38.1014 783.35 36.481C783.35 34.8481 783.755 33.5493 784.565 32.5845C785.375 31.6134 786.47 31.1279 787.849 31.1279C789.129 31.1279 790.15 31.5423 790.911 32.3711C791.671 33.1937 792.052 34.3101 792.052 35.7202V36.7314H785.075C785.106 37.888 785.4 38.7663 785.957 39.3662C786.513 39.9661 787.302 40.2661 788.322 40.2661C788.867 40.2661 789.383 40.2197 789.872 40.127C790.36 40.028 790.932 39.8394 791.588 39.561V41.0269C791.025 41.2681 790.496 41.4382 790.001 41.5371C789.507 41.6361 788.922 41.6855 788.248 41.6855ZM787.831 32.4917C787.033 32.4917 786.402 32.7484 785.938 33.2617C785.474 33.7751 785.199 34.4894 785.112 35.4048H790.298C790.286 34.4523 790.066 33.7287 789.64 33.2339C789.213 32.7391 788.61 32.4917 787.831 32.4917ZM798.249 41.6855C796.925 41.6855 795.899 41.2279 795.169 40.3125C794.439 39.3971 794.074 38.1014 794.074 36.4253C794.074 34.7616 794.439 33.4627 795.169 32.5288C795.905 31.5949 796.938 31.1279 798.268 31.1279C799.634 31.1279 800.686 31.6289 801.422 32.6309H801.542C801.524 32.5072 801.499 32.2598 801.468 31.8887C801.437 31.5114 801.422 31.2578 801.422 31.1279V27.0645H803.092V41.5H801.747L801.496 40.1362H801.422C800.711 41.1691 799.653 41.6855 798.249 41.6855ZM798.518 40.3032C799.532 40.3032 800.271 40.028 800.735 39.4775C801.205 38.9209 801.44 38.0117 801.44 36.75V36.4438C801.44 35.0275 801.202 34.0194 800.726 33.4194C800.256 32.8133 799.514 32.5103 798.5 32.5103C797.64 32.5103 796.975 32.8535 796.505 33.54C796.035 34.2204 795.8 35.1945 795.8 36.4624C795.8 37.7241 796.032 38.6797 796.496 39.3291C796.966 39.9785 797.64 40.3032 798.518 40.3032Z"></path>
<path fill="#0B233F" d="M638.02 63.5L633.548 51.6064H633.474C633.567 52.596 633.613 53.8175 633.613 55.271V63.5H632.036V49.9365H634.56L638.744 61.0508H638.818L643.076 49.9365H645.581V63.5H643.893V55.1597C643.893 54.2319 643.936 53.0537 644.022 51.625H643.948L639.421 63.5H638.02ZM657.892 58.3882C657.892 60.0519 657.472 61.3507 656.63 62.2847C655.789 63.2186 654.626 63.6855 653.142 63.6855C652.221 63.6855 651.404 63.4722 650.693 63.0454C649.982 62.6125 649.434 61.994 649.051 61.1899C648.667 60.3859 648.476 59.452 648.476 58.3882C648.476 56.7306 648.89 55.4411 649.719 54.5195C650.548 53.5918 651.71 53.1279 653.207 53.1279C654.642 53.1279 655.78 53.6011 656.621 54.5474C657.468 55.4875 657.892 56.7677 657.892 58.3882ZM650.201 58.3882C650.201 59.6685 650.452 60.6426 650.953 61.3105C651.46 61.9723 652.205 62.3032 653.188 62.3032C654.16 62.3032 654.899 61.9723 655.406 61.3105C655.913 60.6426 656.167 59.6685 656.167 58.3882C656.167 57.1079 655.91 56.1462 655.396 55.5029C654.889 54.8535 654.144 54.5288 653.161 54.5288C651.188 54.5288 650.201 55.8153 650.201 58.3882ZM664.154 63.6855C662.831 63.6855 661.804 63.2279 661.074 62.3125C660.344 61.3971 659.979 60.1014 659.979 58.4253C659.979 56.7616 660.344 55.4627 661.074 54.5288C661.81 53.5949 662.843 53.1279 664.173 53.1279C665.54 53.1279 666.591 53.6289 667.327 54.6309H667.448C667.429 54.5072 667.404 54.2598 667.374 53.8887C667.343 53.5114 667.327 53.2578 667.327 53.1279V49.0645H668.997V63.5H667.652L667.401 62.1362H667.327C666.616 63.1691 665.558 63.6855 664.154 63.6855ZM664.423 62.3032C665.438 62.3032 666.177 62.028 666.641 61.4775C667.111 60.9209 667.346 60.0117 667.346 58.75V58.4438C667.346 57.0275 667.108 56.0194 666.631 55.4194C666.161 54.8133 665.419 54.5103 664.405 54.5103C663.545 54.5103 662.88 54.8535 662.41 55.54C661.94 56.2204 661.705 57.1945 661.705 58.4624C661.705 59.7241 661.937 60.6797 662.401 61.3291C662.871 61.9785 663.545 62.3032 664.423 62.3032ZM673.812 53.3135V59.8726C673.812 60.6951 673.994 61.3075 674.359 61.7095C674.73 62.1053 675.303 62.3032 676.076 62.3032C677.121 62.3032 677.882 62.0125 678.358 61.4312C678.834 60.8498 679.072 59.9128 679.072 58.6201V53.3135H680.751V63.5H679.378L679.137 62.1548H679.054C678.751 62.6434 678.321 63.0207 677.764 63.2866C677.208 63.5526 676.561 63.6855 675.825 63.6855C674.601 63.6855 673.676 63.3918 673.051 62.8042C672.433 62.2166 672.124 61.2765 672.124 59.9839V53.3135H673.812ZM685.65 63.5H683.98V49.0645H685.65V63.5ZM693.211 63.6855C691.683 63.6855 690.483 63.2248 689.611 62.3032C688.745 61.3755 688.312 60.1014 688.312 58.481C688.312 56.8481 688.718 55.5493 689.528 54.5845C690.338 53.6134 691.433 53.1279 692.812 53.1279C694.092 53.1279 695.113 53.5423 695.874 54.3711C696.634 55.1937 697.015 56.3101 697.015 57.7202V58.7314H690.038C690.069 59.888 690.363 60.7663 690.919 61.3662C691.476 61.9661 692.265 62.2661 693.285 62.2661C693.829 62.2661 694.346 62.2197 694.834 62.127C695.323 62.028 695.895 61.8394 696.551 61.561V63.0269C695.988 63.2681 695.459 63.4382 694.964 63.5371C694.47 63.6361 693.885 63.6855 693.211 63.6855ZM692.793 54.4917C691.996 54.4917 691.365 54.7484 690.901 55.2617C690.437 55.7751 690.162 56.4894 690.075 57.4048H695.261C695.249 56.4523 695.029 55.7287 694.603 55.2339C694.176 54.7391 693.573 54.4917 692.793 54.4917ZM706.236 60.689C706.236 61.6414 705.881 62.3805 705.169 62.9062C704.458 63.4258 703.459 63.6855 702.173 63.6855C700.831 63.6855 699.764 63.4722 698.972 63.0454V61.5239C700.092 62.0682 701.171 62.3403 702.21 62.3403C703.051 62.3403 703.663 62.2043 704.047 61.9321C704.43 61.66 704.622 61.2951 704.622 60.8374C704.622 60.4354 704.437 60.0952 704.065 59.8169C703.701 59.5386 703.048 59.2201 702.108 58.8613C701.149 58.4902 700.475 58.1748 700.085 57.915C699.696 57.6491 699.408 57.3522 699.223 57.0244C699.043 56.6966 698.954 56.2977 698.954 55.8276C698.954 54.9927 699.294 54.334 699.974 53.8516C700.654 53.3691 701.588 53.1279 702.776 53.1279C703.932 53.1279 705.015 53.3568 706.023 53.8145L705.457 55.1411C704.424 54.7082 703.493 54.4917 702.665 54.4917C701.972 54.4917 701.446 54.603 701.087 54.8257C700.729 55.0422 700.549 55.3421 700.549 55.7256C700.549 56.0967 700.704 56.4059 701.013 56.6533C701.322 56.8945 702.043 57.2316 703.175 57.6646C704.022 57.98 704.647 58.2738 705.049 58.5459C705.457 58.818 705.757 59.1242 705.949 59.4644C706.14 59.8045 706.236 60.2127 706.236 60.689Z"></path>
<path fill="#E96969" d="M550.5 43.4995H583.366C583.918 43.4995 584.366 43.9475 584.366 44.4995V44.5625L583.366 43.5625H609.566V45.5625H583.366C582.814 45.5625 582.366 45.1145 582.366 44.5625V44.4995L583.366 45.4995H550.5V43.4995ZM608.232 40.5625L616.232 44.5625L608.232 48.5625V40.5625Z"></path>
</svg>
