<svg xmlns="http://www.w3.org/2000/svg" fill="none" viewBox="0 0 561 197" height="197" width="561">
<path stroke-linejoin="round" stroke-miterlimit="10" stroke="#0B233F" fill="#0B233F" d="M0.500122 15.167C0.500122 7.06699 7.06672 0.5 15.167 0.5H237.833C245.933 0.5 252.5 7.06699 252.5 15.167V73.833C252.5 81.933 245.933 88.5 237.833 88.5H15.167C7.06672 88.5 0.500122 81.933 0.500122 73.833V15.167Z" clip-rule="evenodd" fill-rule="evenodd"></path>
<path fill="white" d="M26.3771 41H23.5104V35.146H18.1388V41H15.2628V27.4365H18.1388V32.7524H23.5104V27.4365H26.3771V41ZM31.8414 35.7954C31.8414 36.8221 32.0084 37.5983 32.3424 38.124C32.6826 38.6497 33.233 38.9126 33.9938 38.9126C34.7483 38.9126 35.2895 38.6528 35.6173 38.1333C35.9513 37.6076 36.1183 36.8283 36.1183 35.7954C36.1183 34.7687 35.9513 33.9987 35.6173 33.4854C35.2833 32.972 34.736 32.7153 33.9752 32.7153C33.2207 32.7153 32.6764 32.972 32.3424 33.4854C32.0084 33.9925 31.8414 34.7625 31.8414 35.7954ZM39.0128 35.7954C39.0128 37.4839 38.5675 38.8044 37.6769 39.7568C36.7863 40.7093 35.5462 41.1855 33.9567 41.1855C32.9609 41.1855 32.0826 40.9691 31.3219 40.5361C30.5612 40.097 29.9767 39.4692 29.5685 38.6528C29.1603 37.8364 28.9562 36.884 28.9562 35.7954C28.9562 34.1007 29.3984 32.7834 30.2828 31.8433C31.1673 30.9032 32.4104 30.4331 34.0123 30.4331C35.0081 30.4331 35.8864 30.6496 36.6471 31.0825C37.4078 31.5155 37.9923 32.137 38.4005 32.9473C38.8087 33.7575 39.0128 34.7069 39.0128 35.7954ZM49.691 41L48.8932 37.3726L47.8356 32.7896H47.7521L45.8595 41H42.8165L39.8663 30.6279H42.6866L43.8834 35.2202C44.0195 35.7645 44.2081 36.8994 44.4493 38.625H44.5236C44.5483 38.1549 44.6565 37.4097 44.8483 36.3892L44.9967 35.6006L46.277 30.6279H49.3942L50.6095 35.6006C50.6837 35.9408 50.7734 36.4417 50.8785 37.1035C50.9899 37.7591 51.0517 38.2663 51.0641 38.625H51.1383C51.2063 38.0745 51.3022 37.4499 51.4259 36.751C51.5496 36.0459 51.6547 35.5356 51.7413 35.2202L52.9845 30.6279H55.7584L52.7711 41H49.691ZM66.7428 38.9312C67.2376 38.9312 67.8313 38.8229 68.524 38.6064V40.7124C67.819 41.0278 66.9531 41.1855 65.9264 41.1855C64.7946 41.1855 63.9689 40.901 63.4493 40.332C62.936 39.7568 62.6793 38.8971 62.6793 37.7529V32.7524H61.3248V31.5557L62.8834 30.6094L63.6998 28.4199H65.5089V30.6279H68.4127V32.7524H65.5089V37.7529C65.5089 38.1549 65.6202 38.4518 65.8429 38.6436C66.0717 38.8353 66.3717 38.9312 66.7428 38.9312ZM72.8844 35.7954C72.8844 36.8221 73.0514 37.5983 73.3854 38.124C73.7255 38.6497 74.276 38.9126 75.0367 38.9126C75.7913 38.9126 76.3325 38.6528 76.6603 38.1333C76.9943 37.6076 77.1613 36.8283 77.1613 35.7954C77.1613 34.7687 76.9943 33.9987 76.6603 33.4854C76.3263 32.972 75.7789 32.7153 75.0182 32.7153C74.2636 32.7153 73.7194 32.972 73.3854 33.4854C73.0514 33.9925 72.8844 34.7625 72.8844 35.7954ZM80.0558 35.7954C80.0558 37.4839 79.6105 38.8044 78.7198 39.7568C77.8292 40.7093 76.5892 41.1855 74.9996 41.1855C74.0039 41.1855 73.1256 40.9691 72.3649 40.5361C71.6041 40.097 71.0197 39.4692 70.6115 38.6528C70.2032 37.8364 69.9991 36.884 69.9991 35.7954C69.9991 34.1007 70.4414 32.7834 71.3258 31.8433C72.2102 30.9032 73.4534 30.4331 75.0553 30.4331C76.0511 30.4331 76.9293 30.6496 77.6901 31.0825C78.4508 31.5155 79.0353 32.137 79.4435 32.9473C79.8517 33.7575 80.0558 34.7069 80.0558 35.7954ZM91.5411 41.1855C88.3126 41.1855 86.6984 39.4136 86.6984 35.8696C86.6984 34.1069 87.1375 32.7617 88.0157 31.834C88.894 30.9001 90.1526 30.4331 91.7916 30.4331C92.9915 30.4331 94.0677 30.6681 95.0201 31.1382L94.1852 33.3276C93.7399 33.1483 93.3255 33.0029 92.942 32.8916C92.5586 32.7741 92.1751 32.7153 91.7916 32.7153C90.3196 32.7153 89.5836 33.7606 89.5836 35.8511C89.5836 37.8797 90.3196 38.894 91.7916 38.894C92.3359 38.894 92.84 38.8229 93.3038 38.6807C93.7677 38.5322 94.2316 38.3034 94.6954 37.9941V40.4155C94.2378 40.7062 93.7739 40.9072 93.3038 41.0186C92.84 41.1299 92.2524 41.1855 91.5411 41.1855ZM99.3619 35.7954C99.3619 36.8221 99.5289 37.5983 99.8629 38.124C100.203 38.6497 100.754 38.9126 101.514 38.9126C102.269 38.9126 102.81 38.6528 103.138 38.1333C103.472 37.6076 103.639 36.8283 103.639 35.7954C103.639 34.7687 103.472 33.9987 103.138 33.4854C102.804 32.972 102.256 32.7153 101.496 32.7153C100.741 32.7153 100.197 32.972 99.8629 33.4854C99.5289 33.9925 99.3619 34.7625 99.3619 35.7954ZM106.533 35.7954C106.533 37.4839 106.088 38.8044 105.197 39.7568C104.307 40.7093 103.067 41.1855 101.477 41.1855C100.481 41.1855 99.6031 40.9691 98.8424 40.5361C98.0817 40.097 97.4972 39.4692 97.089 38.6528C96.6808 37.8364 96.4767 36.884 96.4767 35.7954C96.4767 34.1007 96.9189 32.7834 97.8033 31.8433C98.6878 30.9032 99.9309 30.4331 101.533 30.4331C102.529 30.4331 103.407 30.6496 104.168 31.0825C104.928 31.5155 105.513 32.137 105.921 32.9473C106.329 33.7575 106.533 34.7069 106.533 35.7954Z"></path>
<path fill="white" d="M106.872 36.5098V34.1904H111.854V36.5098H106.872Z"></path>
<path fill="white" d="M120.793 41L120.246 39.5898H120.172C119.696 40.1898 119.204 40.6073 118.697 40.8423C118.196 41.0711 117.54 41.1855 116.73 41.1855C115.734 41.1855 114.949 40.901 114.373 40.332C113.804 39.763 113.52 38.9528 113.52 37.9014C113.52 36.8005 113.903 35.9902 114.67 35.4707C115.443 34.945 116.606 34.6543 118.159 34.5986L119.958 34.543V34.0884C119.958 33.0369 119.42 32.5112 118.344 32.5112C117.515 32.5112 116.541 32.7617 115.422 33.2627L114.485 31.3516C115.678 30.7269 117.002 30.4146 118.455 30.4146C119.847 30.4146 120.914 30.7176 121.656 31.3237C122.398 31.9299 122.769 32.8514 122.769 34.0884V41H120.793ZM119.958 36.1943L118.864 36.2314C118.041 36.2562 117.429 36.4046 117.027 36.6768C116.625 36.9489 116.424 37.3633 116.424 37.9199C116.424 38.7178 116.881 39.1167 117.797 39.1167C118.452 39.1167 118.975 38.9281 119.365 38.5508C119.76 38.1735 119.958 37.6725 119.958 37.0479V36.1943ZM133.039 41L132.659 39.6733H132.511C132.208 40.1558 131.778 40.5299 131.221 40.7959C130.664 41.0557 130.03 41.1855 129.319 41.1855C128.101 41.1855 127.182 40.8608 126.564 40.2114C125.945 39.5558 125.636 38.6157 125.636 37.3911V30.6279H128.466V36.686C128.466 37.4344 128.599 37.9972 128.865 38.3745C129.131 38.7456 129.554 38.9312 130.136 38.9312C130.927 38.9312 131.499 38.6683 131.852 38.1426C132.204 37.6107 132.381 36.7324 132.381 35.5078V30.6279H135.21V41H133.039ZM142.549 38.9312C143.043 38.9312 143.637 38.8229 144.33 38.6064V40.7124C143.625 41.0278 142.759 41.1855 141.732 41.1855C140.6 41.1855 139.775 40.901 139.255 40.332C138.742 39.7568 138.485 38.8971 138.485 37.7529V32.7524H137.131V31.5557L138.689 30.6094L139.506 28.4199H141.315V30.6279H144.219V32.7524H141.315V37.7529C141.315 38.1549 141.426 38.4518 141.649 38.6436C141.878 38.8353 142.178 38.9312 142.549 38.9312ZM156.01 41H153.181V34.9419C153.181 33.4451 152.624 32.6968 151.511 32.6968C150.719 32.6968 150.147 32.9658 149.794 33.5039C149.442 34.042 149.266 34.9141 149.266 36.1201V41H146.436V26.5645H149.266V29.5054C149.266 29.7342 149.244 30.2723 149.201 31.1196L149.136 31.9546H149.284C149.915 30.9403 150.917 30.4331 152.29 30.4331C153.508 30.4331 154.433 30.7609 155.064 31.4165C155.695 32.0721 156.01 33.0122 156.01 34.2368V41ZM161.178 35.7954C161.178 36.8221 161.345 37.5983 161.679 38.124C162.019 38.6497 162.569 38.9126 163.33 38.9126C164.085 38.9126 164.626 38.6528 164.953 38.1333C165.287 37.6076 165.454 36.8283 165.454 35.7954C165.454 34.7687 165.287 33.9987 164.953 33.4854C164.62 32.972 164.072 32.7153 163.311 32.7153C162.557 32.7153 162.013 32.972 161.679 33.4854C161.345 33.9925 161.178 34.7625 161.178 35.7954ZM168.349 35.7954C168.349 37.4839 167.904 38.8044 167.013 39.7568C166.122 40.7093 164.882 41.1855 163.293 41.1855C162.297 41.1855 161.419 40.9691 160.658 40.5361C159.897 40.097 159.313 39.4692 158.905 38.6528C158.496 37.8364 158.292 36.884 158.292 35.7954C158.292 34.1007 158.735 32.7834 159.619 31.8433C160.503 30.9032 161.747 30.4331 163.349 30.4331C164.344 30.4331 165.223 30.6496 165.983 31.0825C166.744 31.5155 167.328 32.137 167.737 32.9473C168.145 33.7575 168.349 34.7069 168.349 35.7954ZM176.476 30.4331C176.859 30.4331 177.178 30.4609 177.432 30.5166L177.218 33.1699C176.989 33.1081 176.711 33.0771 176.383 33.0771C175.48 33.0771 174.775 33.3091 174.268 33.7729C173.767 34.2368 173.516 34.8862 173.516 35.7212V41H170.687V30.6279H172.83L173.247 32.3721H173.387C173.708 31.7907 174.141 31.3237 174.685 30.9712C175.236 30.6125 175.833 30.4331 176.476 30.4331Z"></path>
<path fill="white" d="M24.3268 63H21.4972V56.9419C21.4972 56.1935 21.3704 55.6338 21.1168 55.2627C20.8694 54.8854 20.4767 54.6968 19.9386 54.6968C19.215 54.6968 18.6892 54.9627 18.3615 55.4946C18.0337 56.0265 17.8698 56.9017 17.8698 58.1201V63H15.0402V52.6279H17.2018L17.5822 53.9546H17.7399C18.0182 53.4784 18.4202 53.1073 18.9459 52.8413C19.4716 52.5692 20.0747 52.4331 20.755 52.4331C22.3074 52.4331 23.3588 52.9403 23.9093 53.9546H24.1598C24.4381 53.4722 24.8463 53.098 25.3844 52.832C25.9287 52.5661 26.541 52.4331 27.2213 52.4331C28.3964 52.4331 29.284 52.7362 29.8839 53.3423C30.49 53.9422 30.7931 54.9071 30.7931 56.2368V63H27.9542V56.9419C27.9542 56.1935 27.8274 55.6338 27.5739 55.2627C27.3265 54.8854 26.9337 54.6968 26.3956 54.6968C25.7029 54.6968 25.1834 54.9442 24.837 55.439C24.4969 55.9338 24.3268 56.7192 24.3268 57.7954V63ZM35.9606 57.7954C35.9606 58.8221 36.1276 59.5983 36.4615 60.124C36.8017 60.6497 37.3522 60.9126 38.1129 60.9126C38.8675 60.9126 39.4087 60.6528 39.7365 60.1333C40.0704 59.6076 40.2374 58.8283 40.2374 57.7954C40.2374 56.7687 40.0704 55.9987 39.7365 55.4854C39.4025 54.972 38.8551 54.7153 38.0944 54.7153C37.3398 54.7153 36.7955 54.972 36.4615 55.4854C36.1276 55.9925 35.9606 56.7625 35.9606 57.7954ZM43.132 57.7954C43.132 59.4839 42.6866 60.8044 41.796 61.7568C40.9054 62.7093 39.6653 63.1855 38.0758 63.1855C37.08 63.1855 36.2018 62.9691 35.441 62.5361C34.6803 62.097 34.0958 61.4692 33.6876 60.6528C33.2794 59.8364 33.0753 58.884 33.0753 57.7954C33.0753 56.1007 33.5175 54.7834 34.402 53.8433C35.2864 52.9032 36.5296 52.4331 38.1315 52.4331C39.1272 52.4331 40.0055 52.6496 40.7662 53.0825C41.527 53.5155 42.1115 54.137 42.5197 54.9473C42.9279 55.7575 43.132 56.7069 43.132 57.7954ZM48.754 63.1855C47.5356 63.1855 46.5769 62.7124 45.8781 61.7661C45.1853 60.8198 44.839 59.5086 44.839 57.8325C44.839 56.1317 45.1915 54.8081 45.8966 53.8618C46.6079 52.9093 47.5851 52.4331 48.8282 52.4331C50.1333 52.4331 51.129 52.9403 51.8156 53.9546H51.9083C51.7661 53.1815 51.6949 52.4919 51.6949 51.8857V48.5645H54.5338V63H52.3629L51.8156 61.6548H51.6949C51.0517 62.6753 50.0714 63.1855 48.754 63.1855ZM49.7467 60.9312C50.4703 60.9312 50.9991 60.7209 51.3331 60.3003C51.6733 59.8797 51.8588 59.1654 51.8898 58.1572V57.8511C51.8898 56.7378 51.7166 55.9399 51.3702 55.4575C51.0301 54.9751 50.4734 54.7339 49.7003 54.7339C49.0695 54.7339 48.5778 55.0029 48.2252 55.541C47.8789 56.0729 47.7057 56.8491 47.7057 57.8696C47.7057 58.8901 47.882 59.6571 48.2345 60.1704C48.587 60.6776 49.0911 60.9312 49.7467 60.9312ZM64.8409 63L64.4606 61.6733H64.3121C64.0091 62.1558 63.5792 62.5299 63.0226 62.7959C62.4659 63.0557 61.832 63.1855 61.1207 63.1855C59.9023 63.1855 58.9838 62.8608 58.3654 62.2114C57.7469 61.5558 57.4376 60.6157 57.4376 59.3911V52.6279H60.2672V58.686C60.2672 59.4344 60.4002 59.9972 60.6661 60.3745C60.9321 60.7456 61.3558 60.9312 61.9371 60.9312C62.7288 60.9312 63.3009 60.6683 63.6534 60.1426C64.006 59.6107 64.1823 58.7324 64.1823 57.5078V52.6279H67.0118V63H64.8409ZM72.8102 63H69.9806V48.5645H72.8102V63ZM80.0836 54.4463C79.4837 54.4463 79.0136 54.638 78.6735 55.0215C78.3333 55.3988 78.1385 55.9368 78.089 56.6357H82.0597C82.0473 55.9368 81.8649 55.3988 81.5123 55.0215C81.1598 54.638 80.6836 54.4463 80.0836 54.4463ZM80.4825 63.1855C78.8126 63.1855 77.5076 62.7248 76.5675 61.8032C75.6274 60.8817 75.1573 59.5767 75.1573 57.8882C75.1573 56.1502 75.5903 54.8081 76.4562 53.8618C77.3282 52.9093 78.5312 52.4331 80.0651 52.4331C81.5309 52.4331 82.672 52.8506 83.4884 53.6855C84.3048 54.5205 84.713 55.674 84.713 57.146V58.519H78.024C78.055 59.3231 78.2931 59.9508 78.7384 60.4023C79.1837 60.8538 79.8084 61.0796 80.6124 61.0796C81.2371 61.0796 81.8278 61.0146 82.3844 60.8848C82.941 60.7549 83.5224 60.5477 84.1285 60.2632V62.4526C83.6337 62.7 83.1049 62.8825 82.5421 63C81.9793 63.1237 81.2928 63.1855 80.4825 63.1855ZM94.2501 59.9199C94.2501 60.9837 93.879 61.7939 93.1368 62.3506C92.4008 62.9072 91.2968 63.1855 89.8248 63.1855C89.0703 63.1855 88.427 63.133 87.8951 63.0278C87.3632 62.9289 86.8654 62.7804 86.4015 62.5825V60.2446C86.9272 60.492 87.5179 60.6992 88.1735 60.8662C88.8352 61.0332 89.4166 61.1167 89.9176 61.1167C90.9443 61.1167 91.4576 60.8198 91.4576 60.2261C91.4576 60.0034 91.3896 59.8241 91.2535 59.688C91.1175 59.5457 90.8824 59.388 90.5485 59.2148C90.2145 59.0355 89.7692 58.8283 89.2125 58.5933C88.4147 58.2593 87.8271 57.95 87.4498 57.6655C87.0787 57.381 86.8066 57.0563 86.6334 56.6914C86.4664 56.3203 86.3829 55.8657 86.3829 55.3276C86.3829 54.4061 86.7386 53.6948 87.4498 53.1938C88.1673 52.6867 89.1816 52.4331 90.4928 52.4331C91.7421 52.4331 92.9575 52.7052 94.1388 53.2495L93.2853 55.2905C92.7657 55.0679 92.2802 54.8854 91.8287 54.7432C91.3772 54.6009 90.9165 54.5298 90.4464 54.5298C89.6115 54.5298 89.194 54.7555 89.194 55.207C89.194 55.4606 89.3269 55.6802 89.5929 55.8657C89.865 56.0513 90.4557 56.3265 91.3649 56.6914C92.1751 57.0192 92.7688 57.3254 93.1461 57.6099C93.5234 57.8944 93.8017 58.2222 93.9811 58.5933C94.1604 58.9644 94.2501 59.4066 94.2501 59.9199ZM109.92 63L109.122 59.3726L108.064 54.7896H107.981L106.088 63H103.045L100.095 52.6279H102.915L104.112 57.2202C104.248 57.7645 104.437 58.8994 104.678 60.625H104.752C104.777 60.1549 104.885 59.4097 105.077 58.3892L105.225 57.6006L106.505 52.6279H109.623L110.838 57.6006C110.912 57.9408 111.002 58.4417 111.107 59.1035C111.218 59.7591 111.28 60.2663 111.293 60.625H111.367C111.435 60.0745 111.531 59.4499 111.654 58.751C111.778 58.0459 111.883 57.5356 111.97 57.2202L113.213 52.6279H115.987L113 63H109.92ZM117.546 49.9468C117.546 49.0252 118.059 48.5645 119.086 48.5645C120.112 48.5645 120.626 49.0252 120.626 49.9468C120.626 50.3859 120.496 50.7292 120.236 50.9766C119.982 51.2178 119.599 51.3384 119.086 51.3384C118.059 51.3384 117.546 50.8745 117.546 49.9468ZM120.496 63H117.666V52.6279H120.496V63ZM127.843 60.9312C128.338 60.9312 128.932 60.8229 129.625 60.6064V62.7124C128.92 63.0278 128.054 63.1855 127.027 63.1855C125.895 63.1855 125.069 62.901 124.55 62.332C124.037 61.7568 123.78 60.8971 123.78 59.7529V54.7524H122.425V53.5557L123.984 52.6094L124.8 50.4199H126.609V52.6279H129.513V54.7524H126.609V59.7529C126.609 60.1549 126.721 60.4518 126.943 60.6436C127.172 60.8353 127.472 60.9312 127.843 60.9312ZM141.305 63H138.475V56.9419C138.475 55.4451 137.919 54.6968 136.805 54.6968C136.014 54.6968 135.442 54.9658 135.089 55.5039C134.736 56.042 134.56 56.9141 134.56 58.1201V63H131.731V48.5645H134.56V51.5054C134.56 51.7342 134.539 52.2723 134.495 53.1196L134.43 53.9546H134.579C135.21 52.9403 136.212 52.4331 137.585 52.4331C138.803 52.4331 139.728 52.7609 140.359 53.4165C140.989 54.0721 141.305 55.0122 141.305 56.2368V63ZM153.523 60.9312C154.018 60.9312 154.612 60.8229 155.304 60.6064V62.7124C154.599 63.0278 153.733 63.1855 152.707 63.1855C151.575 63.1855 150.749 62.901 150.23 62.332C149.716 61.7568 149.46 60.8971 149.46 59.7529V54.7524H148.105V53.5557L149.664 52.6094L150.48 50.4199H152.289V52.6279H155.193V54.7524H152.289V59.7529C152.289 60.1549 152.401 60.4518 152.623 60.6436C152.852 60.8353 153.152 60.9312 153.523 60.9312ZM161.706 54.4463C161.106 54.4463 160.636 54.638 160.296 55.0215C159.955 55.3988 159.761 55.9368 159.711 56.6357H163.682C163.669 55.9368 163.487 55.3988 163.134 55.0215C162.782 54.638 162.306 54.4463 161.706 54.4463ZM162.105 63.1855C160.435 63.1855 159.13 62.7248 158.19 61.8032C157.249 60.8817 156.779 59.5767 156.779 57.8882C156.779 56.1502 157.212 54.8081 158.078 53.8618C158.95 52.9093 160.153 52.4331 161.687 52.4331C163.153 52.4331 164.294 52.8506 165.11 53.6855C165.927 54.5205 166.335 55.674 166.335 57.146V58.519H159.646C159.677 59.3231 159.915 59.9508 160.36 60.4023C160.806 60.8538 161.43 61.0796 162.234 61.0796C162.859 61.0796 163.45 61.0146 164.006 60.8848C164.563 60.7549 165.144 60.5477 165.751 60.2632V62.4526C165.256 62.7 164.727 62.8825 164.164 63C163.601 63.1237 162.915 63.1855 162.105 63.1855ZM175.223 63L174.675 61.5898H174.601C174.125 62.1898 173.633 62.6073 173.126 62.8423C172.625 63.0711 171.97 63.1855 171.159 63.1855C170.164 63.1855 169.378 62.901 168.803 62.332C168.234 61.763 167.949 60.9528 167.949 59.9014C167.949 58.8005 168.333 57.9902 169.1 57.4707C169.873 56.945 171.036 56.6543 172.588 56.5986L174.388 56.543V56.0884C174.388 55.0369 173.85 54.5112 172.774 54.5112C171.945 54.5112 170.971 54.7617 169.851 55.2627L168.914 53.3516C170.108 52.7269 171.431 52.4146 172.885 52.4146C174.276 52.4146 175.343 52.7176 176.086 53.3237C176.828 53.9299 177.199 54.8514 177.199 56.0884V63H175.223ZM174.388 58.1943L173.293 58.2314C172.47 58.2562 171.858 58.4046 171.456 58.6768C171.054 58.9489 170.853 59.3633 170.853 59.9199C170.853 60.7178 171.311 61.1167 172.226 61.1167C172.882 61.1167 173.404 60.9281 173.794 60.5508C174.19 60.1735 174.388 59.6725 174.388 59.0479V58.1943ZM184.333 63.1855C181.105 63.1855 179.49 61.4136 179.49 57.8696C179.49 56.1069 179.929 54.7617 180.808 53.834C181.686 52.9001 182.945 52.4331 184.584 52.4331C185.783 52.4331 186.86 52.6681 187.812 53.1382L186.977 55.3276C186.532 55.1483 186.117 55.0029 185.734 54.8916C185.351 54.7741 184.967 54.7153 184.584 54.7153C183.112 54.7153 182.376 55.7606 182.376 57.8511C182.376 59.8797 183.112 60.894 184.584 60.894C185.128 60.894 185.632 60.8229 186.096 60.6807C186.56 60.5322 187.024 60.3034 187.487 59.9941V62.4155C187.03 62.7062 186.566 62.9072 186.096 63.0186C185.632 63.1299 185.044 63.1855 184.333 63.1855ZM199.474 63H196.644V56.9419C196.644 55.4451 196.088 54.6968 194.974 54.6968C194.183 54.6968 193.61 54.9658 193.258 55.5039C192.905 56.042 192.729 56.9141 192.729 58.1201V63H189.9V48.5645H192.729V51.5054C192.729 51.7342 192.707 52.2723 192.664 53.1196L192.599 53.9546H192.748C193.379 52.9403 194.38 52.4331 195.754 52.4331C196.972 52.4331 197.897 52.7609 198.527 53.4165C199.158 54.0721 199.474 55.0122 199.474 56.2368V63ZM206.682 54.4463C206.082 54.4463 205.612 54.638 205.272 55.0215C204.932 55.3988 204.737 55.9368 204.688 56.6357H208.658C208.646 55.9368 208.464 55.3988 208.111 55.0215C207.758 54.638 207.282 54.4463 206.682 54.4463ZM207.081 63.1855C205.411 63.1855 204.106 62.7248 203.166 61.8032C202.226 60.8817 201.756 59.5767 201.756 57.8882C201.756 56.1502 202.189 54.8081 203.055 53.8618C203.927 52.9093 205.13 52.4331 206.664 52.4331C208.13 52.4331 209.271 52.8506 210.087 53.6855C210.903 54.5205 211.312 55.674 211.312 57.146V58.519H204.623C204.654 59.3231 204.892 59.9508 205.337 60.4023C205.782 60.8538 206.407 61.0796 207.211 61.0796C207.836 61.0796 208.426 61.0146 208.983 60.8848C209.54 60.7549 210.121 60.5477 210.727 60.2632V62.4526C210.232 62.7 209.704 62.8825 209.141 63C208.578 63.1237 207.891 63.1855 207.081 63.1855ZM219.401 52.4331C219.785 52.4331 220.103 52.4609 220.357 52.5166L220.144 55.1699C219.915 55.1081 219.637 55.0771 219.309 55.0771C218.406 55.0771 217.701 55.3091 217.193 55.7729C216.693 56.2368 216.442 56.8862 216.442 57.7212V63H213.612V52.6279H215.755L216.173 54.3721H216.312C216.634 53.7907 217.067 53.3237 217.611 52.9712C218.161 52.6125 218.758 52.4331 219.401 52.4331ZM229.477 59.9199C229.477 60.9837 229.106 61.7939 228.363 62.3506C227.627 62.9072 226.523 63.1855 225.051 63.1855C224.297 63.1855 223.654 63.133 223.122 63.0278C222.59 62.9289 222.092 62.7804 221.628 62.5825V60.2446C222.154 60.492 222.744 60.6992 223.4 60.8662C224.062 61.0332 224.643 61.1167 225.144 61.1167C226.171 61.1167 226.684 60.8198 226.684 60.2261C226.684 60.0034 226.616 59.8241 226.48 59.688C226.344 59.5457 226.109 59.388 225.775 59.2148C225.441 59.0355 224.996 58.8283 224.439 58.5933C223.641 58.2593 223.054 57.95 222.676 57.6655C222.305 57.381 222.033 57.0563 221.86 56.6914C221.693 56.3203 221.609 55.8657 221.609 55.3276C221.609 54.4061 221.965 53.6948 222.676 53.1938C223.394 52.6867 224.408 52.4331 225.719 52.4331C226.969 52.4331 228.184 52.7052 229.365 53.2495L228.512 55.2905C227.992 55.0679 227.507 54.8854 227.055 54.7432C226.604 54.6009 226.143 54.5298 225.673 54.5298C224.838 54.5298 224.421 54.7555 224.421 55.207C224.421 55.4606 224.554 55.6802 224.819 55.8657C225.092 56.0513 225.682 56.3265 226.591 56.6914C227.402 57.0192 227.995 57.3254 228.373 57.6099C228.75 57.8944 229.028 58.2222 229.208 58.5933C229.387 58.9644 229.477 59.4066 229.477 59.9199ZM233.596 58.5005V57.814C233.596 57.4985 233.627 57.214 233.689 56.9604C233.757 56.7007 233.856 56.4564 233.985 56.2275C234.122 55.9925 234.295 55.7668 234.505 55.5503C234.715 55.3276 234.969 55.0988 235.266 54.8638C235.526 54.6597 235.745 54.4772 235.924 54.3164C236.104 54.1556 236.249 53.9979 236.36 53.8433C236.472 53.6825 236.552 53.5155 236.602 53.3423C236.651 53.1691 236.676 52.9681 236.676 52.7393C236.676 52.3867 236.555 52.096 236.314 51.8672C236.079 51.6383 235.717 51.5239 235.229 51.5239C234.802 51.5239 234.341 51.6136 233.846 51.793C233.358 51.9723 232.851 52.1919 232.325 52.4517L231.379 50.4014C231.644 50.2467 231.932 50.1014 232.241 49.9653C232.557 49.8231 232.881 49.6994 233.215 49.5942C233.556 49.4829 233.899 49.3963 234.245 49.3345C234.592 49.2726 234.932 49.2417 235.266 49.2417C235.897 49.2417 236.466 49.319 236.973 49.4736C237.48 49.6221 237.91 49.8416 238.262 50.1323C238.615 50.423 238.884 50.7756 239.069 51.1899C239.261 51.6043 239.357 52.0775 239.357 52.6094C239.357 52.999 239.314 53.3485 239.227 53.6577C239.141 53.9608 239.011 54.2453 238.838 54.5112C238.671 54.771 238.457 55.0246 238.197 55.272C237.944 55.5132 237.647 55.7699 237.307 56.042C237.047 56.2461 236.834 56.4255 236.667 56.5801C236.506 56.7285 236.379 56.8708 236.286 57.0068C236.193 57.1429 236.129 57.2852 236.091 57.4336C236.061 57.5758 236.045 57.7459 236.045 57.9438V58.5005H233.596ZM233.29 61.6733C233.29 61.3826 233.33 61.1383 233.41 60.9404C233.497 60.7363 233.614 60.5724 233.763 60.4487C233.911 60.325 234.084 60.2354 234.282 60.1797C234.486 60.124 234.703 60.0962 234.932 60.0962C235.148 60.0962 235.352 60.124 235.544 60.1797C235.742 60.2354 235.915 60.325 236.064 60.4487C236.212 60.5724 236.33 60.7363 236.416 60.9404C236.503 61.1383 236.546 61.3826 236.546 61.6733C236.546 61.9517 236.503 62.1898 236.416 62.3877C236.33 62.5856 236.212 62.7495 236.064 62.8794C235.915 63.0093 235.742 63.1021 235.544 63.1577C235.352 63.2196 235.148 63.2505 234.932 63.2505C234.703 63.2505 234.486 63.2196 234.282 63.1577C234.084 63.1021 233.911 63.0093 233.763 62.8794C233.614 62.7495 233.497 62.5856 233.41 62.3877C233.33 62.1898 233.29 61.9517 233.29 61.6733Z"></path>
<path stroke-linejoin="round" stroke-miterlimit="10" stroke="#0B233F" fill="#F3F5F8" d="M318.5 15.167C318.5 7.06699 325.067 0.5 333.167 0.5H545.833C553.933 0.5 560.5 7.06699 560.5 15.167V73.833C560.5 81.933 553.933 88.5 545.833 88.5H333.167C325.067 88.5 318.5 81.933 318.5 73.833V15.167Z" clip-rule="evenodd" fill-rule="evenodd"></path>
<path fill="#0B233F" d="M341.416 48.3726C341.416 49.5539 340.989 50.4847 340.136 51.165C339.282 51.8454 338.095 52.1855 336.573 52.1855C334.965 52.1855 333.722 51.9722 332.844 51.5454V49.9126C333.419 50.16 334.047 50.3548 334.727 50.4971C335.414 50.6393 336.054 50.7104 336.648 50.7104C337.662 50.7104 338.426 50.5156 338.939 50.126C339.452 49.7363 339.709 49.2013 339.709 48.521C339.709 48.0695 339.616 47.6984 339.431 47.4077C339.245 47.117 338.933 46.8449 338.494 46.5913C338.061 46.3377 337.402 46.0501 336.518 45.7285C335.262 45.2708 334.365 44.7327 333.827 44.1143C333.289 43.4896 333.02 42.6855 333.02 41.7021C333.02 40.6445 333.416 39.8034 334.208 39.1787C335.005 38.554 336.054 38.2417 337.353 38.2417C338.707 38.2417 339.953 38.4953 341.091 39.0024L340.563 40.4683C339.4 39.9858 338.318 39.7446 337.316 39.7446C336.512 39.7446 335.881 39.9178 335.423 40.2642C334.971 40.6105 334.746 41.096 334.746 41.7207C334.746 42.166 334.832 42.5371 335.005 42.834C335.185 43.1247 335.469 43.3906 335.859 43.6318C336.255 43.873 336.873 44.1483 337.714 44.4575C338.723 44.8286 339.474 45.1904 339.969 45.543C340.464 45.8893 340.829 46.2913 341.064 46.749C341.299 47.2005 341.416 47.7417 341.416 48.3726ZM350.86 52V45.4873C350.86 44.6585 350.675 44.0431 350.304 43.6411C349.939 43.2329 349.364 43.0288 348.578 43.0288C347.545 43.0288 346.788 43.3164 346.305 43.8916C345.829 44.4668 345.591 45.4162 345.591 46.7397V52H343.921V37.5645H345.591V41.7949C345.591 42.3516 345.56 42.8278 345.498 43.2236H345.609C345.913 42.7288 346.342 42.3423 346.899 42.064C347.456 41.7856 348.083 41.6465 348.782 41.6465C350.019 41.6465 350.95 41.9434 351.575 42.5371C352.2 43.1247 352.512 44.0679 352.512 45.3667V52H350.86ZM361.956 52L361.631 50.5527H361.557C361.05 51.1898 360.543 51.6227 360.036 51.8516C359.535 52.0742 358.901 52.1855 358.134 52.1855C357.132 52.1855 356.346 51.9227 355.777 51.397C355.208 50.8713 354.924 50.1291 354.924 49.1704C354.924 47.1047 356.554 46.0223 359.813 45.9233L361.539 45.8584V45.2554C361.539 44.4823 361.372 43.9132 361.038 43.5483C360.704 43.1772 360.169 42.9917 359.433 42.9917C358.895 42.9917 358.384 43.0721 357.902 43.2329C357.426 43.3937 356.977 43.5731 356.557 43.771L356.047 42.5186C356.56 42.2464 357.12 42.033 357.726 41.8784C358.332 41.7238 358.932 41.6465 359.526 41.6465C360.756 41.6465 361.672 41.9186 362.272 42.4629C362.872 43.0072 363.172 43.873 363.172 45.0605V52H361.956ZM358.514 50.8403C359.448 50.8403 360.181 50.5898 360.713 50.0889C361.251 49.5817 361.52 48.8643 361.52 47.9365V47.0181L360.017 47.083C358.848 47.1263 357.995 47.3118 357.457 47.6396C356.925 47.9674 356.659 48.4839 356.659 49.189C356.659 49.7209 356.82 50.1291 357.141 50.4136C357.469 50.6981 357.927 50.8403 358.514 50.8403ZM371.085 41.6279C371.537 41.6279 371.936 41.665 372.282 41.7393L372.078 43.2793C371.7 43.1927 371.332 43.1494 370.974 43.1494C370.436 43.1494 369.935 43.2979 369.471 43.5947C369.013 43.8916 368.654 44.3029 368.395 44.8286C368.135 45.3481 368.005 45.9264 368.005 46.5635V52H366.335V41.8135H367.708L367.894 43.6782H367.968C368.358 43.0041 368.818 42.4938 369.35 42.1475C369.882 41.8011 370.46 41.6279 371.085 41.6279ZM378.331 52.1855C376.803 52.1855 375.603 51.7248 374.731 50.8032C373.865 49.8755 373.432 48.6014 373.432 46.981C373.432 45.3481 373.837 44.0493 374.648 43.0845C375.458 42.1134 376.553 41.6279 377.932 41.6279C379.212 41.6279 380.233 42.0423 380.993 42.8711C381.754 43.6937 382.134 44.8101 382.134 46.2202V47.2314H375.158C375.189 48.388 375.483 49.2663 376.039 49.8662C376.596 50.4661 377.384 50.7661 378.405 50.7661C378.949 50.7661 379.466 50.7197 379.954 50.627C380.443 50.528 381.015 50.3394 381.671 50.061V51.5269C381.108 51.7681 380.579 51.9382 380.084 52.0371C379.589 52.1361 379.005 52.1855 378.331 52.1855ZM377.913 42.9917C377.115 42.9917 376.484 43.2484 376.021 43.7617C375.557 44.2751 375.282 44.9894 375.195 45.9048H380.381C380.369 44.9523 380.149 44.2287 379.722 43.7339C379.296 43.2391 378.693 42.9917 377.913 42.9917ZM395.948 52L395.624 50.5527H395.549C395.042 51.1898 394.535 51.6227 394.028 51.8516C393.527 52.0742 392.893 52.1855 392.126 52.1855C391.124 52.1855 390.339 51.9227 389.77 51.397C389.201 50.8713 388.916 50.1291 388.916 49.1704C388.916 47.1047 390.546 46.0223 393.805 45.9233L395.531 45.8584V45.2554C395.531 44.4823 395.364 43.9132 395.03 43.5483C394.696 43.1772 394.161 42.9917 393.425 42.9917C392.887 42.9917 392.377 43.0721 391.894 43.2329C391.418 43.3937 390.97 43.5731 390.549 43.771L390.039 42.5186C390.552 42.2464 391.112 42.033 391.718 41.8784C392.324 41.7238 392.924 41.6465 393.518 41.6465C394.748 41.6465 395.664 41.9186 396.264 42.4629C396.864 43.0072 397.164 43.873 397.164 45.0605V52H395.948ZM392.506 50.8403C393.44 50.8403 394.173 50.5898 394.705 50.0889C395.243 49.5817 395.512 48.8643 395.512 47.9365V47.0181L394.009 47.083C392.84 47.1263 391.987 47.3118 391.449 47.6396C390.917 47.9674 390.651 48.4839 390.651 49.189C390.651 49.7209 390.812 50.1291 391.133 50.4136C391.461 50.6981 391.919 50.8403 392.506 50.8403ZM411.479 52L407.007 40.1064H406.933C407.026 41.096 407.072 42.3175 407.072 43.771V52H405.495V38.4365H408.018L412.202 49.5508H412.276L416.535 38.4365H419.04V52H417.351V43.6597C417.351 42.7319 417.394 41.5537 417.481 40.125H417.407L412.88 52H411.479ZM431.351 46.8882C431.351 48.5519 430.93 49.8507 430.089 50.7847C429.248 51.7186 428.085 52.1855 426.601 52.1855C425.679 52.1855 424.863 51.9722 424.151 51.5454C423.44 51.1125 422.893 50.494 422.509 49.6899C422.126 48.8859 421.934 47.952 421.934 46.8882C421.934 45.2306 422.349 43.9411 423.177 43.0195C424.006 42.0918 425.169 41.6279 426.666 41.6279C428.101 41.6279 429.239 42.1011 430.08 43.0474C430.927 43.9875 431.351 45.2677 431.351 46.8882ZM423.66 46.8882C423.66 48.1685 423.91 49.1426 424.411 49.8105C424.918 50.4723 425.664 50.8032 426.647 50.8032C427.618 50.8032 428.357 50.4723 428.864 49.8105C429.372 49.1426 429.625 48.1685 429.625 46.8882C429.625 45.6079 429.368 44.6462 428.855 44.0029C428.348 43.3535 427.603 43.0288 426.619 43.0288C424.646 43.0288 423.66 44.3153 423.66 46.8882ZM437.613 52.1855C436.289 52.1855 435.263 51.7279 434.533 50.8125C433.803 49.8971 433.438 48.6014 433.438 46.9253C433.438 45.2616 433.803 43.9627 434.533 43.0288C435.269 42.0949 436.302 41.6279 437.631 41.6279C438.998 41.6279 440.05 42.1289 440.786 43.1309H440.906C440.888 43.0072 440.863 42.7598 440.832 42.3887C440.801 42.0114 440.786 41.7578 440.786 41.6279V37.5645H442.456V52H441.11L440.86 50.6362H440.786C440.075 51.6691 439.017 52.1855 437.613 52.1855ZM437.882 50.8032C438.896 50.8032 439.635 50.528 440.099 49.9775C440.569 49.4209 440.804 48.5117 440.804 47.25V46.9438C440.804 45.5275 440.566 44.5194 440.09 43.9194C439.62 43.3133 438.878 43.0103 437.863 43.0103C437.004 43.0103 436.339 43.3535 435.869 44.04C435.399 44.7204 435.164 45.6945 435.164 46.9624C435.164 48.2241 435.396 49.1797 435.859 49.8291C436.33 50.4785 437.004 50.8032 437.882 50.8032ZM447.271 41.8135V48.3726C447.271 49.1951 447.453 49.8075 447.818 50.2095C448.189 50.6053 448.761 50.8032 449.534 50.8032C450.58 50.8032 451.34 50.5125 451.817 49.9312C452.293 49.3498 452.531 48.4128 452.531 47.1201V41.8135H454.21V52H452.837L452.596 50.6548H452.512C452.209 51.1434 451.779 51.5207 451.223 51.7866C450.666 52.0526 450.02 52.1855 449.284 52.1855C448.059 52.1855 447.135 51.8918 446.51 51.3042C445.891 50.7166 445.582 49.7765 445.582 48.4839V41.8135H447.271ZM459.109 52H457.439V37.5645H459.109V52ZM466.67 52.1855C465.142 52.1855 463.942 51.7248 463.07 50.8032C462.204 49.8755 461.771 48.6014 461.771 46.981C461.771 45.3481 462.176 44.0493 462.986 43.0845C463.797 42.1134 464.891 41.6279 466.271 41.6279C467.551 41.6279 468.571 42.0423 469.332 42.8711C470.093 43.6937 470.473 44.8101 470.473 46.2202V47.2314H463.497C463.528 48.388 463.821 49.2663 464.378 49.8662C464.935 50.4661 465.723 50.7661 466.744 50.7661C467.288 50.7661 467.804 50.7197 468.293 50.627C468.782 50.528 469.354 50.3394 470.009 50.061V51.5269C469.447 51.7681 468.918 51.9382 468.423 52.0371C467.928 52.1361 467.344 52.1855 466.67 52.1855ZM466.252 42.9917C465.454 42.9917 464.823 43.2484 464.359 43.7617C463.896 44.2751 463.62 44.9894 463.534 45.9048H468.72C468.707 44.9523 468.488 44.2287 468.061 43.7339C467.634 43.2391 467.031 42.9917 466.252 42.9917Z"></path>
<path fill="#E96969" d="M252 42.9995H284.862C285.414 42.9995 285.862 43.4475 285.862 43.9995V44.0625L284.862 43.0625H311.066V45.0625H284.862C284.31 45.0625 283.862 44.6145 283.862 44.0625V43.9995L284.862 44.9995H252V42.9995ZM309.732 40.0625L317.732 44.0625L309.732 48.0625V40.0625Z"></path>
<path stroke-linejoin="round" stroke-miterlimit="10" stroke="#0B233F" fill="#F3F5F8" d="M318.5 123.167C318.5 115.067 325.067 108.5 333.167 108.5H545.833C553.933 108.5 560.5 115.067 560.5 123.167V181.833C560.5 189.933 553.933 196.5 545.833 196.5H333.167C325.067 196.5 318.5 189.933 318.5 181.833V123.167Z" clip-rule="evenodd" fill-rule="evenodd"></path>
<path fill="#0B233F" d="M342.233 160L340.6 155.797H335.219L333.605 160H331.879L337.176 146.381H338.716L344.005 160H342.233ZM340.089 154.285L338.568 150.175L337.919 148.144C337.733 148.886 337.538 149.563 337.334 150.175L335.794 154.285H340.089ZM349.729 160.186C348.263 160.186 347.122 159.737 346.305 158.84C345.489 157.937 345.081 156.645 345.081 154.962C345.081 153.255 345.492 151.941 346.315 151.02C347.143 150.092 348.322 149.628 349.849 149.628C350.344 149.628 350.833 149.681 351.315 149.786C351.804 149.885 352.206 150.014 352.521 150.175L352.011 151.567C351.151 151.245 350.418 151.084 349.812 151.084C348.785 151.084 348.028 151.409 347.539 152.059C347.051 152.702 346.806 153.664 346.806 154.944C346.806 156.175 347.051 157.118 347.539 157.773C348.028 158.423 348.751 158.748 349.71 158.748C350.607 158.748 351.488 158.55 352.354 158.154V159.638C351.649 160.003 350.774 160.186 349.729 160.186ZM358.858 160.186C357.392 160.186 356.251 159.737 355.434 158.84C354.618 157.937 354.21 156.645 354.21 154.962C354.21 153.255 354.621 151.941 355.443 151.02C356.272 150.092 357.45 149.628 358.978 149.628C359.473 149.628 359.962 149.681 360.444 149.786C360.933 149.885 361.335 150.014 361.65 150.175L361.14 151.567C360.28 151.245 359.547 151.084 358.941 151.084C357.914 151.084 357.157 151.409 356.668 152.059C356.179 152.702 355.935 153.664 355.935 154.944C355.935 156.175 356.179 157.118 356.668 157.773C357.157 158.423 357.88 158.748 358.839 158.748C359.736 158.748 360.617 158.55 361.483 158.154V159.638C360.778 160.003 359.903 160.186 358.858 160.186ZM368.237 160.186C366.709 160.186 365.509 159.725 364.637 158.803C363.771 157.875 363.339 156.601 363.339 154.981C363.339 153.348 363.744 152.049 364.554 151.084C365.364 150.113 366.459 149.628 367.838 149.628C369.118 149.628 370.139 150.042 370.9 150.871C371.66 151.694 372.041 152.81 372.041 154.22V155.231H365.064C365.095 156.388 365.389 157.266 365.945 157.866C366.502 158.466 367.291 158.766 368.311 158.766C368.855 158.766 369.372 158.72 369.86 158.627C370.349 158.528 370.921 158.339 371.577 158.061V159.527C371.014 159.768 370.485 159.938 369.99 160.037C369.496 160.136 368.911 160.186 368.237 160.186ZM367.819 150.992C367.022 150.992 366.391 151.248 365.927 151.762C365.463 152.275 365.188 152.989 365.101 153.905H370.287C370.275 152.952 370.055 152.229 369.629 151.734C369.202 151.239 368.599 150.992 367.819 150.992ZM381.262 157.189C381.262 158.141 380.907 158.881 380.195 159.406C379.484 159.926 378.485 160.186 377.199 160.186C375.857 160.186 374.79 159.972 373.998 159.545V158.024C375.118 158.568 376.197 158.84 377.236 158.84C378.077 158.84 378.689 158.704 379.073 158.432C379.456 158.16 379.648 157.795 379.648 157.337C379.648 156.935 379.463 156.595 379.091 156.317C378.727 156.039 378.074 155.72 377.134 155.361C376.175 154.99 375.501 154.675 375.111 154.415C374.722 154.149 374.434 153.852 374.249 153.524C374.069 153.197 373.98 152.798 373.98 152.328C373.98 151.493 374.32 150.834 375 150.352C375.68 149.869 376.614 149.628 377.802 149.628C378.958 149.628 380.041 149.857 381.049 150.314L380.483 151.641C379.45 151.208 378.519 150.992 377.691 150.992C376.998 150.992 376.472 151.103 376.113 151.326C375.755 151.542 375.575 151.842 375.575 152.226C375.575 152.597 375.73 152.906 376.039 153.153C376.348 153.395 377.069 153.732 378.201 154.165C379.048 154.48 379.673 154.774 380.075 155.046C380.483 155.318 380.783 155.624 380.975 155.964C381.166 156.305 381.262 156.713 381.262 157.189ZM390.373 157.189C390.373 158.141 390.017 158.881 389.306 159.406C388.595 159.926 387.596 160.186 386.309 160.186C384.967 160.186 383.9 159.972 383.109 159.545V158.024C384.228 158.568 385.307 158.84 386.346 158.84C387.187 158.84 387.8 158.704 388.183 158.432C388.567 158.16 388.758 157.795 388.758 157.337C388.758 156.935 388.573 156.595 388.202 156.317C387.837 156.039 387.184 155.72 386.244 155.361C385.286 154.99 384.611 154.675 384.222 154.415C383.832 154.149 383.545 153.852 383.359 153.524C383.18 153.197 383.09 152.798 383.09 152.328C383.09 151.493 383.43 150.834 384.11 150.352C384.791 149.869 385.725 149.628 386.912 149.628C388.069 149.628 389.151 149.857 390.159 150.314L389.593 151.641C388.561 151.208 387.63 150.992 386.801 150.992C386.108 150.992 385.582 151.103 385.224 151.326C384.865 151.542 384.686 151.842 384.686 152.226C384.686 152.597 384.84 152.906 385.15 153.153C385.459 153.395 386.179 153.732 387.311 154.165C388.158 154.48 388.783 154.774 389.185 155.046C389.593 155.318 389.893 155.624 390.085 155.964C390.277 156.305 390.373 156.713 390.373 157.189ZM404.075 160L403.751 158.553H403.676C403.169 159.19 402.662 159.623 402.155 159.852C401.654 160.074 401.02 160.186 400.253 160.186C399.251 160.186 398.466 159.923 397.897 159.397C397.328 158.871 397.043 158.129 397.043 157.17C397.043 155.105 398.673 154.022 401.932 153.923L403.658 153.858V153.255C403.658 152.482 403.491 151.913 403.157 151.548C402.823 151.177 402.288 150.992 401.552 150.992C401.014 150.992 400.504 151.072 400.021 151.233C399.545 151.394 399.096 151.573 398.676 151.771L398.166 150.519C398.679 150.246 399.239 150.033 399.845 149.878C400.451 149.724 401.051 149.646 401.645 149.646C402.875 149.646 403.791 149.919 404.391 150.463C404.991 151.007 405.291 151.873 405.291 153.061V160H404.075ZM400.633 158.84C401.567 158.84 402.3 158.59 402.832 158.089C403.37 157.582 403.639 156.864 403.639 155.937V155.018L402.136 155.083C400.967 155.126 400.114 155.312 399.576 155.64C399.044 155.967 398.778 156.484 398.778 157.189C398.778 157.721 398.939 158.129 399.26 158.414C399.588 158.698 400.046 158.84 400.633 158.84ZM421.313 156.373C421.313 157.554 420.886 158.485 420.032 159.165C419.179 159.845 417.991 160.186 416.47 160.186C414.862 160.186 413.619 159.972 412.74 159.545V157.913C413.316 158.16 413.943 158.355 414.624 158.497C415.31 158.639 415.95 158.71 416.544 158.71C417.558 158.71 418.322 158.516 418.836 158.126C419.349 157.736 419.606 157.201 419.606 156.521C419.606 156.069 419.513 155.698 419.327 155.408C419.142 155.117 418.829 154.845 418.39 154.591C417.957 154.338 417.299 154.05 416.414 153.729C415.159 153.271 414.262 152.733 413.724 152.114C413.186 151.49 412.917 150.686 412.917 149.702C412.917 148.645 413.312 147.803 414.104 147.179C414.902 146.554 415.95 146.242 417.249 146.242C418.604 146.242 419.85 146.495 420.988 147.002L420.459 148.468C419.296 147.986 418.214 147.745 417.212 147.745C416.408 147.745 415.777 147.918 415.319 148.264C414.868 148.611 414.642 149.096 414.642 149.721C414.642 150.166 414.729 150.537 414.902 150.834C415.081 151.125 415.366 151.391 415.755 151.632C416.151 151.873 416.77 152.148 417.611 152.458C418.619 152.829 419.371 153.19 419.865 153.543C420.36 153.889 420.725 154.291 420.96 154.749C421.195 155.201 421.313 155.742 421.313 156.373ZM430.757 160V153.487C430.757 152.659 430.571 152.043 430.2 151.641C429.835 151.233 429.26 151.029 428.475 151.029C427.442 151.029 426.684 151.316 426.202 151.892C425.726 152.467 425.487 153.416 425.487 154.74V160H423.818V145.564H425.487V149.795C425.487 150.352 425.457 150.828 425.395 151.224H425.506C425.809 150.729 426.239 150.342 426.796 150.064C427.352 149.786 427.98 149.646 428.679 149.646C429.916 149.646 430.847 149.943 431.471 150.537C432.096 151.125 432.408 152.068 432.408 153.367V160H430.757ZM441.853 160L441.528 158.553H441.454C440.947 159.19 440.439 159.623 439.932 159.852C439.431 160.074 438.797 160.186 438.03 160.186C437.028 160.186 436.243 159.923 435.674 159.397C435.105 158.871 434.82 158.129 434.82 157.17C434.82 155.105 436.45 154.022 439.71 153.923L441.435 153.858V153.255C441.435 152.482 441.268 151.913 440.934 151.548C440.6 151.177 440.065 150.992 439.329 150.992C438.791 150.992 438.281 151.072 437.798 151.233C437.322 151.394 436.874 151.573 436.453 151.771L435.943 150.519C436.456 150.246 437.016 150.033 437.622 149.878C438.228 149.724 438.828 149.646 439.422 149.646C440.653 149.646 441.568 149.919 442.168 150.463C442.768 151.007 443.068 151.873 443.068 153.061V160H441.853ZM438.411 158.84C439.345 158.84 440.078 158.59 440.609 158.089C441.148 157.582 441.417 156.864 441.417 155.937V155.018L439.914 155.083C438.745 155.126 437.891 155.312 437.353 155.64C436.821 155.967 436.555 156.484 436.555 157.189C436.555 157.721 436.716 158.129 437.038 158.414C437.366 158.698 437.823 158.84 438.411 158.84ZM450.982 149.628C451.433 149.628 451.832 149.665 452.178 149.739L451.974 151.279C451.597 151.193 451.229 151.149 450.87 151.149C450.332 151.149 449.831 151.298 449.367 151.595C448.91 151.892 448.551 152.303 448.291 152.829C448.031 153.348 447.901 153.926 447.901 154.563V160H446.232V149.813H447.605L447.79 151.678H447.864C448.254 151.004 448.715 150.494 449.247 150.147C449.779 149.801 450.357 149.628 450.982 149.628ZM458.227 160.186C456.7 160.186 455.5 159.725 454.628 158.803C453.762 157.875 453.329 156.601 453.329 154.981C453.329 153.348 453.734 152.049 454.544 151.084C455.354 150.113 456.449 149.628 457.828 149.628C459.109 149.628 460.129 150.042 460.89 150.871C461.651 151.694 462.031 152.81 462.031 154.22V155.231H455.054C455.085 156.388 455.379 157.266 455.936 157.866C456.492 158.466 457.281 158.766 458.301 158.766C458.846 158.766 459.362 158.72 459.851 158.627C460.339 158.528 460.911 158.339 461.567 158.061V159.527C461.004 159.768 460.475 159.938 459.981 160.037C459.486 160.136 458.901 160.186 458.227 160.186ZM457.81 150.992C457.012 150.992 456.381 151.248 455.917 151.762C455.453 152.275 455.178 152.989 455.091 153.905H460.277C460.265 152.952 460.046 152.229 459.619 151.734C459.192 151.239 458.589 150.992 457.81 150.992ZM468.228 160.186C466.905 160.186 465.878 159.728 465.148 158.812C464.418 157.897 464.053 156.601 464.053 154.925C464.053 153.262 464.418 151.963 465.148 151.029C465.884 150.095 466.917 149.628 468.247 149.628C469.614 149.628 470.665 150.129 471.401 151.131H471.522C471.503 151.007 471.478 150.76 471.447 150.389C471.416 150.011 471.401 149.758 471.401 149.628V145.564H473.071V160H471.726L471.475 158.636H471.401C470.69 159.669 469.632 160.186 468.228 160.186ZM468.497 158.803C469.512 158.803 470.251 158.528 470.714 157.978C471.185 157.421 471.42 156.512 471.42 155.25V154.944C471.42 153.528 471.181 152.519 470.705 151.919C470.235 151.313 469.493 151.01 468.479 151.01C467.619 151.01 466.954 151.354 466.484 152.04C466.014 152.72 465.779 153.694 465.779 154.962C465.779 156.224 466.011 157.18 466.475 157.829C466.945 158.479 467.619 158.803 468.497 158.803ZM487.46 160L482.988 148.106H482.914C483.007 149.096 483.053 150.318 483.053 151.771V160H481.476V146.437H484L488.184 157.551H488.258L492.516 146.437H495.021V160H493.333V151.66C493.333 150.732 493.376 149.554 493.463 148.125H493.388L488.861 160H487.46ZM507.332 154.888C507.332 156.552 506.912 157.851 506.07 158.785C505.229 159.719 504.067 160.186 502.582 160.186C501.661 160.186 500.844 159.972 500.133 159.545C499.422 159.112 498.874 158.494 498.491 157.69C498.107 156.886 497.916 155.952 497.916 154.888C497.916 153.231 498.33 151.941 499.159 151.02C499.988 150.092 501.15 149.628 502.647 149.628C504.082 149.628 505.22 150.101 506.061 151.047C506.908 151.987 507.332 153.268 507.332 154.888ZM499.641 154.888C499.641 156.168 499.892 157.143 500.393 157.811C500.9 158.472 501.645 158.803 502.629 158.803C503.6 158.803 504.339 158.472 504.846 157.811C505.353 157.143 505.607 156.168 505.607 154.888C505.607 153.608 505.35 152.646 504.837 152.003C504.329 151.354 503.584 151.029 502.601 151.029C500.628 151.029 499.641 152.315 499.641 154.888ZM513.594 160.186C512.271 160.186 511.244 159.728 510.514 158.812C509.784 157.897 509.42 156.601 509.42 154.925C509.42 153.262 509.784 151.963 510.514 151.029C511.25 150.095 512.283 149.628 513.613 149.628C514.98 149.628 516.031 150.129 516.767 151.131H516.888C516.869 151.007 516.845 150.76 516.814 150.389C516.783 150.011 516.767 149.758 516.767 149.628V145.564H518.437V160H517.092L516.841 158.636H516.767C516.056 159.669 514.998 160.186 513.594 160.186ZM513.863 158.803C514.878 158.803 515.617 158.528 516.081 157.978C516.551 157.421 516.786 156.512 516.786 155.25V154.944C516.786 153.528 516.548 152.519 516.071 151.919C515.601 151.313 514.859 151.01 513.845 151.01C512.985 151.01 512.32 151.354 511.85 152.04C511.38 152.72 511.145 153.694 511.145 154.962C511.145 156.224 511.377 157.18 511.841 157.829C512.311 158.479 512.985 158.803 513.863 158.803ZM523.252 149.813V156.373C523.252 157.195 523.435 157.807 523.799 158.209C524.171 158.605 524.743 158.803 525.516 158.803C526.561 158.803 527.322 158.513 527.798 157.931C528.274 157.35 528.512 156.413 528.512 155.12V149.813H530.192V160H528.818L528.577 158.655H528.494C528.191 159.143 527.761 159.521 527.204 159.787C526.648 160.053 526.001 160.186 525.265 160.186C524.041 160.186 523.116 159.892 522.491 159.304C521.873 158.717 521.564 157.777 521.564 156.484V149.813H523.252ZM535.09 160H533.42V145.564H535.09V160ZM542.651 160.186C541.123 160.186 539.923 159.725 539.051 158.803C538.186 157.875 537.753 156.601 537.753 154.981C537.753 153.348 538.158 152.049 538.968 151.084C539.778 150.113 540.873 149.628 542.252 149.628C543.532 149.628 544.553 150.042 545.314 150.871C546.074 151.694 546.455 152.81 546.455 154.22V155.231H539.478C539.509 156.388 539.803 157.266 540.359 157.866C540.916 158.466 541.705 158.766 542.725 158.766C543.269 158.766 543.786 158.72 544.275 158.627C544.763 158.528 545.335 158.339 545.991 158.061V159.527C545.428 159.768 544.899 159.938 544.404 160.037C543.91 160.136 543.325 160.186 542.651 160.186ZM542.234 150.992C541.436 150.992 540.805 151.248 540.341 151.762C539.877 152.275 539.602 152.989 539.515 153.905H544.701C544.689 152.952 544.469 152.229 544.043 151.734C543.616 151.239 543.013 150.992 542.234 150.992Z"></path>
<path fill="#E96969" d="M252 43H284.862C285.415 43 285.862 43.448 285.862 44V152.126L284.862 151.126H311.066V153.126H284.862C284.31 153.126 283.862 152.678 283.862 152.126V44L284.862 45H252V43ZM309.732 148.126L317.732 152.126L309.732 156.126V148.126Z"></path>
</svg>
