<svg xmlns="http://www.w3.org/2000/svg" fill="none" viewBox="0 0 1168 90" height="90" width="1168">
<path stroke-linejoin="round" stroke-miterlimit="10" stroke="#0B233F" fill="#0B233F" d="M1 15.667C1 7.56699 7.5665 1 15.6668 1H228.333C236.433 1 243 7.56699 243 15.667V74.333C243 82.433 236.433 89 228.333 89H15.6668C7.5665 89 1 82.433 1 74.333V15.667Z" clip-rule="evenodd" fill-rule="evenodd"></path>
<path fill="white" d="M27.3888 41.5H24.5221V35.646H19.1505V41.5H16.2745V27.9365H19.1505V33.2524H24.5221V27.9365H27.3888V41.5ZM32.8531 36.2954C32.8531 37.3221 33.0201 38.0983 33.3541 38.624C33.6943 39.1497 34.2448 39.4126 35.0055 39.4126C35.7601 39.4126 36.3012 39.1528 36.629 38.6333C36.963 38.1076 37.13 37.3283 37.13 36.2954C37.13 35.2687 36.963 34.4987 36.629 33.9854C36.295 33.472 35.7477 33.2153 34.9869 33.2153C34.2324 33.2153 33.6881 33.472 33.3541 33.9854C33.0201 34.4925 32.8531 35.2625 32.8531 36.2954ZM40.0245 36.2954C40.0245 37.9839 39.5792 39.3044 38.6886 40.2568C37.798 41.2093 36.5579 41.6855 34.9684 41.6855C33.9726 41.6855 33.0944 41.4691 32.3336 41.0361C31.5729 40.597 30.9884 39.9692 30.5802 39.1528C30.172 38.3364 29.9679 37.384 29.9679 36.2954C29.9679 34.6007 30.4101 33.2834 31.2946 32.3433C32.179 31.4032 33.4222 30.9331 35.024 30.9331C36.0198 30.9331 36.8981 31.1496 37.6588 31.5825C38.4196 32.0155 39.004 32.637 39.4122 33.4473C39.8204 34.2575 40.0245 35.2069 40.0245 36.2954ZM50.7028 41.5L49.9049 37.8726L48.8473 33.2896H48.7638L46.8712 41.5H43.8282L40.8781 31.1279H43.6984L44.8951 35.7202C45.0312 36.2645 45.2198 37.3994 45.4611 39.125H45.5353C45.56 38.6549 45.6683 37.9097 45.86 36.8892L46.0084 36.1006L47.2887 31.1279H50.4059L51.6212 36.1006C51.6954 36.4408 51.7851 36.9417 51.8903 37.6035C52.0016 38.2591 52.0634 38.7663 52.0758 39.125H52.15C52.2181 38.5745 52.3139 37.9499 52.4376 37.251C52.5613 36.5459 52.6665 36.0356 52.7531 35.7202L53.9962 31.1279H56.7701L53.7828 41.5H50.7028ZM67.7545 39.4312C68.2493 39.4312 68.8431 39.3229 69.5358 39.1064V41.2124C68.8307 41.5278 67.9648 41.6855 66.9381 41.6855C65.8063 41.6855 64.9806 41.401 64.4611 40.832C63.9477 40.2568 63.691 39.3971 63.691 38.2529V33.2524H62.3365V32.0557L63.8951 31.1094L64.7115 28.9199H66.5206V31.1279H69.4244V33.2524H66.5206V38.2529C66.5206 38.6549 66.632 38.9518 66.8546 39.1436C67.0835 39.3353 67.3834 39.4312 67.7545 39.4312ZM73.8961 36.2954C73.8961 37.3221 74.0631 38.0983 74.3971 38.624C74.7373 39.1497 75.2877 39.4126 76.0485 39.4126C76.803 39.4126 77.3442 39.1528 77.672 38.6333C78.006 38.1076 78.173 37.3283 78.173 36.2954C78.173 35.2687 78.006 34.4987 77.672 33.9854C77.338 33.472 76.7906 33.2153 76.0299 33.2153C75.2753 33.2153 74.7311 33.472 74.3971 33.9854C74.0631 34.4925 73.8961 35.2625 73.8961 36.2954ZM81.0675 36.2954C81.0675 37.9839 80.6222 39.3044 79.7316 40.2568C78.8409 41.2093 77.6009 41.6855 76.0114 41.6855C75.0156 41.6855 74.1373 41.4691 73.3766 41.0361C72.6158 40.597 72.0314 39.9692 71.6232 39.1528C71.215 38.3364 71.0109 37.384 71.0109 36.2954C71.0109 34.6007 71.4531 33.2834 72.3375 32.3433C73.222 31.4032 74.4651 30.9331 76.067 30.9331C77.0628 30.9331 77.941 31.1496 78.7018 31.5825C79.4625 32.0155 80.047 32.637 80.4552 33.4473C80.8634 34.2575 81.0675 35.2069 81.0675 36.2954ZM92.5529 41.6855C89.3243 41.6855 87.7101 39.9136 87.7101 36.3696C87.7101 34.6069 88.1492 33.2617 89.0275 32.334C89.9057 31.4001 91.1643 30.9331 92.8033 30.9331C94.0032 30.9331 95.0794 31.1681 96.0319 31.6382L95.1969 33.8276C94.7516 33.6483 94.3372 33.5029 93.9537 33.3916C93.5703 33.2741 93.1868 33.2153 92.8033 33.2153C91.3313 33.2153 90.5953 34.2606 90.5953 36.3511C90.5953 38.3797 91.3313 39.394 92.8033 39.394C93.3476 39.394 93.8517 39.3229 94.3156 39.1807C94.7794 39.0322 95.2433 38.8034 95.7072 38.4941V40.9155C95.2495 41.2062 94.7856 41.4072 94.3156 41.5186C93.8517 41.6299 93.2641 41.6855 92.5529 41.6855ZM103.908 30.9331C104.292 30.9331 104.61 30.9609 104.864 31.0166L104.651 33.6699C104.422 33.6081 104.143 33.5771 103.816 33.5771C102.913 33.5771 102.207 33.8091 101.7 34.2729C101.199 34.7368 100.949 35.3862 100.949 36.2212V41.5H98.1193V31.1279H100.262L100.68 32.8721H100.819C101.141 32.2907 101.574 31.8237 102.118 31.4712C102.668 31.1125 103.265 30.9331 103.908 30.9331ZM110.857 32.9463C110.257 32.9463 109.787 33.138 109.447 33.5215C109.107 33.8988 108.912 34.4368 108.862 35.1357H112.833C112.821 34.4368 112.638 33.8988 112.286 33.5215C111.933 33.138 111.457 32.9463 110.857 32.9463ZM111.256 41.6855C109.586 41.6855 108.281 41.2248 107.341 40.3032C106.401 39.3817 105.931 38.0767 105.931 36.3882C105.931 34.6502 106.364 33.3081 107.23 32.3618C108.102 31.4093 109.305 30.9331 110.839 30.9331C112.304 30.9331 113.445 31.3506 114.262 32.1855C115.078 33.0205 115.486 34.174 115.486 35.646V37.019H108.797C108.828 37.8231 109.067 38.4508 109.512 38.9023C109.957 39.3538 110.582 39.5796 111.386 39.5796C112.011 39.5796 112.601 39.5146 113.158 39.3848C113.714 39.2549 114.296 39.0477 114.902 38.7632V40.9526C114.407 41.2 113.878 41.3825 113.316 41.5C112.753 41.6237 112.066 41.6855 111.256 41.6855ZM124.374 41.5L123.827 40.0898H123.753C123.276 40.6898 122.785 41.1073 122.277 41.3423C121.776 41.5711 121.121 41.6855 120.311 41.6855C119.315 41.6855 118.529 41.401 117.954 40.832C117.385 40.263 117.101 39.4528 117.101 38.4014C117.101 37.3005 117.484 36.4902 118.251 35.9707C119.024 35.445 120.187 35.1543 121.739 35.0986L123.539 35.043V34.5884C123.539 33.5369 123.001 33.0112 121.925 33.0112C121.096 33.0112 120.122 33.2617 119.003 33.7627L118.066 31.8516C119.259 31.2269 120.583 30.9146 122.036 30.9146C123.428 30.9146 124.495 31.2176 125.237 31.8237C125.979 32.4299 126.35 33.3514 126.35 34.5884V41.5H124.374ZM123.539 36.6943L122.444 36.7314C121.622 36.7562 121.01 36.9046 120.608 37.1768C120.206 37.4489 120.005 37.8633 120.005 38.4199C120.005 39.2178 120.462 39.6167 121.378 39.6167C122.033 39.6167 122.556 39.4281 122.945 39.0508C123.341 38.6735 123.539 38.1725 123.539 37.5479V36.6943ZM133.642 39.4312C134.137 39.4312 134.731 39.3229 135.423 39.1064V41.2124C134.718 41.5278 133.852 41.6855 132.826 41.6855C131.694 41.6855 130.868 41.401 130.349 40.832C129.835 40.2568 129.579 39.3971 129.579 38.2529V33.2524H128.224V32.0557L129.783 31.1094L130.599 28.9199H132.408V31.1279H135.312V33.2524H132.408V38.2529C132.408 38.6549 132.52 38.9518 132.742 39.1436C132.971 39.3353 133.271 39.4312 133.642 39.4312ZM141.825 32.9463C141.225 32.9463 140.755 33.138 140.415 33.5215C140.075 33.8988 139.88 34.4368 139.83 35.1357H143.801C143.789 34.4368 143.606 33.8988 143.254 33.5215C142.901 33.138 142.425 32.9463 141.825 32.9463ZM142.224 41.6855C140.554 41.6855 139.249 41.2248 138.309 40.3032C137.369 39.3817 136.899 38.0767 136.899 36.3882C136.899 34.6502 137.332 33.3081 138.197 32.3618C139.069 31.4093 140.272 30.9331 141.806 30.9331C143.272 30.9331 144.413 31.3506 145.23 32.1855C146.046 33.0205 146.454 34.174 146.454 35.646V37.019H139.765C139.796 37.8231 140.034 38.4508 140.48 38.9023C140.925 39.3538 141.55 39.5796 142.354 39.5796C142.978 39.5796 143.569 39.5146 144.126 39.3848C144.682 39.2549 145.264 39.0477 145.87 38.7632V40.9526C145.375 41.2 144.846 41.3825 144.283 41.5C143.72 41.6237 143.034 41.6855 142.224 41.6855Z"></path>
<path fill="white" d="M22.0172 63.5L18.7516 52.8589H18.6681C18.7856 55.0236 18.8444 56.4678 18.8444 57.1914V63.5H16.2745V49.9365H20.1896L23.3995 60.3086H23.4552L26.86 49.9365H30.775V63.5H28.0939V57.0801C28.0939 56.777 28.097 56.4276 28.1031 56.0317C28.1155 55.6359 28.1588 54.5845 28.233 52.8774H28.1495L24.652 63.5H22.0172ZM36.2301 58.2954C36.2301 59.3221 36.3971 60.0983 36.7311 60.624C37.0712 61.1497 37.6217 61.4126 38.3824 61.4126C39.137 61.4126 39.6782 61.1528 40.006 60.6333C40.34 60.1076 40.507 59.3283 40.507 58.2954C40.507 57.2687 40.34 56.4987 40.006 55.9854C39.672 55.472 39.1246 55.2153 38.3639 55.2153C37.6093 55.2153 37.0651 55.472 36.7311 55.9854C36.3971 56.4925 36.2301 57.2625 36.2301 58.2954ZM43.4015 58.2954C43.4015 59.9839 42.9562 61.3044 42.0656 62.2568C41.1749 63.2093 39.9349 63.6855 38.3453 63.6855C37.3496 63.6855 36.4713 63.4691 35.7106 63.0361C34.9498 62.597 34.3654 61.9692 33.9572 61.1528C33.549 60.3364 33.3448 59.384 33.3448 58.2954C33.3448 56.6007 33.7871 55.2834 34.6715 54.3433C35.5559 53.4032 36.7991 52.9331 38.401 52.9331C39.3968 52.9331 40.275 53.1496 41.0358 53.5825C41.7965 54.0155 42.381 54.637 42.7892 55.4473C43.1974 56.2575 43.4015 57.2069 43.4015 58.2954ZM49.0236 63.6855C47.8051 63.6855 46.8465 63.2124 46.1476 62.2661C45.4549 61.3198 45.1085 60.0086 45.1085 58.3325C45.1085 56.6317 45.4611 55.3081 46.1661 54.3618C46.8774 53.4093 47.8546 52.9331 49.0978 52.9331C50.4028 52.9331 51.3986 53.4403 52.0851 54.4546H52.1779C52.0356 53.6815 51.9645 52.9919 51.9645 52.3857V49.0645H54.8033V63.5H52.6324L52.0851 62.1548H51.9645C51.3212 63.1753 50.3409 63.6855 49.0236 63.6855ZM50.0162 61.4312C50.7399 61.4312 51.2687 61.2209 51.6027 60.8003C51.9428 60.3797 52.1284 59.6654 52.1593 58.6572V58.3511C52.1593 57.2378 51.9861 56.4399 51.6398 55.9575C51.2996 55.4751 50.743 55.2339 49.9698 55.2339C49.339 55.2339 48.8473 55.5029 48.4948 56.041C48.1484 56.5729 47.9752 57.3491 47.9752 58.3696C47.9752 59.3901 48.1515 60.1571 48.504 60.6704C48.8566 61.1776 49.3606 61.4312 50.0162 61.4312ZM65.1105 63.5L64.7301 62.1733H64.5817C64.2786 62.6558 63.8488 63.0299 63.2921 63.2959C62.7355 63.5557 62.1015 63.6855 61.3903 63.6855C60.1718 63.6855 59.2534 63.3608 58.6349 62.7114C58.0164 62.0558 57.7072 61.1157 57.7072 59.8911V53.1279H60.5367V59.186C60.5367 59.9344 60.6697 60.4972 60.9357 60.8745C61.2016 61.2456 61.6253 61.4312 62.2067 61.4312C62.9983 61.4312 63.5704 61.1683 63.923 60.6426C64.2755 60.1107 64.4518 59.2324 64.4518 58.0078V53.1279H67.2814V63.5H65.1105ZM73.0797 63.5H70.2501V49.0645H73.0797V63.5ZM80.3531 54.9463C79.7532 54.9463 79.2832 55.138 78.943 55.5215C78.6028 55.8988 78.408 56.4368 78.3585 57.1357H82.3292C82.3169 56.4368 82.1344 55.8988 81.7819 55.5215C81.4293 55.138 80.9531 54.9463 80.3531 54.9463ZM80.7521 63.6855C79.0822 63.6855 77.7771 63.2248 76.837 62.3032C75.8969 61.3817 75.4269 60.0767 75.4269 58.3882C75.4269 56.6502 75.8598 55.3081 76.7257 54.3618C77.5978 53.4093 78.8007 52.9331 80.3346 52.9331C81.8004 52.9331 82.9415 53.3506 83.7579 54.1855C84.5743 55.0205 84.9825 56.174 84.9825 57.646V59.019H78.2936C78.3245 59.8231 78.5626 60.4508 79.0079 60.9023C79.4532 61.3538 80.0779 61.5796 80.882 61.5796C81.5066 61.5796 82.0973 61.5146 82.6539 61.3848C83.2106 61.2549 83.792 61.0477 84.3981 60.7632V62.9526C83.9033 63.2 83.3745 63.3825 82.8116 63.5C82.2488 63.6237 81.5623 63.6855 80.7521 63.6855ZM94.5197 60.4199C94.5197 61.4837 94.1486 62.2939 93.4064 62.8506C92.6704 63.4072 91.5664 63.6855 90.0944 63.6855C89.3398 63.6855 88.6966 63.633 88.1647 63.5278C87.6328 63.4289 87.1349 63.2804 86.671 63.0825V60.7446C87.1967 60.992 87.7874 61.1992 88.443 61.3662C89.1048 61.5332 89.6862 61.6167 90.1871 61.6167C91.2138 61.6167 91.7272 61.3198 91.7272 60.7261C91.7272 60.5034 91.6591 60.3241 91.5231 60.188C91.387 60.0457 91.152 59.888 90.818 59.7148C90.484 59.5355 90.0387 59.3283 89.4821 59.0933C88.6842 58.7593 88.0966 58.45 87.7194 58.1655C87.3483 57.881 87.0761 57.5563 86.903 57.1914C86.736 56.8203 86.6525 56.3657 86.6525 55.8276C86.6525 54.9061 87.0081 54.1948 87.7194 53.6938C88.4368 53.1867 89.4511 52.9331 90.7623 52.9331C92.0117 52.9331 93.227 53.2052 94.4083 53.7495L93.5548 55.7905C93.0353 55.5679 92.5498 55.3854 92.0983 55.2432C91.6468 55.1009 91.186 55.0298 90.7159 55.0298C89.881 55.0298 89.4635 55.2555 89.4635 55.707C89.4635 55.9606 89.5965 56.1802 89.8624 56.3657C90.1346 56.5513 90.7252 56.8265 91.6344 57.1914C92.4446 57.5192 93.0384 57.8254 93.4156 58.1099C93.7929 58.3944 94.0712 58.7222 94.2506 59.0933C94.43 59.4644 94.5197 59.9066 94.5197 60.4199ZM98.6388 59.0005V58.314C98.6388 57.9985 98.6697 57.714 98.7316 57.4604C98.7996 57.2007 98.8986 56.9564 99.0284 56.7275C99.1645 56.4925 99.3377 56.2668 99.548 56.0503C99.7583 55.8276 100.012 55.5988 100.309 55.3638C100.568 55.1597 100.788 54.9772 100.967 54.8164C101.147 54.6556 101.292 54.4979 101.403 54.3433C101.515 54.1825 101.595 54.0155 101.645 53.8423C101.694 53.6691 101.719 53.4681 101.719 53.2393C101.719 52.8867 101.598 52.596 101.357 52.3672C101.122 52.1383 100.76 52.0239 100.272 52.0239C99.8448 52.0239 99.3841 52.1136 98.8893 52.293C98.4007 52.4723 97.8935 52.6919 97.3678 52.9517L96.4215 50.9014C96.6875 50.7467 96.9751 50.6014 97.2843 50.4653C97.5997 50.3231 97.9244 50.1994 98.2584 50.0942C98.5986 49.9829 98.9419 49.8963 99.2882 49.8345C99.6346 49.7726 99.9747 49.7417 100.309 49.7417C100.94 49.7417 101.509 49.819 102.016 49.9736C102.523 50.1221 102.953 50.3416 103.305 50.6323C103.658 50.923 103.927 51.2756 104.112 51.6899C104.304 52.1043 104.4 52.5775 104.4 53.1094C104.4 53.499 104.357 53.8485 104.27 54.1577C104.184 54.4608 104.054 54.7453 103.88 55.0112C103.714 55.271 103.5 55.5246 103.24 55.772C102.987 56.0132 102.69 56.2699 102.35 56.542C102.09 56.7461 101.877 56.9255 101.71 57.0801C101.549 57.2285 101.422 57.3708 101.329 57.5068C101.236 57.6429 101.172 57.7852 101.134 57.9336C101.103 58.0758 101.088 58.2459 101.088 58.4438V59.0005H98.6388ZM98.3326 62.1733C98.3326 61.8826 98.3728 61.6383 98.4532 61.4404C98.5398 61.2363 98.6573 61.0724 98.8058 60.9487C98.9542 60.825 99.1274 60.7354 99.3253 60.6797C99.5294 60.624 99.7459 60.5962 99.9747 60.5962C100.191 60.5962 100.395 60.624 100.587 60.6797C100.785 60.7354 100.958 60.825 101.107 60.9487C101.255 61.0724 101.373 61.2363 101.459 61.4404C101.546 61.6383 101.589 61.8826 101.589 62.1733C101.589 62.4517 101.546 62.6898 101.459 62.8877C101.373 63.0856 101.255 63.2495 101.107 63.3794C100.958 63.5093 100.785 63.6021 100.587 63.6577C100.395 63.7196 100.191 63.7505 99.9747 63.7505C99.7459 63.7505 99.5294 63.7196 99.3253 63.6577C99.1274 63.6021 98.9542 63.5093 98.8058 63.3794C98.6573 63.2495 98.5398 63.0856 98.4532 62.8877C98.3728 62.6898 98.3326 62.4517 98.3326 62.1733Z"></path>
<path stroke-linejoin="round" stroke-miterlimit="10" stroke="#0B233F" fill="#F3F5F8" d="M309 15.667C309 7.56699 315.567 1 323.667 1H536.333C544.433 1 551 7.56699 551 15.667V74.333C551 82.433 544.433 89 536.333 89H323.667C315.567 89 309 82.433 309 74.333V15.667Z" clip-rule="evenodd" fill-rule="evenodd"></path>
<path fill="#0B233F" d="M332.732 52.5L331.1 48.2974H325.719L324.104 52.5H322.379L327.676 38.8809H329.216L334.504 52.5H332.732ZM330.589 46.7852L329.068 42.6753L328.418 40.6436C328.233 41.3857 328.038 42.063 327.834 42.6753L326.294 46.7852H330.589ZM340.229 52.6855C338.763 52.6855 337.622 52.2371 336.805 51.3403C335.989 50.4373 335.581 49.1447 335.581 47.4624C335.581 45.7554 335.992 44.4411 336.814 43.5195C337.643 42.5918 338.821 42.1279 340.349 42.1279C340.844 42.1279 341.333 42.1805 341.815 42.2856C342.304 42.3846 342.706 42.5145 343.021 42.6753L342.511 44.0669C341.651 43.7453 340.918 43.5845 340.312 43.5845C339.285 43.5845 338.528 43.9092 338.039 44.5586C337.55 45.2018 337.306 46.1636 337.306 47.4438C337.306 48.6746 337.55 49.6178 338.039 50.2734C338.528 50.9229 339.251 51.2476 340.21 51.2476C341.107 51.2476 341.988 51.0496 342.854 50.6538V52.1382C342.149 52.5031 341.274 52.6855 340.229 52.6855ZM348.68 51.3218C348.897 51.3218 349.15 51.3001 349.441 51.2568C349.732 51.2135 349.951 51.1641 350.1 51.1084V52.3887C349.945 52.4567 349.704 52.5216 349.376 52.5835C349.054 52.6515 348.727 52.6855 348.393 52.6855C346.401 52.6855 345.405 51.6372 345.405 49.5405V43.6123H343.967V42.8145L345.424 42.1465L346.092 39.9756H347.084V42.3135H350.025V43.6123H347.084V49.4941C347.084 50.0817 347.224 50.5332 347.502 50.8486C347.786 51.1641 348.179 51.3218 348.68 51.3218ZM353.811 52.5H352.141V42.3135H353.811V52.5ZM352.011 39.5581C352.011 39.187 352.104 38.918 352.289 38.751C352.481 38.584 352.716 38.5005 352.994 38.5005C353.254 38.5005 353.48 38.584 353.671 38.751C353.869 38.918 353.968 39.187 353.968 39.5581C353.968 39.923 353.869 40.1921 353.671 40.3652C353.48 40.5384 353.254 40.625 352.994 40.625C352.716 40.625 352.481 40.5384 352.289 40.3652C352.104 40.1921 352.011 39.923 352.011 39.5581ZM359.284 52.5L355.425 42.3135H357.215L359.377 48.3159C359.804 49.522 360.076 50.4219 360.193 51.0156H360.268C360.286 50.9352 360.308 50.8455 360.333 50.7466C360.363 50.6414 360.397 50.5301 360.435 50.4126C360.472 50.2889 360.701 49.59 361.121 48.3159L363.292 42.3135H365.073L361.205 52.5H359.284ZM368.357 52.5H366.688V42.3135H368.357V52.5ZM366.558 39.5581C366.558 39.187 366.65 38.918 366.836 38.751C367.028 38.584 367.263 38.5005 367.541 38.5005C367.801 38.5005 368.027 38.584 368.218 38.751C368.416 38.918 368.515 39.187 368.515 39.5581C368.515 39.923 368.416 40.1921 368.218 40.3652C368.027 40.5384 367.801 40.625 367.541 40.625C367.263 40.625 367.028 40.5384 366.836 40.3652C366.65 40.1921 366.558 39.923 366.558 39.5581ZM374.991 51.3218C375.207 51.3218 375.461 51.3001 375.751 51.2568C376.042 51.2135 376.262 51.1641 376.41 51.1084V52.3887C376.256 52.4567 376.014 52.5216 375.687 52.5835C375.365 52.6515 375.037 52.6855 374.703 52.6855C372.712 52.6855 371.716 51.6372 371.716 49.5405V43.6123H370.278V42.8145L371.734 42.1465L372.402 39.9756H373.395V42.3135H376.336V43.6123H373.395V49.4941C373.395 50.0817 373.534 50.5332 373.812 50.8486C374.097 51.1641 374.49 51.3218 374.991 51.3218ZM380.121 52.5H378.451V42.3135H380.121V52.5ZM378.321 39.5581C378.321 39.187 378.414 38.918 378.6 38.751C378.791 38.584 379.026 38.5005 379.305 38.5005C379.564 38.5005 379.79 38.584 379.982 38.751C380.18 38.918 380.279 39.187 380.279 39.5581C380.279 39.923 380.18 40.1921 379.982 40.3652C379.79 40.5384 379.564 40.625 379.305 40.625C379.026 40.625 378.791 40.5384 378.6 40.3652C378.414 40.1921 378.321 39.923 378.321 39.5581ZM387.682 52.6855C386.154 52.6855 384.955 52.2248 384.083 51.3032C383.217 50.3755 382.784 49.1014 382.784 47.481C382.784 45.8481 383.189 44.5493 383.999 43.5845C384.809 42.6134 385.904 42.1279 387.283 42.1279C388.563 42.1279 389.584 42.5423 390.345 43.3711C391.105 44.1937 391.486 45.3101 391.486 46.7202V47.7314H384.509C384.54 48.888 384.834 49.7663 385.391 50.3662C385.947 50.9661 386.736 51.2661 387.756 51.2661C388.301 51.2661 388.817 51.2197 389.306 51.127C389.794 51.028 390.366 50.8394 391.022 50.561V52.0269C390.459 52.2681 389.93 52.4382 389.436 52.5371C388.941 52.6361 388.356 52.6855 387.682 52.6855ZM387.265 43.4917C386.467 43.4917 385.836 43.7484 385.372 44.2617C384.908 44.7751 384.633 45.4894 384.546 46.4048H389.732C389.72 45.4523 389.5 44.7287 389.074 44.2339C388.647 43.7391 388.044 43.4917 387.265 43.4917ZM400.708 49.689C400.708 50.6414 400.352 51.3805 399.641 51.9062C398.929 52.4258 397.931 52.6855 396.644 52.6855C395.302 52.6855 394.235 52.4722 393.443 52.0454V50.5239C394.563 51.0682 395.642 51.3403 396.681 51.3403C397.522 51.3403 398.135 51.2043 398.518 50.9321C398.902 50.66 399.093 50.2951 399.093 49.8374C399.093 49.4354 398.908 49.0952 398.537 48.8169C398.172 48.5386 397.519 48.2201 396.579 47.8613C395.62 47.4902 394.946 47.1748 394.557 46.915C394.167 46.6491 393.879 46.3522 393.694 46.0244C393.514 45.6966 393.425 45.2977 393.425 44.8276C393.425 43.9927 393.765 43.334 394.445 42.8516C395.126 42.3691 396.06 42.1279 397.247 42.1279C398.404 42.1279 399.486 42.3568 400.494 42.8145L399.928 44.1411C398.895 43.7082 397.965 43.4917 397.136 43.4917C396.443 43.4917 395.917 43.603 395.559 43.8257C395.2 44.0422 395.021 44.3421 395.021 44.7256C395.021 45.0967 395.175 45.4059 395.484 45.6533C395.794 45.8945 396.514 46.2316 397.646 46.6646C398.493 46.98 399.118 47.2738 399.52 47.5459C399.928 47.818 400.228 48.1242 400.42 48.4644C400.612 48.8045 400.708 49.2127 400.708 49.689ZM414.41 52.5L414.085 51.0527H414.011C413.504 51.6898 412.997 52.1227 412.49 52.3516C411.989 52.5742 411.355 52.6855 410.588 52.6855C409.586 52.6855 408.8 52.4227 408.231 51.897C407.662 51.3713 407.378 50.6291 407.378 49.6704C407.378 47.6047 409.008 46.5223 412.267 46.4233L413.993 46.3584V45.7554C413.993 44.9823 413.826 44.4132 413.492 44.0483C413.158 43.6772 412.623 43.4917 411.887 43.4917C411.349 43.4917 410.838 43.5721 410.356 43.7329C409.88 43.8937 409.431 44.0731 409.011 44.271L408.5 43.0186C409.014 42.7464 409.574 42.533 410.18 42.3784C410.786 42.2238 411.386 42.1465 411.979 42.1465C413.21 42.1465 414.126 42.4186 414.726 42.9629C415.326 43.5072 415.625 44.373 415.625 45.5605V52.5H414.41ZM410.968 51.3403C411.902 51.3403 412.635 51.0898 413.167 50.5889C413.705 50.0817 413.974 49.3643 413.974 48.4365V47.5181L412.471 47.583C411.302 47.6263 410.449 47.8118 409.911 48.1396C409.379 48.4674 409.113 48.9839 409.113 49.689C409.113 50.2209 409.274 50.6291 409.595 50.9136C409.923 51.1981 410.381 51.3403 410.968 51.3403ZM425.729 52.5V45.9873C425.729 45.1585 425.543 44.5431 425.172 44.1411C424.807 43.7329 424.232 43.5288 423.446 43.5288C422.401 43.5288 421.64 43.8195 421.164 44.4009C420.694 44.9761 420.459 45.9162 420.459 47.2212V52.5H418.789V42.3135H420.134L420.385 43.7051H420.478C420.793 43.2041 421.235 42.8175 421.804 42.5454C422.373 42.2671 423.001 42.1279 423.688 42.1279C424.937 42.1279 425.865 42.431 426.471 43.0371C427.077 43.6432 427.38 44.5864 427.38 45.8667V52.5H425.729ZM434.143 52.6855C432.819 52.6855 431.793 52.2279 431.063 51.3125C430.333 50.3971 429.968 49.1014 429.968 47.4253C429.968 45.7616 430.333 44.4627 431.063 43.5288C431.799 42.5949 432.832 42.1279 434.162 42.1279C435.528 42.1279 436.58 42.6289 437.316 43.6309H437.437C437.418 43.5072 437.393 43.2598 437.362 42.8887C437.331 42.5114 437.316 42.2578 437.316 42.1279V38.0645H438.986V52.5H437.641L437.39 51.1362H437.316C436.605 52.1691 435.547 52.6855 434.143 52.6855ZM434.412 51.3032C435.426 51.3032 436.166 51.028 436.629 50.4775C437.099 49.9209 437.334 49.0117 437.334 47.75V47.4438C437.334 46.0275 437.096 45.0194 436.62 44.4194C436.15 43.8133 435.408 43.5103 434.394 43.5103C433.534 43.5103 432.869 43.8535 432.399 44.54C431.929 45.2204 431.694 46.1945 431.694 47.4624C431.694 48.7241 431.926 49.6797 432.39 50.3291C432.86 50.9785 433.534 51.3032 434.412 51.3032ZM451.687 52.5H449.97V40.4395H445.73V38.9365H455.898V40.4395H451.687V52.5ZM461.418 52.6855C459.891 52.6855 458.691 52.2248 457.819 51.3032C456.953 50.3755 456.52 49.1014 456.52 47.481C456.52 45.8481 456.925 44.5493 457.735 43.5845C458.546 42.6134 459.64 42.1279 461.02 42.1279C462.3 42.1279 463.32 42.5423 464.081 43.3711C464.842 44.1937 465.222 45.3101 465.222 46.7202V47.7314H458.246C458.277 48.888 458.57 49.7663 459.127 50.3662C459.684 50.9661 460.472 51.2661 461.493 51.2661C462.037 51.2661 462.553 51.2197 463.042 51.127C463.531 51.028 464.103 50.8394 464.758 50.561V52.0269C464.195 52.2681 463.667 52.4382 463.172 52.5371C462.677 52.6361 462.093 52.6855 461.418 52.6855ZM461.001 43.4917C460.203 43.4917 459.572 43.7484 459.108 44.2617C458.645 44.7751 458.369 45.4894 458.283 46.4048H463.469C463.456 45.4523 463.237 44.7287 462.81 44.2339C462.383 43.7391 461.78 43.4917 461.001 43.4917ZM480.771 52.5V45.9409C480.771 44.3328 480.081 43.5288 478.702 43.5288C477.756 43.5288 477.06 43.804 476.615 44.3545C476.169 44.9049 475.947 45.7461 475.947 46.8779V52.5H474.286V45.9409C474.286 45.1369 474.116 44.5339 473.776 44.1318C473.442 43.7298 472.916 43.5288 472.199 43.5288C471.259 43.5288 470.569 43.8164 470.13 44.3916C469.697 44.9668 469.48 45.91 469.48 47.2212V52.5H467.811V42.3135H469.156L469.406 43.7051H469.499C469.79 43.2103 470.198 42.8237 470.724 42.5454C471.256 42.2671 471.849 42.1279 472.505 42.1279C474.101 42.1279 475.14 42.6969 475.622 43.835H475.715C476.043 43.2907 476.488 42.8701 477.051 42.5732C477.62 42.2764 478.263 42.1279 478.98 42.1279C480.131 42.1279 480.991 42.4248 481.56 43.0186C482.135 43.6123 482.422 44.5617 482.422 45.8667V52.5H480.771ZM490.41 52.6855C489.043 52.6855 487.992 52.1938 487.256 51.2104H487.145L487.182 51.5908C487.231 52.0732 487.256 52.5031 487.256 52.8804V57.0645H485.586V42.3135H486.959L487.182 43.7051H487.256C487.652 43.1484 488.109 42.7464 488.629 42.499C489.148 42.2516 489.748 42.1279 490.429 42.1279C491.752 42.1279 492.779 42.5887 493.509 43.5103C494.245 44.4256 494.613 45.7183 494.613 47.3882C494.613 49.0519 494.245 50.3507 493.509 51.2847C492.773 52.2186 491.74 52.6855 490.41 52.6855ZM490.132 43.5288C489.124 43.5288 488.394 43.8133 487.942 44.3823C487.497 44.9513 487.268 45.8451 487.256 47.0635V47.3882C487.256 48.7674 487.485 49.7663 487.942 50.3848C488.4 50.9971 489.142 51.3032 490.169 51.3032C491.022 51.3032 491.687 50.9569 492.164 50.2642C492.646 49.5715 492.887 48.6066 492.887 47.3696C492.887 46.1265 492.646 45.1771 492.164 44.5215C491.687 43.8597 491.01 43.5288 490.132 43.5288ZM498.945 52.5H497.275V38.0645H498.945V52.5ZM508.464 52.5L508.139 51.0527H508.065C507.558 51.6898 507.051 52.1227 506.543 52.3516C506.042 52.5742 505.409 52.6855 504.642 52.6855C503.64 52.6855 502.854 52.4227 502.285 51.897C501.716 51.3713 501.432 50.6291 501.432 49.6704C501.432 47.6047 503.061 46.5223 506.321 46.4233L508.046 46.3584V45.7554C508.046 44.9823 507.879 44.4132 507.545 44.0483C507.211 43.6772 506.676 43.4917 505.94 43.4917C505.402 43.4917 504.892 43.5721 504.41 43.7329C503.933 43.8937 503.485 44.0731 503.064 44.271L502.554 43.0186C503.068 42.7464 503.627 42.533 504.233 42.3784C504.84 42.2238 505.439 42.1465 506.033 42.1465C507.264 42.1465 508.179 42.4186 508.779 42.9629C509.379 43.5072 509.679 44.373 509.679 45.5605V52.5H508.464ZM505.022 51.3403C505.956 51.3403 506.689 51.0898 507.221 50.5889C507.759 50.0817 508.028 49.3643 508.028 48.4365V47.5181L506.525 47.583C505.356 47.6263 504.502 47.8118 503.964 48.1396C503.432 48.4674 503.167 48.9839 503.167 49.689C503.167 50.2209 503.327 50.6291 503.649 50.9136C503.977 51.1981 504.434 51.3403 505.022 51.3403ZM516.248 51.3218C516.464 51.3218 516.718 51.3001 517.008 51.2568C517.299 51.2135 517.519 51.1641 517.667 51.1084V52.3887C517.512 52.4567 517.271 52.5216 516.943 52.5835C516.622 52.6515 516.294 52.6855 515.96 52.6855C513.968 52.6855 512.973 51.6372 512.973 49.5405V43.6123H511.535V42.8145L512.991 42.1465L513.659 39.9756H514.652V42.3135H517.593V43.6123H514.652V49.4941C514.652 50.0817 514.791 50.5332 515.069 50.8486C515.354 51.1641 515.747 51.3218 516.248 51.3218ZM524.041 52.6855C522.513 52.6855 521.313 52.2248 520.441 51.3032C519.575 50.3755 519.142 49.1014 519.142 47.481C519.142 45.8481 519.547 44.5493 520.357 43.5845C521.168 42.6134 522.262 42.1279 523.642 42.1279C524.922 42.1279 525.942 42.5423 526.703 43.3711C527.464 44.1937 527.844 45.3101 527.844 46.7202V47.7314H520.868C520.899 48.888 521.192 49.7663 521.749 50.3662C522.306 50.9661 523.094 51.2661 524.115 51.2661C524.659 51.2661 525.175 51.2197 525.664 51.127C526.153 51.028 526.725 50.8394 527.38 50.561V52.0269C526.818 52.2681 526.289 52.4382 525.794 52.5371C525.299 52.6361 524.715 52.6855 524.041 52.6855ZM523.623 43.4917C522.825 43.4917 522.194 43.7484 521.73 44.2617C521.267 44.7751 520.991 45.4894 520.905 46.4048H526.091C526.078 45.4523 525.859 44.7287 525.432 44.2339C525.005 43.7391 524.402 43.4917 523.623 43.4917ZM537.066 49.689C537.066 50.6414 536.71 51.3805 535.999 51.9062C535.288 52.4258 534.289 52.6855 533.002 52.6855C531.66 52.6855 530.593 52.4722 529.802 52.0454V50.5239C530.921 51.0682 532 51.3403 533.04 51.3403C533.881 51.3403 534.493 51.2043 534.876 50.9321C535.26 50.66 535.452 50.2951 535.452 49.8374C535.452 49.4354 535.266 49.0952 534.895 48.8169C534.53 48.5386 533.878 48.2201 532.938 47.8613C531.979 47.4902 531.305 47.1748 530.915 46.915C530.525 46.6491 530.238 46.3522 530.052 46.0244C529.873 45.6966 529.783 45.2977 529.783 44.8276C529.783 43.9927 530.123 43.334 530.804 42.8516C531.484 42.3691 532.418 42.1279 533.605 42.1279C534.762 42.1279 535.844 42.3568 536.853 42.8145L536.287 44.1411C535.254 43.7082 534.323 43.4917 533.494 43.4917C532.801 43.4917 532.276 43.603 531.917 43.8257C531.558 44.0422 531.379 44.3421 531.379 44.7256C531.379 45.0967 531.534 45.4059 531.843 45.6533C532.152 45.8945 532.873 46.2316 534.004 46.6646C534.852 46.98 535.476 47.2738 535.878 47.5459C536.287 47.818 536.587 48.1242 536.778 48.4644C536.97 48.8045 537.066 49.2127 537.066 49.689Z"></path>
<path fill="#E96969" d="M242.5 43.4995H275.366C275.918 43.4995 276.366 43.9475 276.366 44.4995V44.5625L275.366 43.5625H301.566V45.5625H275.366C274.814 45.5625 274.366 45.1145 274.366 44.5625V44.4995L275.366 45.4995H242.5V43.4995ZM300.232 40.5625L308.232 44.5625L300.232 48.5625V40.5625Z"></path>
<path stroke-linejoin="round" stroke-miterlimit="10" stroke="#0B233F" fill="#F3F5F8" d="M617 15.667C617 7.56699 623.567 1 631.667 1H844.333C852.433 1 859 7.56699 859 15.667V74.333C859 82.433 852.433 89 844.333 89H631.667C623.567 89 617 82.433 617 74.333V15.667Z" clip-rule="evenodd" fill-rule="evenodd"></path>
<path fill="#0B233F" d="M640.543 52.5L638.911 48.2974H633.53L631.915 52.5H630.19L635.487 38.8809H637.027L642.315 52.5H640.543ZM638.4 46.7852L636.879 42.6753L636.229 40.6436C636.044 41.3857 635.849 42.063 635.645 42.6753L634.105 46.7852H638.4ZM647.566 52.6855C646.243 52.6855 645.216 52.2279 644.486 51.3125C643.756 50.3971 643.392 49.1014 643.392 47.4253C643.392 45.7616 643.756 44.4627 644.486 43.5288C645.222 42.5949 646.255 42.1279 647.585 42.1279C648.952 42.1279 650.003 42.6289 650.739 43.6309H650.86C650.841 43.5072 650.817 43.2598 650.786 42.8887C650.755 42.5114 650.739 42.2578 650.739 42.1279V38.0645H652.409V52.5H651.064L650.813 51.1362H650.739C650.028 52.1691 648.97 52.6855 647.566 52.6855ZM647.835 51.3032C648.85 51.3032 649.589 51.028 650.053 50.4775C650.523 49.9209 650.758 49.0117 650.758 47.75V47.4438C650.758 46.0275 650.52 45.0194 650.043 44.4194C649.573 43.8133 648.831 43.5103 647.817 43.5103C646.957 43.5103 646.292 43.8535 645.822 44.54C645.352 45.2204 645.117 46.1945 645.117 47.4624C645.117 48.7241 645.349 49.6797 645.813 50.3291C646.283 50.9785 646.957 51.3032 647.835 51.3032ZM659.256 52.6855C657.932 52.6855 656.906 52.2279 656.176 51.3125C655.446 50.3971 655.081 49.1014 655.081 47.4253C655.081 45.7616 655.446 44.4627 656.176 43.5288C656.912 42.5949 657.945 42.1279 659.274 42.1279C660.641 42.1279 661.693 42.6289 662.429 43.6309H662.549C662.531 43.5072 662.506 43.2598 662.475 42.8887C662.444 42.5114 662.429 42.2578 662.429 42.1279V38.0645H664.099V52.5H662.753L662.503 51.1362H662.429C661.717 52.1691 660.66 52.6855 659.256 52.6855ZM659.525 51.3032C660.539 51.3032 661.278 51.028 661.742 50.4775C662.212 49.9209 662.447 49.0117 662.447 47.75V47.4438C662.447 46.0275 662.209 45.0194 661.733 44.4194C661.263 43.8133 660.521 43.5103 659.506 43.5103C658.647 43.5103 657.982 43.8535 657.512 44.54C657.042 45.2204 656.807 46.1945 656.807 47.4624C656.807 48.7241 657.039 49.6797 657.502 50.3291C657.972 50.9785 658.647 51.3032 659.525 51.3032ZM678.311 40.2446C676.852 40.2446 675.705 40.7332 674.87 41.7104C674.035 42.6877 673.617 44.0236 673.617 45.7183C673.617 47.4686 674.022 48.82 674.832 49.7725C675.643 50.7188 676.796 51.1919 678.293 51.1919C679.258 51.1919 680.343 51.0125 681.549 50.6538V52.1382C680.974 52.3485 680.421 52.4907 679.889 52.5649C679.357 52.6453 678.744 52.6855 678.052 52.6855C676.054 52.6855 674.514 52.0794 673.432 50.8672C672.355 49.6488 671.817 47.9263 671.817 45.6997C671.817 44.3019 672.074 43.0773 672.587 42.0259C673.107 40.9744 673.858 40.1642 674.842 39.5952C675.831 39.0262 676.994 38.7417 678.33 38.7417C679.765 38.7417 681.014 39.0076 682.078 39.5396L681.392 40.9868C680.309 40.492 679.282 40.2446 678.311 40.2446ZM693.127 47.3882C693.127 49.0519 692.707 50.3507 691.866 51.2847C691.025 52.2186 689.862 52.6855 688.377 52.6855C687.456 52.6855 686.639 52.4722 685.928 52.0454C685.217 51.6125 684.67 50.994 684.286 50.1899C683.903 49.3859 683.711 48.452 683.711 47.3882C683.711 45.7306 684.125 44.4411 684.954 43.5195C685.783 42.5918 686.946 42.1279 688.442 42.1279C689.877 42.1279 691.015 42.6011 691.856 43.5474C692.704 44.4875 693.127 45.7677 693.127 47.3882ZM685.436 47.3882C685.436 48.6685 685.687 49.6426 686.188 50.3105C686.695 50.9723 687.44 51.3032 688.424 51.3032C689.395 51.3032 690.134 50.9723 690.641 50.3105C691.148 49.6426 691.402 48.6685 691.402 47.3882C691.402 46.1079 691.145 45.1462 690.632 44.5029C690.125 43.8535 689.379 43.5288 688.396 43.5288C686.423 43.5288 685.436 44.8153 685.436 47.3882ZM708.741 52.5V45.9409C708.741 44.3328 708.052 43.5288 706.672 43.5288C705.726 43.5288 705.03 43.804 704.585 44.3545C704.14 44.9049 703.917 45.7461 703.917 46.8779V52.5H702.256V45.9409C702.256 45.1369 702.086 44.5339 701.746 44.1318C701.412 43.7298 700.886 43.5288 700.169 43.5288C699.229 43.5288 698.539 43.8164 698.1 44.3916C697.667 44.9668 697.451 45.91 697.451 47.2212V52.5H695.781V42.3135H697.126L697.376 43.7051H697.469C697.76 43.2103 698.168 42.8237 698.694 42.5454C699.226 42.2671 699.819 42.1279 700.475 42.1279C702.071 42.1279 703.11 42.6969 703.592 43.835H703.685C704.013 43.2907 704.458 42.8701 705.021 42.5732C705.59 42.2764 706.233 42.1279 706.951 42.1279C708.101 42.1279 708.961 42.4248 709.53 43.0186C710.105 43.6123 710.393 44.5617 710.393 45.8667V52.5H708.741ZM718.38 52.6855C717.013 52.6855 715.962 52.1938 715.226 51.2104H715.115L715.152 51.5908C715.201 52.0732 715.226 52.5031 715.226 52.8804V57.0645H713.556V42.3135H714.929L715.152 43.7051H715.226C715.622 43.1484 716.08 42.7464 716.599 42.499C717.119 42.2516 717.719 42.1279 718.399 42.1279C719.722 42.1279 720.749 42.5887 721.479 43.5103C722.215 44.4256 722.583 45.7183 722.583 47.3882C722.583 49.0519 722.215 50.3507 721.479 51.2847C720.743 52.2186 719.71 52.6855 718.38 52.6855ZM718.102 43.5288C717.094 43.5288 716.364 43.8133 715.913 44.3823C715.467 44.9513 715.238 45.8451 715.226 47.0635V47.3882C715.226 48.7674 715.455 49.7663 715.913 50.3848C716.37 50.9971 717.112 51.3032 718.139 51.3032C718.993 51.3032 719.657 50.9569 720.134 50.2642C720.616 49.5715 720.857 48.6066 720.857 47.3696C720.857 46.1265 720.616 45.1771 720.134 44.5215C719.657 43.8597 718.98 43.5288 718.102 43.5288ZM734.096 47.3882C734.096 49.0519 733.676 50.3507 732.834 51.2847C731.993 52.2186 730.831 52.6855 729.346 52.6855C728.425 52.6855 727.608 52.4722 726.897 52.0454C726.186 51.6125 725.638 50.994 725.255 50.1899C724.871 49.3859 724.68 48.452 724.68 47.3882C724.68 45.7306 725.094 44.4411 725.923 43.5195C726.752 42.5918 727.914 42.1279 729.411 42.1279C730.846 42.1279 731.984 42.6011 732.825 43.5474C733.672 44.4875 734.096 45.7677 734.096 47.3882ZM726.405 47.3882C726.405 48.6685 726.656 49.6426 727.157 50.3105C727.664 50.9723 728.409 51.3032 729.393 51.3032C730.364 51.3032 731.103 50.9723 731.61 50.3105C732.117 49.6426 732.371 48.6685 732.371 47.3882C732.371 46.1079 732.114 45.1462 731.601 44.5029C731.093 43.8535 730.348 43.5288 729.365 43.5288C727.392 43.5288 726.405 44.8153 726.405 47.3882ZM743.689 52.5V45.9873C743.689 45.1585 743.503 44.5431 743.132 44.1411C742.767 43.7329 742.192 43.5288 741.407 43.5288C740.361 43.5288 739.601 43.8195 739.124 44.4009C738.654 44.9761 738.419 45.9162 738.419 47.2212V52.5H736.749V42.3135H738.095L738.345 43.7051H738.438C738.753 43.2041 739.196 42.8175 739.765 42.5454C740.334 42.2671 740.961 42.1279 741.648 42.1279C742.897 42.1279 743.825 42.431 744.431 43.0371C745.037 43.6432 745.34 44.5864 745.34 45.8667V52.5H743.689ZM752.827 52.6855C751.299 52.6855 750.1 52.2248 749.227 51.3032C748.362 50.3755 747.929 49.1014 747.929 47.481C747.929 45.8481 748.334 44.5493 749.144 43.5845C749.954 42.6134 751.049 42.1279 752.428 42.1279C753.708 42.1279 754.729 42.5423 755.49 43.3711C756.25 44.1937 756.631 45.3101 756.631 46.7202V47.7314H749.654C749.685 48.888 749.979 49.7663 750.536 50.3662C751.092 50.9661 751.881 51.2661 752.901 51.2661C753.446 51.2661 753.962 51.2197 754.451 51.127C754.939 51.028 755.511 50.8394 756.167 50.561V52.0269C755.604 52.2681 755.075 52.4382 754.581 52.5371C754.086 52.6361 753.501 52.6855 752.827 52.6855ZM752.41 43.4917C751.612 43.4917 750.981 43.7484 750.517 44.2617C750.053 44.7751 749.778 45.4894 749.691 46.4048H754.877C754.865 45.4523 754.645 44.7287 754.219 44.2339C753.792 43.7391 753.189 43.4917 752.41 43.4917ZM766.159 52.5V45.9873C766.159 45.1585 765.973 44.5431 765.602 44.1411C765.237 43.7329 764.662 43.5288 763.876 43.5288C762.831 43.5288 762.07 43.8195 761.594 44.4009C761.124 44.9761 760.889 45.9162 760.889 47.2212V52.5H759.219V42.3135H760.564L760.815 43.7051H760.908C761.223 43.2041 761.665 42.8175 762.234 42.5454C762.803 42.2671 763.431 42.1279 764.118 42.1279C765.367 42.1279 766.295 42.431 766.901 43.0371C767.507 43.6432 767.81 44.5864 767.81 45.8667V52.5H766.159ZM774.369 51.3218C774.586 51.3218 774.839 51.3001 775.13 51.2568C775.421 51.2135 775.64 51.1641 775.789 51.1084V52.3887C775.634 52.4567 775.393 52.5216 775.065 52.5835C774.743 52.6515 774.415 52.6855 774.081 52.6855C772.09 52.6855 771.094 51.6372 771.094 49.5405V43.6123H769.656V42.8145L771.113 42.1465L771.781 39.9756H772.773V42.3135H775.714V43.6123H772.773V49.4941C772.773 50.0817 772.913 50.5332 773.191 50.8486C773.475 51.1641 773.868 51.3218 774.369 51.3218ZM784.463 49.689C784.463 50.6414 784.107 51.3805 783.396 51.9062C782.685 52.4258 781.686 52.6855 780.399 52.6855C779.057 52.6855 777.99 52.4722 777.199 52.0454V50.5239C778.318 51.0682 779.397 51.3403 780.436 51.3403C781.278 51.3403 781.89 51.2043 782.273 50.9321C782.657 50.66 782.849 50.2951 782.849 49.8374C782.849 49.4354 782.663 49.0952 782.292 48.8169C781.927 48.5386 781.275 48.2201 780.334 47.8613C779.376 47.4902 778.702 47.1748 778.312 46.915C777.922 46.6491 777.635 46.3522 777.449 46.0244C777.27 45.6966 777.18 45.2977 777.18 44.8276C777.18 43.9927 777.52 43.334 778.201 42.8516C778.881 42.3691 779.815 42.1279 781.002 42.1279C782.159 42.1279 783.241 42.3568 784.249 42.8145L783.684 44.1411C782.651 43.7082 781.72 43.4917 780.891 43.4917C780.198 43.4917 779.673 43.603 779.314 43.8257C778.955 44.0422 778.776 44.3421 778.776 44.7256C778.776 45.0967 778.93 45.4059 779.24 45.6533C779.549 45.8945 780.269 46.2316 781.401 46.6646C782.249 46.98 782.873 47.2738 783.275 47.5459C783.684 47.818 783.984 48.1242 784.175 48.4644C784.367 48.8045 784.463 49.2127 784.463 49.689Z"></path>
<path stroke-linejoin="round" stroke-miterlimit="10" stroke="#0B233F" fill="#F3F5F8" d="M925 15.667C925 7.56699 931.57 1 939.67 1H1152.33C1160.43 1 1167 7.56699 1167 15.667V74.333C1167 82.433 1160.43 89 1152.33 89H939.67C931.57 89 925 82.433 925 74.333V15.667Z" clip-rule="evenodd" fill-rule="evenodd"></path>
<path fill="#0B233F" d="M950.162 38.9365V47.7129C950.162 49.2591 949.696 50.4744 948.762 51.3589C947.828 52.2433 946.532 52.6855 944.874 52.6855C943.235 52.6855 941.964 52.2402 941.061 51.3496C940.158 50.4528 939.707 49.2282 939.707 47.6758V38.9365H941.423V47.7314C941.423 48.8385 941.717 49.6951 942.305 50.3013C942.898 50.9074 943.789 51.2104 944.976 51.2104C946.096 51.2104 946.956 50.9105 947.556 50.3105C948.162 49.7106 948.465 48.8447 948.465 47.7129V38.9365H950.162ZM960.145 49.689C960.145 50.6414 959.789 51.3805 959.078 51.9062C958.367 52.4258 957.368 52.6855 956.081 52.6855C954.739 52.6855 953.672 52.4722 952.881 52.0454V50.5239C954 51.0682 955.079 51.3403 956.119 51.3403C956.96 51.3403 957.572 51.2043 957.955 50.9321C958.339 50.66 958.531 50.2951 958.531 49.8374C958.531 49.4354 958.345 49.0952 957.974 48.8169C957.609 48.5386 956.957 48.2201 956.016 47.8613C955.058 47.4902 954.384 47.1748 953.994 46.915C953.604 46.6491 953.317 46.3522 953.131 46.0244C952.952 45.6966 952.862 45.2977 952.862 44.8276C952.862 43.9927 953.202 43.334 953.883 42.8516C954.563 42.3691 955.497 42.1279 956.684 42.1279C957.841 42.1279 958.923 42.3568 959.932 42.8145L959.366 44.1411C958.333 43.7082 957.402 43.4917 956.573 43.4917C955.88 43.4917 955.355 43.603 954.996 43.8257C954.637 44.0422 954.458 44.3421 954.458 44.7256C954.458 45.0967 954.613 45.4059 954.922 45.6533C955.231 45.8945 955.952 46.2316 957.083 46.6646C957.931 46.98 958.555 47.2738 958.957 47.5459C959.366 47.818 959.666 48.1242 959.857 48.4644C960.049 48.8045 960.145 49.2127 960.145 49.689ZM966.954 52.6855C965.427 52.6855 964.227 52.2248 963.355 51.3032C962.489 50.3755 962.056 49.1014 962.056 47.481C962.056 45.8481 962.461 44.5493 963.271 43.5845C964.082 42.6134 965.176 42.1279 966.556 42.1279C967.836 42.1279 968.856 42.5423 969.617 43.3711C970.378 44.1937 970.758 45.3101 970.758 46.7202V47.7314H963.782C963.813 48.888 964.106 49.7663 964.663 50.3662C965.22 50.9661 966.008 51.2661 967.029 51.2661C967.573 51.2661 968.089 51.2197 968.578 51.127C969.067 51.028 969.639 50.8394 970.294 50.561V52.0269C969.731 52.2681 969.203 52.4382 968.708 52.5371C968.213 52.6361 967.629 52.6855 966.954 52.6855ZM966.537 43.4917C965.739 43.4917 965.108 43.7484 964.644 44.2617C964.181 44.7751 963.905 45.4894 963.819 46.4048H969.005C968.992 45.4523 968.773 44.7287 968.346 44.2339C967.919 43.7391 967.316 43.4917 966.537 43.4917ZM980.221 45.4492H982.253C983.354 45.4492 984.158 45.2327 984.665 44.7998C985.172 44.3669 985.426 43.7236 985.426 42.8701C985.426 42.0166 985.169 41.395 984.656 41.0054C984.142 40.6095 983.31 40.4116 982.16 40.4116H980.221V45.4492ZM980.221 46.8965V52.5H978.514V38.9365H982.253C983.935 38.9365 985.178 39.2581 985.982 39.9014C986.793 40.5384 987.198 41.5002 987.198 42.7866C987.198 44.5864 986.292 45.7987 984.479 46.4233L988.2 52.5H986.205L982.921 46.8965H980.221ZM991.771 52.5H990.101V42.3135H991.771V52.5ZM989.972 39.5581C989.972 39.187 990.064 38.918 990.25 38.751C990.442 38.584 990.677 38.5005 990.955 38.5005C991.215 38.5005 991.44 38.584 991.632 38.751C991.83 38.918 991.929 39.187 991.929 39.5581C991.929 39.923 991.83 40.1921 991.632 40.3652C991.44 40.5384 991.215 40.625 990.955 40.625C990.677 40.625 990.442 40.5384 990.25 40.3652C990.064 40.1921 989.972 39.923 989.972 39.5581ZM999.082 52.6855C997.616 52.6855 996.475 52.2371 995.659 51.3403C994.842 50.4373 994.434 49.1447 994.434 47.4624C994.434 45.7554 994.845 44.4411 995.668 43.5195C996.497 42.5918 997.675 42.1279 999.203 42.1279C999.697 42.1279 1000.19 42.1805 1000.67 42.2856C1001.16 42.3846 1001.56 42.5145 1001.87 42.6753L1001.36 44.0669C1000.5 43.7453 999.772 43.5845 999.165 43.5845C998.139 43.5845 997.381 43.9092 996.892 44.5586C996.404 45.2018 996.16 46.1636 996.16 47.4438C996.16 48.6746 996.404 49.6178 996.892 50.2734C997.381 50.9229 998.105 51.2476 999.063 51.2476C999.96 51.2476 1000.84 51.0496 1001.71 50.6538V52.1382C1001 52.5031 1000.13 52.6855 999.082 52.6855ZM1011.07 52.5V45.9873C1011.07 45.1585 1010.88 44.5431 1010.51 44.1411C1010.15 43.7329 1009.57 43.5288 1008.79 43.5288C1007.75 43.5288 1007 43.8164 1006.51 44.3916C1006.04 44.9668 1005.8 45.9162 1005.8 47.2397V52.5H1004.13V38.0645H1005.8V42.2949C1005.8 42.8516 1005.77 43.3278 1005.71 43.7236H1005.82C1006.12 43.2288 1006.55 42.8423 1007.11 42.564C1007.66 42.2856 1008.29 42.1465 1008.99 42.1465C1010.23 42.1465 1011.16 42.4434 1011.78 43.0371C1012.41 43.6247 1012.72 44.5679 1012.72 45.8667V52.5H1011.07ZM1025.34 52.5H1023.62V40.4395H1019.38V38.9365H1029.55V40.4395H1025.34V52.5ZM1035.07 52.6855C1033.54 52.6855 1032.34 52.2248 1031.47 51.3032C1030.6 50.3755 1030.17 49.1014 1030.17 47.481C1030.17 45.8481 1030.58 44.5493 1031.39 43.5845C1032.2 42.6134 1033.29 42.1279 1034.67 42.1279C1035.95 42.1279 1036.97 42.5423 1037.73 43.3711C1038.49 44.1937 1038.87 45.3101 1038.87 46.7202V47.7314H1031.9C1031.93 48.888 1032.22 49.7663 1032.78 50.3662C1033.33 50.9661 1034.12 51.2661 1035.14 51.2661C1035.69 51.2661 1036.2 51.2197 1036.69 51.127C1037.18 51.028 1037.75 50.8394 1038.41 50.561V52.0269C1037.85 52.2681 1037.32 52.4382 1036.82 52.5371C1036.33 52.6361 1035.74 52.6855 1035.07 52.6855ZM1034.65 43.4917C1033.85 43.4917 1033.22 43.7484 1032.76 44.2617C1032.29 44.7751 1032.02 45.4894 1031.93 46.4048H1037.12C1037.11 45.4523 1036.89 44.7287 1036.46 44.2339C1036.03 43.7391 1035.43 43.4917 1034.65 43.4917ZM1043.69 47.2954L1040.17 42.3135H1042.07L1044.7 46.1543L1047.3 42.3135H1049.18L1045.66 47.2954L1049.37 52.5H1047.47L1044.7 48.4365L1041.89 52.5H1040L1043.69 47.2954ZM1054.74 51.3218C1054.95 51.3218 1055.21 51.3001 1055.5 51.2568C1055.79 51.2135 1056.01 51.1641 1056.16 51.1084V52.3887C1056 52.4567 1055.76 52.5216 1055.43 52.5835C1055.11 52.6515 1054.78 52.6855 1054.45 52.6855C1052.46 52.6855 1051.46 51.6372 1051.46 49.5405V43.6123H1050.02V42.8145L1051.48 42.1465L1052.15 39.9756H1053.14V42.3135H1056.08V43.6123H1053.14V49.4941C1053.14 50.0817 1053.28 50.5332 1053.56 50.8486C1053.84 51.1641 1054.24 51.3218 1054.74 51.3218Z"></path>
<path fill="#E96969" d="M550.5 43.4995H583.366C583.918 43.4995 584.366 43.9475 584.366 44.4995V44.5625L583.366 43.5625H609.566V45.5625H583.366C582.814 45.5625 582.366 45.1145 582.366 44.5625V44.4995L583.366 45.4995H550.5V43.4995ZM608.232 40.5625L616.232 44.5625L608.232 48.5625V40.5625Z"></path>
<path fill="#E96969" d="M858.5 43.4995H891.366C891.918 43.4995 892.366 43.9475 892.366 44.4995V44.5625L891.366 43.5625H917.566V45.5625H891.366C890.814 45.5625 890.366 45.1145 890.366 44.5625V44.4995L891.366 45.4995H858.5V43.4995ZM916.232 40.5625L924.232 44.5625L916.232 48.5625V40.5625Z"></path>
</svg>
