<svg xmlns="http://www.w3.org/2000/svg" fill="none" viewBox="0 0 860 90" height="90" width="860">
<path stroke-linejoin="round" stroke-miterlimit="10" stroke="#0B233F" fill="#0B233F" d="M1 15.667C1 7.56699 7.5665 1 15.6668 1H228.333C236.433 1 243 7.56699 243 15.667V74.333C243 82.433 236.433 89 228.333 89H15.6668C7.5665 89 1 82.433 1 74.333V15.667Z" clip-rule="evenodd" fill-rule="evenodd"></path>
<path fill="white" d="M27.3888 29.5H24.5221V23.646H19.1505V29.5H16.2745V15.9365H19.1505V21.2524H24.5221V15.9365H27.3888V29.5ZM32.8531 24.2954C32.8531 25.3221 33.0201 26.0983 33.3541 26.624C33.6943 27.1497 34.2448 27.4126 35.0055 27.4126C35.7601 27.4126 36.3012 27.1528 36.629 26.6333C36.963 26.1076 37.13 25.3283 37.13 24.2954C37.13 23.2687 36.963 22.4987 36.629 21.9854C36.295 21.472 35.7477 21.2153 34.9869 21.2153C34.2324 21.2153 33.6881 21.472 33.3541 21.9854C33.0201 22.4925 32.8531 23.2625 32.8531 24.2954ZM40.0245 24.2954C40.0245 25.9839 39.5792 27.3044 38.6886 28.2568C37.798 29.2093 36.5579 29.6855 34.9684 29.6855C33.9726 29.6855 33.0944 29.4691 32.3336 29.0361C31.5729 28.597 30.9884 27.9692 30.5802 27.1528C30.172 26.3364 29.9679 25.384 29.9679 24.2954C29.9679 22.6007 30.4101 21.2834 31.2946 20.3433C32.179 19.4032 33.4222 18.9331 35.024 18.9331C36.0198 18.9331 36.8981 19.1496 37.6588 19.5825C38.4196 20.0155 39.004 20.637 39.4122 21.4473C39.8204 22.2575 40.0245 23.2069 40.0245 24.2954ZM50.7028 29.5L49.9049 25.8726L48.8473 21.2896H48.7638L46.8712 29.5H43.8282L40.8781 19.1279H43.6984L44.8951 23.7202C45.0312 24.2645 45.2198 25.3994 45.4611 27.125H45.5353C45.56 26.6549 45.6683 25.9097 45.86 24.8892L46.0084 24.1006L47.2887 19.1279H50.4059L51.6212 24.1006C51.6954 24.4408 51.7851 24.9417 51.8903 25.6035C52.0016 26.2591 52.0634 26.7663 52.0758 27.125H52.15C52.2181 26.5745 52.3139 25.9499 52.4376 25.251C52.5613 24.5459 52.6665 24.0356 52.7531 23.7202L53.9962 19.1279H56.7701L53.7828 29.5H50.7028ZM67.7545 27.4312C68.2493 27.4312 68.8431 27.3229 69.5358 27.1064V29.2124C68.8307 29.5278 67.9648 29.6855 66.9381 29.6855C65.8063 29.6855 64.9806 29.401 64.4611 28.832C63.9477 28.2568 63.691 27.3971 63.691 26.2529V21.2524H62.3365V20.0557L63.8951 19.1094L64.7115 16.9199H66.5206V19.1279H69.4244V21.2524H66.5206V26.2529C66.5206 26.6549 66.632 26.9518 66.8546 27.1436C67.0835 27.3353 67.3834 27.4312 67.7545 27.4312ZM73.8961 24.2954C73.8961 25.3221 74.0631 26.0983 74.3971 26.624C74.7373 27.1497 75.2877 27.4126 76.0485 27.4126C76.803 27.4126 77.3442 27.1528 77.672 26.6333C78.006 26.1076 78.173 25.3283 78.173 24.2954C78.173 23.2687 78.006 22.4987 77.672 21.9854C77.338 21.472 76.7906 21.2153 76.0299 21.2153C75.2753 21.2153 74.7311 21.472 74.3971 21.9854C74.0631 22.4925 73.8961 23.2625 73.8961 24.2954ZM81.0675 24.2954C81.0675 25.9839 80.6222 27.3044 79.7316 28.2568C78.8409 29.2093 77.6009 29.6855 76.0114 29.6855C75.0156 29.6855 74.1373 29.4691 73.3766 29.0361C72.6158 28.597 72.0314 27.9692 71.6232 27.1528C71.215 26.3364 71.0109 25.384 71.0109 24.2954C71.0109 22.6007 71.4531 21.2834 72.3375 20.3433C73.222 19.4032 74.4651 18.9331 76.067 18.9331C77.0628 18.9331 77.941 19.1496 78.7018 19.5825C79.4625 20.0155 80.047 20.637 80.4552 21.4473C80.8634 22.2575 81.0675 23.2069 81.0675 24.2954ZM95.5773 26.4199C95.5773 27.4837 95.2062 28.2939 94.464 28.8506C93.728 29.4072 92.624 29.6855 91.152 29.6855C90.3974 29.6855 89.7542 29.633 89.2223 29.5278C88.6904 29.4289 88.1925 29.2804 87.7286 29.0825V26.7446C88.2544 26.992 88.845 27.1992 89.5006 27.3662C90.1624 27.5332 90.7438 27.6167 91.2448 27.6167C92.2714 27.6167 92.7848 27.3198 92.7848 26.7261C92.7848 26.5034 92.7168 26.3241 92.5807 26.188C92.4446 26.0457 92.2096 25.888 91.8756 25.7148C91.5416 25.5355 91.0963 25.3283 90.5397 25.0933C89.7418 24.7593 89.1543 24.45 88.777 24.1655C88.4059 23.881 88.1337 23.5563 87.9606 23.1914C87.7936 22.8203 87.7101 22.3657 87.7101 21.8276C87.7101 20.9061 88.0657 20.1948 88.777 19.6938C89.4944 19.1867 90.5087 18.9331 91.8199 18.9331C93.0693 18.9331 94.2846 19.2052 95.4659 19.7495L94.6124 21.7905C94.0929 21.5679 93.6074 21.3854 93.1559 21.2432C92.7044 21.1009 92.2436 21.0298 91.7736 21.0298C90.9386 21.0298 90.5211 21.2555 90.5211 21.707C90.5211 21.9606 90.6541 22.1802 90.92 22.3657C91.1922 22.5513 91.7828 22.8265 92.692 23.1914C93.5022 23.5192 94.096 23.8254 94.4733 24.1099C94.8505 24.3944 95.1289 24.7222 95.3082 25.0933C95.4876 25.4644 95.5773 25.9066 95.5773 26.4199ZM105.133 29.5L104.753 28.1733H104.604C104.301 28.6558 103.871 29.0299 103.315 29.2959C102.758 29.5557 102.124 29.6855 101.413 29.6855C100.194 29.6855 99.2758 29.3608 98.6573 28.7114C98.0389 28.0558 97.7296 27.1157 97.7296 25.8911V19.1279H100.559V25.186C100.559 25.9344 100.692 26.4972 100.958 26.8745C101.224 27.2456 101.648 27.4312 102.229 27.4312C103.021 27.4312 103.593 27.1683 103.945 26.6426C104.298 26.1107 104.474 25.2324 104.474 24.0078V19.1279H107.304V29.5H105.133ZM116.043 18.9331C117.268 18.9331 118.226 19.4124 118.919 20.3711C119.612 21.3236 119.958 22.6317 119.958 24.2954C119.958 26.0086 119.599 27.3353 118.882 28.2754C118.171 29.2155 117.2 29.6855 115.969 29.6855C114.75 29.6855 113.795 29.2433 113.102 28.3589H112.907L112.434 29.5H110.273V15.0645H113.102V18.4229C113.102 18.8496 113.065 19.533 112.991 20.4731H113.102C113.764 19.4465 114.744 18.9331 116.043 18.9331ZM115.134 21.1968C114.435 21.1968 113.925 21.4132 113.603 21.8462C113.282 22.2729 113.115 22.9811 113.102 23.9707V24.2769C113.102 25.3901 113.266 26.188 113.594 26.6704C113.928 27.1528 114.454 27.394 115.171 27.394C115.752 27.394 116.213 27.1281 116.553 26.5962C116.9 26.0581 117.073 25.2788 117.073 24.2583C117.073 23.2378 116.9 22.474 116.553 21.9668C116.207 21.4535 115.734 21.1968 115.134 21.1968ZM131.583 29.5H128.753V23.4419C128.753 22.6935 128.626 22.1338 128.373 21.7627C128.125 21.3854 127.733 21.1968 127.194 21.1968C126.471 21.1968 125.945 21.4627 125.617 21.9946C125.29 22.5265 125.126 23.4017 125.126 24.6201V29.5H122.296V19.1279H124.458L124.838 20.4546H124.996C125.274 19.9784 125.676 19.6073 126.202 19.3413C126.727 19.0692 127.331 18.9331 128.011 18.9331C129.563 18.9331 130.615 19.4403 131.165 20.4546H131.416C131.694 19.9722 132.102 19.598 132.64 19.332C133.185 19.0661 133.797 18.9331 134.477 18.9331C135.652 18.9331 136.54 19.2362 137.14 19.8423C137.746 20.4422 138.049 21.4071 138.049 22.7368V29.5H135.21V23.4419C135.21 22.6935 135.083 22.1338 134.83 21.7627C134.582 21.3854 134.19 21.1968 133.651 21.1968C132.959 21.1968 132.439 21.4442 132.093 21.939C131.753 22.4338 131.583 23.2192 131.583 24.2954V29.5ZM140.841 16.4468C140.841 15.5252 141.355 15.0645 142.381 15.0645C143.408 15.0645 143.922 15.5252 143.922 16.4468C143.922 16.8859 143.792 17.2292 143.532 17.4766C143.278 17.7178 142.895 17.8384 142.381 17.8384C141.355 17.8384 140.841 17.3745 140.841 16.4468ZM143.792 29.5H140.962V19.1279H143.792V29.5ZM151.139 27.4312C151.634 27.4312 152.228 27.3229 152.921 27.1064V29.2124C152.215 29.5278 151.35 29.6855 150.323 29.6855C149.191 29.6855 148.365 29.401 147.846 28.832C147.332 28.2568 147.076 27.3971 147.076 26.2529V21.2524H145.721V20.0557L147.28 19.1094L148.096 16.9199H149.905V19.1279H152.809V21.2524H149.905V26.2529C149.905 26.6549 150.017 26.9518 150.239 27.1436C150.468 27.3353 150.768 27.4312 151.139 27.4312Z"></path>
<path fill="white" d="M22.0172 51.5L18.7516 40.8589H18.6681C18.7856 43.0236 18.8444 44.4678 18.8444 45.1914V51.5H16.2745V37.9365H20.1896L23.3995 48.3086H23.4552L26.86 37.9365H30.775V51.5H28.0939V45.0801C28.0939 44.777 28.097 44.4276 28.1031 44.0317C28.1155 43.6359 28.1588 42.5845 28.233 40.8774H28.1495L24.652 51.5H22.0172ZM36.2301 46.2954C36.2301 47.3221 36.3971 48.0983 36.7311 48.624C37.0712 49.1497 37.6217 49.4126 38.3824 49.4126C39.137 49.4126 39.6782 49.1528 40.006 48.6333C40.34 48.1076 40.507 47.3283 40.507 46.2954C40.507 45.2687 40.34 44.4987 40.006 43.9854C39.672 43.472 39.1246 43.2153 38.3639 43.2153C37.6093 43.2153 37.0651 43.472 36.7311 43.9854C36.3971 44.4925 36.2301 45.2625 36.2301 46.2954ZM43.4015 46.2954C43.4015 47.9839 42.9562 49.3044 42.0656 50.2568C41.1749 51.2093 39.9349 51.6855 38.3453 51.6855C37.3496 51.6855 36.4713 51.4691 35.7106 51.0361C34.9498 50.597 34.3654 49.9692 33.9572 49.1528C33.549 48.3364 33.3448 47.384 33.3448 46.2954C33.3448 44.6007 33.7871 43.2834 34.6715 42.3433C35.5559 41.4032 36.7991 40.9331 38.401 40.9331C39.3968 40.9331 40.275 41.1496 41.0358 41.5825C41.7965 42.0155 42.381 42.637 42.7892 43.4473C43.1974 44.2575 43.4015 45.2069 43.4015 46.2954ZM49.0236 51.6855C47.8051 51.6855 46.8465 51.2124 46.1476 50.2661C45.4549 49.3198 45.1085 48.0086 45.1085 46.3325C45.1085 44.6317 45.4611 43.3081 46.1661 42.3618C46.8774 41.4093 47.8546 40.9331 49.0978 40.9331C50.4028 40.9331 51.3986 41.4403 52.0851 42.4546H52.1779C52.0356 41.6815 51.9645 40.9919 51.9645 40.3857V37.0645H54.8033V51.5H52.6324L52.0851 50.1548H51.9645C51.3212 51.1753 50.3409 51.6855 49.0236 51.6855ZM50.0162 49.4312C50.7399 49.4312 51.2687 49.2209 51.6027 48.8003C51.9428 48.3797 52.1284 47.6654 52.1593 46.6572V46.3511C52.1593 45.2378 51.9861 44.4399 51.6398 43.9575C51.2996 43.4751 50.743 43.2339 49.9698 43.2339C49.339 43.2339 48.8473 43.5029 48.4948 44.041C48.1484 44.5729 47.9752 45.3491 47.9752 46.3696C47.9752 47.3901 48.1515 48.1571 48.504 48.6704C48.8566 49.1776 49.3606 49.4312 50.0162 49.4312ZM65.1105 51.5L64.7301 50.1733H64.5817C64.2786 50.6558 63.8488 51.0299 63.2921 51.2959C62.7355 51.5557 62.1015 51.6855 61.3903 51.6855C60.1718 51.6855 59.2534 51.3608 58.6349 50.7114C58.0164 50.0558 57.7072 49.1157 57.7072 47.8911V41.1279H60.5367V47.186C60.5367 47.9344 60.6697 48.4972 60.9357 48.8745C61.2016 49.2456 61.6253 49.4312 62.2067 49.4312C62.9983 49.4312 63.5704 49.1683 63.923 48.6426C64.2755 48.1107 64.4518 47.2324 64.4518 46.0078V41.1279H67.2814V51.5H65.1105ZM73.0797 51.5H70.2501V37.0645H73.0797V51.5ZM80.3531 42.9463C79.7532 42.9463 79.2832 43.138 78.943 43.5215C78.6028 43.8988 78.408 44.4368 78.3585 45.1357H82.3292C82.3169 44.4368 82.1344 43.8988 81.7819 43.5215C81.4293 43.138 80.9531 42.9463 80.3531 42.9463ZM80.7521 51.6855C79.0822 51.6855 77.7771 51.2248 76.837 50.3032C75.8969 49.3817 75.4269 48.0767 75.4269 46.3882C75.4269 44.6502 75.8598 43.3081 76.7257 42.3618C77.5978 41.4093 78.8007 40.9331 80.3346 40.9331C81.8004 40.9331 82.9415 41.3506 83.7579 42.1855C84.5743 43.0205 84.9825 44.174 84.9825 45.646V47.019H78.2936C78.3245 47.8231 78.5626 48.4508 79.0079 48.9023C79.4532 49.3538 80.0779 49.5796 80.882 49.5796C81.5066 49.5796 82.0973 49.5146 82.6539 49.3848C83.2106 49.2549 83.792 49.0477 84.3981 48.7632V50.9526C83.9033 51.2 83.3745 51.3825 82.8116 51.5C82.2488 51.6237 81.5623 51.6855 80.7521 51.6855ZM94.5197 48.4199C94.5197 49.4837 94.1486 50.2939 93.4064 50.8506C92.6704 51.4072 91.5664 51.6855 90.0944 51.6855C89.3398 51.6855 88.6966 51.633 88.1647 51.5278C87.6328 51.4289 87.1349 51.2804 86.671 51.0825V48.7446C87.1967 48.992 87.7874 49.1992 88.443 49.3662C89.1048 49.5332 89.6862 49.6167 90.1871 49.6167C91.2138 49.6167 91.7272 49.3198 91.7272 48.7261C91.7272 48.5034 91.6591 48.3241 91.5231 48.188C91.387 48.0457 91.152 47.888 90.818 47.7148C90.484 47.5355 90.0387 47.3283 89.4821 47.0933C88.6842 46.7593 88.0966 46.45 87.7194 46.1655C87.3483 45.881 87.0761 45.5563 86.903 45.1914C86.736 44.8203 86.6525 44.3657 86.6525 43.8276C86.6525 42.9061 87.0081 42.1948 87.7194 41.6938C88.4368 41.1867 89.4511 40.9331 90.7623 40.9331C92.0117 40.9331 93.227 41.2052 94.4083 41.7495L93.5548 43.7905C93.0353 43.5679 92.5498 43.3854 92.0983 43.2432C91.6468 43.1009 91.186 43.0298 90.7159 43.0298C89.881 43.0298 89.4635 43.2555 89.4635 43.707C89.4635 43.9606 89.5965 44.1802 89.8624 44.3657C90.1346 44.5513 90.7252 44.8265 91.6344 45.1914C92.4446 45.5192 93.0384 45.8254 93.4156 46.1099C93.7929 46.3944 94.0712 46.7222 94.2506 47.0933C94.43 47.4644 94.5197 47.9066 94.5197 48.4199ZM106.033 49.4312C106.528 49.4312 107.121 49.3229 107.814 49.1064V51.2124C107.109 51.5278 106.243 51.6855 105.216 51.6855C104.085 51.6855 103.259 51.401 102.739 50.832C102.226 50.2568 101.969 49.3971 101.969 48.2529V43.2524H100.615V42.0557L102.173 41.1094L102.99 38.9199H104.799V41.1279H107.703V43.2524H104.799V48.2529C104.799 48.6549 104.91 48.9518 105.133 49.1436C105.362 49.3353 105.662 49.4312 106.033 49.4312ZM112.174 46.2954C112.174 47.3221 112.341 48.0983 112.675 48.624C113.016 49.1497 113.566 49.4126 114.327 49.4126C115.081 49.4126 115.623 49.1528 115.95 48.6333C116.284 48.1076 116.451 47.3283 116.451 46.2954C116.451 45.2687 116.284 44.4987 115.95 43.9854C115.616 43.472 115.069 43.2153 114.308 43.2153C113.554 43.2153 113.009 43.472 112.675 43.9854C112.341 44.4925 112.174 45.2625 112.174 46.2954ZM119.346 46.2954C119.346 47.9839 118.901 49.3044 118.01 50.2568C117.119 51.2093 115.879 51.6855 114.29 51.6855C113.294 51.6855 112.416 51.4691 111.655 51.0361C110.894 50.597 110.31 49.9692 109.901 49.1528C109.493 48.3364 109.289 47.384 109.289 46.2954C109.289 44.6007 109.731 43.2834 110.616 42.3433C111.5 41.4032 112.743 40.9331 114.345 40.9331C115.341 40.9331 116.219 41.1496 116.98 41.5825C117.741 42.0155 118.325 42.637 118.734 43.4473C119.142 44.2575 119.346 45.2069 119.346 46.2954Z"></path>
<path fill="white" d="M22.0358 62.1353C20.9534 62.1353 20.1154 62.5435 19.5216 63.3599C18.9279 64.1701 18.631 65.3019 18.631 66.7554C18.631 69.7798 19.7659 71.292 22.0358 71.292C22.9882 71.292 24.1417 71.0539 25.4962 70.5776V72.9897C24.3829 73.4536 23.1398 73.6855 21.7667 73.6855C19.7937 73.6855 18.2846 73.0887 17.2394 71.895C16.1941 70.6951 15.6715 68.9757 15.6715 66.7368C15.6715 65.3267 15.9282 64.0928 16.4415 63.0352C16.9549 61.9714 17.6909 61.158 18.6495 60.5952C19.6144 60.0262 20.7431 59.7417 22.0358 59.7417C23.3531 59.7417 24.6767 60.0602 26.0065 60.6973L25.0787 63.0352C24.5716 62.7939 24.0613 62.5837 23.548 62.4043C23.0346 62.2249 22.5306 62.1353 22.0358 62.1353ZM30.4225 68.2954C30.4225 69.3221 30.5895 70.0983 30.9235 70.624C31.2636 71.1497 31.8141 71.4126 32.5748 71.4126C33.3294 71.4126 33.8706 71.1528 34.1984 70.6333C34.5323 70.1076 34.6993 69.3283 34.6993 68.2954C34.6993 67.2687 34.5323 66.4987 34.1984 65.9854C33.8644 65.472 33.317 65.2153 32.5563 65.2153C31.8017 65.2153 31.2574 65.472 30.9235 65.9854C30.5895 66.4925 30.4225 67.2625 30.4225 68.2954ZM37.5939 68.2954C37.5939 69.9839 37.1486 71.3044 36.2579 72.2568C35.3673 73.2093 34.1272 73.6855 32.5377 73.6855C31.542 73.6855 30.6637 73.4691 29.903 73.0361C29.1422 72.597 28.5577 71.9692 28.1495 71.1528C27.7413 70.3364 27.5372 69.384 27.5372 68.2954C27.5372 66.6007 27.9795 65.2834 28.8639 64.3433C29.7483 63.4032 30.9915 62.9331 32.5934 62.9331C33.5892 62.9331 34.4674 63.1496 35.2281 63.5825C35.9889 64.0155 36.5734 64.637 36.9816 65.4473C37.3898 66.2575 37.5939 67.2069 37.5939 68.2954ZM49.2184 73.5H46.3888V67.4419C46.3888 66.6935 46.262 66.1338 46.0084 65.7627C45.761 65.3854 45.3683 65.1968 44.8302 65.1968C44.1066 65.1968 43.5809 65.4627 43.2531 65.9946C42.9253 66.5265 42.7614 67.4017 42.7614 68.6201V73.5H39.9318V63.1279H42.0934L42.4738 64.4546H42.6315C42.9098 63.9784 43.3118 63.6073 43.8375 63.3413C44.3632 63.0692 44.9663 62.9331 45.6466 62.9331C47.199 62.9331 48.2504 63.4403 48.8009 64.4546H49.0514C49.3297 63.9722 49.7379 63.598 50.276 63.332C50.8203 63.0661 51.4326 62.9331 52.1129 62.9331C53.288 62.9331 54.1756 63.2362 54.7755 63.8423C55.3816 64.4422 55.6847 65.4071 55.6847 66.7368V73.5H52.8458V67.4419C52.8458 66.6935 52.719 66.1338 52.4655 65.7627C52.2181 65.3854 51.8253 65.1968 51.2872 65.1968C50.5945 65.1968 50.075 65.4442 49.7286 65.939C49.3885 66.4338 49.2184 67.2192 49.2184 68.2954V73.5ZM67.8844 73.5H65.0548V67.4419C65.0548 66.6935 64.928 66.1338 64.6744 65.7627C64.427 65.3854 64.0343 65.1968 63.4962 65.1968C62.7726 65.1968 62.2469 65.4627 61.9191 65.9946C61.5913 66.5265 61.4274 67.4017 61.4274 68.6201V73.5H58.5978V63.1279H60.7594L61.1398 64.4546H61.2975C61.5758 63.9784 61.9778 63.6073 62.5035 63.3413C63.0293 63.0692 63.6323 62.9331 64.3126 62.9331C65.865 62.9331 66.9165 63.4403 67.4669 64.4546H67.7174C67.9957 63.9722 68.4039 63.598 68.942 63.332C69.4863 63.0661 70.0986 62.9331 70.7789 62.9331C71.9541 62.9331 72.8416 63.2362 73.4415 63.8423C74.0476 64.4422 74.3507 65.4071 74.3507 66.7368V73.5H71.5118V67.4419C71.5118 66.6935 71.3851 66.1338 71.1315 65.7627C70.8841 65.3854 70.4913 65.1968 69.9532 65.1968C69.2605 65.1968 68.741 65.4442 68.3947 65.939C68.0545 66.4338 67.8844 67.2192 67.8844 68.2954V73.5ZM84.6115 73.5L84.2311 72.1733H84.0826C83.7796 72.6558 83.3497 73.0299 82.7931 73.2959C82.2365 73.5557 81.6025 73.6855 80.8912 73.6855C79.6728 73.6855 78.7544 73.3608 78.1359 72.7114C77.5174 72.0558 77.2081 71.1157 77.2081 69.8911V63.1279H80.0377V69.186C80.0377 69.9344 80.1707 70.4972 80.4366 70.8745C80.7026 71.2456 81.1263 71.4312 81.7076 71.4312C82.4993 71.4312 83.0714 71.1683 83.424 70.6426C83.7765 70.1107 83.9528 69.2324 83.9528 68.0078V63.1279H86.7823V73.5H84.6115ZM99.3253 73.5H96.4957V67.4419C96.4957 66.6935 96.3628 66.1338 96.0968 65.7627C95.8309 65.3854 95.4072 65.1968 94.8258 65.1968C94.0341 65.1968 93.462 65.4627 93.1095 65.9946C92.757 66.5203 92.5807 67.3955 92.5807 68.6201V73.5H89.7511V63.1279H91.9127L92.2931 64.4546H92.4508C92.7662 63.9536 93.1992 63.5763 93.7496 63.3228C94.3063 63.063 94.9371 62.9331 95.6422 62.9331C96.8483 62.9331 97.7636 63.2609 98.3883 63.9165C99.013 64.5659 99.3253 65.506 99.3253 66.7368V73.5ZM102.118 60.4468C102.118 59.5252 102.631 59.0645 103.658 59.0645C104.685 59.0645 105.198 59.5252 105.198 60.4468C105.198 60.8859 105.068 61.2292 104.808 61.4766C104.555 61.7178 104.171 61.8384 103.658 61.8384C102.631 61.8384 102.118 61.3745 102.118 60.4468ZM105.068 73.5H102.238V63.1279H105.068V73.5ZM112.416 71.4312C112.91 71.4312 113.504 71.3229 114.197 71.1064V73.2124C113.492 73.5278 112.626 73.6855 111.599 73.6855C110.467 73.6855 109.642 73.401 109.122 72.832C108.609 72.2568 108.352 71.3971 108.352 70.2529V65.2524H106.998V64.0557L108.556 63.1094L109.373 60.9199H111.182V63.1279H114.086V65.2524H111.182V70.2529C111.182 70.6549 111.293 70.9518 111.516 71.1436C111.745 71.3353 112.045 71.4312 112.416 71.4312ZM114.818 63.1279H117.917L119.875 68.9634C120.042 69.4705 120.156 70.0705 120.218 70.7632H120.274C120.342 70.1261 120.475 69.5262 120.672 68.9634L122.593 63.1279H125.627L121.238 74.8267C120.836 75.909 120.261 76.7192 119.513 77.2573C118.771 77.7954 117.902 78.0645 116.906 78.0645C116.417 78.0645 115.938 78.0119 115.468 77.9067V75.6616C115.808 75.742 116.179 75.7822 116.581 75.7822C117.082 75.7822 117.518 75.6276 117.889 75.3184C118.267 75.0153 118.56 74.5545 118.771 73.936L118.938 73.4258L114.818 63.1279ZM137.427 65.8833H142.808V72.9155C141.936 73.2 141.114 73.3979 140.34 73.5093C139.574 73.6268 138.788 73.6855 137.984 73.6855C135.937 73.6855 134.372 73.0856 133.29 71.8857C132.214 70.6797 131.675 68.951 131.675 66.6997C131.675 64.5103 132.3 62.8032 133.549 61.5786C134.805 60.354 136.543 59.7417 138.763 59.7417C140.155 59.7417 141.497 60.02 142.79 60.5767L141.834 62.8774C140.845 62.3826 139.815 62.1353 138.745 62.1353C137.502 62.1353 136.506 62.5527 135.757 63.3877C135.009 64.2227 134.635 65.3452 134.635 66.7554C134.635 68.2274 134.935 69.353 135.535 70.1323C136.141 70.9054 137.019 71.292 138.17 71.292C138.769 71.292 139.379 71.2301 139.997 71.1064V68.2769H137.427V65.8833ZM152.41 73.5L151.863 72.0898H151.789C151.312 72.6898 150.821 73.1073 150.314 73.3423C149.813 73.5711 149.157 73.6855 148.347 73.6855C147.351 73.6855 146.566 73.401 145.99 72.832C145.421 72.263 145.137 71.4528 145.137 70.4014C145.137 69.3005 145.52 68.4902 146.287 67.9707C147.06 67.445 148.223 67.1543 149.776 67.0986L151.575 67.043V66.5884C151.575 65.5369 151.037 65.0112 149.961 65.0112C149.132 65.0112 148.158 65.2617 147.039 65.7627L146.102 63.8516C147.295 63.2269 148.619 62.9146 150.072 62.9146C151.464 62.9146 152.531 63.2176 153.273 63.8237C154.015 64.4299 154.386 65.3514 154.386 66.5884V73.5H152.41ZM151.575 68.6943L150.481 68.7314C149.658 68.7562 149.046 68.9046 148.644 69.1768C148.242 69.4489 148.041 69.8633 148.041 70.4199C148.041 71.2178 148.498 71.6167 149.414 71.6167C150.069 71.6167 150.592 71.4281 150.982 71.0508C151.377 70.6735 151.575 70.1725 151.575 69.5479V68.6943ZM160.138 73.5H157.309V59.0645H160.138V73.5ZM165.946 73.5H163.116V59.0645H165.946V73.5ZM173.219 64.9463C172.619 64.9463 172.149 65.138 171.809 65.5215C171.469 65.8988 171.274 66.4368 171.225 67.1357H175.195C175.183 66.4368 175.001 65.8988 174.648 65.5215C174.296 65.138 173.819 64.9463 173.219 64.9463ZM173.618 73.6855C171.948 73.6855 170.643 73.2248 169.703 72.3032C168.763 71.3817 168.293 70.0767 168.293 68.3882C168.293 66.6502 168.726 65.3081 169.592 64.3618C170.464 63.4093 171.667 62.9331 173.201 62.9331C174.667 62.9331 175.808 63.3506 176.624 64.1855C177.441 65.0205 177.849 66.174 177.849 67.646V69.019H171.16C171.191 69.8231 171.429 70.4508 171.874 70.9023C172.319 71.3538 172.944 71.5796 173.748 71.5796C174.373 71.5796 174.964 71.5146 175.52 71.3848C176.077 71.2549 176.658 71.0477 177.264 70.7632V72.9526C176.769 73.2 176.241 73.3825 175.678 73.5C175.115 73.6237 174.429 73.6855 173.618 73.6855ZM185.939 62.9331C186.322 62.9331 186.641 62.9609 186.894 63.0166L186.681 65.6699C186.452 65.6081 186.174 65.5771 185.846 65.5771C184.943 65.5771 184.238 65.8091 183.731 66.2729C183.23 66.7368 182.979 67.3862 182.979 68.2212V73.5H180.15V63.1279H182.293L182.71 64.8721H182.849C183.171 64.2907 183.604 63.8237 184.148 63.4712C184.699 63.1125 185.295 62.9331 185.939 62.9331ZM187.293 63.1279H190.392L192.349 68.9634C192.516 69.4705 192.631 70.0705 192.693 70.7632H192.748C192.816 70.1261 192.949 69.5262 193.147 68.9634L195.068 63.1279H198.101L193.713 74.8267C193.311 75.909 192.736 76.7192 191.987 77.2573C191.245 77.7954 190.376 78.0645 189.38 78.0645C188.892 78.0645 188.413 78.0119 187.943 77.9067V75.6616C188.283 75.742 188.654 75.7822 189.056 75.7822C189.557 75.7822 189.993 75.6276 190.364 75.3184C190.741 75.0153 191.035 74.5545 191.245 73.936L191.412 73.4258L187.293 63.1279ZM201.506 69.0005V68.314C201.506 67.9985 201.537 67.714 201.599 67.4604C201.667 67.2007 201.766 66.9564 201.896 66.7275C202.032 66.4925 202.205 66.2668 202.415 66.0503C202.625 65.8276 202.879 65.5988 203.176 65.3638C203.436 65.1597 203.655 64.9772 203.835 64.8164C204.014 64.6556 204.159 64.4979 204.271 64.3433C204.382 64.1825 204.462 64.0155 204.512 63.8423C204.561 63.6691 204.586 63.4681 204.586 63.2393C204.586 62.8867 204.465 62.596 204.224 62.3672C203.989 62.1383 203.627 62.0239 203.139 62.0239C202.712 62.0239 202.251 62.1136 201.756 62.293C201.268 62.4723 200.761 62.6919 200.235 62.9517L199.289 60.9014C199.555 60.7467 199.842 60.6014 200.151 60.4653C200.467 60.3231 200.792 60.1994 201.126 60.0942C201.466 59.9829 201.809 59.8963 202.155 59.8345C202.502 59.7726 202.842 59.7417 203.176 59.7417C203.807 59.7417 204.376 59.819 204.883 59.9736C205.39 60.1221 205.82 60.3416 206.172 60.6323C206.525 60.923 206.794 61.2756 206.98 61.6899C207.171 62.1043 207.267 62.5775 207.267 63.1094C207.267 63.499 207.224 63.8485 207.137 64.1577C207.051 64.4608 206.921 64.7453 206.748 65.0112C206.581 65.271 206.367 65.5246 206.108 65.772C205.854 66.0132 205.557 66.2699 205.217 66.542C204.957 66.7461 204.744 66.9255 204.577 67.0801C204.416 67.2285 204.289 67.3708 204.196 67.5068C204.104 67.6429 204.039 67.7852 204.002 67.9336C203.971 68.0758 203.955 68.2459 203.955 68.4438V69.0005H201.506ZM201.2 72.1733C201.2 71.8826 201.24 71.6383 201.32 71.4404C201.407 71.2363 201.525 71.0724 201.673 70.9487C201.821 70.825 201.995 70.7354 202.193 70.6797C202.397 70.624 202.613 70.5962 202.842 70.5962C203.058 70.5962 203.262 70.624 203.454 70.6797C203.652 70.7354 203.825 70.825 203.974 70.9487C204.122 71.0724 204.24 71.2363 204.326 71.4404C204.413 71.6383 204.456 71.8826 204.456 72.1733C204.456 72.4517 204.413 72.6898 204.326 72.8877C204.24 73.0856 204.122 73.2495 203.974 73.3794C203.825 73.5093 203.652 73.6021 203.454 73.6577C203.262 73.7196 203.058 73.7505 202.842 73.7505C202.613 73.7505 202.397 73.7196 202.193 73.6577C201.995 73.6021 201.821 73.5093 201.673 73.3794C201.525 73.2495 201.407 73.0856 201.32 72.8877C201.24 72.6898 201.2 72.4517 201.2 72.1733Z"></path>
<path stroke-linejoin="round" stroke-miterlimit="10" stroke="#0B233F" fill="#F3F5F8" d="M309 15.667C309 7.56699 315.567 1 323.667 1H536.333C544.433 1 551 7.56699 551 15.667V74.333C551 82.433 544.433 89 536.333 89H323.667C315.567 89 309 82.433 309 74.333V15.667Z" clip-rule="evenodd" fill-rule="evenodd"></path>
<path fill="#0B233F" d="M331.916 48.8726C331.916 50.0539 331.489 50.9847 330.636 51.665C329.782 52.3454 328.595 52.6855 327.073 52.6855C325.465 52.6855 324.222 52.4722 323.344 52.0454V50.4126C323.919 50.66 324.547 50.8548 325.227 50.9971C325.914 51.1393 326.554 51.2104 327.147 51.2104C328.162 51.2104 328.926 51.0156 329.439 50.626C329.952 50.2363 330.209 49.7013 330.209 49.021C330.209 48.5695 330.116 48.1984 329.931 47.9077C329.745 47.617 329.433 47.3449 328.994 47.0913C328.561 46.8377 327.902 46.5501 327.018 46.2285C325.762 45.7708 324.865 45.2327 324.327 44.6143C323.789 43.9896 323.52 43.1855 323.52 42.2021C323.52 41.1445 323.916 40.3034 324.708 39.6787C325.505 39.054 326.554 38.7417 327.853 38.7417C329.207 38.7417 330.453 38.9953 331.591 39.5024L331.062 40.9683C329.9 40.4858 328.817 40.2446 327.815 40.2446C327.011 40.2446 326.381 40.4178 325.923 40.7642C325.471 41.1105 325.246 41.596 325.246 42.2207C325.246 42.666 325.332 43.0371 325.505 43.334C325.685 43.6247 325.969 43.8906 326.359 44.1318C326.755 44.373 327.373 44.6483 328.214 44.9575C329.222 45.3286 329.974 45.6904 330.469 46.043C330.964 46.3893 331.328 46.7913 331.563 47.249C331.799 47.7005 331.916 48.2417 331.916 48.8726ZM335.998 42.3135V48.8726C335.998 49.6951 336.181 50.3075 336.545 50.7095C336.917 51.1053 337.489 51.3032 338.262 51.3032C339.307 51.3032 340.068 51.0125 340.544 50.4312C341.02 49.8498 341.258 48.9128 341.258 47.6201V42.3135H342.938V52.5H341.564L341.323 51.1548H341.24C340.937 51.6434 340.507 52.0207 339.95 52.2866C339.394 52.5526 338.747 52.6855 338.011 52.6855C336.787 52.6855 335.862 52.3918 335.237 51.8042C334.619 51.2166 334.31 50.2765 334.31 48.9839V42.3135H335.998ZM350.99 42.1465C352.332 42.1465 353.368 42.6104 354.098 43.5381C354.828 44.4596 355.193 45.7492 355.193 47.4067C355.193 49.089 354.822 50.391 354.08 51.3125C353.337 52.2279 352.308 52.6855 350.99 52.6855C350.304 52.6855 349.691 52.5618 349.153 52.3145C348.615 52.0671 348.176 51.6991 347.836 51.2104H347.706C347.514 51.9526 347.4 52.3825 347.363 52.5H346.166V38.0645H347.836V41.5713C347.836 42.2702 347.805 42.9691 347.743 43.668H347.836C348.522 42.6536 349.574 42.1465 350.99 42.1465ZM350.712 43.5288C349.685 43.5288 348.949 43.8195 348.504 44.4009C348.059 44.9823 347.836 45.9657 347.836 47.3511V47.4253C347.836 48.8169 348.062 49.8127 348.513 50.4126C348.971 51.0063 349.716 51.3032 350.749 51.3032C351.664 51.3032 352.345 50.9692 352.79 50.3013C353.242 49.6271 353.467 48.6561 353.467 47.3882C353.467 46.1017 353.242 45.1369 352.79 44.4937C352.339 43.8504 351.646 43.5288 350.712 43.5288ZM370.816 52.5V45.9409C370.816 44.3328 370.126 43.5288 368.747 43.5288C367.801 43.5288 367.105 43.804 366.66 44.3545C366.214 44.9049 365.992 45.7461 365.992 46.8779V52.5H364.331V45.9409C364.331 45.1369 364.161 44.5339 363.821 44.1318C363.487 43.7298 362.961 43.5288 362.244 43.5288C361.304 43.5288 360.614 43.8164 360.175 44.3916C359.742 44.9668 359.525 45.91 359.525 47.2212V52.5H357.855V42.3135H359.201L359.451 43.7051H359.544C359.835 43.2103 360.243 42.8237 360.769 42.5454C361.3 42.2671 361.894 42.1279 362.55 42.1279C364.146 42.1279 365.185 42.6969 365.667 43.835H365.76C366.088 43.2907 366.533 42.8701 367.096 42.5732C367.665 42.2764 368.308 42.1279 369.025 42.1279C370.176 42.1279 371.035 42.4248 371.604 43.0186C372.18 43.6123 372.467 44.5617 372.467 45.8667V52.5H370.816ZM377.301 52.5H375.631V42.3135H377.301V52.5ZM375.501 39.5581C375.501 39.187 375.594 38.918 375.779 38.751C375.971 38.584 376.206 38.5005 376.484 38.5005C376.744 38.5005 376.97 38.584 377.162 38.751C377.36 38.918 377.458 39.187 377.458 39.5581C377.458 39.923 377.36 40.1921 377.162 40.3652C376.97 40.5384 376.744 40.625 376.484 40.625C376.206 40.625 375.971 40.5384 375.779 40.3652C375.594 40.1921 375.501 39.923 375.501 39.5581ZM383.934 51.3218C384.151 51.3218 384.404 51.3001 384.695 51.2568C384.986 51.2135 385.205 51.1641 385.354 51.1084V52.3887C385.199 52.4567 384.958 52.5216 384.63 52.5835C384.308 52.6515 383.98 52.6855 383.646 52.6855C381.655 52.6855 380.659 51.6372 380.659 49.5405V43.6123H379.221V42.8145L380.678 42.1465L381.346 39.9756H382.338V42.3135H385.279V43.6123H382.338V49.4941C382.338 50.0817 382.478 50.5332 382.756 50.8486C383.04 51.1641 383.433 51.3218 383.934 51.3218ZM398.546 52.5L394.074 40.6064H394C394.093 41.596 394.139 42.8175 394.139 44.271V52.5H392.562V38.9365H395.085L399.27 50.0508H399.344L403.602 38.9365H406.107V52.5H404.418V44.1597C404.418 43.2319 404.462 42.0537 404.548 40.625H404.474L399.947 52.5H398.546ZM418.418 47.3882C418.418 49.0519 417.997 50.3507 417.156 51.2847C416.315 52.2186 415.152 52.6855 413.668 52.6855C412.746 52.6855 411.93 52.4722 411.219 52.0454C410.507 51.6125 409.96 50.994 409.577 50.1899C409.193 49.3859 409.001 48.452 409.001 47.3882C409.001 45.7306 409.416 44.4411 410.245 43.5195C411.073 42.5918 412.236 42.1279 413.733 42.1279C415.168 42.1279 416.306 42.6011 417.147 43.5474C417.994 44.4875 418.418 45.7677 418.418 47.3882ZM410.727 47.3882C410.727 48.6685 410.978 49.6426 411.479 50.3105C411.986 50.9723 412.731 51.3032 413.714 51.3032C414.685 51.3032 415.424 50.9723 415.932 50.3105C416.439 49.6426 416.692 48.6685 416.692 47.3882C416.692 46.1079 416.436 45.1462 415.922 44.5029C415.415 43.8535 414.67 43.5288 413.687 43.5288C411.714 43.5288 410.727 44.8153 410.727 47.3882ZM424.68 52.6855C423.357 52.6855 422.33 52.2279 421.6 51.3125C420.87 50.3971 420.505 49.1014 420.505 47.4253C420.505 45.7616 420.87 44.4627 421.6 43.5288C422.336 42.5949 423.369 42.1279 424.699 42.1279C426.066 42.1279 427.117 42.6289 427.853 43.6309H427.974C427.955 43.5072 427.93 43.2598 427.899 42.8887C427.868 42.5114 427.853 42.2578 427.853 42.1279V38.0645H429.523V52.5H428.178L427.927 51.1362H427.853C427.142 52.1691 426.084 52.6855 424.68 52.6855ZM424.949 51.3032C425.964 51.3032 426.703 51.028 427.167 50.4775C427.637 49.9209 427.872 49.0117 427.872 47.75V47.4438C427.872 46.0275 427.633 45.0194 427.157 44.4194C426.687 43.8133 425.945 43.5103 424.931 43.5103C424.071 43.5103 423.406 43.8535 422.936 44.54C422.466 45.2204 422.231 46.1945 422.231 47.4624C422.231 48.7241 422.463 49.6797 422.927 50.3291C423.397 50.9785 424.071 51.3032 424.949 51.3032ZM434.338 42.3135V48.8726C434.338 49.6951 434.52 50.3075 434.885 50.7095C435.256 51.1053 435.828 51.3032 436.602 51.3032C437.647 51.3032 438.408 51.0125 438.884 50.4312C439.36 49.8498 439.598 48.9128 439.598 47.6201V42.3135H441.277V52.5H439.904L439.663 51.1548H439.58C439.277 51.6434 438.847 52.0207 438.29 52.2866C437.733 52.5526 437.087 52.6855 436.351 52.6855C435.126 52.6855 434.202 52.3918 433.577 51.8042C432.959 51.2166 432.649 50.2765 432.649 48.9839V42.3135H434.338ZM446.176 52.5H444.506V38.0645H446.176V52.5ZM453.737 52.6855C452.209 52.6855 451.009 52.2248 450.137 51.3032C449.271 50.3755 448.838 49.1014 448.838 47.481C448.838 45.8481 449.243 44.5493 450.054 43.5845C450.864 42.6134 451.959 42.1279 453.338 42.1279C454.618 42.1279 455.639 42.5423 456.399 43.3711C457.16 44.1937 457.541 45.3101 457.541 46.7202V47.7314H450.564C450.595 48.888 450.889 49.7663 451.445 50.3662C452.002 50.9661 452.791 51.2661 453.811 51.2661C454.355 51.2661 454.872 51.2197 455.36 51.127C455.849 51.028 456.421 50.8394 457.077 50.561V52.0269C456.514 52.2681 455.985 52.4382 455.49 52.5371C454.995 52.6361 454.411 52.6855 453.737 52.6855ZM453.319 43.4917C452.521 43.4917 451.891 43.7484 451.427 44.2617C450.963 44.7751 450.688 45.4894 450.601 46.4048H455.787C455.775 45.4523 455.555 44.7287 455.128 44.2339C454.702 43.7391 454.099 43.4917 453.319 43.4917ZM466.762 49.689C466.762 50.6414 466.407 51.3805 465.695 51.9062C464.984 52.4258 463.985 52.6855 462.699 52.6855C461.357 52.6855 460.29 52.4722 459.498 52.0454V50.5239C460.618 51.0682 461.697 51.3403 462.736 51.3403C463.577 51.3403 464.189 51.2043 464.573 50.9321C464.956 50.66 465.148 50.2951 465.148 49.8374C465.148 49.4354 464.962 49.0952 464.591 48.8169C464.226 48.5386 463.574 48.2201 462.634 47.8613C461.675 47.4902 461.001 47.1748 460.611 46.915C460.222 46.6491 459.934 46.3522 459.749 46.0244C459.569 45.6966 459.479 45.2977 459.479 44.8276C459.479 43.9927 459.82 43.334 460.5 42.8516C461.18 42.3691 462.114 42.1279 463.302 42.1279C464.458 42.1279 465.541 42.3568 466.549 42.8145L465.983 44.1411C464.95 43.7082 464.019 43.4917 463.19 43.4917C462.498 43.4917 461.972 43.603 461.613 43.8257C461.255 44.0422 461.075 44.3421 461.075 44.7256C461.075 45.0967 461.23 45.4059 461.539 45.6533C461.848 45.8945 462.569 46.2316 463.701 46.6646C464.548 46.98 465.173 47.2738 465.575 47.5459C465.983 47.818 466.283 48.1242 466.475 48.4644C466.666 48.8045 466.762 49.2127 466.762 49.689Z"></path>
<path fill="#E96969" d="M242.5 43.4995H275.366C275.918 43.4995 276.366 43.9475 276.366 44.4995V44.5625L275.366 43.5625H301.566V45.5625H275.366C274.814 45.5625 274.366 45.1145 274.366 44.5625V44.4995L275.366 45.4995H242.5V43.4995ZM300.232 40.5625L308.232 44.5625L300.232 48.5625V40.5625Z"></path>
<path stroke-linejoin="round" stroke-miterlimit="10" stroke="#0B233F" fill="#F3F5F8" d="M617 15.667C617 7.56699 623.567 1 631.667 1H844.333C852.433 1 859 7.56699 859 15.667V74.333C859 82.433 852.433 89 844.333 89H631.667C623.567 89 617 82.433 617 74.333V15.667Z" clip-rule="evenodd" fill-rule="evenodd"></path>
<path fill="#0B233F" d="M637.844 29.2446C636.384 29.2446 635.237 29.7332 634.402 30.7104C633.567 31.6877 633.149 33.0236 633.149 34.7183C633.149 36.4686 633.555 37.82 634.365 38.7725C635.175 39.7188 636.328 40.1919 637.825 40.1919C638.79 40.1919 639.875 40.0125 641.082 39.6538V41.1382C640.506 41.3485 639.953 41.4907 639.421 41.5649C638.889 41.6453 638.277 41.6855 637.584 41.6855C635.586 41.6855 634.046 41.0794 632.964 39.8672C631.888 38.6488 631.35 36.9263 631.35 34.6997C631.35 33.3019 631.606 32.0773 632.12 31.0259C632.639 29.9744 633.391 29.1642 634.374 28.5952C635.364 28.0262 636.526 27.7417 637.862 27.7417C639.297 27.7417 640.547 28.0076 641.61 28.5396L640.924 29.9868C639.841 29.492 638.815 29.2446 637.844 29.2446ZM652.66 36.3882C652.66 38.0519 652.239 39.3507 651.398 40.2847C650.557 41.2186 649.394 41.6855 647.91 41.6855C646.988 41.6855 646.172 41.4722 645.46 41.0454C644.749 40.6125 644.202 39.994 643.818 39.1899C643.435 38.3859 643.243 37.452 643.243 36.3882C643.243 34.7306 643.658 33.4411 644.486 32.5195C645.315 31.5918 646.478 31.1279 647.975 31.1279C649.41 31.1279 650.548 31.6011 651.389 32.5474C652.236 33.4875 652.66 34.7677 652.66 36.3882ZM644.969 36.3882C644.969 37.6685 645.219 38.6426 645.72 39.3105C646.227 39.9723 646.973 40.3032 647.956 40.3032C648.927 40.3032 649.666 39.9723 650.173 39.3105C650.681 38.6426 650.934 37.6685 650.934 36.3882C650.934 35.1079 650.677 34.1462 650.164 33.5029C649.657 32.8535 648.912 32.5288 647.928 32.5288C645.955 32.5288 644.969 33.8153 644.969 36.3882ZM660.137 41.6855C658.77 41.6855 657.719 41.1938 656.983 40.2104H656.872L656.909 40.5908C656.958 41.0732 656.983 41.5031 656.983 41.8804V46.0645H655.313V31.3135H656.686L656.909 32.7051H656.983C657.379 32.1484 657.836 31.7464 658.356 31.499C658.875 31.2516 659.475 31.1279 660.156 31.1279C661.479 31.1279 662.506 31.5887 663.236 32.5103C663.972 33.4256 664.34 34.7183 664.34 36.3882C664.34 38.0519 663.972 39.3507 663.236 40.2847C662.5 41.2186 661.467 41.6855 660.137 41.6855ZM659.859 32.5288C658.851 32.5288 658.121 32.8133 657.669 33.3823C657.224 33.9513 656.995 34.8451 656.983 36.0635V36.3882C656.983 37.7674 657.212 38.7663 657.669 39.3848C658.127 39.9971 658.869 40.3032 659.896 40.3032C660.75 40.3032 661.414 39.9569 661.891 39.2642C662.373 38.5715 662.614 37.6066 662.614 36.3696C662.614 35.1265 662.373 34.1771 661.891 33.5215C661.414 32.8597 660.737 32.5288 659.859 32.5288ZM665.221 31.3135H667.012L669.21 37.1118C669.674 38.3735 669.959 39.2982 670.064 39.8857H670.138C670.194 39.6569 670.321 39.2301 670.519 38.6055C670.716 37.9746 670.883 37.4705 671.02 37.0933L673.088 31.3135H674.888L670.5 42.9102C670.073 44.0358 669.566 44.8429 668.979 45.3315C668.391 45.8201 667.664 46.0645 666.798 46.0645C666.334 46.0645 665.874 46.0119 665.416 45.9067V44.5801C665.725 44.6543 666.096 44.6914 666.529 44.6914C667.061 44.6914 667.513 44.543 667.884 44.2461C668.255 43.9554 668.558 43.5039 668.793 42.8916L669.322 41.5371L665.221 31.3135ZM681.252 31.1279C681.704 31.1279 682.103 31.165 682.449 31.2393L682.245 32.7793C681.868 32.6927 681.5 32.6494 681.141 32.6494C680.603 32.6494 680.102 32.7979 679.638 33.0947C679.181 33.3916 678.822 33.8029 678.562 34.3286C678.302 34.8481 678.172 35.4264 678.172 36.0635V41.5H676.502V31.3135H677.875L678.061 33.1782H678.135C678.525 32.5041 678.986 31.9938 679.518 31.6475C680.049 31.3011 680.628 31.1279 681.252 31.1279ZM686.021 41.5H684.351V31.3135H686.021V41.5ZM684.221 28.5581C684.221 28.187 684.314 27.918 684.5 27.751C684.691 27.584 684.926 27.5005 685.205 27.5005C685.464 27.5005 685.69 27.584 685.882 27.751C686.08 27.918 686.179 28.187 686.179 28.5581C686.179 28.923 686.08 29.1921 685.882 29.3652C685.69 29.5384 685.464 29.625 685.205 29.625C684.926 29.625 684.691 29.5384 684.5 29.3652C684.314 29.1921 684.221 28.923 684.221 28.5581ZM693.127 40.3218C694.154 40.3218 694.899 40.0465 695.363 39.4961C695.833 38.9395 696.068 38.0488 696.068 36.8242V36.4253C696.068 35.0646 695.833 34.075 695.363 33.4565C694.893 32.8381 694.136 32.5288 693.09 32.5288C692.237 32.5288 691.575 32.869 691.105 33.5493C690.641 34.2235 690.409 35.1883 690.409 36.4438C690.409 37.7056 690.635 38.6673 691.086 39.3291C691.544 39.9909 692.224 40.3218 693.127 40.3218ZM696.05 41.4072L696.105 40.1548H696.031C695.345 41.1753 694.293 41.6855 692.877 41.6855C691.56 41.6855 690.53 41.2279 689.788 40.3125C689.052 39.391 688.684 38.0952 688.684 36.4253C688.684 34.7863 689.055 33.4937 689.797 32.5474C690.545 31.6011 691.566 31.1279 692.858 31.1279C694.238 31.1279 695.301 31.6413 696.05 32.668H696.152L696.375 31.3135H697.701V41.667C697.701 43.1266 697.33 44.2244 696.588 44.9604C695.852 45.6965 694.705 46.0645 693.146 46.0645C691.662 46.0645 690.44 45.848 689.481 45.415V43.875C690.471 44.4069 691.723 44.6729 693.239 44.6729C694.105 44.6729 694.788 44.4193 695.289 43.9121C695.796 43.4049 696.05 42.703 696.05 41.8062V41.4072ZM707.878 41.5V34.9873C707.878 34.1585 707.693 33.5431 707.322 33.1411C706.957 32.7329 706.382 32.5288 705.596 32.5288C704.563 32.5288 703.806 32.8164 703.323 33.3916C702.847 33.9668 702.609 34.9162 702.609 36.2397V41.5H700.939V27.0645H702.609V31.2949C702.609 31.8516 702.578 32.3278 702.516 32.7236H702.627C702.931 32.2288 703.36 31.8423 703.917 31.564C704.474 31.2856 705.101 31.1465 705.8 31.1465C707.037 31.1465 707.968 31.4434 708.593 32.0371C709.217 32.6247 709.53 33.5679 709.53 34.8667V41.5H707.878ZM716.089 40.3218C716.305 40.3218 716.559 40.3001 716.85 40.2568C717.14 40.2135 717.36 40.1641 717.508 40.1084V41.3887C717.354 41.4567 717.112 41.5216 716.785 41.5835C716.463 41.6515 716.135 41.6855 715.801 41.6855C713.81 41.6855 712.814 40.6372 712.814 38.5405V32.6123H711.376V31.8145L712.833 31.1465L713.5 28.9756H714.493V31.3135H717.434V32.6123H714.493V38.4941C714.493 39.0817 714.632 39.5332 714.911 39.8486C715.195 40.1641 715.588 40.3218 716.089 40.3218ZM730.608 34.3379H735.293V40.9897C734.576 41.2186 733.846 41.3918 733.104 41.5093C732.361 41.6268 731.502 41.6855 730.524 41.6855C728.459 41.6855 726.86 41.0732 725.728 39.8486C724.596 38.624 724.03 36.9139 724.03 34.7183C724.03 33.3019 724.312 32.0649 724.875 31.0073C725.437 29.9497 726.248 29.1426 727.305 28.5859C728.369 28.0231 729.621 27.7417 731.062 27.7417C732.51 27.7417 733.858 28.0076 735.107 28.5396L734.458 30.0239C733.264 29.5044 732.098 29.2446 730.96 29.2446C729.346 29.2446 728.084 29.7332 727.175 30.7104C726.266 31.6877 725.812 33.0236 725.812 34.7183C725.812 36.5119 726.248 37.8757 727.12 38.8096C727.992 39.7435 729.26 40.2104 730.923 40.2104C731.833 40.2104 732.72 40.1022 733.586 39.8857V35.8594H730.608V34.3379ZM739.904 31.3135V37.8726C739.904 38.6951 740.086 39.3075 740.451 39.7095C740.822 40.1053 741.394 40.3032 742.167 40.3032C743.213 40.3032 743.973 40.0125 744.45 39.4312C744.926 38.8498 745.164 37.9128 745.164 36.6201V31.3135H746.843V41.5H745.47L745.229 40.1548H745.146C744.842 40.6434 744.413 41.0207 743.856 41.2866C743.299 41.5526 742.653 41.6855 741.917 41.6855C740.692 41.6855 739.768 41.3918 739.143 40.8042C738.525 40.2166 738.215 39.2765 738.215 37.9839V31.3135H739.904ZM751.742 41.5H750.072V31.3135H751.742V41.5ZM749.942 28.5581C749.942 28.187 750.035 27.918 750.22 27.751C750.412 27.584 750.647 27.5005 750.925 27.5005C751.185 27.5005 751.411 27.584 751.603 27.751C751.8 27.918 751.899 28.187 751.899 28.5581C751.899 28.923 751.8 29.1921 751.603 29.3652C751.411 29.5384 751.185 29.625 750.925 29.625C750.647 29.625 750.412 29.5384 750.22 29.3652C750.035 29.1921 749.942 28.923 749.942 28.5581ZM758.579 41.6855C757.256 41.6855 756.229 41.2279 755.499 40.3125C754.769 39.3971 754.404 38.1014 754.404 36.4253C754.404 34.7616 754.769 33.4627 755.499 32.5288C756.235 31.5949 757.268 31.1279 758.598 31.1279C759.965 31.1279 761.016 31.6289 761.752 32.6309H761.873C761.854 32.5072 761.829 32.2598 761.798 31.8887C761.767 31.5114 761.752 31.2578 761.752 31.1279V27.0645H763.422V41.5H762.077L761.826 40.1362H761.752C761.041 41.1691 759.983 41.6855 758.579 41.6855ZM758.848 40.3032C759.862 40.3032 760.602 40.028 761.065 39.4775C761.535 38.9209 761.771 38.0117 761.771 36.75V36.4438C761.771 35.0275 761.532 34.0194 761.056 33.4194C760.586 32.8133 759.844 32.5103 758.83 32.5103C757.97 32.5103 757.305 32.8535 756.835 33.54C756.365 34.2204 756.13 35.1945 756.13 36.4624C756.13 37.7241 756.362 38.6797 756.826 39.3291C757.296 39.9785 757.97 40.3032 758.848 40.3032ZM770.992 41.6855C769.465 41.6855 768.265 41.2248 767.393 40.3032C766.527 39.3755 766.094 38.1014 766.094 36.481C766.094 34.8481 766.499 33.5493 767.309 32.5845C768.119 31.6134 769.214 31.1279 770.593 31.1279C771.874 31.1279 772.894 31.5423 773.655 32.3711C774.416 33.1937 774.796 34.3101 774.796 35.7202V36.7314H767.819C767.85 37.888 768.144 38.7663 768.701 39.3662C769.257 39.9661 770.046 40.2661 771.066 40.2661C771.611 40.2661 772.127 40.2197 772.616 40.127C773.104 40.028 773.676 39.8394 774.332 39.561V41.0269C773.769 41.2681 773.24 41.4382 772.746 41.5371C772.251 41.6361 771.666 41.6855 770.992 41.6855ZM770.575 32.4917C769.777 32.4917 769.146 32.7484 768.682 33.2617C768.218 33.7751 767.943 34.4894 767.856 35.4048H773.042C773.03 34.4523 772.811 33.7287 772.384 33.2339C771.957 32.7391 771.354 32.4917 770.575 32.4917ZM779.054 41.5H777.384V27.0645H779.054V41.5ZM783.953 41.5H782.283V31.3135H783.953V41.5ZM782.153 28.5581C782.153 28.187 782.246 27.918 782.431 27.751C782.623 27.584 782.858 27.5005 783.136 27.5005C783.396 27.5005 783.622 27.584 783.813 27.751C784.011 27.918 784.11 28.187 784.11 28.5581C784.11 28.923 784.011 29.1921 783.813 29.3652C783.622 29.5384 783.396 29.625 783.136 29.625C782.858 29.625 782.623 29.5384 782.431 29.3652C782.246 29.1921 782.153 28.923 782.153 28.5581ZM794.121 41.5V34.9873C794.121 34.1585 793.935 33.5431 793.564 33.1411C793.199 32.7329 792.624 32.5288 791.838 32.5288C790.793 32.5288 790.032 32.8195 789.556 33.4009C789.086 33.9761 788.851 34.9162 788.851 36.2212V41.5H787.181V31.3135H788.526L788.777 32.7051H788.87C789.185 32.2041 789.627 31.8175 790.196 31.5454C790.765 31.2671 791.393 31.1279 792.08 31.1279C793.329 31.1279 794.257 31.431 794.863 32.0371C795.469 32.6432 795.772 33.5864 795.772 34.8667V41.5H794.121ZM803.259 41.6855C801.731 41.6855 800.531 41.2248 799.659 40.3032C798.793 39.3755 798.36 38.1014 798.36 36.481C798.36 34.8481 798.765 33.5493 799.576 32.5845C800.386 31.6134 801.481 31.1279 802.86 31.1279C804.14 31.1279 805.161 31.5423 805.921 32.3711C806.682 33.1937 807.062 34.3101 807.062 35.7202V36.7314H800.086C800.117 37.888 800.411 38.7663 800.967 39.3662C801.524 39.9661 802.312 40.2661 803.333 40.2661C803.877 40.2661 804.394 40.2197 804.882 40.127C805.371 40.028 805.943 39.8394 806.599 39.561V41.0269C806.036 41.2681 805.507 41.4382 805.012 41.5371C804.517 41.6361 803.933 41.6855 803.259 41.6855ZM802.841 32.4917C802.043 32.4917 801.413 32.7484 800.949 33.2617C800.485 33.7751 800.21 34.4894 800.123 35.4048H805.309C805.297 34.4523 805.077 33.7287 804.65 33.2339C804.224 32.7391 803.621 32.4917 802.841 32.4917ZM816.284 38.689C816.284 39.6414 815.929 40.3805 815.217 40.9062C814.506 41.4258 813.507 41.6855 812.221 41.6855C810.879 41.6855 809.812 41.4722 809.02 41.0454V39.5239C810.139 40.0682 811.219 40.3403 812.258 40.3403C813.099 40.3403 813.711 40.2043 814.095 39.9321C814.478 39.66 814.67 39.2951 814.67 38.8374C814.67 38.4354 814.484 38.0952 814.113 37.8169C813.748 37.5386 813.096 37.2201 812.156 36.8613C811.197 36.4902 810.523 36.1748 810.133 35.915C809.744 35.6491 809.456 35.3522 809.271 35.0244C809.091 34.6966 809.001 34.2977 809.001 33.8276C809.001 32.9927 809.342 32.334 810.022 31.8516C810.702 31.3691 811.636 31.1279 812.824 31.1279C813.98 31.1279 815.063 31.3568 816.071 31.8145L815.505 33.1411C814.472 32.7082 813.541 32.4917 812.712 32.4917C812.02 32.4917 811.494 32.603 811.135 32.8257C810.777 33.0422 810.597 33.3421 810.597 33.7256C810.597 34.0967 810.752 34.4059 811.061 34.6533C811.37 34.8945 812.091 35.2316 813.223 35.6646C814.07 35.98 814.695 36.2738 815.097 36.5459C815.505 36.818 815.805 37.1242 815.997 37.4644C816.188 37.8045 816.284 38.2127 816.284 38.689ZM828.391 32.6123H825.821V41.5H824.151V32.6123H822.37V31.833L824.151 31.2578V30.6733C824.151 29.4364 824.42 28.5086 824.958 27.8901C825.503 27.2716 826.338 26.9624 827.463 26.9624C828.113 26.9624 828.771 27.0768 829.439 27.3057L828.994 28.6138C828.419 28.4282 827.915 28.3354 827.482 28.3354C826.919 28.3354 826.502 28.521 826.229 28.8921C825.957 29.2632 825.821 29.8507 825.821 30.6548V31.3135H828.391V32.6123ZM839.097 36.3882C839.097 38.0519 838.677 39.3507 837.835 40.2847C836.994 41.2186 835.832 41.6855 834.347 41.6855C833.426 41.6855 832.609 41.4722 831.898 41.0454C831.187 40.6125 830.639 39.994 830.256 39.1899C829.872 38.3859 829.681 37.452 829.681 36.3882C829.681 34.7306 830.095 33.4411 830.924 32.5195C831.753 31.5918 832.915 31.1279 834.412 31.1279C835.847 31.1279 836.985 31.6011 837.826 32.5474C838.674 33.4875 839.097 34.7677 839.097 36.3882ZM831.406 36.3882C831.406 37.6685 831.657 38.6426 832.158 39.3105C832.665 39.9723 833.41 40.3032 834.394 40.3032C835.365 40.3032 836.104 39.9723 836.611 39.3105C837.118 38.6426 837.372 37.6685 837.372 36.3882C837.372 35.1079 837.115 34.1462 836.602 33.5029C836.094 32.8535 835.349 32.5288 834.366 32.5288C832.393 32.5288 831.406 33.8153 831.406 36.3882ZM846.5 31.1279C846.952 31.1279 847.351 31.165 847.697 31.2393L847.493 32.7793C847.116 32.6927 846.748 32.6494 846.389 32.6494C845.851 32.6494 845.35 32.7979 844.886 33.0947C844.429 33.3916 844.07 33.8029 843.81 34.3286C843.55 34.8481 843.42 35.4264 843.42 36.0635V41.5H841.75V31.3135H843.124L843.309 33.1782H843.383C843.773 32.5041 844.234 31.9938 844.766 31.6475C845.298 31.3011 845.876 31.1279 846.5 31.1279Z"></path>
<path fill="#0B233F" d="M639.727 59.8726C639.727 61.0539 639.3 61.9847 638.447 62.665C637.593 63.3454 636.406 63.6855 634.884 63.6855C633.276 63.6855 632.033 63.4722 631.155 63.0454V61.4126C631.73 61.66 632.358 61.8548 633.038 61.9971C633.725 62.1393 634.365 62.2104 634.958 62.2104C635.973 62.2104 636.737 62.0156 637.25 61.626C637.763 61.2363 638.02 60.7013 638.02 60.021C638.02 59.5695 637.927 59.1984 637.742 58.9077C637.556 58.617 637.244 58.3449 636.805 58.0913C636.372 57.8377 635.713 57.5501 634.829 57.2285C633.573 56.7708 632.676 56.2327 632.138 55.6143C631.6 54.9896 631.331 54.1855 631.331 53.2021C631.331 52.1445 631.727 51.3034 632.519 50.6787C633.316 50.054 634.365 49.7417 635.664 49.7417C637.018 49.7417 638.264 49.9953 639.402 50.5024L638.874 51.9683C637.711 51.4858 636.628 51.2446 635.626 51.2446C634.822 51.2446 634.192 51.4178 633.734 51.7642C633.282 52.1105 633.057 52.596 633.057 53.2207C633.057 53.666 633.143 54.0371 633.316 54.334C633.496 54.6247 633.78 54.8906 634.17 55.1318C634.566 55.373 635.184 55.6483 636.025 55.9575C637.034 56.3286 637.785 56.6904 638.28 57.043C638.775 57.3893 639.139 57.7913 639.375 58.249C639.61 58.7005 639.727 59.2417 639.727 59.8726ZM643.809 53.3135V59.8726C643.809 60.6951 643.992 61.3075 644.356 61.7095C644.728 62.1053 645.3 62.3032 646.073 62.3032C647.118 62.3032 647.879 62.0125 648.355 61.4312C648.831 60.8498 649.069 59.9128 649.069 58.6201V53.3135H650.749V63.5H649.375L649.134 62.1548H649.051C648.748 62.6434 648.318 63.0207 647.761 63.2866C647.205 63.5526 646.558 63.6855 645.822 63.6855C644.598 63.6855 643.673 63.3918 643.048 62.8042C642.43 62.2166 642.121 61.2765 642.121 59.9839V53.3135H643.809ZM658.801 53.1465C660.143 53.1465 661.179 53.6104 661.909 54.5381C662.639 55.4596 663.004 56.7492 663.004 58.4067C663.004 60.089 662.633 61.391 661.891 62.3125C661.148 63.2279 660.119 63.6855 658.801 63.6855C658.115 63.6855 657.502 63.5618 656.964 63.3145C656.426 63.0671 655.987 62.6991 655.647 62.2104H655.517C655.325 62.9526 655.211 63.3825 655.174 63.5H653.977V49.0645H655.647V52.5713C655.647 53.2702 655.616 53.9691 655.554 54.668H655.647C656.333 53.6536 657.385 53.1465 658.801 53.1465ZM658.523 54.5288C657.496 54.5288 656.76 54.8195 656.315 55.4009C655.87 55.9823 655.647 56.9657 655.647 58.3511V58.4253C655.647 59.8169 655.873 60.8127 656.324 61.4126C656.782 62.0063 657.527 62.3032 658.56 62.3032C659.475 62.3032 660.156 61.9692 660.601 61.3013C661.053 60.6271 661.278 59.6561 661.278 58.3882C661.278 57.1017 661.053 56.1369 660.601 55.4937C660.15 54.8504 659.457 54.5288 658.523 54.5288ZM678.627 63.5V56.9409C678.627 55.3328 677.937 54.5288 676.558 54.5288C675.612 54.5288 674.916 54.804 674.471 55.3545C674.025 55.9049 673.803 56.7461 673.803 57.8779V63.5H672.142V56.9409C672.142 56.1369 671.972 55.5339 671.632 55.1318C671.298 54.7298 670.772 54.5288 670.055 54.5288C669.115 54.5288 668.425 54.8164 667.986 55.3916C667.553 55.9668 667.336 56.91 667.336 58.2212V63.5H665.667V53.3135H667.012L667.262 54.7051H667.355C667.646 54.2103 668.054 53.8237 668.58 53.5454C669.111 53.2671 669.705 53.1279 670.361 53.1279C671.957 53.1279 672.996 53.6969 673.478 54.835H673.571C673.899 54.2907 674.344 53.8701 674.907 53.5732C675.476 53.2764 676.119 53.1279 676.836 53.1279C677.987 53.1279 678.847 53.4248 679.416 54.0186C679.991 54.6123 680.278 55.5617 680.278 56.8667V63.5H678.627ZM685.112 63.5H683.442V53.3135H685.112V63.5ZM683.312 50.5581C683.312 50.187 683.405 49.918 683.59 49.751C683.782 49.584 684.017 49.5005 684.295 49.5005C684.555 49.5005 684.781 49.584 684.973 49.751C685.171 49.918 685.27 50.187 685.27 50.5581C685.27 50.923 685.171 51.1921 684.973 51.3652C684.781 51.5384 684.555 51.625 684.295 51.625C684.017 51.625 683.782 51.5384 683.59 51.3652C683.405 51.1921 683.312 50.923 683.312 50.5581ZM694.974 60.689C694.974 61.6414 694.618 62.3805 693.907 62.9062C693.195 63.4258 692.197 63.6855 690.91 63.6855C689.568 63.6855 688.501 63.4722 687.709 63.0454V61.5239C688.829 62.0682 689.908 62.3403 690.947 62.3403C691.788 62.3403 692.401 62.2043 692.784 61.9321C693.168 61.66 693.359 61.2951 693.359 60.8374C693.359 60.4354 693.174 60.0952 692.803 59.8169C692.438 59.5386 691.785 59.2201 690.845 58.8613C689.887 58.4902 689.212 58.1748 688.823 57.915C688.433 57.6491 688.146 57.3522 687.96 57.0244C687.781 56.6966 687.691 56.2977 687.691 55.8276C687.691 54.9927 688.031 54.334 688.711 53.8516C689.392 53.3691 690.326 53.1279 691.513 53.1279C692.67 53.1279 693.752 53.3568 694.76 53.8145L694.194 55.1411C693.161 54.7082 692.231 54.4917 691.402 54.4917C690.709 54.4917 690.183 54.603 689.825 54.8257C689.466 55.0422 689.287 55.3421 689.287 55.7256C689.287 56.0967 689.441 56.4059 689.75 56.6533C690.06 56.8945 690.78 57.2316 691.912 57.6646C692.759 57.98 693.384 58.2738 693.786 58.5459C694.194 58.818 694.494 59.1242 694.686 59.4644C694.878 59.8045 694.974 60.2127 694.974 60.689ZM704.084 60.689C704.084 61.6414 703.728 62.3805 703.017 62.9062C702.306 63.4258 701.307 63.6855 700.021 63.6855C698.678 63.6855 697.611 63.4722 696.82 63.0454V61.5239C697.939 62.0682 699.019 62.3403 700.058 62.3403C700.899 62.3403 701.511 62.2043 701.895 61.9321C702.278 61.66 702.47 61.2951 702.47 60.8374C702.47 60.4354 702.284 60.0952 701.913 59.8169C701.548 59.5386 700.896 59.2201 699.956 58.8613C698.997 58.4902 698.323 58.1748 697.933 57.915C697.543 57.6491 697.256 57.3522 697.07 57.0244C696.891 56.6966 696.801 56.2977 696.801 55.8276C696.801 54.9927 697.141 54.334 697.822 53.8516C698.502 53.3691 699.436 53.1279 700.624 53.1279C701.78 53.1279 702.862 53.3568 703.871 53.8145L703.305 55.1411C702.272 54.7082 701.341 54.4917 700.512 54.4917C699.819 54.4917 699.294 54.603 698.935 54.8257C698.576 55.0422 698.397 55.3421 698.397 55.7256C698.397 56.0967 698.552 56.4059 698.861 56.6533C699.17 56.8945 699.891 57.2316 701.022 57.6646C701.87 57.98 702.494 58.2738 702.896 58.5459C703.305 58.818 703.605 59.1242 703.796 59.4644C703.988 59.8045 704.084 60.2127 704.084 60.689ZM708.231 63.5H706.561V53.3135H708.231V63.5ZM706.431 50.5581C706.431 50.187 706.524 49.918 706.709 49.751C706.901 49.584 707.136 49.5005 707.415 49.5005C707.674 49.5005 707.9 49.584 708.092 49.751C708.29 49.918 708.389 50.187 708.389 50.5581C708.389 50.923 708.29 51.1921 708.092 51.3652C707.9 51.5384 707.674 51.625 707.415 51.625C707.136 51.625 706.901 51.5384 706.709 51.3652C706.524 51.1921 706.431 50.923 706.431 50.5581ZM720.31 58.3882C720.31 60.0519 719.889 61.3507 719.048 62.2847C718.207 63.2186 717.044 63.6855 715.56 63.6855C714.639 63.6855 713.822 63.4722 713.111 63.0454C712.4 62.6125 711.852 61.994 711.469 61.1899C711.085 60.3859 710.894 59.452 710.894 58.3882C710.894 56.7306 711.308 55.4411 712.137 54.5195C712.965 53.5918 714.128 53.1279 715.625 53.1279C717.06 53.1279 718.198 53.6011 719.039 54.5474C719.886 55.4875 720.31 56.7677 720.31 58.3882ZM712.619 58.3882C712.619 59.6685 712.87 60.6426 713.371 61.3105C713.878 61.9723 714.623 62.3032 715.606 62.3032C716.577 62.3032 717.317 61.9723 717.824 61.3105C718.331 60.6426 718.584 59.6685 718.584 58.3882C718.584 57.1079 718.328 56.1462 717.814 55.5029C717.307 54.8535 716.562 54.5288 715.579 54.5288C713.606 54.5288 712.619 55.8153 712.619 58.3882ZM729.903 63.5V56.9873C729.903 56.1585 729.717 55.5431 729.346 55.1411C728.981 54.7329 728.406 54.5288 727.621 54.5288C726.575 54.5288 725.815 54.8195 725.338 55.4009C724.868 55.9761 724.633 56.9162 724.633 58.2212V63.5H722.963V53.3135H724.309L724.559 54.7051H724.652C724.967 54.2041 725.41 53.8175 725.979 53.5454C726.548 53.2671 727.175 53.1279 727.862 53.1279C729.111 53.1279 730.039 53.431 730.645 54.0371C731.251 54.6432 731.554 55.5864 731.554 56.8667V63.5H729.903Z"></path>
<path fill="#E96969" d="M550.5 43.4995H583.366C583.918 43.4995 584.366 43.9475 584.366 44.4995V44.5625L583.366 43.5625H609.566V45.5625H583.366C582.814 45.5625 582.366 45.1145 582.366 44.5625V44.4995L583.366 45.4995H550.5V43.4995ZM608.232 40.5625L616.232 44.5625L608.232 48.5625V40.5625Z"></path>
</svg>
