<svg xmlns="http://www.w3.org/2000/svg" fill="none" viewBox="0 0 561 197" height="197" width="561">
<path stroke-linejoin="round" stroke-miterlimit="10" stroke="#0B233F" fill="#0B233F" d="M0.500122 15.167C0.500122 7.06699 7.06672 0.5 15.167 0.5H237.833C245.933 0.5 252.5 7.06699 252.5 15.167V73.833C252.5 81.933 245.933 88.5 237.833 88.5H15.167C7.06672 88.5 0.500122 81.933 0.500122 73.833V15.167Z" clip-rule="evenodd" fill-rule="evenodd"></path>
<path fill="white" d="M26.8213 41H23.9546V35.146H18.583V41H15.707V27.4365H18.583V32.7524H23.9546V27.4365H26.8213V41ZM32.2856 35.7954C32.2856 36.8221 32.4526 37.5983 32.7866 38.124C33.1268 38.6497 33.6772 38.9126 34.438 38.9126C35.1925 38.9126 35.7337 38.6528 36.0615 38.1333C36.3955 37.6076 36.5625 36.8283 36.5625 35.7954C36.5625 34.7687 36.3955 33.9987 36.0615 33.4854C35.7275 32.972 35.1802 32.7153 34.4194 32.7153C33.6649 32.7153 33.1206 32.972 32.7866 33.4854C32.4526 33.9925 32.2856 34.7625 32.2856 35.7954ZM39.457 35.7954C39.457 37.4839 39.0117 38.8044 38.1211 39.7568C37.2305 40.7093 35.9904 41.1855 34.4009 41.1855C33.4051 41.1855 32.5269 40.9691 31.7661 40.5361C31.0054 40.097 30.4209 39.4692 30.0127 38.6528C29.6045 37.8364 29.4004 36.884 29.4004 35.7954C29.4004 34.1007 29.8426 32.7834 30.7271 31.8433C31.6115 30.9032 32.8547 30.4331 34.4565 30.4331C35.4523 30.4331 36.3306 30.6496 37.0913 31.0825C37.8521 31.5155 38.4365 32.137 38.8447 32.9473C39.2529 33.7575 39.457 34.7069 39.457 35.7954ZM50.1353 41L49.3374 37.3726L48.2798 32.7896H48.1963L46.3037 41H43.2607L40.3105 30.6279H43.1309L44.3276 35.2202C44.4637 35.7645 44.6523 36.8994 44.8936 38.625H44.9678C44.9925 38.1549 45.1007 37.4097 45.2925 36.3892L45.4409 35.6006L46.7212 30.6279H49.8384L51.0537 35.6006C51.1279 35.9408 51.2176 36.4417 51.3228 37.1035C51.4341 37.7591 51.4959 38.2663 51.5083 38.625H51.5825C51.6506 38.0745 51.7464 37.4499 51.8701 36.751C51.9938 36.0459 52.099 35.5356 52.1855 35.2202L53.4287 30.6279H56.2026L53.2153 41H50.1353ZM67.0293 41.1855C63.8008 41.1855 62.1865 39.4136 62.1865 35.8696C62.1865 34.1069 62.6257 32.7617 63.5039 31.834C64.3822 30.9001 65.6408 30.4331 67.2798 30.4331C68.4797 30.4331 69.5558 30.6681 70.5083 31.1382L69.6733 33.3276C69.228 33.1483 68.8136 33.0029 68.4302 32.8916C68.0467 32.7741 67.6632 32.7153 67.2798 32.7153C65.8078 32.7153 65.0718 33.7606 65.0718 35.8511C65.0718 37.8797 65.8078 38.894 67.2798 38.894C67.8241 38.894 68.3281 38.8229 68.792 38.6807C69.2559 38.5322 69.7197 38.3034 70.1836 37.9941V40.4155C69.7259 40.7062 69.262 40.9072 68.792 41.0186C68.3281 41.1299 67.7406 41.1855 67.0293 41.1855ZM79.1826 41L78.6353 39.5898H78.561C78.0848 40.1898 77.5931 40.6073 77.0859 40.8423C76.585 41.0711 75.9294 41.1855 75.1191 41.1855C74.1234 41.1855 73.3379 40.901 72.7627 40.332C72.1937 39.763 71.9092 38.9528 71.9092 37.9014C71.9092 36.8005 72.2926 35.9902 73.0596 35.4707C73.8327 34.945 74.9954 34.6543 76.5479 34.5986L78.3477 34.543V34.0884C78.3477 33.0369 77.8096 32.5112 76.7334 32.5112C75.9046 32.5112 74.9305 32.7617 73.811 33.2627L72.874 31.3516C74.0677 30.7269 75.3913 30.4146 76.8447 30.4146C78.2363 30.4146 79.3032 30.7176 80.0454 31.3237C80.7876 31.9299 81.1587 32.8514 81.1587 34.0884V41H79.1826ZM78.3477 36.1943L77.2529 36.2314C76.4303 36.2562 75.818 36.4046 75.416 36.6768C75.014 36.9489 74.813 37.3633 74.813 37.9199C74.813 38.7178 75.2707 39.1167 76.186 39.1167C76.8416 39.1167 77.3643 38.9281 77.7539 38.5508C78.1497 38.1735 78.3477 37.6725 78.3477 37.0479V36.1943ZM93.6553 41H90.8257V34.9419C90.8257 34.1935 90.6927 33.6338 90.4268 33.2627C90.1608 32.8854 89.7371 32.6968 89.1558 32.6968C88.3641 32.6968 87.792 32.9627 87.4395 33.4946C87.0869 34.0203 86.9106 34.8955 86.9106 36.1201V41H84.0811V30.6279H86.2427L86.623 31.9546H86.7808C87.0962 31.4536 87.5291 31.0763 88.0796 30.8228C88.6362 30.563 89.2671 30.4331 89.9722 30.4331C91.1782 30.4331 92.0936 30.7609 92.7183 31.4165C93.3429 32.0659 93.6553 33.006 93.6553 34.2368V41ZM105.874 38.9312C106.368 38.9312 106.962 38.8229 107.655 38.6064V40.7124C106.95 41.0278 106.084 41.1855 105.057 41.1855C103.925 41.1855 103.1 40.901 102.58 40.332C102.067 39.7568 101.81 38.8971 101.81 37.7529V32.7524H100.456V31.5557L102.014 30.6094L102.831 28.4199H104.64V30.6279H107.543V32.7524H104.64V37.7529C104.64 38.1549 104.751 38.4518 104.974 38.6436C105.202 38.8353 105.502 38.9312 105.874 38.9312ZM114.056 32.4463C113.456 32.4463 112.986 32.638 112.646 33.0215C112.306 33.3988 112.111 33.9368 112.062 34.6357H116.032C116.02 33.9368 115.837 33.3988 115.485 33.0215C115.132 32.638 114.656 32.4463 114.056 32.4463ZM114.455 41.1855C112.785 41.1855 111.48 40.7248 110.54 39.8032C109.6 38.8817 109.13 37.5767 109.13 35.8882C109.13 34.1502 109.563 32.8081 110.429 31.8618C111.301 30.9093 112.504 30.4331 114.038 30.4331C115.503 30.4331 116.645 30.8506 117.461 31.6855C118.277 32.5205 118.686 33.674 118.686 35.146V36.519H111.997C112.028 37.3231 112.266 37.9508 112.711 38.4023C113.156 38.8538 113.781 39.0796 114.585 39.0796C115.21 39.0796 115.8 39.0146 116.357 38.8848C116.914 38.7549 117.495 38.5477 118.101 38.2632V40.4526C117.606 40.7 117.077 40.8825 116.515 41C115.952 41.1237 115.265 41.1855 114.455 41.1855ZM127.573 41L127.026 39.5898H126.952C126.475 40.1898 125.984 40.6073 125.477 40.8423C124.976 41.0711 124.32 41.1855 123.51 41.1855C122.514 41.1855 121.729 40.901 121.153 40.332C120.584 39.763 120.3 38.9528 120.3 37.9014C120.3 36.8005 120.683 35.9902 121.45 35.4707C122.223 34.945 123.386 34.6543 124.938 34.5986L126.738 34.543V34.0884C126.738 33.0369 126.2 32.5112 125.124 32.5112C124.295 32.5112 123.321 32.7617 122.202 33.2627L121.265 31.3516C122.458 30.7269 123.782 30.4146 125.235 30.4146C126.627 30.4146 127.694 30.7176 128.436 31.3237C129.178 31.9299 129.549 32.8514 129.549 34.0884V41H127.573ZM126.738 36.1943L125.644 36.2314C124.821 36.2562 124.209 36.4046 123.807 36.6768C123.405 36.9489 123.204 37.3633 123.204 37.9199C123.204 38.7178 123.661 39.1167 124.577 39.1167C125.232 39.1167 125.755 38.9281 126.145 38.5508C126.54 38.1735 126.738 37.6725 126.738 37.0479V36.1943ZM136.684 41.1855C133.455 41.1855 131.841 39.4136 131.841 35.8696C131.841 34.1069 132.28 32.7617 133.158 31.834C134.036 30.9001 135.295 30.4331 136.934 30.4331C138.134 30.4331 139.21 30.6681 140.163 31.1382L139.328 33.3276C138.882 33.1483 138.468 33.0029 138.084 32.8916C137.701 32.7741 137.318 32.7153 136.934 32.7153C135.462 32.7153 134.726 33.7606 134.726 35.8511C134.726 37.8797 135.462 38.894 136.934 38.894C137.478 38.894 137.982 38.8229 138.446 38.6807C138.91 38.5322 139.374 38.3034 139.838 37.9941V40.4155C139.38 40.7062 138.916 40.9072 138.446 41.0186C137.982 41.1299 137.395 41.1855 136.684 41.1855ZM151.824 41H148.995V34.9419C148.995 33.4451 148.438 32.6968 147.325 32.6968C146.533 32.6968 145.961 32.9658 145.608 33.5039C145.256 34.042 145.08 34.9141 145.08 36.1201V41H142.25V26.5645H145.08V29.5054C145.08 29.7342 145.058 30.2723 145.015 31.1196L144.95 31.9546H145.098C145.729 30.9403 146.731 30.4331 148.104 30.4331C149.322 30.4331 150.247 30.7609 150.878 31.4165C151.509 32.0721 151.824 33.0122 151.824 34.2368V41ZM159.033 32.4463C158.433 32.4463 157.963 32.638 157.623 33.0215C157.282 33.3988 157.088 33.9368 157.038 34.6357H161.009C160.996 33.9368 160.814 33.3988 160.461 33.0215C160.109 32.638 159.633 32.4463 159.033 32.4463ZM159.432 41.1855C157.762 41.1855 156.457 40.7248 155.517 39.8032C154.576 38.8817 154.106 37.5767 154.106 35.8882C154.106 34.1502 154.539 32.8081 155.405 31.8618C156.277 30.9093 157.48 30.4331 159.014 30.4331C160.48 30.4331 161.621 30.8506 162.438 31.6855C163.254 32.5205 163.662 33.674 163.662 35.146V36.519H156.973C157.004 37.3231 157.242 37.9508 157.688 38.4023C158.133 38.8538 158.757 39.0796 159.562 39.0796C160.186 39.0796 160.777 39.0146 161.333 38.8848C161.89 38.7549 162.472 38.5477 163.078 38.2632V40.4526C162.583 40.7 162.054 40.8825 161.491 41C160.928 41.1237 160.242 41.1855 159.432 41.1855ZM171.752 30.4331C172.135 30.4331 172.454 30.4609 172.708 30.5166L172.494 33.1699C172.265 33.1081 171.987 33.0771 171.659 33.0771C170.756 33.0771 170.051 33.3091 169.544 33.7729C169.043 34.2368 168.792 34.8862 168.792 35.7212V41H165.963V30.6279H168.106L168.523 32.3721H168.663C168.984 31.7907 169.417 31.3237 169.961 30.9712C170.512 30.6125 171.109 30.4331 171.752 30.4331ZM181.827 37.9199C181.827 38.9837 181.456 39.7939 180.714 40.3506C179.978 40.9072 178.874 41.1855 177.402 41.1855C176.647 41.1855 176.004 41.133 175.472 41.0278C174.94 40.9289 174.442 40.7804 173.979 40.5825V38.2446C174.504 38.492 175.095 38.6992 175.75 38.8662C176.412 39.0332 176.994 39.1167 177.495 39.1167C178.521 39.1167 179.035 38.8198 179.035 38.2261C179.035 38.0034 178.967 37.8241 178.831 37.688C178.694 37.5457 178.459 37.388 178.125 37.2148C177.792 37.0355 177.346 36.8283 176.79 36.5933C175.992 36.2593 175.404 35.95 175.027 35.6655C174.656 35.381 174.384 35.0563 174.21 34.6914C174.043 34.3203 173.96 33.8657 173.96 33.3276C173.96 32.4061 174.316 31.6948 175.027 31.1938C175.744 30.6867 176.759 30.4331 178.07 30.4331C179.319 30.4331 180.535 30.7052 181.716 31.2495L180.862 33.2905C180.343 33.0679 179.857 32.8854 179.406 32.7432C178.954 32.6009 178.493 32.5298 178.023 32.5298C177.188 32.5298 176.771 32.7555 176.771 33.207C176.771 33.4606 176.904 33.6802 177.17 33.8657C177.442 34.0513 178.033 34.3265 178.942 34.6914C179.752 35.0192 180.346 35.3254 180.723 35.6099C181.1 35.8944 181.379 36.2222 181.558 36.5933C181.737 36.9644 181.827 37.4066 181.827 37.9199ZM19.6963 67.1855C16.4678 67.1855 14.8535 65.4136 14.8535 61.8696C14.8535 60.1069 15.2926 58.7617 16.1709 57.834C17.0492 56.9001 18.3078 56.4331 19.9468 56.4331C21.1466 56.4331 22.2228 56.6681 23.1753 57.1382L22.3403 59.3276C21.895 59.1483 21.4806 59.0029 21.0972 58.8916C20.7137 58.7741 20.3302 58.7153 19.9468 58.7153C18.4748 58.7153 17.7388 59.7606 17.7388 61.8511C17.7388 63.8797 18.4748 64.894 19.9468 64.894C20.491 64.894 20.9951 64.8229 21.459 64.6807C21.9229 64.5322 22.3867 64.3034 22.8506 63.9941V66.4155C22.3929 66.7062 21.929 66.9072 21.459 67.0186C20.9951 67.1299 20.4076 67.1855 19.6963 67.1855ZM27.5171 61.7954C27.5171 62.8221 27.6841 63.5983 28.0181 64.124C28.3582 64.6497 28.9087 64.9126 29.6694 64.9126C30.424 64.9126 30.9652 64.6528 31.293 64.1333C31.627 63.6076 31.7939 62.8283 31.7939 61.7954C31.7939 60.7687 31.627 59.9987 31.293 59.4854C30.959 58.972 30.4116 58.7153 29.6509 58.7153C28.8963 58.7153 28.3521 58.972 28.0181 59.4854C27.6841 59.9925 27.5171 60.7625 27.5171 61.7954ZM34.6885 61.7954C34.6885 63.4839 34.2432 64.8044 33.3525 65.7568C32.4619 66.7093 31.2218 67.1855 29.6323 67.1855C28.6366 67.1855 27.7583 66.9691 26.9976 66.5361C26.2368 66.097 25.6523 65.4692 25.2441 64.6528C24.8359 63.8364 24.6318 62.884 24.6318 61.7954C24.6318 60.1007 25.0741 58.7834 25.9585 57.8433C26.8429 56.9032 28.0861 56.4331 29.688 56.4331C30.6838 56.4331 31.562 56.6496 32.3228 57.0825C33.0835 57.5155 33.668 58.137 34.0762 58.9473C34.4844 59.7575 34.6885 60.7069 34.6885 61.7954ZM39.856 67H37.0264V52.5645H39.856V67ZM45.6636 67H42.834V52.5645H45.6636V67ZM55.2285 67L54.6812 65.5898H54.6069C54.1307 66.1898 53.639 66.6073 53.1318 66.8423C52.6309 67.0711 51.9753 67.1855 51.165 67.1855C50.1693 67.1855 49.3838 66.901 48.8086 66.332C48.2396 65.763 47.9551 64.9528 47.9551 63.9014C47.9551 62.8005 48.3385 61.9902 49.1055 61.4707C49.8786 60.945 51.0413 60.6543 52.5938 60.5986L54.3936 60.543V60.0884C54.3936 59.0369 53.8555 58.5112 52.7793 58.5112C51.9505 58.5112 50.9764 58.7617 49.8569 59.2627L48.9199 57.3516C50.1136 56.7269 51.4372 56.4146 52.8906 56.4146C54.2822 56.4146 55.3491 56.7176 56.0913 57.3237C56.8335 57.9299 57.2046 58.8514 57.2046 60.0884V67H55.2285ZM54.3936 62.1943L53.2988 62.2314C52.4762 62.2562 51.8639 62.4046 51.4619 62.6768C51.0599 62.9489 50.8589 63.3633 50.8589 63.9199C50.8589 64.7178 51.3166 65.1167 52.2319 65.1167C52.8875 65.1167 53.4102 64.9281 53.7998 64.5508C54.1956 64.1735 54.3936 63.6725 54.3936 63.0479V62.1943ZM65.8975 56.4331C67.1221 56.4331 68.0807 56.9124 68.7734 57.8711C69.4661 58.8236 69.8125 60.1317 69.8125 61.7954C69.8125 63.5086 69.4538 64.8353 68.7363 65.7754C68.0251 66.7155 67.054 67.1855 65.8232 67.1855C64.6048 67.1855 63.6493 66.7433 62.9565 65.8589H62.7617L62.2886 67H60.127V52.5645H62.9565V55.9229C62.9565 56.3496 62.9194 57.033 62.8452 57.9731H62.9565C63.6183 56.9465 64.5986 56.4331 65.8975 56.4331ZM64.9883 58.6968C64.2894 58.6968 63.7791 58.9132 63.4575 59.3462C63.1359 59.7729 62.9689 60.4811 62.9565 61.4707V61.7769C62.9565 62.8901 63.1204 63.688 63.4482 64.1704C63.7822 64.6528 64.3079 64.894 65.0254 64.894C65.6068 64.894 66.0675 64.6281 66.4077 64.0962C66.7541 63.5581 66.9272 62.7788 66.9272 61.7583C66.9272 60.7378 66.7541 59.974 66.4077 59.4668C66.0614 58.9535 65.5882 58.6968 64.9883 58.6968ZM74.4048 61.7954C74.4048 62.8221 74.5718 63.5983 74.9058 64.124C75.2459 64.6497 75.7964 64.9126 76.5571 64.9126C77.3117 64.9126 77.8529 64.6528 78.1807 64.1333C78.5146 63.6076 78.6816 62.8283 78.6816 61.7954C78.6816 60.7687 78.5146 59.9987 78.1807 59.4854C77.8467 58.972 77.2993 58.7153 76.5386 58.7153C75.784 58.7153 75.2397 58.972 74.9058 59.4854C74.5718 59.9925 74.4048 60.7625 74.4048 61.7954ZM81.5762 61.7954C81.5762 63.4839 81.1309 64.8044 80.2402 65.7568C79.3496 66.7093 78.1095 67.1855 76.52 67.1855C75.5243 67.1855 74.646 66.9691 73.8853 66.5361C73.1245 66.097 72.54 65.4692 72.1318 64.6528C71.7236 63.8364 71.5195 62.884 71.5195 61.7954C71.5195 60.1007 71.9618 58.7834 72.8462 57.8433C73.7306 56.9032 74.9738 56.4331 76.5757 56.4331C77.5715 56.4331 78.4497 56.6496 79.2104 57.0825C79.9712 57.5155 80.5557 58.137 80.9639 58.9473C81.3721 59.7575 81.5762 60.7069 81.5762 61.7954ZM89.7031 56.4331C90.0866 56.4331 90.4051 56.4609 90.6587 56.5166L90.4453 59.1699C90.2165 59.1081 89.9382 59.0771 89.6104 59.0771C88.7074 59.0771 88.0023 59.3091 87.4951 59.7729C86.9941 60.2368 86.7437 60.8862 86.7437 61.7212V67H83.9141V56.6279H86.0571L86.4746 58.3721H86.6138C86.9354 57.7907 87.3683 57.3237 87.9126 56.9712C88.4631 56.6125 89.0599 56.4331 89.7031 56.4331ZM98.9434 67L98.396 65.5898H98.3218C97.8455 66.1898 97.3538 66.6073 96.8467 66.8423C96.3457 67.0711 95.6901 67.1855 94.8799 67.1855C93.8841 67.1855 93.0986 66.901 92.5234 66.332C91.9544 65.763 91.6699 64.9528 91.6699 63.9014C91.6699 62.8005 92.0534 61.9902 92.8203 61.4707C93.5934 60.945 94.7562 60.6543 96.3086 60.5986L98.1084 60.543V60.0884C98.1084 59.0369 97.5703 58.5112 96.4941 58.5112C95.6654 58.5112 94.6912 58.7617 93.5718 59.2627L92.6348 57.3516C93.8285 56.7269 95.152 56.4146 96.6055 56.4146C97.9971 56.4146 99.064 56.7176 99.8062 57.3237C100.548 57.9299 100.919 58.8514 100.919 60.0884V67H98.9434ZM98.1084 62.1943L97.0137 62.2314C96.1911 62.2562 95.5788 62.4046 95.1768 62.6768C94.7747 62.9489 94.5737 63.3633 94.5737 63.9199C94.5737 64.7178 95.0314 65.1167 95.9468 65.1167C96.6024 65.1167 97.125 64.9281 97.5146 64.5508C97.9105 64.1735 98.1084 63.6725 98.1084 63.0479V62.1943ZM108.211 64.9312C108.706 64.9312 109.3 64.8229 109.993 64.6064V66.7124C109.288 67.0278 108.422 67.1855 107.395 67.1855C106.263 67.1855 105.438 66.901 104.918 66.332C104.405 65.7568 104.148 64.8971 104.148 63.7529V58.7524H102.793V57.5557L104.352 56.6094L105.168 54.4199H106.978V56.6279H109.881V58.7524H106.978V63.7529C106.978 64.1549 107.089 64.4518 107.312 64.6436C107.54 64.8353 107.84 64.9312 108.211 64.9312ZM116.394 58.4463C115.794 58.4463 115.324 58.638 114.984 59.0215C114.644 59.3988 114.449 59.9368 114.399 60.6357H118.37C118.358 59.9368 118.175 59.3988 117.823 59.0215C117.47 58.638 116.994 58.4463 116.394 58.4463ZM116.793 67.1855C115.123 67.1855 113.818 66.7248 112.878 65.8032C111.938 64.8817 111.468 63.5767 111.468 61.8882C111.468 60.1502 111.901 58.8081 112.767 57.8618C113.639 56.9093 114.842 56.4331 116.375 56.4331C117.841 56.4331 118.982 56.8506 119.799 57.6855C120.615 58.5205 121.023 59.674 121.023 61.146V62.519H114.334C114.365 63.3231 114.604 63.9508 115.049 64.4023C115.494 64.8538 116.119 65.0796 116.923 65.0796C117.548 65.0796 118.138 65.0146 118.695 64.8848C119.251 64.7549 119.833 64.5477 120.439 64.2632V66.4526C119.944 66.7 119.415 66.8825 118.853 67C118.29 67.1237 117.603 67.1855 116.793 67.1855ZM128.139 53.9468C128.139 53.0252 128.653 52.5645 129.679 52.5645C130.706 52.5645 131.219 53.0252 131.219 53.9468C131.219 54.3859 131.089 54.7292 130.83 54.9766C130.576 55.2178 130.193 55.3384 129.679 55.3384C128.653 55.3384 128.139 54.8745 128.139 53.9468ZM131.089 67H128.26V56.6279H131.089V67ZM143.642 67H140.812V60.9419C140.812 60.1935 140.679 59.6338 140.413 59.2627C140.147 58.8854 139.723 58.6968 139.142 58.6968C138.35 58.6968 137.778 58.9627 137.426 59.4946C137.073 60.0203 136.897 60.8955 136.897 62.1201V67H134.067V56.6279H136.229L136.609 57.9546H136.767C137.083 57.4536 137.515 57.0763 138.066 56.8228C138.623 56.563 139.253 56.4331 139.958 56.4331C141.165 56.4331 142.08 56.7609 142.705 57.4165C143.329 58.0659 143.642 59.006 143.642 60.2368V67ZM159.719 63.2334C159.719 64.458 159.277 65.4229 158.393 66.1279C157.514 66.833 156.29 67.1855 154.719 67.1855C153.271 67.1855 151.991 66.9134 150.878 66.3691V63.6973C151.793 64.1055 152.566 64.3931 153.197 64.5601C153.834 64.7271 154.416 64.8105 154.941 64.8105C155.572 64.8105 156.055 64.6899 156.389 64.4487C156.729 64.2075 156.899 63.8488 156.899 63.3726C156.899 63.1066 156.825 62.8716 156.676 62.6675C156.528 62.4572 156.308 62.2562 156.018 62.0645C155.733 61.8727 155.149 61.5666 154.264 61.146C153.435 60.7563 152.814 60.3822 152.399 60.0234C151.985 59.6647 151.654 59.2472 151.407 58.771C151.159 58.2948 151.036 57.7381 151.036 57.1011C151.036 55.9012 151.441 54.958 152.251 54.2715C153.067 53.585 154.193 53.2417 155.628 53.2417C156.333 53.2417 157.004 53.3252 157.641 53.4922C158.284 53.6592 158.955 53.8942 159.654 54.1973L158.727 56.4331C158.003 56.1362 157.403 55.929 156.927 55.8115C156.457 55.694 155.993 55.6353 155.535 55.6353C154.991 55.6353 154.573 55.762 154.283 56.0156C153.992 56.2692 153.847 56.6001 153.847 57.0083C153.847 57.2619 153.905 57.4845 154.023 57.6763C154.14 57.8618 154.326 58.0443 154.58 58.2236C154.839 58.3968 155.449 58.7122 156.407 59.1699C157.675 59.776 158.544 60.3853 159.014 60.9976C159.484 61.6037 159.719 62.349 159.719 63.2334ZM162.178 67V53.4365H165.054V64.625H170.555V67H162.178ZM180.927 63.2334C180.927 64.458 180.485 65.4229 179.601 66.1279C178.722 66.833 177.498 67.1855 175.927 67.1855C174.479 67.1855 173.199 66.9134 172.086 66.3691V63.6973C173.001 64.1055 173.774 64.3931 174.405 64.5601C175.042 64.7271 175.624 64.8105 176.149 64.8105C176.78 64.8105 177.263 64.6899 177.597 64.4487C177.937 64.2075 178.107 63.8488 178.107 63.3726C178.107 63.1066 178.033 62.8716 177.884 62.6675C177.736 62.4572 177.516 62.2562 177.226 62.0645C176.941 61.8727 176.357 61.5666 175.472 61.146C174.643 60.7563 174.022 60.3822 173.607 60.0234C173.193 59.6647 172.862 59.2472 172.615 58.771C172.367 58.2948 172.244 57.7381 172.244 57.1011C172.244 55.9012 172.649 54.958 173.459 54.2715C174.275 53.585 175.401 53.2417 176.836 53.2417C177.541 53.2417 178.212 53.3252 178.849 53.4922C179.492 53.6592 180.163 53.8942 180.862 54.1973L179.935 56.4331C179.211 56.1362 178.611 55.929 178.135 55.8115C177.665 55.694 177.201 55.6353 176.743 55.6353C176.199 55.6353 175.781 55.762 175.491 56.0156C175.2 56.2692 175.055 56.6001 175.055 57.0083C175.055 57.2619 175.113 57.4845 175.231 57.6763C175.348 57.8618 175.534 58.0443 175.788 58.2236C176.047 58.3968 176.657 58.7122 177.615 59.1699C178.883 59.776 179.752 60.3853 180.222 60.9976C180.692 61.6037 180.927 62.349 180.927 63.2334ZM185.074 62.5005V61.814C185.074 61.4985 185.105 61.214 185.167 60.9604C185.235 60.7007 185.334 60.4564 185.464 60.2275C185.6 59.9925 185.773 59.7668 185.983 59.5503C186.194 59.3276 186.447 59.0988 186.744 58.8638C187.004 58.6597 187.223 58.4772 187.403 58.3164C187.582 58.1556 187.728 57.9979 187.839 57.8433C187.95 57.6825 188.031 57.5155 188.08 57.3423C188.13 57.1691 188.154 56.9681 188.154 56.7393C188.154 56.3867 188.034 56.096 187.792 55.8672C187.557 55.6383 187.196 55.5239 186.707 55.5239C186.28 55.5239 185.819 55.6136 185.325 55.793C184.836 55.9723 184.329 56.1919 183.803 56.4517L182.857 54.4014C183.123 54.2467 183.41 54.1014 183.72 53.9653C184.035 53.8231 184.36 53.6994 184.694 53.5942C185.034 53.4829 185.377 53.3963 185.724 53.3345C186.07 53.2726 186.41 53.2417 186.744 53.2417C187.375 53.2417 187.944 53.319 188.451 53.4736C188.958 53.6221 189.388 53.8416 189.741 54.1323C190.093 54.423 190.362 54.7756 190.548 55.1899C190.74 55.6043 190.835 56.0775 190.835 56.6094C190.835 56.999 190.792 57.3485 190.706 57.6577C190.619 57.9608 190.489 58.2453 190.316 58.5112C190.149 58.771 189.936 59.0246 189.676 59.272C189.422 59.5132 189.125 59.7699 188.785 60.042C188.525 60.2461 188.312 60.4255 188.145 60.5801C187.984 60.7285 187.857 60.8708 187.765 61.0068C187.672 61.1429 187.607 61.2852 187.57 61.4336C187.539 61.5758 187.523 61.7459 187.523 61.9438V62.5005H185.074ZM184.768 65.6733C184.768 65.3826 184.808 65.1383 184.889 64.9404C184.975 64.7363 185.093 64.5724 185.241 64.4487C185.39 64.325 185.563 64.2354 185.761 64.1797C185.965 64.124 186.181 64.0962 186.41 64.0962C186.627 64.0962 186.831 64.124 187.022 64.1797C187.22 64.2354 187.394 64.325 187.542 64.4487C187.69 64.5724 187.808 64.7363 187.895 64.9404C187.981 65.1383 188.024 65.3826 188.024 65.6733C188.024 65.9517 187.981 66.1898 187.895 66.3877C187.808 66.5856 187.69 66.7495 187.542 66.8794C187.394 67.0093 187.22 67.1021 187.022 67.1577C186.831 67.2196 186.627 67.2505 186.41 67.2505C186.181 67.2505 185.965 67.2196 185.761 67.1577C185.563 67.1021 185.39 67.0093 185.241 66.8794C185.093 66.7495 184.975 66.5856 184.889 66.3877C184.808 66.1898 184.768 65.9517 184.768 65.6733Z"></path>
<path stroke-linejoin="round" stroke-miterlimit="10" stroke="#0B233F" fill="#F3F5F8" d="M318.5 15.167C318.5 7.06699 325.067 0.5 333.167 0.5H545.833C553.933 0.5 560.5 7.06699 560.5 15.167V73.833C560.5 81.933 553.933 88.5 545.833 88.5H333.167C325.067 88.5 318.5 81.933 318.5 73.833V15.167Z" clip-rule="evenodd" fill-rule="evenodd"></path>
<path fill="#0B233F" d="M341.416 48.3726C341.416 49.5539 340.989 50.4847 340.136 51.165C339.282 51.8454 338.095 52.1855 336.573 52.1855C334.965 52.1855 333.722 51.9722 332.844 51.5454V49.9126C333.419 50.16 334.047 50.3548 334.727 50.4971C335.414 50.6393 336.054 50.7104 336.648 50.7104C337.662 50.7104 338.426 50.5156 338.939 50.126C339.452 49.7363 339.709 49.2013 339.709 48.521C339.709 48.0695 339.616 47.6984 339.431 47.4077C339.245 47.117 338.933 46.8449 338.494 46.5913C338.061 46.3377 337.402 46.0501 336.518 45.7285C335.262 45.2708 334.365 44.7327 333.827 44.1143C333.289 43.4896 333.02 42.6855 333.02 41.7021C333.02 40.6445 333.416 39.8034 334.208 39.1787C335.005 38.554 336.054 38.2417 337.353 38.2417C338.707 38.2417 339.953 38.4953 341.091 39.0024L340.563 40.4683C339.4 39.9858 338.318 39.7446 337.316 39.7446C336.512 39.7446 335.881 39.9178 335.423 40.2642C334.971 40.6105 334.746 41.096 334.746 41.7207C334.746 42.166 334.832 42.5371 335.005 42.834C335.185 43.1247 335.469 43.3906 335.859 43.6318C336.255 43.873 336.873 44.1483 337.714 44.4575C338.723 44.8286 339.474 45.1904 339.969 45.543C340.464 45.8893 340.829 46.2913 341.064 46.749C341.299 47.2005 341.416 47.7417 341.416 48.3726ZM350.86 52V45.4873C350.86 44.6585 350.675 44.0431 350.304 43.6411C349.939 43.2329 349.364 43.0288 348.578 43.0288C347.545 43.0288 346.788 43.3164 346.305 43.8916C345.829 44.4668 345.591 45.4162 345.591 46.7397V52H343.921V37.5645H345.591V41.7949C345.591 42.3516 345.56 42.8278 345.498 43.2236H345.609C345.913 42.7288 346.342 42.3423 346.899 42.064C347.456 41.7856 348.083 41.6465 348.782 41.6465C350.019 41.6465 350.95 41.9434 351.575 42.5371C352.2 43.1247 352.512 44.0679 352.512 45.3667V52H350.86ZM361.956 52L361.631 50.5527H361.557C361.05 51.1898 360.543 51.6227 360.036 51.8516C359.535 52.0742 358.901 52.1855 358.134 52.1855C357.132 52.1855 356.346 51.9227 355.777 51.397C355.208 50.8713 354.924 50.1291 354.924 49.1704C354.924 47.1047 356.554 46.0223 359.813 45.9233L361.539 45.8584V45.2554C361.539 44.4823 361.372 43.9132 361.038 43.5483C360.704 43.1772 360.169 42.9917 359.433 42.9917C358.895 42.9917 358.384 43.0721 357.902 43.2329C357.426 43.3937 356.977 43.5731 356.557 43.771L356.047 42.5186C356.56 42.2464 357.12 42.033 357.726 41.8784C358.332 41.7238 358.932 41.6465 359.526 41.6465C360.756 41.6465 361.672 41.9186 362.272 42.4629C362.872 43.0072 363.172 43.873 363.172 45.0605V52H361.956ZM358.514 50.8403C359.448 50.8403 360.181 50.5898 360.713 50.0889C361.251 49.5817 361.52 48.8643 361.52 47.9365V47.0181L360.017 47.083C358.848 47.1263 357.995 47.3118 357.457 47.6396C356.925 47.9674 356.659 48.4839 356.659 49.189C356.659 49.7209 356.82 50.1291 357.141 50.4136C357.469 50.6981 357.927 50.8403 358.514 50.8403ZM371.085 41.6279C371.537 41.6279 371.936 41.665 372.282 41.7393L372.078 43.2793C371.7 43.1927 371.332 43.1494 370.974 43.1494C370.436 43.1494 369.935 43.2979 369.471 43.5947C369.013 43.8916 368.654 44.3029 368.395 44.8286C368.135 45.3481 368.005 45.9264 368.005 46.5635V52H366.335V41.8135H367.708L367.894 43.6782H367.968C368.358 43.0041 368.818 42.4938 369.35 42.1475C369.882 41.8011 370.46 41.6279 371.085 41.6279ZM378.331 52.1855C376.803 52.1855 375.603 51.7248 374.731 50.8032C373.865 49.8755 373.432 48.6014 373.432 46.981C373.432 45.3481 373.837 44.0493 374.648 43.0845C375.458 42.1134 376.553 41.6279 377.932 41.6279C379.212 41.6279 380.233 42.0423 380.993 42.8711C381.754 43.6937 382.134 44.8101 382.134 46.2202V47.2314H375.158C375.189 48.388 375.483 49.2663 376.039 49.8662C376.596 50.4661 377.384 50.7661 378.405 50.7661C378.949 50.7661 379.466 50.7197 379.954 50.627C380.443 50.528 381.015 50.3394 381.671 50.061V51.5269C381.108 51.7681 380.579 51.9382 380.084 52.0371C379.589 52.1361 379.005 52.1855 378.331 52.1855ZM377.913 42.9917C377.115 42.9917 376.484 43.2484 376.021 43.7617C375.557 44.2751 375.282 44.9894 375.195 45.9048H380.381C380.369 44.9523 380.149 44.2287 379.722 43.7339C379.296 43.2391 378.693 42.9917 377.913 42.9917ZM395.948 52L395.624 50.5527H395.549C395.042 51.1898 394.535 51.6227 394.028 51.8516C393.527 52.0742 392.893 52.1855 392.126 52.1855C391.124 52.1855 390.339 51.9227 389.77 51.397C389.201 50.8713 388.916 50.1291 388.916 49.1704C388.916 47.1047 390.546 46.0223 393.805 45.9233L395.531 45.8584V45.2554C395.531 44.4823 395.364 43.9132 395.03 43.5483C394.696 43.1772 394.161 42.9917 393.425 42.9917C392.887 42.9917 392.377 43.0721 391.894 43.2329C391.418 43.3937 390.97 43.5731 390.549 43.771L390.039 42.5186C390.552 42.2464 391.112 42.033 391.718 41.8784C392.324 41.7238 392.924 41.6465 393.518 41.6465C394.748 41.6465 395.664 41.9186 396.264 42.4629C396.864 43.0072 397.164 43.873 397.164 45.0605V52H395.948ZM392.506 50.8403C393.44 50.8403 394.173 50.5898 394.705 50.0889C395.243 49.5817 395.512 48.8643 395.512 47.9365V47.0181L394.009 47.083C392.84 47.1263 391.987 47.3118 391.449 47.6396C390.917 47.9674 390.651 48.4839 390.651 49.189C390.651 49.7209 390.812 50.1291 391.133 50.4136C391.461 50.6981 391.919 50.8403 392.506 50.8403ZM411.479 52L407.007 40.1064H406.933C407.026 41.096 407.072 42.3175 407.072 43.771V52H405.495V38.4365H408.018L412.202 49.5508H412.276L416.535 38.4365H419.04V52H417.351V43.6597C417.351 42.7319 417.394 41.5537 417.481 40.125H417.407L412.88 52H411.479ZM431.351 46.8882C431.351 48.5519 430.93 49.8507 430.089 50.7847C429.248 51.7186 428.085 52.1855 426.601 52.1855C425.679 52.1855 424.863 51.9722 424.151 51.5454C423.44 51.1125 422.893 50.494 422.509 49.6899C422.126 48.8859 421.934 47.952 421.934 46.8882C421.934 45.2306 422.349 43.9411 423.177 43.0195C424.006 42.0918 425.169 41.6279 426.666 41.6279C428.101 41.6279 429.239 42.1011 430.08 43.0474C430.927 43.9875 431.351 45.2677 431.351 46.8882ZM423.66 46.8882C423.66 48.1685 423.91 49.1426 424.411 49.8105C424.918 50.4723 425.664 50.8032 426.647 50.8032C427.618 50.8032 428.357 50.4723 428.864 49.8105C429.372 49.1426 429.625 48.1685 429.625 46.8882C429.625 45.6079 429.368 44.6462 428.855 44.0029C428.348 43.3535 427.603 43.0288 426.619 43.0288C424.646 43.0288 423.66 44.3153 423.66 46.8882ZM437.613 52.1855C436.289 52.1855 435.263 51.7279 434.533 50.8125C433.803 49.8971 433.438 48.6014 433.438 46.9253C433.438 45.2616 433.803 43.9627 434.533 43.0288C435.269 42.0949 436.302 41.6279 437.631 41.6279C438.998 41.6279 440.05 42.1289 440.786 43.1309H440.906C440.888 43.0072 440.863 42.7598 440.832 42.3887C440.801 42.0114 440.786 41.7578 440.786 41.6279V37.5645H442.456V52H441.11L440.86 50.6362H440.786C440.075 51.6691 439.017 52.1855 437.613 52.1855ZM437.882 50.8032C438.896 50.8032 439.635 50.528 440.099 49.9775C440.569 49.4209 440.804 48.5117 440.804 47.25V46.9438C440.804 45.5275 440.566 44.5194 440.09 43.9194C439.62 43.3133 438.878 43.0103 437.863 43.0103C437.004 43.0103 436.339 43.3535 435.869 44.04C435.399 44.7204 435.164 45.6945 435.164 46.9624C435.164 48.2241 435.396 49.1797 435.859 49.8291C436.33 50.4785 437.004 50.8032 437.882 50.8032ZM447.271 41.8135V48.3726C447.271 49.1951 447.453 49.8075 447.818 50.2095C448.189 50.6053 448.761 50.8032 449.534 50.8032C450.58 50.8032 451.34 50.5125 451.817 49.9312C452.293 49.3498 452.531 48.4128 452.531 47.1201V41.8135H454.21V52H452.837L452.596 50.6548H452.512C452.209 51.1434 451.779 51.5207 451.223 51.7866C450.666 52.0526 450.02 52.1855 449.284 52.1855C448.059 52.1855 447.135 51.8918 446.51 51.3042C445.891 50.7166 445.582 49.7765 445.582 48.4839V41.8135H447.271ZM459.109 52H457.439V37.5645H459.109V52ZM466.67 52.1855C465.142 52.1855 463.942 51.7248 463.07 50.8032C462.204 49.8755 461.771 48.6014 461.771 46.981C461.771 45.3481 462.176 44.0493 462.986 43.0845C463.797 42.1134 464.891 41.6279 466.271 41.6279C467.551 41.6279 468.571 42.0423 469.332 42.8711C470.093 43.6937 470.473 44.8101 470.473 46.2202V47.2314H463.497C463.528 48.388 463.821 49.2663 464.378 49.8662C464.935 50.4661 465.723 50.7661 466.744 50.7661C467.288 50.7661 467.804 50.7197 468.293 50.627C468.782 50.528 469.354 50.3394 470.009 50.061V51.5269C469.447 51.7681 468.918 51.9382 468.423 52.0371C467.928 52.1361 467.344 52.1855 466.67 52.1855ZM466.252 42.9917C465.454 42.9917 464.823 43.2484 464.359 43.7617C463.896 44.2751 463.62 44.9894 463.534 45.9048H468.72C468.707 44.9523 468.488 44.2287 468.061 43.7339C467.634 43.2391 467.031 42.9917 466.252 42.9917Z"></path>
<path fill="#E96969" d="M252 42.9995H284.862C285.414 42.9995 285.862 43.4475 285.862 43.9995V44.0625L284.862 43.0625H311.066V45.0625H284.862C284.31 45.0625 283.862 44.6145 283.862 44.0625V43.9995L284.862 44.9995H252V42.9995ZM309.732 40.0625L317.732 44.0625L309.732 48.0625V40.0625Z"></path>
<path stroke-linejoin="round" stroke-miterlimit="10" stroke="#0B233F" fill="#F3F5F8" d="M318.5 123.167C318.5 115.067 325.067 108.5 333.167 108.5H545.833C553.933 108.5 560.5 115.067 560.5 123.167V181.833C560.5 189.933 553.933 196.5 545.833 196.5H333.167C325.067 196.5 318.5 189.933 318.5 181.833V123.167Z" clip-rule="evenodd" fill-rule="evenodd"></path>
<path fill="#0B233F" d="M342.233 160L340.6 155.797H335.219L333.605 160H331.879L337.176 146.381H338.716L344.005 160H342.233ZM340.089 154.285L338.568 150.175L337.919 148.144C337.733 148.886 337.538 149.563 337.334 150.175L335.794 154.285H340.089ZM349.729 160.186C348.263 160.186 347.122 159.737 346.305 158.84C345.489 157.937 345.081 156.645 345.081 154.962C345.081 153.255 345.492 151.941 346.315 151.02C347.143 150.092 348.322 149.628 349.849 149.628C350.344 149.628 350.833 149.681 351.315 149.786C351.804 149.885 352.206 150.014 352.521 150.175L352.011 151.567C351.151 151.245 350.418 151.084 349.812 151.084C348.785 151.084 348.028 151.409 347.539 152.059C347.051 152.702 346.806 153.664 346.806 154.944C346.806 156.175 347.051 157.118 347.539 157.773C348.028 158.423 348.751 158.748 349.71 158.748C350.607 158.748 351.488 158.55 352.354 158.154V159.638C351.649 160.003 350.774 160.186 349.729 160.186ZM358.858 160.186C357.392 160.186 356.251 159.737 355.434 158.84C354.618 157.937 354.21 156.645 354.21 154.962C354.21 153.255 354.621 151.941 355.443 151.02C356.272 150.092 357.45 149.628 358.978 149.628C359.473 149.628 359.962 149.681 360.444 149.786C360.933 149.885 361.335 150.014 361.65 150.175L361.14 151.567C360.28 151.245 359.547 151.084 358.941 151.084C357.914 151.084 357.157 151.409 356.668 152.059C356.179 152.702 355.935 153.664 355.935 154.944C355.935 156.175 356.179 157.118 356.668 157.773C357.157 158.423 357.88 158.748 358.839 158.748C359.736 158.748 360.617 158.55 361.483 158.154V159.638C360.778 160.003 359.903 160.186 358.858 160.186ZM368.237 160.186C366.709 160.186 365.509 159.725 364.637 158.803C363.771 157.875 363.339 156.601 363.339 154.981C363.339 153.348 363.744 152.049 364.554 151.084C365.364 150.113 366.459 149.628 367.838 149.628C369.118 149.628 370.139 150.042 370.9 150.871C371.66 151.694 372.041 152.81 372.041 154.22V155.231H365.064C365.095 156.388 365.389 157.266 365.945 157.866C366.502 158.466 367.291 158.766 368.311 158.766C368.855 158.766 369.372 158.72 369.86 158.627C370.349 158.528 370.921 158.339 371.577 158.061V159.527C371.014 159.768 370.485 159.938 369.99 160.037C369.496 160.136 368.911 160.186 368.237 160.186ZM367.819 150.992C367.022 150.992 366.391 151.248 365.927 151.762C365.463 152.275 365.188 152.989 365.101 153.905H370.287C370.275 152.952 370.055 152.229 369.629 151.734C369.202 151.239 368.599 150.992 367.819 150.992ZM381.262 157.189C381.262 158.141 380.907 158.881 380.195 159.406C379.484 159.926 378.485 160.186 377.199 160.186C375.857 160.186 374.79 159.972 373.998 159.545V158.024C375.118 158.568 376.197 158.84 377.236 158.84C378.077 158.84 378.689 158.704 379.073 158.432C379.456 158.16 379.648 157.795 379.648 157.337C379.648 156.935 379.463 156.595 379.091 156.317C378.727 156.039 378.074 155.72 377.134 155.361C376.175 154.99 375.501 154.675 375.111 154.415C374.722 154.149 374.434 153.852 374.249 153.524C374.069 153.197 373.98 152.798 373.98 152.328C373.98 151.493 374.32 150.834 375 150.352C375.68 149.869 376.614 149.628 377.802 149.628C378.958 149.628 380.041 149.857 381.049 150.314L380.483 151.641C379.45 151.208 378.519 150.992 377.691 150.992C376.998 150.992 376.472 151.103 376.113 151.326C375.755 151.542 375.575 151.842 375.575 152.226C375.575 152.597 375.73 152.906 376.039 153.153C376.348 153.395 377.069 153.732 378.201 154.165C379.048 154.48 379.673 154.774 380.075 155.046C380.483 155.318 380.783 155.624 380.975 155.964C381.166 156.305 381.262 156.713 381.262 157.189ZM390.373 157.189C390.373 158.141 390.017 158.881 389.306 159.406C388.595 159.926 387.596 160.186 386.309 160.186C384.967 160.186 383.9 159.972 383.109 159.545V158.024C384.228 158.568 385.307 158.84 386.346 158.84C387.187 158.84 387.8 158.704 388.183 158.432C388.567 158.16 388.758 157.795 388.758 157.337C388.758 156.935 388.573 156.595 388.202 156.317C387.837 156.039 387.184 155.72 386.244 155.361C385.286 154.99 384.611 154.675 384.222 154.415C383.832 154.149 383.545 153.852 383.359 153.524C383.18 153.197 383.09 152.798 383.09 152.328C383.09 151.493 383.43 150.834 384.11 150.352C384.791 149.869 385.725 149.628 386.912 149.628C388.069 149.628 389.151 149.857 390.159 150.314L389.593 151.641C388.561 151.208 387.63 150.992 386.801 150.992C386.108 150.992 385.582 151.103 385.224 151.326C384.865 151.542 384.686 151.842 384.686 152.226C384.686 152.597 384.84 152.906 385.15 153.153C385.459 153.395 386.179 153.732 387.311 154.165C388.158 154.48 388.783 154.774 389.185 155.046C389.593 155.318 389.893 155.624 390.085 155.964C390.277 156.305 390.373 156.713 390.373 157.189ZM404.075 160L403.751 158.553H403.676C403.169 159.19 402.662 159.623 402.155 159.852C401.654 160.074 401.02 160.186 400.253 160.186C399.251 160.186 398.466 159.923 397.897 159.397C397.328 158.871 397.043 158.129 397.043 157.17C397.043 155.105 398.673 154.022 401.932 153.923L403.658 153.858V153.255C403.658 152.482 403.491 151.913 403.157 151.548C402.823 151.177 402.288 150.992 401.552 150.992C401.014 150.992 400.504 151.072 400.021 151.233C399.545 151.394 399.096 151.573 398.676 151.771L398.166 150.519C398.679 150.246 399.239 150.033 399.845 149.878C400.451 149.724 401.051 149.646 401.645 149.646C402.875 149.646 403.791 149.919 404.391 150.463C404.991 151.007 405.291 151.873 405.291 153.061V160H404.075ZM400.633 158.84C401.567 158.84 402.3 158.59 402.832 158.089C403.37 157.582 403.639 156.864 403.639 155.937V155.018L402.136 155.083C400.967 155.126 400.114 155.312 399.576 155.64C399.044 155.967 398.778 156.484 398.778 157.189C398.778 157.721 398.939 158.129 399.26 158.414C399.588 158.698 400.046 158.84 400.633 158.84ZM421.313 156.373C421.313 157.554 420.886 158.485 420.032 159.165C419.179 159.845 417.991 160.186 416.47 160.186C414.862 160.186 413.619 159.972 412.74 159.545V157.913C413.316 158.16 413.943 158.355 414.624 158.497C415.31 158.639 415.95 158.71 416.544 158.71C417.558 158.71 418.322 158.516 418.836 158.126C419.349 157.736 419.606 157.201 419.606 156.521C419.606 156.069 419.513 155.698 419.327 155.408C419.142 155.117 418.829 154.845 418.39 154.591C417.957 154.338 417.299 154.05 416.414 153.729C415.159 153.271 414.262 152.733 413.724 152.114C413.186 151.49 412.917 150.686 412.917 149.702C412.917 148.645 413.312 147.803 414.104 147.179C414.902 146.554 415.95 146.242 417.249 146.242C418.604 146.242 419.85 146.495 420.988 147.002L420.459 148.468C419.296 147.986 418.214 147.745 417.212 147.745C416.408 147.745 415.777 147.918 415.319 148.264C414.868 148.611 414.642 149.096 414.642 149.721C414.642 150.166 414.729 150.537 414.902 150.834C415.081 151.125 415.366 151.391 415.755 151.632C416.151 151.873 416.77 152.148 417.611 152.458C418.619 152.829 419.371 153.19 419.865 153.543C420.36 153.889 420.725 154.291 420.96 154.749C421.195 155.201 421.313 155.742 421.313 156.373ZM430.757 160V153.487C430.757 152.659 430.571 152.043 430.2 151.641C429.835 151.233 429.26 151.029 428.475 151.029C427.442 151.029 426.684 151.316 426.202 151.892C425.726 152.467 425.487 153.416 425.487 154.74V160H423.818V145.564H425.487V149.795C425.487 150.352 425.457 150.828 425.395 151.224H425.506C425.809 150.729 426.239 150.342 426.796 150.064C427.352 149.786 427.98 149.646 428.679 149.646C429.916 149.646 430.847 149.943 431.471 150.537C432.096 151.125 432.408 152.068 432.408 153.367V160H430.757ZM441.853 160L441.528 158.553H441.454C440.947 159.19 440.439 159.623 439.932 159.852C439.431 160.074 438.797 160.186 438.03 160.186C437.028 160.186 436.243 159.923 435.674 159.397C435.105 158.871 434.82 158.129 434.82 157.17C434.82 155.105 436.45 154.022 439.71 153.923L441.435 153.858V153.255C441.435 152.482 441.268 151.913 440.934 151.548C440.6 151.177 440.065 150.992 439.329 150.992C438.791 150.992 438.281 151.072 437.798 151.233C437.322 151.394 436.874 151.573 436.453 151.771L435.943 150.519C436.456 150.246 437.016 150.033 437.622 149.878C438.228 149.724 438.828 149.646 439.422 149.646C440.653 149.646 441.568 149.919 442.168 150.463C442.768 151.007 443.068 151.873 443.068 153.061V160H441.853ZM438.411 158.84C439.345 158.84 440.078 158.59 440.609 158.089C441.148 157.582 441.417 156.864 441.417 155.937V155.018L439.914 155.083C438.745 155.126 437.891 155.312 437.353 155.64C436.821 155.967 436.555 156.484 436.555 157.189C436.555 157.721 436.716 158.129 437.038 158.414C437.366 158.698 437.823 158.84 438.411 158.84ZM450.982 149.628C451.433 149.628 451.832 149.665 452.178 149.739L451.974 151.279C451.597 151.193 451.229 151.149 450.87 151.149C450.332 151.149 449.831 151.298 449.367 151.595C448.91 151.892 448.551 152.303 448.291 152.829C448.031 153.348 447.901 153.926 447.901 154.563V160H446.232V149.813H447.605L447.79 151.678H447.864C448.254 151.004 448.715 150.494 449.247 150.147C449.779 149.801 450.357 149.628 450.982 149.628ZM458.227 160.186C456.7 160.186 455.5 159.725 454.628 158.803C453.762 157.875 453.329 156.601 453.329 154.981C453.329 153.348 453.734 152.049 454.544 151.084C455.354 150.113 456.449 149.628 457.828 149.628C459.109 149.628 460.129 150.042 460.89 150.871C461.651 151.694 462.031 152.81 462.031 154.22V155.231H455.054C455.085 156.388 455.379 157.266 455.936 157.866C456.492 158.466 457.281 158.766 458.301 158.766C458.846 158.766 459.362 158.72 459.851 158.627C460.339 158.528 460.911 158.339 461.567 158.061V159.527C461.004 159.768 460.475 159.938 459.981 160.037C459.486 160.136 458.901 160.186 458.227 160.186ZM457.81 150.992C457.012 150.992 456.381 151.248 455.917 151.762C455.453 152.275 455.178 152.989 455.091 153.905H460.277C460.265 152.952 460.046 152.229 459.619 151.734C459.192 151.239 458.589 150.992 457.81 150.992ZM468.228 160.186C466.905 160.186 465.878 159.728 465.148 158.812C464.418 157.897 464.053 156.601 464.053 154.925C464.053 153.262 464.418 151.963 465.148 151.029C465.884 150.095 466.917 149.628 468.247 149.628C469.614 149.628 470.665 150.129 471.401 151.131H471.522C471.503 151.007 471.478 150.76 471.447 150.389C471.416 150.011 471.401 149.758 471.401 149.628V145.564H473.071V160H471.726L471.475 158.636H471.401C470.69 159.669 469.632 160.186 468.228 160.186ZM468.497 158.803C469.512 158.803 470.251 158.528 470.714 157.978C471.185 157.421 471.42 156.512 471.42 155.25V154.944C471.42 153.528 471.181 152.519 470.705 151.919C470.235 151.313 469.493 151.01 468.479 151.01C467.619 151.01 466.954 151.354 466.484 152.04C466.014 152.72 465.779 153.694 465.779 154.962C465.779 156.224 466.011 157.18 466.475 157.829C466.945 158.479 467.619 158.803 468.497 158.803ZM487.46 160L482.988 148.106H482.914C483.007 149.096 483.053 150.318 483.053 151.771V160H481.476V146.437H484L488.184 157.551H488.258L492.516 146.437H495.021V160H493.333V151.66C493.333 150.732 493.376 149.554 493.463 148.125H493.388L488.861 160H487.46ZM507.332 154.888C507.332 156.552 506.912 157.851 506.07 158.785C505.229 159.719 504.067 160.186 502.582 160.186C501.661 160.186 500.844 159.972 500.133 159.545C499.422 159.112 498.874 158.494 498.491 157.69C498.107 156.886 497.916 155.952 497.916 154.888C497.916 153.231 498.33 151.941 499.159 151.02C499.988 150.092 501.15 149.628 502.647 149.628C504.082 149.628 505.22 150.101 506.061 151.047C506.908 151.987 507.332 153.268 507.332 154.888ZM499.641 154.888C499.641 156.168 499.892 157.143 500.393 157.811C500.9 158.472 501.645 158.803 502.629 158.803C503.6 158.803 504.339 158.472 504.846 157.811C505.353 157.143 505.607 156.168 505.607 154.888C505.607 153.608 505.35 152.646 504.837 152.003C504.329 151.354 503.584 151.029 502.601 151.029C500.628 151.029 499.641 152.315 499.641 154.888ZM513.594 160.186C512.271 160.186 511.244 159.728 510.514 158.812C509.784 157.897 509.42 156.601 509.42 154.925C509.42 153.262 509.784 151.963 510.514 151.029C511.25 150.095 512.283 149.628 513.613 149.628C514.98 149.628 516.031 150.129 516.767 151.131H516.888C516.869 151.007 516.845 150.76 516.814 150.389C516.783 150.011 516.767 149.758 516.767 149.628V145.564H518.437V160H517.092L516.841 158.636H516.767C516.056 159.669 514.998 160.186 513.594 160.186ZM513.863 158.803C514.878 158.803 515.617 158.528 516.081 157.978C516.551 157.421 516.786 156.512 516.786 155.25V154.944C516.786 153.528 516.548 152.519 516.071 151.919C515.601 151.313 514.859 151.01 513.845 151.01C512.985 151.01 512.32 151.354 511.85 152.04C511.38 152.72 511.145 153.694 511.145 154.962C511.145 156.224 511.377 157.18 511.841 157.829C512.311 158.479 512.985 158.803 513.863 158.803ZM523.252 149.813V156.373C523.252 157.195 523.435 157.807 523.799 158.209C524.171 158.605 524.743 158.803 525.516 158.803C526.561 158.803 527.322 158.513 527.798 157.931C528.274 157.35 528.512 156.413 528.512 155.12V149.813H530.192V160H528.818L528.577 158.655H528.494C528.191 159.143 527.761 159.521 527.204 159.787C526.648 160.053 526.001 160.186 525.265 160.186C524.041 160.186 523.116 159.892 522.491 159.304C521.873 158.717 521.564 157.777 521.564 156.484V149.813H523.252ZM535.09 160H533.42V145.564H535.09V160ZM542.651 160.186C541.123 160.186 539.923 159.725 539.051 158.803C538.186 157.875 537.753 156.601 537.753 154.981C537.753 153.348 538.158 152.049 538.968 151.084C539.778 150.113 540.873 149.628 542.252 149.628C543.532 149.628 544.553 150.042 545.314 150.871C546.074 151.694 546.455 152.81 546.455 154.22V155.231H539.478C539.509 156.388 539.803 157.266 540.359 157.866C540.916 158.466 541.705 158.766 542.725 158.766C543.269 158.766 543.786 158.72 544.275 158.627C544.763 158.528 545.335 158.339 545.991 158.061V159.527C545.428 159.768 544.899 159.938 544.404 160.037C543.91 160.136 543.325 160.186 542.651 160.186ZM542.234 150.992C541.436 150.992 540.805 151.248 540.341 151.762C539.877 152.275 539.602 152.989 539.515 153.905H544.701C544.689 152.952 544.469 152.229 544.043 151.734C543.616 151.239 543.013 150.992 542.234 150.992Z"></path>
<path fill="#E96969" d="M252 43H284.862C285.415 43 285.862 43.448 285.862 44V152.126L284.862 151.126H311.066V153.126H284.862C284.31 153.126 283.862 152.678 283.862 152.126V44L284.862 45H252V43ZM309.732 148.126L317.732 152.126L309.732 156.126V148.126Z"></path>
</svg>
