<svg xmlns="http://www.w3.org/2000/svg" fill="none" viewBox="0 0 1475 90" height="90" width="1475">
<path stroke-linejoin="round" stroke-miterlimit="10" stroke="#0B233F" fill="#0B233F" d="M1 16.167C1 8.06699 7.5665 1.5 15.6668 1.5H228.333C236.433 1.5 243 8.06699 243 16.167V74.833C243 82.933 236.433 89.5 228.333 89.5H15.6668C7.5665 89.5 1 82.933 1 74.833V16.167Z" clip-rule="evenodd" fill-rule="evenodd"></path>
<path fill="white" d="M27.3889 42H24.5222V36.146H19.1506V42H16.2747V28.4365H19.1506V33.7524H24.5222V28.4365H27.3889V42ZM32.8533 36.7954C32.8533 37.8221 33.0203 38.5983 33.3542 39.124C33.6944 39.6497 34.2449 39.9126 35.0056 39.9126C35.7602 39.9126 36.3014 39.6528 36.6292 39.1333C36.9631 38.6076 37.1301 37.8283 37.1301 36.7954C37.1301 35.7687 36.9631 34.9987 36.6292 34.4854C36.2952 33.972 35.7478 33.7153 34.9871 33.7153C34.2325 33.7153 33.6882 33.972 33.3542 34.4854C33.0203 34.9925 32.8533 35.7625 32.8533 36.7954ZM40.0247 36.7954C40.0247 38.4839 39.5793 39.8044 38.6887 40.7568C37.7981 41.7093 36.558 42.1855 34.9685 42.1855C33.9727 42.1855 33.0945 41.9691 32.3337 41.5361C31.573 41.097 30.9885 40.4692 30.5803 39.6528C30.1721 38.8364 29.968 37.884 29.968 36.7954C29.968 35.1007 30.4102 33.7834 31.2947 32.8433C32.1791 31.9032 33.4223 31.4331 35.0242 31.4331C36.0199 31.4331 36.8982 31.6496 37.6589 32.0825C38.4197 32.5155 39.0042 33.137 39.4124 33.9473C39.8206 34.7575 40.0247 35.7069 40.0247 36.7954ZM50.7029 42L49.905 38.3726L48.8474 33.7896H48.7639L46.8713 42H43.8284L40.8782 31.6279H43.6985L44.8953 36.2202C45.0313 36.7645 45.22 37.8994 45.4612 39.625H45.5354C45.5601 39.1549 45.6684 38.4097 45.8601 37.3892L46.0085 36.6006L47.2888 31.6279H50.406L51.6213 36.6006C51.6956 36.9408 51.7852 37.4417 51.8904 38.1035C52.0017 38.7591 52.0636 39.2663 52.0759 39.625H52.1501C52.2182 39.0745 52.314 38.4499 52.4377 37.751C52.5614 37.0459 52.6666 36.5356 52.7532 36.2202L53.9963 31.6279H56.7703L53.783 42H50.7029ZM67.7546 39.9312C68.2494 39.9312 68.8432 39.8229 69.5359 39.6064V41.7124C68.8308 42.0278 67.9649 42.1855 66.9382 42.1855C65.8064 42.1855 64.9807 41.901 64.4612 41.332C63.9478 40.7568 63.6912 39.8971 63.6912 38.7529V33.7524H62.3367V32.5557L63.8953 31.6094L64.7117 29.4199H66.5208V31.6279H69.4246V33.7524H66.5208V38.7529C66.5208 39.1549 66.6321 39.4518 66.8547 39.6436C67.0836 39.8353 67.3835 39.9312 67.7546 39.9312ZM73.8962 36.7954C73.8962 37.8221 74.0632 38.5983 74.3972 39.124C74.7374 39.6497 75.2878 39.9126 76.0486 39.9126C76.8031 39.9126 77.3443 39.6528 77.6721 39.1333C78.0061 38.6076 78.1731 37.8283 78.1731 36.7954C78.1731 35.7687 78.0061 34.9987 77.6721 34.4854C77.3381 33.972 76.7908 33.7153 76.03 33.7153C75.2755 33.7153 74.7312 33.972 74.3972 34.4854C74.0632 34.9925 73.8962 35.7625 73.8962 36.7954ZM81.0676 36.7954C81.0676 38.4839 80.6223 39.8044 79.7317 40.7568C78.8411 41.7093 77.601 42.1855 76.0115 42.1855C75.0157 42.1855 74.1375 41.9691 73.3767 41.5361C72.616 41.097 72.0315 40.4692 71.6233 39.6528C71.2151 38.8364 71.011 37.884 71.011 36.7954C71.011 35.1007 71.4532 33.7834 72.3376 32.8433C73.2221 31.9032 74.4653 31.4331 76.0671 31.4331C77.0629 31.4331 77.9412 31.6496 78.7019 32.0825C79.4626 32.5155 80.0471 33.137 80.4553 33.9473C80.8635 34.7575 81.0676 35.7069 81.0676 36.7954ZM92.6365 39.9683C93.3972 39.9683 93.9415 39.7518 94.2693 39.3188C94.5971 38.8797 94.761 38.1715 94.761 37.1943V36.8511C94.761 35.744 94.5878 34.9492 94.2415 34.4668C93.9013 33.9782 93.3508 33.7339 92.5901 33.7339C91.2603 33.7339 90.5955 34.7791 90.5955 36.8696C90.5955 37.9087 90.7594 38.6849 91.0872 39.1982C91.4211 39.7116 91.9376 39.9683 92.6365 39.9683ZM97.405 42.0186C97.405 43.5091 96.969 44.6379 96.0969 45.4048C95.231 46.1779 93.9384 46.5645 92.219 46.5645C90.7037 46.5645 89.4111 46.3604 88.3411 45.9521V43.6885C89.5966 44.2204 90.9449 44.4863 92.386 44.4863C93.8394 44.4863 94.5662 43.7008 94.5662 42.1299V41.9258L94.6497 40.6548H94.5662C93.9044 41.6753 92.9241 42.1855 91.6252 42.1855C90.3821 42.1855 89.4172 41.7062 88.7307 40.7476C88.0504 39.7889 87.7102 38.4839 87.7102 36.8325C87.7102 35.1317 88.0627 33.8081 88.7678 32.8618C89.4791 31.9093 90.4563 31.4331 91.6995 31.4331C92.9736 31.4331 93.9755 31.9403 94.7053 32.9546H94.7795L95.0115 31.6279H97.405V42.0186ZM106.951 42L106.404 40.5898H106.33C105.854 41.1898 105.362 41.6073 104.855 41.8423C104.354 42.0711 103.698 42.1855 102.888 42.1855C101.892 42.1855 101.107 41.901 100.531 41.332C99.9625 40.763 99.678 39.9528 99.678 38.9014C99.678 37.8005 100.061 36.9902 100.828 36.4707C101.601 35.945 102.764 35.6543 104.317 35.5986L106.116 35.543V35.0884C106.116 34.0369 105.578 33.5112 104.502 33.5112C103.673 33.5112 102.699 33.7617 101.58 34.2627L100.643 32.3516C101.837 31.7269 103.16 31.4146 104.614 31.4146C106.005 31.4146 107.072 31.7176 107.814 32.3237C108.556 32.9299 108.927 33.8514 108.927 35.0884V42H106.951ZM106.116 37.1943L105.022 37.2314C104.199 37.2562 103.587 37.4046 103.185 37.6768C102.783 37.9489 102.582 38.3633 102.582 38.9199C102.582 39.7178 103.039 40.1167 103.955 40.1167C104.61 40.1167 105.133 39.9281 105.523 39.5508C105.919 39.1735 106.116 38.6725 106.116 38.0479V37.1943ZM121.136 42H118.307V35.9419C118.307 35.1935 118.18 34.6338 117.927 34.2627C117.679 33.8854 117.286 33.6968 116.748 33.6968C116.025 33.6968 115.499 33.9627 115.171 34.4946C114.843 35.0265 114.679 35.9017 114.679 37.1201V42H111.85V31.6279H114.011L114.392 32.9546H114.55C114.828 32.4784 115.23 32.1073 115.756 31.8413C116.281 31.5692 116.884 31.4331 117.565 31.4331C119.117 31.4331 120.169 31.9403 120.719 32.9546H120.969C121.248 32.4722 121.656 32.098 122.194 31.832C122.738 31.5661 123.351 31.4331 124.031 31.4331C125.206 31.4331 126.094 31.7362 126.694 32.3423C127.3 32.9422 127.603 33.9071 127.603 35.2368V42H124.764V35.9419C124.764 35.1935 124.637 34.6338 124.384 34.2627C124.136 33.8854 123.743 33.6968 123.205 33.6968C122.513 33.6968 121.993 33.9442 121.647 34.439C121.307 34.9338 121.136 35.7192 121.136 36.7954V42ZM130.395 28.9468C130.395 28.0252 130.909 27.5645 131.935 27.5645C132.962 27.5645 133.475 28.0252 133.475 28.9468C133.475 29.3859 133.345 29.7292 133.086 29.9766C132.832 30.2178 132.449 30.3384 131.935 30.3384C130.909 30.3384 130.395 29.8745 130.395 28.9468ZM133.345 42H130.516V31.6279H133.345V42ZM142.057 33.7524H139.608V42H136.778V33.7524H135.219V32.3887L136.778 31.6279V30.8672C136.778 29.6859 137.069 28.8231 137.65 28.2788C138.232 27.7345 139.162 27.4624 140.443 27.4624C141.42 27.4624 142.289 27.6077 143.05 27.8984L142.326 29.9766C141.757 29.7972 141.231 29.7075 140.749 29.7075C140.347 29.7075 140.056 29.8281 139.877 30.0693C139.697 30.3044 139.608 30.6074 139.608 30.9785V31.6279H142.057V33.7524ZM142.205 31.6279H145.304L147.261 37.4634C147.428 37.9705 147.543 38.5705 147.605 39.2632H147.66C147.728 38.6261 147.861 38.0262 148.059 37.4634L149.98 31.6279H153.013L148.625 43.3267C148.223 44.409 147.648 45.2192 146.9 45.7573C146.157 46.2954 145.288 46.5645 144.293 46.5645C143.804 46.5645 143.325 46.5119 142.855 46.4067V44.1616C143.195 44.242 143.566 44.2822 143.968 44.2822C144.469 44.2822 144.905 44.1276 145.276 43.8184C145.653 43.5153 145.947 43.0545 146.157 42.436L146.324 41.9258L142.205 31.6279Z"></path>
<path fill="white" d="M22.0173 64L18.7517 53.3589H18.6682C18.7857 55.5236 18.8445 56.9678 18.8445 57.6914V64H16.2747V50.4365H20.1897L23.3997 60.8086H23.4553L26.8601 50.4365H30.7751V64H28.094V57.5801C28.094 57.277 28.0971 56.9276 28.1033 56.5317C28.1156 56.1359 28.1589 55.0845 28.2332 53.3774H28.1497L24.6521 64H22.0173ZM36.2302 58.7954C36.2302 59.8221 36.3972 60.5983 36.7312 61.124C37.0714 61.6497 37.6218 61.9126 38.3826 61.9126C39.1371 61.9126 39.6783 61.6528 40.0061 61.1333C40.3401 60.6076 40.5071 59.8283 40.5071 58.7954C40.5071 57.7687 40.3401 56.9987 40.0061 56.4854C39.6721 55.972 39.1248 55.7153 38.364 55.7153C37.6095 55.7153 37.0652 55.972 36.7312 56.4854C36.3972 56.9925 36.2302 57.7625 36.2302 58.7954ZM43.4016 58.7954C43.4016 60.4839 42.9563 61.8044 42.0657 62.7568C41.175 63.7093 39.935 64.1855 38.3455 64.1855C37.3497 64.1855 36.4714 63.9691 35.7107 63.5361C34.95 63.097 34.3655 62.4692 33.9573 61.6528C33.5491 60.8364 33.345 59.884 33.345 58.7954C33.345 57.1007 33.7872 55.7834 34.6716 54.8433C35.5561 53.9032 36.7992 53.4331 38.4011 53.4331C39.3969 53.4331 40.2751 53.6496 41.0359 54.0825C41.7966 54.5155 42.3811 55.137 42.7893 55.9473C43.1975 56.7575 43.4016 57.7069 43.4016 58.7954ZM49.0237 64.1855C47.8053 64.1855 46.8466 63.7124 46.1477 62.7661C45.455 61.8198 45.1086 60.5086 45.1086 58.8325C45.1086 57.1317 45.4612 55.8081 46.1663 54.8618C46.8775 53.9093 47.8547 53.4331 49.0979 53.4331C50.4029 53.4331 51.3987 53.9403 52.0852 54.9546H52.178C52.0357 54.1815 51.9646 53.4919 51.9646 52.8857V49.5645H54.8035V64H52.6326L52.0852 62.6548H51.9646C51.3214 63.6753 50.3411 64.1855 49.0237 64.1855ZM50.0164 61.9312C50.74 61.9312 51.2688 61.7209 51.6028 61.3003C51.943 60.8797 52.1285 60.1654 52.1594 59.1572V58.8511C52.1594 57.7378 51.9862 56.9399 51.6399 56.4575C51.2997 55.9751 50.7431 55.7339 49.97 55.7339C49.3391 55.7339 48.8474 56.0029 48.4949 56.541C48.1485 57.0729 47.9753 57.8491 47.9753 58.8696C47.9753 59.8901 48.1516 60.6571 48.5042 61.1704C48.8567 61.6776 49.3608 61.9312 50.0164 61.9312ZM65.1106 64L64.7302 62.6733H64.5818C64.2787 63.1558 63.8489 63.5299 63.2922 63.7959C62.7356 64.0557 62.1016 64.1855 61.3904 64.1855C60.172 64.1855 59.2535 63.8608 58.635 63.2114C58.0165 62.5558 57.7073 61.6157 57.7073 60.3911V53.6279H60.5369V59.686C60.5369 60.4344 60.6698 60.9972 60.9358 61.3745C61.2017 61.7456 61.6254 61.9312 62.2068 61.9312C62.9985 61.9312 63.5706 61.6683 63.9231 61.1426C64.2756 60.6107 64.4519 59.7324 64.4519 58.5078V53.6279H67.2815V64H65.1106ZM73.0798 64H70.2502V49.5645H73.0798V64ZM80.3533 55.4463C79.7533 55.4463 79.2833 55.638 78.9431 56.0215C78.6029 56.3988 78.4081 56.9368 78.3586 57.6357H82.3293C82.317 56.9368 82.1345 56.3988 81.782 56.0215C81.4294 55.638 80.9532 55.4463 80.3533 55.4463ZM80.7522 64.1855C79.0823 64.1855 77.7773 63.7248 76.8372 62.8032C75.8971 61.8817 75.427 60.5767 75.427 58.8882C75.427 57.1502 75.8599 55.8081 76.7258 54.8618C77.5979 53.9093 78.8009 53.4331 80.3347 53.4331C81.8005 53.4331 82.9417 53.8506 83.7581 54.6855C84.5745 55.5205 84.9827 56.674 84.9827 58.146V59.519H78.2937C78.3246 60.3231 78.5627 60.9508 79.0081 61.4023C79.4534 61.8538 80.078 62.0796 80.8821 62.0796C81.5068 62.0796 82.0974 62.0146 82.6541 61.8848C83.2107 61.7549 83.7921 61.5477 84.3982 61.2632V63.4526C83.9034 63.7 83.3746 63.8825 82.8118 64C82.2489 64.1237 81.5624 64.1855 80.7522 64.1855ZM94.5198 60.9199C94.5198 61.9837 94.1487 62.7939 93.4065 63.3506C92.6705 63.9072 91.5665 64.1855 90.0945 64.1855C89.3399 64.1855 88.6967 64.133 88.1648 64.0278C87.6329 63.9289 87.135 63.7804 86.6711 63.5825V61.2446C87.1969 61.492 87.7875 61.6992 88.4431 61.8662C89.1049 62.0332 89.6863 62.1167 90.1873 62.1167C91.2139 62.1167 91.7273 61.8198 91.7273 61.2261C91.7273 61.0034 91.6593 60.8241 91.5232 60.688C91.3871 60.5457 91.1521 60.388 90.8181 60.2148C90.4841 60.0355 90.0388 59.8283 89.4822 59.5933C88.6843 59.2593 88.0968 58.95 87.7195 58.6655C87.3484 58.381 87.0763 58.0563 86.9031 57.6914C86.7361 57.3203 86.6526 56.8657 86.6526 56.3276C86.6526 55.4061 87.0082 54.6948 87.7195 54.1938C88.4369 53.6867 89.4513 53.4331 90.7625 53.4331C92.0118 53.4331 93.2271 53.7052 94.4084 54.2495L93.5549 56.2905C93.0354 56.0679 92.5499 55.8854 92.0984 55.7432C91.6469 55.6009 91.1861 55.5298 90.7161 55.5298C89.8811 55.5298 89.4636 55.7555 89.4636 56.207C89.4636 56.4606 89.5966 56.6802 89.8625 56.8657C90.1347 57.0513 90.7253 57.3265 91.6345 57.6914C92.4447 58.0192 93.0385 58.3254 93.4158 58.6099C93.7931 58.8944 94.0714 59.2222 94.2507 59.5933C94.4301 59.9644 94.5198 60.4066 94.5198 60.9199ZM98.6389 59.5005V58.814C98.6389 58.4985 98.6698 58.214 98.7317 57.9604C98.7997 57.7007 98.8987 57.4564 99.0286 57.2275C99.1646 56.9925 99.3378 56.7668 99.5481 56.5503C99.7584 56.3276 100.012 56.0988 100.309 55.8638C100.569 55.6597 100.788 55.4772 100.968 55.3164C101.147 55.1556 101.292 54.9979 101.404 54.8433C101.515 54.6825 101.595 54.5155 101.645 54.3423C101.694 54.1691 101.719 53.9681 101.719 53.7393C101.719 53.3867 101.598 53.096 101.357 52.8672C101.122 52.6383 100.76 52.5239 100.272 52.5239C99.845 52.5239 99.3842 52.6136 98.8894 52.793C98.4008 52.9723 97.8936 53.1919 97.3679 53.4517L96.4216 51.4014C96.6876 51.2467 96.9752 51.1014 97.2844 50.9653C97.5999 50.8231 97.9246 50.6994 98.2585 50.5942C98.5987 50.4829 98.942 50.3963 99.2883 50.3345C99.6347 50.2726 99.9749 50.2417 100.309 50.2417C100.94 50.2417 101.509 50.319 102.016 50.4736C102.523 50.6221 102.953 50.8416 103.305 51.1323C103.658 51.423 103.927 51.7756 104.113 52.1899C104.304 52.6043 104.4 53.0775 104.4 53.6094C104.4 53.999 104.357 54.3485 104.27 54.6577C104.184 54.9608 104.054 55.2453 103.881 55.5112C103.714 55.771 103.5 56.0246 103.24 56.272C102.987 56.5132 102.69 56.7699 102.35 57.042C102.09 57.2461 101.877 57.4255 101.71 57.5801C101.549 57.7285 101.422 57.8708 101.329 58.0068C101.237 58.1429 101.172 58.2852 101.135 58.4336C101.104 58.5758 101.088 58.7459 101.088 58.9438V59.5005H98.6389ZM98.3328 62.6733C98.3328 62.3826 98.373 62.1383 98.4534 61.9404C98.54 61.7363 98.6575 61.5724 98.8059 61.4487C98.9543 61.325 99.1275 61.2354 99.3254 61.1797C99.5295 61.124 99.746 61.0962 99.9749 61.0962C100.191 61.0962 100.395 61.124 100.587 61.1797C100.785 61.2354 100.958 61.325 101.107 61.4487C101.255 61.5724 101.373 61.7363 101.459 61.9404C101.546 62.1383 101.589 62.3826 101.589 62.6733C101.589 62.9517 101.546 63.1898 101.459 63.3877C101.373 63.5856 101.255 63.7495 101.107 63.8794C100.958 64.0093 100.785 64.1021 100.587 64.1577C100.395 64.2196 100.191 64.2505 99.9749 64.2505C99.746 64.2505 99.5295 64.2196 99.3254 64.1577C99.1275 64.1021 98.9543 64.0093 98.8059 63.8794C98.6575 63.7495 98.54 63.5856 98.4534 63.3877C98.373 63.1898 98.3328 62.9517 98.3328 62.6733Z"></path>
<path stroke-linejoin="round" stroke-miterlimit="10" stroke="#0B233F" fill="#F3F5F8" d="M309 16.167C309 8.06699 315.567 1.5 323.667 1.5H536.333C544.433 1.5 551 8.06699 551 16.167V74.833C551 82.933 544.433 89.5 536.333 89.5H323.667C315.567 89.5 309 82.933 309 74.833V16.167Z" clip-rule="evenodd" fill-rule="evenodd"></path>
<path fill="#0B233F" d="M330.209 42L325.737 30.1064H325.663C325.756 31.096 325.802 32.3175 325.802 33.771V42H324.225V28.4365H326.749L330.933 39.5508H331.007L335.265 28.4365H337.77V42H336.082V33.6597C336.082 32.7319 336.125 31.5537 336.211 30.125H336.137L331.61 42H330.209ZM347.521 42L347.196 40.5527H347.122C346.614 41.1898 346.107 41.6227 345.6 41.8516C345.099 42.0742 344.465 42.1855 343.698 42.1855C342.696 42.1855 341.911 41.9227 341.342 41.397C340.773 40.8713 340.488 40.1291 340.488 39.1704C340.488 37.1047 342.118 36.0223 345.377 35.9233L347.103 35.8584V35.2554C347.103 34.4823 346.936 33.9132 346.602 33.5483C346.268 33.1772 345.733 32.9917 344.997 32.9917C344.459 32.9917 343.949 33.0721 343.466 33.2329C342.99 33.3937 342.542 33.5731 342.121 33.771L341.611 32.5186C342.124 32.2464 342.684 32.033 343.29 31.8784C343.896 31.7238 344.496 31.6465 345.09 31.6465C346.321 31.6465 347.236 31.9186 347.836 32.4629C348.436 33.0072 348.736 33.873 348.736 35.0605V42H347.521ZM344.079 40.8403C345.013 40.8403 345.745 40.5898 346.277 40.0889C346.815 39.5817 347.084 38.8643 347.084 37.9365V37.0181L345.582 37.083C344.413 37.1263 343.559 37.3118 343.021 37.6396C342.489 37.9674 342.223 38.4839 342.223 39.189C342.223 39.7209 342.384 40.1291 342.706 40.4136C343.033 40.6981 343.491 40.8403 344.079 40.8403ZM358.839 42V35.4873C358.839 34.6585 358.653 34.0431 358.282 33.6411C357.917 33.2329 357.342 33.0288 356.557 33.0288C355.511 33.0288 354.751 33.3195 354.274 33.9009C353.804 34.4761 353.569 35.4162 353.569 36.7212V42H351.899V31.8135H353.245L353.495 33.2051H353.588C353.903 32.7041 354.346 32.3175 354.915 32.0454C355.484 31.7671 356.111 31.6279 356.798 31.6279C358.047 31.6279 358.975 31.931 359.581 32.5371C360.187 33.1432 360.49 34.0864 360.49 35.3667V42H358.839ZM369.935 42L369.61 40.5527H369.536C369.028 41.1898 368.521 41.6227 368.014 41.8516C367.513 42.0742 366.879 42.1855 366.112 42.1855C365.11 42.1855 364.325 41.9227 363.756 41.397C363.187 40.8713 362.902 40.1291 362.902 39.1704C362.902 37.1047 364.532 36.0223 367.792 35.9233L369.517 35.8584V35.2554C369.517 34.4823 369.35 33.9132 369.016 33.5483C368.682 33.1772 368.147 32.9917 367.411 32.9917C366.873 32.9917 366.363 33.0721 365.88 33.2329C365.404 33.3937 364.956 33.5731 364.535 33.771L364.025 32.5186C364.538 32.2464 365.098 32.033 365.704 31.8784C366.31 31.7238 366.91 31.6465 367.504 31.6465C368.735 31.6465 369.65 31.9186 370.25 32.4629C370.85 33.0072 371.15 33.873 371.15 35.0605V42H369.935ZM366.493 40.8403C367.427 40.8403 368.16 40.5898 368.691 40.0889C369.229 39.5817 369.499 38.8643 369.499 37.9365V37.0181L367.996 37.083C366.827 37.1263 365.973 37.3118 365.435 37.6396C364.903 37.9674 364.637 38.4839 364.637 39.189C364.637 39.7209 364.798 40.1291 365.12 40.4136C365.447 40.6981 365.905 40.8403 366.493 40.8403ZM378.191 40.8218C379.218 40.8218 379.963 40.5465 380.427 39.9961C380.897 39.4395 381.132 38.5488 381.132 37.3242V36.9253C381.132 35.5646 380.897 34.575 380.427 33.9565C379.957 33.3381 379.2 33.0288 378.154 33.0288C377.301 33.0288 376.639 33.369 376.169 34.0493C375.705 34.7235 375.473 35.6883 375.473 36.9438C375.473 38.2056 375.699 39.1673 376.15 39.8291C376.608 40.4909 377.288 40.8218 378.191 40.8218ZM381.114 41.9072L381.169 40.6548H381.095C380.409 41.6753 379.357 42.1855 377.941 42.1855C376.624 42.1855 375.594 41.7279 374.852 40.8125C374.116 39.891 373.748 38.5952 373.748 36.9253C373.748 35.2863 374.119 33.9937 374.861 33.0474C375.609 32.1011 376.63 31.6279 377.922 31.6279C379.302 31.6279 380.365 32.1413 381.114 33.168H381.216L381.438 31.8135H382.765V42.167C382.765 43.6266 382.394 44.7244 381.652 45.4604C380.916 46.1965 379.769 46.5645 378.21 46.5645C376.726 46.5645 375.504 46.348 374.545 45.915V44.375C375.535 44.9069 376.787 45.1729 378.303 45.1729C379.169 45.1729 379.852 44.9193 380.353 44.4121C380.86 43.9049 381.114 43.203 381.114 42.3062V41.9072ZM390.335 42.1855C388.808 42.1855 387.608 41.7248 386.736 40.8032C385.87 39.8755 385.437 38.6014 385.437 36.981C385.437 35.3481 385.842 34.0493 386.652 33.0845C387.463 32.1134 388.557 31.6279 389.937 31.6279C391.217 31.6279 392.237 32.0423 392.998 32.8711C393.759 33.6937 394.139 34.8101 394.139 36.2202V37.2314H387.163C387.194 38.388 387.487 39.2663 388.044 39.8662C388.601 40.4661 389.389 40.7661 390.41 40.7661C390.954 40.7661 391.47 40.7197 391.959 40.627C392.448 40.528 393.02 40.3394 393.675 40.061V41.5269C393.112 41.7681 392.584 41.9382 392.089 42.0371C391.594 42.1361 391.01 42.1855 390.335 42.1855ZM389.918 32.9917C389.12 32.9917 388.489 33.2484 388.025 33.7617C387.562 34.2751 387.286 34.9894 387.2 35.9048H392.386C392.373 34.9523 392.154 34.2287 391.727 33.7339C391.3 33.2391 390.697 32.9917 389.918 32.9917ZM407.786 34.8379H412.471V41.4897C411.754 41.7186 411.024 41.8918 410.282 42.0093C409.54 42.1268 408.68 42.1855 407.703 42.1855C405.637 42.1855 404.038 41.5732 402.906 40.3486C401.774 39.124 401.208 37.4139 401.208 35.2183C401.208 33.8019 401.49 32.5649 402.053 31.5073C402.616 30.4497 403.426 29.6426 404.483 29.0859C405.547 28.5231 406.8 28.2417 408.241 28.2417C409.688 28.2417 411.036 28.5076 412.286 29.0396L411.636 30.5239C410.443 30.0044 409.277 29.7446 408.139 29.7446C406.524 29.7446 405.263 30.2332 404.354 31.2104C403.444 32.1877 402.99 33.5236 402.99 35.2183C402.99 37.0119 403.426 38.3757 404.298 39.3096C405.17 40.2435 406.438 40.7104 408.102 40.7104C409.011 40.7104 409.898 40.6022 410.764 40.3857V36.3594H407.786V34.8379ZM421.795 42L421.47 40.5527H421.396C420.889 41.1898 420.382 41.6227 419.875 41.8516C419.374 42.0742 418.74 42.1855 417.973 42.1855C416.971 42.1855 416.185 41.9227 415.616 41.397C415.047 40.8713 414.763 40.1291 414.763 39.1704C414.763 37.1047 416.392 36.0223 419.652 35.9233L421.377 35.8584V35.2554C421.377 34.4823 421.21 33.9132 420.876 33.5483C420.542 33.1772 420.007 32.9917 419.271 32.9917C418.733 32.9917 418.223 33.0721 417.741 33.2329C417.264 33.3937 416.816 33.5731 416.396 33.771L415.885 32.5186C416.399 32.2464 416.958 32.033 417.564 31.8784C418.171 31.7238 418.771 31.6465 419.364 31.6465C420.595 31.6465 421.51 31.9186 422.11 32.4629C422.71 33.0072 423.01 33.873 423.01 35.0605V42H421.795ZM418.353 40.8403C419.287 40.8403 420.02 40.5898 420.552 40.0889C421.09 39.5817 421.359 38.8643 421.359 37.9365V37.0181L419.856 37.083C418.687 37.1263 417.833 37.3118 417.295 37.6396C416.764 37.9674 416.498 38.4839 416.498 39.189C416.498 39.7209 416.658 40.1291 416.98 40.4136C417.308 40.6981 417.765 40.8403 418.353 40.8403ZM439.134 42V35.4409C439.134 33.8328 438.445 33.0288 437.065 33.0288C436.119 33.0288 435.423 33.304 434.978 33.8545C434.533 34.4049 434.31 35.2461 434.31 36.3779V42H432.649V35.4409C432.649 34.6369 432.479 34.0339 432.139 33.6318C431.805 33.2298 431.279 33.0288 430.562 33.0288C429.622 33.0288 428.932 33.3164 428.493 33.8916C428.06 34.4668 427.844 35.41 427.844 36.7212V42H426.174V31.8135H427.519L427.77 33.2051H427.862C428.153 32.7103 428.561 32.3237 429.087 32.0454C429.619 31.7671 430.213 31.6279 430.868 31.6279C432.464 31.6279 433.503 32.1969 433.985 33.335H434.078C434.406 32.7907 434.851 32.3701 435.414 32.0732C435.983 31.7764 436.626 31.6279 437.344 31.6279C438.494 31.6279 439.354 31.9248 439.923 32.5186C440.498 33.1123 440.786 34.0617 440.786 35.3667V42H439.134ZM445.619 42H443.949V31.8135H445.619V42ZM443.819 29.0581C443.819 28.687 443.912 28.418 444.098 28.251C444.289 28.084 444.524 28.0005 444.803 28.0005C445.062 28.0005 445.288 28.084 445.48 28.251C445.678 28.418 445.777 28.687 445.777 29.0581C445.777 29.423 445.678 29.6921 445.48 29.8652C445.288 30.0384 445.062 30.125 444.803 30.125C444.524 30.125 444.289 30.0384 444.098 29.8652C443.912 29.6921 443.819 29.423 443.819 29.0581ZM453.542 33.1123H450.972V42H449.302V33.1123H447.521V32.333L449.302 31.7578V31.1733C449.302 29.9364 449.571 29.0086 450.109 28.3901C450.654 27.7716 451.489 27.4624 452.614 27.4624C453.264 27.4624 453.922 27.5768 454.59 27.8057L454.145 29.1138C453.57 28.9282 453.066 28.8354 452.633 28.8354C452.07 28.8354 451.653 29.021 451.38 29.3921C451.108 29.7632 450.972 30.3507 450.972 31.1548V31.8135H453.542V33.1123ZM457.067 42H455.397V31.8135H457.067V42ZM455.268 29.0581C455.268 28.687 455.36 28.418 455.546 28.251C455.738 28.084 455.973 28.0005 456.251 28.0005C456.511 28.0005 456.736 28.084 456.928 28.251C457.126 28.418 457.225 28.687 457.225 29.0581C457.225 29.423 457.126 29.6921 456.928 29.8652C456.736 30.0384 456.511 30.125 456.251 30.125C455.973 30.125 455.738 30.0384 455.546 29.8652C455.36 29.6921 455.268 29.423 455.268 29.0581ZM464.378 42.1855C462.912 42.1855 461.771 41.7371 460.955 40.8403C460.138 39.9373 459.73 38.6447 459.73 36.9624C459.73 35.2554 460.141 33.9411 460.964 33.0195C461.793 32.0918 462.971 31.6279 464.499 31.6279C464.993 31.6279 465.482 31.6805 465.964 31.7856C466.453 31.8846 466.855 32.0145 467.17 32.1753L466.66 33.5669C465.8 33.2453 465.068 33.0845 464.461 33.0845C463.435 33.0845 462.677 33.4092 462.188 34.0586C461.7 34.7018 461.456 35.6636 461.456 36.9438C461.456 38.1746 461.7 39.1178 462.188 39.7734C462.677 40.4229 463.401 40.7476 464.359 40.7476C465.256 40.7476 466.138 40.5496 467.003 40.1538V41.6382C466.298 42.0031 465.423 42.1855 464.378 42.1855ZM475.715 42L475.39 40.5527H475.316C474.809 41.1898 474.302 41.6227 473.794 41.8516C473.293 42.0742 472.66 42.1855 471.893 42.1855C470.891 42.1855 470.105 41.9227 469.536 41.397C468.967 40.8713 468.683 40.1291 468.683 39.1704C468.683 37.1047 470.312 36.0223 473.572 35.9233L475.297 35.8584V35.2554C475.297 34.4823 475.13 33.9132 474.796 33.5483C474.462 33.1772 473.927 32.9917 473.191 32.9917C472.653 32.9917 472.143 33.0721 471.661 33.2329C471.184 33.3937 470.736 33.5731 470.315 33.771L469.805 32.5186C470.319 32.2464 470.878 32.033 471.484 31.8784C472.09 31.7238 472.69 31.6465 473.284 31.6465C474.515 31.6465 475.43 31.9186 476.03 32.4629C476.63 33.0072 476.93 33.873 476.93 35.0605V42H475.715ZM472.273 40.8403C473.207 40.8403 473.94 40.5898 474.472 40.0889C475.01 39.5817 475.279 38.8643 475.279 37.9365V37.0181L473.776 37.083C472.607 37.1263 471.753 37.3118 471.215 37.6396C470.683 37.9674 470.417 38.4839 470.417 39.189C470.417 39.7209 470.578 40.1291 470.9 40.4136C471.228 40.6981 471.685 40.8403 472.273 40.8403ZM483.499 40.8218C483.715 40.8218 483.969 40.8001 484.259 40.7568C484.55 40.7135 484.77 40.6641 484.918 40.6084V41.8887C484.763 41.9567 484.522 42.0216 484.194 42.0835C483.873 42.1515 483.545 42.1855 483.211 42.1855C481.219 42.1855 480.224 41.1372 480.224 39.0405V33.1123H478.786V32.3145L480.242 31.6465L480.91 29.4756H481.903V31.8135H484.844V33.1123H481.903V38.9941C481.903 39.5817 482.042 40.0332 482.32 40.3486C482.605 40.6641 482.998 40.8218 483.499 40.8218ZM488.629 42H486.959V31.8135H488.629V42ZM486.829 29.0581C486.829 28.687 486.922 28.418 487.107 28.251C487.299 28.084 487.534 28.0005 487.812 28.0005C488.072 28.0005 488.298 28.084 488.49 28.251C488.688 28.418 488.787 28.687 488.787 29.0581C488.787 29.423 488.688 29.6921 488.49 29.8652C488.298 30.0384 488.072 30.125 487.812 30.125C487.534 30.125 487.299 30.0384 487.107 29.8652C486.922 29.6921 486.829 29.423 486.829 29.0581ZM500.708 36.8882C500.708 38.5519 500.287 39.8507 499.446 40.7847C498.605 41.7186 497.442 42.1855 495.958 42.1855C495.036 42.1855 494.22 41.9722 493.509 41.5454C492.798 41.1125 492.25 40.494 491.867 39.6899C491.483 38.8859 491.292 37.952 491.292 36.8882C491.292 35.2306 491.706 33.9411 492.535 33.0195C493.363 32.0918 494.526 31.6279 496.023 31.6279C497.458 31.6279 498.596 32.1011 499.437 33.0474C500.284 33.9875 500.708 35.2677 500.708 36.8882ZM493.017 36.8882C493.017 38.1685 493.268 39.1426 493.769 39.8105C494.276 40.4723 495.021 40.8032 496.004 40.8032C496.975 40.8032 497.715 40.4723 498.222 39.8105C498.729 39.1426 498.982 38.1685 498.982 36.8882C498.982 35.6079 498.726 34.6462 498.212 34.0029C497.705 33.3535 496.96 33.0288 495.977 33.0288C494.004 33.0288 493.017 34.3153 493.017 36.8882ZM510.301 42V35.4873C510.301 34.6585 510.115 34.0431 509.744 33.6411C509.379 33.2329 508.804 33.0288 508.019 33.0288C506.973 33.0288 506.213 33.3195 505.736 33.9009C505.266 34.4761 505.031 35.4162 505.031 36.7212V42H503.361V31.8135H504.707L504.957 33.2051H505.05C505.365 32.7041 505.807 32.3175 506.376 32.0454C506.945 31.7671 507.573 31.6279 508.26 31.6279C509.509 31.6279 510.437 31.931 511.043 32.5371C511.649 33.1432 511.952 34.0864 511.952 35.3667V42H510.301Z"></path>
<path fill="#0B233F" d="M331.916 60.3726C331.916 61.5539 331.489 62.4847 330.636 63.165C329.782 63.8454 328.595 64.1855 327.073 64.1855C325.465 64.1855 324.222 63.9722 323.344 63.5454V61.9126C323.919 62.16 324.547 62.3548 325.227 62.4971C325.914 62.6393 326.554 62.7104 327.147 62.7104C328.162 62.7104 328.926 62.5156 329.439 62.126C329.952 61.7363 330.209 61.2013 330.209 60.521C330.209 60.0695 330.116 59.6984 329.931 59.4077C329.745 59.117 329.433 58.8449 328.994 58.5913C328.561 58.3377 327.902 58.0501 327.018 57.7285C325.762 57.2708 324.865 56.7327 324.327 56.1143C323.789 55.4896 323.52 54.6855 323.52 53.7021C323.52 52.6445 323.916 51.8034 324.708 51.1787C325.505 50.554 326.554 50.2417 327.853 50.2417C329.207 50.2417 330.453 50.4953 331.591 51.0024L331.062 52.4683C329.9 51.9858 328.817 51.7446 327.815 51.7446C327.011 51.7446 326.381 51.9178 325.923 52.2642C325.471 52.6105 325.246 53.096 325.246 53.7207C325.246 54.166 325.332 54.5371 325.505 54.834C325.685 55.1247 325.969 55.3906 326.359 55.6318C326.755 55.873 327.373 56.1483 328.214 56.4575C329.222 56.8286 329.974 57.1904 330.469 57.543C330.964 57.8893 331.328 58.2913 331.563 58.749C331.799 59.2005 331.916 59.7417 331.916 60.3726ZM338.753 64.1855C337.226 64.1855 336.026 63.7248 335.154 62.8032C334.288 61.8755 333.855 60.6014 333.855 58.981C333.855 57.3481 334.26 56.0493 335.07 55.0845C335.881 54.1134 336.975 53.6279 338.354 53.6279C339.635 53.6279 340.655 54.0423 341.416 54.8711C342.177 55.6937 342.557 56.8101 342.557 58.2202V59.2314H335.581C335.611 60.388 335.905 61.2663 336.462 61.8662C337.019 62.4661 337.807 62.7661 338.828 62.7661C339.372 62.7661 339.888 62.7197 340.377 62.627C340.866 62.528 341.438 62.3394 342.093 62.061V63.5269C341.53 63.7681 341.002 63.9382 340.507 64.0371C340.012 64.1361 339.428 64.1855 338.753 64.1855ZM338.336 54.9917C337.538 54.9917 336.907 55.2484 336.443 55.7617C335.979 56.2751 335.704 56.9894 335.618 57.9048H340.804C340.791 56.9523 340.572 56.2287 340.145 55.7339C339.718 55.2391 339.115 54.9917 338.336 54.9917ZM348.55 62.8218C348.767 62.8218 349.02 62.8001 349.311 62.7568C349.602 62.7135 349.821 62.6641 349.97 62.6084V63.8887C349.815 63.9567 349.574 64.0216 349.246 64.0835C348.924 64.1515 348.597 64.1855 348.263 64.1855C346.271 64.1855 345.275 63.1372 345.275 61.0405V55.1123H343.837V54.3145L345.294 53.6465L345.962 51.4756H346.955V53.8135H349.896V55.1123H346.955V60.9941C346.955 61.5817 347.094 62.0332 347.372 62.3486C347.657 62.6641 348.049 62.8218 348.55 62.8218ZM355.416 62.8218C355.632 62.8218 355.886 62.8001 356.176 62.7568C356.467 62.7135 356.687 62.6641 356.835 62.6084V63.8887C356.68 63.9567 356.439 64.0216 356.111 64.0835C355.79 64.1515 355.462 64.1855 355.128 64.1855C353.136 64.1855 352.141 63.1372 352.141 61.0405V55.1123H350.703V54.3145L352.159 53.6465L352.827 51.4756H353.82V53.8135H356.761V55.1123H353.82V60.9941C353.82 61.5817 353.959 62.0332 354.237 62.3486C354.522 62.6641 354.915 62.8218 355.416 62.8218ZM360.546 64H358.876V53.8135H360.546V64ZM358.746 51.0581C358.746 50.687 358.839 50.418 359.024 50.251C359.216 50.084 359.451 50.0005 359.729 50.0005C359.989 50.0005 360.215 50.084 360.407 50.251C360.605 50.418 360.704 50.687 360.704 51.0581C360.704 51.423 360.605 51.6921 360.407 51.8652C360.215 52.0384 359.989 52.125 359.729 52.125C359.451 52.125 359.216 52.0384 359.024 51.8652C358.839 51.6921 358.746 51.423 358.746 51.0581ZM370.714 64V57.4873C370.714 56.6585 370.528 56.0431 370.157 55.6411C369.792 55.2329 369.217 55.0288 368.432 55.0288C367.386 55.0288 366.626 55.3195 366.149 55.9009C365.679 56.4761 365.444 57.4162 365.444 58.7212V64H363.774V53.8135H365.12L365.37 55.2051H365.463C365.778 54.7041 366.221 54.3175 366.79 54.0454C367.359 53.7671 367.986 53.6279 368.673 53.6279C369.922 53.6279 370.85 53.931 371.456 54.5371C372.062 55.1432 372.365 56.0864 372.365 57.3667V64H370.714ZM379.397 62.8218C380.424 62.8218 381.169 62.5465 381.633 61.9961C382.103 61.4395 382.338 60.5488 382.338 59.3242V58.9253C382.338 57.5646 382.103 56.575 381.633 55.9565C381.163 55.3381 380.406 55.0288 379.36 55.0288C378.507 55.0288 377.845 55.369 377.375 56.0493C376.911 56.7235 376.679 57.6883 376.679 58.9438C376.679 60.2056 376.905 61.1673 377.356 61.8291C377.814 62.4909 378.494 62.8218 379.397 62.8218ZM382.32 63.9072L382.375 62.6548H382.301C381.615 63.6753 380.563 64.1855 379.147 64.1855C377.83 64.1855 376.8 63.7279 376.058 62.8125C375.322 61.891 374.954 60.5952 374.954 58.9253C374.954 57.2863 375.325 55.9937 376.067 55.0474C376.815 54.1011 377.836 53.6279 379.128 53.6279C380.508 53.6279 381.571 54.1413 382.32 55.168H382.422L382.645 53.8135H383.971V64.167C383.971 65.6266 383.6 66.7244 382.858 67.4604C382.122 68.1965 380.975 68.5645 379.416 68.5645C377.932 68.5645 376.71 68.348 375.751 67.915V66.375C376.741 66.9069 377.993 67.1729 379.509 67.1729C380.375 67.1729 381.058 66.9193 381.559 66.4121C382.066 65.9049 382.32 65.203 382.32 64.3062V63.9072ZM393.842 61.189C393.842 62.1414 393.487 62.8805 392.775 63.4062C392.064 63.9258 391.065 64.1855 389.779 64.1855C388.437 64.1855 387.37 63.9722 386.578 63.5454V62.0239C387.698 62.5682 388.777 62.8403 389.816 62.8403C390.657 62.8403 391.269 62.7043 391.653 62.4321C392.036 62.16 392.228 61.7951 392.228 61.3374C392.228 60.9354 392.042 60.5952 391.671 60.3169C391.306 60.0386 390.654 59.7201 389.714 59.3613C388.755 58.9902 388.081 58.6748 387.691 58.415C387.302 58.1491 387.014 57.8522 386.829 57.5244C386.649 57.1966 386.56 56.7977 386.56 56.3276C386.56 55.4927 386.9 54.834 387.58 54.3516C388.26 53.8691 389.194 53.6279 390.382 53.6279C391.538 53.6279 392.621 53.8568 393.629 54.3145L393.063 55.6411C392.03 55.2082 391.099 54.9917 390.271 54.9917C389.578 54.9917 389.052 55.103 388.693 55.3257C388.335 55.5422 388.155 55.8421 388.155 56.2256C388.155 56.5967 388.31 56.9059 388.619 57.1533C388.928 57.3945 389.649 57.7316 390.781 58.1646C391.628 58.48 392.253 58.7738 392.655 59.0459C393.063 59.318 393.363 59.6242 393.555 59.9644C393.746 60.3045 393.842 60.7127 393.842 61.189Z"></path>
<path fill="#E96969" d="M242.5 43.9995H275.366C275.918 43.9995 276.366 44.4475 276.366 44.9995V45.0625L275.366 44.0625H301.566V46.0625H275.366C274.814 46.0625 274.366 45.6145 274.366 45.0625V44.9995L275.366 45.9995H242.5V43.9995ZM300.232 41.0625L308.232 45.0625L300.232 49.0625V41.0625Z"></path>
<path stroke-linejoin="round" stroke-miterlimit="10" stroke="#0B233F" fill="#F3F5F8" d="M617 16.167C617 8.06699 623.567 1.5 631.667 1.5H844.333C852.433 1.5 859 8.06699 859 16.167V74.833C859 82.933 852.433 89.5 844.333 89.5H631.667C623.567 89.5 617 82.933 617 74.833V16.167Z" clip-rule="evenodd" fill-rule="evenodd"></path>
<path fill="#0B233F" d="M637.927 34.8379H642.612V41.4897C641.895 41.7186 641.165 41.8918 640.423 42.0093C639.681 42.1268 638.821 42.1855 637.844 42.1855C635.778 42.1855 634.179 41.5732 633.047 40.3486C631.916 39.124 631.35 37.4139 631.35 35.2183C631.35 33.8019 631.631 32.5649 632.194 31.5073C632.757 30.4497 633.567 29.6426 634.625 29.0859C635.688 28.5231 636.941 28.2417 638.382 28.2417C639.829 28.2417 641.177 28.5076 642.427 29.0396L641.777 30.5239C640.584 30.0044 639.418 29.7446 638.28 29.7446C636.666 29.7446 635.404 30.2332 634.495 31.2104C633.585 32.1877 633.131 33.5236 633.131 35.2183C633.131 37.0119 633.567 38.3757 634.439 39.3096C635.311 40.2435 636.579 40.7104 638.243 40.7104C639.152 40.7104 640.039 40.6022 640.905 40.3857V36.3594H637.927V34.8379ZM651.936 42L651.611 40.5527H651.537C651.03 41.1898 650.523 41.6227 650.016 41.8516C649.515 42.0742 648.881 42.1855 648.114 42.1855C647.112 42.1855 646.326 41.9227 645.757 41.397C645.188 40.8713 644.904 40.1291 644.904 39.1704C644.904 37.1047 646.534 36.0223 649.793 35.9233L651.519 35.8584V35.2554C651.519 34.4823 651.352 33.9132 651.018 33.5483C650.684 33.1772 650.149 32.9917 649.413 32.9917C648.875 32.9917 648.364 33.0721 647.882 33.2329C647.406 33.3937 646.957 33.5731 646.537 33.771L646.026 32.5186C646.54 32.2464 647.099 32.033 647.706 31.8784C648.312 31.7238 648.912 31.6465 649.505 31.6465C650.736 31.6465 651.652 31.9186 652.251 32.4629C652.851 33.0072 653.151 33.873 653.151 35.0605V42H651.936ZM648.494 40.8403C649.428 40.8403 650.161 40.5898 650.693 40.0889C651.231 39.5817 651.5 38.8643 651.5 37.9365V37.0181L649.997 37.083C648.828 37.1263 647.975 37.3118 647.437 37.6396C646.905 37.9674 646.639 38.4839 646.639 39.189C646.639 39.7209 646.799 40.1291 647.121 40.4136C647.449 40.6981 647.907 40.8403 648.494 40.8403ZM669.275 42V35.4409C669.275 33.8328 668.586 33.0288 667.207 33.0288C666.26 33.0288 665.564 33.304 665.119 33.8545C664.674 34.4049 664.451 35.2461 664.451 36.3779V42H662.791V35.4409C662.791 34.6369 662.62 34.0339 662.28 33.6318C661.946 33.2298 661.421 33.0288 660.703 33.0288C659.763 33.0288 659.073 33.3164 658.634 33.8916C658.201 34.4668 657.985 35.41 657.985 36.7212V42H656.315V31.8135H657.66L657.911 33.2051H658.003C658.294 32.7103 658.702 32.3237 659.228 32.0454C659.76 31.7671 660.354 31.6279 661.009 31.6279C662.605 31.6279 663.644 32.1969 664.126 33.335H664.219C664.547 32.7907 664.992 32.3701 665.555 32.0732C666.124 31.7764 666.767 31.6279 667.485 31.6279C668.635 31.6279 669.495 31.9248 670.064 32.5186C670.639 33.1123 670.927 34.0617 670.927 35.3667V42H669.275ZM678.423 42.1855C676.895 42.1855 675.695 41.7248 674.823 40.8032C673.957 39.8755 673.524 38.6014 673.524 36.981C673.524 35.3481 673.93 34.0493 674.74 33.0845C675.55 32.1134 676.645 31.6279 678.024 31.6279C679.304 31.6279 680.325 32.0423 681.085 32.8711C681.846 33.6937 682.227 34.8101 682.227 36.2202V37.2314H675.25C675.281 38.388 675.575 39.2663 676.131 39.8662C676.688 40.4661 677.477 40.7661 678.497 40.7661C679.041 40.7661 679.558 40.7197 680.046 40.627C680.535 40.528 681.107 40.3394 681.763 40.061V41.5269C681.2 41.7681 680.671 41.9382 680.176 42.0371C679.681 42.1361 679.097 42.1855 678.423 42.1855ZM678.005 32.9917C677.208 32.9917 676.577 33.2484 676.113 33.7617C675.649 34.2751 675.374 34.9894 675.287 35.9048H680.473C680.461 34.9523 680.241 34.2287 679.814 33.7339C679.388 33.2391 678.785 32.9917 678.005 32.9917ZM691.448 39.189C691.448 40.1414 691.093 40.8805 690.381 41.4062C689.67 41.9258 688.671 42.1855 687.385 42.1855C686.043 42.1855 684.976 41.9722 684.184 41.5454V40.0239C685.304 40.5682 686.383 40.8403 687.422 40.8403C688.263 40.8403 688.875 40.7043 689.259 40.4321C689.642 40.16 689.834 39.7951 689.834 39.3374C689.834 38.9354 689.648 38.5952 689.277 38.3169C688.912 38.0386 688.26 37.7201 687.32 37.3613C686.361 36.9902 685.687 36.6748 685.297 36.415C684.908 36.1491 684.62 35.8522 684.435 35.5244C684.255 35.1966 684.166 34.7977 684.166 34.3276C684.166 33.4927 684.506 32.834 685.186 32.3516C685.866 31.8691 686.8 31.6279 687.988 31.6279C689.144 31.6279 690.227 31.8568 691.235 32.3145L690.669 33.6411C689.636 33.2082 688.705 32.9917 687.876 32.9917C687.184 32.9917 686.658 33.103 686.299 33.3257C685.941 33.5422 685.761 33.8421 685.761 34.2256C685.761 34.5967 685.916 34.9059 686.225 35.1533C686.534 35.3945 687.255 35.7316 688.387 36.1646C689.234 36.48 689.859 36.7738 690.261 37.0459C690.669 37.318 690.969 37.6242 691.161 37.9644C691.352 38.3045 691.448 38.7127 691.448 39.189ZM706.784 38.3726C706.784 39.5539 706.357 40.4847 705.503 41.165C704.65 41.8454 703.462 42.1855 701.941 42.1855C700.333 42.1855 699.09 41.9722 698.211 41.5454V39.9126C698.787 40.16 699.414 40.3548 700.095 40.4971C700.781 40.6393 701.421 40.7104 702.015 40.7104C703.029 40.7104 703.793 40.5156 704.307 40.126C704.82 39.7363 705.077 39.2013 705.077 38.521C705.077 38.0695 704.984 37.6984 704.798 37.4077C704.613 37.117 704.3 36.8449 703.861 36.5913C703.428 36.3377 702.77 36.0501 701.885 35.7285C700.63 35.2708 699.733 34.7327 699.195 34.1143C698.657 33.4896 698.388 32.6855 698.388 31.7021C698.388 30.6445 698.784 29.8034 699.575 29.1787C700.373 28.554 701.421 28.2417 702.72 28.2417C704.075 28.2417 705.321 28.4953 706.459 29.0024L705.93 30.4683C704.767 29.9858 703.685 29.7446 702.683 29.7446C701.879 29.7446 701.248 29.9178 700.791 30.2642C700.339 30.6105 700.113 31.096 700.113 31.7207C700.113 32.166 700.2 32.5371 700.373 32.834C700.552 33.1247 700.837 33.3906 701.227 33.6318C701.622 33.873 702.241 34.1483 703.082 34.4575C704.09 34.8286 704.842 35.1904 705.336 35.543C705.831 35.8893 706.196 36.2913 706.431 36.749C706.666 37.2005 706.784 37.7417 706.784 38.3726ZM712.693 40.8218C712.91 40.8218 713.163 40.8001 713.454 40.7568C713.745 40.7135 713.964 40.6641 714.113 40.6084V41.8887C713.958 41.9567 713.717 42.0216 713.389 42.0835C713.068 42.1515 712.74 42.1855 712.406 42.1855C710.414 42.1855 709.418 41.1372 709.418 39.0405V33.1123H707.98V32.3145L709.437 31.6465L710.105 29.4756H711.098V31.8135H714.039V33.1123H711.098V38.9941C711.098 39.5817 711.237 40.0332 711.515 40.3486C711.8 40.6641 712.192 40.8218 712.693 40.8218ZM725.004 36.8882C725.004 38.5519 724.584 39.8507 723.743 40.7847C722.902 41.7186 721.739 42.1855 720.254 42.1855C719.333 42.1855 718.516 41.9722 717.805 41.5454C717.094 41.1125 716.547 40.494 716.163 39.6899C715.78 38.8859 715.588 37.952 715.588 36.8882C715.588 35.2306 716.002 33.9411 716.831 33.0195C717.66 32.0918 718.823 31.6279 720.319 31.6279C721.754 31.6279 722.892 32.1011 723.733 33.0474C724.581 33.9875 725.004 35.2677 725.004 36.8882ZM717.313 36.8882C717.313 38.1685 717.564 39.1426 718.065 39.8105C718.572 40.4723 719.317 40.8032 720.301 40.8032C721.272 40.8032 722.011 40.4723 722.518 39.8105C723.025 39.1426 723.279 38.1685 723.279 36.8882C723.279 35.6079 723.022 34.6462 722.509 34.0029C722.002 33.3535 721.256 33.0288 720.273 33.0288C718.3 33.0288 717.313 34.3153 717.313 36.8882ZM732.408 31.6279C732.859 31.6279 733.258 31.665 733.604 31.7393L733.4 33.2793C733.023 33.1927 732.655 33.1494 732.296 33.1494C731.758 33.1494 731.257 33.2979 730.793 33.5947C730.336 33.8916 729.977 34.3029 729.717 34.8286C729.458 35.3481 729.328 35.9264 729.328 36.5635V42H727.658V31.8135H729.031L729.216 33.6782H729.291C729.68 33.0041 730.141 32.4938 730.673 32.1475C731.205 31.8011 731.783 31.6279 732.408 31.6279ZM737.176 42H735.506V31.8135H737.176V42ZM735.376 29.0581C735.376 28.687 735.469 28.418 735.655 28.251C735.847 28.084 736.082 28.0005 736.36 28.0005C736.62 28.0005 736.845 28.084 737.037 28.251C737.235 28.418 737.334 28.687 737.334 29.0581C737.334 29.423 737.235 29.6921 737.037 29.8652C736.845 30.0384 736.62 30.125 736.36 30.125C736.082 30.125 735.847 30.0384 735.655 29.8652C735.469 29.6921 735.376 29.423 735.376 29.0581ZM744.737 42.1855C743.21 42.1855 742.01 41.7248 741.138 40.8032C740.272 39.8755 739.839 38.6014 739.839 36.981C739.839 35.3481 740.244 34.0493 741.054 33.0845C741.864 32.1134 742.959 31.6279 744.338 31.6279C745.619 31.6279 746.639 32.0423 747.4 32.8711C748.161 33.6937 748.541 34.8101 748.541 36.2202V37.2314H741.564C741.595 38.388 741.889 39.2663 742.446 39.8662C743.002 40.4661 743.791 40.7661 744.812 40.7661C745.356 40.7661 745.872 40.7197 746.361 40.627C746.849 40.528 747.422 40.3394 748.077 40.061V41.5269C747.514 41.7681 746.986 41.9382 746.491 42.0371C745.996 42.1361 745.411 42.1855 744.737 42.1855ZM744.32 32.9917C743.522 32.9917 742.891 33.2484 742.427 33.7617C741.963 34.2751 741.688 34.9894 741.602 35.9048H746.788C746.775 34.9523 746.556 34.2287 746.129 33.7339C745.702 33.2391 745.099 32.9917 744.32 32.9917ZM757.763 39.189C757.763 40.1414 757.407 40.8805 756.696 41.4062C755.985 41.9258 754.986 42.1855 753.699 42.1855C752.357 42.1855 751.29 41.9722 750.499 41.5454V40.0239C751.618 40.5682 752.697 40.8403 753.736 40.8403C754.577 40.8403 755.19 40.7043 755.573 40.4321C755.957 40.16 756.148 39.7951 756.148 39.3374C756.148 38.9354 755.963 38.5952 755.592 38.3169C755.227 38.0386 754.574 37.7201 753.634 37.3613C752.676 36.9902 752.001 36.6748 751.612 36.415C751.222 36.1491 750.935 35.8522 750.749 35.5244C750.57 35.1966 750.48 34.7977 750.48 34.3276C750.48 33.4927 750.82 32.834 751.5 32.3516C752.181 31.8691 753.115 31.6279 754.302 31.6279C755.459 31.6279 756.541 31.8568 757.549 32.3145L756.983 33.6411C755.951 33.2082 755.02 32.9917 754.191 32.9917C753.498 32.9917 752.972 33.103 752.614 33.3257C752.255 33.5422 752.076 33.8421 752.076 34.2256C752.076 34.5967 752.23 34.9059 752.54 35.1533C752.849 35.3945 753.569 35.7316 754.701 36.1646C755.549 36.48 756.173 36.7738 756.575 37.0459C756.983 37.318 757.283 37.6242 757.475 37.9644C757.667 38.3045 757.763 38.7127 757.763 39.189ZM771.465 42L771.141 40.5527H771.066C770.559 41.1898 770.052 41.6227 769.545 41.8516C769.044 42.0742 768.41 42.1855 767.643 42.1855C766.641 42.1855 765.856 41.9227 765.287 41.397C764.718 40.8713 764.433 40.1291 764.433 39.1704C764.433 37.1047 766.063 36.0223 769.322 35.9233L771.048 35.8584V35.2554C771.048 34.4823 770.881 33.9132 770.547 33.5483C770.213 33.1772 769.678 32.9917 768.942 32.9917C768.404 32.9917 767.894 33.0721 767.411 33.2329C766.935 33.3937 766.486 33.5731 766.066 33.771L765.556 32.5186C766.069 32.2464 766.629 32.033 767.235 31.8784C767.841 31.7238 768.441 31.6465 769.035 31.6465C770.265 31.6465 771.181 31.9186 771.781 32.4629C772.381 33.0072 772.681 33.873 772.681 35.0605V42H771.465ZM768.023 40.8403C768.957 40.8403 769.69 40.5898 770.222 40.0889C770.76 39.5817 771.029 38.8643 771.029 37.9365V37.0181L769.526 37.083C768.357 37.1263 767.504 37.3118 766.966 37.6396C766.434 37.9674 766.168 38.4839 766.168 39.189C766.168 39.7209 766.329 40.1291 766.65 40.4136C766.978 40.6981 767.436 40.8403 768.023 40.8403ZM782.784 42V35.4873C782.784 34.6585 782.598 34.0431 782.227 33.6411C781.862 33.2329 781.287 33.0288 780.501 33.0288C779.456 33.0288 778.695 33.3195 778.219 33.9009C777.749 34.4761 777.514 35.4162 777.514 36.7212V42H775.844V31.8135H777.189L777.44 33.2051H777.533C777.848 32.7041 778.29 32.3175 778.859 32.0454C779.428 31.7671 780.056 31.6279 780.743 31.6279C781.992 31.6279 782.92 31.931 783.526 32.5371C784.132 33.1432 784.435 34.0864 784.435 35.3667V42H782.784ZM791.198 42.1855C789.875 42.1855 788.848 41.7279 788.118 40.8125C787.388 39.8971 787.023 38.6014 787.023 36.9253C787.023 35.2616 787.388 33.9627 788.118 33.0288C788.854 32.0949 789.887 31.6279 791.217 31.6279C792.584 31.6279 793.635 32.1289 794.371 33.1309H794.492C794.473 33.0072 794.448 32.7598 794.417 32.3887C794.387 32.0114 794.371 31.7578 794.371 31.6279V27.5645H796.041V42H794.696L794.445 40.6362H794.371C793.66 41.6691 792.602 42.1855 791.198 42.1855ZM791.467 40.8032C792.482 40.8032 793.221 40.528 793.685 39.9775C794.155 39.4209 794.39 38.5117 794.39 37.25V36.9438C794.39 35.5275 794.152 34.5194 793.675 33.9194C793.205 33.3133 792.463 33.0103 791.449 33.0103C790.589 33.0103 789.924 33.3535 789.454 34.04C788.984 34.7204 788.749 35.6945 788.749 36.9624C788.749 38.2241 788.981 39.1797 789.445 39.8291C789.915 40.4785 790.589 40.8032 791.467 40.8032Z"></path>
<path fill="#0B233F" d="M637.844 51.7446C636.384 51.7446 635.237 52.2332 634.402 53.2104C633.567 54.1877 633.149 55.5236 633.149 57.2183C633.149 58.9686 633.555 60.32 634.365 61.2725C635.175 62.2188 636.328 62.6919 637.825 62.6919C638.79 62.6919 639.875 62.5125 641.082 62.1538V63.6382C640.506 63.8485 639.953 63.9907 639.421 64.0649C638.889 64.1453 638.277 64.1855 637.584 64.1855C635.586 64.1855 634.046 63.5794 632.964 62.3672C631.888 61.1488 631.35 59.4263 631.35 57.1997C631.35 55.8019 631.606 54.5773 632.12 53.5259C632.639 52.4744 633.391 51.6642 634.374 51.0952C635.364 50.5262 636.526 50.2417 637.862 50.2417C639.297 50.2417 640.547 50.5076 641.61 51.0396L640.924 52.4868C639.841 51.992 638.815 51.7446 637.844 51.7446ZM652.66 58.8882C652.66 60.5519 652.239 61.8507 651.398 62.7847C650.557 63.7186 649.394 64.1855 647.91 64.1855C646.988 64.1855 646.172 63.9722 645.46 63.5454C644.749 63.1125 644.202 62.494 643.818 61.6899C643.435 60.8859 643.243 59.952 643.243 58.8882C643.243 57.2306 643.658 55.9411 644.486 55.0195C645.315 54.0918 646.478 53.6279 647.975 53.6279C649.41 53.6279 650.548 54.1011 651.389 55.0474C652.236 55.9875 652.66 57.2677 652.66 58.8882ZM644.969 58.8882C644.969 60.1685 645.219 61.1426 645.72 61.8105C646.227 62.4723 646.973 62.8032 647.956 62.8032C648.927 62.8032 649.666 62.4723 650.173 61.8105C650.681 61.1426 650.934 60.1685 650.934 58.8882C650.934 57.6079 650.677 56.6462 650.164 56.0029C649.657 55.3535 648.912 55.0288 647.928 55.0288C645.955 55.0288 644.969 56.3153 644.969 58.8882ZM656.983 64H655.313V49.5645H656.983V64ZM661.881 64H660.211V49.5645H661.881V64ZM669.442 64.1855C667.915 64.1855 666.715 63.7248 665.843 62.8032C664.977 61.8755 664.544 60.6014 664.544 58.981C664.544 57.3481 664.949 56.0493 665.759 55.0845C666.569 54.1134 667.664 53.6279 669.043 53.6279C670.324 53.6279 671.344 54.0423 672.105 54.8711C672.866 55.6937 673.246 56.8101 673.246 58.2202V59.2314H666.27C666.3 60.388 666.594 61.2663 667.151 61.8662C667.708 62.4661 668.496 62.7661 669.517 62.7661C670.061 62.7661 670.577 62.7197 671.066 62.627C671.555 62.528 672.127 62.3394 672.782 62.061V63.5269C672.219 63.7681 671.691 63.9382 671.196 64.0371C670.701 64.1361 670.117 64.1855 669.442 64.1855ZM669.025 54.9917C668.227 54.9917 667.596 55.2484 667.132 55.7617C666.668 56.2751 666.393 56.9894 666.307 57.9048H671.493C671.48 56.9523 671.261 56.2287 670.834 55.7339C670.407 55.2391 669.804 54.9917 669.025 54.9917ZM679.917 64.1855C678.451 64.1855 677.31 63.7371 676.493 62.8403C675.677 61.9373 675.269 60.6447 675.269 58.9624C675.269 57.2554 675.68 55.9411 676.502 55.0195C677.331 54.0918 678.509 53.6279 680.037 53.6279C680.532 53.6279 681.021 53.6805 681.503 53.7856C681.992 53.8846 682.394 54.0145 682.709 54.1753L682.199 55.5669C681.339 55.2453 680.606 55.0845 680 55.0845C678.973 55.0845 678.216 55.4092 677.727 56.0586C677.238 56.7018 676.994 57.6636 676.994 58.9438C676.994 60.1746 677.238 61.1178 677.727 61.7734C678.216 62.4229 678.939 62.7476 679.898 62.7476C680.795 62.7476 681.676 62.5496 682.542 62.1538V63.6382C681.837 64.0031 680.962 64.1855 679.917 64.1855ZM688.368 62.8218C688.585 62.8218 688.838 62.8001 689.129 62.7568C689.42 62.7135 689.639 62.6641 689.788 62.6084V63.8887C689.633 63.9567 689.392 64.0216 689.064 64.0835C688.742 64.1515 688.415 64.1855 688.081 64.1855C686.089 64.1855 685.093 63.1372 685.093 61.0405V55.1123H683.655V54.3145L685.112 53.6465L685.78 51.4756H686.772V53.8135H689.713V55.1123H686.772V60.9941C686.772 61.5817 686.912 62.0332 687.19 62.3486C687.474 62.6641 687.867 62.8218 688.368 62.8218ZM693.499 64H691.829V53.8135H693.499V64ZM691.699 51.0581C691.699 50.687 691.792 50.418 691.977 50.251C692.169 50.084 692.404 50.0005 692.682 50.0005C692.942 50.0005 693.168 50.084 693.359 50.251C693.557 50.418 693.656 50.687 693.656 51.0581C693.656 51.423 693.557 51.6921 693.359 51.8652C693.168 52.0384 692.942 52.125 692.682 52.125C692.404 52.125 692.169 52.0384 691.977 51.8652C691.792 51.6921 691.699 51.423 691.699 51.0581ZM701.551 53.6465C702.893 53.6465 703.929 54.1104 704.659 55.0381C705.389 55.9596 705.754 57.2492 705.754 58.9067C705.754 60.589 705.383 61.891 704.641 62.8125C703.898 63.7279 702.869 64.1855 701.551 64.1855C700.865 64.1855 700.252 64.0618 699.714 63.8145C699.176 63.5671 698.737 63.1991 698.397 62.7104H698.267C698.075 63.4526 697.961 63.8825 697.924 64H696.727V49.5645H698.397V53.0713C698.397 53.7702 698.366 54.4691 698.304 55.168H698.397C699.083 54.1536 700.135 53.6465 701.551 53.6465ZM701.273 55.0288C700.246 55.0288 699.51 55.3195 699.065 55.9009C698.62 56.4823 698.397 57.4657 698.397 58.8511V58.9253C698.397 60.3169 698.623 61.3127 699.074 61.9126C699.532 62.5063 700.277 62.8032 701.31 62.8032C702.225 62.8032 702.906 62.4692 703.351 61.8013C703.803 61.1271 704.028 60.1561 704.028 58.8882C704.028 57.6017 703.803 56.6369 703.351 55.9937C702.9 55.3504 702.207 55.0288 701.273 55.0288ZM710.086 64H708.417V49.5645H710.086V64ZM717.647 64.1855C716.12 64.1855 714.92 63.7248 714.048 62.8032C713.182 61.8755 712.749 60.6014 712.749 58.981C712.749 57.3481 713.154 56.0493 713.964 55.0845C714.775 54.1134 715.869 53.6279 717.249 53.6279C718.529 53.6279 719.549 54.0423 720.31 54.8711C721.071 55.6937 721.451 56.8101 721.451 58.2202V59.2314H714.475C714.506 60.388 714.799 61.2663 715.356 61.8662C715.913 62.4661 716.701 62.7661 717.722 62.7661C718.266 62.7661 718.782 62.7197 719.271 62.627C719.76 62.528 720.332 62.3394 720.987 62.061V63.5269C720.424 63.7681 719.896 63.9382 719.401 64.0371C718.906 64.1361 718.322 64.1855 717.647 64.1855ZM717.23 54.9917C716.432 54.9917 715.801 55.2484 715.337 55.7617C714.874 56.2751 714.598 56.9894 714.512 57.9048H719.698C719.685 56.9523 719.466 56.2287 719.039 55.7339C718.612 55.2391 718.009 54.9917 717.23 54.9917ZM730.673 61.189C730.673 62.1414 730.317 62.8805 729.606 63.4062C728.895 63.9258 727.896 64.1855 726.609 64.1855C725.267 64.1855 724.2 63.9722 723.409 63.5454V62.0239C724.528 62.5682 725.607 62.8403 726.646 62.8403C727.488 62.8403 728.1 62.7043 728.483 62.4321C728.867 62.16 729.059 61.7951 729.059 61.3374C729.059 60.9354 728.873 60.5952 728.502 60.3169C728.137 60.0386 727.485 59.7201 726.544 59.3613C725.586 58.9902 724.912 58.6748 724.522 58.415C724.132 58.1491 723.845 57.8522 723.659 57.5244C723.48 57.1966 723.39 56.7977 723.39 56.3276C723.39 55.4927 723.73 54.834 724.411 54.3516C725.091 53.8691 726.025 53.6279 727.212 53.6279C728.369 53.6279 729.451 53.8568 730.459 54.3145L729.894 55.6411C728.861 55.2082 727.93 54.9917 727.101 54.9917C726.408 54.9917 725.883 55.103 725.524 55.3257C725.165 55.5422 724.986 55.8421 724.986 56.2256C724.986 56.5967 725.14 56.9059 725.45 57.1533C725.759 57.3945 726.479 57.7316 727.611 58.1646C728.459 58.48 729.083 58.7738 729.485 59.0459C729.894 59.318 730.194 59.6242 730.385 59.9644C730.577 60.3045 730.673 60.7127 730.673 61.189Z"></path>
<path stroke-linejoin="round" stroke-miterlimit="10" stroke="#0B233F" fill="#F3F5F8" d="M925 16.167C925 8.06699 931.57 1.5 939.67 1.5H1152.33C1160.43 1.5 1167 8.06699 1167 16.167V74.833C1167 82.933 1160.43 89.5 1152.33 89.5H939.67C931.57 89.5 925 82.933 925 74.833V16.167Z" clip-rule="evenodd" fill-rule="evenodd"></path>
<path stroke-linejoin="round" stroke-miterlimit="10" stroke="#0B233F" fill="#F3F5F8" d="M1232.5 15.667C1232.5 7.56699 1239.07 1 1247.17 1H1459.83C1467.93 1 1474.5 7.56699 1474.5 15.667V74.333C1474.5 82.433 1467.93 89 1459.83 89H1247.17C1239.07 89 1232.5 82.433 1232.5 74.333V15.667Z" clip-rule="evenodd" fill-rule="evenodd"></path>
<path fill="#0B233F" d="M948.354 42L946.721 37.7974H941.34L939.726 42H938L943.297 28.3809H944.837L950.125 42H948.354ZM946.21 36.2852L944.689 32.1753L944.04 30.1436C943.854 30.8857 943.659 31.563 943.455 32.1753L941.915 36.2852H946.21ZM955.376 42.1855C954.053 42.1855 953.026 41.7279 952.296 40.8125C951.567 39.8971 951.202 38.6014 951.202 36.9253C951.202 35.2616 951.567 33.9627 952.296 33.0288C953.032 32.0949 954.065 31.6279 955.395 31.6279C956.762 31.6279 957.813 32.1289 958.549 33.1309H958.67C958.651 33.0072 958.627 32.7598 958.596 32.3887C958.565 32.0114 958.549 31.7578 958.549 31.6279V27.5645H960.219V42H958.874L958.624 40.6362H958.549C957.838 41.6691 956.78 42.1855 955.376 42.1855ZM955.646 40.8032C956.66 40.8032 957.399 40.528 957.863 39.9775C958.333 39.4209 958.568 38.5117 958.568 37.25V36.9438C958.568 35.5275 958.33 34.5194 957.854 33.9194C957.383 33.3133 956.641 33.0103 955.627 33.0103C954.767 33.0103 954.102 33.3535 953.632 34.04C953.162 34.7204 952.927 35.6945 952.927 36.9624C952.927 38.2241 953.159 39.1797 953.623 39.8291C954.093 40.4785 954.767 40.8032 955.646 40.8032ZM967.066 42.1855C965.742 42.1855 964.716 41.7279 963.986 40.8125C963.256 39.8971 962.891 38.6014 962.891 36.9253C962.891 35.2616 963.256 33.9627 963.986 33.0288C964.722 32.0949 965.755 31.6279 967.084 31.6279C968.451 31.6279 969.503 32.1289 970.239 33.1309H970.359C970.341 33.0072 970.316 32.7598 970.285 32.3887C970.254 32.0114 970.239 31.7578 970.239 31.6279V27.5645H971.909V42H970.563L970.313 40.6362H970.239C969.528 41.6691 968.47 42.1855 967.066 42.1855ZM967.335 40.8032C968.349 40.8032 969.088 40.528 969.552 39.9775C970.022 39.4209 970.257 38.5117 970.257 37.25V36.9438C970.257 35.5275 970.019 34.5194 969.543 33.9194C969.073 33.3133 968.331 33.0103 967.316 33.0103C966.457 33.0103 965.792 33.3535 965.322 34.04C964.852 34.7204 964.617 35.6945 964.617 36.9624C964.617 38.2241 964.849 39.1797 965.312 39.8291C965.783 40.4785 966.457 40.8032 967.335 40.8032ZM986.122 29.7446C984.662 29.7446 983.515 30.2332 982.68 31.2104C981.845 32.1877 981.427 33.5236 981.427 35.2183C981.427 36.9686 981.832 38.32 982.643 39.2725C983.453 40.2188 984.606 40.6919 986.103 40.6919C987.068 40.6919 988.153 40.5125 989.359 40.1538V41.6382C988.784 41.8485 988.231 41.9907 987.699 42.0649C987.167 42.1453 986.555 42.1855 985.862 42.1855C983.864 42.1855 982.324 41.5794 981.242 40.3672C980.166 39.1488 979.627 37.4263 979.627 35.1997C979.627 33.8019 979.884 32.5773 980.397 31.5259C980.917 30.4744 981.668 29.6642 982.652 29.0952C983.641 28.5262 984.804 28.2417 986.14 28.2417C987.575 28.2417 988.824 28.5076 989.888 29.0396L989.202 30.4868C988.119 29.992 987.093 29.7446 986.122 29.7446ZM1000.94 36.8882C1000.94 38.5519 1000.52 39.8507 999.676 40.7847C998.835 41.7186 997.672 42.1855 996.188 42.1855C995.266 42.1855 994.45 41.9722 993.738 41.5454C993.027 41.1125 992.48 40.494 992.096 39.6899C991.713 38.8859 991.521 37.952 991.521 36.8882C991.521 35.2306 991.935 33.9411 992.764 33.0195C993.593 32.0918 994.756 31.6279 996.252 31.6279C997.687 31.6279 998.825 32.1011 999.667 33.0474C1000.51 33.9875 1000.94 35.2677 1000.94 36.8882ZM993.247 36.8882C993.247 38.1685 993.497 39.1426 993.998 39.8105C994.505 40.4723 995.25 40.8032 996.234 40.8032C997.205 40.8032 997.944 40.4723 998.451 39.8105C998.958 39.1426 999.212 38.1685 999.212 36.8882C999.212 35.6079 998.955 34.6462 998.442 34.0029C997.935 33.3535 997.189 33.0288 996.206 33.0288C994.233 33.0288 993.247 34.3153 993.247 36.8882ZM1010.53 42V35.4873C1010.53 34.6585 1010.34 34.0431 1009.97 33.6411C1009.61 33.2329 1009.03 33.0288 1008.25 33.0288C1007.2 33.0288 1006.44 33.3195 1005.97 33.9009C1005.5 34.4761 1005.26 35.4162 1005.26 36.7212V42H1003.59V31.8135H1004.94L1005.19 33.2051H1005.28C1005.59 32.7041 1006.04 32.3175 1006.61 32.0454C1007.17 31.7671 1007.8 31.6279 1008.49 31.6279C1009.74 31.6279 1010.67 31.931 1011.27 32.5371C1011.88 33.1432 1012.18 34.0864 1012.18 35.3667V42H1010.53ZM1018.94 42.1855C1017.62 42.1855 1016.59 41.7279 1015.86 40.8125C1015.13 39.8971 1014.77 38.6014 1014.77 36.9253C1014.77 35.2616 1015.13 33.9627 1015.86 33.0288C1016.6 32.0949 1017.63 31.6279 1018.96 31.6279C1020.33 31.6279 1021.38 32.1289 1022.12 33.1309H1022.24C1022.22 33.0072 1022.19 32.7598 1022.16 32.3887C1022.13 32.0114 1022.12 31.7578 1022.12 31.6279V27.5645H1023.79V42H1022.44L1022.19 40.6362H1022.12C1021.41 41.6691 1020.35 42.1855 1018.94 42.1855ZM1019.21 40.8032C1020.23 40.8032 1020.97 40.528 1021.43 39.9775C1021.9 39.4209 1022.14 38.5117 1022.14 37.25V36.9438C1022.14 35.5275 1021.9 34.5194 1021.42 33.9194C1020.95 33.3133 1020.21 33.0103 1019.2 33.0103C1018.34 33.0103 1017.67 33.3535 1017.2 34.04C1016.73 34.7204 1016.5 35.6945 1016.5 36.9624C1016.5 38.2241 1016.73 39.1797 1017.19 39.8291C1017.66 40.4785 1018.34 40.8032 1019.21 40.8032ZM1028.7 42H1027.03V31.8135H1028.7V42ZM1026.9 29.0581C1026.9 28.687 1026.99 28.418 1027.17 28.251C1027.37 28.084 1027.6 28.0005 1027.88 28.0005C1028.14 28.0005 1028.36 28.084 1028.56 28.251C1028.75 28.418 1028.85 28.687 1028.85 29.0581C1028.85 29.423 1028.75 29.6921 1028.56 29.8652C1028.36 30.0384 1028.14 30.125 1027.88 30.125C1027.6 30.125 1027.37 30.0384 1027.17 29.8652C1026.99 29.6921 1026.9 29.423 1026.9 29.0581ZM1035.33 40.8218C1035.55 40.8218 1035.8 40.8001 1036.09 40.7568C1036.38 40.7135 1036.6 40.6641 1036.75 40.6084V41.8887C1036.59 41.9567 1036.35 42.0216 1036.02 42.0835C1035.7 42.1515 1035.38 42.1855 1035.04 42.1855C1033.05 42.1855 1032.05 41.1372 1032.05 39.0405V33.1123H1030.62V32.3145L1032.07 31.6465L1032.74 29.4756H1033.73V31.8135H1036.67V33.1123H1033.73V38.9941C1033.73 39.5817 1033.87 40.0332 1034.15 40.3486C1034.43 40.6641 1034.83 40.8218 1035.33 40.8218ZM1040.46 42H1038.79V31.8135H1040.46V42ZM1038.66 29.0581C1038.66 28.687 1038.75 28.418 1038.94 28.251C1039.13 28.084 1039.36 28.0005 1039.64 28.0005C1039.9 28.0005 1040.13 28.084 1040.32 28.251C1040.52 28.418 1040.62 28.687 1040.62 29.0581C1040.62 29.423 1040.52 29.6921 1040.32 29.8652C1040.13 30.0384 1039.9 30.125 1039.64 30.125C1039.36 30.125 1039.13 30.0384 1038.94 29.8652C1038.75 29.6921 1038.66 29.423 1038.66 29.0581ZM1052.54 36.8882C1052.54 38.5519 1052.12 39.8507 1051.28 40.7847C1050.44 41.7186 1049.27 42.1855 1047.79 42.1855C1046.87 42.1855 1046.05 41.9722 1045.34 41.5454C1044.63 41.1125 1044.08 40.494 1043.7 39.6899C1043.31 38.8859 1043.12 37.952 1043.12 36.8882C1043.12 35.2306 1043.54 33.9411 1044.36 33.0195C1045.19 32.0918 1046.36 31.6279 1047.85 31.6279C1049.29 31.6279 1050.43 32.1011 1051.27 33.0474C1052.11 33.9875 1052.54 35.2677 1052.54 36.8882ZM1044.85 36.8882C1044.85 38.1685 1045.1 39.1426 1045.6 39.8105C1046.11 40.4723 1046.85 40.8032 1047.83 40.8032C1048.81 40.8032 1049.54 40.4723 1050.05 39.8105C1050.56 39.1426 1050.81 38.1685 1050.81 36.8882C1050.81 35.6079 1050.56 34.6462 1050.04 34.0029C1049.54 33.3535 1048.79 33.0288 1047.81 33.0288C1045.83 33.0288 1044.85 34.3153 1044.85 36.8882ZM1062.13 42V35.4873C1062.13 34.6585 1061.95 34.0431 1061.57 33.6411C1061.21 33.2329 1060.63 33.0288 1059.85 33.0288C1058.8 33.0288 1058.04 33.3195 1057.57 33.9009C1057.1 34.4761 1056.86 35.4162 1056.86 36.7212V42H1055.19V31.8135H1056.54L1056.79 33.2051H1056.88C1057.2 32.7041 1057.64 32.3175 1058.21 32.0454C1058.78 31.7671 1059.4 31.6279 1060.09 31.6279C1061.34 31.6279 1062.27 31.931 1062.87 32.5371C1063.48 33.1432 1063.78 34.0864 1063.78 35.3667V42H1062.13ZM1073.57 39.189C1073.57 40.1414 1073.21 40.8805 1072.5 41.4062C1071.79 41.9258 1070.79 42.1855 1069.51 42.1855C1068.16 42.1855 1067.1 41.9722 1066.31 41.5454V40.0239C1067.43 40.5682 1068.5 40.8403 1069.54 40.8403C1070.38 40.8403 1071 40.7043 1071.38 40.4321C1071.76 40.16 1071.96 39.7951 1071.96 39.3374C1071.96 38.9354 1071.77 38.5952 1071.4 38.3169C1071.03 38.0386 1070.38 37.7201 1069.44 37.3613C1068.48 36.9902 1067.81 36.6748 1067.42 36.415C1067.03 36.1491 1066.74 35.8522 1066.56 35.5244C1066.38 35.1966 1066.29 34.7977 1066.29 34.3276C1066.29 33.4927 1066.63 32.834 1067.31 32.3516C1067.99 31.8691 1068.92 31.6279 1070.11 31.6279C1071.27 31.6279 1072.35 31.8568 1073.36 32.3145L1072.79 33.6411C1071.76 33.2082 1070.83 32.9917 1070 32.9917C1069.31 32.9917 1068.78 33.103 1068.42 33.3257C1068.06 33.5422 1067.88 33.8421 1067.88 34.2256C1067.88 34.5967 1068.04 34.9059 1068.35 35.1533C1068.66 35.3945 1069.38 35.7316 1070.51 36.1646C1071.36 36.48 1071.98 36.7738 1072.38 37.0459C1072.79 37.318 1073.09 37.6242 1073.28 37.9644C1073.47 38.3045 1073.57 38.7127 1073.57 39.189ZM1084.39 40.8218C1084.6 40.8218 1084.86 40.8001 1085.15 40.7568C1085.44 40.7135 1085.66 40.6641 1085.81 40.6084V41.8887C1085.65 41.9567 1085.41 42.0216 1085.08 42.0835C1084.76 42.1515 1084.43 42.1855 1084.1 42.1855C1082.11 42.1855 1081.11 41.1372 1081.11 39.0405V33.1123H1079.67V32.3145L1081.13 31.6465L1081.8 29.4756H1082.79V31.8135H1085.73V33.1123H1082.79V38.9941C1082.79 39.5817 1082.93 40.0332 1083.21 40.3486C1083.49 40.6641 1083.89 40.8218 1084.39 40.8218ZM1096.7 36.8882C1096.7 38.5519 1096.28 39.8507 1095.44 40.7847C1094.6 41.7186 1093.43 42.1855 1091.95 42.1855C1091.03 42.1855 1090.21 41.9722 1089.5 41.5454C1088.79 41.1125 1088.24 40.494 1087.86 39.6899C1087.47 38.8859 1087.28 37.952 1087.28 36.8882C1087.28 35.2306 1087.7 33.9411 1088.52 33.0195C1089.35 32.0918 1090.52 31.6279 1092.01 31.6279C1093.45 31.6279 1094.59 32.1011 1095.43 33.0474C1096.27 33.9875 1096.7 35.2677 1096.7 36.8882ZM1089.01 36.8882C1089.01 38.1685 1089.26 39.1426 1089.76 39.8105C1090.27 40.4723 1091.01 40.8032 1091.99 40.8032C1092.97 40.8032 1093.7 40.4723 1094.21 39.8105C1094.72 39.1426 1094.97 38.1685 1094.97 36.8882C1094.97 35.6079 1094.72 34.6462 1094.2 34.0029C1093.7 33.3535 1092.95 33.0288 1091.97 33.0288C1089.99 33.0288 1089.01 34.3153 1089.01 36.8882ZM1110.41 34.8379H1115.1V41.4897C1114.38 41.7186 1113.65 41.8918 1112.91 42.0093C1112.16 42.1268 1111.3 42.1855 1110.33 42.1855C1108.26 42.1855 1106.66 41.5732 1105.53 40.3486C1104.4 39.124 1103.83 37.4139 1103.83 35.2183C1103.83 33.8019 1104.11 32.5649 1104.68 31.5073C1105.24 30.4497 1106.05 29.6426 1107.11 29.0859C1108.17 28.5231 1109.42 28.2417 1110.86 28.2417C1112.31 28.2417 1113.66 28.5076 1114.91 29.0396L1114.26 30.5239C1113.07 30.0044 1111.9 29.7446 1110.76 29.7446C1109.15 29.7446 1107.89 30.2332 1106.98 31.2104C1106.07 32.1877 1105.61 33.5236 1105.61 35.2183C1105.61 37.0119 1106.05 38.3757 1106.92 39.3096C1107.79 40.2435 1109.06 40.7104 1110.73 40.7104C1111.63 40.7104 1112.52 40.6022 1113.39 40.3857V36.3594H1110.41V34.8379ZM1124.42 42L1124.09 40.5527H1124.02C1123.51 41.1898 1123.01 41.6227 1122.5 41.8516C1122 42.0742 1121.36 42.1855 1120.6 42.1855C1119.59 42.1855 1118.81 41.9227 1118.24 41.397C1117.67 40.8713 1117.39 40.1291 1117.39 39.1704C1117.39 37.1047 1119.02 36.0223 1122.28 35.9233L1124 35.8584V35.2554C1124 34.4823 1123.83 33.9132 1123.5 33.5483C1123.17 33.1772 1122.63 32.9917 1121.9 32.9917C1121.36 32.9917 1120.85 33.0721 1120.36 33.2329C1119.89 33.3937 1119.44 33.5731 1119.02 33.771L1118.51 32.5186C1119.02 32.2464 1119.58 32.033 1120.19 31.8784C1120.79 31.7238 1121.39 31.6465 1121.99 31.6465C1123.22 31.6465 1124.13 31.9186 1124.73 32.4629C1125.33 33.0072 1125.63 33.873 1125.63 35.0605V42H1124.42ZM1120.98 40.8403C1121.91 40.8403 1122.64 40.5898 1123.18 40.0889C1123.71 39.5817 1123.98 38.8643 1123.98 37.9365V37.0181L1122.48 37.083C1121.31 37.1263 1120.46 37.3118 1119.92 37.6396C1119.39 37.9674 1119.12 38.4839 1119.12 39.189C1119.12 39.7209 1119.28 40.1291 1119.6 40.4136C1119.93 40.6981 1120.39 40.8403 1120.98 40.8403ZM1141.76 42V35.4409C1141.76 33.8328 1141.07 33.0288 1139.69 33.0288C1138.74 33.0288 1138.05 33.304 1137.6 33.8545C1137.16 34.4049 1136.93 35.2461 1136.93 36.3779V42H1135.27V35.4409C1135.27 34.6369 1135.1 34.0339 1134.76 33.6318C1134.43 33.2298 1133.9 33.0288 1133.19 33.0288C1132.25 33.0288 1131.56 33.3164 1131.12 33.8916C1130.68 34.4668 1130.47 35.41 1130.47 36.7212V42H1128.8V31.8135H1130.14L1130.39 33.2051H1130.49C1130.78 32.7103 1131.19 32.3237 1131.71 32.0454C1132.24 31.7671 1132.84 31.6279 1133.49 31.6279C1135.09 31.6279 1136.13 32.1969 1136.61 33.335H1136.7C1137.03 32.7907 1137.48 32.3701 1138.04 32.0732C1138.61 31.7764 1139.25 31.6279 1139.97 31.6279C1141.12 31.6279 1141.98 31.9248 1142.55 32.5186C1143.12 33.1123 1143.41 34.0617 1143.41 35.3667V42H1141.76ZM1150.91 42.1855C1149.38 42.1855 1148.18 41.7248 1147.31 40.8032C1146.44 39.8755 1146.01 38.6014 1146.01 36.981C1146.01 35.3481 1146.41 34.0493 1147.22 33.0845C1148.03 32.1134 1149.13 31.6279 1150.51 31.6279C1151.79 31.6279 1152.81 32.0423 1153.57 32.8711C1154.33 33.6937 1154.71 34.8101 1154.71 36.2202V37.2314H1147.73C1147.76 38.388 1148.06 39.2663 1148.61 39.8662C1149.17 40.4661 1149.96 40.7661 1150.98 40.7661C1151.52 40.7661 1152.04 40.7197 1152.53 40.627C1153.02 40.528 1153.59 40.3394 1154.25 40.061V41.5269C1153.68 41.7681 1153.15 41.9382 1152.66 42.0371C1152.16 42.1361 1151.58 42.1855 1150.91 42.1855ZM1150.49 32.9917C1149.69 32.9917 1149.06 33.2484 1148.6 33.7617C1148.13 34.2751 1147.86 34.9894 1147.77 35.9048H1152.96C1152.94 34.9523 1152.72 34.2287 1152.3 33.7339C1151.87 33.2391 1151.27 32.9917 1150.49 32.9917Z"></path>
<path fill="#0B233F" d="M947.537 60.3726C947.537 61.5539 947.11 62.4847 946.257 63.165C945.403 63.8454 944.216 64.1855 942.694 64.1855C941.086 64.1855 939.843 63.9722 938.965 63.5454V61.9126C939.54 62.16 940.168 62.3548 940.848 62.4971C941.535 62.6393 942.175 62.7104 942.769 62.7104C943.783 62.7104 944.547 62.5156 945.06 62.126C945.573 61.7363 945.83 61.2013 945.83 60.521C945.83 60.0695 945.737 59.6984 945.552 59.4077C945.366 59.117 945.054 58.8449 944.615 58.5913C944.182 58.3377 943.523 58.0501 942.639 57.7285C941.383 57.2708 940.486 56.7327 939.948 56.1143C939.41 55.4896 939.141 54.6855 939.141 53.7021C939.141 52.6445 939.537 51.8034 940.329 51.1787C941.126 50.554 942.175 50.2417 943.474 50.2417C944.828 50.2417 946.074 50.4953 947.212 51.0024L946.684 52.4683C945.521 51.9858 944.438 51.7446 943.437 51.7446C942.632 51.7446 942.002 51.9178 941.544 52.2642C941.092 52.6105 940.867 53.096 940.867 53.7207C940.867 54.166 940.953 54.5371 941.126 54.834C941.306 55.1247 941.59 55.3906 941.98 55.6318C942.376 55.873 942.994 56.1483 943.835 56.4575C944.844 56.8286 945.595 57.1904 946.09 57.543C946.585 57.8893 946.95 58.2913 947.185 58.749C947.42 59.2005 947.537 59.7417 947.537 60.3726ZM953.447 62.8218C953.663 62.8218 953.917 62.8001 954.208 62.7568C954.498 62.7135 954.718 62.6641 954.866 62.6084V63.8887C954.712 63.9567 954.47 64.0216 954.143 64.0835C953.821 64.1515 953.493 64.1855 953.159 64.1855C951.168 64.1855 950.172 63.1372 950.172 61.0405V55.1123H948.734V54.3145L950.19 53.6465L950.858 51.4756H951.851V53.8135H954.792V55.1123H951.851V60.9941C951.851 61.5817 951.99 62.0332 952.269 62.3486C952.553 62.6641 952.946 62.8218 953.447 62.8218ZM965.758 58.8882C965.758 60.5519 965.337 61.8507 964.496 62.7847C963.655 63.7186 962.492 64.1855 961.008 64.1855C960.086 64.1855 959.27 63.9722 958.559 63.5454C957.847 63.1125 957.3 62.494 956.917 61.6899C956.533 60.8859 956.341 59.952 956.341 58.8882C956.341 57.2306 956.756 55.9411 957.584 55.0195C958.413 54.0918 959.576 53.6279 961.073 53.6279C962.508 53.6279 963.646 54.1011 964.487 55.0474C965.334 55.9875 965.758 57.2677 965.758 58.8882ZM958.067 58.8882C958.067 60.1685 958.317 61.1426 958.818 61.8105C959.326 62.4723 960.071 62.8032 961.054 62.8032C962.025 62.8032 962.764 62.4723 963.271 61.8105C963.779 61.1426 964.032 60.1685 964.032 58.8882C964.032 57.6079 963.776 56.6462 963.262 56.0029C962.755 55.3535 962.01 55.0288 961.026 55.0288C959.053 55.0288 958.067 56.3153 958.067 58.8882ZM973.161 53.6279C973.613 53.6279 974.012 53.665 974.358 53.7393L974.154 55.2793C973.777 55.1927 973.409 55.1494 973.05 55.1494C972.512 55.1494 972.011 55.2979 971.547 55.5947C971.089 55.8916 970.73 56.3029 970.471 56.8286C970.211 57.3481 970.081 57.9264 970.081 58.5635V64H968.411V53.8135H969.784L969.97 55.6782H970.044C970.434 55.0041 970.894 54.4938 971.426 54.1475C971.958 53.8011 972.536 53.6279 973.161 53.6279ZM974.664 53.8135H976.455L978.653 59.6118C979.117 60.8735 979.402 61.7982 979.507 62.3857H979.581C979.637 62.1569 979.764 61.7301 979.961 61.1055C980.159 60.4746 980.326 59.9705 980.462 59.5933L982.531 53.8135H984.331L979.943 65.4102C979.516 66.5358 979.009 67.3429 978.421 67.8315C977.834 68.3201 977.107 68.5645 976.241 68.5645C975.777 68.5645 975.317 68.5119 974.859 68.4067V67.0801C975.168 67.1543 975.539 67.1914 975.972 67.1914C976.504 67.1914 976.956 67.043 977.327 66.7461C977.698 66.4554 978.001 66.0039 978.236 65.3916L978.765 64.0371L974.664 53.8135ZM999.731 58.8882C999.731 60.5519 999.311 61.8507 998.47 62.7847C997.629 63.7186 996.466 64.1855 994.981 64.1855C994.06 64.1855 993.243 63.9722 992.532 63.5454C991.821 63.1125 991.274 62.494 990.89 61.6899C990.507 60.8859 990.315 59.952 990.315 58.8882C990.315 57.2306 990.729 55.9411 991.558 55.0195C992.387 54.0918 993.55 53.6279 995.046 53.6279C996.481 53.6279 997.619 54.1011 998.46 55.0474C999.308 55.9875 999.731 57.2677 999.731 58.8882ZM992.041 58.8882C992.041 60.1685 992.291 61.1426 992.792 61.8105C993.299 62.4723 994.044 62.8032 995.028 62.8032C995.999 62.8032 996.738 62.4723 997.245 61.8105C997.752 61.1426 998.006 60.1685 998.006 58.8882C998.006 57.6079 997.749 56.6462 997.236 56.0029C996.729 55.3535 995.983 55.0288 995 55.0288C993.027 55.0288 992.041 56.3153 992.041 58.8882ZM1007.13 53.6279C1007.59 53.6279 1007.99 53.665 1008.33 53.7393L1008.13 55.2793C1007.75 55.1927 1007.38 55.1494 1007.02 55.1494C1006.49 55.1494 1005.98 55.2979 1005.52 55.5947C1005.06 55.8916 1004.7 56.3029 1004.44 56.8286C1004.18 57.3481 1004.05 57.9264 1004.05 58.5635V64H1002.38V53.8135H1003.76L1003.94 55.6782H1004.02C1004.41 55.0041 1004.87 54.4938 1005.4 54.1475C1005.93 53.8011 1006.51 53.6279 1007.13 53.6279ZM1021.21 51.7446C1019.75 51.7446 1018.6 52.2332 1017.77 53.2104C1016.93 54.1877 1016.51 55.5236 1016.51 57.2183C1016.51 58.9686 1016.92 60.32 1017.73 61.2725C1018.54 62.2188 1019.69 62.6919 1021.19 62.6919C1022.15 62.6919 1023.24 62.5125 1024.45 62.1538V63.6382C1023.87 63.8485 1023.32 63.9907 1022.79 64.0649C1022.25 64.1453 1021.64 64.1855 1020.95 64.1855C1018.95 64.1855 1017.41 63.5794 1016.33 62.3672C1015.25 61.1488 1014.71 59.4263 1014.71 57.1997C1014.71 55.8019 1014.97 54.5773 1015.48 53.5259C1016 52.4744 1016.76 51.6642 1017.74 51.0952C1018.73 50.5262 1019.89 50.2417 1021.23 50.2417C1022.66 50.2417 1023.91 50.5076 1024.98 51.0396L1024.29 52.4868C1023.21 51.992 1022.18 51.7446 1021.21 51.7446ZM1036.02 58.8882C1036.02 60.5519 1035.6 61.8507 1034.76 62.7847C1033.92 63.7186 1032.76 64.1855 1031.27 64.1855C1030.35 64.1855 1029.54 63.9722 1028.83 63.5454C1028.11 63.1125 1027.57 62.494 1027.18 61.6899C1026.8 60.8859 1026.61 59.952 1026.61 58.8882C1026.61 57.2306 1027.02 55.9411 1027.85 55.0195C1028.68 54.0918 1029.84 53.6279 1031.34 53.6279C1032.77 53.6279 1033.91 54.1011 1034.75 55.0474C1035.6 55.9875 1036.02 57.2677 1036.02 58.8882ZM1028.33 58.8882C1028.33 60.1685 1028.58 61.1426 1029.08 61.8105C1029.59 62.4723 1030.34 62.8032 1031.32 62.8032C1032.29 62.8032 1033.03 62.4723 1033.54 61.8105C1034.05 61.1426 1034.3 60.1685 1034.3 58.8882C1034.3 57.6079 1034.04 56.6462 1033.53 56.0029C1033.02 55.3535 1032.28 55.0288 1031.29 55.0288C1029.32 55.0288 1028.33 56.3153 1028.33 58.8882ZM1040.35 64H1038.68V49.5645H1040.35V64ZM1045.25 64H1043.58V49.5645H1045.25V64ZM1052.81 64.1855C1051.28 64.1855 1050.08 63.7248 1049.21 62.8032C1048.34 61.8755 1047.91 60.6014 1047.91 58.981C1047.91 57.3481 1048.31 56.0493 1049.12 55.0845C1049.93 54.1134 1051.03 53.6279 1052.41 53.6279C1053.69 53.6279 1054.71 54.0423 1055.47 54.8711C1056.23 55.6937 1056.61 56.8101 1056.61 58.2202V59.2314H1049.63C1049.67 60.388 1049.96 61.2663 1050.52 61.8662C1051.07 62.4661 1051.86 62.7661 1052.88 62.7661C1053.43 62.7661 1053.94 62.7197 1054.43 62.627C1054.92 62.528 1055.49 62.3394 1056.15 62.061V63.5269C1055.58 63.7681 1055.06 63.9382 1054.56 64.0371C1054.07 64.1361 1053.48 64.1855 1052.81 64.1855ZM1052.39 54.9917C1051.59 54.9917 1050.96 55.2484 1050.5 55.7617C1050.03 56.2751 1049.76 56.9894 1049.67 57.9048H1054.86C1054.85 56.9523 1054.63 56.2287 1054.2 55.7339C1053.77 55.2391 1053.17 54.9917 1052.39 54.9917ZM1063.28 64.1855C1061.82 64.1855 1060.67 63.7371 1059.86 62.8403C1059.04 61.9373 1058.63 60.6447 1058.63 58.9624C1058.63 57.2554 1059.04 55.9411 1059.87 55.0195C1060.7 54.0918 1061.87 53.6279 1063.4 53.6279C1063.9 53.6279 1064.39 53.6805 1064.87 53.7856C1065.36 53.8846 1065.76 54.0145 1066.07 54.1753L1065.56 55.5669C1064.7 55.2453 1063.97 55.0845 1063.36 55.0845C1062.34 55.0845 1061.58 55.4092 1061.09 56.0586C1060.6 56.7018 1060.36 57.6636 1060.36 58.9438C1060.36 60.1746 1060.6 61.1178 1061.09 61.7734C1061.58 62.4229 1062.3 62.7476 1063.26 62.7476C1064.16 62.7476 1065.04 62.5496 1065.91 62.1538V63.6382C1065.2 64.0031 1064.33 64.1855 1063.28 64.1855ZM1071.73 62.8218C1071.95 62.8218 1072.2 62.8001 1072.49 62.7568C1072.78 62.7135 1073 62.6641 1073.15 62.6084V63.8887C1073 63.9567 1072.76 64.0216 1072.43 64.0835C1072.11 64.1515 1071.78 64.1855 1071.45 64.1855C1069.45 64.1855 1068.46 63.1372 1068.46 61.0405V55.1123H1067.02V54.3145L1068.48 53.6465L1069.14 51.4756H1070.14V53.8135H1073.08V55.1123H1070.14V60.9941C1070.14 61.5817 1070.28 62.0332 1070.55 62.3486C1070.84 62.6641 1071.23 62.8218 1071.73 62.8218ZM1076.86 64H1075.19V53.8135H1076.86V64ZM1075.06 51.0581C1075.06 50.687 1075.16 50.418 1075.34 50.251C1075.53 50.084 1075.77 50.0005 1076.05 50.0005C1076.31 50.0005 1076.53 50.084 1076.72 50.251C1076.92 50.418 1077.02 50.687 1077.02 51.0581C1077.02 51.423 1076.92 51.6921 1076.72 51.8652C1076.53 52.0384 1076.31 52.125 1076.05 52.125C1075.77 52.125 1075.53 52.0384 1075.34 51.8652C1075.16 51.6921 1075.06 51.423 1075.06 51.0581ZM1084.92 53.6465C1086.26 53.6465 1087.29 54.1104 1088.02 55.0381C1088.75 55.9596 1089.12 57.2492 1089.12 58.9067C1089.12 60.589 1088.75 61.891 1088.01 62.8125C1087.26 63.7279 1086.23 64.1855 1084.92 64.1855C1084.23 64.1855 1083.62 64.0618 1083.08 63.8145C1082.54 63.5671 1082.1 63.1991 1081.76 62.7104H1081.63C1081.44 63.4526 1081.33 63.8825 1081.29 64H1080.09V49.5645H1081.76V53.0713C1081.76 53.7702 1081.73 54.4691 1081.67 55.168H1081.76C1082.45 54.1536 1083.5 53.6465 1084.92 53.6465ZM1084.64 55.0288C1083.61 55.0288 1082.88 55.3195 1082.43 55.9009C1081.98 56.4823 1081.76 57.4657 1081.76 58.8511V58.9253C1081.76 60.3169 1081.99 61.3127 1082.44 61.9126C1082.9 62.5063 1083.64 62.8032 1084.67 62.8032C1085.59 62.8032 1086.27 62.4692 1086.72 61.8013C1087.17 61.1271 1087.39 60.1561 1087.39 58.8882C1087.39 57.6017 1087.17 56.6369 1086.72 55.9937C1086.26 55.3504 1085.57 55.0288 1084.64 55.0288ZM1093.45 64H1091.78V49.5645H1093.45V64ZM1101.01 64.1855C1099.48 64.1855 1098.28 63.7248 1097.41 62.8032C1096.55 61.8755 1096.11 60.6014 1096.11 58.981C1096.11 57.3481 1096.52 56.0493 1097.33 55.0845C1098.14 54.1134 1099.23 53.6279 1100.61 53.6279C1101.89 53.6279 1102.91 54.0423 1103.67 54.8711C1104.44 55.6937 1104.82 56.8101 1104.82 58.2202V59.2314H1097.84C1097.87 60.388 1098.16 61.2663 1098.72 61.8662C1099.28 62.4661 1100.07 62.7661 1101.09 62.7661C1101.63 62.7661 1102.15 62.7197 1102.64 62.627C1103.12 62.528 1103.7 62.3394 1104.35 62.061V63.5269C1103.79 63.7681 1103.26 63.9382 1102.77 64.0371C1102.27 64.1361 1101.69 64.1855 1101.01 64.1855ZM1100.59 54.9917C1099.8 54.9917 1099.17 55.2484 1098.7 55.7617C1098.24 56.2751 1097.96 56.9894 1097.88 57.9048H1103.06C1103.05 56.9523 1102.83 56.2287 1102.4 55.7339C1101.98 55.2391 1101.37 54.9917 1100.59 54.9917ZM1114.04 61.189C1114.04 62.1414 1113.68 62.8805 1112.97 63.4062C1112.26 63.9258 1111.26 64.1855 1109.97 64.1855C1108.63 64.1855 1107.57 63.9722 1106.77 63.5454V62.0239C1107.89 62.5682 1108.97 62.8403 1110.01 62.8403C1110.85 62.8403 1111.46 62.7043 1111.85 62.4321C1112.23 62.16 1112.42 61.7951 1112.42 61.3374C1112.42 60.9354 1112.24 60.5952 1111.87 60.3169C1111.5 60.0386 1110.85 59.7201 1109.91 59.3613C1108.95 58.9902 1108.28 58.6748 1107.89 58.415C1107.5 58.1491 1107.21 57.8522 1107.02 57.5244C1106.84 57.1966 1106.75 56.7977 1106.75 56.3276C1106.75 55.4927 1107.1 54.834 1107.78 54.3516C1108.46 53.8691 1109.39 53.6279 1110.58 53.6279C1111.73 53.6279 1112.82 53.8568 1113.82 54.3145L1113.26 55.6411C1112.23 55.2082 1111.29 54.9917 1110.47 54.9917C1109.77 54.9917 1109.25 55.103 1108.89 55.3257C1108.53 55.5422 1108.35 55.8421 1108.35 56.2256C1108.35 56.5967 1108.51 56.9059 1108.81 57.1533C1109.12 57.3945 1109.84 57.7316 1110.98 58.1646C1111.82 58.48 1112.45 58.7738 1112.85 59.0459C1113.26 59.318 1113.56 59.6242 1113.75 59.9644C1113.94 60.3045 1114.04 60.7127 1114.04 61.189Z"></path>
<path fill="#E96969" d="M550.5 43.9995H583.366C583.918 43.9995 584.366 44.4475 584.366 44.9995V45.0625L583.366 44.0625H609.566V46.0625H583.366C582.814 46.0625 582.366 45.6145 582.366 45.0625V44.9995L583.366 45.9995H550.5V43.9995ZM608.232 41.0625L616.232 45.0625L608.232 49.0625V41.0625Z"></path>
<path fill="#E96969" d="M858.5 43.9995H891.366C891.918 43.9995 892.366 44.4475 892.366 44.9995V45.0625L891.366 44.0625H917.566V46.0625H891.366C890.814 46.0625 890.366 45.6145 890.366 45.0625V44.9995L891.366 45.9995H858.5V43.9995ZM916.232 41.0625L924.232 45.0625L916.232 49.0625V41.0625Z"></path>
<path fill="#E96969" d="M1166.5 43.9995H1199.37C1199.92 43.9995 1200.37 44.4475 1200.37 44.9995V45.0625L1199.37 44.0625H1225.57V46.0625H1199.37C1198.81 46.0625 1198.37 45.6145 1198.37 45.0625V44.9995L1199.37 45.9995H1166.5V43.9995ZM1224.23 41.0625L1232.23 45.0625L1224.23 49.0625V41.0625Z"></path>
<path fill="#0B233F" d="M1254.15 39.7446C1252.69 39.7446 1251.55 40.2332 1250.71 41.2104C1249.88 42.1877 1249.46 43.5236 1249.46 45.2183C1249.46 46.9686 1249.86 48.32 1250.67 49.2725C1251.49 50.2188 1252.64 50.6919 1254.14 50.6919C1255.1 50.6919 1256.19 50.5125 1257.39 50.1538V51.6382C1256.82 51.8485 1256.26 51.9907 1255.73 52.0649C1255.2 52.1453 1254.59 52.1855 1253.89 52.1855C1251.9 52.1855 1250.36 51.5794 1249.27 50.3672C1248.2 49.1488 1247.66 47.4263 1247.66 45.1997C1247.66 43.8019 1247.92 42.5773 1248.43 41.5259C1248.95 40.4744 1249.7 39.6642 1250.68 39.0952C1251.67 38.5262 1252.84 38.2417 1254.17 38.2417C1255.61 38.2417 1256.86 38.5076 1257.92 39.0396L1257.23 40.4868C1256.15 39.992 1255.12 39.7446 1254.15 39.7446ZM1264.87 41.6279C1265.32 41.6279 1265.72 41.665 1266.07 41.7393L1265.86 43.2793C1265.48 43.1927 1265.12 43.1494 1264.76 43.1494C1264.22 43.1494 1263.72 43.2979 1263.25 43.5947C1262.8 43.8916 1262.44 44.3029 1262.18 44.8286C1261.92 45.3481 1261.79 45.9264 1261.79 46.5635V52H1260.12V41.8135H1261.49L1261.68 43.6782H1261.75C1262.14 43.0041 1262.6 42.4938 1263.13 42.1475C1263.67 41.8011 1264.24 41.6279 1264.87 41.6279ZM1272.11 52.1855C1270.59 52.1855 1269.39 51.7248 1268.52 50.8032C1267.65 49.8755 1267.22 48.6014 1267.22 46.981C1267.22 45.3481 1267.62 44.0493 1268.43 43.0845C1269.24 42.1134 1270.34 41.6279 1271.72 41.6279C1273 41.6279 1274.02 42.0423 1274.78 42.8711C1275.54 43.6937 1275.92 44.8101 1275.92 46.2202V47.2314H1268.94C1268.97 48.388 1269.27 49.2663 1269.82 49.8662C1270.38 50.4661 1271.17 50.7661 1272.19 50.7661C1272.73 50.7661 1273.25 50.7197 1273.74 50.627C1274.23 50.528 1274.8 50.3394 1275.45 50.061V51.5269C1274.89 51.7681 1274.36 51.9382 1273.87 52.0371C1273.37 52.1361 1272.79 52.1855 1272.11 52.1855ZM1271.7 42.9917C1270.9 42.9917 1270.27 43.2484 1269.8 43.7617C1269.34 44.2751 1269.07 44.9894 1268.98 45.9048H1274.17C1274.15 44.9523 1273.93 44.2287 1273.51 43.7339C1273.08 43.2391 1272.48 42.9917 1271.7 42.9917ZM1284.8 52L1284.47 50.5527H1284.4C1283.89 51.1898 1283.38 51.6227 1282.88 51.8516C1282.38 52.0742 1281.74 52.1855 1280.97 52.1855C1279.97 52.1855 1279.19 51.9227 1278.62 51.397C1278.05 50.8713 1277.76 50.1291 1277.76 49.1704C1277.76 47.1047 1279.39 46.0223 1282.65 45.9233L1284.38 45.8584V45.2554C1284.38 44.4823 1284.21 43.9132 1283.88 43.5483C1283.54 43.1772 1283.01 42.9917 1282.27 42.9917C1281.74 42.9917 1281.23 43.0721 1280.74 43.2329C1280.27 43.3937 1279.82 43.5731 1279.4 43.771L1278.89 42.5186C1279.4 42.2464 1279.96 42.033 1280.57 41.8784C1281.17 41.7238 1281.77 41.6465 1282.37 41.6465C1283.6 41.6465 1284.51 41.9186 1285.11 42.4629C1285.71 43.0072 1286.01 43.873 1286.01 45.0605V52H1284.8ZM1281.35 50.8403C1282.29 50.8403 1283.02 50.5898 1283.55 50.0889C1284.09 49.5817 1284.36 48.8643 1284.36 47.9365V47.0181L1282.86 47.083C1281.69 47.1263 1280.84 47.3118 1280.3 47.6396C1279.77 47.9674 1279.5 48.4839 1279.5 49.189C1279.5 49.7209 1279.66 50.1291 1279.98 50.4136C1280.31 50.6981 1280.77 50.8403 1281.35 50.8403ZM1292.58 50.8218C1292.8 50.8218 1293.05 50.8001 1293.34 50.7568C1293.63 50.7135 1293.85 50.6641 1294 50.6084V51.8887C1293.85 51.9567 1293.6 52.0216 1293.28 52.0835C1292.95 52.1515 1292.63 52.1855 1292.29 52.1855C1290.3 52.1855 1289.31 51.1372 1289.31 49.0405V43.1123H1287.87V42.3145L1289.32 41.6465L1289.99 39.4756H1290.98V41.8135H1293.93V43.1123H1290.98V48.9941C1290.98 49.5817 1291.12 50.0332 1291.4 50.3486C1291.69 50.6641 1292.08 50.8218 1292.58 50.8218ZM1300.37 52.1855C1298.85 52.1855 1297.65 51.7248 1296.77 50.8032C1295.91 49.8755 1295.48 48.6014 1295.48 46.981C1295.48 45.3481 1295.88 44.0493 1296.69 43.0845C1297.5 42.1134 1298.6 41.6279 1299.97 41.6279C1301.25 41.6279 1302.28 42.0423 1303.04 42.8711C1303.8 43.6937 1304.18 44.8101 1304.18 46.2202V47.2314H1297.2C1297.23 48.388 1297.53 49.2663 1298.08 49.8662C1298.64 50.4661 1299.43 50.7661 1300.45 50.7661C1300.99 50.7661 1301.51 50.7197 1302 50.627C1302.49 50.528 1303.06 50.3394 1303.71 50.061V51.5269C1303.15 51.7681 1302.62 51.9382 1302.13 52.0371C1301.63 52.1361 1301.05 52.1855 1300.37 52.1855ZM1299.96 42.9917C1299.16 42.9917 1298.53 43.2484 1298.06 43.7617C1297.6 44.2751 1297.32 44.9894 1297.24 45.9048H1302.42C1302.41 44.9523 1302.19 44.2287 1301.77 43.7339C1301.34 43.2391 1300.74 42.9917 1299.96 42.9917ZM1317.82 44.8379H1322.51V51.4897C1321.79 51.7186 1321.06 51.8918 1320.32 52.0093C1319.58 52.1268 1318.72 52.1855 1317.74 52.1855C1315.67 52.1855 1314.08 51.5732 1312.94 50.3486C1311.81 49.124 1311.25 47.4139 1311.25 45.2183C1311.25 43.8019 1311.53 42.5649 1312.09 41.5073C1312.65 40.4497 1313.46 39.6426 1314.52 39.0859C1315.59 38.5231 1316.84 38.2417 1318.28 38.2417C1319.73 38.2417 1321.07 38.5076 1322.32 39.0396L1321.67 40.5239C1320.48 40.0044 1319.31 39.7446 1318.18 39.7446C1316.56 39.7446 1315.3 40.2332 1314.39 41.2104C1313.48 42.1877 1313.03 43.5236 1313.03 45.2183C1313.03 47.0119 1313.46 48.3757 1314.34 49.3096C1315.21 50.2435 1316.48 50.7104 1318.14 50.7104C1319.05 50.7104 1319.94 50.6022 1320.8 50.3857V46.3594H1317.82V44.8379ZM1331.83 52L1331.51 50.5527H1331.43C1330.93 51.1898 1330.42 51.6227 1329.91 51.8516C1329.41 52.0742 1328.78 52.1855 1328.01 52.1855C1327.01 52.1855 1326.22 51.9227 1325.65 51.397C1325.09 50.8713 1324.8 50.1291 1324.8 49.1704C1324.8 47.1047 1326.43 46.0223 1329.69 45.9233L1331.42 45.8584V45.2554C1331.42 44.4823 1331.25 43.9132 1330.91 43.5483C1330.58 43.1772 1330.05 42.9917 1329.31 42.9917C1328.77 42.9917 1328.26 43.0721 1327.78 43.2329C1327.3 43.3937 1326.85 43.5731 1326.43 43.771L1325.92 42.5186C1326.44 42.2464 1327 42.033 1327.6 41.8784C1328.21 41.7238 1328.81 41.6465 1329.4 41.6465C1330.63 41.6465 1331.55 41.9186 1332.15 42.4629C1332.75 43.0072 1333.05 43.873 1333.05 45.0605V52H1331.83ZM1328.39 50.8403C1329.33 50.8403 1330.06 50.5898 1330.59 50.0889C1331.13 49.5817 1331.4 48.8643 1331.4 47.9365V47.0181L1329.89 47.083C1328.73 47.1263 1327.87 47.3118 1327.33 47.6396C1326.8 47.9674 1326.54 48.4839 1326.54 49.189C1326.54 49.7209 1326.7 50.1291 1327.02 50.4136C1327.35 50.6981 1327.8 50.8403 1328.39 50.8403ZM1349.17 52V45.4409C1349.17 43.8328 1348.48 43.0288 1347.1 43.0288C1346.16 43.0288 1345.46 43.304 1345.02 43.8545C1344.57 44.4049 1344.35 45.2461 1344.35 46.3779V52H1342.69V45.4409C1342.69 44.6369 1342.52 44.0339 1342.18 43.6318C1341.84 43.2298 1341.32 43.0288 1340.6 43.0288C1339.66 43.0288 1338.97 43.3164 1338.53 43.8916C1338.1 44.4668 1337.88 45.41 1337.88 46.7212V52H1336.21V41.8135H1337.56L1337.81 43.2051H1337.9C1338.19 42.7103 1338.6 42.3237 1339.12 42.0454C1339.66 41.7671 1340.25 41.6279 1340.91 41.6279C1342.5 41.6279 1343.54 42.1969 1344.02 43.335H1344.12C1344.44 42.7907 1344.89 42.3701 1345.45 42.0732C1346.02 41.7764 1346.66 41.6279 1347.38 41.6279C1348.53 41.6279 1349.39 41.9248 1349.96 42.5186C1350.54 43.1123 1350.82 44.0617 1350.82 45.3667V52H1349.17ZM1358.32 52.1855C1356.79 52.1855 1355.59 51.7248 1354.72 50.8032C1353.85 49.8755 1353.42 48.6014 1353.42 46.981C1353.42 45.3481 1353.83 44.0493 1354.64 43.0845C1355.45 42.1134 1356.54 41.6279 1357.92 41.6279C1359.2 41.6279 1360.22 42.0423 1360.98 42.8711C1361.74 43.6937 1362.12 44.8101 1362.12 46.2202V47.2314H1355.15C1355.18 48.388 1355.47 49.2663 1356.03 49.8662C1356.58 50.4661 1357.37 50.7661 1358.39 50.7661C1358.94 50.7661 1359.45 50.7197 1359.94 50.627C1360.43 50.528 1361 50.3394 1361.66 50.061V51.5269C1361.1 51.7681 1360.57 51.9382 1360.07 52.0371C1359.58 52.1361 1358.99 52.1855 1358.32 52.1855ZM1357.9 42.9917C1357.1 42.9917 1356.47 43.2484 1356.01 43.7617C1355.55 44.2751 1355.27 44.9894 1355.18 45.9048H1360.37C1360.36 44.9523 1360.14 44.2287 1359.71 43.7339C1359.28 43.2391 1358.68 42.9917 1357.9 42.9917ZM1374.17 52H1372.46V39.9395H1368.22V38.4365H1378.39V39.9395H1374.17V52ZM1383.91 52.1855C1382.38 52.1855 1381.18 51.7248 1380.31 50.8032C1379.44 49.8755 1379.01 48.6014 1379.01 46.981C1379.01 45.3481 1379.41 44.0493 1380.22 43.0845C1381.03 42.1134 1382.13 41.6279 1383.51 41.6279C1384.79 41.6279 1385.81 42.0423 1386.57 42.8711C1387.33 43.6937 1387.71 44.8101 1387.71 46.2202V47.2314H1380.73C1380.76 48.388 1381.06 49.2663 1381.62 49.8662C1382.17 50.4661 1382.96 50.7661 1383.98 50.7661C1384.53 50.7661 1385.04 50.7197 1385.53 50.627C1386.02 50.528 1386.59 50.3394 1387.25 50.061V51.5269C1386.68 51.7681 1386.15 51.9382 1385.66 52.0371C1385.17 52.1361 1384.58 52.1855 1383.91 52.1855ZM1383.49 42.9917C1382.69 42.9917 1382.06 43.2484 1381.6 43.7617C1381.13 44.2751 1380.86 44.9894 1380.77 45.9048H1385.96C1385.94 44.9523 1385.73 44.2287 1385.3 43.7339C1384.87 43.2391 1384.27 42.9917 1383.49 42.9917ZM1396.59 52L1396.26 50.5527H1396.19C1395.68 51.1898 1395.18 51.6227 1394.67 51.8516C1394.17 52.0742 1393.53 52.1855 1392.77 52.1855C1391.76 52.1855 1390.98 51.9227 1390.41 51.397C1389.84 50.8713 1389.56 50.1291 1389.56 49.1704C1389.56 47.1047 1391.19 46.0223 1394.45 45.9233L1396.17 45.8584V45.2554C1396.17 44.4823 1396 43.9132 1395.67 43.5483C1395.34 43.1772 1394.8 42.9917 1394.07 42.9917C1393.53 42.9917 1393.02 43.0721 1392.53 43.2329C1392.06 43.3937 1391.61 43.5731 1391.19 43.771L1390.68 42.5186C1391.19 42.2464 1391.75 42.033 1392.36 41.8784C1392.96 41.7238 1393.56 41.6465 1394.16 41.6465C1395.39 41.6465 1396.3 41.9186 1396.9 42.4629C1397.5 43.0072 1397.8 43.873 1397.8 45.0605V52H1396.59ZM1393.15 50.8403C1394.08 50.8403 1394.81 50.5898 1395.35 50.0889C1395.88 49.5817 1396.15 48.8643 1396.15 47.9365V47.0181L1394.65 47.083C1393.48 47.1263 1392.63 47.3118 1392.09 47.6396C1391.56 47.9674 1391.29 48.4839 1391.29 49.189C1391.29 49.7209 1391.45 50.1291 1391.77 50.4136C1392.1 50.6981 1392.56 50.8403 1393.15 50.8403ZM1413.93 52V45.4409C1413.93 43.8328 1413.24 43.0288 1411.86 43.0288C1410.91 43.0288 1410.22 43.304 1409.77 43.8545C1409.33 44.4049 1409.1 45.2461 1409.1 46.3779V52H1407.44V45.4409C1407.44 44.6369 1407.27 44.0339 1406.93 43.6318C1406.6 43.2298 1406.07 43.0288 1405.36 43.0288C1404.42 43.0288 1403.73 43.3164 1403.29 43.8916C1402.85 44.4668 1402.64 45.41 1402.64 46.7212V52H1400.97V41.8135H1402.31L1402.56 43.2051H1402.66C1402.95 42.7103 1403.36 42.3237 1403.88 42.0454C1404.41 41.7671 1405.01 41.6279 1405.66 41.6279C1407.26 41.6279 1408.3 42.1969 1408.78 43.335H1408.87C1409.2 42.7907 1409.65 42.3701 1410.21 42.0732C1410.78 41.7764 1411.42 41.6279 1412.14 41.6279C1413.29 41.6279 1414.15 41.9248 1414.72 42.5186C1415.29 43.1123 1415.58 44.0617 1415.58 45.3667V52H1413.93ZM1425.38 49.189C1425.38 50.1414 1425.02 50.8805 1424.31 51.4062C1423.6 51.9258 1422.6 52.1855 1421.31 52.1855C1419.97 52.1855 1418.9 51.9722 1418.11 51.5454V50.0239C1419.23 50.5682 1420.31 50.8403 1421.35 50.8403C1422.19 50.8403 1422.8 50.7043 1423.19 50.4321C1423.57 50.16 1423.76 49.7951 1423.76 49.3374C1423.76 48.9354 1423.58 48.5952 1423.21 48.3169C1422.84 48.0386 1422.19 47.7201 1421.25 47.3613C1420.29 46.9902 1419.62 46.6748 1419.23 46.415C1418.84 46.1491 1418.55 45.8522 1418.36 45.5244C1418.18 45.1966 1418.09 44.7977 1418.09 44.3276C1418.09 43.4927 1418.43 42.834 1419.11 42.3516C1419.79 41.8691 1420.73 41.6279 1421.92 41.6279C1423.07 41.6279 1424.15 41.8568 1425.16 42.3145L1424.6 43.6411C1423.56 43.2082 1422.63 42.9917 1421.8 42.9917C1421.11 42.9917 1420.59 43.103 1420.23 43.3257C1419.87 43.5422 1419.69 43.8421 1419.69 44.2256C1419.69 44.5967 1419.84 44.9059 1420.15 45.1533C1420.46 45.3945 1421.18 45.7316 1422.31 46.1646C1423.16 46.48 1423.79 46.7738 1424.19 47.0459C1424.6 47.318 1424.9 47.6242 1425.09 47.9644C1425.28 48.3045 1425.38 48.7127 1425.38 49.189Z"></path>
</svg>
