<svg xmlns="http://www.w3.org/2000/svg" fill="none" viewBox="0 0 1168 90" height="90" width="1168">
<path stroke-linejoin="round" stroke-miterlimit="10" stroke="#0B233F" fill="#0B233F" d="M1 15.667C1 7.56699 7.5665 1 15.6668 1H228.333C236.433 1 243 7.56699 243 15.667V74.333C243 82.433 236.433 89 228.333 89H15.6668C7.5665 89 1 82.433 1 74.333V15.667Z" clip-rule="evenodd" fill-rule="evenodd"></path>
<path fill="white" d="M27.3889 29.5H24.5222V23.646H19.1506V29.5H16.2747V15.9365H19.1506V21.2524H24.5222V15.9365H27.3889V29.5ZM32.8533 24.2954C32.8533 25.3221 33.0203 26.0983 33.3542 26.624C33.6944 27.1497 34.2449 27.4126 35.0056 27.4126C35.7602 27.4126 36.3014 27.1528 36.6292 26.6333C36.9631 26.1076 37.1301 25.3283 37.1301 24.2954C37.1301 23.2687 36.9631 22.4987 36.6292 21.9854C36.2952 21.472 35.7478 21.2153 34.9871 21.2153C34.2325 21.2153 33.6882 21.472 33.3542 21.9854C33.0203 22.4925 32.8533 23.2625 32.8533 24.2954ZM40.0247 24.2954C40.0247 25.9839 39.5793 27.3044 38.6887 28.2568C37.7981 29.2093 36.558 29.6855 34.9685 29.6855C33.9727 29.6855 33.0945 29.4691 32.3337 29.0361C31.573 28.597 30.9885 27.9692 30.5803 27.1528C30.1721 26.3364 29.968 25.384 29.968 24.2954C29.968 22.6007 30.4102 21.2834 31.2947 20.3433C32.1791 19.4032 33.4223 18.9331 35.0242 18.9331C36.0199 18.9331 36.8982 19.1496 37.6589 19.5825C38.4197 20.0155 39.0042 20.637 39.4124 21.4473C39.8206 22.2575 40.0247 23.2069 40.0247 24.2954ZM50.7029 29.5L49.905 25.8726L48.8474 21.2896H48.7639L46.8713 29.5H43.8284L40.8782 19.1279H43.6985L44.8953 23.7202C45.0313 24.2645 45.22 25.3994 45.4612 27.125H45.5354C45.5601 26.6549 45.6684 25.9097 45.8601 24.8892L46.0085 24.1006L47.2888 19.1279H50.406L51.6213 24.1006C51.6956 24.4408 51.7852 24.9417 51.8904 25.6035C52.0017 26.2591 52.0636 26.7663 52.0759 27.125H52.1501C52.2182 26.5745 52.314 25.9499 52.4377 25.251C52.5614 24.5459 52.6666 24.0356 52.7532 23.7202L53.9963 19.1279H56.7703L53.783 29.5H50.7029ZM67.7546 27.4312C68.2494 27.4312 68.8432 27.3229 69.5359 27.1064V29.2124C68.8308 29.5278 67.9649 29.6855 66.9382 29.6855C65.8064 29.6855 64.9807 29.401 64.4612 28.832C63.9478 28.2568 63.6912 27.3971 63.6912 26.2529V21.2524H62.3367V20.0557L63.8953 19.1094L64.7117 16.9199H66.5208V19.1279H69.4246V21.2524H66.5208V26.2529C66.5208 26.6549 66.6321 26.9518 66.8547 27.1436C67.0836 27.3353 67.3835 27.4312 67.7546 27.4312ZM73.8962 24.2954C73.8962 25.3221 74.0632 26.0983 74.3972 26.624C74.7374 27.1497 75.2878 27.4126 76.0486 27.4126C76.8031 27.4126 77.3443 27.1528 77.6721 26.6333C78.0061 26.1076 78.1731 25.3283 78.1731 24.2954C78.1731 23.2687 78.0061 22.4987 77.6721 21.9854C77.3381 21.472 76.7908 21.2153 76.03 21.2153C75.2755 21.2153 74.7312 21.472 74.3972 21.9854C74.0632 22.4925 73.8962 23.2625 73.8962 24.2954ZM81.0676 24.2954C81.0676 25.9839 80.6223 27.3044 79.7317 28.2568C78.8411 29.2093 77.601 29.6855 76.0115 29.6855C75.0157 29.6855 74.1375 29.4691 73.3767 29.0361C72.616 28.597 72.0315 27.9692 71.6233 27.1528C71.2151 26.3364 71.011 25.384 71.011 24.2954C71.011 22.6007 71.4532 21.2834 72.3376 20.3433C73.2221 19.4032 74.4653 18.9331 76.0671 18.9331C77.0629 18.9331 77.9412 19.1496 78.7019 19.5825C79.4626 20.0155 80.0471 20.637 80.4553 21.4473C80.8635 22.2575 81.0676 23.2069 81.0676 24.2954ZM92.553 29.6855C89.3245 29.6855 87.7102 27.9136 87.7102 24.3696C87.7102 22.6069 88.1493 21.2617 89.0276 20.334C89.9058 19.4001 91.1645 18.9331 92.8035 18.9331C94.0033 18.9331 95.0795 19.1681 96.032 19.6382L95.197 21.8276C94.7517 21.6483 94.3373 21.5029 93.9539 21.3916C93.5704 21.2741 93.1869 21.2153 92.8035 21.2153C91.3315 21.2153 90.5955 22.2606 90.5955 24.3511C90.5955 26.3797 91.3315 27.394 92.8035 27.394C93.3477 27.394 93.8518 27.3229 94.3157 27.1807C94.7795 27.0322 95.2434 26.8034 95.7073 26.4941V28.9155C95.2496 29.2062 94.7857 29.4072 94.3157 29.5186C93.8518 29.6299 93.2642 29.6855 92.553 29.6855ZM103.908 18.9331C104.292 18.9331 104.61 18.9609 104.864 19.0166L104.651 21.6699C104.422 21.6081 104.143 21.5771 103.816 21.5771C102.913 21.5771 102.208 21.8091 101.7 22.2729C101.199 22.7368 100.949 23.3862 100.949 24.2212V29.5H98.1194V19.1279H100.262L100.68 20.8721H100.819C101.141 20.2907 101.574 19.8237 102.118 19.4712C102.668 19.1125 103.265 18.9331 103.908 18.9331ZM110.857 20.9463C110.257 20.9463 109.787 21.138 109.447 21.5215C109.107 21.8988 108.912 22.4368 108.863 23.1357H112.833C112.821 22.4368 112.638 21.8988 112.286 21.5215C111.933 21.138 111.457 20.9463 110.857 20.9463ZM111.256 29.6855C109.586 29.6855 108.281 29.2248 107.341 28.3032C106.401 27.3817 105.931 26.0767 105.931 24.3882C105.931 22.6502 106.364 21.3081 107.23 20.3618C108.102 19.4093 109.305 18.9331 110.839 18.9331C112.304 18.9331 113.446 19.3506 114.262 20.1855C115.078 21.0205 115.487 22.174 115.487 23.646V25.019H108.798C108.829 25.8231 109.067 26.4508 109.512 26.9023C109.957 27.3538 110.582 27.5796 111.386 27.5796C112.011 27.5796 112.601 27.5146 113.158 27.3848C113.715 27.2549 114.296 27.0477 114.902 26.7632V28.9526C114.407 29.2 113.878 29.3825 113.316 29.5C112.753 29.6237 112.066 29.6855 111.256 29.6855ZM124.374 29.5L123.827 28.0898H123.753C123.276 28.6898 122.785 29.1073 122.278 29.3423C121.777 29.5711 121.121 29.6855 120.311 29.6855C119.315 29.6855 118.53 29.401 117.954 28.832C117.385 28.263 117.101 27.4528 117.101 26.4014C117.101 25.3005 117.484 24.4902 118.251 23.9707C119.024 23.445 120.187 23.1543 121.74 23.0986L123.539 23.043V22.5884C123.539 21.5369 123.001 21.0112 121.925 21.0112C121.096 21.0112 120.122 21.2617 119.003 21.7627L118.066 19.8516C119.259 19.2269 120.583 18.9146 122.036 18.9146C123.428 18.9146 124.495 19.2176 125.237 19.8237C125.979 20.4299 126.35 21.3514 126.35 22.5884V29.5H124.374ZM123.539 24.6943L122.445 24.7314C121.622 24.7562 121.01 24.9046 120.608 25.1768C120.206 25.4489 120.005 25.8633 120.005 26.4199C120.005 27.2178 120.462 27.6167 121.378 27.6167C122.033 27.6167 122.556 27.4281 122.946 27.0508C123.341 26.6735 123.539 26.1725 123.539 25.5479V24.6943ZM133.642 27.4312C134.137 27.4312 134.731 27.3229 135.424 27.1064V29.2124C134.719 29.5278 133.853 29.6855 132.826 29.6855C131.694 29.6855 130.868 29.401 130.349 28.832C129.836 28.2568 129.579 27.3971 129.579 26.2529V21.2524H128.224V20.0557L129.783 19.1094L130.599 16.9199H132.408V19.1279H135.312V21.2524H132.408V26.2529C132.408 26.6549 132.52 26.9518 132.742 27.1436C132.971 27.3353 133.271 27.4312 133.642 27.4312ZM141.825 20.9463C141.225 20.9463 140.755 21.138 140.415 21.5215C140.075 21.8988 139.88 22.4368 139.83 23.1357H143.801C143.789 22.4368 143.606 21.8988 143.254 21.5215C142.901 21.138 142.425 20.9463 141.825 20.9463ZM142.224 29.6855C140.554 29.6855 139.249 29.2248 138.309 28.3032C137.369 27.3817 136.899 26.0767 136.899 24.3882C136.899 22.6502 137.332 21.3081 138.198 20.3618C139.07 19.4093 140.273 18.9331 141.806 18.9331C143.272 18.9331 144.413 19.3506 145.23 20.1855C146.046 21.0205 146.454 22.174 146.454 23.646V25.019H139.765C139.796 25.8231 140.034 26.4508 140.48 26.9023C140.925 27.3538 141.55 27.5796 142.354 27.5796C142.978 27.5796 143.569 27.5146 144.126 27.3848C144.682 27.2549 145.264 27.0477 145.87 26.7632V28.9526C145.375 29.2 144.846 29.3825 144.283 29.5C143.721 29.6237 143.034 29.6855 142.224 29.6855ZM160.278 29.5L159.73 28.0898H159.656C159.18 28.6898 158.688 29.1073 158.181 29.3423C157.68 29.5711 157.024 29.6855 156.214 29.6855C155.218 29.6855 154.433 29.401 153.858 28.832C153.289 28.263 153.004 27.4528 153.004 26.4014C153.004 25.3005 153.388 24.4902 154.155 23.9707C154.928 23.445 156.09 23.1543 157.643 23.0986L159.443 23.043V22.5884C159.443 21.5369 158.905 21.0112 157.828 21.0112C157 21.0112 156.025 21.2617 154.906 21.7627L153.969 19.8516C155.163 19.2269 156.486 18.9146 157.94 18.9146C159.331 18.9146 160.398 19.2176 161.14 19.8237C161.883 20.4299 162.254 21.3514 162.254 22.5884V29.5H160.278ZM159.443 24.6943L158.348 24.7314C157.525 24.7562 156.913 24.9046 156.511 25.1768C156.109 25.4489 155.908 25.8633 155.908 26.4199C155.908 27.2178 156.366 27.6167 157.281 27.6167C157.937 27.6167 158.459 27.4281 158.849 27.0508C159.245 26.6735 159.443 26.1725 159.443 25.5479V24.6943ZM174.75 29.5H171.921V23.4419C171.921 22.6935 171.788 22.1338 171.522 21.7627C171.256 21.3854 170.832 21.1968 170.251 21.1968C169.459 21.1968 168.887 21.4627 168.534 21.9946C168.182 22.5203 168.006 23.3955 168.006 24.6201V29.5H165.176V19.1279H167.338L167.718 20.4546H167.876C168.191 19.9536 168.624 19.5763 169.175 19.3228C169.731 19.063 170.362 18.9331 171.067 18.9331C172.273 18.9331 173.189 19.2609 173.813 19.9165C174.438 20.5659 174.75 21.506 174.75 22.7368V29.5ZM180.948 29.6855C179.729 29.6855 178.77 29.2124 178.072 28.2661C177.379 27.3198 177.032 26.0086 177.032 24.3325C177.032 22.6317 177.385 21.3081 178.09 20.3618C178.801 19.4093 179.779 18.9331 181.022 18.9331C182.327 18.9331 183.323 19.4403 184.009 20.4546H184.102C183.96 19.6815 183.888 18.9919 183.888 18.3857V15.0645H186.727V29.5H184.556L184.009 28.1548H183.888C183.245 29.1753 182.265 29.6855 180.948 29.6855ZM181.94 27.4312C182.664 27.4312 183.193 27.2209 183.527 26.8003C183.867 26.3797 184.052 25.6654 184.083 24.6572V24.3511C184.083 23.2378 183.91 22.4399 183.564 21.9575C183.224 21.4751 182.667 21.2339 181.894 21.2339C181.263 21.2339 180.771 21.5029 180.419 22.041C180.072 22.5729 179.899 23.3491 179.899 24.3696C179.899 25.3901 180.075 26.1571 180.428 26.6704C180.781 27.1776 181.285 27.4312 181.94 27.4312Z"></path>
<path fill="white" d="M25.3386 51.5H22.509V45.4419C22.509 44.6935 22.3822 44.1338 22.1287 43.7627C21.8813 43.3854 21.4885 43.1968 20.9504 43.1968C20.2268 43.1968 19.7011 43.4627 19.3733 43.9946C19.0455 44.5265 18.8816 45.4017 18.8816 46.6201V51.5H16.052V41.1279H18.2136L18.594 42.4546H18.7517C19.03 41.9784 19.432 41.6073 19.9578 41.3413C20.4835 41.0692 21.0865 40.9331 21.7668 40.9331C23.3193 40.9331 24.3707 41.4403 24.9211 42.4546H25.1716C25.45 41.9722 25.8582 41.598 26.3962 41.332C26.9405 41.0661 27.5528 40.9331 28.2332 40.9331C29.4083 40.9331 30.2958 41.2362 30.8958 41.8423C31.5019 42.4422 31.8049 43.4071 31.8049 44.7368V51.5H28.9661V45.4419C28.9661 44.6935 28.8393 44.1338 28.5857 43.7627C28.3383 43.3854 27.9456 43.1968 27.4075 43.1968C26.7148 43.1968 26.1952 43.4442 25.8489 43.939C25.5087 44.4338 25.3386 45.2192 25.3386 46.2954V51.5ZM41.3049 51.5L40.7576 50.0898H40.6833C40.2071 50.6898 39.7154 51.1073 39.2083 51.3423C38.7073 51.5711 38.0517 51.6855 37.2415 51.6855C36.2457 51.6855 35.4602 51.401 34.885 50.832C34.316 50.263 34.0315 49.4528 34.0315 48.4014C34.0315 47.3005 34.415 46.4902 35.1819 45.9707C35.955 45.445 37.1178 45.1543 38.6702 45.0986L40.47 45.043V44.5884C40.47 43.5369 39.9319 43.0112 38.8557 43.0112C38.0269 43.0112 37.0528 43.2617 35.9333 43.7627L34.9963 41.8516C36.19 41.2269 37.5136 40.9146 38.967 40.9146C40.3586 40.9146 41.4255 41.2176 42.1677 41.8237C42.9099 42.4299 43.281 43.3514 43.281 44.5884V51.5H41.3049ZM40.47 46.6943L39.3752 46.7314C38.5527 46.7562 37.9403 46.9046 37.5383 47.1768C37.1363 47.4489 36.9353 47.8633 36.9353 48.4199C36.9353 49.2178 37.393 49.6167 38.3083 49.6167C38.9639 49.6167 39.4866 49.4281 39.8762 49.0508C40.2721 48.6735 40.47 48.1725 40.47 47.5479V46.6943ZM55.7776 51.5H52.948V45.4419C52.948 44.6935 52.815 44.1338 52.5491 43.7627C52.2831 43.3854 51.8595 43.1968 51.2781 43.1968C50.4864 43.1968 49.9143 43.4627 49.5618 43.9946C49.2092 44.5203 49.033 45.3955 49.033 46.6201V51.5H46.2034V41.1279H48.365L48.7454 42.4546H48.9031C49.2185 41.9536 49.6514 41.5763 50.2019 41.3228C50.7585 41.063 51.3894 40.9331 52.0945 40.9331C53.3005 40.9331 54.2159 41.2609 54.8406 41.9165C55.4653 42.5659 55.7776 43.506 55.7776 44.7368V51.5ZM65.2776 51.5L64.7302 50.0898H64.656C64.1798 50.6898 63.6881 51.1073 63.1809 51.3423C62.6799 51.5711 62.0243 51.6855 61.2141 51.6855C60.2183 51.6855 59.4329 51.401 58.8577 50.832C58.2887 50.263 58.0042 49.4528 58.0042 48.4014C58.0042 47.3005 58.3876 46.4902 59.1545 45.9707C59.9277 45.445 61.0904 45.1543 62.6428 45.0986L64.4426 45.043V44.5884C64.4426 43.5369 63.9045 43.0112 62.8284 43.0112C61.9996 43.0112 61.0255 43.2617 59.906 43.7627L58.969 41.8516C60.1627 41.2269 61.4862 40.9146 62.9397 40.9146C64.3313 40.9146 65.3982 41.2176 66.1404 41.8237C66.8826 42.4299 67.2537 43.3514 67.2537 44.5884V51.5H65.2776ZM64.4426 46.6943L63.3479 46.7314C62.5253 46.7562 61.913 46.9046 61.511 47.1768C61.109 47.4489 60.908 47.8633 60.908 48.4199C60.908 49.2178 61.3656 49.6167 62.281 49.6167C62.9366 49.6167 63.4592 49.4281 63.8489 49.0508C64.2447 48.6735 64.4426 48.1725 64.4426 47.5479V46.6943ZM74.4714 49.4683C75.2322 49.4683 75.7764 49.2518 76.1042 48.8188C76.432 48.3797 76.5959 47.6715 76.5959 46.6943V46.3511C76.5959 45.244 76.4228 44.4492 76.0764 43.9668C75.7362 43.4782 75.1858 43.2339 74.425 43.2339C73.0953 43.2339 72.4304 44.2791 72.4304 46.3696C72.4304 47.4087 72.5943 48.1849 72.9221 48.6982C73.2561 49.2116 73.7725 49.4683 74.4714 49.4683ZM79.24 51.5186C79.24 53.0091 78.804 54.1379 77.9319 54.9048C77.066 55.6779 75.7734 56.0645 74.054 56.0645C72.5387 56.0645 71.246 55.8604 70.176 55.4521V53.1885C71.4316 53.7204 72.7799 53.9863 74.2209 53.9863C75.6744 53.9863 76.4011 53.2008 76.4011 51.6299V51.4258L76.4846 50.1548H76.4011C75.7393 51.1753 74.759 51.6855 73.4602 51.6855C72.217 51.6855 71.2522 51.2062 70.5657 50.2476C69.8853 49.2889 69.5452 47.9839 69.5452 46.3325C69.5452 44.6317 69.8977 43.3081 70.6028 42.3618C71.314 41.4093 72.2913 40.9331 73.5344 40.9331C74.8085 40.9331 75.8105 41.4403 76.5403 42.4546H76.6145L76.8464 41.1279H79.24V51.5186ZM86.4949 42.9463C85.8949 42.9463 85.4249 43.138 85.0847 43.5215C84.7445 43.8988 84.5497 44.4368 84.5002 45.1357H88.4709C88.4586 44.4368 88.2761 43.8988 87.9236 43.5215C87.571 43.138 87.0948 42.9463 86.4949 42.9463ZM86.8938 51.6855C85.2239 51.6855 83.9189 51.2248 82.9788 50.3032C82.0387 49.3817 81.5686 48.0767 81.5686 46.3882C81.5686 44.6502 82.0015 43.3081 82.8674 42.3618C83.7395 41.4093 84.9425 40.9331 86.4763 40.9331C87.9421 40.9331 89.0833 41.3506 89.8997 42.1855C90.7161 43.0205 91.1243 44.174 91.1243 45.646V47.019H84.4353C84.4662 47.8231 84.7043 48.4508 85.1497 48.9023C85.595 49.3538 86.2196 49.5796 87.0237 49.5796C87.6484 49.5796 88.239 49.5146 88.7957 49.3848C89.3523 49.2549 89.9337 49.0477 90.5398 48.7632V50.9526C90.045 51.2 89.5162 51.3825 88.9534 51.5C88.3905 51.6237 87.704 51.6855 86.8938 51.6855ZM104.326 51.5L101.06 40.8589H100.977C101.094 43.0236 101.153 44.4678 101.153 45.1914V51.5H98.5833V37.9365H102.498L105.708 48.3086H105.764L109.169 37.9365H113.084V51.5H110.403V45.0801C110.403 44.777 110.406 44.4276 110.412 44.0317C110.424 43.6359 110.468 42.5845 110.542 40.8774H110.458L106.961 51.5H104.326ZM128.818 44.6997C128.818 46.9448 128.261 48.6704 127.148 49.8765C126.035 51.0825 124.439 51.6855 122.361 51.6855C120.283 51.6855 118.687 51.0825 117.574 49.8765C116.461 48.6704 115.904 46.9386 115.904 44.6812C115.904 42.4237 116.461 40.7012 117.574 39.5137C118.693 38.32 120.295 37.7231 122.38 37.7231C124.464 37.7231 126.057 38.3231 127.157 39.5229C128.265 40.7228 128.818 42.4484 128.818 44.6997ZM118.919 44.6997C118.919 46.215 119.207 47.3561 119.782 48.123C120.357 48.89 121.217 49.2734 122.361 49.2734C124.656 49.2734 125.803 47.7489 125.803 44.6997C125.803 41.6444 124.662 40.1167 122.38 40.1167C121.235 40.1167 120.373 40.5033 119.791 41.2764C119.21 42.0433 118.919 43.1844 118.919 44.6997ZM139.441 51.5H131.629V37.9365H139.441V40.293H134.505V43.271H139.097V45.6274H134.505V49.125H139.441V51.5ZM147.215 51.5V37.9365H150.091V49.125H155.593V51.5H147.215ZM157.615 38.4468C157.615 37.5252 158.128 37.0645 159.155 37.0645C160.182 37.0645 160.695 37.5252 160.695 38.4468C160.695 38.8859 160.565 39.2292 160.305 39.4766C160.052 39.7178 159.668 39.8384 159.155 39.8384C158.128 39.8384 157.615 39.3745 157.615 38.4468ZM160.565 51.5H157.736V41.1279H160.565V51.5ZM169.314 40.9331C170.538 40.9331 171.497 41.4124 172.19 42.3711C172.882 43.3236 173.229 44.6317 173.229 46.2954C173.229 48.0086 172.87 49.3353 172.153 50.2754C171.441 51.2155 170.47 51.6855 169.24 51.6855C168.021 51.6855 167.066 51.2433 166.373 50.3589H166.178L165.705 51.5H163.543V37.0645H166.373V40.4229C166.373 40.8496 166.336 41.533 166.261 42.4731H166.373C167.035 41.4465 168.015 40.9331 169.314 40.9331ZM168.405 43.1968C167.706 43.1968 167.195 43.4132 166.874 43.8462C166.552 44.2729 166.385 44.9811 166.373 45.9707V46.2769C166.373 47.3901 166.537 48.188 166.865 48.6704C167.198 49.1528 167.724 49.394 168.442 49.394C169.023 49.394 169.484 49.1281 169.824 48.5962C170.17 48.0581 170.344 47.2788 170.344 46.2583C170.344 45.2378 170.17 44.474 169.824 43.9668C169.478 43.4535 169.004 43.1968 168.405 43.1968ZM181.356 40.9331C181.739 40.9331 182.058 40.9609 182.311 41.0166L182.098 43.6699C181.869 43.6081 181.591 43.5771 181.263 43.5771C180.36 43.5771 179.655 43.8091 179.148 44.2729C178.647 44.7368 178.396 45.3862 178.396 46.2212V51.5H175.567V41.1279H177.71L178.127 42.8721H178.266C178.588 42.2907 179.021 41.8237 179.565 41.4712C180.116 41.1125 180.712 40.9331 181.356 40.9331ZM190.596 51.5L190.049 50.0898H189.974C189.498 50.6898 189.006 51.1073 188.499 51.3423C187.998 51.5711 187.343 51.6855 186.532 51.6855C185.537 51.6855 184.751 51.401 184.176 50.832C183.607 50.263 183.323 49.4528 183.323 48.4014C183.323 47.3005 183.706 46.4902 184.473 45.9707C185.246 45.445 186.409 45.1543 187.961 45.0986L189.761 45.043V44.5884C189.761 43.5369 189.223 43.0112 188.147 43.0112C187.318 43.0112 186.344 43.2617 185.224 43.7627L184.287 41.8516C185.481 41.2269 186.805 40.9146 188.258 40.9146C189.65 40.9146 190.717 41.2176 191.459 41.8237C192.201 42.4299 192.572 43.3514 192.572 44.5884V51.5H190.596ZM189.761 46.6943L188.666 46.7314C187.844 46.7562 187.231 46.9046 186.829 47.1768C186.427 47.4489 186.226 47.8633 186.226 48.4199C186.226 49.2178 186.684 49.6167 187.599 49.6167C188.255 49.6167 188.778 49.4281 189.167 49.0508C189.563 48.6735 189.761 48.1725 189.761 47.5479V46.6943ZM201.283 40.9331C201.667 40.9331 201.985 40.9609 202.239 41.0166L202.026 43.6699C201.797 43.6081 201.518 43.5771 201.191 43.5771C200.288 43.5771 199.583 43.8091 199.075 44.2729C198.574 44.7368 198.324 45.3862 198.324 46.2212V51.5H195.494V41.1279H197.637L198.055 42.8721H198.194C198.516 42.2907 198.949 41.8237 199.493 41.4712C200.043 41.1125 200.64 40.9331 201.283 40.9331ZM202.638 41.1279H205.737L207.694 46.9634C207.861 47.4705 207.976 48.0705 208.037 48.7632H208.093C208.161 48.1261 208.294 47.5262 208.492 46.9634L210.412 41.1279H213.446L209.058 52.8267C208.656 53.909 208.081 54.7192 207.332 55.2573C206.59 55.7954 205.721 56.0645 204.725 56.0645C204.237 56.0645 203.757 56.0119 203.287 55.9067V53.6616C203.628 53.742 203.999 53.7822 204.401 53.7822C204.902 53.7822 205.338 53.6276 205.709 53.3184C206.086 53.0153 206.38 52.5545 206.59 51.936L206.757 51.4258L202.638 41.1279Z"></path>
<path fill="white" d="M21.8411 62.9331C22.2245 62.9331 22.5431 62.9609 22.7966 63.0166L22.5833 65.6699C22.3544 65.6081 22.0761 65.5771 21.7483 65.5771C20.8453 65.5771 20.1402 65.8091 19.6331 66.2729C19.1321 66.7368 18.8816 67.3862 18.8816 68.2212V73.5H16.052V63.1279H18.1951L18.6125 64.8721H18.7517C19.0733 64.2907 19.5063 63.8237 20.0505 63.4712C20.601 63.1125 21.1978 62.9331 21.8411 62.9331ZM28.7898 64.9463C28.1899 64.9463 27.7198 65.138 27.3796 65.5215C27.0395 65.8988 26.8446 66.4368 26.7952 67.1357H30.7659C30.7535 66.4368 30.571 65.8988 30.2185 65.5215C29.866 65.138 29.3897 64.9463 28.7898 64.9463ZM29.1887 73.6855C27.5188 73.6855 26.2138 73.2248 25.2737 72.3032C24.3336 71.3817 23.8635 70.0767 23.8635 68.3882C23.8635 66.6502 24.2965 65.3081 25.1624 64.3618C26.0344 63.4093 27.2374 62.9331 28.7712 62.9331C30.2371 62.9331 31.3782 63.3506 32.1946 64.1855C33.011 65.0205 33.4192 66.174 33.4192 67.646V69.019H26.7302C26.7611 69.8231 26.9993 70.4508 27.4446 70.9023C27.8899 71.3538 28.5146 71.5796 29.3186 71.5796C29.9433 71.5796 30.5339 71.5146 31.0906 71.3848C31.6472 71.2549 32.2286 71.0477 32.8347 70.7632V72.9526C32.3399 73.2 31.8111 73.3825 31.2483 73.5C30.6855 73.6237 29.9989 73.6855 29.1887 73.6855ZM42.9563 70.4199C42.9563 71.4837 42.5852 72.2939 41.843 72.8506C41.107 73.4072 40.003 73.6855 38.531 73.6855C37.7764 73.6855 37.1332 73.633 36.6013 73.5278C36.0694 73.4289 35.5715 73.2804 35.1077 73.0825V70.7446C35.6334 70.992 36.224 71.1992 36.8796 71.3662C37.5414 71.5332 38.1228 71.6167 38.6238 71.6167C39.6505 71.6167 40.1638 71.3198 40.1638 70.7261C40.1638 70.5034 40.0958 70.3241 39.9597 70.188C39.8236 70.0457 39.5886 69.888 39.2546 69.7148C38.9207 69.5355 38.4753 69.3283 37.9187 69.0933C37.1208 68.7593 36.5333 68.45 36.156 68.1655C35.7849 67.881 35.5128 67.5563 35.3396 67.1914C35.1726 66.8203 35.0891 66.3657 35.0891 65.8276C35.0891 64.9061 35.4447 64.1948 36.156 63.6938C36.8735 63.1867 37.8878 62.9331 39.199 62.9331C40.4483 62.9331 41.6637 63.2052 42.845 63.7495L41.9915 65.7905C41.4719 65.5679 40.9864 65.3854 40.5349 65.2432C40.0834 65.1009 39.6226 65.0298 39.1526 65.0298C38.3176 65.0298 37.9001 65.2555 37.9001 65.707C37.9001 65.9606 38.0331 66.1802 38.2991 66.3657C38.5712 66.5513 39.1619 66.8265 40.071 67.1914C40.8813 67.5192 41.475 67.8254 41.8523 68.1099C42.2296 68.3944 42.5079 68.7222 42.6873 69.0933C42.8666 69.4644 42.9563 69.9066 42.9563 70.4199ZM47.4187 68.2954C47.4187 69.3221 47.5857 70.0983 47.9197 70.624C48.2598 71.1497 48.8103 71.4126 49.571 71.4126C50.3256 71.4126 50.8668 71.1528 51.1946 70.6333C51.5286 70.1076 51.6956 69.3283 51.6956 68.2954C51.6956 67.2687 51.5286 66.4987 51.1946 65.9854C50.8606 65.472 50.3132 65.2153 49.5525 65.2153C48.7979 65.2153 48.2537 65.472 47.9197 65.9854C47.5857 66.4925 47.4187 67.2625 47.4187 68.2954ZM54.5901 68.2954C54.5901 69.9839 54.1448 71.3044 53.2542 72.2568C52.3635 73.2093 51.1235 73.6855 49.5339 73.6855C48.5382 73.6855 47.6599 73.4691 46.8992 73.0361C46.1384 72.597 45.554 71.9692 45.1458 71.1528C44.7375 70.3364 44.5334 69.384 44.5334 68.2954C44.5334 66.6007 44.9757 65.2834 45.8601 64.3433C46.7445 63.4032 47.9877 62.9331 49.5896 62.9331C50.5854 62.9331 51.4636 63.1496 52.2244 63.5825C52.9851 64.0155 53.5696 64.637 53.9778 65.4473C54.386 66.2575 54.5901 67.2069 54.5901 68.2954ZM64.2756 73.5L63.8953 72.1733H63.7468C63.4438 72.6558 63.0139 73.0299 62.4573 73.2959C61.9006 73.5557 61.2667 73.6855 60.5554 73.6855C59.337 73.6855 58.4185 73.3608 57.8 72.7114C57.1816 72.0558 56.8723 71.1157 56.8723 69.8911V63.1279H59.7019V69.186C59.7019 69.9344 59.8349 70.4972 60.1008 70.8745C60.3668 71.2456 60.7904 71.4312 61.3718 71.4312C62.1635 71.4312 62.7356 71.1683 63.0881 70.6426C63.4407 70.1107 63.6169 69.2324 63.6169 68.0078V63.1279H66.4465V73.5H64.2756ZM75.2043 62.9331C75.5878 62.9331 75.9063 62.9609 76.1599 63.0166L75.9465 65.6699C75.7177 65.6081 75.4394 65.5771 75.1116 65.5771C74.2086 65.5771 73.5035 65.8091 72.9963 66.2729C72.4954 66.7368 72.2449 67.3862 72.2449 68.2212V73.5H69.4153V63.1279H71.5583L71.9758 64.8721H72.115C72.4366 64.2907 72.8695 63.8237 73.4138 63.4712C73.9643 63.1125 74.5611 62.9331 75.2043 62.9331ZM82.0696 73.6855C78.8411 73.6855 77.2268 71.9136 77.2268 68.3696C77.2268 66.6069 77.6659 65.2617 78.5442 64.334C79.4224 63.4001 80.6811 62.9331 82.3201 62.9331C83.5199 62.9331 84.5961 63.1681 85.5486 63.6382L84.7136 65.8276C84.2683 65.6483 83.8539 65.5029 83.4705 65.3916C83.087 65.2741 82.7035 65.2153 82.3201 65.2153C80.8481 65.2153 80.1121 66.2606 80.1121 68.3511C80.1121 70.3797 80.8481 71.394 82.3201 71.394C82.8643 71.394 83.3684 71.3229 83.8323 71.1807C84.2961 71.0322 84.76 70.8034 85.2239 70.4941V72.9155C84.7662 73.2062 84.3023 73.4072 83.8323 73.5186C83.3684 73.6299 82.7808 73.6855 82.0696 73.6855ZM91.9314 64.9463C91.3315 64.9463 90.8614 65.138 90.5212 65.5215C90.1811 65.8988 89.9862 66.4368 89.9368 67.1357H93.9075C93.8951 66.4368 93.7126 65.8988 93.3601 65.5215C93.0076 65.138 92.5313 64.9463 91.9314 64.9463ZM92.3303 73.6855C90.6604 73.6855 89.3554 73.2248 88.4153 72.3032C87.4752 71.3817 87.0051 70.0767 87.0051 68.3882C87.0051 66.6502 87.4381 65.3081 88.304 64.3618C89.176 63.4093 90.379 62.9331 91.9128 62.9331C93.3787 62.9331 94.5198 63.3506 95.3362 64.1855C96.1526 65.0205 96.5608 66.174 96.5608 67.646V69.019H89.8718C89.9028 69.8231 90.1409 70.4508 90.5862 70.9023C91.0315 71.3538 91.6562 71.5796 92.4602 71.5796C93.0849 71.5796 93.6755 71.5146 94.2322 71.3848C94.7888 71.2549 95.3702 71.0477 95.9763 70.7632V72.9526C95.4815 73.2 94.9527 73.3825 94.3899 73.5C93.8271 73.6237 93.1405 73.6855 92.3303 73.6855ZM106.098 70.4199C106.098 71.4837 105.727 72.2939 104.985 72.8506C104.249 73.4072 103.145 73.6855 101.673 73.6855C100.918 73.6855 100.275 73.633 99.7429 73.5278C99.211 73.4289 98.7131 73.2804 98.2493 73.0825V70.7446C98.775 70.992 99.3656 71.1992 100.021 71.3662C100.683 71.5332 101.264 71.6167 101.765 71.6167C102.792 71.6167 103.305 71.3198 103.305 70.7261C103.305 70.5034 103.237 70.3241 103.101 70.188C102.965 70.0457 102.73 69.888 102.396 69.7148C102.062 69.5355 101.617 69.3283 101.06 69.0933C100.262 68.7593 99.6749 68.45 99.2976 68.1655C98.9265 67.881 98.6544 67.5563 98.4812 67.1914C98.3142 66.8203 98.2307 66.3657 98.2307 65.8276C98.2307 64.9061 98.5863 64.1948 99.2976 63.6938C100.015 63.1867 101.029 62.9331 102.341 62.9331C103.59 62.9331 104.805 63.2052 105.987 63.7495L105.133 65.7905C104.614 65.5679 104.128 65.3854 103.677 65.2432C103.225 65.1009 102.764 65.0298 102.294 65.0298C101.459 65.0298 101.042 65.2555 101.042 65.707C101.042 65.9606 101.175 66.1802 101.441 66.3657C101.713 66.5513 102.303 66.8265 103.213 67.1914C104.023 67.5192 104.617 67.8254 104.994 68.1099C105.371 68.3944 105.649 68.7222 105.829 69.0933C106.008 69.4644 106.098 69.9066 106.098 70.4199ZM110.217 69.0005V68.314C110.217 67.9985 110.248 67.714 110.31 67.4604C110.378 67.2007 110.477 66.9564 110.607 66.7275C110.743 66.4925 110.916 66.2668 111.126 66.0503C111.337 65.8276 111.59 65.5988 111.887 65.3638C112.147 65.1597 112.366 64.9772 112.546 64.8164C112.725 64.6556 112.87 64.4979 112.982 64.3433C113.093 64.1825 113.173 64.0155 113.223 63.8423C113.272 63.6691 113.297 63.4681 113.297 63.2393C113.297 62.8867 113.177 62.596 112.935 62.3672C112.7 62.1383 112.338 62.0239 111.85 62.0239C111.423 62.0239 110.962 62.1136 110.468 62.293C109.979 62.4723 109.472 62.6919 108.946 62.9517L108 60.9014C108.266 60.7467 108.553 60.6014 108.863 60.4653C109.178 60.3231 109.503 60.1994 109.837 60.0942C110.177 59.9829 110.52 59.8963 110.866 59.8345C111.213 59.7726 111.553 59.7417 111.887 59.7417C112.518 59.7417 113.087 59.819 113.594 59.9736C114.101 60.1221 114.531 60.3416 114.884 60.6323C115.236 60.923 115.505 61.2756 115.691 61.6899C115.882 62.1043 115.978 62.5775 115.978 63.1094C115.978 63.499 115.935 63.8485 115.848 64.1577C115.762 64.4608 115.632 64.7453 115.459 65.0112C115.292 65.271 115.078 65.5246 114.819 65.772C114.565 66.0132 114.268 66.2699 113.928 66.542C113.668 66.7461 113.455 66.9255 113.288 67.0801C113.127 67.2285 113 67.3708 112.907 67.5068C112.815 67.6429 112.75 67.7852 112.713 67.9336C112.682 68.0758 112.666 68.2459 112.666 68.4438V69.0005H110.217ZM109.911 72.1733C109.911 71.8826 109.951 71.6383 110.031 71.4404C110.118 71.2363 110.236 71.0724 110.384 70.9487C110.532 70.825 110.706 70.7354 110.904 70.6797C111.108 70.624 111.324 70.5962 111.553 70.5962C111.769 70.5962 111.974 70.624 112.165 70.6797C112.363 70.7354 112.536 70.825 112.685 70.9487C112.833 71.0724 112.951 71.2363 113.037 71.4404C113.124 71.6383 113.167 71.8826 113.167 72.1733C113.167 72.4517 113.124 72.6898 113.037 72.8877C112.951 73.0856 112.833 73.2495 112.685 73.3794C112.536 73.5093 112.363 73.6021 112.165 73.6577C111.974 73.7196 111.769 73.7505 111.553 73.7505C111.324 73.7505 111.108 73.7196 110.904 73.6577C110.706 73.6021 110.532 73.5093 110.384 73.3794C110.236 73.2495 110.118 73.0856 110.031 72.8877C109.951 72.6898 109.911 72.4517 109.911 72.1733Z"></path>
<path stroke-linejoin="round" stroke-miterlimit="10" stroke="#0B233F" fill="#F3F5F8" d="M309 15.667C309 7.56699 315.567 1 323.667 1H536.333C544.433 1 551 7.56699 551 15.667V74.333C551 82.433 544.433 89 536.333 89H323.667C315.567 89 309 82.433 309 74.333V15.667Z" clip-rule="evenodd" fill-rule="evenodd"></path>
<path fill="#0B233F" d="M330.033 29.2446C328.573 29.2446 327.426 29.7332 326.591 30.7104C325.756 31.6877 325.338 33.0236 325.338 34.7183C325.338 36.4686 325.743 37.82 326.554 38.7725C327.364 39.7188 328.517 40.1919 330.014 40.1919C330.979 40.1919 332.064 40.0125 333.271 39.6538V41.1382C332.695 41.3485 332.142 41.4907 331.61 41.5649C331.078 41.6453 330.466 41.6855 329.773 41.6855C327.775 41.6855 326.235 41.0794 325.153 39.8672C324.077 38.6488 323.539 36.9263 323.539 34.6997C323.539 33.3019 323.795 32.0773 324.309 31.0259C324.828 29.9744 325.58 29.1642 326.563 28.5952C327.553 28.0262 328.715 27.7417 330.051 27.7417C331.486 27.7417 332.736 28.0076 333.799 28.5396L333.113 29.9868C332.03 29.492 331.004 29.2446 330.033 29.2446ZM340.748 31.1279C341.2 31.1279 341.598 31.165 341.945 31.2393L341.741 32.7793C341.363 32.6927 340.995 32.6494 340.637 32.6494C340.099 32.6494 339.598 32.7979 339.134 33.0947C338.676 33.3916 338.317 33.8029 338.058 34.3286C337.798 34.8481 337.668 35.4264 337.668 36.0635V41.5H335.998V31.3135H337.371L337.557 33.1782H337.631C338.021 32.5041 338.481 31.9938 339.013 31.6475C339.545 31.3011 340.123 31.1279 340.748 31.1279ZM347.994 41.6855C346.466 41.6855 345.266 41.2248 344.394 40.3032C343.528 39.3755 343.095 38.1014 343.095 36.481C343.095 34.8481 343.5 33.5493 344.311 32.5845C345.121 31.6134 346.215 31.1279 347.595 31.1279C348.875 31.1279 349.896 31.5423 350.656 32.3711C351.417 33.1937 351.797 34.3101 351.797 35.7202V36.7314H344.821C344.852 37.888 345.146 38.7663 345.702 39.3662C346.259 39.9661 347.047 40.2661 348.068 40.2661C348.612 40.2661 349.129 40.2197 349.617 40.127C350.106 40.028 350.678 39.8394 351.333 39.561V41.0269C350.771 41.2681 350.242 41.4382 349.747 41.5371C349.252 41.6361 348.668 41.6855 347.994 41.6855ZM347.576 32.4917C346.778 32.4917 346.147 32.7484 345.684 33.2617C345.22 33.7751 344.944 34.4894 344.858 35.4048H350.044C350.032 34.4523 349.812 33.7287 349.385 33.2339C348.958 32.7391 348.355 32.4917 347.576 32.4917ZM360.676 41.5L360.351 40.0527H360.277C359.77 40.6898 359.263 41.1227 358.755 41.3516C358.254 41.5742 357.62 41.6855 356.854 41.6855C355.852 41.6855 355.066 41.4227 354.497 40.897C353.928 40.3713 353.644 39.6291 353.644 38.6704C353.644 36.6047 355.273 35.5223 358.533 35.4233L360.258 35.3584V34.7554C360.258 33.9823 360.091 33.4132 359.757 33.0483C359.423 32.6772 358.888 32.4917 358.152 32.4917C357.614 32.4917 357.104 32.5721 356.622 32.7329C356.145 32.8937 355.697 33.0731 355.276 33.271L354.766 32.0186C355.279 31.7464 355.839 31.533 356.445 31.3784C357.051 31.2238 357.651 31.1465 358.245 31.1465C359.476 31.1465 360.391 31.4186 360.991 31.9629C361.591 32.5072 361.891 33.373 361.891 34.5605V41.5H360.676ZM357.234 40.3403C358.168 40.3403 358.901 40.0898 359.433 39.5889C359.971 39.0817 360.24 38.3643 360.24 37.4365V36.5181L358.737 36.583C357.568 36.6263 356.714 36.8118 356.176 37.1396C355.644 37.4674 355.378 37.9839 355.378 38.689C355.378 39.2209 355.539 39.6291 355.861 39.9136C356.189 40.1981 356.646 40.3403 357.234 40.3403ZM368.459 40.3218C368.676 40.3218 368.93 40.3001 369.22 40.2568C369.511 40.2135 369.73 40.1641 369.879 40.1084V41.3887C369.724 41.4567 369.483 41.5216 369.155 41.5835C368.834 41.6515 368.506 41.6855 368.172 41.6855C366.18 41.6855 365.185 40.6372 365.185 38.5405V32.6123H363.747V31.8145L365.203 31.1465L365.871 28.9756H366.864V31.3135H369.805V32.6123H366.864V38.4941C366.864 39.0817 367.003 39.5332 367.281 39.8486C367.566 40.1641 367.958 40.3218 368.459 40.3218ZM376.252 41.6855C374.725 41.6855 373.525 41.2248 372.653 40.3032C371.787 39.3755 371.354 38.1014 371.354 36.481C371.354 34.8481 371.759 33.5493 372.569 32.5845C373.38 31.6134 374.474 31.1279 375.854 31.1279C377.134 31.1279 378.154 31.5423 378.915 32.3711C379.676 33.1937 380.056 34.3101 380.056 35.7202V36.7314H373.08C373.111 37.888 373.404 38.7663 373.961 39.3662C374.518 39.9661 375.306 40.2661 376.327 40.2661C376.871 40.2661 377.387 40.2197 377.876 40.127C378.365 40.028 378.937 39.8394 379.592 39.561V41.0269C379.029 41.2681 378.501 41.4382 378.006 41.5371C377.511 41.6361 376.927 41.6855 376.252 41.6855ZM375.835 32.4917C375.037 32.4917 374.406 32.7484 373.942 33.2617C373.479 33.7751 373.203 34.4894 373.117 35.4048H378.303C378.29 34.4523 378.071 33.7287 377.644 33.2339C377.217 32.7391 376.614 32.4917 375.835 32.4917ZM393.796 41.5L389.324 29.6064H389.25C389.343 30.596 389.389 31.8175 389.389 33.271V41.5H387.812V27.9365H390.335L394.52 39.0508H394.594L398.852 27.9365H401.357V41.5H399.668V33.1597C399.668 32.2319 399.712 31.0537 399.798 29.625H399.724L395.197 41.5H393.796ZM416.887 34.6997C416.887 36.8706 416.337 38.5776 415.236 39.8208C414.141 41.064 412.607 41.6855 410.634 41.6855C408.637 41.6855 407.09 41.0763 405.996 39.8579C404.907 38.6333 404.363 36.9077 404.363 34.6812C404.363 32.4731 404.904 30.763 405.986 29.5508C407.075 28.3324 408.63 27.7231 410.653 27.7231C412.62 27.7231 414.15 28.3416 415.245 29.5786C416.34 30.8094 416.887 32.5164 416.887 34.6997ZM406.163 34.6997C406.163 36.4933 406.543 37.8602 407.304 38.8003C408.064 39.7404 409.175 40.2104 410.634 40.2104C412.088 40.2104 413.192 39.7466 413.946 38.8188C414.701 37.8911 415.078 36.5181 415.078 34.6997C415.078 32.8875 414.704 31.5238 413.956 30.6084C413.207 29.6868 412.106 29.2261 410.653 29.2261C409.181 29.2261 408.064 29.693 407.304 30.627C406.543 31.5547 406.163 32.9123 406.163 34.6997ZM427.473 41.5H419.893V27.9365H427.473V29.4395H421.6V33.6699H427.129V35.1543H421.6V39.9971H427.473V41.5ZM435.405 41.5V27.9365H437.112V39.9785H443.04V41.5H435.405ZM446.807 41.5H445.137V31.3135H446.807V41.5ZM445.007 28.5581C445.007 28.187 445.1 27.918 445.285 27.751C445.477 27.584 445.712 27.5005 445.99 27.5005C446.25 27.5005 446.476 27.584 446.667 27.751C446.865 27.918 446.964 28.187 446.964 28.5581C446.964 28.923 446.865 29.1921 446.667 29.3652C446.476 29.5384 446.25 29.625 445.99 29.625C445.712 29.625 445.477 29.5384 445.285 29.3652C445.1 29.1921 445.007 28.923 445.007 28.5581ZM454.859 31.1465C456.201 31.1465 457.237 31.6104 457.967 32.5381C458.697 33.4596 459.062 34.7492 459.062 36.4067C459.062 38.089 458.691 39.391 457.949 40.3125C457.207 41.2279 456.177 41.6855 454.859 41.6855C454.173 41.6855 453.561 41.5618 453.022 41.3145C452.484 41.0671 452.045 40.6991 451.705 40.2104H451.575C451.383 40.9526 451.269 41.3825 451.232 41.5H450.035V27.0645H451.705V30.5713C451.705 31.2702 451.674 31.9691 451.612 32.668H451.705C452.392 31.6536 453.443 31.1465 454.859 31.1465ZM454.581 32.5288C453.554 32.5288 452.818 32.8195 452.373 33.4009C451.928 33.9823 451.705 34.9657 451.705 36.3511V36.4253C451.705 37.8169 451.931 38.8127 452.382 39.4126C452.84 40.0063 453.585 40.3032 454.618 40.3032C455.534 40.3032 456.214 39.9692 456.659 39.3013C457.111 38.6271 457.336 37.6561 457.336 36.3882C457.336 35.1017 457.111 34.1369 456.659 33.4937C456.208 32.8504 455.515 32.5288 454.581 32.5288ZM466.475 31.1279C466.926 31.1279 467.325 31.165 467.671 31.2393L467.467 32.7793C467.09 32.6927 466.722 32.6494 466.363 32.6494C465.825 32.6494 465.324 32.7979 464.86 33.0947C464.403 33.3916 464.044 33.8029 463.784 34.3286C463.524 34.8481 463.395 35.4264 463.395 36.0635V41.5H461.725V31.3135H463.098L463.283 33.1782H463.357C463.747 32.5041 464.208 31.9938 464.74 31.6475C465.272 31.3011 465.85 31.1279 466.475 31.1279ZM475.678 41.5L475.353 40.0527H475.279C474.772 40.6898 474.264 41.1227 473.757 41.3516C473.256 41.5742 472.622 41.6855 471.855 41.6855C470.854 41.6855 470.068 41.4227 469.499 40.897C468.93 40.3713 468.646 39.6291 468.646 38.6704C468.646 36.6047 470.275 35.5223 473.535 35.4233L475.26 35.3584V34.7554C475.26 33.9823 475.093 33.4132 474.759 33.0483C474.425 32.6772 473.89 32.4917 473.154 32.4917C472.616 32.4917 472.106 32.5721 471.624 32.7329C471.147 32.8937 470.699 33.0731 470.278 33.271L469.768 32.0186C470.281 31.7464 470.841 31.533 471.447 31.3784C472.053 31.2238 472.653 31.1465 473.247 31.1465C474.478 31.1465 475.393 31.4186 475.993 31.9629C476.593 32.5072 476.893 33.373 476.893 34.5605V41.5H475.678ZM472.236 40.3403C473.17 40.3403 473.903 40.0898 474.435 39.5889C474.973 39.0817 475.242 38.3643 475.242 37.4365V36.5181L473.739 36.583C472.57 36.6263 471.716 36.8118 471.178 37.1396C470.646 37.4674 470.38 37.9839 470.38 38.689C470.38 39.2209 470.541 39.6291 470.863 39.9136C471.191 40.1981 471.648 40.3403 472.236 40.3403ZM484.807 31.1279C485.258 31.1279 485.657 31.165 486.003 31.2393L485.799 32.7793C485.422 32.6927 485.054 32.6494 484.695 32.6494C484.157 32.6494 483.656 32.7979 483.192 33.0947C482.735 33.3916 482.376 33.8029 482.116 34.3286C481.856 34.8481 481.727 35.4264 481.727 36.0635V41.5H480.057V31.3135H481.43L481.615 33.1782H481.689C482.079 32.5041 482.54 31.9938 483.072 31.6475C483.604 31.3011 484.182 31.1279 484.807 31.1279ZM486.31 31.3135H488.1L490.299 37.1118C490.763 38.3735 491.047 39.2982 491.152 39.8857H491.227C491.282 39.6569 491.409 39.2301 491.607 38.6055C491.805 37.9746 491.972 37.4705 492.108 37.0933L494.177 31.3135H495.977L491.588 42.9102C491.162 44.0358 490.654 44.8429 490.067 45.3315C489.479 45.8201 488.753 46.0645 487.887 46.0645C487.423 46.0645 486.962 46.0119 486.504 45.9067V44.5801C486.814 44.6543 487.185 44.6914 487.618 44.6914C488.15 44.6914 488.601 44.543 488.972 44.2461C489.343 43.9554 489.646 43.5039 489.881 42.8916L490.41 41.5371L486.31 31.3135Z"></path>
<path fill="#0B233F" d="M325.932 56.4492H327.964C329.065 56.4492 329.869 56.2327 330.376 55.7998C330.883 55.3669 331.137 54.7236 331.137 53.8701C331.137 53.0166 330.88 52.395 330.367 52.0054C329.853 51.6095 329.021 51.4116 327.871 51.4116H325.932V56.4492ZM325.932 57.8965V63.5H324.225V49.9365H327.964C329.646 49.9365 330.889 50.2581 331.693 50.9014C332.504 51.5384 332.909 52.5002 332.909 53.7866C332.909 55.5864 332.003 56.7987 330.19 57.4233L333.911 63.5H331.916L328.632 57.8965H325.932ZM340.145 63.6855C338.617 63.6855 337.417 63.2248 336.545 62.3032C335.68 61.3755 335.247 60.1014 335.247 58.481C335.247 56.8481 335.652 55.5493 336.462 54.5845C337.272 53.6134 338.367 53.1279 339.746 53.1279C341.026 53.1279 342.047 53.5423 342.808 54.3711C343.568 55.1937 343.949 56.3101 343.949 57.7202V58.7314H336.972C337.003 59.888 337.297 60.7663 337.854 61.3662C338.41 61.9661 339.199 62.2661 340.219 62.2661C340.764 62.2661 341.28 62.2197 341.769 62.127C342.257 62.028 342.829 61.8394 343.485 61.561V63.0269C342.922 63.2681 342.393 63.4382 341.898 63.5371C341.404 63.6361 340.819 63.6855 340.145 63.6855ZM339.728 54.4917C338.93 54.4917 338.299 54.7484 337.835 55.2617C337.371 55.7751 337.096 56.4894 337.009 57.4048H342.195C342.183 56.4523 341.963 55.7287 341.537 55.2339C341.11 54.7391 340.507 54.4917 339.728 54.4917ZM353.17 60.689C353.17 61.6414 352.815 62.3805 352.104 62.9062C351.392 63.4258 350.393 63.6855 349.107 63.6855C347.765 63.6855 346.698 63.4722 345.906 63.0454V61.5239C347.026 62.0682 348.105 62.3403 349.144 62.3403C349.985 62.3403 350.597 62.2043 350.981 61.9321C351.364 61.66 351.556 61.2951 351.556 60.8374C351.556 60.4354 351.371 60.0952 351 59.8169C350.635 59.5386 349.982 59.2201 349.042 58.8613C348.083 58.4902 347.409 58.1748 347.02 57.915C346.63 57.6491 346.342 57.3522 346.157 57.0244C345.977 56.6966 345.888 56.2977 345.888 55.8276C345.888 54.9927 346.228 54.334 346.908 53.8516C347.589 53.3691 348.522 53.1279 349.71 53.1279C350.867 53.1279 351.949 53.3568 352.957 53.8145L352.391 55.1411C351.358 54.7082 350.427 54.4917 349.599 54.4917C348.906 54.4917 348.38 54.603 348.021 54.8257C347.663 55.0422 347.483 55.3421 347.483 55.7256C347.483 56.0967 347.638 56.4059 347.947 56.6533C348.257 56.8945 348.977 57.2316 350.109 57.6646C350.956 57.98 351.581 58.2738 351.983 58.5459C352.391 58.818 352.691 59.1242 352.883 59.4644C353.075 59.8045 353.17 60.2127 353.17 60.689ZM364.498 58.3882C364.498 60.0519 364.077 61.3507 363.236 62.2847C362.395 63.2186 361.232 63.6855 359.748 63.6855C358.826 63.6855 358.01 63.4722 357.299 63.0454C356.588 62.6125 356.04 61.994 355.657 61.1899C355.273 60.3859 355.082 59.452 355.082 58.3882C355.082 56.7306 355.496 55.4411 356.325 54.5195C357.153 53.5918 358.316 53.1279 359.813 53.1279C361.248 53.1279 362.386 53.6011 363.227 54.5474C364.074 55.4875 364.498 56.7677 364.498 58.3882ZM356.807 58.3882C356.807 59.6685 357.058 60.6426 357.559 61.3105C358.066 61.9723 358.811 62.3032 359.794 62.3032C360.765 62.3032 361.505 61.9723 362.012 61.3105C362.519 60.6426 362.772 59.6685 362.772 58.3882C362.772 57.1079 362.516 56.1462 362.002 55.5029C361.495 54.8535 360.75 54.5288 359.767 54.5288C357.794 54.5288 356.807 55.8153 356.807 58.3882ZM368.729 53.3135V59.8726C368.729 60.6951 368.911 61.3075 369.276 61.7095C369.647 62.1053 370.219 62.3032 370.992 62.3032C372.037 62.3032 372.798 62.0125 373.274 61.4312C373.751 60.8498 373.989 59.9128 373.989 58.6201V53.3135H375.668V63.5H374.295L374.054 62.1548H373.97C373.667 62.6434 373.237 63.0207 372.681 63.2866C372.124 63.5526 371.478 63.6855 370.742 63.6855C369.517 63.6855 368.592 63.3918 367.968 62.8042C367.349 62.2166 367.04 61.2765 367.04 59.9839V53.3135H368.729ZM383.646 53.1279C384.098 53.1279 384.497 53.165 384.843 53.2393L384.639 54.7793C384.262 54.6927 383.894 54.6494 383.535 54.6494C382.997 54.6494 382.496 54.7979 382.032 55.0947C381.575 55.3916 381.216 55.8029 380.956 56.3286C380.696 56.8481 380.566 57.4264 380.566 58.0635V63.5H378.896V53.3135H380.27L380.455 55.1782H380.529C380.919 54.5041 381.38 53.9938 381.912 53.6475C382.444 53.3011 383.022 53.1279 383.646 53.1279ZM390.642 63.6855C389.176 63.6855 388.035 63.2371 387.218 62.3403C386.402 61.4373 385.994 60.1447 385.994 58.4624C385.994 56.7554 386.405 55.4411 387.228 54.5195C388.056 53.5918 389.235 53.1279 390.762 53.1279C391.257 53.1279 391.746 53.1805 392.228 53.2856C392.717 53.3846 393.119 53.5145 393.434 53.6753L392.924 55.0669C392.064 54.7453 391.331 54.5845 390.725 54.5845C389.698 54.5845 388.941 54.9092 388.452 55.5586C387.964 56.2018 387.719 57.1636 387.719 58.4438C387.719 59.6746 387.964 60.6178 388.452 61.2734C388.941 61.9229 389.664 62.2476 390.623 62.2476C391.52 62.2476 392.401 62.0496 393.267 61.6538V63.1382C392.562 63.5031 391.687 63.6855 390.642 63.6855ZM400.021 63.6855C398.493 63.6855 397.293 63.2248 396.421 62.3032C395.556 61.3755 395.123 60.1014 395.123 58.481C395.123 56.8481 395.528 55.5493 396.338 54.5845C397.148 53.6134 398.243 53.1279 399.622 53.1279C400.902 53.1279 401.923 53.5423 402.684 54.3711C403.444 55.1937 403.825 56.3101 403.825 57.7202V58.7314H396.848C396.879 59.888 397.173 60.7663 397.729 61.3662C398.286 61.9661 399.075 62.2661 400.095 62.2661C400.639 62.2661 401.156 62.2197 401.645 62.127C402.133 62.028 402.705 61.8394 403.361 61.561V63.0269C402.798 63.2681 402.269 63.4382 401.774 63.5371C401.28 63.6361 400.695 63.6855 400.021 63.6855ZM399.604 54.4917C398.806 54.4917 398.175 54.7484 397.711 55.2617C397.247 55.7751 396.972 56.4894 396.885 57.4048H402.071C402.059 56.4523 401.839 55.7287 401.413 55.2339C400.986 54.7391 400.383 54.4917 399.604 54.4917ZM413.046 60.689C413.046 61.6414 412.691 62.3805 411.979 62.9062C411.268 63.4258 410.269 63.6855 408.983 63.6855C407.641 63.6855 406.574 63.4722 405.782 63.0454V61.5239C406.902 62.0682 407.981 62.3403 409.02 62.3403C409.861 62.3403 410.473 62.2043 410.857 61.9321C411.24 61.66 411.432 61.2951 411.432 60.8374C411.432 60.4354 411.247 60.0952 410.875 59.8169C410.511 59.5386 409.858 59.2201 408.918 58.8613C407.959 58.4902 407.285 58.1748 406.896 57.915C406.506 57.6491 406.218 57.3522 406.033 57.0244C405.853 56.6966 405.764 56.2977 405.764 55.8276C405.764 54.9927 406.104 54.334 406.784 53.8516C407.465 53.3691 408.398 53.1279 409.586 53.1279C410.743 53.1279 411.825 53.3568 412.833 53.8145L412.267 55.1411C411.234 54.7082 410.303 54.4917 409.475 54.4917C408.782 54.4917 408.256 54.603 407.897 54.8257C407.539 55.0422 407.359 55.3421 407.359 55.7256C407.359 56.0967 407.514 56.4059 407.823 56.6533C408.132 56.8945 408.853 57.2316 409.985 57.6646C410.832 57.98 411.457 58.2738 411.859 58.5459C412.267 58.818 412.567 59.1242 412.759 59.4644C412.951 59.8045 413.046 60.2127 413.046 60.689Z"></path>
<path fill="#E96969" d="M242.5 43.4995H275.366C275.918 43.4995 276.366 43.9475 276.366 44.4995V44.5625L275.366 43.5625H301.566V45.5625H275.366C274.814 45.5625 274.366 45.1145 274.366 44.5625V44.4995L275.366 45.4995H242.5V43.4995ZM300.232 40.5625L308.232 44.5625L300.232 48.5625V40.5625Z"></path>
<path stroke-linejoin="round" stroke-miterlimit="10" stroke="#0B233F" fill="#F3F5F8" d="M617 15.667C617 7.56699 623.567 1 631.667 1H844.333C852.433 1 859 7.56699 859 15.667V74.333C859 82.433 852.433 89 844.333 89H631.667C623.567 89 617 82.433 617 74.333V15.667Z" clip-rule="evenodd" fill-rule="evenodd"></path>
<path fill="#0B233F" d="M638.02 52.5L633.548 40.6064H633.474C633.567 41.596 633.613 42.8175 633.613 44.271V52.5H632.036V38.9365H634.56L638.744 50.0508H638.818L643.076 38.9365H645.581V52.5H643.893V44.1597C643.893 43.2319 643.936 42.0537 644.022 40.625H643.948L639.421 52.5H638.02ZM655.332 52.5L655.007 51.0527H654.933C654.425 51.6898 653.918 52.1227 653.411 52.3516C652.91 52.5742 652.276 52.6855 651.509 52.6855C650.507 52.6855 649.722 52.4227 649.153 51.897C648.584 51.3713 648.299 50.6291 648.299 49.6704C648.299 47.6047 649.929 46.5223 653.188 46.4233L654.914 46.3584V45.7554C654.914 44.9823 654.747 44.4132 654.413 44.0483C654.079 43.6772 653.544 43.4917 652.808 43.4917C652.27 43.4917 651.76 43.5721 651.277 43.7329C650.801 43.8937 650.353 44.0731 649.932 44.271L649.422 43.0186C649.935 42.7464 650.495 42.533 651.101 42.3784C651.707 42.2238 652.307 42.1465 652.901 42.1465C654.132 42.1465 655.047 42.4186 655.647 42.9629C656.247 43.5072 656.547 44.373 656.547 45.5605V52.5H655.332ZM651.89 51.3403C652.824 51.3403 653.556 51.0898 654.088 50.5889C654.626 50.0817 654.896 49.3643 654.896 48.4365V47.5181L653.393 47.583C652.224 47.6263 651.37 47.8118 650.832 48.1396C650.3 48.4674 650.034 48.9839 650.034 49.689C650.034 50.2209 650.195 50.6291 650.517 50.9136C650.844 51.1981 651.302 51.3403 651.89 51.3403ZM666.65 52.5V45.9873C666.65 45.1585 666.464 44.5431 666.093 44.1411C665.728 43.7329 665.153 43.5288 664.368 43.5288C663.322 43.5288 662.562 43.8195 662.085 44.4009C661.615 44.9761 661.38 45.9162 661.38 47.2212V52.5H659.71V42.3135H661.056L661.306 43.7051H661.399C661.714 43.2041 662.157 42.8175 662.726 42.5454C663.295 42.2671 663.922 42.1279 664.609 42.1279C665.858 42.1279 666.786 42.431 667.392 43.0371C667.998 43.6432 668.301 44.5864 668.301 45.8667V52.5H666.65ZM677.746 52.5L677.421 51.0527H677.347C676.84 51.6898 676.332 52.1227 675.825 52.3516C675.324 52.5742 674.69 52.6855 673.923 52.6855C672.921 52.6855 672.136 52.4227 671.567 51.897C670.998 51.3713 670.713 50.6291 670.713 49.6704C670.713 47.6047 672.343 46.5223 675.603 46.4233L677.328 46.3584V45.7554C677.328 44.9823 677.161 44.4132 676.827 44.0483C676.493 43.6772 675.958 43.4917 675.222 43.4917C674.684 43.4917 674.174 43.5721 673.691 43.7329C673.215 43.8937 672.767 44.0731 672.346 44.271L671.836 43.0186C672.349 42.7464 672.909 42.533 673.515 42.3784C674.121 42.2238 674.721 42.1465 675.315 42.1465C676.546 42.1465 677.461 42.4186 678.061 42.9629C678.661 43.5072 678.961 44.373 678.961 45.5605V52.5H677.746ZM674.304 51.3403C675.238 51.3403 675.971 51.0898 676.502 50.5889C677.041 50.0817 677.31 49.3643 677.31 48.4365V47.5181L675.807 47.583C674.638 47.6263 673.784 47.8118 673.246 48.1396C672.714 48.4674 672.448 48.9839 672.448 49.689C672.448 50.2209 672.609 50.6291 672.931 50.9136C673.258 51.1981 673.716 51.3403 674.304 51.3403ZM686.002 51.3218C687.029 51.3218 687.774 51.0465 688.238 50.4961C688.708 49.9395 688.943 49.0488 688.943 47.8242V47.4253C688.943 46.0646 688.708 45.075 688.238 44.4565C687.768 43.8381 687.011 43.5288 685.965 43.5288C685.112 43.5288 684.45 43.869 683.98 44.5493C683.516 45.2235 683.284 46.1883 683.284 47.4438C683.284 48.7056 683.51 49.6673 683.961 50.3291C684.419 50.9909 685.099 51.3218 686.002 51.3218ZM688.925 52.4072L688.98 51.1548H688.906C688.22 52.1753 687.168 52.6855 685.752 52.6855C684.435 52.6855 683.405 52.2279 682.663 51.3125C681.927 50.391 681.559 49.0952 681.559 47.4253C681.559 45.7863 681.93 44.4937 682.672 43.5474C683.42 42.6011 684.441 42.1279 685.733 42.1279C687.113 42.1279 688.176 42.6413 688.925 43.668H689.027L689.25 42.3135H690.576V52.667C690.576 54.1266 690.205 55.2244 689.463 55.9604C688.727 56.6965 687.58 57.0645 686.021 57.0645C684.537 57.0645 683.315 56.848 682.356 56.415V54.875C683.346 55.4069 684.598 55.6729 686.114 55.6729C686.98 55.6729 687.663 55.4193 688.164 54.9121C688.671 54.4049 688.925 53.703 688.925 52.8062V52.4072ZM698.146 52.6855C696.619 52.6855 695.419 52.2248 694.547 51.3032C693.681 50.3755 693.248 49.1014 693.248 47.481C693.248 45.8481 693.653 44.5493 694.463 43.5845C695.274 42.6134 696.368 42.1279 697.748 42.1279C699.028 42.1279 700.048 42.5423 700.809 43.3711C701.57 44.1937 701.95 45.3101 701.95 46.7202V47.7314H694.974C695.005 48.888 695.298 49.7663 695.855 50.3662C696.412 50.9661 697.2 51.2661 698.221 51.2661C698.765 51.2661 699.281 51.2197 699.77 51.127C700.259 51.028 700.831 50.8394 701.486 50.561V52.0269C700.924 52.2681 700.395 52.4382 699.9 52.5371C699.405 52.6361 698.821 52.6855 698.146 52.6855ZM697.729 43.4917C696.931 43.4917 696.3 43.7484 695.836 44.2617C695.373 44.7751 695.097 45.4894 695.011 46.4048H700.197C700.184 45.4523 699.965 44.7287 699.538 44.2339C699.111 43.7391 698.508 43.4917 697.729 43.4917ZM715.69 52.5L711.218 40.6064H711.144C711.237 41.596 711.283 42.8175 711.283 44.271V52.5H709.706V38.9365H712.229L716.414 50.0508H716.488L720.746 38.9365H723.251V52.5H721.562V44.1597C721.562 43.2319 721.606 42.0537 721.692 40.625H721.618L717.091 52.5H715.69ZM735.562 47.3882C735.562 49.0519 735.141 50.3507 734.3 51.2847C733.459 52.2186 732.296 52.6855 730.812 52.6855C729.89 52.6855 729.074 52.4722 728.363 52.0454C727.652 51.6125 727.104 50.994 726.721 50.1899C726.337 49.3859 726.146 48.452 726.146 47.3882C726.146 45.7306 726.56 44.4411 727.389 43.5195C728.217 42.5918 729.38 42.1279 730.877 42.1279C732.312 42.1279 733.45 42.6011 734.291 43.5474C735.138 44.4875 735.562 45.7677 735.562 47.3882ZM727.871 47.3882C727.871 48.6685 728.122 49.6426 728.623 50.3105C729.13 50.9723 729.875 51.3032 730.858 51.3032C731.829 51.3032 732.569 50.9723 733.076 50.3105C733.583 49.6426 733.836 48.6685 733.836 47.3882C733.836 46.1079 733.58 45.1462 733.066 44.5029C732.559 43.8535 731.814 43.5288 730.831 43.5288C728.858 43.5288 727.871 44.8153 727.871 47.3882ZM741.824 52.6855C740.501 52.6855 739.474 52.2279 738.744 51.3125C738.014 50.3971 737.649 49.1014 737.649 47.4253C737.649 45.7616 738.014 44.4627 738.744 43.5288C739.48 42.5949 740.513 42.1279 741.843 42.1279C743.21 42.1279 744.261 42.6289 744.997 43.6309H745.118C745.099 43.5072 745.074 43.2598 745.043 42.8887C745.013 42.5114 744.997 42.2578 744.997 42.1279V38.0645H746.667V52.5H745.322L745.071 51.1362H744.997C744.286 52.1691 743.228 52.6855 741.824 52.6855ZM742.093 51.3032C743.108 51.3032 743.847 51.028 744.311 50.4775C744.781 49.9209 745.016 49.0117 745.016 47.75V47.4438C745.016 46.0275 744.778 45.0194 744.301 44.4194C743.831 43.8133 743.089 43.5103 742.075 43.5103C741.215 43.5103 740.55 43.8535 740.08 44.54C739.61 45.2204 739.375 46.1945 739.375 47.4624C739.375 48.7241 739.607 49.6797 740.071 50.3291C740.541 50.9785 741.215 51.3032 742.093 51.3032ZM751.482 42.3135V48.8726C751.482 49.6951 751.664 50.3075 752.029 50.7095C752.4 51.1053 752.972 51.3032 753.746 51.3032C754.791 51.3032 755.552 51.0125 756.028 50.4312C756.504 49.8498 756.742 48.9128 756.742 47.6201V42.3135H758.421V52.5H757.048L756.807 51.1548H756.724C756.421 51.6434 755.991 52.0207 755.434 52.2866C754.877 52.5526 754.231 52.6855 753.495 52.6855C752.271 52.6855 751.346 52.3918 750.721 51.8042C750.103 51.2166 749.793 50.2765 749.793 48.9839V42.3135H751.482ZM763.32 52.5H761.65V38.0645H763.32V52.5ZM770.881 52.6855C769.353 52.6855 768.153 52.2248 767.281 51.3032C766.415 50.3755 765.982 49.1014 765.982 47.481C765.982 45.8481 766.388 44.5493 767.198 43.5845C768.008 42.6134 769.103 42.1279 770.482 42.1279C771.762 42.1279 772.783 42.5423 773.543 43.3711C774.304 44.1937 774.685 45.3101 774.685 46.7202V47.7314H767.708C767.739 48.888 768.033 49.7663 768.589 50.3662C769.146 50.9661 769.935 51.2661 770.955 51.2661C771.499 51.2661 772.016 51.2197 772.504 51.127C772.993 51.028 773.565 50.8394 774.221 50.561V52.0269C773.658 52.2681 773.129 52.4382 772.634 52.5371C772.139 52.6361 771.555 52.6855 770.881 52.6855ZM770.463 43.4917C769.666 43.4917 769.035 43.7484 768.571 44.2617C768.107 44.7751 767.832 45.4894 767.745 46.4048H772.931C772.919 45.4523 772.699 44.7287 772.272 44.2339C771.846 43.7391 771.243 43.4917 770.463 43.4917ZM783.906 49.689C783.906 50.6414 783.551 51.3805 782.839 51.9062C782.128 52.4258 781.129 52.6855 779.843 52.6855C778.501 52.6855 777.434 52.4722 776.642 52.0454V50.5239C777.762 51.0682 778.841 51.3403 779.88 51.3403C780.721 51.3403 781.333 51.2043 781.717 50.9321C782.1 50.66 782.292 50.2951 782.292 49.8374C782.292 49.4354 782.106 49.0952 781.735 48.8169C781.37 48.5386 780.718 48.2201 779.778 47.8613C778.819 47.4902 778.145 47.1748 777.755 46.915C777.366 46.6491 777.078 46.3522 776.893 46.0244C776.713 45.6966 776.624 45.2977 776.624 44.8276C776.624 43.9927 776.964 43.334 777.644 42.8516C778.324 42.3691 779.258 42.1279 780.446 42.1279C781.602 42.1279 782.685 42.3568 783.693 42.8145L783.127 44.1411C782.094 43.7082 781.163 43.4917 780.334 43.4917C779.642 43.4917 779.116 43.603 778.757 43.8257C778.399 44.0422 778.219 44.3421 778.219 44.7256C778.219 45.0967 778.374 45.4059 778.683 45.6533C778.992 45.8945 779.713 46.2316 780.845 46.6646C781.692 46.98 782.317 47.2738 782.719 47.5459C783.127 47.818 783.427 48.1242 783.619 48.4644C783.81 48.8045 783.906 49.2127 783.906 49.689Z"></path>
<path fill="#E96969" d="M550.5 43.4995H583.366C583.918 43.4995 584.366 43.9475 584.366 44.4995V44.5625L583.366 43.5625H609.566V45.5625H583.366C582.814 45.5625 582.366 45.1145 582.366 44.5625V44.4995L583.366 45.4995H550.5V43.4995ZM608.232 40.5625L616.232 44.5625L608.232 48.5625V40.5625Z"></path>
<path stroke-linejoin="round" stroke-miterlimit="10" stroke="#0B233F" fill="#F3F5F8" d="M925 15.667C925 7.56699 931.57 1 939.67 1H1152.33C1160.43 1 1167 7.56699 1167 15.667V74.333C1167 82.433 1160.43 89 1152.33 89H939.67C931.57 89 925 82.433 925 74.333V15.667Z" clip-rule="evenodd" fill-rule="evenodd"></path>
<path fill="#0B233F" d="M945.83 52.5L941.358 40.6064H941.284C941.377 41.596 941.423 42.8175 941.423 44.271V52.5H939.846V38.9365H942.37L946.554 50.0508H946.628L950.886 38.9365H953.391V52.5H951.703V44.1597C951.703 43.2319 951.746 42.0537 951.833 40.625H951.758L947.231 52.5H945.83ZM963.142 52.5L962.817 51.0527H962.743C962.236 51.6898 961.728 52.1227 961.221 52.3516C960.72 52.5742 960.086 52.6855 959.319 52.6855C958.317 52.6855 957.532 52.4227 956.963 51.897C956.394 51.3713 956.109 50.6291 956.109 49.6704C956.109 47.6047 957.739 46.5223 960.999 46.4233L962.724 46.3584V45.7554C962.724 44.9823 962.557 44.4132 962.223 44.0483C961.889 43.6772 961.354 43.4917 960.618 43.4917C960.08 43.4917 959.57 43.5721 959.087 43.7329C958.611 43.8937 958.163 44.0731 957.742 44.271L957.232 43.0186C957.745 42.7464 958.305 42.533 958.911 42.3784C959.517 42.2238 960.117 42.1465 960.711 42.1465C961.942 42.1465 962.857 42.4186 963.457 42.9629C964.057 43.5072 964.357 44.373 964.357 45.5605V52.5H963.142ZM959.7 51.3403C960.634 51.3403 961.367 51.0898 961.898 50.5889C962.437 50.0817 962.706 49.3643 962.706 48.4365V47.5181L961.203 47.583C960.034 47.6263 959.18 47.8118 958.642 48.1396C958.11 48.4674 957.844 48.9839 957.844 49.689C957.844 50.2209 958.005 50.6291 958.327 50.9136C958.654 51.1981 959.112 51.3403 959.7 51.3403ZM974.46 52.5V45.9873C974.46 45.1585 974.274 44.5431 973.903 44.1411C973.538 43.7329 972.963 43.5288 972.178 43.5288C971.132 43.5288 970.372 43.8195 969.896 44.4009C969.425 44.9761 969.19 45.9162 969.19 47.2212V52.5H967.521V42.3135H968.866L969.116 43.7051H969.209C969.524 43.2041 969.967 42.8175 970.536 42.5454C971.105 42.2671 971.732 42.1279 972.419 42.1279C973.668 42.1279 974.596 42.431 975.202 43.0371C975.808 43.6432 976.111 44.5864 976.111 45.8667V52.5H974.46ZM985.556 52.5L985.231 51.0527H985.157C984.65 51.6898 984.142 52.1227 983.635 52.3516C983.134 52.5742 982.5 52.6855 981.733 52.6855C980.731 52.6855 979.946 52.4227 979.377 51.897C978.808 51.3713 978.523 50.6291 978.523 49.6704C978.523 47.6047 980.153 46.5223 983.413 46.4233L985.138 46.3584V45.7554C985.138 44.9823 984.971 44.4132 984.637 44.0483C984.303 43.6772 983.768 43.4917 983.032 43.4917C982.494 43.4917 981.984 43.5721 981.501 43.7329C981.025 43.8937 980.577 44.0731 980.156 44.271L979.646 43.0186C980.159 42.7464 980.719 42.533 981.325 42.3784C981.931 42.2238 982.531 42.1465 983.125 42.1465C984.356 42.1465 985.271 42.4186 985.871 42.9629C986.471 43.5072 986.771 44.373 986.771 45.5605V52.5H985.556ZM982.114 51.3403C983.048 51.3403 983.781 51.0898 984.312 50.5889C984.851 50.0817 985.12 49.3643 985.12 48.4365V47.5181L983.617 47.583C982.448 47.6263 981.594 47.8118 981.056 48.1396C980.524 48.4674 980.258 48.9839 980.258 49.689C980.258 50.2209 980.419 50.6291 980.741 50.9136C981.069 51.1981 981.526 51.3403 982.114 51.3403ZM993.812 51.3218C994.839 51.3218 995.584 51.0465 996.048 50.4961C996.518 49.9395 996.753 49.0488 996.753 47.8242V47.4253C996.753 46.0646 996.518 45.075 996.048 44.4565C995.578 43.8381 994.821 43.5288 993.775 43.5288C992.922 43.5288 992.26 43.869 991.79 44.5493C991.326 45.2235 991.094 46.1883 991.094 47.4438C991.094 48.7056 991.32 49.6673 991.771 50.3291C992.229 50.9909 992.91 51.3218 993.812 51.3218ZM996.735 52.4072L996.791 51.1548H996.716C996.03 52.1753 994.978 52.6855 993.562 52.6855C992.245 52.6855 991.215 52.2279 990.473 51.3125C989.737 50.391 989.369 49.0952 989.369 47.4253C989.369 45.7863 989.74 44.4937 990.482 43.5474C991.23 42.6011 992.251 42.1279 993.543 42.1279C994.923 42.1279 995.986 42.6413 996.735 43.668H996.837L997.06 42.3135H998.386V52.667C998.386 54.1266 998.015 55.2244 997.273 55.9604C996.537 56.6965 995.39 57.0645 993.831 57.0645C992.347 57.0645 991.125 56.848 990.167 56.415V54.875C991.156 55.4069 992.409 55.6729 993.924 55.6729C994.79 55.6729 995.473 55.4193 995.974 54.9121C996.481 54.4049 996.735 53.703 996.735 52.8062V52.4072ZM1005.96 52.6855C1004.43 52.6855 1003.23 52.2248 1002.36 51.3032C1001.49 50.3755 1001.06 49.1014 1001.06 47.481C1001.06 45.8481 1001.46 44.5493 1002.27 43.5845C1003.08 42.6134 1004.18 42.1279 1005.56 42.1279C1006.84 42.1279 1007.86 42.5423 1008.62 43.3711C1009.38 44.1937 1009.76 45.3101 1009.76 46.7202V47.7314H1002.78C1002.81 48.888 1003.11 49.7663 1003.67 50.3662C1004.22 50.9661 1005.01 51.2661 1006.03 51.2661C1006.58 51.2661 1007.09 51.2197 1007.58 51.127C1008.07 51.028 1008.64 50.8394 1009.3 50.561V52.0269C1008.73 52.2681 1008.2 52.4382 1007.71 52.5371C1007.22 52.6361 1006.63 52.6855 1005.96 52.6855ZM1005.54 43.4917C1004.74 43.4917 1004.11 43.7484 1003.65 44.2617C1003.18 44.7751 1002.91 45.4894 1002.82 46.4048H1008.01C1007.99 45.4523 1007.77 44.7287 1007.35 44.2339C1006.92 43.7391 1006.32 43.4917 1005.54 43.4917ZM1023.5 52.5L1019.03 40.6064H1018.95C1019.05 41.596 1019.09 42.8175 1019.09 44.271V52.5H1017.52V38.9365H1020.04L1024.22 50.0508H1024.3L1028.56 38.9365H1031.06V52.5H1029.37V44.1597C1029.37 43.2319 1029.42 42.0537 1029.5 40.625H1029.43L1024.9 52.5H1023.5ZM1038.85 52.6855C1037.33 52.6855 1036.13 52.2248 1035.25 51.3032C1034.39 50.3755 1033.96 49.1014 1033.96 47.481C1033.96 45.8481 1034.36 44.5493 1035.17 43.5845C1035.98 42.6134 1037.08 42.1279 1038.46 42.1279C1039.74 42.1279 1040.76 42.5423 1041.52 43.3711C1042.28 44.1937 1042.66 45.3101 1042.66 46.7202V47.7314H1035.68C1035.71 48.888 1036.01 49.7663 1036.56 50.3662C1037.12 50.9661 1037.91 51.2661 1038.93 51.2661C1039.47 51.2661 1039.99 51.2197 1040.48 51.127C1040.97 51.028 1041.54 50.8394 1042.19 50.561V52.0269C1041.63 52.2681 1041.1 52.4382 1040.61 52.5371C1040.11 52.6361 1039.53 52.6855 1038.85 52.6855ZM1038.44 43.4917C1037.64 43.4917 1037.01 43.7484 1036.54 44.2617C1036.08 44.7751 1035.8 45.4894 1035.72 46.4048H1040.9C1040.89 45.4523 1040.67 44.7287 1040.25 44.2339C1039.82 43.7391 1039.22 43.4917 1038.44 43.4917ZM1048.85 52.6855C1047.53 52.6855 1046.5 52.2279 1045.77 51.3125C1045.05 50.3971 1044.68 49.1014 1044.68 47.4253C1044.68 45.7616 1045.05 44.4627 1045.77 43.5288C1046.51 42.5949 1047.54 42.1279 1048.87 42.1279C1050.24 42.1279 1051.29 42.6289 1052.03 43.6309H1052.15C1052.13 43.5072 1052.11 43.2598 1052.07 42.8887C1052.04 42.5114 1052.03 42.2578 1052.03 42.1279V38.0645H1053.7V52.5H1052.35L1052.1 51.1362H1052.03C1051.32 52.1691 1050.26 52.6855 1048.85 52.6855ZM1049.12 51.3032C1050.14 51.3032 1050.88 51.028 1051.34 50.4775C1051.81 49.9209 1052.05 49.0117 1052.05 47.75V47.4438C1052.05 46.0275 1051.81 45.0194 1051.33 44.4194C1050.86 43.8133 1050.12 43.5103 1049.11 43.5103C1048.25 43.5103 1047.58 43.8535 1047.11 44.54C1046.64 45.2204 1046.41 46.1945 1046.41 47.4624C1046.41 48.7241 1046.64 49.6797 1047.1 50.3291C1047.57 50.9785 1048.25 51.3032 1049.12 51.3032ZM1058.61 52.5H1056.94V42.3135H1058.61V52.5ZM1056.81 39.5581C1056.81 39.187 1056.9 38.918 1057.08 38.751C1057.28 38.584 1057.51 38.5005 1057.79 38.5005C1058.05 38.5005 1058.27 38.584 1058.47 38.751C1058.66 38.918 1058.76 39.187 1058.76 39.5581C1058.76 39.923 1058.66 40.1921 1058.47 40.3652C1058.27 40.5384 1058.05 40.625 1057.79 40.625C1057.51 40.625 1057.28 40.5384 1057.08 40.3652C1056.9 40.1921 1056.81 39.923 1056.81 39.5581ZM1068.12 52.5L1067.8 51.0527H1067.73C1067.22 51.6898 1066.71 52.1227 1066.2 52.3516C1065.7 52.5742 1065.07 52.6855 1064.3 52.6855C1063.3 52.6855 1062.51 52.4227 1061.95 51.897C1061.38 51.3713 1061.09 50.6291 1061.09 49.6704C1061.09 47.6047 1062.72 46.5223 1065.98 46.4233L1067.71 46.3584V45.7554C1067.71 44.9823 1067.54 44.4132 1067.21 44.0483C1066.87 43.6772 1066.34 43.4917 1065.6 43.4917C1065.06 43.4917 1064.55 43.5721 1064.07 43.7329C1063.59 43.8937 1063.15 44.0731 1062.72 44.271L1062.21 43.0186C1062.73 42.7464 1063.29 42.533 1063.89 42.3784C1064.5 42.2238 1065.1 42.1465 1065.69 42.1465C1066.92 42.1465 1067.84 42.4186 1068.44 42.9629C1069.04 43.5072 1069.34 44.373 1069.34 45.5605V52.5H1068.12ZM1064.68 51.3403C1065.62 51.3403 1066.35 51.0898 1066.88 50.5889C1067.42 50.0817 1067.69 49.3643 1067.69 48.4365V47.5181L1066.19 47.583C1065.02 47.6263 1064.16 47.8118 1063.62 48.1396C1063.09 48.4674 1062.83 48.9839 1062.83 49.689C1062.83 50.2209 1062.99 50.6291 1063.31 50.9136C1063.64 51.1981 1064.09 51.3403 1064.68 51.3403Z"></path>
<path fill="#E96969" d="M858.5 43.4995H891.366C891.918 43.4995 892.366 43.9475 892.366 44.4995V44.5625L891.366 43.5625H917.566V45.5625H891.366C890.814 45.5625 890.366 45.1145 890.366 44.5625V44.4995L891.366 45.4995H858.5V43.4995ZM916.232 40.5625L924.232 44.5625L916.232 48.5625V40.5625Z"></path>
</svg>
