<svg xmlns="http://www.w3.org/2000/svg" fill="none" viewBox="0 0 552 414" height="414" width="552">
<path stroke-linejoin="round" stroke-miterlimit="10" stroke="#0B233F" fill="#0B233F" d="M1 15.667C1 7.56699 7.5665 1 15.6668 1H228.333C236.433 1 243 7.56699 243 15.667V74.333C243 82.433 236.433 89 228.333 89H15.6668C7.5665 89 1 82.433 1 74.333V15.667Z" clip-rule="evenodd" fill-rule="evenodd"></path>
<path fill="white" d="M26.7654 41.5H23.6684V35.648H19.1464V41.5H16.0684V27.934H19.1464V33.254H23.6684V27.934H26.7654V41.5ZM38.6917 36.294C38.6917 37.1553 38.5777 37.9217 38.3497 38.593C38.1344 39.2643 37.8177 39.8343 37.3997 40.303C36.9817 40.759 36.4687 41.1073 35.8607 41.348C35.2654 41.576 34.5941 41.69 33.8467 41.69C33.1501 41.69 32.5041 41.576 31.9087 41.348C31.3134 41.1073 30.8004 40.759 30.3697 40.303C29.9517 39.8343 29.6224 39.2643 29.3817 38.593C29.1537 37.9217 29.0397 37.1553 29.0397 36.294C29.0397 35.1413 29.2361 34.1723 29.6287 33.387C30.0214 32.589 30.5787 31.981 31.3007 31.563C32.0227 31.145 32.8904 30.936 33.9037 30.936C34.8411 30.936 35.6644 31.145 36.3737 31.563C37.0957 31.981 37.6594 32.589 38.0647 33.387C38.4827 34.1723 38.6917 35.1413 38.6917 36.294ZM32.1367 36.294C32.1367 36.978 32.1937 37.5543 32.3077 38.023C32.4344 38.479 32.6244 38.8273 32.8777 39.068C33.1437 39.296 33.4794 39.41 33.8847 39.41C34.3027 39.41 34.6321 39.296 34.8727 39.068C35.1261 38.8273 35.3097 38.479 35.4237 38.023C35.5377 37.5543 35.5947 36.978 35.5947 36.294C35.5947 35.61 35.5377 35.04 35.4237 34.584C35.3097 34.128 35.1197 33.786 34.8537 33.558C34.6004 33.33 34.2711 33.216 33.8657 33.216C33.2451 33.216 32.8017 33.4757 32.5357 33.995C32.2697 34.5017 32.1367 35.268 32.1367 36.294ZM47.4752 36.028C47.4372 35.8127 47.3929 35.5973 47.3422 35.382C47.3042 35.154 47.2599 34.9323 47.2092 34.717C47.1712 34.5017 47.1396 34.2927 47.1142 34.09C47.0889 33.8747 47.0636 33.672 47.0382 33.482H46.9812C46.9686 33.672 46.9432 33.8747 46.9052 34.09C46.8799 34.3053 46.8482 34.527 46.8102 34.755C46.7722 34.9703 46.7279 35.192 46.6772 35.42C46.6392 35.648 46.5949 35.876 46.5442 36.104L45.3472 41.5H41.7942L39.3052 31.126H42.2692L43.2572 36.427C43.3206 36.7437 43.3776 37.0667 43.4282 37.396C43.4789 37.7127 43.5232 38.023 43.5612 38.327C43.6119 38.6183 43.6436 38.8843 43.6562 39.125H43.7322C43.7576 38.9477 43.7892 38.7323 43.8272 38.479C43.8652 38.2257 43.9032 37.9723 43.9412 37.719C43.9919 37.453 44.0362 37.2123 44.0742 36.997C44.1122 36.7817 44.1439 36.6233 44.1692 36.522L45.3662 31.126H48.6722L49.8312 36.503C49.8692 36.6803 49.9136 36.9337 49.9642 37.263C50.0149 37.5797 50.0592 37.909 50.0972 38.251C50.1479 38.593 50.1796 38.8843 50.1922 39.125H50.2492C50.2746 38.8843 50.3062 38.6183 50.3442 38.327C50.3949 38.0357 50.4456 37.7253 50.4962 37.396C50.5596 37.0667 50.6229 36.7437 50.6862 36.427L51.7882 31.126H54.6762L52.1112 41.5H48.5772L47.4752 36.028ZM65.2638 39.429C65.5678 39.429 65.8465 39.3973 66.0998 39.334C66.3658 39.2707 66.6382 39.1947 66.9168 39.106V41.215C66.6002 41.3417 66.2265 41.4493 65.7958 41.538C65.3778 41.6393 64.8838 41.69 64.3138 41.69C63.7058 41.69 63.1612 41.5887 62.6798 41.386C62.2112 41.1833 61.8438 40.835 61.5778 40.341C61.3118 39.8343 61.1788 39.1377 61.1788 38.251V33.254H59.9438V32.057L61.4258 31.107L62.2618 28.922H64.2188V31.126H66.8028V33.254H64.2188V38.251C64.2188 38.6437 64.3138 38.9413 64.5038 39.144C64.6938 39.334 64.9472 39.429 65.2638 39.429ZM77.9164 36.294C77.9164 37.1553 77.8024 37.9217 77.5744 38.593C77.359 39.2643 77.0424 39.8343 76.6244 40.303C76.2064 40.759 75.6934 41.1073 75.0854 41.348C74.49 41.576 73.8187 41.69 73.0714 41.69C72.3747 41.69 71.7287 41.576 71.1334 41.348C70.538 41.1073 70.025 40.759 69.5944 40.303C69.1764 39.8343 68.847 39.2643 68.6064 38.593C68.3784 37.9217 68.2644 37.1553 68.2644 36.294C68.2644 35.1413 68.4607 34.1723 68.8534 33.387C69.246 32.589 69.8034 31.981 70.5254 31.563C71.2474 31.145 72.115 30.936 73.1284 30.936C74.0657 30.936 74.889 31.145 75.5984 31.563C76.3204 31.981 76.884 32.589 77.2894 33.387C77.7074 34.1723 77.9164 35.1413 77.9164 36.294ZM71.3614 36.294C71.3614 36.978 71.4184 37.5543 71.5324 38.023C71.659 38.479 71.849 38.8273 72.1024 39.068C72.3684 39.296 72.704 39.41 73.1094 39.41C73.5274 39.41 73.8567 39.296 74.0974 39.068C74.3507 38.8273 74.5344 38.479 74.6484 38.023C74.7624 37.5543 74.8194 36.978 74.8194 36.294C74.8194 35.61 74.7624 35.04 74.6484 34.584C74.5344 34.128 74.3444 33.786 74.0784 33.558C73.825 33.33 73.4957 33.216 73.0904 33.216C72.4697 33.216 72.0264 33.4757 71.7604 33.995C71.4944 34.5017 71.3614 35.268 71.3614 36.294ZM96.3651 30.936C97.4924 30.936 98.3411 31.24 98.9111 31.848C99.4937 32.4433 99.7851 33.406 99.7851 34.736V41.5H96.7641V35.439C96.7641 34.6917 96.6501 34.1343 96.4221 33.767C96.2067 33.387 95.8774 33.197 95.4341 33.197C94.8007 33.197 94.3574 33.463 94.1041 33.995C93.8507 34.527 93.7241 35.2933 93.7241 36.294V41.5H90.6841V35.439C90.6841 34.945 90.6334 34.5333 90.5321 34.204C90.4434 33.8747 90.3041 33.6277 90.1141 33.463C89.9241 33.2857 89.6707 33.197 89.3541 33.197C88.9234 33.197 88.5814 33.33 88.3281 33.596C88.0874 33.862 87.9164 34.2483 87.8151 34.755C87.7137 35.2617 87.6631 35.8823 87.6631 36.617V41.5H84.6231V31.126H86.9221L87.3591 32.456H87.4731C87.6631 32.1013 87.8974 31.8163 88.1761 31.601C88.4674 31.373 88.7967 31.2083 89.1641 31.107C89.5441 30.993 89.9494 30.936 90.3801 30.936C91.0894 30.936 91.6847 31.0627 92.1661 31.316C92.6601 31.5567 93.0464 31.9367 93.3251 32.456H93.4961C93.8001 31.924 94.2054 31.5377 94.7121 31.297C95.2314 31.0563 95.7824 30.936 96.3651 30.936ZM111.445 36.294C111.445 37.1553 111.331 37.9217 111.103 38.593C110.887 39.2643 110.571 39.8343 110.153 40.303C109.735 40.759 109.222 41.1073 108.614 41.348C108.018 41.576 107.347 41.69 106.6 41.69C105.903 41.69 105.257 41.576 104.662 41.348C104.066 41.1073 103.553 40.759 103.123 40.303C102.705 39.8343 102.375 39.2643 102.135 38.593C101.907 37.9217 101.793 37.1553 101.793 36.294C101.793 35.1413 101.989 34.1723 102.382 33.387C102.774 32.589 103.332 31.981 104.054 31.563C104.776 31.145 105.643 30.936 106.657 30.936C107.594 30.936 108.417 31.145 109.127 31.563C109.849 31.981 110.412 32.589 110.818 33.387C111.236 34.1723 111.445 35.1413 111.445 36.294ZM104.89 36.294C104.89 36.978 104.947 37.5543 105.061 38.023C105.187 38.479 105.377 38.8273 105.631 39.068C105.897 39.296 106.232 39.41 106.638 39.41C107.056 39.41 107.385 39.296 107.626 39.068C107.879 38.8273 108.063 38.479 108.177 38.023C108.291 37.5543 108.348 36.978 108.348 36.294C108.348 35.61 108.291 35.04 108.177 34.584C108.063 34.128 107.873 33.786 107.607 33.558C107.353 33.33 107.024 33.216 106.619 33.216C105.998 33.216 105.555 33.4757 105.289 33.995C105.023 34.5017 104.89 35.268 104.89 36.294ZM119.365 30.936C120.403 30.936 121.239 31.24 121.873 31.848C122.519 32.4433 122.842 33.406 122.842 34.736V41.5H119.802V35.439C119.802 34.6917 119.688 34.1343 119.46 33.767C119.244 33.387 118.896 33.197 118.415 33.197C117.68 33.197 117.186 33.4947 116.933 34.09C116.679 34.6727 116.553 35.515 116.553 36.617V41.5H113.513V31.126H115.812L116.23 32.456H116.363C116.578 32.1013 116.831 31.8163 117.123 31.601C117.427 31.373 117.769 31.2083 118.149 31.107C118.529 30.993 118.934 30.936 119.365 30.936ZM128.409 31.126V41.5H125.369V31.126H128.409ZM126.908 27.06C127.351 27.06 127.731 27.1613 128.048 27.364C128.365 27.554 128.523 27.915 128.523 28.447C128.523 28.9663 128.365 29.3273 128.048 29.53C127.731 29.7327 127.351 29.834 126.908 29.834C126.452 29.834 126.066 29.7327 125.749 29.53C125.432 29.3273 125.274 28.9663 125.274 28.447C125.274 27.915 125.432 27.554 125.749 27.364C126.066 27.1613 126.452 27.06 126.908 27.06ZM135.456 39.429C135.76 39.429 136.039 39.3973 136.292 39.334C136.558 39.2707 136.831 39.1947 137.109 39.106V41.215C136.793 41.3417 136.419 41.4493 135.988 41.538C135.57 41.6393 135.076 41.69 134.506 41.69C133.898 41.69 133.354 41.5887 132.872 41.386C132.404 41.1833 132.036 40.835 131.77 40.341C131.504 39.8343 131.371 39.1377 131.371 38.251V33.254H130.136V32.057L131.618 31.107L132.454 28.922H134.411V31.126H136.995V33.254H134.411V38.251C134.411 38.6437 134.506 38.9413 134.696 39.144C134.886 39.334 135.14 39.429 135.456 39.429ZM148.109 36.294C148.109 37.1553 147.995 37.9217 147.767 38.593C147.551 39.2643 147.235 39.8343 146.817 40.303C146.399 40.759 145.886 41.1073 145.278 41.348C144.682 41.576 144.011 41.69 143.264 41.69C142.567 41.69 141.921 41.576 141.326 41.348C140.73 41.1073 140.217 40.759 139.787 40.303C139.369 39.8343 139.039 39.2643 138.799 38.593C138.571 37.9217 138.457 37.1553 138.457 36.294C138.457 35.1413 138.653 34.1723 139.046 33.387C139.438 32.589 139.996 31.981 140.718 31.563C141.44 31.145 142.307 30.936 143.321 30.936C144.258 30.936 145.081 31.145 145.791 31.563C146.513 31.981 147.076 32.589 147.482 33.387C147.9 34.1723 148.109 35.1413 148.109 36.294ZM141.554 36.294C141.554 36.978 141.611 37.5543 141.725 38.023C141.851 38.479 142.041 38.8273 142.295 39.068C142.561 39.296 142.896 39.41 143.302 39.41C143.72 39.41 144.049 39.296 144.29 39.068C144.543 38.8273 144.727 38.479 144.841 38.023C144.955 37.5543 145.012 36.978 145.012 36.294C145.012 35.61 144.955 35.04 144.841 34.584C144.727 34.128 144.537 33.786 144.271 33.558C144.017 33.33 143.688 33.216 143.283 33.216C142.662 33.216 142.219 33.4757 141.953 33.995C141.687 34.5017 141.554 35.268 141.554 36.294ZM155.877 30.936C156.041 30.936 156.219 30.9423 156.409 30.955C156.599 30.9677 156.744 30.9867 156.846 31.012L156.599 33.672C156.497 33.6467 156.364 33.6277 156.2 33.615C156.035 33.5897 155.845 33.577 155.63 33.577C155.351 33.577 155.066 33.6277 154.775 33.729C154.496 33.8177 154.236 33.9633 153.996 34.166C153.768 34.3687 153.578 34.641 153.426 34.983C153.286 35.3123 153.217 35.724 153.217 36.218V41.5H150.177V31.126H152.457L152.913 32.874H153.065C153.255 32.5193 153.489 32.1963 153.768 31.905C154.046 31.6137 154.363 31.3793 154.718 31.202C155.085 31.0247 155.471 30.936 155.877 30.936ZM174.796 30.936C175.923 30.936 176.772 31.24 177.342 31.848C177.924 32.4433 178.216 33.406 178.216 34.736V41.5H175.195V35.439C175.195 34.6917 175.081 34.1343 174.853 33.767C174.637 33.387 174.308 33.197 173.865 33.197C173.231 33.197 172.788 33.463 172.535 33.995C172.281 34.527 172.155 35.2933 172.155 36.294V41.5H169.115V35.439C169.115 34.945 169.064 34.5333 168.963 34.204C168.874 33.8747 168.735 33.6277 168.545 33.463C168.355 33.2857 168.101 33.197 167.785 33.197C167.354 33.197 167.012 33.33 166.759 33.596C166.518 33.862 166.347 34.2483 166.246 34.755C166.144 35.2617 166.094 35.8823 166.094 36.617V41.5H163.054V31.126H165.353L165.79 32.456H165.904C166.094 32.1013 166.328 31.8163 166.607 31.601C166.898 31.373 167.227 31.2083 167.595 31.107C167.975 30.993 168.38 30.936 168.811 30.936C169.52 30.936 170.115 31.0627 170.597 31.316C171.091 31.5567 171.477 31.9367 171.756 32.456H171.927C172.231 31.924 172.636 31.5377 173.143 31.297C173.662 31.0563 174.213 30.936 174.796 30.936ZM179.444 31.126H182.693L184.422 36.959C184.486 37.1363 184.53 37.3263 184.555 37.529C184.593 37.719 184.619 37.9153 184.631 38.118C184.657 38.3207 184.676 38.536 184.688 38.764H184.764C184.79 38.4347 184.821 38.1243 184.859 37.833C184.91 37.529 184.98 37.2377 185.068 36.959L186.797 31.126H189.989L185.923 42.811C185.67 43.533 185.347 44.1347 184.954 44.616C184.562 45.0973 184.087 45.4583 183.529 45.699C182.972 45.9397 182.32 46.06 181.572 46.06C181.268 46.06 181.002 46.041 180.774 46.003C180.559 45.9777 180.369 45.946 180.204 45.908V43.666C180.331 43.6913 180.483 43.7167 180.66 43.742C180.85 43.7673 181.047 43.78 181.249 43.78C181.629 43.78 181.946 43.6977 182.199 43.533C182.453 43.3683 182.662 43.1467 182.826 42.868C182.991 42.5893 183.111 42.279 183.187 41.937L183.32 41.424L179.444 31.126Z"></path>
<path fill="white" d="M16.0684 63.5V49.934H19.1464V61.125H24.1814V63.5H16.0684ZM30.3386 52.936C31.2632 52.936 32.0612 53.1197 32.7326 53.487C33.4039 53.8543 33.9232 54.3863 34.2906 55.083C34.6579 55.7797 34.8416 56.6347 34.8416 57.648V59.016H28.6666C28.6919 59.814 28.8946 60.441 29.2746 60.897C29.6672 61.353 30.2246 61.581 30.9466 61.581C31.5799 61.581 32.1499 61.5177 32.6566 61.391C33.1759 61.2517 33.7079 61.0427 34.2526 60.764V62.949C33.7839 63.2023 33.2709 63.386 32.7136 63.5C32.1689 63.6267 31.4912 63.69 30.6806 63.69C29.6926 63.69 28.8122 63.5 28.0396 63.12C27.2796 62.7273 26.6779 62.1383 26.2346 61.353C25.8039 60.5677 25.5886 59.5797 25.5886 58.389C25.5886 57.173 25.7849 56.166 26.1776 55.368C26.5829 54.5573 27.1402 53.9493 27.8496 53.544C28.5716 53.1387 29.4012 52.936 30.3386 52.936ZM30.3956 54.95C29.9396 54.95 29.5596 55.1273 29.2556 55.482C28.9516 55.8367 28.7742 56.3877 28.7236 57.135H32.0486C32.0486 56.717 31.9852 56.3433 31.8586 56.014C31.7319 55.6847 31.5482 55.425 31.3076 55.235C31.0669 55.045 30.7629 54.95 30.3956 54.95ZM41.3084 52.917C42.5877 52.917 43.5757 53.221 44.2724 53.829C44.9817 54.4243 45.3364 55.3427 45.3364 56.584V63.5H43.2274L42.6384 62.094H42.5624C42.2837 62.4613 41.9987 62.7653 41.7074 63.006C41.4161 63.2467 41.0804 63.4177 40.7004 63.519C40.3204 63.633 39.8581 63.69 39.3134 63.69C38.7434 63.69 38.2304 63.576 37.7744 63.348C37.3311 63.1073 36.9764 62.7463 36.7104 62.265C36.4444 61.771 36.3114 61.1503 36.3114 60.403C36.3114 59.301 36.6724 58.4903 37.3944 57.971C38.1291 57.439 39.2057 57.1477 40.6244 57.097L42.2964 57.04V56.584C42.2964 56.0393 42.1761 55.6403 41.9354 55.387C41.6947 55.1337 41.3654 55.007 40.9474 55.007C40.5167 55.007 40.0671 55.083 39.5984 55.235C39.1297 55.3743 38.6611 55.5517 38.1924 55.767L37.2614 53.848C37.8187 53.5567 38.4331 53.3287 39.1044 53.164C39.7884 52.9993 40.5231 52.917 41.3084 52.917ZM41.4224 58.731C40.6751 58.7563 40.1494 58.921 39.8454 59.225C39.5541 59.529 39.4084 59.928 39.4084 60.422C39.4084 60.8527 39.5097 61.163 39.7124 61.353C39.9277 61.5303 40.2064 61.619 40.5484 61.619C41.0297 61.619 41.4414 61.4417 41.7834 61.087C42.1381 60.7197 42.3154 60.2067 42.3154 59.548V58.693L41.4224 58.731ZM53.5662 52.936C53.7309 52.936 53.9082 52.9423 54.0982 52.955C54.2882 52.9677 54.4339 52.9867 54.5352 53.012L54.2882 55.672C54.1869 55.6467 54.0539 55.6277 53.8892 55.615C53.7246 55.5897 53.5346 55.577 53.3192 55.577C53.0406 55.577 52.7556 55.6277 52.4642 55.729C52.1856 55.8177 51.9259 55.9633 51.6852 56.166C51.4572 56.3687 51.2672 56.641 51.1152 56.983C50.9759 57.3123 50.9062 57.724 50.9062 58.218V63.5H47.8662V53.126H50.1462L50.6022 54.874H50.7542C50.9442 54.5193 51.1786 54.1963 51.4572 53.905C51.7359 53.6137 52.0526 53.3793 52.4072 53.202C52.7746 53.0247 53.1609 52.936 53.5662 52.936ZM61.9565 52.936C62.9952 52.936 63.8312 53.24 64.4645 53.848C65.1105 54.4433 65.4335 55.406 65.4335 56.736V63.5H62.3935V57.439C62.3935 56.6917 62.2795 56.1343 62.0515 55.767C61.8362 55.387 61.4878 55.197 61.0065 55.197C60.2718 55.197 59.7778 55.4947 59.5245 56.09C59.2712 56.6727 59.1445 57.515 59.1445 58.617V63.5H56.1045V53.126H58.4035L58.8215 54.456H58.9545C59.1698 54.1013 59.4232 53.8163 59.7145 53.601C60.0185 53.373 60.3605 53.2083 60.7405 53.107C61.1205 52.993 61.5258 52.936 61.9565 52.936ZM71.0009 53.126V63.5H67.9609V53.126H71.0009ZM69.4999 49.06C69.9433 49.06 70.3233 49.1613 70.6399 49.364C70.9566 49.554 71.1149 49.915 71.1149 50.447C71.1149 50.9663 70.9566 51.3273 70.6399 51.53C70.3233 51.7327 69.9433 51.834 69.4999 51.834C69.0439 51.834 68.6576 51.7327 68.3409 51.53C68.0243 51.3273 67.8659 50.9663 67.8659 50.447C67.8659 49.915 68.0243 49.554 68.3409 49.364C68.6576 49.1613 69.0439 49.06 69.4999 49.06ZM79.435 52.936C80.4737 52.936 81.3097 53.24 81.943 53.848C82.589 54.4433 82.912 55.406 82.912 56.736V63.5H79.872V57.439C79.872 56.6917 79.758 56.1343 79.53 55.767C79.3147 55.387 78.9663 55.197 78.485 55.197C77.7503 55.197 77.2563 55.4947 77.003 56.09C76.7497 56.6727 76.623 57.515 76.623 58.617V63.5H73.583V53.126H75.882L76.3 54.456H76.433C76.6483 54.1013 76.9017 53.8163 77.193 53.601C77.497 53.373 77.839 53.2083 78.219 53.107C78.599 52.993 79.0043 52.936 79.435 52.936ZM88.5935 52.936C89.2395 52.936 89.7841 53.0627 90.2275 53.316C90.6835 53.5693 91.0571 53.9493 91.3485 54.456H91.4245L91.6525 53.126H94.2555V63.519C94.2555 64.507 94.0655 65.3367 93.6855 66.008C93.3181 66.6793 92.7608 67.186 92.0135 67.528C91.2661 67.8827 90.3225 68.06 89.1825 68.06C88.4478 68.06 87.7765 68.0157 87.1685 67.927C86.5731 67.8383 85.9968 67.68 85.4395 67.452V65.191C85.8448 65.3683 86.2375 65.514 86.6175 65.628C87.0101 65.7547 87.4091 65.8433 87.8145 65.894C88.2325 65.9573 88.6821 65.989 89.1635 65.989C89.8601 65.989 90.3731 65.7927 90.7025 65.4C91.0445 65.0073 91.2155 64.4183 91.2155 63.633V63.424C91.2155 63.2087 91.2218 62.987 91.2345 62.759C91.2598 62.531 91.2851 62.3283 91.3105 62.151H91.2155C90.9368 62.6957 90.5758 63.0883 90.1325 63.329C89.7018 63.5697 89.1698 63.69 88.5365 63.69C87.4345 63.69 86.5541 63.2213 85.8955 62.284C85.2495 61.334 84.9265 60.0167 84.9265 58.332C84.9265 57.192 85.0785 56.223 85.3825 55.425C85.6865 54.6143 86.1108 54 86.6555 53.582C87.2128 53.1513 87.8588 52.936 88.5935 52.936ZM89.6575 55.235C89.2901 55.235 88.9861 55.3553 88.7455 55.596C88.5048 55.824 88.3211 56.1723 88.1945 56.641C88.0805 57.097 88.0235 57.6733 88.0235 58.37C88.0235 59.4087 88.1565 60.1877 88.4225 60.707C88.7011 61.2137 89.1255 61.467 89.6955 61.467C89.9995 61.467 90.2591 61.4227 90.4745 61.334C90.7025 61.2327 90.8861 61.0743 91.0255 60.859C91.1648 60.631 91.2661 60.3397 91.3295 59.985C91.4055 59.6303 91.4435 59.1997 91.4435 58.693V58.351C91.4435 57.6037 91.3865 57.002 91.2725 56.546C91.1585 56.09 90.9685 55.7607 90.7025 55.558C90.4491 55.3427 90.1008 55.235 89.6575 55.235ZM105.917 49.934C107.551 49.934 108.754 50.314 109.527 51.074C110.312 51.8213 110.705 52.8537 110.705 54.171C110.705 54.7663 110.622 55.3363 110.458 55.881C110.293 56.413 110.021 56.8943 109.641 57.325C109.261 57.743 108.754 58.0723 108.121 58.313C107.5 58.5537 106.734 58.674 105.822 58.674H104.758V63.5H101.68V49.934H105.917ZM105.822 52.29H104.758V56.318H105.537C105.942 56.318 106.303 56.2483 106.62 56.109C106.936 55.9697 107.183 55.748 107.361 55.444C107.538 55.14 107.627 54.7473 107.627 54.266C107.627 53.5947 107.475 53.1007 107.171 52.784C106.879 52.4547 106.43 52.29 105.822 52.29ZM118.433 52.936C118.598 52.936 118.775 52.9423 118.965 52.955C119.155 52.9677 119.301 52.9867 119.402 53.012L119.155 55.672C119.054 55.6467 118.921 55.6277 118.756 55.615C118.592 55.5897 118.402 55.577 118.186 55.577C117.908 55.577 117.623 55.6277 117.331 55.729C117.053 55.8177 116.793 55.9633 116.552 56.166C116.324 56.3687 116.134 56.641 115.982 56.983C115.843 57.3123 115.773 57.724 115.773 58.218V63.5H112.733V53.126H115.013L115.469 54.874H115.621C115.811 54.5193 116.046 54.1963 116.324 53.905C116.603 53.6137 116.92 53.3793 117.274 53.202C117.642 53.0247 118.028 52.936 118.433 52.936ZM129.758 58.294C129.758 59.1553 129.644 59.9217 129.416 60.593C129.201 61.2643 128.884 61.8343 128.466 62.303C128.048 62.759 127.535 63.1073 126.927 63.348C126.332 63.576 125.66 63.69 124.913 63.69C124.216 63.69 123.57 63.576 122.975 63.348C122.38 63.1073 121.867 62.759 121.436 62.303C121.018 61.8343 120.689 61.2643 120.448 60.593C120.22 59.9217 120.106 59.1553 120.106 58.294C120.106 57.1413 120.302 56.1723 120.695 55.387C121.088 54.589 121.645 53.981 122.367 53.563C123.089 53.145 123.957 52.936 124.97 52.936C125.907 52.936 126.731 53.145 127.44 53.563C128.162 53.981 128.726 54.589 129.131 55.387C129.549 56.1723 129.758 57.1413 129.758 58.294ZM123.203 58.294C123.203 58.978 123.26 59.5543 123.374 60.023C123.501 60.479 123.691 60.8273 123.944 61.068C124.21 61.296 124.546 61.41 124.951 61.41C125.369 61.41 125.698 61.296 125.939 61.068C126.192 60.8273 126.376 60.479 126.49 60.023C126.604 59.5543 126.661 58.978 126.661 58.294C126.661 57.61 126.604 57.04 126.49 56.584C126.376 56.128 126.186 55.786 125.92 55.558C125.667 55.33 125.337 55.216 124.932 55.216C124.311 55.216 123.868 55.4757 123.602 55.995C123.336 56.5017 123.203 57.268 123.203 58.294ZM134.98 52.936C135.626 52.936 136.171 53.0627 136.614 53.316C137.07 53.5693 137.444 53.9493 137.735 54.456H137.811L138.039 53.126H140.642V63.519C140.642 64.507 140.452 65.3367 140.072 66.008C139.705 66.6793 139.148 67.186 138.4 67.528C137.653 67.8827 136.709 68.06 135.569 68.06C134.835 68.06 134.163 68.0157 133.555 67.927C132.96 67.8383 132.384 67.68 131.826 67.452V65.191C132.232 65.3683 132.624 65.514 133.004 65.628C133.397 65.7547 133.796 65.8433 134.201 65.894C134.619 65.9573 135.069 65.989 135.55 65.989C136.247 65.989 136.76 65.7927 137.089 65.4C137.431 65.0073 137.602 64.4183 137.602 63.633V63.424C137.602 63.2087 137.609 62.987 137.621 62.759C137.647 62.531 137.672 62.3283 137.697 62.151H137.602C137.324 62.6957 136.963 63.0883 136.519 63.329C136.089 63.5697 135.557 63.69 134.923 63.69C133.821 63.69 132.941 63.2213 132.282 62.284C131.636 61.334 131.313 60.0167 131.313 58.332C131.313 57.192 131.465 56.223 131.769 55.425C132.073 54.6143 132.498 54 133.042 53.582C133.6 53.1513 134.246 52.936 134.98 52.936ZM136.044 55.235C135.677 55.235 135.373 55.3553 135.132 55.596C134.892 55.824 134.708 56.1723 134.581 56.641C134.467 57.097 134.41 57.6733 134.41 58.37C134.41 59.4087 134.543 60.1877 134.809 60.707C135.088 61.2137 135.512 61.467 136.082 61.467C136.386 61.467 136.646 61.4227 136.861 61.334C137.089 61.2327 137.273 61.0743 137.412 60.859C137.552 60.631 137.653 60.3397 137.716 59.985C137.792 59.6303 137.83 59.1997 137.83 58.693V58.351C137.83 57.6037 137.773 57.002 137.659 56.546C137.545 56.09 137.355 55.7607 137.089 55.558C136.836 55.3427 136.488 55.235 136.044 55.235ZM148.919 52.936C149.083 52.936 149.261 52.9423 149.451 52.955C149.641 52.9677 149.786 52.9867 149.888 53.012L149.641 55.672C149.539 55.6467 149.406 55.6277 149.242 55.615C149.077 55.5897 148.887 55.577 148.672 55.577C148.393 55.577 148.108 55.6277 147.817 55.729C147.538 55.8177 147.278 55.9633 147.038 56.166C146.81 56.3687 146.62 56.641 146.468 56.983C146.328 57.3123 146.259 57.724 146.259 58.218V63.5H143.219V53.126H145.499L145.955 54.874H146.107C146.297 54.5193 146.531 54.1963 146.81 53.905C147.088 53.6137 147.405 53.3793 147.76 53.202C148.127 53.0247 148.513 52.936 148.919 52.936ZM155.342 52.936C156.266 52.936 157.064 53.1197 157.736 53.487C158.407 53.8543 158.926 54.3863 159.294 55.083C159.661 55.7797 159.844 56.6347 159.844 57.648V59.016H153.67C153.695 59.814 153.898 60.441 154.278 60.897C154.67 61.353 155.228 61.581 155.95 61.581C156.583 61.581 157.153 61.5177 157.66 61.391C158.179 61.2517 158.711 61.0427 159.256 60.764V62.949C158.787 63.2023 158.274 63.386 157.717 63.5C157.172 63.6267 156.494 63.69 155.684 63.69C154.696 63.69 153.815 63.5 153.043 63.12C152.283 62.7273 151.681 62.1383 151.238 61.353C150.807 60.5677 150.592 59.5797 150.592 58.389C150.592 57.173 150.788 56.166 151.181 55.368C151.586 54.5573 152.143 53.9493 152.853 53.544C153.575 53.1387 154.404 52.936 155.342 52.936ZM155.398 54.95C154.943 54.95 154.563 55.1273 154.259 55.482C153.955 55.8367 153.777 56.3877 153.727 57.135H157.052C157.052 56.717 156.988 56.3433 156.862 56.014C156.735 55.6847 156.551 55.425 156.311 55.235C156.07 55.045 155.766 54.95 155.398 54.95ZM168.971 60.422C168.971 61.1187 168.819 61.714 168.515 62.208C168.224 62.6893 167.774 63.0567 167.166 63.31C166.558 63.5633 165.773 63.69 164.81 63.69C164.114 63.69 163.506 63.6393 162.986 63.538C162.467 63.4493 161.941 63.2973 161.409 63.082V60.745C161.992 60.9983 162.594 61.2073 163.214 61.372C163.835 61.5367 164.354 61.619 164.772 61.619C165.228 61.619 165.551 61.5367 165.741 61.372C165.944 61.2073 166.045 60.992 166.045 60.726C166.045 60.5487 165.995 60.3903 165.893 60.251C165.792 60.1117 165.589 59.9533 165.285 59.776C164.981 59.5987 164.532 59.3707 163.936 59.092C163.354 58.8133 162.872 58.541 162.492 58.275C162.125 57.9963 161.846 57.667 161.656 57.287C161.479 56.8943 161.39 56.4067 161.39 55.824C161.39 54.8613 161.751 54.1393 162.473 53.658C163.208 53.1767 164.171 52.936 165.361 52.936C165.995 52.936 166.59 52.9993 167.147 53.126C167.705 53.2527 168.281 53.4617 168.876 53.753L168.021 55.786C167.692 55.634 167.369 55.501 167.052 55.387C166.736 55.273 166.432 55.1843 166.14 55.121C165.862 55.0577 165.596 55.026 165.342 55.026C165.013 55.026 164.76 55.083 164.582 55.197C164.418 55.311 164.335 55.482 164.335 55.71C164.335 55.8747 164.386 56.0267 164.487 56.166C164.589 56.2927 164.785 56.4383 165.076 56.603C165.368 56.755 165.792 56.9513 166.349 57.192C166.919 57.4327 167.394 57.686 167.774 57.952C168.167 58.2053 168.465 58.5283 168.667 58.921C168.87 59.301 168.971 59.8013 168.971 60.422ZM178.026 60.422C178.026 61.1187 177.874 61.714 177.57 62.208C177.279 62.6893 176.829 63.0567 176.221 63.31C175.613 63.5633 174.828 63.69 173.865 63.69C173.168 63.69 172.56 63.6393 172.041 63.538C171.522 63.4493 170.996 63.2973 170.464 63.082V60.745C171.047 60.9983 171.648 61.2073 172.269 61.372C172.89 61.5367 173.409 61.619 173.827 61.619C174.283 61.619 174.606 61.5367 174.796 61.372C174.999 61.2073 175.1 60.992 175.1 60.726C175.1 60.5487 175.049 60.3903 174.948 60.251C174.847 60.1117 174.644 59.9533 174.34 59.776C174.036 59.5987 173.586 59.3707 172.991 59.092C172.408 58.8133 171.927 58.541 171.547 58.275C171.18 57.9963 170.901 57.667 170.711 57.287C170.534 56.8943 170.445 56.4067 170.445 55.824C170.445 54.8613 170.806 54.1393 171.528 53.658C172.263 53.1767 173.225 52.936 174.416 52.936C175.049 52.936 175.645 52.9993 176.202 53.126C176.759 53.2527 177.336 53.4617 177.931 53.753L177.076 55.786C176.747 55.634 176.424 55.501 176.107 55.387C175.79 55.273 175.486 55.1843 175.195 55.121C174.916 55.0577 174.65 55.026 174.397 55.026C174.068 55.026 173.814 55.083 173.637 55.197C173.472 55.311 173.39 55.482 173.39 55.71C173.39 55.8747 173.441 56.0267 173.542 56.166C173.643 56.2927 173.84 56.4383 174.131 56.603C174.422 56.755 174.847 56.9513 175.404 57.192C175.974 57.4327 176.449 57.686 176.829 57.952C177.222 58.2053 177.519 58.5283 177.722 58.921C177.925 59.301 178.026 59.8013 178.026 60.422Z"></path>
<path stroke-linejoin="round" stroke-miterlimit="10" stroke="#0B233F" fill="#F3F5F8" d="M309 15.667C309 7.56699 315.567 1 323.667 1H536.333C544.433 1 551 7.56699 551 15.667V74.333C551 82.433 544.433 89 536.333 89H323.667C315.567 89 309 82.433 309 74.333V15.667Z" clip-rule="evenodd" fill-rule="evenodd"></path>
<path fill="#0B233F" d="M322.379 38.9365H324.169L327.222 47.6387C327.611 48.7396 327.896 49.7261 328.075 50.5981C328.23 49.8188 328.517 48.82 328.938 47.6016L331.972 38.9365H333.781L328.938 52.5H327.222L322.379 38.9365ZM337.074 52.5H335.404V42.3135H337.074V52.5ZM335.274 39.5581C335.274 39.187 335.367 38.918 335.553 38.751C335.744 38.584 335.979 38.5005 336.258 38.5005C336.518 38.5005 336.743 38.584 336.935 38.751C337.133 38.918 337.232 39.187 337.232 39.5581C337.232 39.923 337.133 40.1921 336.935 40.3652C336.743 40.5384 336.518 40.625 336.258 40.625C335.979 40.625 335.744 40.5384 335.553 40.3652C335.367 40.1921 335.274 39.923 335.274 39.5581ZM344.635 52.6855C343.108 52.6855 341.908 52.2248 341.036 51.3032C340.17 50.3755 339.737 49.1014 339.737 47.481C339.737 45.8481 340.142 44.5493 340.952 43.5845C341.762 42.6134 342.857 42.1279 344.236 42.1279C345.517 42.1279 346.537 42.5423 347.298 43.3711C348.059 44.1937 348.439 45.3101 348.439 46.7202V47.7314H341.462C341.493 48.888 341.787 49.7663 342.344 50.3662C342.9 50.9661 343.689 51.2661 344.709 51.2661C345.254 51.2661 345.77 51.2197 346.259 51.127C346.747 51.028 347.319 50.8394 347.975 50.561V52.0269C347.412 52.2681 346.883 52.4382 346.389 52.5371C345.894 52.6361 345.309 52.6855 344.635 52.6855ZM344.218 43.4917C343.42 43.4917 342.789 43.7484 342.325 44.2617C341.861 44.7751 341.586 45.4894 341.5 46.4048H346.686C346.673 45.4523 346.454 44.7287 346.027 44.2339C345.6 43.7391 344.997 43.4917 344.218 43.4917ZM359.164 52.5L357.419 46.7666C357.259 46.2904 357.024 45.3905 356.714 44.0669H356.64C356.38 45.2729 356.152 46.179 355.954 46.7852L354.126 52.5H352.233L349.441 42.3135H351.167C351.81 44.8184 352.298 46.7233 352.632 48.0283C352.972 49.3333 353.174 50.2549 353.235 50.793H353.31L353.439 50.2178C353.631 49.3333 353.817 48.6128 353.996 48.0562L355.805 42.3135H357.624L359.377 48.0562C359.439 48.2726 359.504 48.5046 359.572 48.752C359.646 48.9932 359.714 49.2344 359.776 49.4756C359.838 49.7106 359.893 49.9425 359.943 50.1714C359.992 50.394 360.029 50.5951 360.054 50.7744H360.138C360.193 50.3044 360.419 49.2962 360.815 47.75L362.244 42.3135H363.951L361.121 52.5H359.164ZM375.538 42.1465C376.88 42.1465 377.916 42.6104 378.646 43.5381C379.376 44.4596 379.741 45.7492 379.741 47.4067C379.741 49.089 379.37 50.391 378.627 51.3125C377.885 52.2279 376.855 52.6855 375.538 52.6855C374.852 52.6855 374.239 52.5618 373.701 52.3145C373.163 52.0671 372.724 51.6991 372.384 51.2104H372.254C372.062 51.9526 371.948 52.3825 371.911 52.5H370.714V38.0645H372.384V41.5713C372.384 42.2702 372.353 42.9691 372.291 43.668H372.384C373.07 42.6536 374.122 42.1465 375.538 42.1465ZM375.26 43.5288C374.233 43.5288 373.497 43.8195 373.052 44.4009C372.606 44.9823 372.384 45.9657 372.384 47.3511V47.4253C372.384 48.8169 372.61 49.8127 373.061 50.4126C373.519 51.0063 374.264 51.3032 375.297 51.3032C376.212 51.3032 376.893 50.9692 377.338 50.3013C377.789 49.6271 378.015 48.6561 378.015 47.3882C378.015 46.1017 377.789 45.1369 377.338 44.4937C376.886 43.8504 376.194 43.5288 375.26 43.5288ZM380.622 42.3135H382.413L384.611 48.1118C385.075 49.3735 385.36 50.2982 385.465 50.8857H385.539C385.595 50.6569 385.722 50.2301 385.919 49.6055C386.117 48.9746 386.284 48.4705 386.42 48.0933L388.489 42.3135H390.289L385.901 53.9102C385.474 55.0358 384.967 55.8429 384.379 56.3315C383.792 56.8201 383.065 57.0645 382.199 57.0645C381.735 57.0645 381.275 57.0119 380.817 56.9067V55.5801C381.126 55.6543 381.497 55.6914 381.93 55.6914C382.462 55.6914 382.914 55.543 383.285 55.2461C383.656 54.9554 383.959 54.5039 384.194 53.8916L384.723 52.5371L380.622 42.3135ZM401.366 52.5H399.65V40.4395H395.41V38.9365H405.578V40.4395H401.366V52.5ZM415.616 47.3882C415.616 49.0519 415.196 50.3507 414.354 51.2847C413.513 52.2186 412.351 52.6855 410.866 52.6855C409.945 52.6855 409.128 52.4722 408.417 52.0454C407.706 51.6125 407.158 50.994 406.775 50.1899C406.391 49.3859 406.2 48.452 406.2 47.3882C406.2 45.7306 406.614 44.4411 407.443 43.5195C408.272 42.5918 409.434 42.1279 410.931 42.1279C412.366 42.1279 413.504 42.6011 414.345 43.5474C415.193 44.4875 415.616 45.7677 415.616 47.3882ZM407.925 47.3882C407.925 48.6685 408.176 49.6426 408.677 50.3105C409.184 50.9723 409.929 51.3032 410.913 51.3032C411.884 51.3032 412.623 50.9723 413.13 50.3105C413.637 49.6426 413.891 48.6685 413.891 47.3882C413.891 46.1079 413.634 45.1462 413.121 44.5029C412.613 43.8535 411.868 43.5288 410.885 43.5288C408.912 43.5288 407.925 44.8153 407.925 47.3882ZM423.094 52.6855C421.727 52.6855 420.675 52.1938 419.939 51.2104H419.828L419.865 51.5908C419.915 52.0732 419.939 52.5031 419.939 52.8804V57.0645H418.27V42.3135H419.643L419.865 43.7051H419.939C420.335 43.1484 420.793 42.7464 421.312 42.499C421.832 42.2516 422.432 42.1279 423.112 42.1279C424.436 42.1279 425.463 42.5887 426.192 43.5103C426.928 44.4256 427.296 45.7183 427.296 47.3882C427.296 49.0519 426.928 50.3507 426.192 51.2847C425.456 52.2186 424.424 52.6855 423.094 52.6855ZM422.815 43.5288C421.807 43.5288 421.077 43.8133 420.626 44.3823C420.181 44.9513 419.952 45.8451 419.939 47.0635V47.3882C419.939 48.7674 420.168 49.7663 420.626 50.3848C421.084 50.9971 421.826 51.3032 422.853 51.3032C423.706 51.3032 424.371 50.9569 424.847 50.2642C425.33 49.5715 425.571 48.6066 425.571 47.3696C425.571 46.1265 425.33 45.1771 424.847 44.5215C424.371 43.8597 423.694 43.5288 422.815 43.5288ZM431.629 52.5H429.959V42.3135H431.629V52.5ZM429.829 39.5581C429.829 39.187 429.922 38.918 430.107 38.751C430.299 38.584 430.534 38.5005 430.812 38.5005C431.072 38.5005 431.298 38.584 431.49 38.751C431.688 38.918 431.787 39.187 431.787 39.5581C431.787 39.923 431.688 40.1921 431.49 40.3652C431.298 40.5384 431.072 40.625 430.812 40.625C430.534 40.625 430.299 40.5384 430.107 40.3652C429.922 40.1921 429.829 39.923 429.829 39.5581ZM438.939 52.6855C437.474 52.6855 436.333 52.2371 435.516 51.3403C434.7 50.4373 434.292 49.1447 434.292 47.4624C434.292 45.7554 434.703 44.4411 435.525 43.5195C436.354 42.5918 437.532 42.1279 439.06 42.1279C439.555 42.1279 440.043 42.1805 440.526 42.2856C441.014 42.3846 441.417 42.5145 441.732 42.6753L441.222 44.0669C440.362 43.7453 439.629 43.5845 439.023 43.5845C437.996 43.5845 437.239 43.9092 436.75 44.5586C436.261 45.2018 436.017 46.1636 436.017 47.4438C436.017 48.6746 436.261 49.6178 436.75 50.2734C437.239 50.9229 437.962 51.2476 438.921 51.2476C439.818 51.2476 440.699 51.0496 441.565 50.6538V52.1382C440.86 52.5031 439.985 52.6855 438.939 52.6855Z"></path>
<path fill="#E96969" d="M242.5 43.4995H275.366C275.918 43.4995 276.366 43.9475 276.366 44.4995V44.5625L275.366 43.5625H301.566V45.5625H275.366C274.814 45.5625 274.366 45.1145 274.366 44.5625V44.4995L275.366 45.4995H242.5V43.4995ZM300.232 40.5625L308.232 44.5625L300.232 48.5625V40.5625Z"></path>
<path stroke-linejoin="round" stroke-miterlimit="10" stroke="#0B233F" fill="#F3F5F8" d="M309 231.667C309 223.567 315.567 217 323.667 217H536.333C544.433 217 551 223.567 551 231.667V290.333C551 298.433 544.433 305 536.333 305H323.667C315.567 305 309 298.433 309 290.333V231.667Z" clip-rule="evenodd" fill-rule="evenodd"></path>
<path fill="#0B233F" d="M322.379 254.937H324.169L327.222 263.639C327.611 264.74 327.896 265.726 328.075 266.598C328.23 265.819 328.517 264.82 328.938 263.602L331.972 254.937H333.781L328.938 268.5H327.222L322.379 254.937ZM337.074 268.5H335.404V258.313H337.074V268.5ZM335.274 255.558C335.274 255.187 335.367 254.918 335.553 254.751C335.744 254.584 335.979 254.5 336.258 254.5C336.518 254.5 336.743 254.584 336.935 254.751C337.133 254.918 337.232 255.187 337.232 255.558C337.232 255.923 337.133 256.192 336.935 256.365C336.743 256.538 336.518 256.625 336.258 256.625C335.979 256.625 335.744 256.538 335.553 256.365C335.367 256.192 335.274 255.923 335.274 255.558ZM344.635 268.686C343.108 268.686 341.908 268.225 341.036 267.303C340.17 266.375 339.737 265.101 339.737 263.481C339.737 261.848 340.142 260.549 340.952 259.584C341.762 258.613 342.857 258.128 344.236 258.128C345.517 258.128 346.537 258.542 347.298 259.371C348.059 260.194 348.439 261.31 348.439 262.72V263.731H341.462C341.493 264.888 341.787 265.766 342.344 266.366C342.9 266.966 343.689 267.266 344.709 267.266C345.254 267.266 345.77 267.22 346.259 267.127C346.747 267.028 347.319 266.839 347.975 266.561V268.027C347.412 268.268 346.883 268.438 346.389 268.537C345.894 268.636 345.309 268.686 344.635 268.686ZM344.218 259.492C343.42 259.492 342.789 259.748 342.325 260.262C341.861 260.775 341.586 261.489 341.5 262.405H346.686C346.673 261.452 346.454 260.729 346.027 260.234C345.6 259.739 344.997 259.492 344.218 259.492ZM359.164 268.5L357.419 262.767C357.259 262.29 357.024 261.39 356.714 260.067H356.64C356.38 261.273 356.152 262.179 355.954 262.785L354.126 268.5H352.233L349.441 258.313H351.167C351.81 260.818 352.298 262.723 352.632 264.028C352.972 265.333 353.174 266.255 353.235 266.793H353.31L353.439 266.218C353.631 265.333 353.817 264.613 353.996 264.056L355.805 258.313H357.624L359.377 264.056C359.439 264.273 359.504 264.505 359.572 264.752C359.646 264.993 359.714 265.234 359.776 265.476C359.838 265.711 359.893 265.943 359.943 266.171C359.992 266.394 360.029 266.595 360.054 266.774H360.138C360.193 266.304 360.419 265.296 360.815 263.75L362.244 258.313H363.951L361.121 268.5H359.164ZM375.538 258.146C376.88 258.146 377.916 258.61 378.646 259.538C379.376 260.46 379.741 261.749 379.741 263.407C379.741 265.089 379.37 266.391 378.627 267.312C377.885 268.228 376.855 268.686 375.538 268.686C374.852 268.686 374.239 268.562 373.701 268.314C373.163 268.067 372.724 267.699 372.384 267.21H372.254C372.062 267.953 371.948 268.382 371.911 268.5H370.714V254.064H372.384V257.571C372.384 258.27 372.353 258.969 372.291 259.668H372.384C373.07 258.654 374.122 258.146 375.538 258.146ZM375.26 259.529C374.233 259.529 373.497 259.819 373.052 260.401C372.606 260.982 372.384 261.966 372.384 263.351V263.425C372.384 264.817 372.61 265.813 373.061 266.413C373.519 267.006 374.264 267.303 375.297 267.303C376.212 267.303 376.893 266.969 377.338 266.301C377.789 265.627 378.015 264.656 378.015 263.388C378.015 262.102 377.789 261.137 377.338 260.494C376.886 259.85 376.194 259.529 375.26 259.529ZM380.622 258.313H382.413L384.611 264.112C385.075 265.374 385.36 266.298 385.465 266.886H385.539C385.595 266.657 385.722 266.23 385.919 265.605C386.117 264.975 386.284 264.471 386.42 264.093L388.489 258.313H390.289L385.901 269.91C385.474 271.036 384.967 271.843 384.379 272.332C383.792 272.82 383.065 273.064 382.199 273.064C381.735 273.064 381.275 273.012 380.817 272.907V271.58C381.126 271.654 381.497 271.691 381.93 271.691C382.462 271.691 382.914 271.543 383.285 271.246C383.656 270.955 383.959 270.504 384.194 269.892L384.723 268.537L380.622 258.313ZM408.909 261.7C408.909 263.413 408.565 264.842 407.879 265.986C407.192 267.13 406.218 267.919 404.957 268.352L408.204 271.729H405.754L403.129 268.667L402.656 268.686C400.658 268.686 399.112 268.076 398.017 266.858C396.929 265.633 396.384 263.908 396.384 261.681C396.384 259.473 396.925 257.763 398.008 256.551C399.096 255.332 400.652 254.723 402.674 254.723C404.641 254.723 406.172 255.342 407.267 256.579C408.361 257.809 408.909 259.516 408.909 261.7ZM398.184 261.7C398.184 263.493 398.564 264.86 399.325 265.8C400.086 266.74 401.196 267.21 402.656 267.21C404.109 267.21 405.213 266.747 405.968 265.819C406.722 264.891 407.1 263.518 407.1 261.7C407.1 259.888 406.725 258.524 405.977 257.608C405.229 256.687 404.128 256.226 402.674 256.226C401.202 256.226 400.086 256.693 399.325 257.627C398.564 258.555 398.184 259.912 398.184 261.7ZM413.26 258.313V264.873C413.26 265.695 413.442 266.307 413.807 266.709C414.178 267.105 414.75 267.303 415.523 267.303C416.569 267.303 417.329 267.013 417.806 266.431C418.282 265.85 418.52 264.913 418.52 263.62V258.313H420.199V268.5H418.826L418.585 267.155H418.501C418.198 267.643 417.769 268.021 417.212 268.287C416.655 268.553 416.009 268.686 415.273 268.686C414.048 268.686 413.124 268.392 412.499 267.804C411.881 267.217 411.571 266.277 411.571 264.984V258.313H413.26ZM427.76 268.686C426.233 268.686 425.033 268.225 424.161 267.303C423.295 266.375 422.862 265.101 422.862 263.481C422.862 261.848 423.267 260.549 424.077 259.584C424.887 258.613 425.982 258.128 427.361 258.128C428.642 258.128 429.662 258.542 430.423 259.371C431.184 260.194 431.564 261.31 431.564 262.72V263.731H424.587C424.618 264.888 424.912 265.766 425.469 266.366C426.025 266.966 426.814 267.266 427.834 267.266C428.379 267.266 428.895 267.22 429.384 267.127C429.872 267.028 430.444 266.839 431.1 266.561V268.027C430.537 268.268 430.008 268.438 429.514 268.537C429.019 268.636 428.434 268.686 427.76 268.686ZM427.343 259.492C426.545 259.492 425.914 259.748 425.45 260.262C424.986 260.775 424.711 261.489 424.625 262.405H429.811C429.798 261.452 429.579 260.729 429.152 260.234C428.725 259.739 428.122 259.492 427.343 259.492ZM440.786 265.689C440.786 266.641 440.43 267.381 439.719 267.906C439.007 268.426 438.009 268.686 436.722 268.686C435.38 268.686 434.313 268.472 433.521 268.045V266.524C434.641 267.068 435.72 267.34 436.759 267.34C437.6 267.34 438.213 267.204 438.596 266.932C438.98 266.66 439.171 266.295 439.171 265.837C439.171 265.435 438.986 265.095 438.615 264.817C438.25 264.539 437.597 264.22 436.657 263.861C435.699 263.49 435.024 263.175 434.635 262.915C434.245 262.649 433.958 262.352 433.772 262.024C433.593 261.697 433.503 261.298 433.503 260.828C433.503 259.993 433.843 259.334 434.523 258.852C435.204 258.369 436.138 258.128 437.325 258.128C438.482 258.128 439.564 258.357 440.572 258.814L440.006 260.141C438.973 259.708 438.043 259.492 437.214 259.492C436.521 259.492 435.995 259.603 435.637 259.826C435.278 260.042 435.099 260.342 435.099 260.726C435.099 261.097 435.253 261.406 435.562 261.653C435.872 261.895 436.592 262.232 437.724 262.665C438.571 262.98 439.196 263.274 439.598 263.546C440.006 263.818 440.306 264.124 440.498 264.464C440.69 264.805 440.786 265.213 440.786 265.689ZM446.667 267.322C446.884 267.322 447.138 267.3 447.428 267.257C447.719 267.214 447.938 267.164 448.087 267.108V268.389C447.932 268.457 447.691 268.522 447.363 268.583C447.042 268.652 446.714 268.686 446.38 268.686C444.388 268.686 443.393 267.637 443.393 265.541V259.612H441.955V258.814L443.411 258.146L444.079 255.976H445.072V258.313H448.013V259.612H445.072V265.494C445.072 266.082 445.211 266.533 445.489 266.849C445.774 267.164 446.167 267.322 446.667 267.322ZM451.798 268.5H450.128V258.313H451.798V268.5ZM449.998 255.558C449.998 255.187 450.091 254.918 450.276 254.751C450.468 254.584 450.703 254.5 450.981 254.5C451.241 254.5 451.467 254.584 451.659 254.751C451.857 254.918 451.956 255.187 451.956 255.558C451.956 255.923 451.857 256.192 451.659 256.365C451.467 256.538 451.241 256.625 450.981 256.625C450.703 256.625 450.468 256.538 450.276 256.365C450.091 256.192 449.998 255.923 449.998 255.558ZM463.877 263.388C463.877 265.052 463.456 266.351 462.615 267.285C461.774 268.219 460.611 268.686 459.127 268.686C458.205 268.686 457.389 268.472 456.678 268.045C455.966 267.612 455.419 266.994 455.036 266.19C454.652 265.386 454.46 264.452 454.46 263.388C454.46 261.731 454.875 260.441 455.704 259.52C456.532 258.592 457.695 258.128 459.192 258.128C460.627 258.128 461.765 258.601 462.606 259.547C463.453 260.487 463.877 261.768 463.877 263.388ZM456.186 263.388C456.186 264.668 456.437 265.643 456.938 266.311C457.445 266.972 458.19 267.303 459.173 267.303C460.144 267.303 460.883 266.972 461.391 266.311C461.898 265.643 462.151 264.668 462.151 263.388C462.151 262.108 461.895 261.146 461.381 260.503C460.874 259.854 460.129 259.529 459.146 259.529C457.173 259.529 456.186 260.815 456.186 263.388ZM473.47 268.5V261.987C473.47 261.159 473.284 260.543 472.913 260.141C472.548 259.733 471.973 259.529 471.188 259.529C470.142 259.529 469.382 259.819 468.905 260.401C468.435 260.976 468.2 261.916 468.2 263.221V268.5H466.53V258.313H467.875L468.126 259.705H468.219C468.534 259.204 468.976 258.818 469.545 258.545C470.114 258.267 470.742 258.128 471.429 258.128C472.678 258.128 473.606 258.431 474.212 259.037C474.818 259.643 475.121 260.586 475.121 261.867V268.5H473.47Z"></path>
<path stroke-linejoin="round" stroke-miterlimit="10" stroke="#0B233F" fill="#F3F5F8" d="M309 123.667C309 115.567 315.567 109 323.667 109H536.333C544.433 109 551 115.567 551 123.667V182.333C551 190.433 544.433 197 536.333 197H323.667C315.567 197 309 190.433 309 182.333V123.667Z" clip-rule="evenodd" fill-rule="evenodd"></path>
<path fill="#0B233F" d="M322.379 146.937H324.169L327.222 155.639C327.611 156.74 327.896 157.726 328.075 158.598C328.23 157.819 328.517 156.82 328.938 155.602L331.972 146.937H333.781L328.938 160.5H327.222L322.379 146.937ZM337.074 160.5H335.404V150.313H337.074V160.5ZM335.274 147.558C335.274 147.187 335.367 146.918 335.553 146.751C335.744 146.584 335.979 146.5 336.258 146.5C336.518 146.5 336.743 146.584 336.935 146.751C337.133 146.918 337.232 147.187 337.232 147.558C337.232 147.923 337.133 148.192 336.935 148.365C336.743 148.538 336.518 148.625 336.258 148.625C335.979 148.625 335.744 148.538 335.553 148.365C335.367 148.192 335.274 147.923 335.274 147.558ZM344.635 160.686C343.108 160.686 341.908 160.225 341.036 159.303C340.17 158.375 339.737 157.101 339.737 155.481C339.737 153.848 340.142 152.549 340.952 151.584C341.762 150.613 342.857 150.128 344.236 150.128C345.517 150.128 346.537 150.542 347.298 151.371C348.059 152.194 348.439 153.31 348.439 154.72V155.731H341.462C341.493 156.888 341.787 157.766 342.344 158.366C342.9 158.966 343.689 159.266 344.709 159.266C345.254 159.266 345.77 159.22 346.259 159.127C346.747 159.028 347.319 158.839 347.975 158.561V160.027C347.412 160.268 346.883 160.438 346.389 160.537C345.894 160.636 345.309 160.686 344.635 160.686ZM344.218 151.492C343.42 151.492 342.789 151.748 342.325 152.262C341.861 152.775 341.586 153.489 341.5 154.405H346.686C346.673 153.452 346.454 152.729 346.027 152.234C345.6 151.739 344.997 151.492 344.218 151.492ZM359.164 160.5L357.419 154.767C357.259 154.29 357.024 153.39 356.714 152.067H356.64C356.38 153.273 356.152 154.179 355.954 154.785L354.126 160.5H352.233L349.441 150.313H351.167C351.81 152.818 352.298 154.723 352.632 156.028C352.972 157.333 353.174 158.255 353.235 158.793H353.31L353.439 158.218C353.631 157.333 353.817 156.613 353.996 156.056L355.805 150.313H357.624L359.377 156.056C359.439 156.273 359.504 156.505 359.572 156.752C359.646 156.993 359.714 157.234 359.776 157.476C359.838 157.711 359.893 157.943 359.943 158.171C359.992 158.394 360.029 158.595 360.054 158.774H360.138C360.193 158.304 360.419 157.296 360.815 155.75L362.244 150.313H363.951L361.121 160.5H359.164ZM375.538 150.146C376.88 150.146 377.916 150.61 378.646 151.538C379.376 152.46 379.741 153.749 379.741 155.407C379.741 157.089 379.37 158.391 378.627 159.312C377.885 160.228 376.855 160.686 375.538 160.686C374.852 160.686 374.239 160.562 373.701 160.314C373.163 160.067 372.724 159.699 372.384 159.21H372.254C372.062 159.953 371.948 160.382 371.911 160.5H370.714V146.064H372.384V149.571C372.384 150.27 372.353 150.969 372.291 151.668H372.384C373.07 150.654 374.122 150.146 375.538 150.146ZM375.26 151.529C374.233 151.529 373.497 151.819 373.052 152.401C372.606 152.982 372.384 153.966 372.384 155.351V155.425C372.384 156.817 372.61 157.813 373.061 158.413C373.519 159.006 374.264 159.303 375.297 159.303C376.212 159.303 376.893 158.969 377.338 158.301C377.789 157.627 378.015 156.656 378.015 155.388C378.015 154.102 377.789 153.137 377.338 152.494C376.886 151.85 376.194 151.529 375.26 151.529ZM380.622 150.313H382.413L384.611 156.112C385.075 157.374 385.36 158.298 385.465 158.886H385.539C385.595 158.657 385.722 158.23 385.919 157.605C386.117 156.975 386.284 156.471 386.42 156.093L388.489 150.313H390.289L385.901 161.91C385.474 163.036 384.967 163.843 384.379 164.332C383.792 164.82 383.065 165.064 382.199 165.064C381.735 165.064 381.275 165.012 380.817 164.907V163.58C381.126 163.654 381.497 163.691 381.93 163.691C382.462 163.691 382.914 163.543 383.285 163.246C383.656 162.955 383.959 162.504 384.194 161.892L384.723 160.537L380.622 150.313ZM403.055 160.5L398.583 148.606H398.509C398.602 149.596 398.648 150.818 398.648 152.271V160.5H397.071V146.937H399.594L403.778 158.051H403.853L408.111 146.937H410.616V160.5H408.927V152.16C408.927 151.232 408.971 150.054 409.057 148.625H408.983L404.456 160.5H403.055ZM422.927 155.388C422.927 157.052 422.506 158.351 421.665 159.285C420.824 160.219 419.661 160.686 418.177 160.686C417.255 160.686 416.439 160.472 415.728 160.045C415.016 159.612 414.469 158.994 414.085 158.19C413.702 157.386 413.51 156.452 413.51 155.388C413.51 153.731 413.925 152.441 414.753 151.52C415.582 150.592 416.745 150.128 418.242 150.128C419.677 150.128 420.815 150.601 421.656 151.547C422.503 152.487 422.927 153.768 422.927 155.388ZM415.236 155.388C415.236 156.668 415.486 157.643 415.987 158.311C416.494 158.972 417.24 159.303 418.223 159.303C419.194 159.303 419.933 158.972 420.44 158.311C420.948 157.643 421.201 156.668 421.201 155.388C421.201 154.108 420.944 153.146 420.431 152.503C419.924 151.854 419.179 151.529 418.195 151.529C416.222 151.529 415.236 152.815 415.236 155.388ZM432.52 160.5V153.987C432.52 153.159 432.334 152.543 431.963 152.141C431.598 151.733 431.023 151.529 430.237 151.529C429.192 151.529 428.431 151.819 427.955 152.401C427.485 152.976 427.25 153.916 427.25 155.221V160.5H425.58V150.313H426.925L427.176 151.705H427.269C427.584 151.204 428.026 150.818 428.595 150.545C429.164 150.267 429.792 150.128 430.479 150.128C431.728 150.128 432.656 150.431 433.262 151.037C433.868 151.643 434.171 152.586 434.171 153.867V160.5H432.52ZM440.73 159.322C440.946 159.322 441.2 159.3 441.491 159.257C441.781 159.214 442.001 159.164 442.149 159.108V160.389C441.995 160.457 441.754 160.522 441.426 160.583C441.104 160.652 440.776 160.686 440.442 160.686C438.451 160.686 437.455 159.637 437.455 157.541V151.612H436.017V150.814L437.474 150.146L438.142 147.976H439.134V150.313H442.075V151.612H439.134V157.494C439.134 158.082 439.273 158.533 439.552 158.849C439.836 159.164 440.229 159.322 440.73 159.322ZM451.13 160.5V153.987C451.13 153.159 450.944 152.543 450.573 152.141C450.208 151.733 449.633 151.529 448.848 151.529C447.815 151.529 447.057 151.816 446.575 152.392C446.098 152.967 445.86 153.916 445.86 155.24V160.5H444.19V146.064H445.86V150.295C445.86 150.852 445.829 151.328 445.768 151.724H445.879C446.182 151.229 446.612 150.842 447.168 150.564C447.725 150.286 448.353 150.146 449.052 150.146C450.289 150.146 451.22 150.443 451.844 151.037C452.469 151.625 452.781 152.568 452.781 153.867V160.5H451.13Z"></path>
<path fill="#E96969" d="M242.5 43.5H275.366C275.918 43.5 276.366 43.948 276.366 44.5V152.626L275.366 151.626H301.566V153.626H275.366C274.814 153.626 274.366 153.178 274.366 152.626V44.5L275.366 45.5H242.5V43.5ZM300.232 148.626L308.232 152.626L300.232 156.626V148.626Z"></path>
<path fill="#E96969" d="M242.5 43.5H275.366C275.918 43.5 276.366 43.948 276.366 44.5V260.752L275.366 259.752H301.566V261.752H275.366C274.814 261.752 274.366 261.304 274.366 260.752V44.5L275.366 45.5H242.5V43.5ZM300.232 256.752L308.232 260.752L300.232 264.752V256.752Z"></path>
<path stroke-linejoin="round" stroke-miterlimit="10" stroke="#0B233F" fill="#F3F5F8" d="M309 339.667C309 331.567 315.567 325 323.667 325H536.333C544.433 325 551 331.567 551 339.667V398.333C551 406.433 544.433 413 536.333 413H323.667C315.567 413 309 406.433 309 398.333V339.667Z" clip-rule="evenodd" fill-rule="evenodd"></path>
<path fill="#0B233F" d="M322.379 351.937H324.169L327.222 360.639C327.611 361.74 327.896 362.726 328.075 363.598C328.23 362.819 328.517 361.82 328.938 360.602L331.972 351.937H333.781L328.938 365.5H327.222L322.379 351.937ZM337.074 365.5H335.404V355.313H337.074V365.5ZM335.274 352.558C335.274 352.187 335.367 351.918 335.553 351.751C335.744 351.584 335.979 351.5 336.258 351.5C336.518 351.5 336.743 351.584 336.935 351.751C337.133 351.918 337.232 352.187 337.232 352.558C337.232 352.923 337.133 353.192 336.935 353.365C336.743 353.538 336.518 353.625 336.258 353.625C335.979 353.625 335.744 353.538 335.553 353.365C335.367 353.192 335.274 352.923 335.274 352.558ZM344.635 365.686C343.108 365.686 341.908 365.225 341.036 364.303C340.17 363.375 339.737 362.101 339.737 360.481C339.737 358.848 340.142 357.549 340.952 356.584C341.762 355.613 342.857 355.128 344.236 355.128C345.517 355.128 346.537 355.542 347.298 356.371C348.059 357.194 348.439 358.31 348.439 359.72V360.731H341.462C341.493 361.888 341.787 362.766 342.344 363.366C342.9 363.966 343.689 364.266 344.709 364.266C345.254 364.266 345.77 364.22 346.259 364.127C346.747 364.028 347.319 363.839 347.975 363.561V365.027C347.412 365.268 346.883 365.438 346.389 365.537C345.894 365.636 345.309 365.686 344.635 365.686ZM344.218 356.492C343.42 356.492 342.789 356.748 342.325 357.262C341.861 357.775 341.586 358.489 341.5 359.405H346.686C346.673 358.452 346.454 357.729 346.027 357.234C345.6 356.739 344.997 356.492 344.218 356.492ZM359.164 365.5L357.419 359.767C357.259 359.29 357.024 358.39 356.714 357.067H356.64C356.38 358.273 356.152 359.179 355.954 359.785L354.126 365.5H352.233L349.441 355.313H351.167C351.81 357.818 352.298 359.723 352.632 361.028C352.972 362.333 353.174 363.255 353.235 363.793H353.31L353.439 363.218C353.631 362.333 353.817 361.613 353.996 361.056L355.805 355.313H357.624L359.377 361.056C359.439 361.273 359.504 361.505 359.572 361.752C359.646 361.993 359.714 362.234 359.776 362.476C359.838 362.711 359.893 362.943 359.943 363.171C359.992 363.394 360.029 363.595 360.054 363.774H360.138C360.193 363.304 360.419 362.296 360.815 360.75L362.244 355.313H363.951L361.121 365.5H359.164ZM379.453 365.5L377.82 361.297H372.439L370.825 365.5H369.1L374.397 351.881H375.937L381.225 365.5H379.453ZM377.31 359.785L375.789 355.675L375.139 353.644C374.954 354.386 374.759 355.063 374.555 355.675L373.015 359.785H377.31ZM383.099 365.5V351.937H384.806V363.979H390.734V365.5H383.099ZM400.754 361.873C400.754 363.054 400.327 363.985 399.474 364.665C398.62 365.345 397.433 365.686 395.911 365.686C394.303 365.686 393.06 365.472 392.182 365.045V363.413C392.757 363.66 393.385 363.855 394.065 363.997C394.751 364.139 395.392 364.21 395.985 364.21C397 364.21 397.764 364.016 398.277 363.626C398.79 363.236 399.047 362.701 399.047 362.021C399.047 361.569 398.954 361.198 398.769 360.908C398.583 360.617 398.271 360.345 397.832 360.091C397.399 359.838 396.74 359.55 395.855 359.229C394.6 358.771 393.703 358.233 393.165 357.614C392.627 356.99 392.358 356.186 392.358 355.202C392.358 354.145 392.754 353.303 393.545 352.679C394.343 352.054 395.392 351.742 396.69 351.742C398.045 351.742 399.291 351.995 400.429 352.502L399.9 353.968C398.738 353.486 397.655 353.245 396.653 353.245C395.849 353.245 395.218 353.418 394.761 353.764C394.309 354.111 394.083 354.596 394.083 355.221C394.083 355.666 394.17 356.037 394.343 356.334C394.523 356.625 394.807 356.891 395.197 357.132C395.593 357.373 396.211 357.648 397.052 357.958C398.06 358.329 398.812 358.69 399.307 359.043C399.801 359.389 400.166 359.791 400.401 360.249C400.636 360.701 400.754 361.242 400.754 361.873ZM408.426 365.5V351.937H410.133V363.979H416.062V365.5H408.426ZM422.491 365.686C420.963 365.686 419.763 365.225 418.891 364.303C418.025 363.375 417.592 362.101 417.592 360.481C417.592 358.848 417.997 357.549 418.808 356.584C419.618 355.613 420.713 355.128 422.092 355.128C423.372 355.128 424.393 355.542 425.153 356.371C425.914 357.194 426.294 358.31 426.294 359.72V360.731H419.318C419.349 361.888 419.643 362.766 420.199 363.366C420.756 363.966 421.544 364.266 422.565 364.266C423.109 364.266 423.626 364.22 424.114 364.127C424.603 364.028 425.175 363.839 425.831 363.561V365.027C425.268 365.268 424.739 365.438 424.244 365.537C423.749 365.636 423.165 365.686 422.491 365.686ZM422.073 356.492C421.275 356.492 420.645 356.748 420.181 357.262C419.717 357.775 419.442 358.489 419.355 359.405H424.541C424.529 358.452 424.309 357.729 423.882 357.234C423.456 356.739 422.853 356.492 422.073 356.492ZM435.173 365.5L434.848 364.053H434.774C434.267 364.69 433.76 365.123 433.252 365.352C432.751 365.574 432.118 365.686 431.351 365.686C430.349 365.686 429.563 365.423 428.994 364.897C428.425 364.371 428.141 363.629 428.141 362.67C428.141 360.605 429.77 359.522 433.03 359.423L434.755 359.358V358.755C434.755 357.982 434.588 357.413 434.254 357.048C433.92 356.677 433.385 356.492 432.649 356.492C432.111 356.492 431.601 356.572 431.119 356.733C430.642 356.894 430.194 357.073 429.773 357.271L429.263 356.019C429.777 355.746 430.336 355.533 430.942 355.378C431.549 355.224 432.148 355.146 432.742 355.146C433.973 355.146 434.888 355.419 435.488 355.963C436.088 356.507 436.388 357.373 436.388 358.561V365.5H435.173ZM431.731 364.34C432.665 364.34 433.398 364.09 433.93 363.589C434.468 363.082 434.737 362.364 434.737 361.437V360.518L433.234 360.583C432.065 360.626 431.211 360.812 430.673 361.14C430.141 361.467 429.875 361.984 429.875 362.689C429.875 363.221 430.036 363.629 430.358 363.914C430.686 364.198 431.143 364.34 431.731 364.34ZM444.302 355.128C444.753 355.128 445.152 355.165 445.499 355.239L445.294 356.779C444.917 356.693 444.549 356.649 444.19 356.649C443.652 356.649 443.151 356.798 442.688 357.095C442.23 357.392 441.871 357.803 441.611 358.329C441.352 358.848 441.222 359.426 441.222 360.063V365.5H439.552V355.313H440.925L441.11 357.178H441.185C441.574 356.504 442.035 355.994 442.567 355.647C443.099 355.301 443.677 355.128 444.302 355.128ZM454.34 365.5V358.987C454.34 358.159 454.154 357.543 453.783 357.141C453.418 356.733 452.843 356.529 452.058 356.529C451.012 356.529 450.252 356.819 449.775 357.401C449.305 357.976 449.07 358.916 449.07 360.221V365.5H447.4V355.313H448.746L448.996 356.705H449.089C449.404 356.204 449.847 355.818 450.416 355.545C450.985 355.267 451.612 355.128 452.299 355.128C453.548 355.128 454.476 355.431 455.082 356.037C455.688 356.643 455.991 357.586 455.991 358.867V365.5H454.34ZM460.815 365.5H459.146V355.313H460.815V365.5ZM459.016 352.558C459.016 352.187 459.108 351.918 459.294 351.751C459.486 351.584 459.721 351.5 459.999 351.5C460.259 351.5 460.485 351.584 460.676 351.751C460.874 351.918 460.973 352.187 460.973 352.558C460.973 352.923 460.874 353.192 460.676 353.365C460.485 353.538 460.259 353.625 459.999 353.625C459.721 353.625 459.486 353.538 459.294 353.365C459.108 353.192 459.016 352.923 459.016 352.558ZM470.983 365.5V358.987C470.983 358.159 470.798 357.543 470.427 357.141C470.062 356.733 469.487 356.529 468.701 356.529C467.656 356.529 466.895 356.819 466.419 357.401C465.949 357.976 465.714 358.916 465.714 360.221V365.5H464.044V355.313H465.389L465.64 356.705H465.732C466.048 356.204 466.49 355.818 467.059 355.545C467.628 355.267 468.256 355.128 468.942 355.128C470.192 355.128 471.119 355.431 471.726 356.037C472.332 356.643 472.635 357.586 472.635 358.867V365.5H470.983ZM479.667 364.322C480.694 364.322 481.439 364.047 481.903 363.496C482.373 362.939 482.608 362.049 482.608 360.824V360.425C482.608 359.065 482.373 358.075 481.903 357.457C481.433 356.838 480.675 356.529 479.63 356.529C478.776 356.529 478.115 356.869 477.645 357.549C477.181 358.223 476.949 359.188 476.949 360.444C476.949 361.706 477.174 362.667 477.626 363.329C478.084 363.991 478.764 364.322 479.667 364.322ZM482.589 365.407L482.645 364.155H482.571C481.884 365.175 480.833 365.686 479.417 365.686C478.099 365.686 477.069 365.228 476.327 364.312C475.591 363.391 475.223 362.095 475.223 360.425C475.223 358.786 475.594 357.494 476.336 356.547C477.085 355.601 478.105 355.128 479.398 355.128C480.777 355.128 481.841 355.641 482.589 356.668H482.691L482.914 355.313H484.241V365.667C484.241 367.127 483.87 368.224 483.127 368.96C482.391 369.696 481.244 370.064 479.686 370.064C478.201 370.064 476.98 369.848 476.021 369.415V367.875C477.011 368.407 478.263 368.673 479.778 368.673C480.644 368.673 481.328 368.419 481.829 367.912C482.336 367.405 482.589 366.703 482.589 365.806V365.407Z"></path>
<path fill="#0B233F" d="M332.909 377.926C332.909 379.311 332.436 380.375 331.489 381.117C330.543 381.853 329.21 382.221 327.491 382.221H325.932V387.5H324.225V373.937H327.815C331.211 373.937 332.909 375.266 332.909 377.926ZM325.932 380.755H327.296C328.644 380.755 329.621 380.539 330.228 380.106C330.834 379.667 331.137 378.965 331.137 378C331.137 377.128 330.855 376.475 330.292 376.042C329.73 375.61 328.851 375.393 327.658 375.393H325.932V380.755ZM340.247 377.128C340.699 377.128 341.097 377.165 341.444 377.239L341.24 378.779C340.862 378.693 340.494 378.649 340.136 378.649C339.598 378.649 339.097 378.798 338.633 379.095C338.175 379.392 337.816 379.803 337.557 380.329C337.297 380.848 337.167 381.426 337.167 382.063V387.5H335.497V377.313H336.87L337.056 379.178H337.13C337.52 378.504 337.98 377.994 338.512 377.647C339.044 377.301 339.622 377.128 340.247 377.128ZM352.011 382.388C352.011 384.052 351.59 385.351 350.749 386.285C349.908 387.219 348.745 387.686 347.261 387.686C346.339 387.686 345.523 387.472 344.812 387.045C344.1 386.612 343.553 385.994 343.169 385.19C342.786 384.386 342.594 383.452 342.594 382.388C342.594 380.731 343.009 379.441 343.837 378.52C344.666 377.592 345.829 377.128 347.326 377.128C348.761 377.128 349.899 377.601 350.74 378.547C351.587 379.487 352.011 380.768 352.011 382.388ZM344.32 382.388C344.32 383.668 344.57 384.643 345.071 385.311C345.578 385.972 346.324 386.303 347.307 386.303C348.278 386.303 349.017 385.972 349.524 385.311C350.032 384.643 350.285 383.668 350.285 382.388C350.285 381.108 350.028 380.146 349.515 379.503C349.008 378.854 348.263 378.529 347.279 378.529C345.306 378.529 344.32 379.815 344.32 382.388ZM358.542 386.322C359.569 386.322 360.314 386.047 360.778 385.496C361.248 384.939 361.483 384.049 361.483 382.824V382.425C361.483 381.065 361.248 380.075 360.778 379.457C360.308 378.838 359.55 378.529 358.505 378.529C357.651 378.529 356.99 378.869 356.52 379.549C356.056 380.223 355.824 381.188 355.824 382.444C355.824 383.706 356.049 384.667 356.501 385.329C356.959 385.991 357.639 386.322 358.542 386.322ZM361.464 387.407L361.52 386.155H361.446C360.759 387.175 359.708 387.686 358.292 387.686C356.974 387.686 355.944 387.228 355.202 386.312C354.466 385.391 354.098 384.095 354.098 382.425C354.098 380.786 354.469 379.494 355.211 378.547C355.96 377.601 356.98 377.128 358.273 377.128C359.652 377.128 360.716 377.641 361.464 378.668H361.566L361.789 377.313H363.116V387.667C363.116 389.127 362.745 390.224 362.002 390.96C361.266 391.696 360.119 392.064 358.561 392.064C357.076 392.064 355.855 391.848 354.896 391.415V389.875C355.886 390.407 357.138 390.673 358.653 390.673C359.519 390.673 360.203 390.419 360.704 389.912C361.211 389.405 361.464 388.703 361.464 387.806V387.407ZM371.104 377.128C371.555 377.128 371.954 377.165 372.3 377.239L372.096 378.779C371.719 378.693 371.351 378.649 370.992 378.649C370.454 378.649 369.953 378.798 369.489 379.095C369.032 379.392 368.673 379.803 368.413 380.329C368.153 380.848 368.023 381.426 368.023 382.063V387.5H366.354V377.313H367.727L367.912 379.178H367.986C368.376 378.504 368.837 377.994 369.369 377.647C369.901 377.301 370.479 377.128 371.104 377.128ZM378.349 387.686C376.821 387.686 375.622 387.225 374.75 386.303C373.884 385.375 373.451 384.101 373.451 382.481C373.451 380.848 373.856 379.549 374.666 378.584C375.476 377.613 376.571 377.128 377.95 377.128C379.23 377.128 380.251 377.542 381.012 378.371C381.772 379.194 382.153 380.31 382.153 381.72V382.731H375.176C375.207 383.888 375.501 384.766 376.058 385.366C376.614 385.966 377.403 386.266 378.423 386.266C378.968 386.266 379.484 386.22 379.973 386.127C380.461 386.028 381.033 385.839 381.689 385.561V387.027C381.126 387.268 380.597 387.438 380.103 387.537C379.608 387.636 379.023 387.686 378.349 387.686ZM377.932 378.492C377.134 378.492 376.503 378.748 376.039 379.262C375.575 379.775 375.3 380.489 375.213 381.405H380.399C380.387 380.452 380.167 379.729 379.741 379.234C379.314 378.739 378.711 378.492 377.932 378.492ZM391.375 384.689C391.375 385.641 391.019 386.381 390.308 386.906C389.596 387.426 388.597 387.686 387.311 387.686C385.969 387.686 384.902 387.472 384.11 387.045V385.524C385.23 386.068 386.309 386.34 387.348 386.34C388.189 386.34 388.802 386.204 389.185 385.932C389.569 385.66 389.76 385.295 389.76 384.837C389.76 384.435 389.575 384.095 389.204 383.817C388.839 383.539 388.186 383.22 387.246 382.861C386.287 382.49 385.613 382.175 385.224 381.915C384.834 381.649 384.546 381.352 384.361 381.024C384.181 380.697 384.092 380.298 384.092 379.828C384.092 378.993 384.432 378.334 385.112 377.852C385.793 377.369 386.727 377.128 387.914 377.128C389.071 377.128 390.153 377.357 391.161 377.814L390.595 379.141C389.562 378.708 388.632 378.492 387.803 378.492C387.11 378.492 386.584 378.603 386.226 378.826C385.867 379.042 385.688 379.342 385.688 379.726C385.688 380.097 385.842 380.406 386.151 380.653C386.461 380.895 387.181 381.232 388.313 381.665C389.16 381.98 389.785 382.274 390.187 382.546C390.595 382.818 390.895 383.124 391.087 383.464C391.279 383.805 391.375 384.213 391.375 384.689ZM400.485 384.689C400.485 385.641 400.129 386.381 399.418 386.906C398.707 387.426 397.708 387.686 396.421 387.686C395.079 387.686 394.012 387.472 393.221 387.045V385.524C394.34 386.068 395.419 386.34 396.458 386.34C397.3 386.34 397.912 386.204 398.295 385.932C398.679 385.66 398.871 385.295 398.871 384.837C398.871 384.435 398.685 384.095 398.314 383.817C397.949 383.539 397.297 383.22 396.356 382.861C395.398 382.49 394.724 382.175 394.334 381.915C393.944 381.649 393.657 381.352 393.471 381.024C393.292 380.697 393.202 380.298 393.202 379.828C393.202 378.993 393.542 378.334 394.223 377.852C394.903 377.369 395.837 377.128 397.024 377.128C398.181 377.128 399.263 377.357 400.271 377.814L399.706 379.141C398.673 378.708 397.742 378.492 396.913 378.492C396.22 378.492 395.695 378.603 395.336 378.826C394.977 379.042 394.798 379.342 394.798 379.726C394.798 380.097 394.952 380.406 395.262 380.653C395.571 380.895 396.292 381.232 397.423 381.665C398.271 381.98 398.895 382.274 399.297 382.546C399.706 382.818 400.006 383.124 400.197 383.464C400.389 383.805 400.485 384.213 400.485 384.689Z"></path>
<path fill="#E96969" d="M242.5 43.5H275.366C275.918 43.5 276.366 43.948 276.366 44.5V368.846L275.366 367.846H301.566V369.846H275.366C274.814 369.846 274.366 369.399 274.366 368.846V44.5L275.366 45.5H242.5V43.5ZM300.232 364.846L308.232 368.846L300.232 372.846V364.846Z"></path>
</svg>
