<svg xmlns="http://www.w3.org/2000/svg" fill="none" viewBox="0 0 860 90" height="90" width="860">
<path stroke-linejoin="round" stroke-miterlimit="10" stroke="#0B233F" fill="#0B233F" d="M1 15.667C1 7.56699 7.5665 1 15.6668 1H228.333C236.433 1 243 7.56699 243 15.667V74.333C243 82.433 236.433 89 228.333 89H15.6668C7.5665 89 1 82.433 1 74.333V15.667Z" clip-rule="evenodd" fill-rule="evenodd"></path>
<path fill="white" d="M27.3889 41.5H24.5222V35.646H19.1506V41.5H16.2747V27.9365H19.1506V33.2524H24.5222V27.9365H27.3889V41.5ZM32.8533 36.2954C32.8533 37.3221 33.0203 38.0983 33.3542 38.624C33.6944 39.1497 34.2449 39.4126 35.0056 39.4126C35.7602 39.4126 36.3014 39.1528 36.6292 38.6333C36.9631 38.1076 37.1301 37.3283 37.1301 36.2954C37.1301 35.2687 36.9631 34.4987 36.6292 33.9854C36.2952 33.472 35.7478 33.2153 34.9871 33.2153C34.2325 33.2153 33.6882 33.472 33.3542 33.9854C33.0203 34.4925 32.8533 35.2625 32.8533 36.2954ZM40.0247 36.2954C40.0247 37.9839 39.5793 39.3044 38.6887 40.2568C37.7981 41.2093 36.558 41.6855 34.9685 41.6855C33.9727 41.6855 33.0945 41.4691 32.3337 41.0361C31.573 40.597 30.9885 39.9692 30.5803 39.1528C30.1721 38.3364 29.968 37.384 29.968 36.2954C29.968 34.6007 30.4102 33.2834 31.2947 32.3433C32.1791 31.4032 33.4223 30.9331 35.0242 30.9331C36.0199 30.9331 36.8982 31.1496 37.6589 31.5825C38.4197 32.0155 39.0042 32.637 39.4124 33.4473C39.8206 34.2575 40.0247 35.2069 40.0247 36.2954ZM50.7029 41.5L49.905 37.8726L48.8474 33.2896H48.7639L46.8713 41.5H43.8284L40.8782 31.1279H43.6985L44.8953 35.7202C45.0313 36.2645 45.22 37.3994 45.4612 39.125H45.5354C45.5601 38.6549 45.6684 37.9097 45.8601 36.8892L46.0085 36.1006L47.2888 31.1279H50.406L51.6213 36.1006C51.6956 36.4408 51.7852 36.9417 51.8904 37.6035C52.0017 38.2591 52.0636 38.7663 52.0759 39.125H52.1501C52.2182 38.5745 52.314 37.9499 52.4377 37.251C52.5614 36.5459 52.6666 36.0356 52.7532 35.7202L53.9963 31.1279H56.7703L53.783 41.5H50.7029ZM67.7546 39.4312C68.2494 39.4312 68.8432 39.3229 69.5359 39.1064V41.2124C68.8308 41.5278 67.9649 41.6855 66.9382 41.6855C65.8064 41.6855 64.9807 41.401 64.4612 40.832C63.9478 40.2568 63.6912 39.3971 63.6912 38.2529V33.2524H62.3367V32.0557L63.8953 31.1094L64.7117 28.9199H66.5208V31.1279H69.4246V33.2524H66.5208V38.2529C66.5208 38.6549 66.6321 38.9518 66.8547 39.1436C67.0836 39.3353 67.3835 39.4312 67.7546 39.4312ZM73.8962 36.2954C73.8962 37.3221 74.0632 38.0983 74.3972 38.624C74.7374 39.1497 75.2878 39.4126 76.0486 39.4126C76.8031 39.4126 77.3443 39.1528 77.6721 38.6333C78.0061 38.1076 78.1731 37.3283 78.1731 36.2954C78.1731 35.2687 78.0061 34.4987 77.6721 33.9854C77.3381 33.472 76.7908 33.2153 76.03 33.2153C75.2755 33.2153 74.7312 33.472 74.3972 33.9854C74.0632 34.4925 73.8962 35.2625 73.8962 36.2954ZM81.0676 36.2954C81.0676 37.9839 80.6223 39.3044 79.7317 40.2568C78.8411 41.2093 77.601 41.6855 76.0115 41.6855C75.0157 41.6855 74.1375 41.4691 73.3767 41.0361C72.616 40.597 72.0315 39.9692 71.6233 39.1528C71.2151 38.3364 71.011 37.384 71.011 36.2954C71.011 34.6007 71.4532 33.2834 72.3376 32.3433C73.2221 31.4032 74.4653 30.9331 76.0671 30.9331C77.0629 30.9331 77.9412 31.1496 78.7019 31.5825C79.4626 32.0155 80.0471 32.637 80.4553 33.4473C80.8635 34.2575 81.0676 35.2069 81.0676 36.2954ZM94.928 41.5L94.3806 40.0898H94.3064C93.8302 40.6898 93.3385 41.1073 92.8313 41.3423C92.3303 41.5711 91.6747 41.6855 90.8645 41.6855C89.8687 41.6855 89.0833 41.401 88.5081 40.832C87.939 40.263 87.6545 39.4528 87.6545 38.4014C87.6545 37.3005 88.038 36.4902 88.8049 35.9707C89.578 35.445 90.7408 35.1543 92.2932 35.0986L94.093 35.043V34.5884C94.093 33.5369 93.5549 33.0112 92.4788 33.0112C91.65 33.0112 90.6759 33.2617 89.5564 33.7627L88.6194 31.8516C89.8131 31.2269 91.1366 30.9146 92.5901 30.9146C93.9817 30.9146 95.0486 31.2176 95.7908 31.8237C96.533 32.4299 96.9041 33.3514 96.9041 34.5884V41.5H94.928ZM94.093 36.6943L92.9983 36.7314C92.1757 36.7562 91.5634 36.9046 91.1614 37.1768C90.7594 37.4489 90.5583 37.8633 90.5583 38.4199C90.5583 39.2178 91.016 39.6167 91.9314 39.6167C92.587 39.6167 93.1096 39.4281 93.4993 39.0508C93.8951 38.6735 94.093 38.1725 94.093 37.5479V36.6943ZM104.196 39.4312C104.691 39.4312 105.285 39.3229 105.977 39.1064V41.2124C105.272 41.5278 104.406 41.6855 103.38 41.6855C102.248 41.6855 101.422 41.401 100.903 40.832C100.389 40.2568 100.133 39.3971 100.133 38.2529V33.2524H98.7781V32.0557L100.337 31.1094L101.153 28.9199H102.962V31.1279H105.866V33.2524H102.962V38.2529C102.962 38.6549 103.073 38.9518 103.296 39.1436C103.525 39.3353 103.825 39.4312 104.196 39.4312ZM112.453 39.4312C112.948 39.4312 113.541 39.3229 114.234 39.1064V41.2124C113.529 41.5278 112.663 41.6855 111.636 41.6855C110.505 41.6855 109.679 41.401 109.159 40.832C108.646 40.2568 108.389 39.3971 108.389 38.2529V33.2524H107.035V32.0557L108.594 31.1094L109.41 28.9199H111.219V31.1279H114.123V33.2524H111.219V38.2529C111.219 38.6549 111.33 38.9518 111.553 39.1436C111.782 39.3353 112.082 39.4312 112.453 39.4312ZM120.635 32.9463C120.036 32.9463 119.566 33.138 119.225 33.5215C118.885 33.8988 118.69 34.4368 118.641 35.1357H122.612C122.599 34.4368 122.417 33.8988 122.064 33.5215C121.712 33.138 121.235 32.9463 120.635 32.9463ZM121.034 41.6855C119.365 41.6855 118.059 41.2248 117.119 40.3032C116.179 39.3817 115.709 38.0767 115.709 36.3882C115.709 34.6502 116.142 33.3081 117.008 32.3618C117.88 31.4093 119.083 30.9331 120.617 30.9331C122.083 30.9331 123.224 31.3506 124.04 32.1855C124.857 33.0205 125.265 34.174 125.265 35.646V37.019H118.576C118.607 37.8231 118.845 38.4508 119.29 38.9023C119.736 39.3538 120.36 39.5796 121.164 39.5796C121.789 39.5796 122.38 39.5146 122.936 39.3848C123.493 39.2549 124.074 39.0477 124.68 38.7632V40.9526C124.186 41.2 123.657 41.3825 123.094 41.5C122.531 41.6237 121.845 41.6855 121.034 41.6855ZM136.852 41.5H134.023V35.4419C134.023 34.6935 133.896 34.1338 133.642 33.7627C133.395 33.3854 133.002 33.1968 132.464 33.1968C131.74 33.1968 131.215 33.4627 130.887 33.9946C130.559 34.5265 130.395 35.4017 130.395 36.6201V41.5H127.566V31.1279H129.727L130.108 32.4546H130.265C130.544 31.9784 130.946 31.6073 131.471 31.3413C131.997 31.0692 132.6 30.9331 133.281 30.9331C134.833 30.9331 135.884 31.4403 136.435 32.4546H136.685C136.964 31.9722 137.372 31.598 137.91 31.332C138.454 31.0661 139.066 30.9331 139.747 30.9331C140.922 30.9331 141.809 31.2362 142.409 31.8423C143.016 32.4422 143.319 33.4071 143.319 34.7368V41.5H140.48V35.4419C140.48 34.6935 140.353 34.1338 140.099 33.7627C139.852 33.3854 139.459 33.1968 138.921 33.1968C138.228 33.1968 137.709 33.4442 137.363 33.939C137.022 34.4338 136.852 35.2192 136.852 36.2954V41.5ZM151.928 41.6855C150.71 41.6855 149.754 41.2433 149.061 40.3589H148.913C149.012 41.2248 149.061 41.7257 149.061 41.8618V46.0645H146.232V31.1279H148.532L148.931 32.4731H149.061C149.723 31.4465 150.703 30.9331 152.002 30.9331C153.227 30.9331 154.185 31.4062 154.878 32.3525C155.571 33.2988 155.917 34.6131 155.917 36.2954C155.917 37.4025 155.753 38.3643 155.426 39.1807C155.104 39.9971 154.643 40.6187 154.043 41.0454C153.443 41.4722 152.738 41.6855 151.928 41.6855ZM151.093 33.1968C150.394 33.1968 149.884 33.4132 149.562 33.8462C149.241 34.2729 149.074 34.9811 149.061 35.9707V36.2769C149.061 37.3901 149.225 38.188 149.553 38.6704C149.887 39.1528 150.413 39.394 151.13 39.394C152.398 39.394 153.032 38.3488 153.032 36.2583C153.032 35.2378 152.874 34.474 152.559 33.9668C152.25 33.4535 151.761 33.1968 151.093 33.1968ZM162.625 39.4312C163.12 39.4312 163.713 39.3229 164.406 39.1064V41.2124C163.701 41.5278 162.835 41.6855 161.808 41.6855C160.677 41.6855 159.851 41.401 159.331 40.832C158.818 40.2568 158.561 39.3971 158.561 38.2529V33.2524H157.207V32.0557L158.765 31.1094L159.582 28.9199H161.391V31.1279H164.295V33.2524H161.391V38.2529C161.391 38.6549 161.502 38.9518 161.725 39.1436C161.954 39.3353 162.254 39.4312 162.625 39.4312Z"></path>
<path fill="white" d="M20.3474 61.4683C21.1082 61.4683 21.6524 61.2518 21.9802 60.8188C22.308 60.3797 22.4719 59.6715 22.4719 58.6943V58.3511C22.4719 57.244 22.2987 56.4492 21.9524 55.9668C21.6122 55.4782 21.0618 55.2339 20.301 55.2339C18.9713 55.2339 18.3064 56.2791 18.3064 58.3696C18.3064 59.4087 18.4703 60.1849 18.7981 60.6982C19.1321 61.2116 19.6485 61.4683 20.3474 61.4683ZM25.116 63.5186C25.116 65.0091 24.6799 66.1379 23.8079 66.9048C22.942 67.6779 21.6493 68.0645 19.9299 68.0645C18.4146 68.0645 17.122 67.8604 16.052 67.4521V65.1885C17.3075 65.7204 18.6558 65.9863 20.0969 65.9863C21.5504 65.9863 22.2771 65.2008 22.2771 63.6299V63.4258L22.3606 62.1548H22.2771C21.6153 63.1753 20.635 63.6855 19.3362 63.6855C18.093 63.6855 17.1282 63.2062 16.4417 62.2476C15.7613 61.2889 15.4211 59.9839 15.4211 58.3325C15.4211 56.6317 15.7737 55.3081 16.4788 54.3618C17.19 53.4093 18.1672 52.9331 19.4104 52.9331C20.6845 52.9331 21.6864 53.4403 22.4163 54.4546H22.4905L22.7224 53.1279H25.116V63.5186ZM34.6624 63.5L34.115 62.0898H34.0408C33.5645 62.6898 33.0728 63.1073 32.5657 63.3423C32.0647 63.5711 31.4091 63.6855 30.5989 63.6855C29.6031 63.6855 28.8176 63.401 28.2424 62.832C27.6734 62.263 27.3889 61.4528 27.3889 60.4014C27.3889 59.3005 27.7724 58.4902 28.5393 57.9707C29.3124 57.445 30.4752 57.1543 32.0276 57.0986L33.8274 57.043V56.5884C33.8274 55.5369 33.2893 55.0112 32.2131 55.0112C31.3844 55.0112 30.4102 55.2617 29.2908 55.7627L28.3538 53.8516C29.5474 53.2269 30.871 52.9146 32.3245 52.9146C33.7161 52.9146 34.783 53.2176 35.5251 53.8237C36.2673 54.4299 36.6384 55.3514 36.6384 56.5884V63.5H34.6624ZM33.8274 58.6943L32.7327 58.7314C31.9101 58.7562 31.2978 58.9046 30.8958 59.1768C30.4937 59.4489 30.2927 59.8633 30.2927 60.4199C30.2927 61.2178 30.7504 61.6167 31.6658 61.6167C32.3214 61.6167 32.844 61.4281 33.2336 61.0508C33.6295 60.6735 33.8274 60.1725 33.8274 59.5479V58.6943ZM48.8474 63.5H46.0178V57.4419C46.0178 56.6935 45.891 56.1338 45.6375 55.7627C45.3901 55.3854 44.9973 55.1968 44.4592 55.1968C43.7356 55.1968 43.2099 55.4627 42.8821 55.9946C42.5543 56.5265 42.3904 57.4017 42.3904 58.6201V63.5H39.5608V53.1279H41.7224L42.1028 54.4546H42.2605C42.5388 53.9784 42.9408 53.6073 43.4666 53.3413C43.9923 53.0692 44.5953 52.9331 45.2756 52.9331C46.828 52.9331 47.8795 53.4403 48.4299 54.4546H48.6804C48.9587 53.9722 49.3669 53.598 49.905 53.332C50.4493 53.0661 51.0616 52.9331 51.7419 52.9331C52.9171 52.9331 53.8046 53.2362 54.4045 53.8423C55.0107 54.4422 55.3137 55.4071 55.3137 56.7368V63.5H52.4749V57.4419C52.4749 56.6935 52.3481 56.1338 52.0945 55.7627C51.8471 55.3854 51.4543 55.1968 50.9163 55.1968C50.2236 55.1968 49.704 55.4442 49.3577 55.939C49.0175 56.4338 48.8474 57.2192 48.8474 58.2954V63.5ZM58.1062 50.4468C58.1062 49.5252 58.6195 49.0645 59.6462 49.0645C60.6729 49.0645 61.1863 49.5252 61.1863 50.4468C61.1863 50.8859 61.0564 51.2292 60.7966 51.4766C60.5431 51.7178 60.1596 51.8384 59.6462 51.8384C58.6195 51.8384 58.1062 51.3745 58.1062 50.4468ZM61.0564 63.5H58.2268V53.1279H61.0564V63.5ZM69.7678 55.2524H67.3186V63.5H64.489V55.2524H62.9304V53.8887L64.489 53.1279V52.3672C64.489 51.1859 64.7797 50.3231 65.3611 49.7788C65.9425 49.2345 66.8733 48.9624 68.1536 48.9624C69.1308 48.9624 69.9998 49.1077 70.7605 49.3984L70.0369 51.4766C69.4679 51.2972 68.9421 51.2075 68.4597 51.2075C68.0577 51.2075 67.767 51.3281 67.5876 51.5693C67.4083 51.8044 67.3186 52.1074 67.3186 52.4785V53.1279H69.7678V55.2524ZM71.28 50.4468C71.28 49.5252 71.7934 49.0645 72.8201 49.0645C73.8468 49.0645 74.3601 49.5252 74.3601 50.4468C74.3601 50.8859 74.2302 51.2292 73.9705 51.4766C73.7169 51.7178 73.3334 51.8384 72.8201 51.8384C71.7934 51.8384 71.28 51.3745 71.28 50.4468ZM74.2302 63.5H71.4006V53.1279H74.2302V63.5ZM81.5037 54.9463C80.9037 54.9463 80.4337 55.138 80.0935 55.5215C79.7533 55.8988 79.5585 56.4368 79.509 57.1357H83.4797C83.4674 56.4368 83.2849 55.8988 82.9324 55.5215C82.5798 55.138 82.1036 54.9463 81.5037 54.9463ZM81.9026 63.6855C80.2327 63.6855 78.9277 63.2248 77.9875 62.3032C77.0474 61.3817 76.5774 60.0767 76.5774 58.3882C76.5774 56.6502 77.0103 55.3081 77.8762 54.3618C78.7483 53.4093 79.9513 52.9331 81.4851 52.9331C82.9509 52.9331 84.092 53.3506 84.9084 54.1855C85.7249 55.0205 86.1331 56.174 86.1331 57.646V59.019H79.4441C79.475 59.8231 79.7131 60.4508 80.1584 60.9023C80.6038 61.3538 81.2284 61.5796 82.0325 61.5796C82.6571 61.5796 83.2478 61.5146 83.8044 61.3848C84.3611 61.2549 84.9425 61.0477 85.5486 60.7632V62.9526C85.0538 63.2 84.525 63.3825 83.9622 63.5C83.3993 63.6237 82.7128 63.6855 81.9026 63.6855ZM91.718 63.6855C90.4996 63.6855 89.5409 63.2124 88.842 62.2661C88.1493 61.3198 87.803 60.0086 87.803 58.3325C87.803 56.6317 88.1555 55.3081 88.8606 54.3618C89.5719 53.4093 90.5491 52.9331 91.7922 52.9331C93.0972 52.9331 94.093 53.4403 94.7795 54.4546H94.8723C94.7301 53.6815 94.6589 52.9919 94.6589 52.3857V49.0645H97.4978V63.5H95.3269L94.7795 62.1548H94.6589C94.0157 63.1753 93.0354 63.6855 91.718 63.6855ZM92.7107 61.4312C93.4343 61.4312 93.9631 61.2209 94.2971 60.8003C94.6373 60.3797 94.8228 59.6654 94.8538 58.6572V58.3511C94.8538 57.2378 94.6806 56.4399 94.3342 55.9575C93.9941 55.4751 93.4374 55.2339 92.6643 55.2339C92.0334 55.2339 91.5417 55.5029 91.1892 56.041C90.8429 56.5729 90.6697 57.3491 90.6697 58.3696C90.6697 59.3901 90.8459 60.1571 91.1985 60.6704C91.551 61.1776 92.0551 61.4312 92.7107 61.4312ZM111.182 52.9331C111.565 52.9331 111.884 52.9609 112.137 53.0166L111.924 55.6699C111.695 55.6081 111.417 55.5771 111.089 55.5771C110.186 55.5771 109.481 55.8091 108.974 56.2729C108.473 56.7368 108.222 57.3862 108.222 58.2212V63.5H105.393V53.1279H107.536L107.953 54.8721H108.093C108.414 54.2907 108.847 53.8237 109.391 53.4712C109.942 53.1125 110.539 52.9331 111.182 52.9331ZM118.131 54.9463C117.531 54.9463 117.061 55.138 116.72 55.5215C116.38 55.8988 116.185 56.4368 116.136 57.1357H120.107C120.094 56.4368 119.912 55.8988 119.559 55.5215C119.207 55.138 118.731 54.9463 118.131 54.9463ZM118.53 63.6855C116.86 63.6855 115.555 63.2248 114.615 62.3032C113.674 61.3817 113.204 60.0767 113.204 58.3882C113.204 56.6502 113.637 55.3081 114.503 54.3618C115.375 53.4093 116.578 52.9331 118.112 52.9331C119.578 52.9331 120.719 53.3506 121.535 54.1855C122.352 55.0205 122.76 56.174 122.76 57.646V59.019H116.071C116.102 59.8231 116.34 60.4508 116.785 60.9023C117.231 61.3538 117.855 61.5796 118.659 61.5796C119.284 61.5796 119.875 61.5146 120.431 61.3848C120.988 61.2549 121.569 61.0477 122.176 60.7632V62.9526C121.681 63.2 121.152 63.3825 120.589 63.5C120.026 63.6237 119.34 63.6855 118.53 63.6855ZM132.297 60.4199C132.297 61.4837 131.926 62.2939 131.184 62.8506C130.448 63.4072 129.344 63.6855 127.872 63.6855C127.117 63.6855 126.474 63.633 125.942 63.5278C125.41 63.4289 124.912 63.2804 124.448 63.0825V60.7446C124.974 60.992 125.565 61.1992 126.22 61.3662C126.882 61.5332 127.464 61.6167 127.965 61.6167C128.991 61.6167 129.505 61.3198 129.505 60.7261C129.505 60.5034 129.437 60.3241 129.301 60.188C129.164 60.0457 128.929 59.888 128.595 59.7148C128.261 59.5355 127.816 59.3283 127.26 59.0933C126.462 58.7593 125.874 58.45 125.497 58.1655C125.126 57.881 124.854 57.5563 124.68 57.1914C124.513 56.8203 124.43 56.3657 124.43 55.8276C124.43 54.9061 124.786 54.1948 125.497 53.6938C126.214 53.1867 127.229 52.9331 128.54 52.9331C129.789 52.9331 131.004 53.2052 132.186 53.7495L131.332 55.7905C130.813 55.5679 130.327 55.3854 129.876 55.2432C129.424 55.1009 128.963 55.0298 128.493 55.0298C127.658 55.0298 127.241 55.2555 127.241 55.707C127.241 55.9606 127.374 56.1802 127.64 56.3657C127.912 56.5513 128.503 56.8265 129.412 57.1914C130.222 57.5192 130.816 57.8254 131.193 58.1099C131.57 58.3944 131.849 58.7222 132.028 59.0933C132.207 59.4644 132.297 59.9066 132.297 60.4199ZM136.76 58.2954C136.76 59.3221 136.927 60.0983 137.26 60.624C137.601 61.1497 138.151 61.4126 138.912 61.4126C139.666 61.4126 140.208 61.1528 140.535 60.6333C140.869 60.1076 141.036 59.3283 141.036 58.2954C141.036 57.2687 140.869 56.4987 140.535 55.9854C140.201 55.472 139.654 55.2153 138.893 55.2153C138.139 55.2153 137.594 55.472 137.26 55.9854C136.927 56.4925 136.76 57.2625 136.76 58.2954ZM143.931 58.2954C143.931 59.9839 143.486 61.3044 142.595 62.2568C141.704 63.2093 140.464 63.6855 138.875 63.6855C137.879 63.6855 137.001 63.4691 136.24 63.0361C135.479 62.597 134.895 61.9692 134.487 61.1528C134.078 60.3364 133.874 59.384 133.874 58.2954C133.874 56.6007 134.316 55.2834 135.201 54.3433C136.085 53.4032 137.329 52.9331 138.93 52.9331C139.926 52.9331 140.804 53.1496 141.565 53.5825C142.326 54.0155 142.91 54.637 143.319 55.4473C143.727 56.2575 143.931 57.2069 143.931 58.2954ZM153.616 63.5L153.236 62.1733H153.088C152.785 62.6558 152.355 63.0299 151.798 63.2959C151.241 63.5557 150.608 63.6855 149.896 63.6855C148.678 63.6855 147.759 63.3608 147.141 62.7114C146.522 62.0558 146.213 61.1157 146.213 59.8911V53.1279H149.043V59.186C149.043 59.9344 149.176 60.4972 149.442 60.8745C149.708 61.2456 150.131 61.4312 150.713 61.4312C151.504 61.4312 152.076 61.1683 152.429 60.6426C152.781 60.1107 152.958 59.2324 152.958 58.0078V53.1279H155.787V63.5H153.616ZM164.545 52.9331C164.929 52.9331 165.247 52.9609 165.501 53.0166L165.287 55.6699C165.059 55.6081 164.78 55.5771 164.452 55.5771C163.549 55.5771 162.844 55.8091 162.337 56.2729C161.836 56.7368 161.586 57.3862 161.586 58.2212V63.5H158.756V53.1279H160.899L161.317 54.8721H161.456C161.777 54.2907 162.21 53.8237 162.755 53.4712C163.305 53.1125 163.902 52.9331 164.545 52.9331ZM171.41 63.6855C168.182 63.6855 166.568 61.9136 166.568 58.3696C166.568 56.6069 167.007 55.2617 167.885 54.334C168.763 53.4001 170.022 52.9331 171.661 52.9331C172.861 52.9331 173.937 53.1681 174.889 53.6382L174.054 55.8276C173.609 55.6483 173.195 55.5029 172.811 55.3916C172.428 55.2741 172.044 55.2153 171.661 55.2153C170.189 55.2153 169.453 56.2606 169.453 58.3511C169.453 60.3797 170.189 61.394 171.661 61.394C172.205 61.394 172.709 61.3229 173.173 61.1807C173.637 61.0322 174.101 60.8034 174.565 60.4941V62.9155C174.107 63.2062 173.643 63.4072 173.173 63.5186C172.709 63.6299 172.122 63.6855 171.41 63.6855ZM181.272 54.9463C180.672 54.9463 180.202 55.138 179.862 55.5215C179.522 55.8988 179.327 56.4368 179.278 57.1357H183.248C183.236 56.4368 183.053 55.8988 182.701 55.5215C182.348 55.138 181.872 54.9463 181.272 54.9463ZM181.671 63.6855C180.001 63.6855 178.696 63.2248 177.756 62.3032C176.816 61.3817 176.346 60.0767 176.346 58.3882C176.346 56.6502 176.779 55.3081 177.645 54.3618C178.517 53.4093 179.72 52.9331 181.254 52.9331C182.719 52.9331 183.861 53.3506 184.677 54.1855C185.493 55.0205 185.902 56.174 185.902 57.646V59.019H179.213C179.244 59.8231 179.482 60.4508 179.927 60.9023C180.372 61.3538 180.997 61.5796 181.801 61.5796C182.426 61.5796 183.016 61.5146 183.573 61.3848C184.13 61.2549 184.711 61.0477 185.317 60.7632V62.9526C184.822 63.2 184.294 63.3825 183.731 63.5C183.168 63.6237 182.481 63.6855 181.671 63.6855ZM195.439 60.4199C195.439 61.4837 195.068 62.2939 194.325 62.8506C193.589 63.4072 192.485 63.6855 191.013 63.6855C190.259 63.6855 189.616 63.633 189.084 63.5278C188.552 63.4289 188.054 63.2804 187.59 63.0825V60.7446C188.116 60.992 188.706 61.1992 189.362 61.3662C190.024 61.5332 190.605 61.6167 191.106 61.6167C192.133 61.6167 192.646 61.3198 192.646 60.7261C192.646 60.5034 192.578 60.3241 192.442 60.188C192.306 60.0457 192.071 59.888 191.737 59.7148C191.403 59.5355 190.958 59.3283 190.401 59.0933C189.603 58.7593 189.016 58.45 188.638 58.1655C188.267 57.881 187.995 57.5563 187.822 57.1914C187.655 56.8203 187.572 56.3657 187.572 55.8276C187.572 54.9061 187.927 54.1948 188.638 53.6938C189.356 53.1867 190.37 52.9331 191.681 52.9331C192.931 52.9331 194.146 53.2052 195.327 53.7495L194.474 55.7905C193.954 55.5679 193.469 55.3854 193.017 55.2432C192.566 55.1009 192.105 55.0298 191.635 55.0298C190.8 55.0298 190.383 55.2555 190.383 55.707C190.383 55.9606 190.516 56.1802 190.781 56.3657C191.054 56.5513 191.644 56.8265 192.553 57.1914C193.364 57.5192 193.957 57.8254 194.335 58.1099C194.712 58.3944 194.99 58.7222 195.17 59.0933C195.349 59.4644 195.439 59.9066 195.439 60.4199ZM199.558 59.0005V58.314C199.558 57.9985 199.589 57.714 199.651 57.4604C199.719 57.2007 199.818 56.9564 199.948 56.7275C200.084 56.4925 200.257 56.2668 200.467 56.0503C200.677 55.8276 200.931 55.5988 201.228 55.3638C201.488 55.1597 201.707 54.9772 201.886 54.8164C202.066 54.6556 202.211 54.4979 202.323 54.3433C202.434 54.1825 202.514 54.0155 202.564 53.8423C202.613 53.6691 202.638 53.4681 202.638 53.2393C202.638 52.8867 202.517 52.596 202.276 52.3672C202.041 52.1383 201.679 52.0239 201.191 52.0239C200.764 52.0239 200.303 52.1136 199.808 52.293C199.32 52.4723 198.813 52.6919 198.287 52.9517L197.341 50.9014C197.607 50.7467 197.894 50.6014 198.203 50.4653C198.519 50.3231 198.844 50.1994 199.177 50.0942C199.518 49.9829 199.861 49.8963 200.207 49.8345C200.554 49.7726 200.894 49.7417 201.228 49.7417C201.859 49.7417 202.428 49.819 202.935 49.9736C203.442 50.1221 203.872 50.3416 204.224 50.6323C204.577 50.923 204.846 51.2756 205.031 51.6899C205.223 52.1043 205.319 52.5775 205.319 53.1094C205.319 53.499 205.276 53.8485 205.189 54.1577C205.103 54.4608 204.973 54.7453 204.8 55.0112C204.633 55.271 204.419 55.5246 204.159 55.772C203.906 56.0132 203.609 56.2699 203.269 56.542C203.009 56.7461 202.796 56.9255 202.629 57.0801C202.468 57.2285 202.341 57.3708 202.248 57.5068C202.156 57.6429 202.091 57.7852 202.053 57.9336C202.023 58.0758 202.007 58.2459 202.007 58.4438V59.0005H199.558ZM199.252 62.1733C199.252 61.8826 199.292 61.6383 199.372 61.4404C199.459 61.2363 199.576 61.0724 199.725 60.9487C199.873 60.825 200.046 60.7354 200.244 60.6797C200.448 60.624 200.665 60.5962 200.894 60.5962C201.11 60.5962 201.314 60.624 201.506 60.6797C201.704 60.7354 201.877 60.825 202.026 60.9487C202.174 61.0724 202.292 61.2363 202.378 61.4404C202.465 61.6383 202.508 61.8826 202.508 62.1733C202.508 62.4517 202.465 62.6898 202.378 62.8877C202.292 63.0856 202.174 63.2495 202.026 63.3794C201.877 63.5093 201.704 63.6021 201.506 63.6577C201.314 63.7196 201.11 63.7505 200.894 63.7505C200.665 63.7505 200.448 63.7196 200.244 63.6577C200.046 63.6021 199.873 63.5093 199.725 63.3794C199.576 63.2495 199.459 63.0856 199.372 62.8877C199.292 62.6898 199.252 62.4517 199.252 62.1733Z"></path>
<path stroke-linejoin="round" stroke-miterlimit="10" stroke="#0B233F" fill="#F3F5F8" d="M309 15.667C309 7.56699 315.567 1 323.667 1H536.333C544.433 1 551 7.56699 551 15.667V74.333C551 82.433 544.433 89 536.333 89H323.667C315.567 89 309 82.433 309 74.333V15.667Z" clip-rule="evenodd" fill-rule="evenodd"></path>
<path fill="#0B233F" d="M334.978 41.5H332.983L325.719 30.2373H325.645L325.691 30.9888C325.765 32.1144 325.802 33.0916 325.802 33.9204V41.5H324.225V27.9365H326.201L326.619 28.5952L331.072 35.479L333.438 39.1621H333.512C333.499 39.0137 333.475 38.4849 333.438 37.5757C333.4 36.6603 333.382 35.9985 333.382 35.5903V27.9365H334.978V41.5ZM344.719 41.5L344.394 40.0527H344.32C343.813 40.6898 343.306 41.1227 342.798 41.3516C342.297 41.5742 341.663 41.6855 340.896 41.6855C339.895 41.6855 339.109 41.4227 338.54 40.897C337.971 40.3713 337.687 39.6291 337.687 38.6704C337.687 36.6047 339.316 35.5223 342.576 35.4233L344.301 35.3584V34.7554C344.301 33.9823 344.134 33.4132 343.8 33.0483C343.466 32.6772 342.931 32.4917 342.195 32.4917C341.657 32.4917 341.147 32.5721 340.665 32.7329C340.188 32.8937 339.74 33.0731 339.319 33.271L338.809 32.0186C339.322 31.7464 339.882 31.533 340.488 31.3784C341.094 31.2238 341.694 31.1465 342.288 31.1465C343.519 31.1465 344.434 31.4186 345.034 31.9629C345.634 32.5072 345.934 33.373 345.934 34.5605V41.5H344.719ZM341.277 40.3403C342.211 40.3403 342.944 40.0898 343.476 39.5889C344.014 39.0817 344.283 38.3643 344.283 37.4365V36.5181L342.78 36.583C341.611 36.6263 340.757 36.8118 340.219 37.1396C339.687 37.4674 339.421 37.9839 339.421 38.689C339.421 39.2209 339.582 39.6291 339.904 39.9136C340.232 40.1981 340.689 40.3403 341.277 40.3403ZM351.343 41.5L347.483 31.3135H349.274L351.436 37.3159C351.862 38.522 352.134 39.4219 352.252 40.0156H352.326C352.345 39.9352 352.366 39.8455 352.391 39.7466C352.422 39.6414 352.456 39.5301 352.493 39.4126C352.53 39.2889 352.759 38.59 353.18 37.3159L355.351 31.3135H357.132L353.263 41.5H351.343ZM360.416 41.5H358.746V31.3135H360.416V41.5ZM358.616 28.5581C358.616 28.187 358.709 27.918 358.895 27.751C359.086 27.584 359.321 27.5005 359.6 27.5005C359.859 27.5005 360.085 27.584 360.277 27.751C360.475 27.918 360.574 28.187 360.574 28.5581C360.574 28.923 360.475 29.1921 360.277 29.3652C360.085 29.5384 359.859 29.625 359.6 29.625C359.321 29.625 359.086 29.5384 358.895 29.3652C358.709 29.1921 358.616 28.923 358.616 28.5581ZM367.522 40.3218C368.549 40.3218 369.294 40.0465 369.758 39.4961C370.228 38.9395 370.463 38.0488 370.463 36.8242V36.4253C370.463 35.0646 370.228 34.075 369.758 33.4565C369.288 32.8381 368.531 32.5288 367.485 32.5288C366.632 32.5288 365.97 32.869 365.5 33.5493C365.036 34.2235 364.804 35.1883 364.804 36.4438C364.804 37.7056 365.03 38.6673 365.481 39.3291C365.939 39.9909 366.619 40.3218 367.522 40.3218ZM370.445 41.4072L370.5 40.1548H370.426C369.74 41.1753 368.688 41.6855 367.272 41.6855C365.955 41.6855 364.925 41.2279 364.183 40.3125C363.447 39.391 363.079 38.0952 363.079 36.4253C363.079 34.7863 363.45 33.4937 364.192 32.5474C364.94 31.6011 365.961 31.1279 367.253 31.1279C368.633 31.1279 369.696 31.6413 370.445 32.668H370.547L370.77 31.3135H372.096V41.667C372.096 43.1266 371.725 44.2244 370.983 44.9604C370.247 45.6965 369.1 46.0645 367.541 46.0645C366.057 46.0645 364.835 45.848 363.876 45.415V43.875C364.866 44.4069 366.118 44.6729 367.634 44.6729C368.5 44.6729 369.183 44.4193 369.684 43.9121C370.191 43.4049 370.445 42.703 370.445 41.8062V41.4072ZM381.624 41.5L381.299 40.0527H381.225C380.718 40.6898 380.211 41.1227 379.704 41.3516C379.203 41.5742 378.569 41.6855 377.802 41.6855C376.8 41.6855 376.014 41.4227 375.445 40.897C374.876 40.3713 374.592 39.6291 374.592 38.6704C374.592 36.6047 376.222 35.5223 379.481 35.4233L381.207 35.3584V34.7554C381.207 33.9823 381.04 33.4132 380.706 33.0483C380.372 32.6772 379.837 32.4917 379.101 32.4917C378.562 32.4917 378.052 32.5721 377.57 32.7329C377.094 32.8937 376.645 33.0731 376.225 33.271L375.714 32.0186C376.228 31.7464 376.787 31.533 377.394 31.3784C378 31.2238 378.6 31.1465 379.193 31.1465C380.424 31.1465 381.34 31.4186 381.939 31.9629C382.539 32.5072 382.839 33.373 382.839 34.5605V41.5H381.624ZM378.182 40.3403C379.116 40.3403 379.849 40.0898 380.381 39.5889C380.919 39.0817 381.188 38.3643 381.188 37.4365V36.5181L379.685 36.583C378.516 36.6263 377.663 36.8118 377.125 37.1396C376.593 37.4674 376.327 37.9839 376.327 38.689C376.327 39.2209 376.487 39.6291 376.809 39.9136C377.137 40.1981 377.595 40.3403 378.182 40.3403ZM389.408 40.3218C389.624 40.3218 389.878 40.3001 390.168 40.2568C390.459 40.2135 390.679 40.1641 390.827 40.1084V41.3887C390.673 41.4567 390.431 41.5216 390.104 41.5835C389.782 41.6515 389.454 41.6855 389.12 41.6855C387.129 41.6855 386.133 40.6372 386.133 38.5405V32.6123H384.695V31.8145L386.151 31.1465L386.819 28.9756H387.812V31.3135H390.753V32.6123H387.812V38.4941C387.812 39.0817 387.951 39.5332 388.229 39.8486C388.514 40.1641 388.907 40.3218 389.408 40.3218ZM397.201 41.6855C395.673 41.6855 394.473 41.2248 393.601 40.3032C392.735 39.3755 392.302 38.1014 392.302 36.481C392.302 34.8481 392.707 33.5493 393.518 32.5845C394.328 31.6134 395.423 31.1279 396.802 31.1279C398.082 31.1279 399.103 31.5423 399.863 32.3711C400.624 33.1937 401.004 34.3101 401.004 35.7202V36.7314H394.028C394.059 37.888 394.353 38.7663 394.909 39.3662C395.466 39.9661 396.254 40.2661 397.275 40.2661C397.819 40.2661 398.336 40.2197 398.824 40.127C399.313 40.028 399.885 39.8394 400.541 39.561V41.0269C399.978 41.2681 399.449 41.4382 398.954 41.5371C398.459 41.6361 397.875 41.6855 397.201 41.6855ZM396.783 32.4917C395.985 32.4917 395.354 32.7484 394.891 33.2617C394.427 33.7751 394.152 34.4894 394.065 35.4048H399.251C399.239 34.4523 399.019 33.7287 398.592 33.2339C398.166 32.7391 397.562 32.4917 396.783 32.4917ZM414.818 41.5L414.494 40.0527H414.419C413.912 40.6898 413.405 41.1227 412.898 41.3516C412.397 41.5742 411.763 41.6855 410.996 41.6855C409.994 41.6855 409.209 41.4227 408.64 40.897C408.071 40.3713 407.786 39.6291 407.786 38.6704C407.786 36.6047 409.416 35.5223 412.675 35.4233L414.401 35.3584V34.7554C414.401 33.9823 414.234 33.4132 413.9 33.0483C413.566 32.6772 413.031 32.4917 412.295 32.4917C411.757 32.4917 411.247 32.5721 410.764 32.7329C410.288 32.8937 409.84 33.0731 409.419 33.271L408.909 32.0186C409.422 31.7464 409.982 31.533 410.588 31.3784C411.194 31.2238 411.794 31.1465 412.388 31.1465C413.618 31.1465 414.534 31.4186 415.134 31.9629C415.734 32.5072 416.034 33.373 416.034 34.5605V41.5H414.818ZM411.376 40.3403C412.31 40.3403 413.043 40.0898 413.575 39.5889C414.113 39.0817 414.382 38.3643 414.382 37.4365V36.5181L412.879 36.583C411.71 36.6263 410.857 36.8118 410.319 37.1396C409.787 37.4674 409.521 37.9839 409.521 38.689C409.521 39.2209 409.682 39.6291 410.003 39.9136C410.331 40.1981 410.789 40.3403 411.376 40.3403ZM430.256 34.3379H434.941V40.9897C434.223 41.2186 433.494 41.3918 432.751 41.5093C432.009 41.6268 431.15 41.6855 430.172 41.6855C428.107 41.6855 426.508 41.0732 425.376 39.8486C424.244 38.624 423.678 36.9139 423.678 34.7183C423.678 33.3019 423.96 32.0649 424.522 31.0073C425.085 29.9497 425.896 29.1426 426.953 28.5859C428.017 28.0231 429.269 27.7417 430.71 27.7417C432.158 27.7417 433.506 28.0076 434.755 28.5396L434.106 30.0239C432.912 29.5044 431.746 29.2446 430.608 29.2446C428.994 29.2446 427.732 29.7332 426.823 30.7104C425.914 31.6877 425.459 33.0236 425.459 34.7183C425.459 36.5119 425.896 37.8757 426.768 38.8096C427.64 39.7435 428.908 40.2104 430.571 40.2104C431.48 40.2104 432.368 40.1022 433.234 39.8857V35.8594H430.256V34.3379ZM444.265 41.5L443.94 40.0527H443.866C443.359 40.6898 442.851 41.1227 442.344 41.3516C441.843 41.5742 441.209 41.6855 440.442 41.6855C439.44 41.6855 438.655 41.4227 438.086 40.897C437.517 40.3713 437.232 39.6291 437.232 38.6704C437.232 36.6047 438.862 35.5223 442.122 35.4233L443.847 35.3584V34.7554C443.847 33.9823 443.68 33.4132 443.346 33.0483C443.012 32.6772 442.477 32.4917 441.741 32.4917C441.203 32.4917 440.693 32.5721 440.21 32.7329C439.734 32.8937 439.286 33.0731 438.865 33.271L438.355 32.0186C438.868 31.7464 439.428 31.533 440.034 31.3784C440.64 31.2238 441.24 31.1465 441.834 31.1465C443.065 31.1465 443.98 31.4186 444.58 31.9629C445.18 32.5072 445.48 33.373 445.48 34.5605V41.5H444.265ZM440.823 40.3403C441.757 40.3403 442.49 40.0898 443.021 39.5889C443.56 39.0817 443.829 38.3643 443.829 37.4365V36.5181L442.326 36.583C441.157 36.6263 440.303 36.8118 439.765 37.1396C439.233 37.4674 438.967 37.9839 438.967 38.689C438.967 39.2209 439.128 39.6291 439.45 39.9136C439.778 40.1981 440.235 40.3403 440.823 40.3403ZM461.604 41.5V34.9409C461.604 33.3328 460.914 32.5288 459.535 32.5288C458.589 32.5288 457.893 32.804 457.448 33.3545C457.002 33.9049 456.78 34.7461 456.78 35.8779V41.5H455.119V34.9409C455.119 34.1369 454.949 33.5339 454.609 33.1318C454.275 32.7298 453.749 32.5288 453.032 32.5288C452.092 32.5288 451.402 32.8164 450.963 33.3916C450.53 33.9668 450.313 34.91 450.313 36.2212V41.5H448.644V31.3135H449.989L450.239 32.7051H450.332C450.623 32.2103 451.031 31.8237 451.557 31.5454C452.089 31.2671 452.682 31.1279 453.338 31.1279C454.934 31.1279 455.973 31.6969 456.455 32.835H456.548C456.876 32.2907 457.321 31.8701 457.884 31.5732C458.453 31.2764 459.096 31.1279 459.813 31.1279C460.964 31.1279 461.824 31.4248 462.393 32.0186C462.968 32.6123 463.255 33.5617 463.255 34.8667V41.5H461.604ZM468.089 41.5H466.419V31.3135H468.089V41.5ZM466.289 28.5581C466.289 28.187 466.382 27.918 466.567 27.751C466.759 27.584 466.994 27.5005 467.272 27.5005C467.532 27.5005 467.758 27.584 467.95 27.751C468.148 27.918 468.247 28.187 468.247 28.5581C468.247 28.923 468.148 29.1921 467.95 29.3652C467.758 29.5384 467.532 29.625 467.272 29.625C466.994 29.625 466.759 29.5384 466.567 29.3652C466.382 29.1921 466.289 28.923 466.289 28.5581ZM476.012 32.6123H473.442V41.5H471.772V32.6123H469.991V31.833L471.772 31.2578V30.6733C471.772 29.4364 472.041 28.5086 472.579 27.8901C473.123 27.2716 473.958 26.9624 475.084 26.9624C475.733 26.9624 476.392 27.0768 477.06 27.3057L476.615 28.6138C476.04 28.4282 475.535 28.3354 475.103 28.3354C474.54 28.3354 474.122 28.521 473.85 28.8921C473.578 29.2632 473.442 29.8507 473.442 30.6548V31.3135H476.012V32.6123ZM479.537 41.5H477.867V31.3135H479.537V41.5ZM477.737 28.5581C477.737 28.187 477.83 27.918 478.016 27.751C478.207 27.584 478.442 27.5005 478.721 27.5005C478.98 27.5005 479.206 27.584 479.398 27.751C479.596 27.918 479.695 28.187 479.695 28.5581C479.695 28.923 479.596 29.1921 479.398 29.3652C479.206 29.5384 478.98 29.625 478.721 29.625C478.442 29.625 478.207 29.5384 478.016 29.3652C477.83 29.1921 477.737 28.923 477.737 28.5581ZM487.098 41.6855C485.57 41.6855 484.371 41.2248 483.499 40.3032C482.633 39.3755 482.2 38.1014 482.2 36.481C482.2 34.8481 482.605 33.5493 483.415 32.5845C484.225 31.6134 485.32 31.1279 486.699 31.1279C487.979 31.1279 489 31.5423 489.761 32.3711C490.521 33.1937 490.902 34.3101 490.902 35.7202V36.7314H483.925C483.956 37.888 484.25 38.7663 484.807 39.3662C485.363 39.9661 486.152 40.2661 487.172 40.2661C487.717 40.2661 488.233 40.2197 488.722 40.127C489.21 40.028 489.782 39.8394 490.438 39.561V41.0269C489.875 41.2681 489.346 41.4382 488.852 41.5371C488.357 41.6361 487.772 41.6855 487.098 41.6855ZM486.681 32.4917C485.883 32.4917 485.252 32.7484 484.788 33.2617C484.324 33.7751 484.049 34.4894 483.962 35.4048H489.148C489.136 34.4523 488.917 33.7287 488.49 33.2339C488.063 32.7391 487.46 32.4917 486.681 32.4917ZM497.099 41.6855C495.776 41.6855 494.749 41.2279 494.019 40.3125C493.289 39.3971 492.924 38.1014 492.924 36.4253C492.924 34.7616 493.289 33.4627 494.019 32.5288C494.755 31.5949 495.788 31.1279 497.118 31.1279C498.485 31.1279 499.536 31.6289 500.272 32.6309H500.393C500.374 32.5072 500.349 32.2598 500.318 31.8887C500.287 31.5114 500.272 31.2578 500.272 31.1279V27.0645H501.942V41.5H500.597L500.346 40.1362H500.272C499.561 41.1691 498.503 41.6855 497.099 41.6855ZM497.368 40.3032C498.382 40.3032 499.122 40.028 499.585 39.4775C500.056 38.9209 500.291 38.0117 500.291 36.75V36.4438C500.291 35.0275 500.052 34.0194 499.576 33.4194C499.106 32.8133 498.364 32.5103 497.35 32.5103C496.49 32.5103 495.825 32.8535 495.355 33.54C494.885 34.2204 494.65 35.1945 494.65 36.4624C494.65 37.7241 494.882 38.6797 495.346 39.3291C495.816 39.9785 496.49 40.3032 497.368 40.3032Z"></path>
<path fill="#0B233F" d="M332.732 63.5L331.1 59.2974H325.719L324.104 63.5H322.379L327.676 49.8809H329.216L334.504 63.5H332.732ZM330.589 57.7852L329.068 53.6753L328.418 51.6436C328.233 52.3857 328.038 53.063 327.834 53.6753L326.294 57.7852H330.589ZM342.78 60.689C342.78 61.6414 342.424 62.3805 341.713 62.9062C341.002 63.4258 340.003 63.6855 338.716 63.6855C337.374 63.6855 336.307 63.4722 335.516 63.0454V61.5239C336.635 62.0682 337.714 62.3403 338.753 62.3403C339.595 62.3403 340.207 62.2043 340.59 61.9321C340.974 61.66 341.166 61.2951 341.166 60.8374C341.166 60.4354 340.98 60.0952 340.609 59.8169C340.244 59.5386 339.591 59.2201 338.651 58.8613C337.693 58.4902 337.019 58.1748 336.629 57.915C336.239 57.6491 335.952 57.3522 335.766 57.0244C335.587 56.6966 335.497 56.2977 335.497 55.8276C335.497 54.9927 335.837 54.334 336.518 53.8516C337.198 53.3691 338.132 53.1279 339.319 53.1279C340.476 53.1279 341.558 53.3568 342.566 53.8145L342 55.1411C340.968 54.7082 340.037 54.4917 339.208 54.4917C338.515 54.4917 337.99 54.603 337.631 54.8257C337.272 55.0422 337.093 55.3421 337.093 55.7256C337.093 56.0967 337.247 56.4059 337.557 56.6533C337.866 56.8945 338.586 57.2316 339.718 57.6646C340.566 57.98 341.19 58.2738 341.592 58.5459C342 58.818 342.3 59.1242 342.492 59.4644C342.684 59.8045 342.78 60.2127 342.78 60.689ZM351.89 60.689C351.89 61.6414 351.535 62.3805 350.823 62.9062C350.112 63.4258 349.113 63.6855 347.827 63.6855C346.485 63.6855 345.418 63.4722 344.626 63.0454V61.5239C345.745 62.0682 346.825 62.3403 347.864 62.3403C348.705 62.3403 349.317 62.2043 349.701 61.9321C350.084 61.66 350.276 61.2951 350.276 60.8374C350.276 60.4354 350.09 60.0952 349.719 59.8169C349.354 59.5386 348.702 59.2201 347.762 58.8613C346.803 58.4902 346.129 58.1748 345.739 57.915C345.35 57.6491 345.062 57.3522 344.876 57.0244C344.697 56.6966 344.607 56.2977 344.607 55.8276C344.607 54.9927 344.948 54.334 345.628 53.8516C346.308 53.3691 347.242 53.1279 348.43 53.1279C349.586 53.1279 350.669 53.3568 351.677 53.8145L351.111 55.1411C350.078 54.7082 349.147 54.4917 348.318 54.4917C347.626 54.4917 347.1 54.603 346.741 54.8257C346.382 55.0422 346.203 55.3421 346.203 55.7256C346.203 56.0967 346.358 56.4059 346.667 56.6533C346.976 56.8945 347.697 57.2316 348.829 57.6646C349.676 57.98 350.301 58.2738 350.703 58.5459C351.111 58.818 351.411 59.1242 351.603 59.4644C351.794 59.8045 351.89 60.2127 351.89 60.689ZM356.037 63.5H354.367V53.3135H356.037V63.5ZM354.237 50.5581C354.237 50.187 354.33 49.918 354.516 49.751C354.707 49.584 354.942 49.5005 355.221 49.5005C355.48 49.5005 355.706 49.584 355.898 49.751C356.096 49.918 356.195 50.187 356.195 50.5581C356.195 50.923 356.096 51.1921 355.898 51.3652C355.706 51.5384 355.48 51.625 355.221 51.625C354.942 51.625 354.707 51.5384 354.516 51.3652C354.33 51.1921 354.237 50.923 354.237 50.5581ZM363.144 62.3218C364.17 62.3218 364.916 62.0465 365.379 61.4961C365.849 60.9395 366.084 60.0488 366.084 58.8242V58.4253C366.084 57.0646 365.849 56.075 365.379 55.4565C364.909 54.8381 364.152 54.5288 363.106 54.5288C362.253 54.5288 361.591 54.869 361.121 55.5493C360.657 56.2235 360.425 57.1883 360.425 58.4438C360.425 59.7056 360.651 60.6673 361.103 61.3291C361.56 61.9909 362.241 62.3218 363.144 62.3218ZM366.066 63.4072L366.122 62.1548H366.047C365.361 63.1753 364.309 63.6855 362.893 63.6855C361.576 63.6855 360.546 63.2279 359.804 62.3125C359.068 61.391 358.7 60.0952 358.7 58.4253C358.7 56.7863 359.071 55.4937 359.813 54.5474C360.561 53.6011 361.582 53.1279 362.875 53.1279C364.254 53.1279 365.318 53.6413 366.066 54.668H366.168L366.391 53.3135H367.717V63.667C367.717 65.1266 367.346 66.2244 366.604 66.9604C365.868 67.6965 364.721 68.0645 363.162 68.0645C361.678 68.0645 360.456 67.848 359.498 67.415V65.875C360.487 66.4069 361.74 66.6729 363.255 66.6729C364.121 66.6729 364.804 66.4193 365.305 65.9121C365.812 65.4049 366.066 64.703 366.066 63.8062V63.4072ZM377.895 63.5V56.9873C377.895 56.1585 377.709 55.5431 377.338 55.1411C376.973 54.7329 376.398 54.5288 375.612 54.5288C374.567 54.5288 373.806 54.8195 373.33 55.4009C372.86 55.9761 372.625 56.9162 372.625 58.2212V63.5H370.955V53.3135H372.3L372.551 54.7051H372.644C372.959 54.2041 373.401 53.8175 373.97 53.5454C374.539 53.2671 375.167 53.1279 375.854 53.1279C377.103 53.1279 378.031 53.431 378.637 54.0371C379.243 54.6432 379.546 55.5864 379.546 56.8667V63.5H377.895ZM395.661 63.5V56.9409C395.661 55.3328 394.971 54.5288 393.592 54.5288C392.646 54.5288 391.95 54.804 391.504 55.3545C391.059 55.9049 390.836 56.7461 390.836 57.8779V63.5H389.176V56.9409C389.176 56.1369 389.006 55.5339 388.666 55.1318C388.332 54.7298 387.806 54.5288 387.088 54.5288C386.148 54.5288 385.459 54.8164 385.02 55.3916C384.587 55.9668 384.37 56.91 384.37 58.2212V63.5H382.7V53.3135H384.045L384.296 54.7051H384.389C384.679 54.2103 385.088 53.8237 385.613 53.5454C386.145 53.2671 386.739 53.1279 387.395 53.1279C388.99 53.1279 390.029 53.6969 390.512 54.835H390.604C390.932 54.2907 391.378 53.8701 391.94 53.5732C392.509 53.2764 393.153 53.1279 393.87 53.1279C395.021 53.1279 395.88 53.4248 396.449 54.0186C397.024 54.6123 397.312 55.5617 397.312 56.8667V63.5H395.661ZM404.808 63.6855C403.28 63.6855 402.081 63.2248 401.208 62.3032C400.343 61.3755 399.91 60.1014 399.91 58.481C399.91 56.8481 400.315 55.5493 401.125 54.5845C401.935 53.6134 403.03 53.1279 404.409 53.1279C405.689 53.1279 406.71 53.5423 407.471 54.3711C408.231 55.1937 408.612 56.3101 408.612 57.7202V58.7314H401.635C401.666 59.888 401.96 60.7663 402.517 61.3662C403.073 61.9661 403.862 62.2661 404.882 62.2661C405.427 62.2661 405.943 62.2197 406.432 62.127C406.92 62.028 407.492 61.8394 408.148 61.561V63.0269C407.585 63.2681 407.056 63.4382 406.562 63.5371C406.067 63.6361 405.482 63.6855 404.808 63.6855ZM404.391 54.4917C403.593 54.4917 402.962 54.7484 402.498 55.2617C402.034 55.7751 401.759 56.4894 401.672 57.4048H406.858C406.846 56.4523 406.626 55.7287 406.2 55.2339C405.773 54.7391 405.17 54.4917 404.391 54.4917ZM418.14 63.5V56.9873C418.14 56.1585 417.954 55.5431 417.583 55.1411C417.218 54.7329 416.643 54.5288 415.857 54.5288C414.812 54.5288 414.051 54.8195 413.575 55.4009C413.105 55.9761 412.87 56.9162 412.87 58.2212V63.5H411.2V53.3135H412.545L412.796 54.7051H412.889C413.204 54.2041 413.646 53.8175 414.215 53.5454C414.784 53.2671 415.412 53.1279 416.099 53.1279C417.348 53.1279 418.276 53.431 418.882 54.0371C419.488 54.6432 419.791 55.5864 419.791 56.8667V63.5H418.14ZM426.35 62.3218C426.567 62.3218 426.82 62.3001 427.111 62.2568C427.402 62.2135 427.621 62.1641 427.77 62.1084V63.3887C427.615 63.4567 427.374 63.5216 427.046 63.5835C426.724 63.6515 426.396 63.6855 426.062 63.6855C424.071 63.6855 423.075 62.6372 423.075 60.5405V54.6123H421.637V53.8145L423.094 53.1465L423.762 50.9756H424.754V53.3135H427.695V54.6123H424.754V60.4941C424.754 61.0817 424.894 61.5332 425.172 61.8486C425.456 62.1641 425.849 62.3218 426.35 62.3218Z"></path>
<path fill="#E96969" d="M242.5 43.4995H275.366C275.918 43.4995 276.366 43.9475 276.366 44.4995V44.5625L275.366 43.5625H301.566V45.5625H275.366C274.814 45.5625 274.366 45.1145 274.366 44.5625V44.4995L275.366 45.4995H242.5V43.4995ZM300.232 40.5625L308.232 44.5625L300.232 48.5625V40.5625Z"></path>
<path stroke-linejoin="round" stroke-miterlimit="10" stroke="#0B233F" fill="#F3F5F8" d="M617 15.667C617 7.56699 623.567 1 631.667 1H844.333C852.433 1 859 7.56699 859 15.667V74.333C859 82.433 852.433 89 844.333 89H631.667C623.567 89 617 82.433 617 74.333V15.667Z" clip-rule="evenodd" fill-rule="evenodd"></path>
<path fill="#0B233F" d="M640.543 41.5L638.911 37.2974H633.53L631.916 41.5H630.19L635.487 27.8809H637.027L642.315 41.5H640.543ZM638.4 35.7852L636.879 31.6753L636.229 29.6436C636.044 30.3857 635.849 31.063 635.645 31.6753L634.105 35.7852H638.4ZM647.362 40.3218C647.579 40.3218 647.832 40.3001 648.123 40.2568C648.414 40.2135 648.633 40.1641 648.782 40.1084V41.3887C648.627 41.4567 648.386 41.5216 648.058 41.5835C647.736 41.6515 647.409 41.6855 647.075 41.6855C645.083 41.6855 644.087 40.6372 644.087 38.5405V32.6123H642.649V31.8145L644.106 31.1465L644.774 28.9756H645.767V31.3135H648.708V32.6123H645.767V38.4941C645.767 39.0817 645.906 39.5332 646.184 39.8486C646.469 40.1641 646.861 40.3218 647.362 40.3218ZM654.228 40.3218C654.444 40.3218 654.698 40.3001 654.988 40.2568C655.279 40.2135 655.499 40.1641 655.647 40.1084V41.3887C655.492 41.4567 655.251 41.5216 654.923 41.5835C654.602 41.6515 654.274 41.6855 653.94 41.6855C651.948 41.6855 650.953 40.6372 650.953 38.5405V32.6123H649.515V31.8145L650.971 31.1465L651.639 28.9756H652.632V31.3135H655.573V32.6123H652.632V38.4941C652.632 39.0817 652.771 39.5332 653.049 39.8486C653.334 40.1641 653.727 40.3218 654.228 40.3218ZM662.021 41.6855C660.493 41.6855 659.293 41.2248 658.421 40.3032C657.555 39.3755 657.122 38.1014 657.122 36.481C657.122 34.8481 657.527 33.5493 658.337 32.5845C659.148 31.6134 660.242 31.1279 661.622 31.1279C662.902 31.1279 663.922 31.5423 664.683 32.3711C665.444 33.1937 665.824 34.3101 665.824 35.7202V36.7314H658.848C658.879 37.888 659.172 38.7663 659.729 39.3662C660.286 39.9661 661.074 40.2661 662.095 40.2661C662.639 40.2661 663.155 40.2197 663.644 40.127C664.133 40.028 664.705 39.8394 665.36 39.561V41.0269C664.798 41.2681 664.269 41.4382 663.774 41.5371C663.279 41.6361 662.695 41.6855 662.021 41.6855ZM661.603 32.4917C660.805 32.4917 660.174 32.7484 659.71 33.2617C659.247 33.7751 658.971 34.4894 658.885 35.4048H664.071C664.058 34.4523 663.839 33.7287 663.412 33.2339C662.985 32.7391 662.382 32.4917 661.603 32.4917ZM681.373 41.5V34.9409C681.373 33.3328 680.683 32.5288 679.304 32.5288C678.358 32.5288 677.662 32.804 677.217 33.3545C676.771 33.9049 676.549 34.7461 676.549 35.8779V41.5H674.888V34.9409C674.888 34.1369 674.718 33.5339 674.378 33.1318C674.044 32.7298 673.518 32.5288 672.801 32.5288C671.861 32.5288 671.171 32.8164 670.732 33.3916C670.299 33.9668 670.083 34.91 670.083 36.2212V41.5H668.413V31.3135H669.758L670.008 32.7051H670.101C670.392 32.2103 670.8 31.8237 671.326 31.5454C671.858 31.2671 672.451 31.1279 673.107 31.1279C674.703 31.1279 675.742 31.6969 676.224 32.835H676.317C676.645 32.2907 677.09 31.8701 677.653 31.5732C678.222 31.2764 678.865 31.1279 679.583 31.1279C680.733 31.1279 681.593 31.4248 682.162 32.0186C682.737 32.6123 683.024 33.5617 683.024 34.8667V41.5H681.373ZM691.012 41.6855C689.645 41.6855 688.594 41.1938 687.858 40.2104H687.747L687.784 40.5908C687.833 41.0732 687.858 41.5031 687.858 41.8804V46.0645H686.188V31.3135H687.561L687.784 32.7051H687.858C688.254 32.1484 688.711 31.7464 689.231 31.499C689.75 31.2516 690.35 31.1279 691.031 31.1279C692.354 31.1279 693.381 31.5887 694.111 32.5103C694.847 33.4256 695.215 34.7183 695.215 36.3882C695.215 38.0519 694.847 39.3507 694.111 40.2847C693.375 41.2186 692.342 41.6855 691.012 41.6855ZM690.734 32.5288C689.726 32.5288 688.996 32.8133 688.544 33.3823C688.099 33.9513 687.87 34.8451 687.858 36.0635V36.3882C687.858 37.7674 688.087 38.7663 688.544 39.3848C689.002 39.9971 689.744 40.3032 690.771 40.3032C691.625 40.3032 692.289 39.9569 692.766 39.2642C693.248 38.5715 693.489 37.6066 693.489 36.3696C693.489 35.1265 693.248 34.1771 692.766 33.5215C692.289 32.8597 691.612 32.5288 690.734 32.5288ZM701.282 40.3218C701.499 40.3218 701.752 40.3001 702.043 40.2568C702.334 40.2135 702.553 40.1641 702.702 40.1084V41.3887C702.547 41.4567 702.306 41.5216 701.978 41.5835C701.656 41.6515 701.329 41.6855 700.995 41.6855C699.003 41.6855 698.007 40.6372 698.007 38.5405V32.6123H696.569V31.8145L698.026 31.1465L698.694 28.9756H699.687V31.3135H702.627V32.6123H699.687V38.4941C699.687 39.0817 699.826 39.5332 700.104 39.8486C700.389 40.1641 700.781 40.3218 701.282 40.3218ZM715.968 41.5L715.644 40.0527H715.569C715.062 40.6898 714.555 41.1227 714.048 41.3516C713.547 41.5742 712.913 41.6855 712.146 41.6855C711.144 41.6855 710.359 41.4227 709.79 40.897C709.221 40.3713 708.936 39.6291 708.936 38.6704C708.936 36.6047 710.566 35.5223 713.825 35.4233L715.551 35.3584V34.7554C715.551 33.9823 715.384 33.4132 715.05 33.0483C714.716 32.6772 714.181 32.4917 713.445 32.4917C712.907 32.4917 712.396 32.5721 711.914 32.7329C711.438 32.8937 710.989 33.0731 710.569 33.271L710.059 32.0186C710.572 31.7464 711.132 31.533 711.738 31.3784C712.344 31.2238 712.944 31.1465 713.538 31.1465C714.768 31.1465 715.684 31.4186 716.284 31.9629C716.884 32.5072 717.184 33.373 717.184 34.5605V41.5H715.968ZM712.526 40.3403C713.46 40.3403 714.193 40.0898 714.725 39.5889C715.263 39.0817 715.532 38.3643 715.532 37.4365V36.5181L714.029 36.583C712.86 36.6263 712.007 36.8118 711.469 37.1396C710.937 37.4674 710.671 37.9839 710.671 38.689C710.671 39.2209 710.832 39.6291 711.153 39.9136C711.481 40.1981 711.939 40.3403 712.526 40.3403ZM731.406 34.3379H736.091V40.9897C735.373 41.2186 734.644 41.3918 733.901 41.5093C733.159 41.6268 732.299 41.6855 731.322 41.6855C729.257 41.6855 727.658 41.0732 726.526 39.8486C725.394 38.624 724.828 36.9139 724.828 34.7183C724.828 33.3019 725.11 32.0649 725.672 31.0073C726.235 29.9497 727.045 29.1426 728.103 28.5859C729.167 28.0231 730.419 27.7417 731.86 27.7417C733.308 27.7417 734.656 28.0076 735.905 28.5396L735.256 30.0239C734.062 29.5044 732.896 29.2446 731.758 29.2446C730.144 29.2446 728.882 29.7332 727.973 30.7104C727.064 31.6877 726.609 33.0236 726.609 34.7183C726.609 36.5119 727.045 37.8757 727.917 38.8096C728.79 39.7435 730.057 40.2104 731.721 40.2104C732.63 40.2104 733.518 40.1022 734.384 39.8857V35.8594H731.406V34.3379ZM745.415 41.5L745.09 40.0527H745.016C744.508 40.6898 744.001 41.1227 743.494 41.3516C742.993 41.5742 742.359 41.6855 741.592 41.6855C740.59 41.6855 739.805 41.4227 739.236 40.897C738.667 40.3713 738.382 39.6291 738.382 38.6704C738.382 36.6047 740.012 35.5223 743.271 35.4233L744.997 35.3584V34.7554C744.997 33.9823 744.83 33.4132 744.496 33.0483C744.162 32.6772 743.627 32.4917 742.891 32.4917C742.353 32.4917 741.843 32.5721 741.36 32.7329C740.884 32.8937 740.436 33.0731 740.015 33.271L739.505 32.0186C740.018 31.7464 740.578 31.533 741.184 31.3784C741.79 31.2238 742.39 31.1465 742.984 31.1465C744.215 31.1465 745.13 31.4186 745.73 31.9629C746.33 32.5072 746.63 33.373 746.63 34.5605V41.5H745.415ZM741.973 40.3403C742.907 40.3403 743.639 40.0898 744.171 39.5889C744.709 39.0817 744.979 38.3643 744.979 37.4365V36.5181L743.476 36.583C742.307 36.6263 741.453 36.8118 740.915 37.1396C740.383 37.4674 740.117 37.9839 740.117 38.689C740.117 39.2209 740.278 39.6291 740.6 39.9136C740.927 40.1981 741.385 40.3403 741.973 40.3403ZM762.754 41.5V34.9409C762.754 33.3328 762.064 32.5288 760.685 32.5288C759.739 32.5288 759.043 32.804 758.598 33.3545C758.152 33.9049 757.93 34.7461 757.93 35.8779V41.5H756.269V34.9409C756.269 34.1369 756.099 33.5339 755.759 33.1318C755.425 32.7298 754.899 32.5288 754.182 32.5288C753.242 32.5288 752.552 32.8164 752.113 33.3916C751.68 33.9668 751.463 34.91 751.463 36.2212V41.5H749.793V31.3135H751.139L751.389 32.7051H751.482C751.773 32.2103 752.181 31.8237 752.707 31.5454C753.238 31.2671 753.832 31.1279 754.488 31.1279C756.083 31.1279 757.123 31.6969 757.605 32.835H757.698C758.026 32.2907 758.471 31.8701 759.034 31.5732C759.603 31.2764 760.246 31.1279 760.963 31.1279C762.114 31.1279 762.973 31.4248 763.542 32.0186C764.118 32.6123 764.405 33.5617 764.405 34.8667V41.5H762.754ZM769.239 41.5H767.569V31.3135H769.239V41.5ZM767.439 28.5581C767.439 28.187 767.532 27.918 767.717 27.751C767.909 27.584 768.144 27.5005 768.422 27.5005C768.682 27.5005 768.908 27.584 769.1 27.751C769.298 27.918 769.396 28.187 769.396 28.5581C769.396 28.923 769.298 29.1921 769.1 29.3652C768.908 29.5384 768.682 29.625 768.422 29.625C768.144 29.625 767.909 29.5384 767.717 29.3652C767.532 29.1921 767.439 28.923 767.439 28.5581ZM777.162 32.6123H774.592V41.5H772.922V32.6123H771.141V31.833L772.922 31.2578V30.6733C772.922 29.4364 773.191 28.5086 773.729 27.8901C774.273 27.2716 775.108 26.9624 776.234 26.9624C776.883 26.9624 777.542 27.0768 778.21 27.3057L777.765 28.6138C777.189 28.4282 776.685 28.3354 776.252 28.3354C775.69 28.3354 775.272 28.521 775 28.8921C774.728 29.2632 774.592 29.8507 774.592 30.6548V31.3135H777.162V32.6123ZM780.687 41.5H779.017V31.3135H780.687V41.5ZM778.887 28.5581C778.887 28.187 778.98 27.918 779.166 27.751C779.357 27.584 779.592 27.5005 779.871 27.5005C780.13 27.5005 780.356 27.584 780.548 27.751C780.746 27.918 780.845 28.187 780.845 28.5581C780.845 28.923 780.746 29.1921 780.548 29.3652C780.356 29.5384 780.13 29.625 779.871 29.625C779.592 29.625 779.357 29.5384 779.166 29.3652C778.98 29.1921 778.887 28.923 778.887 28.5581ZM788.248 41.6855C786.72 41.6855 785.521 41.2248 784.648 40.3032C783.783 39.3755 783.35 38.1014 783.35 36.481C783.35 34.8481 783.755 33.5493 784.565 32.5845C785.375 31.6134 786.47 31.1279 787.849 31.1279C789.129 31.1279 790.15 31.5423 790.911 32.3711C791.671 33.1937 792.052 34.3101 792.052 35.7202V36.7314H785.075C785.106 37.888 785.4 38.7663 785.957 39.3662C786.513 39.9661 787.302 40.2661 788.322 40.2661C788.867 40.2661 789.383 40.2197 789.872 40.127C790.36 40.028 790.932 39.8394 791.588 39.561V41.0269C791.025 41.2681 790.496 41.4382 790.001 41.5371C789.507 41.6361 788.922 41.6855 788.248 41.6855ZM787.831 32.4917C787.033 32.4917 786.402 32.7484 785.938 33.2617C785.474 33.7751 785.199 34.4894 785.112 35.4048H790.298C790.286 34.4523 790.066 33.7287 789.64 33.2339C789.213 32.7391 788.61 32.4917 787.831 32.4917ZM798.249 41.6855C796.925 41.6855 795.899 41.2279 795.169 40.3125C794.439 39.3971 794.074 38.1014 794.074 36.4253C794.074 34.7616 794.439 33.4627 795.169 32.5288C795.905 31.5949 796.938 31.1279 798.268 31.1279C799.634 31.1279 800.686 31.6289 801.422 32.6309H801.542C801.524 32.5072 801.499 32.2598 801.468 31.8887C801.437 31.5114 801.422 31.2578 801.422 31.1279V27.0645H803.092V41.5H801.747L801.496 40.1362H801.422C800.711 41.1691 799.653 41.6855 798.249 41.6855ZM798.518 40.3032C799.532 40.3032 800.271 40.028 800.735 39.4775C801.205 38.9209 801.44 38.0117 801.44 36.75V36.4438C801.44 35.0275 801.202 34.0194 800.726 33.4194C800.256 32.8133 799.514 32.5103 798.5 32.5103C797.64 32.5103 796.975 32.8535 796.505 33.54C796.035 34.2204 795.8 35.1945 795.8 36.4624C795.8 37.7241 796.032 38.6797 796.496 39.3291C796.966 39.9785 797.64 40.3032 798.518 40.3032Z"></path>
<path fill="#0B233F" d="M640.543 63.5L638.911 59.2974H633.53L631.916 63.5H630.19L635.487 49.8809H637.027L642.315 63.5H640.543ZM638.4 57.7852L636.879 53.6753L636.229 51.6436C636.044 52.3857 635.849 53.063 635.645 53.6753L634.105 57.7852H638.4ZM650.591 60.689C650.591 61.6414 650.235 62.3805 649.524 62.9062C648.813 63.4258 647.814 63.6855 646.527 63.6855C645.185 63.6855 644.118 63.4722 643.327 63.0454V61.5239C644.446 62.0682 645.525 62.3403 646.564 62.3403C647.406 62.3403 648.018 62.2043 648.401 61.9321C648.785 61.66 648.977 61.2951 648.977 60.8374C648.977 60.4354 648.791 60.0952 648.42 59.8169C648.055 59.5386 647.403 59.2201 646.462 58.8613C645.504 58.4902 644.83 58.1748 644.44 57.915C644.05 57.6491 643.763 57.3522 643.577 57.0244C643.398 56.6966 643.308 56.2977 643.308 55.8276C643.308 54.9927 643.648 54.334 644.329 53.8516C645.009 53.3691 645.943 53.1279 647.13 53.1279C648.287 53.1279 649.369 53.3568 650.377 53.8145L649.812 55.1411C648.779 54.7082 647.848 54.4917 647.019 54.4917C646.326 54.4917 645.801 54.603 645.442 54.8257C645.083 55.0422 644.904 55.3421 644.904 55.7256C644.904 56.0967 645.058 56.4059 645.368 56.6533C645.677 56.8945 646.397 57.2316 647.529 57.6646C648.377 57.98 649.001 58.2738 649.403 58.5459C649.812 58.818 650.111 59.1242 650.303 59.4644C650.495 59.8045 650.591 60.2127 650.591 60.689ZM659.701 60.689C659.701 61.6414 659.346 62.3805 658.634 62.9062C657.923 63.4258 656.924 63.6855 655.638 63.6855C654.296 63.6855 653.229 63.4722 652.437 63.0454V61.5239C653.556 62.0682 654.636 62.3403 655.675 62.3403C656.516 62.3403 657.128 62.2043 657.512 61.9321C657.895 61.66 658.087 61.2951 658.087 60.8374C658.087 60.4354 657.901 60.0952 657.53 59.8169C657.165 59.5386 656.513 59.2201 655.573 58.8613C654.614 58.4902 653.94 58.1748 653.55 57.915C653.161 57.6491 652.873 57.3522 652.688 57.0244C652.508 56.6966 652.418 56.2977 652.418 55.8276C652.418 54.9927 652.759 54.334 653.439 53.8516C654.119 53.3691 655.053 53.1279 656.241 53.1279C657.397 53.1279 658.48 53.3568 659.488 53.8145L658.922 55.1411C657.889 54.7082 656.958 54.4917 656.129 54.4917C655.437 54.4917 654.911 54.603 654.552 54.8257C654.194 55.0422 654.014 55.3421 654.014 55.7256C654.014 56.0967 654.169 56.4059 654.478 56.6533C654.787 56.8945 655.508 57.2316 656.64 57.6646C657.487 57.98 658.112 58.2738 658.514 58.5459C658.922 58.818 659.222 59.1242 659.414 59.4644C659.605 59.8045 659.701 60.2127 659.701 60.689ZM663.848 63.5H662.178V53.3135H663.848V63.5ZM662.048 50.5581C662.048 50.187 662.141 49.918 662.327 49.751C662.518 49.584 662.753 49.5005 663.032 49.5005C663.292 49.5005 663.517 49.584 663.709 49.751C663.907 49.918 664.006 50.187 664.006 50.5581C664.006 50.923 663.907 51.1921 663.709 51.3652C663.517 51.5384 663.292 51.625 663.032 51.625C662.753 51.625 662.518 51.5384 662.327 51.3652C662.141 51.1921 662.048 50.923 662.048 50.5581ZM670.955 62.3218C671.981 62.3218 672.727 62.0465 673.19 61.4961C673.66 60.9395 673.896 60.0488 673.896 58.8242V58.4253C673.896 57.0646 673.66 56.075 673.19 55.4565C672.72 54.8381 671.963 54.5288 670.917 54.5288C670.064 54.5288 669.402 54.869 668.932 55.5493C668.468 56.2235 668.236 57.1883 668.236 58.4438C668.236 59.7056 668.462 60.6673 668.914 61.3291C669.371 61.9909 670.052 62.3218 670.955 62.3218ZM673.877 63.4072L673.933 62.1548H673.858C673.172 63.1753 672.12 63.6855 670.704 63.6855C669.387 63.6855 668.357 63.2279 667.615 62.3125C666.879 61.391 666.511 60.0952 666.511 58.4253C666.511 56.7863 666.882 55.4937 667.624 54.5474C668.372 53.6011 669.393 53.1279 670.686 53.1279C672.065 53.1279 673.129 53.6413 673.877 54.668H673.979L674.202 53.3135H675.528V63.667C675.528 65.1266 675.157 66.2244 674.415 66.9604C673.679 67.6965 672.532 68.0645 670.973 68.0645C669.489 68.0645 668.267 67.848 667.309 67.415V65.875C668.298 66.4069 669.551 66.6729 671.066 66.6729C671.932 66.6729 672.615 66.4193 673.116 65.9121C673.623 65.4049 673.877 64.703 673.877 63.8062V63.4072ZM685.706 63.5V56.9873C685.706 56.1585 685.52 55.5431 685.149 55.1411C684.784 54.7329 684.209 54.5288 683.423 54.5288C682.378 54.5288 681.617 54.8195 681.141 55.4009C680.671 55.9761 680.436 56.9162 680.436 58.2212V63.5H678.766V53.3135H680.111L680.362 54.7051H680.455C680.77 54.2041 681.212 53.8175 681.781 53.5454C682.35 53.2671 682.978 53.1279 683.665 53.1279C684.914 53.1279 685.842 53.431 686.448 54.0371C687.054 54.6432 687.357 55.5864 687.357 56.8667V63.5H685.706ZM703.472 63.5V56.9409C703.472 55.3328 702.782 54.5288 701.403 54.5288C700.457 54.5288 699.761 54.804 699.315 55.3545C698.87 55.9049 698.647 56.7461 698.647 57.8779V63.5H696.987V56.9409C696.987 56.1369 696.817 55.5339 696.477 55.1318C696.143 54.7298 695.617 54.5288 694.899 54.5288C693.959 54.5288 693.27 54.8164 692.831 55.3916C692.398 55.9668 692.181 56.91 692.181 58.2212V63.5H690.511V53.3135H691.856L692.107 54.7051H692.2C692.49 54.2103 692.899 53.8237 693.424 53.5454C693.956 53.2671 694.55 53.1279 695.206 53.1279C696.801 53.1279 697.84 53.6969 698.323 54.835H698.416C698.743 54.2907 699.189 53.8701 699.751 53.5732C700.32 53.2764 700.964 53.1279 701.681 53.1279C702.832 53.1279 703.691 53.4248 704.26 54.0186C704.835 54.6123 705.123 55.5617 705.123 56.8667V63.5H703.472ZM712.619 63.6855C711.091 63.6855 709.892 63.2248 709.02 62.3032C708.154 61.3755 707.721 60.1014 707.721 58.481C707.721 56.8481 708.126 55.5493 708.936 54.5845C709.746 53.6134 710.841 53.1279 712.22 53.1279C713.5 53.1279 714.521 53.5423 715.282 54.3711C716.042 55.1937 716.423 56.3101 716.423 57.7202V58.7314H709.446C709.477 59.888 709.771 60.7663 710.328 61.3662C710.884 61.9661 711.673 62.2661 712.693 62.2661C713.238 62.2661 713.754 62.2197 714.243 62.127C714.731 62.028 715.303 61.8394 715.959 61.561V63.0269C715.396 63.2681 714.867 63.4382 714.373 63.5371C713.878 63.6361 713.293 63.6855 712.619 63.6855ZM712.202 54.4917C711.404 54.4917 710.773 54.7484 710.309 55.2617C709.845 55.7751 709.57 56.4894 709.483 57.4048H714.669C714.657 56.4523 714.438 55.7287 714.011 55.2339C713.584 54.7391 712.981 54.4917 712.202 54.4917ZM725.951 63.5V56.9873C725.951 56.1585 725.765 55.5431 725.394 55.1411C725.029 54.7329 724.454 54.5288 723.668 54.5288C722.623 54.5288 721.862 54.8195 721.386 55.4009C720.916 55.9761 720.681 56.9162 720.681 58.2212V63.5H719.011V53.3135H720.356L720.607 54.7051H720.7C721.015 54.2041 721.457 53.8175 722.026 53.5454C722.595 53.2671 723.223 53.1279 723.91 53.1279C725.159 53.1279 726.087 53.431 726.693 54.0371C727.299 54.6432 727.602 55.5864 727.602 56.8667V63.5H725.951ZM734.161 62.3218C734.378 62.3218 734.631 62.3001 734.922 62.2568C735.213 62.2135 735.432 62.1641 735.581 62.1084V63.3887C735.426 63.4567 735.185 63.5216 734.857 63.5835C734.535 63.6515 734.208 63.6855 733.874 63.6855C731.882 63.6855 730.886 62.6372 730.886 60.5405V54.6123H729.448V53.8145L730.905 53.1465L731.573 50.9756H732.565V53.3135H735.506V54.6123H732.565V60.4941C732.565 61.0817 732.705 61.5332 732.983 61.8486C733.267 62.1641 733.66 62.3218 734.161 62.3218Z"></path>
<path fill="#E96969" d="M550.5 43.4995H583.366C583.918 43.4995 584.366 43.9475 584.366 44.4995V44.5625L583.366 43.5625H609.566V45.5625H583.366C582.814 45.5625 582.366 45.1145 582.366 44.5625V44.4995L583.366 45.4995H550.5V43.4995ZM608.232 40.5625L616.232 44.5625L608.232 48.5625V40.5625Z"></path>
</svg>
