<svg width="32" height="32" viewBox="0 0 32 32" fill="none" xmlns="http://www.w3.org/2000/svg">
<g opacity="0.15">
<path d="M7.49221 28.8968C6.33969 28.8968 5.4054 27.9625 5.4054 26.81L5.4054 8.76293C5.4054 7.61041 6.33969 6.67612 7.49221 6.67612L10.0262 6.67612C11.1787 6.67612 12.113 7.61042 12.113 8.76293L12.113 26.81C12.113 27.9625 11.1787 28.8968 10.0262 28.8968H7.49221Z" fill="#2B63D9"/>
<path d="M16.4357 28.8968C15.2832 28.8968 14.3489 27.9625 14.3489 26.81V8.76293C14.3489 7.61041 15.2832 6.67612 16.4357 6.67612L18.9697 6.67612C20.1222 6.67612 21.0565 7.61042 21.0565 8.76293L21.0565 26.81C21.0565 27.9625 20.1222 28.8968 18.9697 28.8968H16.4357Z" fill="#2B63D9"/>
<path d="M25.3792 28.8968C24.2266 28.8968 23.2923 27.9625 23.2923 26.81V8.76293C23.2923 7.61041 24.2266 6.67612 25.3792 6.67612L27.9131 6.67612C29.0657 6.67612 30 7.61041 30 8.76293V26.81C30 27.9625 29.0657 28.8968 27.9131 28.8968H25.3792Z" fill="#2B63D9"/>
</g>
<path fill-rule="evenodd" clip-rule="evenodd" d="M5.5 25.5252C5.5 25.822 5.74061 26.0626 6.03742 26.0626H9.23908C9.53589 26.0626 9.7765 25.822 9.7765 25.5252L9.7765 7.03751C9.7765 6.7407 9.53589 6.50009 9.23908 6.50009L6.03742 6.50009C5.74061 6.50009 5.5 6.7407 5.5 7.03751L5.5 25.5252ZM11.248 6.69625C11.0857 5.73348 10.248 5.00009 9.23908 5.00009H6.03742C4.91218 5.00009 4 5.91228 4 7.03751V25.5252C4 26.6505 4.91219 27.5626 6.03742 27.5626H9.23908C10.248 27.5626 11.0856 26.8293 11.248 25.8666C11.2667 25.7557 11.2765 25.6417 11.2765 25.5254C11.2765 25.5255 11.2765 25.5253 11.2765 25.5254L11.2765 7.03772C11.2765 6.92143 11.2668 6.80721 11.248 6.69625ZM12.7603 6.6963C12.7415 6.80725 12.7318 6.92124 12.7318 7.03751C12.7318 7.03744 12.7318 7.03758 12.7318 7.03751L12.7318 25.5252C12.7318 25.6415 12.7415 25.7557 12.7602 25.8667C12.9226 26.8295 13.7602 27.5628 14.7692 27.5628H17.9709C18.8518 27.5628 19.6022 27.0037 19.8865 26.221C19.9653 26.0039 20.0083 25.7697 20.0083 25.5254V7.03771C20.0083 7.03778 20.0083 7.03765 20.0083 7.03771C20.0083 6.79346 19.9652 6.55904 19.8864 6.34203C19.6021 5.55935 18.8518 5.00029 17.9709 5.00029L14.7692 5.00029C13.7603 5.00029 12.9227 5.73361 12.7603 6.6963ZM21.4399 6.34197C21.3611 6.559 21.3181 6.79324 21.3181 7.03751V25.5252C21.3181 25.5253 21.3181 25.5252 21.3181 25.5252C21.3181 25.7695 21.3611 26.0039 21.4399 26.2209C21.7242 27.0036 22.4746 27.5626 23.3555 27.5626H26.5571C27.6824 27.5626 28.5946 26.6504 28.5946 25.5252V7.03751C28.5946 5.91228 27.6824 5.00009 26.5571 5.00009H23.3555C22.4745 5.00009 21.7242 5.55922 21.4399 6.34197ZM14.2318 25.5254C14.2318 25.8222 14.4724 26.0628 14.7692 26.0628H17.9709C18.2677 26.0628 18.5083 25.8222 18.5083 25.5254V7.03771C18.5083 6.74091 18.2677 6.50029 17.9709 6.50029L14.7692 6.50029C14.4724 6.50029 14.2318 6.74091 14.2318 7.03772L14.2318 25.5254ZM22.8181 25.5252C22.8181 25.822 23.0587 26.0626 23.3555 26.0626H26.5571C26.854 26.0626 27.0946 25.822 27.0946 25.5252V7.03751C27.0946 6.74071 26.854 6.50009 26.5571 6.50009L23.3555 6.50009C23.0587 6.50009 22.8181 6.7407 22.8181 7.03751V25.5252Z" fill="#2B63D9"/>
</svg>
