<svg width="32" height="32" viewBox="0 0 32 32" fill="none" xmlns="http://www.w3.org/2000/svg">
<g opacity="0.15">
<path d="M4.9259 8.85177C4.9259 7.78811 5.78817 6.92584 6.85183 6.92584H27.0741C28.1377 6.92584 29 7.78811 29 8.85177V13.6666C29 14.7302 28.1377 15.5925 27.0741 15.5925H6.85183C5.78817 15.5925 4.9259 14.7302 4.9259 13.6666V8.85177Z" fill="#2B63D9"/>
<path d="M4.9259 20.4073C4.9259 19.3437 5.78817 18.4814 6.85183 18.4814H27.0741C28.1377 18.4814 29 19.3437 29 20.4073V25.2221C29 26.2858 28.1377 27.1481 27.0741 27.1481H6.85183C5.78817 27.1481 4.9259 26.2858 4.9259 25.2221V20.4073Z" fill="#2B63D9"/>
</g>
<path fill-rule="evenodd" clip-rule="evenodd" d="M19.803 8.32152C20.0959 8.02863 20.5708 8.02863 20.8637 8.32152L22.2593 9.71712L23.6549 8.32152C23.9477 8.02863 24.4226 8.02863 24.7155 8.32152C25.0084 8.61442 25.0084 9.08929 24.7155 9.38218L22.7896 11.3081C22.6489 11.4488 22.4582 11.5278 22.2593 11.5278C22.0603 11.5278 21.8696 11.4488 21.7289 11.3081L19.803 9.38218C19.5101 9.08929 19.5101 8.61442 19.803 8.32152ZM6.10185 9.81482C6.10185 9.4006 6.43764 9.06482 6.85185 9.06482H16.963C17.3772 9.06482 17.713 9.4006 17.713 9.81482C17.713 10.229 17.3772 10.5648 16.963 10.5648H6.85185C6.43764 10.5648 6.10185 10.229 6.10185 9.81482ZM19.803 19.8771C20.0959 19.5842 20.5708 19.5842 20.8637 19.8771L22.2593 21.2727L23.6549 19.8771C23.9477 19.5842 24.4226 19.5842 24.7155 19.8771C25.0084 20.17 25.0084 20.6448 24.7155 20.9377L22.7896 22.8637C22.6489 23.0043 22.4582 23.0833 22.2593 23.0833C22.0603 23.0833 21.8696 23.0043 21.7289 22.8637L19.803 20.9377C19.5101 20.6448 19.5101 20.17 19.803 19.8771ZM6.10185 21.3704C6.10185 20.9562 6.43764 20.6204 6.85185 20.6204H16.963C17.3772 20.6204 17.713 20.9562 17.713 21.3704C17.713 21.7846 17.3772 22.1204 16.963 22.1204H6.85185C6.43764 22.1204 6.10185 21.7846 6.10185 21.3704ZM5.88889 6.5C5.12183 6.5 4.5 7.12183 4.5 7.88889V11.7407C4.5 12.5078 5.12183 13.1296 5.88889 13.1296H25.1481C25.9152 13.1296 26.537 12.5078 26.537 11.7407V7.88889C26.537 7.12183 25.9152 6.5 25.1481 6.5H5.88889ZM5.88889 18.0556C5.12183 18.0556 4.5 18.6774 4.5 19.4444V23.2963C4.5 24.0634 5.12183 24.6852 5.88889 24.6852H25.1481C25.9152 24.6852 26.537 24.0634 26.537 23.2963V19.4444C26.537 18.6774 25.9152 18.0556 25.1481 18.0556H5.88889ZM5.88889 5C4.2934 5 3 6.2934 3 7.88889V11.7407C3 13.3362 4.2934 14.6296 5.88889 14.6296H25.1481C26.7436 14.6296 28.037 13.3362 28.037 11.7407V7.88889C28.037 6.2934 26.7436 5 25.1481 5H5.88889ZM5.88889 16.5556C4.2934 16.5556 3 17.849 3 19.4444V23.2963C3 24.8918 4.2934 26.1852 5.88889 26.1852H25.1481C26.7436 26.1852 28.037 24.8918 28.037 23.2963V19.4444C28.037 17.849 26.7436 16.5556 25.1481 16.5556H5.88889Z" fill="#2B63D9"/>
</svg>
