<svg width="32" height="32" viewBox="0 0 32 32" fill="none" xmlns="http://www.w3.org/2000/svg">
<g opacity="0.15">
<path d="M8.93185 12.192C8.93185 9.46643 11.1352 7.25 13.8409 7.25C16.5467 7.25 18.75 9.46475 18.75 12.1903C18.75 14.9159 16.5484 17.1324 13.8409 17.1324C11.1335 17.1324 8.93185 14.9176 8.93185 12.192Z" fill="#2B63D9"/>
<path fill-rule="evenodd" clip-rule="evenodd" d="M12.7671 20.8382H14.9873C15.4893 20.8382 15.9838 20.888 16.4654 20.9851L17.3051 20.8026C17.3919 20.5366 17.4996 20.2771 17.6266 20.0272L17.0735 19.1668C16.9747 19.0131 16.9964 18.8112 17.1255 18.6821L18.6821 17.1255C18.8112 16.9964 19.0131 16.9747 19.1668 17.0734L20.0272 17.6266C20.2772 17.4995 20.5366 17.3919 20.8026 17.305L21.0198 16.3059C21.0586 16.1273 21.2167 16 21.3994 16H23.6007C23.7833 16 23.9414 16.1273 23.9802 16.3059L24.1974 17.305C24.4634 17.3919 24.7229 17.4995 24.9728 17.6266L25.8332 17.0734C25.987 16.9747 26.1888 16.9964 26.3179 17.1255L27.8745 18.6821C28.0036 18.8112 28.0254 19.0131 27.9266 19.1668L27.3734 20.0272C27.5005 20.2771 27.6081 20.5366 27.695 20.8026L28.6941 21.0198C28.8727 21.0587 29 21.2167 29 21.3994V23.6006C29 23.7833 28.8727 23.9413 28.6941 23.9802L27.695 24.1974C27.6081 24.4634 27.5005 24.7229 27.3734 24.9728L27.9266 25.8332C28.0254 25.9869 28.0036 26.1888 27.8745 26.3179L26.3179 27.8745C26.1888 28.0037 25.987 28.0253 25.8332 27.9266L24.9728 27.3734C24.7229 27.5005 24.4634 27.6081 24.1974 27.695L23.9802 28.6941C23.9414 28.8727 23.7833 29 23.6007 29H21.3994C21.2167 29 21.0586 28.8727 21.0198 28.6941L20.8026 27.695C20.5366 27.6081 20.2772 27.5005 20.0272 27.3734L19.5648 27.6707L19.75 28.25H6.25003C5.69774 28.25 5.24288 27.8002 5.31734 27.253C5.53333 25.6656 6.26352 24.1922 7.42711 23.0284C8.83819 21.6155 10.781 20.8382 12.7671 20.8382ZM22.5 24.8307C23.7851 24.8307 24.8307 23.7851 24.8307 22.5C24.8307 21.2149 23.7851 20.1693 22.5 20.1693C21.2149 20.1693 20.1693 21.2149 20.1693 22.5C20.1693 23.7851 21.2149 24.8307 22.5 24.8307Z" fill="#2B63D9"/>
</g>
<path fill-rule="evenodd" clip-rule="evenodd" d="M6.93182 10.942C6.93182 7.80678 9.46638 5.25 12.5909 5.25C15.7151 5.25 18.25 7.80477 18.25 10.9403C18.25 14.0754 15.7173 16.6324 12.5909 16.6324C9.46488 16.6324 6.93182 14.0774 6.93182 10.942ZM12.5909 6.75C10.3039 6.75 8.43182 8.62608 8.43182 10.942C8.43182 13.2578 10.3021 15.1324 12.5909 15.1324C14.8794 15.1324 16.75 13.2564 16.75 10.9403C16.75 8.62473 14.8782 6.75 12.5909 6.75ZM19.2869 15.1466C19.4007 14.623 19.8641 14.25 20.3994 14.25H22.6006C23.1359 14.25 23.5994 14.6231 23.7131 15.1467L23.8428 15.7433C23.8666 15.753 23.8903 15.7628 23.9139 15.7728L24.4276 15.4426C24.8781 15.1531 25.4696 15.2166 25.8482 15.5952L27.4048 17.1518C27.7834 17.5304 27.847 18.1218 27.5575 18.5722L27.2272 19.0861C27.2372 19.1097 27.247 19.1334 27.2567 19.1572L27.8534 19.2869C28.3764 19.4008 28.75 19.8638 28.75 20.3994V22.6006C28.75 23.1362 28.3767 23.5991 27.8537 23.713L27.2567 23.8428C27.247 23.8666 27.2372 23.8903 27.2272 23.9139L27.5574 24.4276C27.8469 24.8781 27.7834 25.4696 27.4048 25.8482L25.8484 27.4046C25.8484 27.4047 25.8485 27.4045 25.8484 27.4046C25.4695 27.7836 24.8779 27.8467 24.4278 27.5575L23.9139 27.2272C23.8903 27.2372 23.8666 27.247 23.8428 27.2567L23.7131 27.8533C23.5994 28.3769 23.1359 28.75 22.6006 28.75H20.3994C19.8641 28.75 19.4007 28.377 19.2869 27.8534C19.2869 27.8534 19.2869 27.8535 19.2869 27.8534L19.1572 27.2567C19.1334 27.247 19.1097 27.2372 19.0861 27.2272L18.5724 27.5574C18.1219 27.8469 17.5304 27.7834 17.1518 27.4048L15.5952 25.8482C15.2166 25.4696 15.153 24.8782 15.4425 24.4278L15.7728 23.9139C15.7628 23.8903 15.753 23.8666 15.7433 23.8428L15.1466 23.7131C14.6236 23.5992 14.25 23.1362 14.25 22.6006V20.3994C14.25 20.3879 14.2502 20.3764 14.2505 20.365C14.1355 20.3483 13.9801 20.3382 13.7373 20.3382H11.517C9.72345 20.3382 7.97353 21.041 6.70776 22.3084C5.44255 23.5738 4.75 25.2392 4.75 27C4.75 27.4142 4.41421 27.75 4 27.75C3.58579 27.75 3.25 27.4142 3.25 27C3.25 24.8364 4.1038 22.7913 5.64672 21.2481C7.20308 19.6899 9.33874 18.8382 11.517 18.8382H13.7373C14.2121 18.8382 14.5298 18.8705 14.8545 18.9641C15.0053 19.0076 15.1458 19.061 15.2813 19.1137C15.3078 19.124 15.3345 19.1345 15.3616 19.1451C15.4118 19.1647 15.4635 19.1849 15.5184 19.2061L15.7433 19.1572C15.753 19.1334 15.7628 19.1097 15.7728 19.0861L15.4426 18.5724C15.1531 18.1219 15.2166 17.5304 15.5952 17.1518L17.1518 15.5952C17.5304 15.2166 18.1218 15.153 18.5722 15.4425L19.0861 15.7728C19.1097 15.7628 19.1334 15.753 19.1572 15.7433L19.2869 15.1466C19.2869 15.1466 19.2869 15.1465 19.2869 15.1466ZM15.75 20.6908V22.3092L16.8845 22.5559L17.018 22.9645C17.0928 23.1937 17.1856 23.4174 17.2952 23.6329L17.4901 24.0165L16.8619 24.9937L18.0063 26.1381L18.9835 25.5099L19.3671 25.7048C19.5826 25.8144 19.8063 25.9072 20.0355 25.982L20.4441 26.1155L20.6908 27.25H22.3092L22.5559 26.1155L22.9645 25.982C23.1937 25.9072 23.4174 25.8144 23.6329 25.7048L24.0165 25.5099L24.9937 26.1381L26.1381 24.9937L25.5099 24.0165L25.7048 23.6329C25.8144 23.4174 25.9072 23.1937 25.982 22.9645L26.1155 22.5559L27.25 22.3092V20.6908L26.1155 20.4441L25.982 20.0355C25.9072 19.8063 25.8144 19.5826 25.7048 19.3671L25.5099 18.9835L26.1381 18.0063L24.9937 16.8619L24.0165 17.4901L23.6329 17.2952C23.4174 17.1856 23.1937 17.0928 22.9645 17.018L22.5559 16.8845L22.3092 15.75H20.6908L20.4441 16.8845L20.0355 17.018C19.8063 17.0928 19.5826 17.1856 19.3671 17.2952L18.9835 17.4901L18.0063 16.8619L16.8619 18.0063L17.4901 18.9835L17.2952 19.3671C17.1856 19.5826 17.0928 19.8063 17.018 20.0355L16.8845 20.4441L15.75 20.6908ZM20.7527 15.4651C20.7528 15.4648 20.7526 15.4654 20.7527 15.4651V15.4651ZM22.2473 15.4652C22.2474 15.4655 22.2472 15.4649 22.2473 15.4652V15.4652ZM24.7874 26.3444C24.7873 26.3444 24.7875 26.3443 24.7874 26.3444V26.3444ZM22.2473 27.5349C22.2472 27.5352 22.2474 27.5346 22.2473 27.5349V27.5349ZM20.7527 27.5348C20.7526 27.5345 20.7528 27.5351 20.7527 27.5348V27.5348ZM21.5 19.9193C20.6291 19.9193 19.9193 20.6291 19.9193 21.5C19.9193 22.3709 20.6291 23.0807 21.5 23.0807C22.3709 23.0807 23.0807 22.3709 23.0807 21.5C23.0807 20.6291 22.3709 19.9193 21.5 19.9193ZM18.4193 21.5C18.4193 19.8007 19.8007 18.4193 21.5 18.4193C23.1993 18.4193 24.5807 19.8007 24.5807 21.5C24.5807 23.1993 23.1993 24.5807 21.5 24.5807C19.8007 24.5807 18.4193 23.1993 18.4193 21.5Z" fill="#2B63D9"/>
</svg>
