<svg width="24" height="24" viewBox="0 0 24 24" fill="none" xmlns="http://www.w3.org/2000/svg">
<path d="M16 18V19.1463C16 19.6986 15.5523 20.1463 15 20.1463H4C3.44772 20.1463 3 19.6986 3 19.1463V5.85366C3 5.30137 3.44772 4.85366 4 4.85366H15C15.5523 4.85366 16 5.30137 16 5.85366V7.17073M7 3V7.17073M11 3V7M6.2439 10.878H12M6.2439 13.8726H9.95122M6.2439 16.9024H9.95122" stroke="#6D7B8C" stroke-width="1.5" stroke-linecap="round" stroke-linejoin="round"/>
<path d="M18.5 8L15.9984 11M15.9984 11L19 14.5M15.9984 11L14 14.5L14.4984 15M19 14.5L22 12.5M19 14.5L15.5 16L15 15.5M14.4984 15L13 16.5H14L15 15.5M14.4984 15L15 15.5" stroke="#6D7B8C" stroke-width="1.5" stroke-linecap="round" stroke-linejoin="round"/>
</svg>
