<svg width="32" height="32" viewBox="0 0 32 32" fill="none" xmlns="http://www.w3.org/2000/svg">
<path d="M26.802 25.16C26.802 25.5742 27.1378 25.91 27.552 25.91C27.9662 25.91 28.302 25.5742 28.302 25.16H26.802ZM25.3138 19.7156L25.8479 19.1891L25.8479 19.1891L25.3138 19.7156ZM15.2215 17.1036C14.8369 17.2574 14.6498 17.6939 14.8037 18.0785C14.9575 18.4631 15.3939 18.6501 15.7785 18.4963L15.2215 17.1036ZM28.302 25.16C28.302 22.9161 27.4291 20.793 25.8479 19.1891L24.7797 20.2422C26.0855 21.5667 26.802 23.3121 26.802 25.16H28.302ZM25.8479 19.1891C24.2586 17.5771 22.1443 16.682 19.8986 16.682V18.182C21.7363 18.182 23.4677 18.9114 24.7797 20.2422L25.8479 19.1891ZM19.8986 16.682H17.5414V18.182H19.8986V16.682ZM17.5414 16.682C16.9024 16.682 16.329 16.7863 15.9193 16.8881C15.713 16.9394 15.5442 16.991 15.4247 17.0308C15.3649 17.0507 15.3171 17.0677 15.2828 17.0803C15.2656 17.0866 15.2518 17.0918 15.2416 17.0957C15.2364 17.0977 15.2322 17.0994 15.2288 17.1007C15.2272 17.1013 15.2257 17.1019 15.2245 17.1024C15.2239 17.1026 15.2233 17.1029 15.2228 17.1031C15.2226 17.1032 15.2223 17.1033 15.2221 17.1033C15.222 17.1034 15.2219 17.1034 15.2218 17.1035C15.2217 17.1035 15.2215 17.1036 15.5 17.8C15.7785 18.4963 15.7784 18.4964 15.7783 18.4964C15.7782 18.4965 15.7781 18.4965 15.778 18.4965C15.7778 18.4966 15.7777 18.4967 15.7776 18.4967C15.7773 18.4968 15.7771 18.4969 15.7769 18.497C15.7766 18.4971 15.7765 18.4972 15.7766 18.4971C15.7768 18.497 15.7778 18.4966 15.7797 18.4959C15.7835 18.4945 15.7905 18.4918 15.8007 18.488C15.8211 18.4805 15.854 18.4688 15.8979 18.4542C15.9859 18.4249 16.1172 18.3846 16.2811 18.3438C16.6118 18.2617 17.0591 18.182 17.5414 18.182V16.682ZM18.75 4.25C15.7178 4.25 13.25 6.71642 13.25 9.75081H14.75C14.75 7.54493 16.5461 5.75 18.75 5.75V4.25ZM13.25 9.75081C13.25 12.7854 15.7163 15.25 18.75 15.25V13.75C16.5443 13.75 14.75 11.9565 14.75 9.75081H13.25ZM18.75 15.25C21.784 15.25 24.25 12.7834 24.25 9.74919H22.75C22.75 11.9552 20.9554 13.75 18.75 13.75V15.25ZM24.25 9.74919C24.25 6.71447 21.7819 4.25 18.75 4.25V5.75C20.9542 5.75 22.75 7.54365 22.75 9.74919H24.25Z" fill="#2B63D9"/>
<circle cx="10.44" cy="21.5601" r="5.69" stroke="#2B63D9" stroke-width="1.5"/>
<path d="M10.67 24.32L13.43 21.56L10.67 18.8M12.28 21.56L7.21997 21.56" stroke="#2B63D9" stroke-width="1.5" stroke-linecap="round" stroke-linejoin="round"/>
</svg>
