<svg width="32" height="32" viewBox="0 0 32 32" fill="none" xmlns="http://www.w3.org/2000/svg">
<rect opacity="0.15" x="14.5696" y="6.11395" width="7.79747" height="15.5949" rx="3.89873" fill="#2B63D9"/>
<path fill-rule="evenodd" clip-rule="evenodd" d="M11.5918 8.89873C11.5918 6.33131 13.6731 4.25 16.2405 4.25C18.8079 4.25 20.8892 6.33131 20.8892 8.89873V16.6962C20.8892 19.2636 18.8079 21.3449 16.2405 21.3449C13.6731 21.3449 11.5918 19.2636 11.5918 16.6962V8.89873ZM13.0918 10.2057H13.7342C14.1484 10.2057 14.4842 9.86991 14.4842 9.4557C14.4842 9.04148 14.1484 8.7057 13.7342 8.7057H13.0976C13.1973 7.0566 14.5663 5.75 16.2405 5.75C17.9147 5.75 19.2837 7.0566 19.3834 8.7057H18.7468C18.3326 8.7057 17.9968 9.04148 17.9968 9.4557C17.9968 9.86991 18.3326 10.2057 18.7468 10.2057H19.3892V12.0475H18.7468C18.3326 12.0475 17.9968 12.3833 17.9968 12.7975C17.9968 13.2117 18.3326 13.5475 18.7468 13.5475H19.3892V15.3892H18.7468C18.3326 15.3892 17.9968 15.725 17.9968 16.1392C17.9968 16.5535 18.3326 16.8892 18.7468 16.8892H19.3834C19.2837 18.5383 17.9147 19.8449 16.2405 19.8449C14.5663 19.8449 13.1973 18.5383 13.0976 16.8892H13.7342C14.1484 16.8892 14.4842 16.5535 14.4842 16.1392C14.4842 15.725 14.1484 15.3892 13.7342 15.3892H13.0918V13.5475H13.7342C14.1484 13.5475 14.4842 13.2117 14.4842 12.7975C14.4842 12.3833 14.1484 12.0475 13.7342 12.0475H13.0918V10.2057ZM9 15.3892C9.41421 15.3892 9.75 15.725 9.75 16.1392V16.6962C9.75 20.2808 12.6559 23.1867 16.2405 23.1867C19.8251 23.1867 22.731 20.2808 22.731 16.6962V16.1392C22.731 15.725 23.0668 15.3892 23.481 15.3892C23.8952 15.3892 24.231 15.725 24.231 16.1392V16.6962C24.231 20.8563 21.0518 24.2739 16.9905 24.652V26.25H21.5316C21.9459 26.25 22.2816 26.5858 22.2816 27C22.2816 27.4142 21.9459 27.75 21.5316 27.75H10.9494C10.5352 27.75 10.1994 27.4142 10.1994 27C10.1994 26.5858 10.5352 26.25 10.9494 26.25H15.4905V24.652C11.4292 24.2739 8.25 20.8563 8.25 16.6962V16.1392C8.25 15.725 8.58579 15.3892 9 15.3892Z" fill="#2B63D9"/>
</svg>
