<svg width="24" height="24" viewBox="0 0 24 24" fill="none" xmlns="http://www.w3.org/2000/svg">
<path d="M9.00591 2V1.5C8.87392 1.5 8.74728 1.55219 8.65362 1.64519L9.00591 2ZM4 6.97042L3.64771 6.61561C3.55317 6.70948 3.5 6.8372 3.5 6.97042H4ZM7.40629 19.0713C7.68243 19.0713 7.90629 18.8475 7.90629 18.5713C7.90629 18.2952 7.68243 18.0713 7.40629 18.0713V19.0713ZM7.40629 6.97018L7.40629 6.47018L7.40625 6.47018L7.40629 6.97018ZM17 8.5C17 8.77614 17.2239 9 17.5 9C17.7761 9 18 8.77614 18 8.5H17ZM8.84726 11.1401C8.6486 10.9483 8.33207 10.9538 8.14026 11.1525C7.94846 11.3511 7.95401 11.6677 8.15267 11.8595L8.84726 11.1401ZM10.0535 12.9998L9.70624 13.3595C9.90244 13.5489 10.2142 13.5462 10.4071 13.3533L10.0535 12.9998ZM13.8535 9.90688C14.0488 9.71162 14.0488 9.39504 13.8535 9.19978C13.6583 9.00452 13.3417 9.00452 13.1464 9.19978L13.8535 9.90688ZM20.194 16.0927L19.8405 15.7391L19.8405 15.7391L20.194 16.0927ZM17.3761 18.2035C17.1808 18.3988 17.1808 18.7153 17.3761 18.9106C17.5713 19.1059 17.8879 19.1059 18.0832 18.9106L17.3761 18.2035ZM20.194 14.8137L20.5476 14.4601L20.5476 14.4601L20.194 14.8137ZM19.8609 13.7735C19.6657 13.5782 19.3491 13.5782 19.1538 13.7735C18.9586 13.9687 18.9586 14.2853 19.1538 14.4806L19.8609 13.7735ZM20.3932 13.2481L20.7454 13.603C20.8398 13.5094 20.893 13.382 20.8932 13.2491C20.8935 13.1161 20.8408 12.9886 20.7468 12.8945L20.3932 13.2481ZM17.7421 10.597L18.0957 10.2434C17.9009 10.0487 17.5854 10.0481 17.3899 10.242L17.7421 10.597ZM9.92558 18.3523L9.57342 17.9974C9.50711 18.0631 9.46056 18.1462 9.43904 18.2371L9.92558 18.3523ZM12.5767 21.0034L12.7034 21.4871C12.7886 21.4648 12.8664 21.4204 12.9289 21.3584L12.5767 21.0034ZM9.08089 21.9189L8.59435 21.8036C8.5539 21.9744 8.60596 22.1539 8.73152 22.2766C8.85709 22.3992 9.03776 22.447 9.20755 22.4026L9.08089 21.9189ZM20.9191 10.8829L21.2727 10.5293L21.2727 10.5293L20.9191 10.8829ZM19.9551 9.91888L19.6016 10.2724L19.6016 10.2724L19.9551 9.91888ZM19.2059 9.91888L19.5595 10.2724L19.5595 10.2724L19.2059 9.91888ZM20.9191 11.6321L21.2727 11.9856L21.2727 11.9856L20.9191 11.6321ZM3.5 8.63135C3.5 8.90749 3.72386 9.13135 4 9.13135C4.27614 9.13135 4.5 8.90749 4.5 8.63135H3.5ZM15.7857 1.5H9.00591V2.5H15.7857V1.5ZM8.65362 1.64519L3.64771 6.61561L4.35229 7.32523L9.3582 2.35481L8.65362 1.64519ZM3.5 6.97042V8.63135H4.5V6.97042H3.5ZM7.40629 18.0713H5.71429V19.0713H7.40629V18.0713ZM18 3.71429C18 2.49137 17.0086 1.5 15.7857 1.5V2.5C16.4563 2.5 17 3.04365 17 3.71429H18ZM3.5 16.857C3.5 18.0799 4.49137 19.0713 5.71429 19.0713V18.0713C5.04365 18.0713 4.5 17.5277 4.5 16.857H3.5ZM4.00004 7.47042L7.40632 7.47018L7.40625 6.47018L3.99996 6.47042L4.00004 7.47042ZM7.40629 7.47018C8.45934 7.47018 9.50591 6.61174 9.50591 5.46304H8.50591C8.50591 5.97923 7.99084 6.47018 7.40629 6.47018V7.47018ZM9.50591 5.46304V2H8.50591V5.46304H9.50591ZM18 8.5V3.71429H17V8.5H18ZM4.5 16.857C4.5 16.8552 4.5 16.8533 4.5 16.8514C4.5 16.8495 4.5 16.8476 4.5 16.8456C4.5 16.8437 4.5 16.8417 4.5 16.8397C4.5 16.8377 4.5 16.8357 4.5 16.8337C4.5 16.8316 4.5 16.8296 4.5 16.8275C4.5 16.8254 4.5 16.8233 4.5 16.8212C4.5 16.819 4.5 16.8169 4.5 16.8147C4.5 16.8125 4.5 16.8103 4.5 16.8081C4.5 16.8058 4.5 16.8036 4.5 16.8013C4.5 16.799 4.5 16.7967 4.5 16.7944C4.5 16.7921 4.5 16.7897 4.5 16.7874C4.5 16.785 4.5 16.7826 4.5 16.7802C4.5 16.7778 4.5 16.7753 4.5 16.7729C4.5 16.7704 4.5 16.7679 4.5 16.7654C4.5 16.7629 4.5 16.7604 4.5 16.7579C4.5 16.7553 4.5 16.7527 4.5 16.7501C4.5 16.7475 4.5 16.7449 4.5 16.7423C4.5 16.7396 4.5 16.737 4.5 16.7343C4.5 16.7316 4.5 16.7289 4.5 16.7262C4.5 16.7234 4.5 16.7207 4.5 16.7179C4.5 16.7151 4.5 16.7123 4.5 16.7095C4.5 16.7067 4.5 16.7039 4.5 16.701C4.5 16.6981 4.5 16.6952 4.5 16.6923C4.5 16.6894 4.5 16.6865 4.5 16.6836C4.5 16.6806 4.5 16.6776 4.5 16.6746C4.5 16.6716 4.5 16.6686 4.5 16.6656C4.5 16.6626 4.5 16.6595 4.5 16.6564C4.5 16.6533 4.5 16.6502 4.5 16.6471C4.5 16.644 4.5 16.6408 4.5 16.6377C4.5 16.6345 4.5 16.6313 4.5 16.6281C4.5 16.6249 4.5 16.6217 4.5 16.6184C4.5 16.6152 4.5 16.6119 4.5 16.6086C4.5 16.6053 4.5 16.602 4.5 16.5987C4.5 16.5954 4.5 16.592 4.5 16.5886C4.5 16.5853 4.5 16.5819 4.5 16.5784C4.5 16.575 4.5 16.5716 4.5 16.5681C4.5 16.5647 4.5 16.5612 4.5 16.5577C4.5 16.5542 4.5 16.5507 4.5 16.5471C4.5 16.5436 4.5 16.5401 4.5 16.5365C4.5 16.5329 4.5 16.5293 4.5 16.5257C4.5 16.5221 4.5 16.5184 4.5 16.5148C4.5 16.5111 4.5 16.5074 4.5 16.5037C4.5 16.5 4.5 16.4963 4.5 16.4926C4.5 16.4888 4.5 16.4851 4.5 16.4813C4.5 16.4775 4.5 16.4737 4.5 16.4699C4.5 16.4661 4.5 16.4622 4.5 16.4584C4.5 16.4545 4.5 16.4506 4.5 16.4467C4.5 16.4429 4.5 16.4389 4.5 16.435C4.5 16.4311 4.5 16.4271 4.5 16.4231C4.5 16.4192 4.5 16.4152 4.5 16.4112C4.5 16.4072 4.5 16.4031 4.5 16.3991C4.5 16.395 4.5 16.391 4.5 16.3869C4.5 16.3828 4.5 16.3787 4.5 16.3746C4.5 16.3704 4.5 16.3663 4.5 16.3621C4.5 16.358 4.5 16.3538 4.5 16.3496C4.5 16.3454 4.5 16.3412 4.5 16.3369C4.5 16.3327 4.5 16.3284 4.5 16.3242C4.5 16.3199 4.5 16.3156 4.5 16.3113C4.5 16.307 4.5 16.3026 4.5 16.2983C4.5 16.294 4.5 16.2896 4.5 16.2852C4.5 16.2808 4.5 16.2764 4.5 16.272C4.5 16.2676 4.5 16.2632 4.5 16.2587C4.5 16.2542 4.5 16.2498 4.5 16.2453C4.5 16.2408 4.5 16.2363 4.5 16.2318C4.5 16.2272 4.5 16.2227 4.5 16.2181C4.5 16.2136 4.5 16.209 4.5 16.2044C4.5 16.1998 4.5 16.1952 4.5 16.1905C4.5 16.1859 4.5 16.1813 4.5 16.1766C4.5 16.1719 4.5 16.1673 4.5 16.1626C4.5 16.1579 4.5 16.1531 4.5 16.1484C4.5 16.1437 4.5 16.1389 4.5 16.1342C4.5 16.1294 4.5 16.1246 4.5 16.1198C4.5 16.115 4.5 16.1102 4.5 16.1053C4.5 16.1005 4.5 16.0957 4.5 16.0908C4.5 16.0859 4.5 16.081 4.5 16.0761C4.5 16.0712 4.5 16.0663 4.5 16.0614C4.5 16.0564 4.5 16.0515 4.5 16.0465C4.5 16.0416 4.5 16.0366 4.5 16.0316C4.5 16.0266 4.5 16.0216 4.5 16.0165C4.5 16.0115 4.5 16.0064 4.5 16.0014C4.5 15.9963 4.5 15.9912 4.5 15.9861C4.5 15.981 4.5 15.9759 4.5 15.9708C4.5 15.9657 4.5 15.9605 4.5 15.9554C4.5 15.9502 4.5 15.945 4.5 15.9398C4.5 15.9346 4.5 15.9294 4.5 15.9242C4.5 15.919 4.5 15.9137 4.5 15.9085C4.5 15.9032 4.5 15.898 4.5 15.8927C4.5 15.8874 4.5 15.8821 4.5 15.8768C4.5 15.8715 4.5 15.8661 4.5 15.8608C4.5 15.8554 4.5 15.8501 4.5 15.8447C4.5 15.8393 4.5 15.8339 4.5 15.8285C4.5 15.8231 4.5 15.8177 4.5 15.8123C4.5 15.8068 4.5 15.8014 4.5 15.7959C4.5 15.7905 4.5 15.785 4.5 15.7795C4.5 15.774 4.5 15.7685 4.5 15.763C4.5 15.7574 4.5 15.7519 4.5 15.7463C4.5 15.7408 4.5 15.7352 4.5 15.7296C4.5 15.7241 4.5 15.7185 4.5 15.7129C4.5 15.7073 4.5 15.7016 4.5 15.696C4.5 15.6904 4.5 15.6847 4.5 15.679C4.5 15.6734 4.5 15.6677 4.5 15.662C4.5 15.6563 4.5 15.6506 4.5 15.6449C4.5 15.6391 4.5 15.6334 4.5 15.6277C4.5 15.6219 4.5 15.6162 4.5 15.6104C4.5 15.6046 4.5 15.5988 4.5 15.593C4.5 15.5872 4.5 15.5814 4.5 15.5756C4.5 15.5697 4.5 15.5639 4.5 15.558C4.5 15.5522 4.5 15.5463 4.5 15.5404C4.5 15.5345 4.5 15.5286 4.5 15.5227C4.5 15.5168 4.5 15.5109 4.5 15.5049C4.5 15.499 4.5 15.4931 4.5 15.4871C4.5 15.4811 4.5 15.4752 4.5 15.4692C4.5 15.4632 4.5 15.4572 4.5 15.4512C4.5 15.4452 4.5 15.4391 4.5 15.4331C4.5 15.4271 4.5 15.421 4.5 15.4149C4.5 15.4089 4.5 15.4028 4.5 15.3967C4.5 15.3906 4.5 15.3845 4.5 15.3784C4.5 15.3723 4.5 15.3662 4.5 15.36C4.5 15.3539 4.5 15.3477 4.5 15.3416C4.5 15.3354 4.5 15.3292 4.5 15.3231C4.5 15.3169 4.5 15.3107 4.5 15.3045C4.5 15.2983 4.5 15.292 4.5 15.2858C4.5 15.2796 4.5 15.2733 4.5 15.2671C4.5 15.2608 4.5 15.2545 4.5 15.2483C4.5 15.242 4.5 15.2357 4.5 15.2294C4.5 15.2231 4.5 15.2168 4.5 15.2104C4.5 15.2041 4.5 15.1978 4.5 15.1914C4.5 15.1851 4.5 15.1787 4.5 15.1723C4.5 15.166 4.5 15.1596 4.5 15.1532C4.5 15.1468 4.5 15.1404 4.5 15.134C4.5 15.1276 4.5 15.1211 4.5 15.1147C4.5 15.1083 4.5 15.1018 4.5 15.0954C4.5 15.0889 4.5 15.0824 4.5 15.076C4.5 15.0695 4.5 15.063 4.5 15.0565C4.5 15.05 4.5 15.0435 4.5 15.0369C4.5 15.0304 4.5 15.0239 4.5 15.0173C4.5 15.0108 4.5 15.0042 4.5 14.9977C4.5 14.9911 4.5 14.9845 4.5 14.978C4.5 14.9714 4.5 14.9648 4.5 14.9582C4.5 14.9516 4.5 14.9449 4.5 14.9383C4.5 14.9317 4.5 14.9251 4.5 14.9184C4.5 14.9118 4.5 14.9051 4.5 14.8985C4.5 14.8918 4.5 14.8851 4.5 14.8784C4.5 14.8717 4.5 14.8651 4.5 14.8584C4.5 14.8516 4.5 14.8449 4.5 14.8382C4.5 14.8315 4.5 14.8248 4.5 14.818C4.5 14.8113 4.5 14.8045 4.5 14.7978C4.5 14.791 4.5 14.7842 4.5 14.7775C4.5 14.7707 4.5 14.7639 4.5 14.7571C4.5 14.7503 4.5 14.7435 4.5 14.7367C4.5 14.7299 4.5 14.7231 4.5 14.7162C4.5 14.7094 4.5 14.7025 4.5 14.6957C4.5 14.6888 4.5 14.682 4.5 14.6751C4.5 14.6683 4.5 14.6614 4.5 14.6545C4.5 14.6476 4.5 14.6407 4.5 14.6338C4.5 14.6269 4.5 14.62 4.5 14.6131C4.5 14.6062 4.5 14.5992 4.5 14.5923C4.5 14.5854 4.5 14.5784 4.5 14.5715C4.5 14.5645 4.5 14.5576 4.5 14.5506C4.5 14.5436 4.5 14.5367 4.5 14.5297C4.5 14.5227 4.5 14.5157 4.5 14.5087C4.5 14.5017 4.5 14.4947 4.5 14.4877C4.5 14.4807 4.5 14.4737 4.5 14.4666C4.5 14.4596 4.5 14.4526 4.5 14.4455C4.5 14.4385 4.5 14.4314 4.5 14.4244C4.5 14.4173 4.5 14.4102 4.5 14.4032C4.5 14.3961 4.5 14.389 4.5 14.3819C4.5 14.3748 4.5 14.3677 4.5 14.3606C4.5 14.3535 4.5 14.3464 4.5 14.3393C4.5 14.3322 4.5 14.3251 4.5 14.3179C4.5 14.3108 4.5 14.3037 4.5 14.2965C4.5 14.2894 4.5 14.2822 4.5 14.2751C4.5 14.2679 4.5 14.2607 4.5 14.2536C4.5 14.2464 4.5 14.2392 4.5 14.232C4.5 14.2248 4.5 14.2177 4.5 14.2105C4.5 14.2033 4.5 14.1961 4.5 14.1888C4.5 14.1816 4.5 14.1744 4.5 14.1672C4.5 14.16 4.5 14.1527 4.5 14.1455C4.5 14.1383 4.5 14.131 4.5 14.1238C4.5 14.1165 4.5 14.1093 4.5 14.102C4.5 14.0948 4.5 14.0875 4.5 14.0802C4.5 14.073 4.5 14.0657 4.5 14.0584C4.5 14.0511 4.5 14.0438 4.5 14.0365C4.5 14.0292 4.5 14.0219 4.5 14.0146C4.5 14.0073 4.5 14 4.5 13.9927C4.5 13.9854 4.5 13.9781 4.5 13.9707C4.5 13.9634 4.5 13.9561 4.5 13.9487C4.5 13.9414 4.5 13.9341 4.5 13.9267C4.5 13.9194 4.5 13.912 4.5 13.9047C4.5 13.8973 4.5 13.8899 4.5 13.8826C4.5 13.8752 4.5 13.8678 4.5 13.8605C4.5 13.8531 4.5 13.8457 4.5 13.8383C4.5 13.8309 4.5 13.8235 4.5 13.8161C4.5 13.8087 4.5 13.8013 4.5 13.7939C4.5 13.7865 4.5 13.7791 4.5 13.7717C4.5 13.7643 4.5 13.7569 4.5 13.7495C4.5 13.742 4.5 13.7346 4.5 13.7272C4.5 13.7197 4.5 13.7123 4.5 13.7049C4.5 13.6974 4.5 13.69 4.5 13.6825C4.5 13.6751 4.5 13.6676 4.5 13.6602C4.5 13.6527 4.5 13.6453 4.5 13.6378C4.5 13.6304 4.5 13.6229 4.5 13.6154C4.5 13.6079 4.5 13.6005 4.5 13.593C4.5 13.5855 4.5 13.578 4.5 13.5706C4.5 13.5631 4.5 13.5556 4.5 13.5481C4.5 13.5406 4.5 13.5331 4.5 13.5256C4.5 13.5181 4.5 13.5106 4.5 13.5031C4.5 13.4956 4.5 13.4881 4.5 13.4806C4.5 13.4731 4.5 13.4656 4.5 13.458C4.5 13.4505 4.5 13.443 4.5 13.4355C4.5 13.428 4.5 13.4204 4.5 13.4129C4.5 13.4054 4.5 13.3979 4.5 13.3903C4.5 13.3828 4.5 13.3752 4.5 13.3677C4.5 13.3602 4.5 13.3526 4.5 13.3451C4.5 13.3375 4.5 13.33 4.5 13.3224C4.5 13.3149 4.5 13.3074 4.5 13.2998C4.5 13.2922 4.5 13.2847 4.5 13.2771C4.5 13.2696 4.5 13.262 4.5 13.2545C4.5 13.2469 4.5 13.2393 4.5 13.2318C4.5 13.2242 4.5 13.2166 4.5 13.2091C4.5 13.2015 4.5 13.1939 4.5 13.1863C4.5 13.1788 4.5 13.1712 4.5 13.1636C4.5 13.1561 4.5 13.1485 4.5 13.1409C4.5 13.1333 4.5 13.1257 4.5 13.1182C4.5 13.1106 4.5 13.103 4.5 13.0954C4.5 13.0878 4.5 13.0802 4.5 13.0726C4.5 13.0651 4.5 13.0575 4.5 13.0499C4.5 13.0423 4.5 13.0347 4.5 13.0271C4.5 13.0195 4.5 13.0119 4.5 13.0043C4.5 12.9967 4.5 12.9891 4.5 12.9815C4.5 12.9739 4.5 12.9663 4.5 12.9587C4.5 12.9511 4.5 12.9435 4.5 12.936C4.5 12.9284 4.5 12.9208 4.5 12.9132C4.5 12.9056 4.5 12.898 4.5 12.8904C4.5 12.8827 4.5 12.8751 4.5 12.8675C4.5 12.8599 4.5 12.8523 4.5 12.8447C4.5 12.8371 4.5 12.8295 4.5 12.8219C4.5 12.8143 4.5 12.8067 4.5 12.7991C4.5 12.7915 4.5 12.7839 4.5 12.7763C4.5 12.7687 4.5 12.7611 4.5 12.7535C4.5 12.7459 4.5 12.7383 4.5 12.7307C4.5 12.7231 4.5 12.7155 4.5 12.7079C4.5 12.7003 4.5 12.6927 4.5 12.6851C4.5 12.6775 4.5 12.6699 4.5 12.6623C4.5 12.6547 4.5 12.6471 4.5 12.6395C4.5 12.6319 4.5 12.6243 4.5 12.6167C4.5 12.6091 4.5 12.6015 4.5 12.5939C4.5 12.5863 4.5 12.5787 4.5 12.5711C4.5 12.5635 4.5 12.556 4.5 12.5484C4.5 12.5408 4.5 12.5332 4.5 12.5256C4.5 12.518 4.5 12.5104 4.5 12.5028C4.5 12.4952 4.5 12.4877 4.5 12.4801C4.5 12.4725 4.5 12.4649 4.5 12.4573C4.5 12.4497 4.5 12.4422 4.5 12.4346C4.5 12.427 4.5 12.4194 4.5 12.4119C4.5 12.4043 4.5 12.3967 4.5 12.3891C4.5 12.3816 4.5 12.374 4.5 12.3664C4.5 12.3589 4.5 12.3513 4.5 12.3437C4.5 12.3362 4.5 12.3286 4.5 12.3211C4.5 12.3135 4.5 12.3059 4.5 12.2984C4.5 12.2908 4.5 12.2833 4.5 12.2757C4.5 12.2682 4.5 12.2606 4.5 12.2531C4.5 12.2455 4.5 12.238 4.5 12.2305C4.5 12.2229 4.5 12.2154 4.5 12.2079C4.5 12.2003 4.5 12.1928 4.5 12.1853C4.5 12.1777 4.5 12.1702 4.5 12.1627C4.5 12.1551 4.5 12.1476 4.5 12.1401C4.5 12.1326 4.5 12.1251 4.5 12.1176C4.5 12.11 4.5 12.1025 4.5 12.095C4.5 12.0875 4.5 12.08 4.5 12.0725C4.5 12.065 4.5 12.0575 4.5 12.05C4.5 12.0425 4.5 12.035 4.5 12.0276C4.5 12.0201 4.5 12.0126 4.5 12.0051C4.5 11.9976 4.5 11.9902 4.5 11.9827C4.5 11.9752 4.5 11.9677 4.5 11.9603C4.5 11.9528 4.5 11.9453 4.5 11.9379C4.5 11.9304 4.5 11.923 4.5 11.9155C4.5 11.9081 4.5 11.9006 4.5 11.8932C4.5 11.8857 4.5 11.8783 4.5 11.8709C4.5 11.8634 4.5 11.856 4.5 11.8486C4.5 11.8412 4.5 11.8337 4.5 11.8263C4.5 11.8189 4.5 11.8115 4.5 11.8041C4.5 11.7967 4.5 11.7893 4.5 11.7819C4.5 11.7745 4.5 11.7671 4.5 11.7597C4.5 11.7523 4.5 11.7449 4.5 11.7375C4.5 11.7302 4.5 11.7228 4.5 11.7154C4.5 11.708 4.5 11.7007 4.5 11.6933C4.5 11.6859 4.5 11.6786 4.5 11.6712C4.5 11.6639 4.5 11.6565 4.5 11.6492C4.5 11.6419 4.5 11.6345 4.5 11.6272C4.5 11.6199 4.5 11.6125 4.5 11.6052C4.5 11.5979 4.5 11.5906 4.5 11.5833C4.5 11.576 4.5 11.5687 4.5 11.5614C4.5 11.5541 4.5 11.5468 4.5 11.5395C4.5 11.5322 4.5 11.5249 4.5 11.5176C4.5 11.5104 4.5 11.5031 4.5 11.4958C4.5 11.4886 4.5 11.4813 4.5 11.4741C4.5 11.4668 4.5 11.4596 4.5 11.4523C4.5 11.4451 4.5 11.4378 4.5 11.4306C4.5 11.4234 4.5 11.4162 4.5 11.409C4.5 11.4017 4.5 11.3945 4.5 11.3873C4.5 11.3801 4.5 11.3729 4.5 11.3657C4.5 11.3585 4.5 11.3514 4.5 11.3442C4.5 11.337 4.5 11.3298 4.5 11.3227C4.5 11.3155 4.5 11.3084 4.5 11.3012C4.5 11.2941 4.5 11.2869 4.5 11.2798C4.5 11.2726 4.5 11.2655 4.5 11.2584C4.5 11.2513 4.5 11.2442 4.5 11.237C4.5 11.2299 4.5 11.2228 4.5 11.2157C4.5 11.2086 4.5 11.2016 4.5 11.1945C4.5 11.1874 4.5 11.1803 4.5 11.1733C4.5 11.1662 4.5 11.1591 4.5 11.1521C4.5 11.145 4.5 11.138 4.5 11.131C4.5 11.1239 4.5 11.1169 4.5 11.1099C4.5 11.1029 4.5 11.0958 4.5 11.0888C4.5 11.0818 4.5 11.0748 4.5 11.0678C4.5 11.0609 4.5 11.0539 4.5 11.0469C4.5 11.0399 4.5 11.033 4.5 11.026C4.5 11.0191 4.5 11.0121 4.5 11.0052C4.5 10.9982 4.5 10.9913 4.5 10.9844C4.5 10.9774 4.5 10.9705 4.5 10.9636C4.5 10.9567 4.5 10.9498 4.5 10.9429C4.5 10.936 4.5 10.9292 4.5 10.9223C4.5 10.9154 4.5 10.9085 4.5 10.9017C4.5 10.8948 4.5 10.888 4.5 10.8811C4.5 10.8743 4.5 10.8675 4.5 10.8607C4.5 10.8538 4.5 10.847 4.5 10.8402C4.5 10.8334 4.5 10.8266 4.5 10.8198C4.5 10.813 4.5 10.8063 4.5 10.7995C4.5 10.7927 4.5 10.786 4.5 10.7792C4.5 10.7725 4.5 10.7657 4.5 10.759C4.5 10.7523 4.5 10.7456 4.5 10.7389C4.5 10.7321 4.5 10.7254 4.5 10.7188C4.5 10.7121 4.5 10.7054 4.5 10.6987C4.5 10.692 4.5 10.6854 4.5 10.6787C4.5 10.6721 4.5 10.6654 4.5 10.6588C4.5 10.6522 4.5 10.6455 4.5 10.6389C4.5 10.6323 4.5 10.6257 4.5 10.6191C4.5 10.6125 4.5 10.6059 4.5 10.5994C4.5 10.5928 4.5 10.5862 4.5 10.5797C4.5 10.5731 4.5 10.5666 4.5 10.5601C4.5 10.5535 4.5 10.547 4.5 10.5405C4.5 10.534 4.5 10.5275 4.5 10.521C4.5 10.5145 4.5 10.508 4.5 10.5016C4.5 10.4951 4.5 10.4886 4.5 10.4822C4.5 10.4758 4.5 10.4693 4.5 10.4629C4.5 10.4565 4.5 10.4501 4.5 10.4437C4.5 10.4373 4.5 10.4309 4.5 10.4245C4.5 10.4181 4.5 10.4117 4.5 10.4054C4.5 10.399 4.5 10.3927 4.5 10.3863C4.5 10.38 4.5 10.3737 4.5 10.3674C4.5 10.3611 4.5 10.3548 4.5 10.3485C4.5 10.3422 4.5 10.3359 4.5 10.3296C4.5 10.3234 4.5 10.3171 4.5 10.3109C4.5 10.3046 4.5 10.2984 4.5 10.2922C4.5 10.286 4.5 10.2797 4.5 10.2736C4.5 10.2674 4.5 10.2612 4.5 10.255C4.5 10.2488 4.5 10.2427 4.5 10.2365C4.5 10.2304 4.5 10.2242 4.5 10.2181C4.5 10.212 4.5 10.2059 4.5 10.1998C4.5 10.1937 4.5 10.1876 4.5 10.1815C4.5 10.1755 4.5 10.1694 4.5 10.1633C4.5 10.1573 4.5 10.1513 4.5 10.1452C4.5 10.1392 4.5 10.1332 4.5 10.1272C4.5 10.1212 4.5 10.1152 4.5 10.1093C4.5 10.1033 4.5 10.0973 4.5 10.0914C4.5 10.0854 4.5 10.0795 4.5 10.0736C4.5 10.0677 4.5 10.0618 4.5 10.0559C4.5 10.05 4.5 10.0441 4.5 10.0382C4.5 10.0323 4.5 10.0265 4.5 10.0207C4.5 10.0148 4.5 10.009 4.5 10.0032C4.5 9.99736 4.5 9.99155 4.5 9.98577C4.5 9.97998 4.5 9.97421 4.5 9.96845C4.5 9.96269 4.5 9.95694 4.5 9.95121C4.5 9.94548 4.5 9.93976 4.5 9.93405C4.5 9.92835 4.5 9.92266 4.5 9.91698C4.5 9.9113 4.5 9.90564 4.5 9.89999C4.5 9.89434 4.5 9.88871 4.5 9.88309C4.5 9.87747 4.5 9.87186 4.5 9.86627C4.5 9.86068 4.5 9.8551 4.5 9.84953C4.5 9.84397 4.5 9.83842 4.5 9.83289C4.5 9.82735 4.5 9.82183 4.5 9.81633C4.5 9.81082 4.5 9.80533 4.5 9.79985C4.5 9.79438 4.5 9.78892 4.5 9.78347C4.5 9.77802 4.5 9.77259 4.5 9.76717C4.5 9.76176 4.5 9.75635 4.5 9.75097C4.5 9.74558 4.5 9.74021 4.5 9.73485C4.5 9.72949 4.5 9.72415 4.5 9.71882C4.5 9.7135 4.5 9.70819 4.5 9.70289C4.5 9.69759 4.5 9.69231 4.5 9.68705C4.5 9.68178 4.5 9.67653 4.5 9.6713C4.5 9.66606 4.5 9.66084 4.5 9.65564C4.5 9.65043 4.5 9.64525 4.5 9.64007C4.5 9.6349 4.5 9.62974 4.5 9.6246C4.5 9.61946 4.5 9.61434 4.5 9.60923C4.5 9.60412 4.5 9.59903 4.5 9.59395C4.5 9.58887 4.5 9.58381 4.5 9.57876C4.5 9.57372 4.5 9.56869 4.5 9.56368C4.5 9.55866 4.5 9.55367 4.5 9.54869C4.5 9.54371 4.5 9.53874 4.5 9.53379C4.5 9.52885 4.5 9.52392 4.5 9.519C4.5 9.51409 4.5 9.50919 4.5 9.50431C4.5 9.49942 4.5 9.49456 4.5 9.48971C4.5 9.48486 4.5 9.48003 4.5 9.47522C4.5 9.4704 4.5 9.4656 4.5 9.46082C4.5 9.45604 4.5 9.45128 4.5 9.44653C4.5 9.44178 4.5 9.43705 4.5 9.43234C4.5 9.42763 4.5 9.42293 4.5 9.41825C4.5 9.41357 4.5 9.40891 4.5 9.40427C4.5 9.39962 4.5 9.395 4.5 9.39039C4.5 9.38578 4.5 9.38119 4.5 9.37661C4.5 9.37204 4.5 9.36748 4.5 9.36294C4.5 9.3584 4.5 9.35388 4.5 9.34938C4.5 9.34487 4.5 9.34039 4.5 9.33592C4.5 9.33145 4.5 9.327 4.5 9.32257C4.5 9.31813 4.5 9.31372 4.5 9.30932C4.5 9.30493 4.5 9.30055 4.5 9.29619C4.5 9.29183 4.5 9.28748 4.5 9.28316C4.5 9.27884 4.5 9.27453 4.5 9.27024C4.5 9.26596 4.5 9.26169 4.5 9.25744C4.5 9.25318 4.5 9.24895 4.5 9.24474C4.5 9.24053 4.5 9.23633 4.5 9.23215C4.5 9.22798 4.5 9.22382 4.5 9.21968C4.5 9.21554 4.5 9.21142 4.5 9.20732C4.5 9.20322 4.5 9.19913 4.5 9.19507C4.5 9.19101 4.5 9.18696 4.5 9.18294C4.5 9.17891 4.5 9.1749 4.5 9.17091C4.5 9.16693 4.5 9.16296 4.5 9.15901C4.5 9.15506 4.5 9.15113 4.5 9.14722C4.5 9.14331 4.5 9.13942 4.5 9.13555C4.5 9.13167 4.5 9.12782 4.5 9.12399C4.5 9.12016 4.5 9.11634 4.5 9.11255C4.5 9.10875 4.5 9.10498 4.5 9.10123C4.5 9.09747 4.5 9.09374 4.5 9.09002C4.5 9.08631 4.5 9.08261 4.5 9.07894C4.5 9.07526 4.5 9.07161 4.5 9.06797C4.5 9.06434 4.5 9.06072 4.5 9.05713C4.5 9.05354 4.5 9.04996 4.5 9.04641C4.5 9.04285 4.5 9.03932 4.5 9.03581C4.5 9.03229 4.5 9.0288 4.5 9.02533C4.5 9.02185 4.5 9.0184 4.5 9.01497C4.5 9.01154 4.5 9.00813 4.5 9.00474C4.5 9.00135 4.5 8.99798 4.5 8.99463C4.5 8.99128 4.5 8.98795 4.5 8.98464C4.5 8.98133 4.5 8.97805 4.5 8.97478C4.5 8.97152 4.5 8.96827 4.5 8.96505C4.5 8.96183 4.5 8.95862 4.5 8.95544C4.5 8.95226 4.5 8.9491 4.5 8.94596C4.5 8.94282 4.5 8.93971 4.5 8.93661C4.5 8.93351 4.5 8.93044 4.5 8.92739C4.5 8.92433 4.5 8.9213 4.5 8.91829C4.5 8.91528 4.5 8.91229 4.5 8.90932C4.5 8.90636 4.5 8.90341 4.5 8.90049C4.5 8.89757 4.5 8.89466 4.5 8.89178C4.5 8.8889 4.5 8.88605 4.5 8.88321C4.5 8.88037 4.5 8.87756 4.5 8.87477C4.5 8.87198 4.5 8.86921 4.5 8.86646C4.5 8.86371 4.5 8.86099 4.5 8.85828C4.5 8.85558 4.5 8.8529 4.5 8.85024C4.5 8.84758 4.5 8.84495 4.5 8.84233C4.5 8.83972 4.5 8.83713 4.5 8.83456C4.5 8.83199 4.5 8.82945 4.5 8.82692C4.5 8.8244 4.5 8.8219 4.5 8.81942C4.5 8.81694 4.5 8.81449 4.5 8.81206C4.5 8.80962 4.5 8.80722 4.5 8.80483C4.5 8.80244 4.5 8.80008 4.5 8.79774C4.5 8.7954 4.5 8.79308 4.5 8.79079C4.5 8.7885 4.5 8.78623 4.5 8.78398C4.5 8.78173 4.5 8.77951 4.5 8.77731C4.5 8.77511 4.5 8.77293 4.5 8.77078C4.5 8.76862 4.5 8.76649 4.5 8.76439C4.5 8.76228 4.5 8.7602 4.5 8.75814C4.5 8.75608 4.5 8.75404 4.5 8.75203C4.5 8.75002 4.5 8.74803 4.5 8.74607C4.5 8.7441 4.5 8.74216 4.5 8.74025C4.5 8.73833 4.5 8.73644 4.5 8.73457C4.5 8.73271 4.5 8.73086 4.5 8.72904C4.5 8.72722 4.5 8.72543 4.5 8.72366C4.5 8.72189 4.5 8.72014 4.5 8.71842C4.5 8.71669 4.5 8.715 4.5 8.71332C4.5 8.71165 4.5 8.71 4.5 8.70838C4.5 8.70675 4.5 8.70515 4.5 8.70358C4.5 8.702 4.5 8.70045 4.5 8.69893C4.5 8.6974 4.5 8.6959 4.5 8.69443C4.5 8.69295 4.5 8.6915 4.5 8.69008C4.5 8.68865 4.5 8.68725 4.5 8.68588C4.5 8.6845 4.5 8.68315 4.5 8.68183C4.5 8.6805 4.5 8.6792 4.5 8.67793C4.5 8.67665 4.5 8.6754 4.5 8.67418C4.5 8.67296 4.5 8.67176 4.5 8.67058C4.5 8.66941 4.5 8.66827 4.5 8.66714C4.5 8.66602 4.5 8.66493 4.5 8.66386C4.5 8.66279 4.5 8.66174 4.5 8.66072C4.5 8.6597 4.5 8.65871 4.5 8.65775C4.5 8.65678 4.5 8.65584 4.5 8.65492C4.5 8.65401 4.5 8.65312 4.5 8.65226C4.5 8.65139 4.5 8.65056 4.5 8.64975C4.5 8.64894 4.5 8.64815 4.5 8.6474C4.5 8.64664 4.5 8.64591 4.5 8.6452C4.5 8.6445 4.5 8.64382 4.5 8.64317C4.5 8.64252 4.5 8.64189 4.5 8.64129C4.5 8.64069 4.5 8.64012 4.5 8.63958C4.5 8.63903 4.5 8.63851 4.5 8.63802C4.5 8.63753 4.5 8.63706 4.5 8.63663C4.5 8.63619 4.5 8.63578 4.5 8.63539C4.5 8.63501 4.5 8.63465 4.5 8.63432C4.5 8.63399 4.5 8.63369 4.5 8.63342C4.5 8.63314 4.5 8.63289 4.5 8.63267C4.5 8.63245 4.5 8.63226 4.5 8.63209C4.5 8.63193 4.5 8.63179 4.5 8.63168C4.5 8.63157 4.5 8.63149 4.5 8.63143C4.5 8.63137 4.5 8.63135 4 8.63135C3.5 8.63135 3.5 8.63137 3.5 8.63143C3.5 8.63149 3.5 8.63157 3.5 8.63168C3.5 8.63179 3.5 8.63193 3.5 8.63209C3.5 8.63226 3.5 8.63245 3.5 8.63267C3.5 8.63289 3.5 8.63314 3.5 8.63342C3.5 8.63369 3.5 8.63399 3.5 8.63432C3.5 8.63465 3.5 8.63501 3.5 8.63539C3.5 8.63578 3.5 8.63619 3.5 8.63663C3.5 8.63706 3.5 8.63753 3.5 8.63802C3.5 8.63851 3.5 8.63903 3.5 8.63958C3.5 8.64012 3.5 8.64069 3.5 8.64129C3.5 8.64189 3.5 8.64252 3.5 8.64317C3.5 8.64382 3.5 8.6445 3.5 8.6452C3.5 8.64591 3.5 8.64664 3.5 8.6474C3.5 8.64815 3.5 8.64894 3.5 8.64975C3.5 8.65056 3.5 8.65139 3.5 8.65226C3.5 8.65312 3.5 8.65401 3.5 8.65492C3.5 8.65584 3.5 8.65678 3.5 8.65775C3.5 8.65871 3.5 8.6597 3.5 8.66072C3.5 8.66174 3.5 8.66279 3.5 8.66386C3.5 8.66493 3.5 8.66602 3.5 8.66714C3.5 8.66827 3.5 8.66941 3.5 8.67058C3.5 8.67176 3.5 8.67296 3.5 8.67418C3.5 8.6754 3.5 8.67665 3.5 8.67793C3.5 8.6792 3.5 8.6805 3.5 8.68183C3.5 8.68315 3.5 8.6845 3.5 8.68588C3.5 8.68725 3.5 8.68865 3.5 8.69008C3.5 8.6915 3.5 8.69295 3.5 8.69443C3.5 8.6959 3.5 8.6974 3.5 8.69893C3.5 8.70045 3.5 8.702 3.5 8.70358C3.5 8.70515 3.5 8.70675 3.5 8.70838C3.5 8.71 3.5 8.71165 3.5 8.71332C3.5 8.715 3.5 8.71669 3.5 8.71842C3.5 8.72014 3.5 8.72189 3.5 8.72366C3.5 8.72543 3.5 8.72722 3.5 8.72904C3.5 8.73086 3.5 8.73271 3.5 8.73457C3.5 8.73644 3.5 8.73833 3.5 8.74025C3.5 8.74216 3.5 8.7441 3.5 8.74607C3.5 8.74803 3.5 8.75002 3.5 8.75203C3.5 8.75404 3.5 8.75608 3.5 8.75814C3.5 8.7602 3.5 8.76228 3.5 8.76439C3.5 8.76649 3.5 8.76862 3.5 8.77078C3.5 8.77293 3.5 8.77511 3.5 8.77731C3.5 8.77951 3.5 8.78173 3.5 8.78398C3.5 8.78623 3.5 8.7885 3.5 8.79079C3.5 8.79308 3.5 8.7954 3.5 8.79774C3.5 8.80008 3.5 8.80244 3.5 8.80483C3.5 8.80722 3.5 8.80962 3.5 8.81206C3.5 8.81449 3.5 8.81694 3.5 8.81942C3.5 8.8219 3.5 8.8244 3.5 8.82692C3.5 8.82945 3.5 8.83199 3.5 8.83456C3.5 8.83713 3.5 8.83972 3.5 8.84233C3.5 8.84495 3.5 8.84758 3.5 8.85024C3.5 8.8529 3.5 8.85558 3.5 8.85828C3.5 8.86099 3.5 8.86371 3.5 8.86646C3.5 8.86921 3.5 8.87198 3.5 8.87477C3.5 8.87756 3.5 8.88037 3.5 8.88321C3.5 8.88605 3.5 8.8889 3.5 8.89178C3.5 8.89466 3.5 8.89757 3.5 8.90049C3.5 8.90341 3.5 8.90636 3.5 8.90932C3.5 8.91229 3.5 8.91528 3.5 8.91829C3.5 8.9213 3.5 8.92433 3.5 8.92739C3.5 8.93044 3.5 8.93351 3.5 8.93661C3.5 8.93971 3.5 8.94282 3.5 8.94596C3.5 8.9491 3.5 8.95226 3.5 8.95544C3.5 8.95862 3.5 8.96183 3.5 8.96505C3.5 8.96827 3.5 8.97152 3.5 8.97478C3.5 8.97805 3.5 8.98133 3.5 8.98464C3.5 8.98795 3.5 8.99128 3.5 8.99463C3.5 8.99798 3.5 9.00135 3.5 9.00474C3.5 9.00813 3.5 9.01154 3.5 9.01497C3.5 9.0184 3.5 9.02185 3.5 9.02533C3.5 9.0288 3.5 9.03229 3.5 9.03581C3.5 9.03932 3.5 9.04285 3.5 9.04641C3.5 9.04996 3.5 9.05354 3.5 9.05713C3.5 9.06072 3.5 9.06434 3.5 9.06797C3.5 9.07161 3.5 9.07526 3.5 9.07894C3.5 9.08261 3.5 9.08631 3.5 9.09002C3.5 9.09374 3.5 9.09747 3.5 9.10123C3.5 9.10498 3.5 9.10875 3.5 9.11255C3.5 9.11634 3.5 9.12016 3.5 9.12399C3.5 9.12782 3.5 9.13167 3.5 9.13555C3.5 9.13942 3.5 9.14331 3.5 9.14722C3.5 9.15113 3.5 9.15506 3.5 9.15901C3.5 9.16296 3.5 9.16693 3.5 9.17091C3.5 9.1749 3.5 9.17891 3.5 9.18294C3.5 9.18696 3.5 9.19101 3.5 9.19507C3.5 9.19913 3.5 9.20322 3.5 9.20732C3.5 9.21142 3.5 9.21554 3.5 9.21968C3.5 9.22382 3.5 9.22798 3.5 9.23215C3.5 9.23633 3.5 9.24053 3.5 9.24474C3.5 9.24895 3.5 9.25318 3.5 9.25744C3.5 9.26169 3.5 9.26596 3.5 9.27024C3.5 9.27453 3.5 9.27884 3.5 9.28316C3.5 9.28748 3.5 9.29183 3.5 9.29619C3.5 9.30055 3.5 9.30493 3.5 9.30932C3.5 9.31372 3.5 9.31813 3.5 9.32257C3.5 9.327 3.5 9.33145 3.5 9.33592C3.5 9.34039 3.5 9.34487 3.5 9.34938C3.5 9.35388 3.5 9.3584 3.5 9.36294C3.5 9.36748 3.5 9.37204 3.5 9.37661C3.5 9.38119 3.5 9.38578 3.5 9.39039C3.5 9.395 3.5 9.39962 3.5 9.40427C3.5 9.40891 3.5 9.41357 3.5 9.41825C3.5 9.42293 3.5 9.42763 3.5 9.43234C3.5 9.43705 3.5 9.44178 3.5 9.44653C3.5 9.45128 3.5 9.45604 3.5 9.46082C3.5 9.4656 3.5 9.4704 3.5 9.47522C3.5 9.48003 3.5 9.48486 3.5 9.48971C3.5 9.49456 3.5 9.49942 3.5 9.50431C3.5 9.50919 3.5 9.51409 3.5 9.519C3.5 9.52392 3.5 9.52885 3.5 9.53379C3.5 9.53874 3.5 9.54371 3.5 9.54869C3.5 9.55367 3.5 9.55866 3.5 9.56368C3.5 9.56869 3.5 9.57372 3.5 9.57876C3.5 9.58381 3.5 9.58887 3.5 9.59395C3.5 9.59903 3.5 9.60412 3.5 9.60923C3.5 9.61434 3.5 9.61946 3.5 9.6246C3.5 9.62974 3.5 9.6349 3.5 9.64007C3.5 9.64525 3.5 9.65043 3.5 9.65564C3.5 9.66084 3.5 9.66606 3.5 9.6713C3.5 9.67653 3.5 9.68178 3.5 9.68705C3.5 9.69231 3.5 9.69759 3.5 9.70289C3.5 9.70819 3.5 9.7135 3.5 9.71882C3.5 9.72415 3.5 9.72949 3.5 9.73485C3.5 9.74021 3.5 9.74558 3.5 9.75097C3.5 9.75635 3.5 9.76176 3.5 9.76717C3.5 9.77259 3.5 9.77802 3.5 9.78347C3.5 9.78892 3.5 9.79438 3.5 9.79985C3.5 9.80533 3.5 9.81082 3.5 9.81633C3.5 9.82183 3.5 9.82735 3.5 9.83289C3.5 9.83842 3.5 9.84397 3.5 9.84953C3.5 9.8551 3.5 9.86068 3.5 9.86627C3.5 9.87186 3.5 9.87747 3.5 9.88309C3.5 9.88871 3.5 9.89434 3.5 9.89999C3.5 9.90564 3.5 9.9113 3.5 9.91698C3.5 9.92266 3.5 9.92835 3.5 9.93405C3.5 9.93976 3.5 9.94548 3.5 9.95121C3.5 9.95694 3.5 9.96269 3.5 9.96845C3.5 9.97421 3.5 9.97998 3.5 9.98577C3.5 9.99155 3.5 9.99736 3.5 10.0032C3.5 10.009 3.5 10.0148 3.5 10.0207C3.5 10.0265 3.5 10.0323 3.5 10.0382C3.5 10.0441 3.5 10.05 3.5 10.0559C3.5 10.0618 3.5 10.0677 3.5 10.0736C3.5 10.0795 3.5 10.0854 3.5 10.0914C3.5 10.0973 3.5 10.1033 3.5 10.1093C3.5 10.1152 3.5 10.1212 3.5 10.1272C3.5 10.1332 3.5 10.1392 3.5 10.1452C3.5 10.1513 3.5 10.1573 3.5 10.1633C3.5 10.1694 3.5 10.1755 3.5 10.1815C3.5 10.1876 3.5 10.1937 3.5 10.1998C3.5 10.2059 3.5 10.212 3.5 10.2181C3.5 10.2242 3.5 10.2304 3.5 10.2365C3.5 10.2427 3.5 10.2488 3.5 10.255C3.5 10.2612 3.5 10.2674 3.5 10.2736C3.5 10.2797 3.5 10.286 3.5 10.2922C3.5 10.2984 3.5 10.3046 3.5 10.3109C3.5 10.3171 3.5 10.3234 3.5 10.3296C3.5 10.3359 3.5 10.3422 3.5 10.3485C3.5 10.3548 3.5 10.3611 3.5 10.3674C3.5 10.3737 3.5 10.38 3.5 10.3863C3.5 10.3927 3.5 10.399 3.5 10.4054C3.5 10.4117 3.5 10.4181 3.5 10.4245C3.5 10.4309 3.5 10.4373 3.5 10.4437C3.5 10.4501 3.5 10.4565 3.5 10.4629C3.5 10.4693 3.5 10.4758 3.5 10.4822C3.5 10.4886 3.5 10.4951 3.5 10.5016C3.5 10.508 3.5 10.5145 3.5 10.521C3.5 10.5275 3.5 10.534 3.5 10.5405C3.5 10.547 3.5 10.5535 3.5 10.5601C3.5 10.5666 3.5 10.5731 3.5 10.5797C3.5 10.5862 3.5 10.5928 3.5 10.5994C3.5 10.6059 3.5 10.6125 3.5 10.6191C3.5 10.6257 3.5 10.6323 3.5 10.6389C3.5 10.6455 3.5 10.6522 3.5 10.6588C3.5 10.6654 3.5 10.6721 3.5 10.6787C3.5 10.6854 3.5 10.692 3.5 10.6987C3.5 10.7054 3.5 10.7121 3.5 10.7188C3.5 10.7254 3.5 10.7321 3.5 10.7389C3.5 10.7456 3.5 10.7523 3.5 10.759C3.5 10.7657 3.5 10.7725 3.5 10.7792C3.5 10.786 3.5 10.7927 3.5 10.7995C3.5 10.8063 3.5 10.813 3.5 10.8198C3.5 10.8266 3.5 10.8334 3.5 10.8402C3.5 10.847 3.5 10.8538 3.5 10.8607C3.5 10.8675 3.5 10.8743 3.5 10.8811C3.5 10.888 3.5 10.8948 3.5 10.9017C3.5 10.9085 3.5 10.9154 3.5 10.9223C3.5 10.9292 3.5 10.936 3.5 10.9429C3.5 10.9498 3.5 10.9567 3.5 10.9636C3.5 10.9705 3.5 10.9774 3.5 10.9844C3.5 10.9913 3.5 10.9982 3.5 11.0052C3.5 11.0121 3.5 11.0191 3.5 11.026C3.5 11.033 3.5 11.0399 3.5 11.0469C3.5 11.0539 3.5 11.0609 3.5 11.0678C3.5 11.0748 3.5 11.0818 3.5 11.0888C3.5 11.0958 3.5 11.1029 3.5 11.1099C3.5 11.1169 3.5 11.1239 3.5 11.131C3.5 11.138 3.5 11.145 3.5 11.1521C3.5 11.1591 3.5 11.1662 3.5 11.1733C3.5 11.1803 3.5 11.1874 3.5 11.1945C3.5 11.2016 3.5 11.2086 3.5 11.2157C3.5 11.2228 3.5 11.2299 3.5 11.237C3.5 11.2442 3.5 11.2513 3.5 11.2584C3.5 11.2655 3.5 11.2726 3.5 11.2798C3.5 11.2869 3.5 11.2941 3.5 11.3012C3.5 11.3084 3.5 11.3155 3.5 11.3227C3.5 11.3298 3.5 11.337 3.5 11.3442C3.5 11.3514 3.5 11.3585 3.5 11.3657C3.5 11.3729 3.5 11.3801 3.5 11.3873C3.5 11.3945 3.5 11.4017 3.5 11.409C3.5 11.4162 3.5 11.4234 3.5 11.4306C3.5 11.4378 3.5 11.4451 3.5 11.4523C3.5 11.4596 3.5 11.4668 3.5 11.4741C3.5 11.4813 3.5 11.4886 3.5 11.4958C3.5 11.5031 3.5 11.5104 3.5 11.5176C3.5 11.5249 3.5 11.5322 3.5 11.5395C3.5 11.5468 3.5 11.5541 3.5 11.5614C3.5 11.5687 3.5 11.576 3.5 11.5833C3.5 11.5906 3.5 11.5979 3.5 11.6052C3.5 11.6125 3.5 11.6199 3.5 11.6272C3.5 11.6345 3.5 11.6419 3.5 11.6492C3.5 11.6565 3.5 11.6639 3.5 11.6712C3.5 11.6786 3.5 11.6859 3.5 11.6933C3.5 11.7007 3.5 11.708 3.5 11.7154C3.5 11.7228 3.5 11.7302 3.5 11.7375C3.5 11.7449 3.5 11.7523 3.5 11.7597C3.5 11.7671 3.5 11.7745 3.5 11.7819C3.5 11.7893 3.5 11.7967 3.5 11.8041C3.5 11.8115 3.5 11.8189 3.5 11.8263C3.5 11.8337 3.5 11.8412 3.5 11.8486C3.5 11.856 3.5 11.8634 3.5 11.8709C3.5 11.8783 3.5 11.8857 3.5 11.8932C3.5 11.9006 3.5 11.9081 3.5 11.9155C3.5 11.923 3.5 11.9304 3.5 11.9379C3.5 11.9453 3.5 11.9528 3.5 11.9603C3.5 11.9677 3.5 11.9752 3.5 11.9827C3.5 11.9902 3.5 11.9976 3.5 12.0051C3.5 12.0126 3.5 12.0201 3.5 12.0276C3.5 12.035 3.5 12.0425 3.5 12.05C3.5 12.0575 3.5 12.065 3.5 12.0725C3.5 12.08 3.5 12.0875 3.5 12.095C3.5 12.1025 3.5 12.11 3.5 12.1176C3.5 12.1251 3.5 12.1326 3.5 12.1401C3.5 12.1476 3.5 12.1551 3.5 12.1627C3.5 12.1702 3.5 12.1777 3.5 12.1853C3.5 12.1928 3.5 12.2003 3.5 12.2079C3.5 12.2154 3.5 12.2229 3.5 12.2305C3.5 12.238 3.5 12.2455 3.5 12.2531C3.5 12.2606 3.5 12.2682 3.5 12.2757C3.5 12.2833 3.5 12.2908 3.5 12.2984C3.5 12.3059 3.5 12.3135 3.5 12.3211C3.5 12.3286 3.5 12.3362 3.5 12.3437C3.5 12.3513 3.5 12.3589 3.5 12.3664C3.5 12.374 3.5 12.3816 3.5 12.3891C3.5 12.3967 3.5 12.4043 3.5 12.4119C3.5 12.4194 3.5 12.427 3.5 12.4346C3.5 12.4422 3.5 12.4497 3.5 12.4573C3.5 12.4649 3.5 12.4725 3.5 12.4801C3.5 12.4877 3.5 12.4952 3.5 12.5028C3.5 12.5104 3.5 12.518 3.5 12.5256C3.5 12.5332 3.5 12.5408 3.5 12.5484C3.5 12.556 3.5 12.5635 3.5 12.5711C3.5 12.5787 3.5 12.5863 3.5 12.5939C3.5 12.6015 3.5 12.6091 3.5 12.6167C3.5 12.6243 3.5 12.6319 3.5 12.6395C3.5 12.6471 3.5 12.6547 3.5 12.6623C3.5 12.6699 3.5 12.6775 3.5 12.6851C3.5 12.6927 3.5 12.7003 3.5 12.7079C3.5 12.7155 3.5 12.7231 3.5 12.7307C3.5 12.7383 3.5 12.7459 3.5 12.7535C3.5 12.7611 3.5 12.7687 3.5 12.7763C3.5 12.7839 3.5 12.7915 3.5 12.7991C3.5 12.8067 3.5 12.8143 3.5 12.8219C3.5 12.8295 3.5 12.8371 3.5 12.8447C3.5 12.8523 3.5 12.8599 3.5 12.8675C3.5 12.8751 3.5 12.8827 3.5 12.8904C3.5 12.898 3.5 12.9056 3.5 12.9132C3.5 12.9208 3.5 12.9284 3.5 12.936C3.5 12.9435 3.5 12.9511 3.5 12.9587C3.5 12.9663 3.5 12.9739 3.5 12.9815C3.5 12.9891 3.5 12.9967 3.5 13.0043C3.5 13.0119 3.5 13.0195 3.5 13.0271C3.5 13.0347 3.5 13.0423 3.5 13.0499C3.5 13.0575 3.5 13.0651 3.5 13.0726C3.5 13.0802 3.5 13.0878 3.5 13.0954C3.5 13.103 3.5 13.1106 3.5 13.1182C3.5 13.1257 3.5 13.1333 3.5 13.1409C3.5 13.1485 3.5 13.1561 3.5 13.1636C3.5 13.1712 3.5 13.1788 3.5 13.1863C3.5 13.1939 3.5 13.2015 3.5 13.2091C3.5 13.2166 3.5 13.2242 3.5 13.2318C3.5 13.2393 3.5 13.2469 3.5 13.2545C3.5 13.262 3.5 13.2696 3.5 13.2771C3.5 13.2847 3.5 13.2922 3.5 13.2998C3.5 13.3074 3.5 13.3149 3.5 13.3224C3.5 13.33 3.5 13.3375 3.5 13.3451C3.5 13.3526 3.5 13.3602 3.5 13.3677C3.5 13.3752 3.5 13.3828 3.5 13.3903C3.5 13.3979 3.5 13.4054 3.5 13.4129C3.5 13.4204 3.5 13.428 3.5 13.4355C3.5 13.443 3.5 13.4505 3.5 13.458C3.5 13.4656 3.5 13.4731 3.5 13.4806C3.5 13.4881 3.5 13.4956 3.5 13.5031C3.5 13.5106 3.5 13.5181 3.5 13.5256C3.5 13.5331 3.5 13.5406 3.5 13.5481C3.5 13.5556 3.5 13.5631 3.5 13.5706C3.5 13.578 3.5 13.5855 3.5 13.593C3.5 13.6005 3.5 13.6079 3.5 13.6154C3.5 13.6229 3.5 13.6304 3.5 13.6378C3.5 13.6453 3.5 13.6527 3.5 13.6602C3.5 13.6676 3.5 13.6751 3.5 13.6825C3.5 13.69 3.5 13.6974 3.5 13.7049C3.5 13.7123 3.5 13.7197 3.5 13.7272C3.5 13.7346 3.5 13.742 3.5 13.7495C3.5 13.7569 3.5 13.7643 3.5 13.7717C3.5 13.7791 3.5 13.7865 3.5 13.7939C3.5 13.8013 3.5 13.8087 3.5 13.8161C3.5 13.8235 3.5 13.8309 3.5 13.8383C3.5 13.8457 3.5 13.8531 3.5 13.8605C3.5 13.8678 3.5 13.8752 3.5 13.8826C3.5 13.8899 3.5 13.8973 3.5 13.9047C3.5 13.912 3.5 13.9194 3.5 13.9267C3.5 13.9341 3.5 13.9414 3.5 13.9487C3.5 13.9561 3.5 13.9634 3.5 13.9707C3.5 13.9781 3.5 13.9854 3.5 13.9927C3.5 14 3.5 14.0073 3.5 14.0146C3.5 14.0219 3.5 14.0292 3.5 14.0365C3.5 14.0438 3.5 14.0511 3.5 14.0584C3.5 14.0657 3.5 14.073 3.5 14.0802C3.5 14.0875 3.5 14.0948 3.5 14.102C3.5 14.1093 3.5 14.1165 3.5 14.1238C3.5 14.131 3.5 14.1383 3.5 14.1455C3.5 14.1527 3.5 14.16 3.5 14.1672C3.5 14.1744 3.5 14.1816 3.5 14.1888C3.5 14.1961 3.5 14.2033 3.5 14.2105C3.5 14.2177 3.5 14.2248 3.5 14.232C3.5 14.2392 3.5 14.2464 3.5 14.2536C3.5 14.2607 3.5 14.2679 3.5 14.2751C3.5 14.2822 3.5 14.2894 3.5 14.2965C3.5 14.3037 3.5 14.3108 3.5 14.3179C3.5 14.3251 3.5 14.3322 3.5 14.3393C3.5 14.3464 3.5 14.3535 3.5 14.3606C3.5 14.3677 3.5 14.3748 3.5 14.3819C3.5 14.389 3.5 14.3961 3.5 14.4032C3.5 14.4102 3.5 14.4173 3.5 14.4244C3.5 14.4314 3.5 14.4385 3.5 14.4455C3.5 14.4526 3.5 14.4596 3.5 14.4666C3.5 14.4737 3.5 14.4807 3.5 14.4877C3.5 14.4947 3.5 14.5017 3.5 14.5087C3.5 14.5157 3.5 14.5227 3.5 14.5297C3.5 14.5367 3.5 14.5436 3.5 14.5506C3.5 14.5576 3.5 14.5645 3.5 14.5715C3.5 14.5784 3.5 14.5854 3.5 14.5923C3.5 14.5992 3.5 14.6062 3.5 14.6131C3.5 14.62 3.5 14.6269 3.5 14.6338C3.5 14.6407 3.5 14.6476 3.5 14.6545C3.5 14.6614 3.5 14.6683 3.5 14.6751C3.5 14.682 3.5 14.6888 3.5 14.6957C3.5 14.7025 3.5 14.7094 3.5 14.7162C3.5 14.7231 3.5 14.7299 3.5 14.7367C3.5 14.7435 3.5 14.7503 3.5 14.7571C3.5 14.7639 3.5 14.7707 3.5 14.7775C3.5 14.7842 3.5 14.791 3.5 14.7978C3.5 14.8045 3.5 14.8113 3.5 14.818C3.5 14.8248 3.5 14.8315 3.5 14.8382C3.5 14.8449 3.5 14.8516 3.5 14.8584C3.5 14.8651 3.5 14.8717 3.5 14.8784C3.5 14.8851 3.5 14.8918 3.5 14.8985C3.5 14.9051 3.5 14.9118 3.5 14.9184C3.5 14.9251 3.5 14.9317 3.5 14.9383C3.5 14.9449 3.5 14.9516 3.5 14.9582C3.5 14.9648 3.5 14.9714 3.5 14.978C3.5 14.9845 3.5 14.9911 3.5 14.9977C3.5 15.0042 3.5 15.0108 3.5 15.0173C3.5 15.0239 3.5 15.0304 3.5 15.0369C3.5 15.0435 3.5 15.05 3.5 15.0565C3.5 15.063 3.5 15.0695 3.5 15.076C3.5 15.0824 3.5 15.0889 3.5 15.0954C3.5 15.1018 3.5 15.1083 3.5 15.1147C3.5 15.1211 3.5 15.1276 3.5 15.134C3.5 15.1404 3.5 15.1468 3.5 15.1532C3.5 15.1596 3.5 15.166 3.5 15.1723C3.5 15.1787 3.5 15.1851 3.5 15.1914C3.5 15.1978 3.5 15.2041 3.5 15.2104C3.5 15.2168 3.5 15.2231 3.5 15.2294C3.5 15.2357 3.5 15.242 3.5 15.2483C3.5 15.2545 3.5 15.2608 3.5 15.2671C3.5 15.2733 3.5 15.2796 3.5 15.2858C3.5 15.292 3.5 15.2983 3.5 15.3045C3.5 15.3107 3.5 15.3169 3.5 15.3231C3.5 15.3292 3.5 15.3354 3.5 15.3416C3.5 15.3477 3.5 15.3539 3.5 15.36C3.5 15.3662 3.5 15.3723 3.5 15.3784C3.5 15.3845 3.5 15.3906 3.5 15.3967C3.5 15.4028 3.5 15.4089 3.5 15.4149C3.5 15.421 3.5 15.4271 3.5 15.4331C3.5 15.4391 3.5 15.4452 3.5 15.4512C3.5 15.4572 3.5 15.4632 3.5 15.4692C3.5 15.4752 3.5 15.4811 3.5 15.4871C3.5 15.4931 3.5 15.499 3.5 15.5049C3.5 15.5109 3.5 15.5168 3.5 15.5227C3.5 15.5286 3.5 15.5345 3.5 15.5404C3.5 15.5463 3.5 15.5522 3.5 15.558C3.5 15.5639 3.5 15.5697 3.5 15.5756C3.5 15.5814 3.5 15.5872 3.5 15.593C3.5 15.5988 3.5 15.6046 3.5 15.6104C3.5 15.6162 3.5 15.6219 3.5 15.6277C3.5 15.6334 3.5 15.6391 3.5 15.6449C3.5 15.6506 3.5 15.6563 3.5 15.662C3.5 15.6677 3.5 15.6734 3.5 15.679C3.5 15.6847 3.5 15.6904 3.5 15.696C3.5 15.7016 3.5 15.7073 3.5 15.7129C3.5 15.7185 3.5 15.7241 3.5 15.7296C3.5 15.7352 3.5 15.7408 3.5 15.7463C3.5 15.7519 3.5 15.7574 3.5 15.763C3.5 15.7685 3.5 15.774 3.5 15.7795C3.5 15.785 3.5 15.7905 3.5 15.7959C3.5 15.8014 3.5 15.8068 3.5 15.8123C3.5 15.8177 3.5 15.8231 3.5 15.8285C3.5 15.8339 3.5 15.8393 3.5 15.8447C3.5 15.8501 3.5 15.8554 3.5 15.8608C3.5 15.8661 3.5 15.8715 3.5 15.8768C3.5 15.8821 3.5 15.8874 3.5 15.8927C3.5 15.898 3.5 15.9032 3.5 15.9085C3.5 15.9137 3.5 15.919 3.5 15.9242C3.5 15.9294 3.5 15.9346 3.5 15.9398C3.5 15.945 3.5 15.9502 3.5 15.9554C3.5 15.9605 3.5 15.9657 3.5 15.9708C3.5 15.9759 3.5 15.981 3.5 15.9861C3.5 15.9912 3.5 15.9963 3.5 16.0014C3.5 16.0064 3.5 16.0115 3.5 16.0165C3.5 16.0216 3.5 16.0266 3.5 16.0316C3.5 16.0366 3.5 16.0416 3.5 16.0465C3.5 16.0515 3.5 16.0564 3.5 16.0614C3.5 16.0663 3.5 16.0712 3.5 16.0761C3.5 16.081 3.5 16.0859 3.5 16.0908C3.5 16.0957 3.5 16.1005 3.5 16.1053C3.5 16.1102 3.5 16.115 3.5 16.1198C3.5 16.1246 3.5 16.1294 3.5 16.1342C3.5 16.1389 3.5 16.1437 3.5 16.1484C3.5 16.1531 3.5 16.1579 3.5 16.1626C3.5 16.1673 3.5 16.1719 3.5 16.1766C3.5 16.1813 3.5 16.1859 3.5 16.1905C3.5 16.1952 3.5 16.1998 3.5 16.2044C3.5 16.209 3.5 16.2136 3.5 16.2181C3.5 16.2227 3.5 16.2272 3.5 16.2318C3.5 16.2363 3.5 16.2408 3.5 16.2453C3.5 16.2498 3.5 16.2542 3.5 16.2587C3.5 16.2632 3.5 16.2676 3.5 16.272C3.5 16.2764 3.5 16.2808 3.5 16.2852C3.5 16.2896 3.5 16.294 3.5 16.2983C3.5 16.3026 3.5 16.307 3.5 16.3113C3.5 16.3156 3.5 16.3199 3.5 16.3242C3.5 16.3284 3.5 16.3327 3.5 16.3369C3.5 16.3412 3.5 16.3454 3.5 16.3496C3.5 16.3538 3.5 16.358 3.5 16.3621C3.5 16.3663 3.5 16.3704 3.5 16.3746C3.5 16.3787 3.5 16.3828 3.5 16.3869C3.5 16.391 3.5 16.395 3.5 16.3991C3.5 16.4031 3.5 16.4072 3.5 16.4112C3.5 16.4152 3.5 16.4192 3.5 16.4231C3.5 16.4271 3.5 16.4311 3.5 16.435C3.5 16.4389 3.5 16.4429 3.5 16.4467C3.5 16.4506 3.5 16.4545 3.5 16.4584C3.5 16.4622 3.5 16.4661 3.5 16.4699C3.5 16.4737 3.5 16.4775 3.5 16.4813C3.5 16.4851 3.5 16.4888 3.5 16.4926C3.5 16.4963 3.5 16.5 3.5 16.5037C3.5 16.5074 3.5 16.5111 3.5 16.5148C3.5 16.5184 3.5 16.5221 3.5 16.5257C3.5 16.5293 3.5 16.5329 3.5 16.5365C3.5 16.5401 3.5 16.5436 3.5 16.5471C3.5 16.5507 3.5 16.5542 3.5 16.5577C3.5 16.5612 3.5 16.5647 3.5 16.5681C3.5 16.5716 3.5 16.575 3.5 16.5784C3.5 16.5819 3.5 16.5853 3.5 16.5886C3.5 16.592 3.5 16.5954 3.5 16.5987C3.5 16.602 3.5 16.6053 3.5 16.6086C3.5 16.6119 3.5 16.6152 3.5 16.6184C3.5 16.6217 3.5 16.6249 3.5 16.6281C3.5 16.6313 3.5 16.6345 3.5 16.6377C3.5 16.6408 3.5 16.644 3.5 16.6471C3.5 16.6502 3.5 16.6533 3.5 16.6564C3.5 16.6595 3.5 16.6626 3.5 16.6656C3.5 16.6686 3.5 16.6716 3.5 16.6746C3.5 16.6776 3.5 16.6806 3.5 16.6836C3.5 16.6865 3.5 16.6894 3.5 16.6923C3.5 16.6952 3.5 16.6981 3.5 16.701C3.5 16.7039 3.5 16.7067 3.5 16.7095C3.5 16.7123 3.5 16.7151 3.5 16.7179C3.5 16.7207 3.5 16.7234 3.5 16.7262C3.5 16.7289 3.5 16.7316 3.5 16.7343C3.5 16.737 3.5 16.7396 3.5 16.7423C3.5 16.7449 3.5 16.7475 3.5 16.7501C3.5 16.7527 3.5 16.7553 3.5 16.7579C3.5 16.7604 3.5 16.7629 3.5 16.7654C3.5 16.7679 3.5 16.7704 3.5 16.7729C3.5 16.7753 3.5 16.7778 3.5 16.7802C3.5 16.7826 3.5 16.785 3.5 16.7874C3.5 16.7897 3.5 16.7921 3.5 16.7944C3.5 16.7967 3.5 16.799 3.5 16.8013C3.5 16.8036 3.5 16.8058 3.5 16.8081C3.5 16.8103 3.5 16.8125 3.5 16.8147C3.5 16.8169 3.5 16.819 3.5 16.8212C3.5 16.8233 3.5 16.8254 3.5 16.8275C3.5 16.8296 3.5 16.8316 3.5 16.8337C3.5 16.8357 3.5 16.8377 3.5 16.8397C3.5 16.8417 3.5 16.8437 3.5 16.8456C3.5 16.8476 3.5 16.8495 3.5 16.8514C3.5 16.8533 3.5 16.8552 3.5 16.857H4.5ZM8.15267 11.8595L9.70624 13.3595L10.4008 12.6401L8.84726 11.1401L8.15267 11.8595ZM10.4071 13.3533L13.8535 9.90688L13.1464 9.19978L9.69998 12.6462L10.4071 13.3533ZM19.8405 15.7391L17.3761 18.2035L18.0832 18.9106L20.5476 16.4462L19.8405 15.7391ZM20.5476 14.4601L19.8609 13.7735L19.1538 14.4806L19.8405 15.1672L20.5476 14.4601ZM20.5476 16.4462C21.096 15.8978 21.096 15.0086 20.5476 14.4601L19.8405 15.1672C19.9984 15.3251 19.9984 15.5812 19.8405 15.7391L20.5476 16.4462ZM20.7468 12.8945L18.0957 10.2434L17.3886 10.9505L20.0397 13.6017L20.7468 12.8945ZM17.3899 10.242L9.57342 17.9974L10.2777 18.7072L18.0943 10.9519L17.3899 10.242ZM12.9289 21.3584L20.7454 13.603L20.0411 12.8932L12.2246 20.6485L12.9289 21.3584ZM9.43904 18.2371L8.59435 21.8036L9.56743 22.0341L10.4121 18.4675L9.43904 18.2371ZM9.20755 22.4026L12.7034 21.4871L12.4501 20.5198L8.95423 21.4352L9.20755 22.4026ZM13.4804 20.1794L10.8293 17.5283L10.1222 18.2354L12.7733 20.8865L13.4804 20.1794ZM17.0277 16.6321L14.3766 13.981L13.6695 14.6881L16.3206 17.3392L17.0277 16.6321ZM21.2727 10.5293L20.3087 9.56532L19.6016 10.2724L20.5656 11.2364L21.2727 10.5293ZM18.8524 9.56532L17.7814 10.6363L18.4885 11.3434L19.5595 10.2724L18.8524 9.56532ZM20.2017 13.0566L21.2727 11.9856L20.5656 11.2785L19.4946 12.3495L20.2017 13.0566ZM20.3087 9.56532C20.224 9.48068 20.1304 9.38861 20.0376 9.31939C19.9436 9.24927 19.7879 9.15399 19.5805 9.15399C19.3731 9.15399 19.2174 9.24927 19.1234 9.31939C19.0306 9.38861 18.937 9.48068 18.8524 9.56532L19.5595 10.2724C19.6026 10.2293 19.6366 10.196 19.6652 10.1694C19.6793 10.1564 19.6909 10.146 19.7005 10.1378C19.7102 10.1295 19.717 10.1242 19.7212 10.121C19.7255 10.1179 19.7259 10.1178 19.7231 10.1195C19.7201 10.1213 19.7125 10.1256 19.7006 10.1307C19.6886 10.1358 19.6718 10.1418 19.6508 10.1464C19.6295 10.1511 19.6058 10.154 19.5805 10.154C19.5552 10.154 19.5315 10.1511 19.5102 10.1464C19.4893 10.1418 19.4725 10.1358 19.4604 10.1307C19.4485 10.1256 19.4409 10.1213 19.438 10.1195C19.4351 10.1178 19.4356 10.1179 19.4398 10.121C19.4441 10.1242 19.4508 10.1295 19.4605 10.1378C19.4702 10.146 19.4818 10.1564 19.4958 10.1694C19.5244 10.196 19.5584 10.2293 19.6016 10.2724L20.3087 9.56532ZM20.5656 11.2364C20.6087 11.2796 20.642 11.3136 20.6686 11.3422C20.6816 11.3562 20.692 11.3678 20.7002 11.3775C20.7085 11.3872 20.7138 11.3939 20.717 11.3982C20.7201 11.4024 20.7202 11.4029 20.7185 11.4C20.7167 11.3971 20.7124 11.3895 20.7073 11.3776C20.7022 11.3655 20.6962 11.3487 20.6916 11.3278C20.6869 11.3065 20.684 11.2828 20.684 11.2575C20.684 11.2322 20.6869 11.2085 20.6916 11.1872C20.6962 11.1662 20.7022 11.1494 20.7073 11.1373C20.7124 11.1255 20.7167 11.1179 20.7185 11.1149C20.7202 11.1121 20.7201 11.1125 20.717 11.1168C20.7138 11.121 20.7085 11.1278 20.7002 11.1375C20.692 11.1471 20.6816 11.1587 20.6686 11.1728C20.642 11.2014 20.6087 11.2354 20.5656 11.2785L21.2727 11.9856C21.3573 11.901 21.4494 11.8074 21.5186 11.7146C21.5887 11.6206 21.684 11.4649 21.684 11.2575C21.684 11.0501 21.5887 10.8944 21.5186 10.8004C21.4494 10.7076 21.3573 10.614 21.2727 10.5293L20.5656 11.2364ZM4.5 8.63135C4.5 8.63135 4.5 8.63135 4.5 8.63135C4.5 8.63135 4.5 8.63135 4.5 8.63135C4.5 8.63135 4.5 8.63135 4.5 8.63135C4.5 8.63135 4.5 8.63135 4.5 8.63135C4.5 8.63135 4.5 8.63135 4.5 8.63135C4.5 8.63135 4.5 8.63135 4.5 8.63135C4.5 8.63135 4.5 8.63135 4.5 8.63135C4.5 8.63135 4.5 8.63135 4.5 8.63135C4.5 8.63135 4.5 8.63135 4.5 8.63135C4.5 8.63135 4.5 8.63135 4.5 8.63135C4.5 8.63135 4.5 8.63135 4.5 8.63135C4.5 8.63135 4.5 8.63135 4.5 8.63135C4.5 8.63135 4.5 8.63135 4.5 8.63135C4.5 8.63135 4.5 8.63135 4.5 8.63135C4.5 8.63135 4.5 8.63135 4.5 8.63135C4.5 8.63135 4.5 8.63135 4.5 8.63135C4.5 8.63135 4.5 8.63135 4.5 8.63135C4.5 8.63135 4.5 8.63135 4.5 8.63135C4.5 8.63135 4.5 8.63135 4.5 8.63135C4.5 8.63135 4.5 8.63135 4.5 8.63135C4.5 8.63135 4.5 8.63135 4.5 8.63135C4.5 8.63135 4.5 8.63135 4.5 8.63135C4.5 8.63135 4.5 8.63135 4.5 8.63135C4.5 8.63135 4.5 8.63135 4.5 8.63135C4.5 8.63135 4.5 8.63135 4.5 8.63135C4.5 8.63135 4.5 8.63135 4.5 8.63135C4.5 8.63135 4.5 8.63135 4.5 8.63135C4.5 8.63135 4.5 8.63135 4.5 8.63135C4.5 8.63135 4.5 8.63135 4.5 8.63135C4.5 8.63135 4.5 8.63135 4.5 8.63135C4.5 8.63135 4.5 8.63135 4.5 8.63135C4.5 8.63135 4.5 8.63135 4.5 8.63135C4.5 8.63135 4.5 8.63135 4.5 8.63135C4.5 8.63135 4.5 8.63135 4.5 8.63135C4.5 8.63135 4.5 8.63135 4.5 8.63135C4.5 8.63135 4.5 8.63135 4.5 8.63135C4.5 8.63135 4.5 8.63135 4.5 8.63135C4.5 8.63135 4.5 8.63135 4.5 8.63135C4.5 8.63135 4.5 8.63135 4.5 8.63135C4.5 8.63135 4.5 8.63135 4.5 8.63135C4.5 8.63135 4.5 8.63135 4.5 8.63135C4.5 8.63135 4.5 8.63135 4.5 8.63135C4.5 8.63135 4.5 8.63135 4.5 8.63135C4.5 8.63135 4.5 8.63135 4.5 8.63135C4.5 8.63135 4.5 8.63135 4.5 8.63135C4.5 8.63135 4.5 8.63135 4.5 8.63135C4.5 8.63135 4.5 8.63135 4.5 8.63135C4.5 8.63135 4.5 8.63135 4.5 8.63135C4.5 8.63135 4.5 8.63135 4.5 8.63135C4.5 8.63135 4.5 8.63135 4.5 8.63135C4.5 8.63135 4.5 8.63135 4.5 8.63135C4.5 8.63135 4.5 8.63135 4.5 8.63135C4.5 8.63135 4.5 8.63135 4.5 8.63135C4.5 8.63135 4.5 8.63135 4.5 8.63135C4.5 8.63135 4.5 8.63135 4.5 8.63135C4.5 8.63135 4.5 8.63135 4.5 8.63135C4.5 8.63135 4.5 8.63135 4.5 8.63135C4.5 8.63135 4.5 8.63135 4.5 8.63135C4.5 8.63135 4.5 8.63135 4.5 8.63135C4.5 8.63135 4.5 8.63135 4.5 8.63135C4.5 8.63135 4.5 8.63135 4.5 8.63135C4.5 8.63135 4.5 8.63135 4.5 8.63135C4.5 8.63135 4.5 8.63135 4.5 8.63135C4.5 8.63135 4.5 8.63135 4.5 8.63135C4.5 8.63135 4.5 8.63135 4.5 8.63135C4.5 8.63135 4.5 8.63135 4.5 8.63135C4.5 8.63135 4.5 8.63135 4.5 8.63135C4.5 8.63135 4.5 8.63135 4.5 8.63135C4.5 8.63135 4.5 8.63135 4.5 8.63135C4.5 8.63135 4.5 8.63135 4.5 8.63135C4.5 8.63135 4.5 8.63135 4.5 8.63135C4.5 8.63135 4.5 8.63135 4.5 8.63135C4.5 8.63135 4.5 8.63135 4.5 8.63135C4.5 8.63135 4.5 8.63135 4.5 8.63135C4.5 8.63135 4.5 8.63135 4.5 8.63135C4.5 8.63135 4.5 8.63135 4.5 8.63135C4.5 8.63135 4.5 8.63135 4.5 8.63135C4.5 8.63135 4.5 8.63135 4.5 8.63135C4.5 8.63135 4.5 8.63135 4.5 8.63135C4.5 8.63135 4.5 8.63135 4.5 8.63135C4.5 8.63135 4.5 8.63135 4.5 8.63135C4.5 8.63135 4.5 8.63135 4.5 8.63135C4.5 8.63135 4.5 8.63135 4.5 8.63135C4.5 8.63135 4.5 8.63135 4.5 8.63135C4.5 8.63135 4.5 8.63135 4.5 8.63135C4.5 8.63135 4.5 8.63135 4.5 8.63135C4.5 8.63135 4.5 8.63135 4.5 8.63135C4.5 8.63135 4.5 8.63135 4.5 8.63135C4.5 8.63135 4.5 8.63135 4.5 8.63135C4.5 8.63135 4.5 8.63135 4.5 8.63135C4.5 8.63135 4.5 8.63135 4.5 8.63135C4.5 8.63135 4.5 8.63135 4.5 8.63135C4.5 8.63135 4.5 8.63135 4.5 8.63135C4.5 8.63135 4.5 8.63135 4.5 8.63135C4.5 8.63135 4.5 8.63135 4.5 8.63135C4.5 8.63135 4.5 8.63135 4.5 8.63135C4.5 8.63135 4.5 8.63135 4.5 8.63135C4.5 8.63135 4.5 8.63135 4.5 8.63135C4.5 8.63135 4.5 8.63135 4.5 8.63135C4.5 8.63135 4.5 8.63135 4.5 8.63135C4.5 8.63135 4.5 8.63135 4.5 8.63135C4.5 8.63135 4.5 8.63135 4.5 8.63135C4.5 8.63135 4.5 8.63135 4.5 8.63135C4.5 8.63135 4.5 8.63135 4.5 8.63135C4.5 8.63135 4.5 8.63135 4.5 8.63135C4.5 8.63135 4.5 8.63135 4.5 8.63135C4.5 8.63135 4.5 8.63135 4.5 8.63135C4.5 8.63135 4.5 8.63135 4.5 8.63135C4.5 8.63135 4.5 8.63135 4.5 8.63135C4.5 8.63135 4.5 8.63135 4.5 8.63135C4.5 8.63135 4.5 8.63135 4.5 8.63135C4.5 8.63135 4.5 8.63135 4.5 8.63135C4.5 8.63135 4.5 8.63135 4.5 8.63135C4.5 8.63135 4.5 8.63135 4.5 8.63135C4.5 8.63135 4.5 8.63135 4.5 8.63135C4.5 8.63135 4.5 8.63135 4.5 8.63135C4.5 8.63135 4.5 8.63135 4.5 8.63135C4.5 8.63135 4.5 8.63135 4.5 8.63135C4.5 8.63135 4.5 8.63135 4.5 8.63135C4.5 8.63135 4.5 8.63135 4.5 8.63135C4.5 8.63135 4.5 8.63135 4.5 8.63135C4.5 8.63135 4.5 8.63135 4.5 8.63135C4.5 8.63135 4.5 8.63135 4.5 8.63135C4.5 8.63135 4.5 8.63135 4.5 8.63135C4.5 8.63135 4.5 8.63135 4.5 8.63135C4.5 8.63135 4.5 8.63135 4.5 8.63135C4.5 8.63135 4.5 8.63135 4.5 8.63135C4.5 8.63135 4.5 8.63135 4.5 8.63135C4.5 8.63135 4.5 8.63135 4.5 8.63135C4.5 8.63135 4.5 8.63135 4.5 8.63135C4.5 8.63135 4.5 8.63135 4.5 8.63135C4.5 8.63135 4.5 8.63135 4.5 8.63135C4.5 8.63135 4.5 8.63135 4.5 8.63135C4.5 8.63135 4.5 8.63135 4.5 8.63135C4.5 8.63135 4.5 8.63135 4.5 8.63135C4.5 8.63135 4.5 8.63135 4.5 8.63135C4.5 8.63135 4.5 8.63135 4.5 8.63135C4.5 8.63135 4.5 8.63135 4.5 8.63135C4.5 8.63135 4.5 8.63135 4.5 8.63135C4.5 8.63135 4.5 8.63135 4.5 8.63135C4.5 8.63135 4.5 8.63135 4.5 8.63135C4.5 8.63135 4.5 8.63135 4.5 8.63135C4.5 8.63135 4.5 8.63135 4.5 8.63135C4.5 8.63135 4.5 8.63135 4.5 8.63135C4.5 8.63135 4.5 8.63135 4.5 8.63135C4.5 8.63135 4.5 8.63135 4.5 8.63135C4.5 8.63135 4.5 8.63135 4.5 8.63135C4.5 8.63135 4.5 8.63135 4.5 8.63135C4.5 8.63135 4.5 8.63135 4.5 8.63135C4.5 8.63135 4.5 8.63135 4.5 8.63135C4.5 8.63135 4.5 8.63135 4.5 8.63135C4.5 8.63135 4.5 8.63135 4.5 8.63135C4.5 8.63135 4.5 8.63135 4.5 8.63135C4.5 8.63135 4.5 8.63135 4.5 8.63135C4.5 8.63135 4.5 8.63135 4.5 8.63135C4.5 8.63135 4.5 8.63135 4.5 8.63135C4.5 8.63135 4.5 8.63135 4.5 8.63135C4.5 8.63135 4.5 8.63135 4.5 8.63135C4.5 8.63135 4.5 8.63135 4.5 8.63135C4.5 8.63135 4.5 8.63135 4.5 8.63135C4.5 8.63135 4.5 8.63135 4.5 8.63135C4.5 8.63135 4.5 8.63135 4.5 8.63135C4.5 8.63135 4.5 8.63135 4.5 8.63135C4.5 8.63135 4.5 8.63135 4.5 8.63135C4.5 8.63135 4.5 8.63135 4.5 8.63135C4.5 8.63135 4.5 8.63135 4.5 8.63135C4.5 8.63135 4.5 8.63135 4.5 8.63135C4.5 8.63135 4.5 8.63135 4.5 8.63135C4.5 8.63135 4.5 8.63135 4.5 8.63135C4.5 8.63135 4.5 8.63135 4.5 8.63135C4.5 8.63135 4 8.63135 3.5 8.63135C3.5 8.63135 3.5 8.63135 3.5 8.63135C3.5 8.63135 3.5 8.63135 3.5 8.63135C3.5 8.63135 3.5 8.63135 3.5 8.63135C3.5 8.63135 3.5 8.63135 3.5 8.63135C3.5 8.63135 3.5 8.63135 3.5 8.63135C3.5 8.63135 3.5 8.63135 3.5 8.63135C3.5 8.63135 3.5 8.63135 3.5 8.63135C3.5 8.63135 3.5 8.63135 3.5 8.63135C3.5 8.63135 3.5 8.63135 3.5 8.63135C3.5 8.63135 3.5 8.63135 3.5 8.63135C3.5 8.63135 3.5 8.63135 3.5 8.63135C3.5 8.63135 3.5 8.63135 3.5 8.63135C3.5 8.63135 3.5 8.63135 3.5 8.63135C3.5 8.63135 3.5 8.63135 3.5 8.63135C3.5 8.63135 3.5 8.63135 3.5 8.63135C3.5 8.63135 3.5 8.63135 3.5 8.63135C3.5 8.63135 3.5 8.63135 3.5 8.63135C3.5 8.63135 3.5 8.63135 3.5 8.63135C3.5 8.63135 3.5 8.63135 3.5 8.63135C3.5 8.63135 3.5 8.63135 3.5 8.63135C3.5 8.63135 3.5 8.63135 3.5 8.63135C3.5 8.63135 3.5 8.63135 3.5 8.63135C3.5 8.63135 3.5 8.63135 3.5 8.63135C3.5 8.63135 3.5 8.63135 3.5 8.63135C3.5 8.63135 3.5 8.63135 3.5 8.63135C3.5 8.63135 3.5 8.63135 3.5 8.63135C3.5 8.63135 3.5 8.63135 3.5 8.63135C3.5 8.63135 3.5 8.63135 3.5 8.63135C3.5 8.63135 3.5 8.63135 3.5 8.63135C3.5 8.63135 3.5 8.63135 3.5 8.63135C3.5 8.63135 3.5 8.63135 3.5 8.63135C3.5 8.63135 3.5 8.63135 3.5 8.63135C3.5 8.63135 3.5 8.63135 3.5 8.63135C3.5 8.63135 3.5 8.63135 3.5 8.63135C3.5 8.63135 3.5 8.63135 3.5 8.63135C3.5 8.63135 3.5 8.63135 3.5 8.63135C3.5 8.63135 3.5 8.63135 3.5 8.63135C3.5 8.63135 3.5 8.63135 3.5 8.63135C3.5 8.63135 3.5 8.63135 3.5 8.63135C3.5 8.63135 3.5 8.63135 3.5 8.63135C3.5 8.63135 3.5 8.63135 3.5 8.63135C3.5 8.63135 3.5 8.63135 3.5 8.63135C3.5 8.63135 3.5 8.63135 3.5 8.63135C3.5 8.63135 3.5 8.63135 3.5 8.63135C3.5 8.63135 3.5 8.63135 3.5 8.63135C3.5 8.63135 3.5 8.63135 3.5 8.63135C3.5 8.63135 3.5 8.63135 3.5 8.63135C3.5 8.63135 3.5 8.63135 3.5 8.63135C3.5 8.63135 3.5 8.63135 3.5 8.63135C3.5 8.63135 3.5 8.63135 3.5 8.63135C3.5 8.63135 3.5 8.63135 3.5 8.63135C3.5 8.63135 3.5 8.63135 3.5 8.63135C3.5 8.63135 3.5 8.63135 3.5 8.63135C3.5 8.63135 3.5 8.63135 3.5 8.63135C3.5 8.63135 3.5 8.63135 3.5 8.63135C3.5 8.63135 3.5 8.63135 3.5 8.63135C3.5 8.63135 3.5 8.63135 3.5 8.63135C3.5 8.63135 3.5 8.63135 3.5 8.63135C3.5 8.63135 3.5 8.63135 3.5 8.63135C3.5 8.63135 3.5 8.63135 3.5 8.63135C3.5 8.63135 3.5 8.63135 3.5 8.63135C3.5 8.63135 3.5 8.63135 3.5 8.63135C3.5 8.63135 3.5 8.63135 3.5 8.63135C3.5 8.63135 3.5 8.63135 3.5 8.63135C3.5 8.63135 3.5 8.63135 3.5 8.63135C3.5 8.63135 3.5 8.63135 3.5 8.63135C3.5 8.63135 3.5 8.63135 3.5 8.63135C3.5 8.63135 3.5 8.63135 3.5 8.63135C3.5 8.63135 3.5 8.63135 3.5 8.63135C3.5 8.63135 3.5 8.63135 3.5 8.63135C3.5 8.63135 3.5 8.63135 3.5 8.63135C3.5 8.63135 3.5 8.63135 3.5 8.63135C3.5 8.63135 3.5 8.63135 3.5 8.63135C3.5 8.63135 3.5 8.63135 3.5 8.63135C3.5 8.63135 3.5 8.63135 3.5 8.63135C3.5 8.63135 3.5 8.63135 3.5 8.63135C3.5 8.63135 3.5 8.63135 3.5 8.63135C3.5 8.63135 3.5 8.63135 3.5 8.63135C3.5 8.63135 3.5 8.63135 3.5 8.63135C3.5 8.63135 3.5 8.63135 3.5 8.63135C3.5 8.63135 3.5 8.63135 3.5 8.63135C3.5 8.63135 3.5 8.63135 3.5 8.63135C3.5 8.63135 3.5 8.63135 3.5 8.63135C3.5 8.63135 3.5 8.63135 3.5 8.63135C3.5 8.63135 3.5 8.63135 3.5 8.63135C3.5 8.63135 3.5 8.63135 3.5 8.63135C3.5 8.63135 3.5 8.63135 3.5 8.63135C3.5 8.63135 3.5 8.63135 3.5 8.63135C3.5 8.63135 3.5 8.63135 3.5 8.63135C3.5 8.63135 3.5 8.63135 3.5 8.63135C3.5 8.63135 3.5 8.63135 3.5 8.63135C3.5 8.63135 3.5 8.63135 3.5 8.63135C3.5 8.63135 3.5 8.63135 3.5 8.63135C3.5 8.63135 3.5 8.63135 3.5 8.63135C3.5 8.63135 3.5 8.63135 3.5 8.63135C3.5 8.63135 3.5 8.63135 3.5 8.63135C3.5 8.63135 3.5 8.63135 3.5 8.63135C3.5 8.63135 3.5 8.63135 3.5 8.63135C3.5 8.63135 3.5 8.63135 3.5 8.63135C3.5 8.63135 3.5 8.63135 3.5 8.63135C3.5 8.63135 3.5 8.63135 3.5 8.63135C3.5 8.63135 3.5 8.63135 3.5 8.63135C3.5 8.63135 3.5 8.63135 3.5 8.63135C3.5 8.63135 3.5 8.63135 3.5 8.63135C3.5 8.63135 3.5 8.63135 3.5 8.63135C3.5 8.63135 3.5 8.63135 3.5 8.63135C3.5 8.63135 3.5 8.63135 3.5 8.63135C3.5 8.63135 3.5 8.63135 3.5 8.63135C3.5 8.63135 3.5 8.63135 3.5 8.63135C3.5 8.63135 3.5 8.63135 3.5 8.63135C3.5 8.63135 3.5 8.63135 3.5 8.63135C3.5 8.63135 3.5 8.63135 3.5 8.63135C3.5 8.63135 3.5 8.63135 3.5 8.63135C3.5 8.63135 3.5 8.63135 3.5 8.63135C3.5 8.63135 3.5 8.63135 3.5 8.63135C3.5 8.63135 3.5 8.63135 3.5 8.63135C3.5 8.63135 3.5 8.63135 3.5 8.63135C3.5 8.63135 3.5 8.63135 3.5 8.63135C3.5 8.63135 3.5 8.63135 3.5 8.63135C3.5 8.63135 3.5 8.63135 3.5 8.63135C3.5 8.63135 3.5 8.63135 3.5 8.63135C3.5 8.63135 3.5 8.63135 3.5 8.63135C3.5 8.63135 3.5 8.63135 3.5 8.63135C3.5 8.63135 3.5 8.63135 3.5 8.63135C3.5 8.63135 3.5 8.63135 3.5 8.63135C3.5 8.63135 3.5 8.63135 3.5 8.63135C3.5 8.63135 3.5 8.63135 3.5 8.63135C3.5 8.63135 3.5 8.63135 3.5 8.63135C3.5 8.63135 3.5 8.63135 3.5 8.63135C3.5 8.63135 3.5 8.63135 3.5 8.63135C3.5 8.63135 3.5 8.63135 3.5 8.63135C3.5 8.63135 3.5 8.63135 3.5 8.63135C3.5 8.63135 3.5 8.63135 3.5 8.63135C3.5 8.63135 3.5 8.63135 3.5 8.63135C3.5 8.63135 3.5 8.63135 3.5 8.63135C3.5 8.63135 3.5 8.63135 3.5 8.63135C3.5 8.63135 3.5 8.63135 3.5 8.63135C3.5 8.63135 3.5 8.63135 3.5 8.63135C3.5 8.63135 3.5 8.63135 3.5 8.63135C3.5 8.63135 3.5 8.63135 3.5 8.63135C3.5 8.63135 3.5 8.63135 3.5 8.63135C3.5 8.63135 3.5 8.63135 3.5 8.63135C3.5 8.63135 3.5 8.63135 3.5 8.63135C3.5 8.63135 3.5 8.63135 3.5 8.63135C3.5 8.63135 3.5 8.63135 3.5 8.63135C3.5 8.63135 3.5 8.63135 3.5 8.63135C3.5 8.63135 3.5 8.63135 3.5 8.63135C3.5 8.63135 3.5 8.63135 3.5 8.63135C3.5 8.63135 3.5 8.63135 3.5 8.63135C3.5 8.63135 3.5 8.63135 3.5 8.63135C3.5 8.63135 3.5 8.63135 3.5 8.63135C3.5 8.63135 3.5 8.63135 3.5 8.63135C3.5 8.63135 3.5 8.63135 3.5 8.63135C3.5 8.63135 3.5 8.63135 3.5 8.63135C3.5 8.63135 3.5 8.63135 3.5 8.63135C3.5 8.63135 3.5 8.63135 3.5 8.63135C3.5 8.63135 3.5 8.63135 3.5 8.63135C3.5 8.63135 3.5 8.63135 3.5 8.63135C3.5 8.63135 3.5 8.63135 3.5 8.63135C3.5 8.63135 3.5 8.63135 3.5 8.63135C3.5 8.63135 3.5 8.63135 3.5 8.63135C3.5 8.63135 3.5 8.63135 3.5 8.63135C3.5 8.63135 3.5 8.63135 3.5 8.63135C3.5 8.63135 3.5 8.63135 3.5 8.63135C3.5 8.63135 3.5 8.63135 3.5 8.63135C3.5 8.63135 3.5 8.63135 3.5 8.63135C3.5 8.63135 3.5 8.63135 3.5 8.63135C3.5 8.63135 3.5 8.63135 3.5 8.63135C3.5 8.63135 3.5 8.63135 3.5 8.63135C3.5 8.63135 3.5 8.63135 3.5 8.63135C3.5 8.63135 3.5 8.63135 3.5 8.63135C3.5 8.63135 3.5 8.63135 3.5 8.63135C3.5 8.63135 3.5 8.63135 3.5 8.63135C3.5 8.63135 3.5 8.63135 3.5 8.63135C3.5 8.63135 3.5 8.63135 3.5 8.63135C3.5 8.63135 3.5 8.63135 3.5 8.63135C3.5 8.63135 3.5 8.63135 3.5 8.63135C3.5 8.63135 3.5 8.63135 3.5 8.63135C3.5 8.63135 3.5 8.63135 3.5 8.63135C3.5 8.63135 3.5 8.63135 3.5 8.63135C3.5 8.63135 3.5 8.63135 3.5 8.63135C3.5 8.63135 3.5 8.63135 3.5 8.63135C3.5 8.63135 3.5 8.63135 3.5 8.63135C3.5 8.63135 3.5 8.63135 3.5 8.63135C3.5 8.63135 3.5 8.63135 3.5 8.63135C3.5 8.63135 3.5 8.63135 3.5 8.63135C3.5 8.63135 3.5 8.63135 3.5 8.63135C3.5 8.63135 3.5 8.63135 3.5 8.63135C3.5 8.63135 3.5 8.63135 3.5 8.63135C3.5 8.63135 3.5 8.63135 3.5 8.63135C3.5 8.63135 3.5 8.63135 3.5 8.63135C3.5 8.63135 3.5 8.63135 3.5 8.63135C3.5 8.63135 3.5 8.63135 3.5 8.63135C3.5 8.63135 3.5 8.63135 3.5 8.63135C3.5 8.63135 3.5 8.63135 3.5 8.63135C3.5 8.63135 3.5 8.63135 3.5 8.63135C3.5 8.63135 3.5 8.63135 3.5 8.63135C3.5 8.63135 3.5 8.63135 3.5 8.63135C3.5 8.63135 3.5 8.63135 3.5 8.63135C3.5 8.63135 3.5 8.63135 3.5 8.63135C3.5 8.63135 3.5 8.63135 3.5 8.63135C3.5 8.63135 3.5 8.63135 3.5 8.63135C3.5 8.63135 3.5 8.63135 3.5 8.63135C3.5 8.63135 3.5 8.63135 3.5 8.63135C3.5 8.63135 3.5 8.63135 3.5 8.63135C3.5 8.63135 3.5 8.63135 3.5 8.63135C3.5 8.63135 3.5 8.63135 3.5 8.63135C3.5 8.63135 3.5 8.63135 3.5 8.63135C3.5 8.63135 3.5 8.63135 3.5 8.63135C3.5 8.63135 3.5 8.63135 3.5 8.63135C3.5 8.63135 3.5 8.63135 3.5 8.63135C3.5 8.63135 3.5 8.63135 3.5 8.63135C3.5 8.63135 3.5 8.63135 3.5 8.63135C3.5 8.63135 3.5 8.63135 3.5 8.63135C3.5 8.63135 3.5 8.63135 3.5 8.63135C3.5 8.63135 3.5 8.63135 3.5 8.63135C3.5 8.63135 3.5 8.63135 3.5 8.63135C3.5 8.63135 3.5 8.63135 3.5 8.63135C3.5 8.63135 3.5 8.63135 3.5 8.63135C3.5 8.63135 3.5 8.63135 3.5 8.63135C3.5 8.63135 3.5 8.63135 3.5 8.63135C3.5 8.63135 3.5 8.63135 3.5 8.63135C3.5 8.63135 3.5 8.63135 3.5 8.63135C3.5 8.63135 3.5 8.63135 3.5 8.63135C3.5 8.63135 3.5 8.63135 3.5 8.63135C3.5 8.63135 3.5 8.63135 3.5 8.63135C3.5 8.63135 3.5 8.63135 3.5 8.63135C3.5 8.63135 3.5 8.63135 3.5 8.63135C3.5 8.63135 3.5 8.63135 3.5 8.63135C3.5 8.63135 3.5 8.63135 3.5 8.63135C3.5 8.63135 3.5 8.63135 3.5 8.63135C3.5 8.63135 3.5 8.63135 3.5 8.63135C3.5 8.63135 3.5 8.63135 3.5 8.63135C3.5 8.63135 3.5 8.63135 3.5 8.63135C3.5 8.63135 3.5 8.63135 3.5 8.63135C3.5 8.63135 3.5 8.63135 3.5 8.63135C3.5 8.63135 3.5 8.63135 3.5 8.63135C3.5 8.63135 3.5 8.63135 3.5 8.63135C3.5 8.63135 3.5 8.63135 3.5 8.63135C3.5 8.63135 3.5 8.63135 3.5 8.63135C3.5 8.63135 3.5 8.63135 3.5 8.63135C3.5 8.63135 3.5 8.63135 3.5 8.63135C3.5 8.63135 3.5 8.63135 3.5 8.63135C3.5 8.63135 3.5 8.63135 3.5 8.63135C3.5 8.63135 3.5 8.63135 3.5 8.63135C3.5 8.63135 3.5 8.63135 3.5 8.63135C3.5 8.63135 3.5 8.63135 3.5 8.63135C3.5 8.63135 3.5 8.63135 3.5 8.63135C3.5 8.63135 3.5 8.63135 3.5 8.63135C3.5 8.63135 3.5 8.63135 3.5 8.63135C3.5 8.63135 3.5 8.63135 3.5 8.63135C3.5 8.63135 3.5 8.63135 3.5 8.63135C3.5 8.63135 3.5 8.63135 3.5 8.63135C3.5 8.63135 3.5 8.63135 3.5 8.63135C3.5 8.63135 3.5 8.63135 3.5 8.63135C3.5 8.63135 3.5 8.63135 3.5 8.63135C3.5 8.63135 3.5 8.63135 3.5 8.63135C3.5 8.63135 3.5 8.63135 3.5 8.63135C3.5 8.63135 3.5 8.63135 3.5 8.63135C3.5 8.63135 3.5 8.63135 3.5 8.63135C3.5 8.63135 3.5 8.63135 3.5 8.63135C3.5 8.63135 3.5 8.63135 3.5 8.63135C3.5 8.63135 3.5 8.63135 3.5 8.63135C3.5 8.63135 3.5 8.63135 3.5 8.63135C3.5 8.63135 3.5 8.63135 3.5 8.63135C3.5 8.63135 3.5 8.63135 3.5 8.63135C3.5 8.63135 3.5 8.63135 3.5 8.63135C3.5 8.63135 3.5 8.63135 3.5 8.63135C3.5 8.63135 3.5 8.63135 3.5 8.63135C3.5 8.63135 3.5 8.63135 3.5 8.63135C3.5 8.63135 3.5 8.63135 3.5 8.63135C3.5 8.63135 3.5 8.63135 3.5 8.63135C3.5 8.63135 3.5 8.63135 3.5 8.63135C3.5 8.63135 3.5 8.63135 3.5 8.63135C3.5 8.63135 3.5 8.63135 3.5 8.63135C3.5 8.63135 3.5 8.63135 3.5 8.63135C3.5 8.63135 3.5 8.63135 3.5 8.63135C3.5 8.63135 3.5 8.63135 3.5 8.63135C3.5 8.63135 3.5 8.63135 3.5 8.63135C3.5 8.63135 3.5 8.63135 3.5 8.63135C3.5 8.63135 3.5 8.63135 3.5 8.63135C3.5 8.63135 3.5 8.63135 3.5 8.63135C3.5 8.63135 3.5 8.63135 3.5 8.63135C3.5 8.63135 3.5 8.63135 3.5 8.63135C3.5 8.63135 3.5 8.63135 3.5 8.63135C3.5 8.63135 3.5 8.63135 3.5 8.63135C3.5 8.63135 3.5 8.63135 3.5 8.63135C3.5 8.63135 3.5 8.63135 3.5 8.63135C3.5 8.63135 3.5 8.63135 3.5 8.63135C3.5 8.63135 3.5 8.63135 3.5 8.63135C3.5 8.63135 3.5 8.63135 3.5 8.63135C3.5 8.63135 3.5 8.63135 3.5 8.63135C3.5 8.63135 3.5 8.63135 3.5 8.63135C3.5 8.63135 3.5 8.63135 3.5 8.63135C3.5 8.63135 3.5 8.63135 3.5 8.63135C3.5 8.63135 3.5 8.63135 3.5 8.63135C3.5 8.63135 3.5 8.63135 3.5 8.63135C3.5 8.63135 3.5 8.63135 3.5 8.63135C3.5 8.63135 3.5 8.63135 3.5 8.63135C3.5 8.63135 3.5 8.63135 3.5 8.63135C3.5 8.63135 3.5 8.63135 3.5 8.63135C3.5 8.63135 3.5 8.63135 3.5 8.63135C3.5 8.63135 3.5 8.63135 3.5 8.63135C3.5 8.63135 3.5 8.63135 3.5 8.63135C3.5 8.63135 3.5 8.63135 3.5 8.63135C3.5 8.63135 3.5 8.63135 3.5 8.63135C3.5 8.63135 3.5 8.63135 3.5 8.63135C3.5 8.63135 3.5 8.63135 3.5 8.63135C3.5 8.63135 3.5 8.63135 3.5 8.63135C3.5 8.63135 3.5 8.63135 3.5 8.63135C3.5 8.63135 3.5 8.63135 3.5 8.63135C3.5 8.63135 3.5 8.63135 3.5 8.63135C3.5 8.63135 3.5 8.63135 3.5 8.63135C3.5 8.63135 3.5 8.63135 3.5 8.63135C3.5 8.63135 3.5 8.63135 3.5 8.63135C3.5 8.63135 3.5 8.63135 3.5 8.63135C3.5 8.63135 3.5 8.63135 3.5 8.63135C3.5 8.63135 3.5 8.63135 3.5 8.63135C3.5 8.63135 3.5 8.63135 3.5 8.63135C3.5 8.63135 3.5 8.63135 3.5 8.63135C3.5 8.63135 3.5 8.63135 3.5 8.63135C3.5 8.63135 3.5 8.63135 3.5 8.63135C3.5 8.63135 3.5 8.63135 3.5 8.63135C3.5 8.63135 3.5 8.63135 3.5 8.63135C3.5 8.63135 3.5 8.63135 3.5 8.63135C3.5 8.63135 3.5 8.63135 3.5 8.63135C3.5 8.63135 3.5 8.63135 3.5 8.63135C3.5 8.63135 3.5 8.63135 3.5 8.63135C3.5 8.63135 3.5 8.63135 3.5 8.63135C3.5 8.63135 3.5 8.63135 3.5 8.63135C3.5 8.63135 3.5 8.63135 3.5 8.63135C3.5 8.63135 3.5 8.63135 3.5 8.63135C3.5 8.63135 3.5 8.63135 3.5 8.63135C3.5 8.63135 3.5 8.63135 3.5 8.63135C3.5 8.63135 3.5 8.63135 3.5 8.63135C3.5 8.63135 3.5 8.63135 3.5 8.63135C3.5 8.63135 3.5 8.63135 3.5 8.63135C3.5 8.63135 3.5 8.63135 3.5 8.63135C3.5 8.63135 3.5 8.63135 3.5 8.63135C3.5 8.63135 3.5 8.63135 3.5 8.63135C3.5 8.63135 3.5 8.63135 4 8.63135C4.5 8.63135 4.5 8.63135 4.5 8.63135C4.5 8.63135 4.5 8.63135 4.5 8.63135C4.5 8.63135 4.5 8.63135 4.5 8.63135C4.5 8.63135 4.5 8.63135 4.5 8.63135C4.5 8.63135 4.5 8.63135 4.5 8.63135C4.5 8.63135 4.5 8.63135 4.5 8.63135C4.5 8.63135 4.5 8.63135 4.5 8.63135C4.5 8.63135 4.5 8.63135 4.5 8.63135C4.5 8.63135 4.5 8.63135 4.5 8.63135C4.5 8.63135 4.5 8.63135 4.5 8.63135C4.5 8.63135 4.5 8.63135 4.5 8.63135C4.5 8.63135 4.5 8.63135 4.5 8.63135C4.5 8.63135 4.5 8.63135 4.5 8.63135C4.5 8.63135 4.5 8.63135 4.5 8.63135C4.5 8.63135 4.5 8.63135 4.5 8.63135C4.5 8.63135 4.5 8.63135 4.5 8.63135C4.5 8.63135 4.5 8.63135 4.5 8.63135C4.5 8.63135 4.5 8.63135 4.5 8.63135C4.5 8.63135 4.5 8.63135 4.5 8.63135C4.5 8.63135 4.5 8.63135 4.5 8.63135C4.5 8.63135 4.5 8.63135 4.5 8.63135C4.5 8.63135 4.5 8.63135 4.5 8.63135C4.5 8.63135 4.5 8.63135 4.5 8.63135C4.5 8.63135 4.5 8.63135 4.5 8.63135C4.5 8.63135 4.5 8.63135 4.5 8.63135C4.5 8.63135 4.5 8.63135 4.5 8.63135C4.5 8.63135 4.5 8.63135 4.5 8.63135C4.5 8.63135 4.5 8.63135 4.5 8.63135C4.5 8.63135 4.5 8.63135 4.5 8.63135C4.5 8.63135 4.5 8.63135 4.5 8.63135C4.5 8.63135 4.5 8.63135 4.5 8.63135C4.5 8.63135 4.5 8.63135 4.5 8.63135C4.5 8.63135 4.5 8.63135 4.5 8.63135C4.5 8.63135 4.5 8.63135 4.5 8.63135C4.5 8.63135 4.5 8.63135 4.5 8.63135C4.5 8.63135 4.5 8.63135 4.5 8.63135C4.5 8.63135 4.5 8.63135 4.5 8.63135C4.5 8.63135 4.5 8.63135 4.5 8.63135C4.5 8.63135 4.5 8.63135 4.5 8.63135C4.5 8.63135 4.5 8.63135 4.5 8.63135C4.5 8.63135 4.5 8.63135 4.5 8.63135C4.5 8.63135 4.5 8.63135 4.5 8.63135C4.5 8.63135 4.5 8.63135 4.5 8.63135C4.5 8.63135 4.5 8.63135 4.5 8.63135C4.5 8.63135 4.5 8.63135 4.5 8.63135C4.5 8.63135 4.5 8.63135 4.5 8.63135C4.5 8.63135 4.5 8.63135 4.5 8.63135C4.5 8.63135 4.5 8.63135 4.5 8.63135C4.5 8.63135 4.5 8.63135 4.5 8.63135C4.5 8.63135 4.5 8.63135 4.5 8.63135C4.5 8.63135 4.5 8.63135 4.5 8.63135C4.5 8.63135 4.5 8.63135 4.5 8.63135C4.5 8.63135 4.5 8.63135 4.5 8.63135C4.5 8.63135 4.5 8.63135 4.5 8.63135C4.5 8.63135 4.5 8.63135 4.5 8.63135C4.5 8.63135 4.5 8.63135 4.5 8.63135C4.5 8.63135 4.5 8.63135 4.5 8.63135C4.5 8.63135 4.5 8.63135 4.5 8.63135C4.5 8.63135 4.5 8.63135 4.5 8.63135C4.5 8.63135 4.5 8.63135 4.5 8.63135C4.5 8.63135 4.5 8.63135 4.5 8.63135C4.5 8.63135 4.5 8.63135 4.5 8.63135C4.5 8.63135 4.5 8.63135 4.5 8.63135C4.5 8.63135 4.5 8.63135 4.5 8.63135C4.5 8.63135 4.5 8.63135 4.5 8.63135C4.5 8.63135 4.5 8.63135 4.5 8.63135C4.5 8.63135 4.5 8.63135 4.5 8.63135C4.5 8.63135 4.5 8.63135 4.5 8.63135C4.5 8.63135 4.5 8.63135 4.5 8.63135C4.5 8.63135 4.5 8.63135 4.5 8.63135C4.5 8.63135 4.5 8.63135 4.5 8.63135C4.5 8.63135 4.5 8.63135 4.5 8.63135C4.5 8.63135 4.5 8.63135 4.5 8.63135C4.5 8.63135 4.5 8.63135 4.5 8.63135C4.5 8.63135 4.5 8.63135 4.5 8.63135C4.5 8.63135 4.5 8.63135 4.5 8.63135C4.5 8.63135 4.5 8.63135 4.5 8.63135C4.5 8.63135 4.5 8.63135 4.5 8.63135C4.5 8.63135 4.5 8.63135 4.5 8.63135C4.5 8.63135 4.5 8.63135 4.5 8.63135C4.5 8.63135 4.5 8.63135 4.5 8.63135C4.5 8.63135 4.5 8.63135 4.5 8.63135C4.5 8.63135 4.5 8.63135 4.5 8.63135C4.5 8.63135 4.5 8.63135 4.5 8.63135C4.5 8.63135 4.5 8.63135 4.5 8.63135C4.5 8.63135 4.5 8.63135 4.5 8.63135C4.5 8.63135 4.5 8.63135 4.5 8.63135C4.5 8.63135 4.5 8.63135 4.5 8.63135C4.5 8.63135 4.5 8.63135 4.5 8.63135C4.5 8.63135 4.5 8.63135 4.5 8.63135C4.5 8.63135 4.5 8.63135 4.5 8.63135C4.5 8.63135 4.5 8.63135 4.5 8.63135C4.5 8.63135 4.5 8.63135 4.5 8.63135C4.5 8.63135 4.5 8.63135 4.5 8.63135C4.5 8.63135 4.5 8.63135 4.5 8.63135C4.5 8.63135 4.5 8.63135 4.5 8.63135C4.5 8.63135 4.5 8.63135 4.5 8.63135C4.5 8.63135 4.5 8.63135 4.5 8.63135C4.5 8.63135 4.5 8.63135 4.5 8.63135C4.5 8.63135 4.5 8.63135 4.5 8.63135C4.5 8.63135 4.5 8.63135 4.5 8.63135C4.5 8.63135 4.5 8.63135 4.5 8.63135C4.5 8.63135 4.5 8.63135 4.5 8.63135C4.5 8.63135 4.5 8.63135 4.5 8.63135C4.5 8.63135 4.5 8.63135 4.5 8.63135C4.5 8.63135 4.5 8.63135 4.5 8.63135C4.5 8.63135 4.5 8.63135 4.5 8.63135C4.5 8.63135 4.5 8.63135 4.5 8.63135C4.5 8.63135 4.5 8.63135 4.5 8.63135C4.5 8.63135 4.5 8.63135 4.5 8.63135C4.5 8.63135 4.5 8.63135 4.5 8.63135C4.5 8.63135 4.5 8.63135 4.5 8.63135C4.5 8.63135 4.5 8.63135 4.5 8.63135C4.5 8.63135 4.5 8.63135 4.5 8.63135C4.5 8.63135 4.5 8.63135 4.5 8.63135C4.5 8.63135 4.5 8.63135 4.5 8.63135C4.5 8.63135 4.5 8.63135 4.5 8.63135C4.5 8.63135 4.5 8.63135 4.5 8.63135C4.5 8.63135 4.5 8.63135 4.5 8.63135C4.5 8.63135 4.5 8.63135 4.5 8.63135C4.5 8.63135 4.5 8.63135 4.5 8.63135C4.5 8.63135 4.5 8.63135 4.5 8.63135C4.5 8.63135 4.5 8.63135 4.5 8.63135C4.5 8.63135 4.5 8.63135 4.5 8.63135C4.5 8.63135 4.5 8.63135 4.5 8.63135C4.5 8.63135 4.5 8.63135 4.5 8.63135C4.5 8.63135 4.5 8.63135 4.5 8.63135C4.5 8.63135 4.5 8.63135 4.5 8.63135C4.5 8.63135 4.5 8.63135 4.5 8.63135C4.5 8.63135 4.5 8.63135 4.5 8.63135C4.5 8.63135 4.5 8.63135 4.5 8.63135C4.5 8.63135 4.5 8.63135 4.5 8.63135C4.5 8.63135 4.5 8.63135 4.5 8.63135C4.5 8.63135 4.5 8.63135 4.5 8.63135C4.5 8.63135 4.5 8.63135 4.5 8.63135C4.5 8.63135 4.5 8.63135 4.5 8.63135C4.5 8.63135 4.5 8.63135 4.5 8.63135C4.5 8.63135 4.5 8.63135 4.5 8.63135C4.5 8.63135 4.5 8.63135 4.5 8.63135C4.5 8.63135 4.5 8.63135 4.5 8.63135C4.5 8.63135 4.5 8.63135 4.5 8.63135C4.5 8.63135 4.5 8.63135 4.5 8.63135C4.5 8.63135 4.5 8.63135 4.5 8.63135C4.5 8.63135 4.5 8.63135 4.5 8.63135C4.5 8.63135 4.5 8.63135 4.5 8.63135C4.5 8.63135 4.5 8.63135 4.5 8.63135C4.5 8.63135 4.5 8.63135 4.5 8.63135C4.5 8.63135 4.5 8.63135 4.5 8.63135C4.5 8.63135 4.5 8.63135 4.5 8.63135C4.5 8.63135 4.5 8.63135 4.5 8.63135C4.5 8.63135 4.5 8.63135 4.5 8.63135C4.5 8.63135 4.5 8.63135 4.5 8.63135C4.5 8.63135 4.5 8.63135 4.5 8.63135C4.5 8.63135 4.5 8.63135 4.5 8.63135C4.5 8.63135 4.5 8.63135 4.5 8.63135C4.5 8.63135 4.5 8.63135 4.5 8.63135C4.5 8.63135 4.5 8.63135 4.5 8.63135C4.5 8.63135 4.5 8.63135 4.5 8.63135C4.5 8.63135 4.5 8.63135 4.5 8.63135C4.5 8.63135 4.5 8.63135 4.5 8.63135C4.5 8.63135 4.5 8.63135 4.5 8.63135C4.5 8.63135 4.5 8.63135 4.5 8.63135C4.5 8.63135 4.5 8.63135 4.5 8.63135C4.5 8.63135 4.5 8.63135 4.5 8.63135C4.5 8.63135 4.5 8.63135 4.5 8.63135C4.5 8.63135 4.5 8.63135 4.5 8.63135C4.5 8.63135 4.5 8.63135 4.5 8.63135C4.5 8.63135 4.5 8.63135 4.5 8.63135C4.5 8.63135 4.5 8.63135 4.5 8.63135C4.5 8.63135 4.5 8.63135 4.5 8.63135C4.5 8.63135 4.5 8.63135 4.5 8.63135C4.5 8.63135 4.5 8.63135 4.5 8.63135C4.5 8.63135 4.5 8.63135 4.5 8.63135C4.5 8.63135 4.5 8.63135 4.5 8.63135C4.5 8.63135 4.5 8.63135 4.5 8.63135C4.5 8.63135 4.5 8.63135 4.5 8.63135C4.5 8.63135 4.5 8.63135 4.5 8.63135C4.5 8.63135 4.5 8.63135 4.5 8.63135C4.5 8.63135 4.5 8.63135 4.5 8.63135C4.5 8.63135 4.5 8.63135 4.5 8.63135C4.5 8.63135 4.5 8.63135 4.5 8.63135C4.5 8.63135 4.5 8.63135 4.5 8.63135C4.5 8.63135 4.5 8.63135 4.5 8.63135C4.5 8.63135 4.5 8.63135 4.5 8.63135C4.5 8.63135 4.5 8.63135 4.5 8.63135C4.5 8.63135 4.5 8.63135 4.5 8.63135C4.5 8.63135 4.5 8.63135 4.5 8.63135C4.5 8.63135 4.5 8.63135 4.5 8.63135C4.5 8.63135 4.5 8.63135 4.5 8.63135C4.5 8.63135 4.5 8.63135 4.5 8.63135C4.5 8.63135 4.5 8.63135 4.5 8.63135C4.5 8.63135 4.5 8.63135 4.5 8.63135C4.5 8.63135 4.5 8.63135 4.5 8.63135C4.5 8.63135 4.5 8.63135 4.5 8.63135C4.5 8.63135 4.5 8.63135 4.5 8.63135C4.5 8.63135 4.5 8.63135 4.5 8.63135C4.5 8.63135 4.5 8.63135 4.5 8.63135C4.5 8.63135 4.5 8.63135 4.5 8.63135C4.5 8.63135 4.5 8.63135 4.5 8.63135C4.5 8.63135 4.5 8.63135 4.5 8.63135C4.5 8.63135 4.5 8.63135 4.5 8.63135C4.5 8.63135 4.5 8.63135 4.5 8.63135C4.5 8.63135 4.5 8.63135 4.5 8.63135C4.5 8.63135 4.5 8.63135 4.5 8.63135C4.5 8.63135 4.5 8.63135 4.5 8.63135C4.5 8.63135 4.5 8.63135 4.5 8.63135C4.5 8.63135 4.5 8.63135 4.5 8.63135C4.5 8.63135 4.5 8.63135 4.5 8.63135C4.5 8.63135 4.5 8.63135 4.5 8.63135C4.5 8.63135 4.5 8.63135 4.5 8.63135C4.5 8.63135 4.5 8.63135 4.5 8.63135C4.5 8.63135 4.5 8.63135 4.5 8.63135C4.5 8.63135 4.5 8.63135 4.5 8.63135C4.5 8.63135 4.5 8.63135 4.5 8.63135C4.5 8.63135 4.5 8.63135 4.5 8.63135C4.5 8.63135 4.5 8.63135 4.5 8.63135C4.5 8.63135 4.5 8.63135 4.5 8.63135C4.5 8.63135 4.5 8.63135 4.5 8.63135C4.5 8.63135 4.5 8.63135 4.5 8.63135C4.5 8.63135 4.5 8.63135 4.5 8.63135C4.5 8.63135 4.5 8.63135 4.5 8.63135C4.5 8.63135 4.5 8.63135 4.5 8.63135C4.5 8.63135 4.5 8.63135 4.5 8.63135C4.5 8.63135 4.5 8.63135 4.5 8.63135C4.5 8.63135 4.5 8.63135 4.5 8.63135C4.5 8.63135 4.5 8.63135 4.5 8.63135C4.5 8.63135 4.5 8.63135 4.5 8.63135C4.5 8.63135 4.5 8.63135 4.5 8.63135C4.5 8.63135 4.5 8.63135 4.5 8.63135C4.5 8.63135 4.5 8.63135 4.5 8.63135C4.5 8.63135 4.5 8.63135 4.5 8.63135C4.5 8.63135 4.5 8.63135 4.5 8.63135C4.5 8.63135 4.5 8.63135 4.5 8.63135C4.5 8.63135 4.5 8.63135 4.5 8.63135C4.5 8.63135 4.5 8.63135 4.5 8.63135C4.5 8.63135 4.5 8.63135 4.5 8.63135C4.5 8.63135 4.5 8.63135 4.5 8.63135C4.5 8.63135 4.5 8.63135 4.5 8.63135C4.5 8.63135 4.5 8.63135 4.5 8.63135C4.5 8.63135 4.5 8.63135 4.5 8.63135C4.5 8.63135 4.5 8.63135 4.5 8.63135C4.5 8.63135 4.5 8.63135 4.5 8.63135C4.5 8.63135 4.5 8.63135 4.5 8.63135C4.5 8.63135 4.5 8.63135 4.5 8.63135C4.5 8.63135 4.5 8.63135 4.5 8.63135C4.5 8.63135 4.5 8.63135 4.5 8.63135C4.5 8.63135 4.5 8.63135 4.5 8.63135C4.5 8.63135 4.5 8.63135 4.5 8.63135C4.5 8.63135 4.5 8.63135 4.5 8.63135C4.5 8.63135 4.5 8.63135 4.5 8.63135C4.5 8.63135 4.5 8.63135 4.5 8.63135C4.5 8.63135 4.5 8.63135 4.5 8.63135C4.5 8.63135 4.5 8.63135 4.5 8.63135C4.5 8.63135 4.5 8.63135 4.5 8.63135C4.5 8.63135 4.5 8.63135 4.5 8.63135C4.5 8.63135 4.5 8.63135 4.5 8.63135C4.5 8.63135 4.5 8.63135 4.5 8.63135C4.5 8.63135 4.5 8.63135 4.5 8.63135C4.5 8.63135 4.5 8.63135 4.5 8.63135C4.5 8.63135 4.5 8.63135 4.5 8.63135C4.5 8.63135 4.5 8.63135 4.5 8.63135C4.5 8.63135 4.5 8.63135 4.5 8.63135C4.5 8.63135 4.5 8.63135 4.5 8.63135C4.5 8.63135 4.5 8.63135 4.5 8.63135C4.5 8.63135 4.5 8.63135 4.5 8.63135C4.5 8.63135 4.5 8.63135 4.5 8.63135C4.5 8.63135 4.5 8.63135 4.5 8.63135C4.5 8.63135 4.5 8.63135 4.5 8.63135C4.5 8.63135 4.5 8.63135 4.5 8.63135C4.5 8.63135 4.5 8.63135 4.5 8.63135C4.5 8.63135 4.5 8.63135 4.5 8.63135C4.5 8.63135 4.5 8.63135 4.5 8.63135C4.5 8.63135 4.5 8.63135 4.5 8.63135C4.5 8.63135 4.5 8.63135 4.5 8.63135C4.5 8.63135 4.5 8.63135 4.5 8.63135C4.5 8.63135 4.5 8.63135 4.5 8.63135C4.5 8.63135 4.5 8.63135 4.5 8.63135C4.5 8.63135 4.5 8.63135 4.5 8.63135C4.5 8.63135 4.5 8.63135 4.5 8.63135C4.5 8.63135 4.5 8.63135 4.5 8.63135C4.5 8.63135 4.5 8.63135 4.5 8.63135C4.5 8.63135 4.5 8.63135 4.5 8.63135C4.5 8.63135 4.5 8.63135 4.5 8.63135C4.5 8.63135 4.5 8.63135 4.5 8.63135C4.5 8.63135 4.5 8.63135 4.5 8.63135C4.5 8.63135 4.5 8.63135 4.5 8.63135C4.5 8.63135 4.5 8.63135 4.5 8.63135C4.5 8.63135 4.5 8.63135 4.5 8.63135C4.5 8.63135 4.5 8.63135 4.5 8.63135C4.5 8.63135 4.5 8.63135 4.5 8.63135C4.5 8.63135 4.5 8.63135 4.5 8.63135C4.5 8.63135 4.5 8.63135 4.5 8.63135C4.5 8.63135 4.5 8.63135 4.5 8.63135C4.5 8.63135 4.5 8.63135 4.5 8.63135C4.5 8.63135 4.5 8.63135 4.5 8.63135C4.5 8.63135 4.5 8.63135 4.5 8.63135C4.5 8.63135 4.5 8.63135 4.5 8.63135C4.5 8.63135 4.5 8.63135 4.5 8.63135C4.5 8.63135 4.5 8.63135 4.5 8.63135C4.5 8.63135 4.5 8.63135 4.5 8.63135C4.5 8.63135 4.5 8.63135 4.5 8.63135C4.5 8.63135 4.5 8.63135 4.5 8.63135C4.5 8.63135 4.5 8.63135 4.5 8.63135C4.5 8.63135 4.5 8.63135 4.5 8.63135C4.5 8.63135 4.5 8.63135 4.5 8.63135C4.5 8.63135 4.5 8.63135 4.5 8.63135C4.5 8.63135 4.5 8.63135 4.5 8.63135C4.5 8.63135 4.5 8.63135 4.5 8.63135C4.5 8.63135 4.5 8.63135 4.5 8.63135C4.5 8.63135 4.5 8.63135 4.5 8.63135C4.5 8.63135 4.5 8.63135 4.5 8.63135C4.5 8.63135 4.5 8.63135 4.5 8.63135C4.5 8.63135 4.5 8.63135 4.5 8.63135C4.5 8.63135 4.5 8.63135 4.5 8.63135C4.5 8.63135 4.5 8.63135 4.5 8.63135C4.5 8.63135 4.5 8.63135 4.5 8.63135C4.5 8.63135 4.5 8.63135 4.5 8.63135C4.5 8.63135 4.5 8.63135 4.5 8.63135C4.5 8.63135 4.5 8.63135 4.5 8.63135C4.5 8.63135 4.5 8.63135 4.5 8.63135C4.5 8.63135 4.5 8.63135 4.5 8.63135C4.5 8.63135 4.5 8.63135 4.5 8.63135C4.5 8.63135 4.5 8.63135 4.5 8.63135C4.5 8.63135 4.5 8.63135 4.5 8.63135C4.5 8.63135 4.5 8.63135 4.5 8.63135C4.5 8.63135 4.5 8.63135 4.5 8.63135C4.5 8.63135 4.5 8.63135 4.5 8.63135C4.5 8.63135 4.5 8.63135 4.5 8.63135C4.5 8.63135 4.5 8.63135 4.5 8.63135C4.5 8.63135 4.5 8.63135 4.5 8.63135C4.5 8.63135 4.5 8.63135 4.5 8.63135C4.5 8.63135 4.5 8.63135 4.5 8.63135C4.5 8.63135 4.5 8.63135 4.5 8.63135C4.5 8.63135 4.5 8.63135 4.5 8.63135C4.5 8.63135 4.5 8.63135 4.5 8.63135C4.5 8.63135 4.5 8.63135 4.5 8.63135C4.5 8.63135 4.5 8.63135 4.5 8.63135C4.5 8.63135 4.5 8.63135 4.5 8.63135C4.5 8.63135 4.5 8.63135 4.5 8.63135C4.5 8.63135 4.5 8.63135 4.5 8.63135C4.5 8.63135 4.5 8.63135 4.5 8.63135C4 8.63135 3.5 8.63135 3.5 8.63135C3.5 8.63135 3.5 8.63135 3.5 8.63135C3.5 8.63135 3.5 8.63135 3.5 8.63135C3.5 8.63135 3.5 8.63135 3.5 8.63135C3.5 8.63135 3.5 8.63135 3.5 8.63135C3.5 8.63135 3.5 8.63135 3.5 8.63135C3.5 8.63135 3.5 8.63135 3.5 8.63135C3.5 8.63135 3.5 8.63135 3.5 8.63135C3.5 8.63135 3.5 8.63135 3.5 8.63135C3.5 8.63135 3.5 8.63135 3.5 8.63135C3.5 8.63135 3.5 8.63135 3.5 8.63135C3.5 8.63135 3.5 8.63135 3.5 8.63135C3.5 8.63135 3.5 8.63135 3.5 8.63135C3.5 8.63135 3.5 8.63135 3.5 8.63135C3.5 8.63135 3.5 8.63135 3.5 8.63135C3.5 8.63135 3.5 8.63135 3.5 8.63135C3.5 8.63135 3.5 8.63135 3.5 8.63135C3.5 8.63135 3.5 8.63135 3.5 8.63135C3.5 8.63135 3.5 8.63135 3.5 8.63135C3.5 8.63135 3.5 8.63135 3.5 8.63135C3.5 8.63135 3.5 8.63135 3.5 8.63135C3.5 8.63135 3.5 8.63135 3.5 8.63135C3.5 8.63135 3.5 8.63135 3.5 8.63135C3.5 8.63135 3.5 8.63135 3.5 8.63135C3.5 8.63135 3.5 8.63135 3.5 8.63135C3.5 8.63135 3.5 8.63135 3.5 8.63135C3.5 8.63135 3.5 8.63135 3.5 8.63135C3.5 8.63135 3.5 8.63135 3.5 8.63135C3.5 8.63135 3.5 8.63135 3.5 8.63135C3.5 8.63135 3.5 8.63135 3.5 8.63135C3.5 8.63135 3.5 8.63135 3.5 8.63135C3.5 8.63135 3.5 8.63135 3.5 8.63135C3.5 8.63135 3.5 8.63135 3.5 8.63135C3.5 8.63135 3.5 8.63135 3.5 8.63135C3.5 8.63135 3.5 8.63135 3.5 8.63135C3.5 8.63135 3.5 8.63135 3.5 8.63135C3.5 8.63135 3.5 8.63135 3.5 8.63135C3.5 8.63135 3.5 8.63135 3.5 8.63135C3.5 8.63135 3.5 8.63135 3.5 8.63135C3.5 8.63135 3.5 8.63135 3.5 8.63135C3.5 8.63135 3.5 8.63135 3.5 8.63135C3.5 8.63135 3.5 8.63135 3.5 8.63135C3.5 8.63135 3.5 8.63135 3.5 8.63135C3.5 8.63135 3.5 8.63135 3.5 8.63135C3.5 8.63135 3.5 8.63135 3.5 8.63135C3.5 8.63135 3.5 8.63135 3.5 8.63135C3.5 8.63135 3.5 8.63135 3.5 8.63135C3.5 8.63135 3.5 8.63135 3.5 8.63135C3.5 8.63135 3.5 8.63135 3.5 8.63135C3.5 8.63135 3.5 8.63135 3.5 8.63135C3.5 8.63135 3.5 8.63135 3.5 8.63135C3.5 8.63135 3.5 8.63135 3.5 8.63135C3.5 8.63135 3.5 8.63135 3.5 8.63135C3.5 8.63135 3.5 8.63135 3.5 8.63135C3.5 8.63135 3.5 8.63135 3.5 8.63135C3.5 8.63135 3.5 8.63135 3.5 8.63135C3.5 8.63135 3.5 8.63135 3.5 8.63135C3.5 8.63135 3.5 8.63135 3.5 8.63135C3.5 8.63135 3.5 8.63135 3.5 8.63135C3.5 8.63135 3.5 8.63135 3.5 8.63135C3.5 8.63135 3.5 8.63135 3.5 8.63135C3.5 8.63135 3.5 8.63135 3.5 8.63135C3.5 8.63135 3.5 8.63135 3.5 8.63135C3.5 8.63135 3.5 8.63135 3.5 8.63135C3.5 8.63135 3.5 8.63135 3.5 8.63135C3.5 8.63135 3.5 8.63135 3.5 8.63135C3.5 8.63135 3.5 8.63135 3.5 8.63135C3.5 8.63135 3.5 8.63135 3.5 8.63135C3.5 8.63135 3.5 8.63135 3.5 8.63135C3.5 8.63135 3.5 8.63135 3.5 8.63135C3.5 8.63135 3.5 8.63135 3.5 8.63135C3.5 8.63135 3.5 8.63135 3.5 8.63135C3.5 8.63135 3.5 8.63135 3.5 8.63135C3.5 8.63135 3.5 8.63135 3.5 8.63135C3.5 8.63135 3.5 8.63135 3.5 8.63135C3.5 8.63135 3.5 8.63135 3.5 8.63135C3.5 8.63135 3.5 8.63135 3.5 8.63135C3.5 8.63135 3.5 8.63135 3.5 8.63135C3.5 8.63135 3.5 8.63135 3.5 8.63135C3.5 8.63135 3.5 8.63135 3.5 8.63135C3.5 8.63135 3.5 8.63135 3.5 8.63135C3.5 8.63135 3.5 8.63135 3.5 8.63135C3.5 8.63135 3.5 8.63135 3.5 8.63135C3.5 8.63135 3.5 8.63135 3.5 8.63135C3.5 8.63135 3.5 8.63135 3.5 8.63135C3.5 8.63135 3.5 8.63135 3.5 8.63135C3.5 8.63135 3.5 8.63135 3.5 8.63135C3.5 8.63135 3.5 8.63135 3.5 8.63135C3.5 8.63135 3.5 8.63135 3.5 8.63135C3.5 8.63135 3.5 8.63135 3.5 8.63135C3.5 8.63135 3.5 8.63135 3.5 8.63135C3.5 8.63135 3.5 8.63135 3.5 8.63135C3.5 8.63135 3.5 8.63135 3.5 8.63135C3.5 8.63135 3.5 8.63135 3.5 8.63135C3.5 8.63135 3.5 8.63135 3.5 8.63135C3.5 8.63135 3.5 8.63135 3.5 8.63135C3.5 8.63135 3.5 8.63135 3.5 8.63135C3.5 8.63135 3.5 8.63135 3.5 8.63135C3.5 8.63135 3.5 8.63135 3.5 8.63135C3.5 8.63135 3.5 8.63135 3.5 8.63135C3.5 8.63135 3.5 8.63135 3.5 8.63135C3.5 8.63135 3.5 8.63135 3.5 8.63135C3.5 8.63135 3.5 8.63135 3.5 8.63135C3.5 8.63135 3.5 8.63135 3.5 8.63135C3.5 8.63135 3.5 8.63135 3.5 8.63135C3.5 8.63135 3.5 8.63135 3.5 8.63135C3.5 8.63135 3.5 8.63135 3.5 8.63135C3.5 8.63135 3.5 8.63135 3.5 8.63135C3.5 8.63135 3.5 8.63135 3.5 8.63135C3.5 8.63135 3.5 8.63135 3.5 8.63135C3.5 8.63135 3.5 8.63135 3.5 8.63135C3.5 8.63135 3.5 8.63135 3.5 8.63135C3.5 8.63135 3.5 8.63135 3.5 8.63135C3.5 8.63135 3.5 8.63135 3.5 8.63135C3.5 8.63135 3.5 8.63135 3.5 8.63135C3.5 8.63135 3.5 8.63135 3.5 8.63135C3.5 8.63135 3.5 8.63135 3.5 8.63135C3.5 8.63135 3.5 8.63135 3.5 8.63135C3.5 8.63135 3.5 8.63135 3.5 8.63135C3.5 8.63135 3.5 8.63135 3.5 8.63135C3.5 8.63135 3.5 8.63135 3.5 8.63135C3.5 8.63135 3.5 8.63135 3.5 8.63135C3.5 8.63135 3.5 8.63135 3.5 8.63135C3.5 8.63135 3.5 8.63135 3.5 8.63135C3.5 8.63135 3.5 8.63135 3.5 8.63135C3.5 8.63135 3.5 8.63135 3.5 8.63135C3.5 8.63135 3.5 8.63135 3.5 8.63135C3.5 8.63135 3.5 8.63135 3.5 8.63135C3.5 8.63135 3.5 8.63135 3.5 8.63135C3.5 8.63135 3.5 8.63135 3.5 8.63135C3.5 8.63135 3.5 8.63135 3.5 8.63135C3.5 8.63135 3.5 8.63135 3.5 8.63135C3.5 8.63135 3.5 8.63135 3.5 8.63135C3.5 8.63135 3.5 8.63135 3.5 8.63135C3.5 8.63135 3.5 8.63135 3.5 8.63135C3.5 8.63135 3.5 8.63135 3.5 8.63135C3.5 8.63135 3.5 8.63135 3.5 8.63135C3.5 8.63135 3.5 8.63135 3.5 8.63135C3.5 8.63135 3.5 8.63135 3.5 8.63135C3.5 8.63135 3.5 8.63135 3.5 8.63135C3.5 8.63135 3.5 8.63135 3.5 8.63135C3.5 8.63135 3.5 8.63135 3.5 8.63135C3.5 8.63135 3.5 8.63135 3.5 8.63135C3.5 8.63135 3.5 8.63135 3.5 8.63135C3.5 8.63135 3.5 8.63135 3.5 8.63135C3.5 8.63135 3.5 8.63135 3.5 8.63135C3.5 8.63135 3.5 8.63135 3.5 8.63135C3.5 8.63135 3.5 8.63135 3.5 8.63135C3.5 8.63135 3.5 8.63135 3.5 8.63135C3.5 8.63135 3.5 8.63135 3.5 8.63135C3.5 8.63135 3.5 8.63135 3.5 8.63135C3.5 8.63135 3.5 8.63135 3.5 8.63135C3.5 8.63135 3.5 8.63135 3.5 8.63135C3.5 8.63135 3.5 8.63135 3.5 8.63135C3.5 8.63135 3.5 8.63135 3.5 8.63135C3.5 8.63135 3.5 8.63135 3.5 8.63135C3.5 8.63135 3.5 8.63135 3.5 8.63135C3.5 8.63135 3.5 8.63135 3.5 8.63135C3.5 8.63135 3.5 8.63135 3.5 8.63135C3.5 8.63135 3.5 8.63135 3.5 8.63135C3.5 8.63135 3.5 8.63135 3.5 8.63135C3.5 8.63135 3.5 8.63135 3.5 8.63135C3.5 8.63135 3.5 8.63135 3.5 8.63135C3.5 8.63135 3.5 8.63135 3.5 8.63135C3.5 8.63135 3.5 8.63135 3.5 8.63135C3.5 8.63135 3.5 8.63135 3.5 8.63135C3.5 8.63135 3.5 8.63135 3.5 8.63135C3.5 8.63135 3.5 8.63135 3.5 8.63135C3.5 8.63135 3.5 8.63135 3.5 8.63135C3.5 8.63135 3.5 8.63135 3.5 8.63135C3.5 8.63135 3.5 8.63135 3.5 8.63135H4.5Z" fill="#2B63D9"/>
</svg>
