<svg width="32" height="32" viewBox="0 0 32 32" fill="none" xmlns="http://www.w3.org/2000/svg">
<g opacity="0.15">
<path d="M8 11.9888L12.1627 11.9885C13.1633 11.9885 14.1176 11.1756 14.1176 10.1726V6L8 11.9888Z" fill="#2B63D9"/>
<path d="M27.6697 19.9087C27.8696 19.7131 27.8703 19.3916 27.6711 19.1952L25.1434 16.7031C24.9493 16.5117 24.6376 16.5111 24.4428 16.7017L15.2414 25.7027L14.4035 29.1911C14.3154 29.5578 14.6495 29.8863 15.0146 29.792L18.4813 28.897L27.6697 19.9087Z" fill="#2B63D9"/>
<path d="M25.2739 16.8317L27.3675 18.8959L28.6763 17.6056C29.1079 17.18 29.1079 17.1284 28.6763 16.7029L27.4982 15.5414C27.0666 15.1158 27.0142 15.1158 26.5826 15.5414L25.2739 16.8317Z" fill="#2B63D9"/>
<path d="M22.4029 6H14.1176V10.1726C14.1176 11.1756 13.1633 11.9885 12.1627 11.9885L8 11.9888V13.99V23.901C8 25.0418 8.93795 25.9666 10.095 25.9666H14.9067C15.0658 25.9666 15.2043 25.8575 15.2414 25.7027L24.4979 16.6478V8.06552C24.4979 6.92477 23.5599 6 22.4029 6Z" fill="#2B63D9"/>
</g>
<path fill-rule="evenodd" clip-rule="evenodd" d="M11.5929 4.46406C11.7331 4.32684 11.9214 4.25 12.1176 4.25H20.4029C21.9641 4.25 23.2479 5.50058 23.2479 7.06552V12.8318C23.2479 13.246 22.9121 13.5818 22.4979 13.5818C22.0837 13.5818 21.7479 13.246 21.7479 12.8318V7.06552C21.7479 6.34895 21.1558 5.75 20.4029 5.75H12.8676V9.17257C12.8676 10.6594 11.5043 11.7385 10.1628 11.7385C10.1627 11.7385 10.1628 11.7385 10.1628 11.7385L6.75 11.7387V12.99C6.75 12.9901 6.75 12.99 6.75 12.99V22.901C6.75 23.6176 7.34212 24.2166 8.09497 24.2166H10.1627C10.5769 24.2166 10.9127 24.5524 10.9127 24.9666C10.9127 25.3808 10.5769 25.7166 10.1627 25.7166H8.09497C6.53378 25.7166 5.25 24.466 5.25 22.901V12.9909C5.25 12.9909 5.25 12.991 5.25 12.9909V10.9888C5.25 10.7871 5.33122 10.5939 5.47534 10.4529L11.5929 4.46406ZM7.83838 10.2387L10.1627 10.2385C10.8223 10.2385 11.3676 9.69171 11.3676 9.17257V6.78377L7.83838 10.2387ZM18.1437 13.5743C18.4345 13.8693 18.4311 14.3442 18.1361 14.635L13.9244 18.7875C13.636 19.0719 13.174 19.0759 12.8807 18.7967L10.9821 16.9894C10.6821 16.7038 10.6704 16.229 10.956 15.929C11.2416 15.629 11.7164 15.6173 12.0164 15.9029L13.3887 17.2093L17.083 13.5668C17.378 13.276 17.8528 13.2794 18.1437 13.5743ZM25.678 13.6977C25.8009 13.7881 25.9223 13.9063 26.0248 14.0073L27.2029 15.1688C27.3052 15.2697 27.4253 15.3895 27.5172 15.5112C27.6102 15.6341 27.75 15.8544 27.75 16.1542C27.75 16.454 27.6102 16.6744 27.5172 16.7973C27.4253 16.9189 27.3052 17.0388 27.2029 17.1397L26.4358 17.8959L26.5602 18.0186C26.7035 18.1599 26.784 18.3529 26.7836 18.5542C26.7832 18.7554 26.702 18.9481 26.5581 19.0888L26.0214 19.6138L26.3167 19.905C27.0462 20.6243 27.0462 21.7949 26.3167 22.5141L23.3051 25.4835C23.0101 25.7743 22.5352 25.7709 22.2444 25.4759C21.9536 25.181 21.957 24.7061 22.2519 24.4153L25.2636 21.446C25.3973 21.3142 25.3973 21.1049 25.2636 20.9731C25.2636 20.9731 25.2636 20.9731 25.2636 20.9731L24.949 20.6629L22.1598 23.3914C22.1254 23.4602 22.0797 23.5249 22.0228 23.5826C21.9591 23.6472 21.8866 23.6978 21.8092 23.7343L17.8512 27.6061C17.8153 27.6971 17.7608 27.7826 17.6877 27.8567C17.6079 27.9376 17.5142 27.9966 17.4142 28.0336L17.0058 28.4331C16.912 28.5249 16.7958 28.5904 16.6688 28.6232L12.3967 29.7262C12.1418 29.792 11.8711 29.7194 11.6834 29.5348C11.4956 29.3502 11.4184 29.0808 11.4799 28.8248L12.5122 24.5275C12.5451 24.3903 12.6161 24.2652 12.717 24.1665L22.2693 14.8222C22.5459 14.5517 22.9794 14.5379 23.2719 14.7805L24.0561 14.0073C24.1585 13.9063 24.2799 13.7881 24.4028 13.6977C24.528 13.6057 24.7463 13.4722 25.0404 13.4722C25.3345 13.4722 25.5528 13.6057 25.678 13.6977ZM22.7917 16.4096L19.29 19.835L21.4615 21.9761L24.4249 19.0772C24.4262 19.076 24.4274 19.0748 24.4286 19.0736L24.9633 18.5506L24.8422 18.4313C24.8415 18.4305 24.8407 18.4298 24.84 18.4291L22.7917 16.4096ZM25.3675 16.8427L24.3421 15.8317L25.0404 15.1432L26.0658 16.1542L25.3675 16.8427ZM20.3891 23.0251L18.2175 20.8841L14.9379 24.0923L17.1095 26.2333L20.3891 23.0251ZM16.0006 27.2465L13.8994 25.1748L13.2299 27.9619L16.0006 27.2465Z" fill="#2B63D9"/>
</svg>
