<svg width="32" height="32" viewBox="0 0 32 32" fill="none" xmlns="http://www.w3.org/2000/svg">
<path opacity="0.15" d="M9.78849 26.4652C8.66012 26.4652 7.99915 25.1095 8.51607 24.1065C9.41723 22.3579 9.89271 20.4394 9.89271 18.4627V16.0559C9.89271 12.5899 13.0213 9.77008 16.8668 9.77008C20.7123 9.77008 23.8409 12.5899 23.8409 16.0559V18.4627C23.8409 20.4394 24.3164 22.3579 25.2176 24.1065C25.7345 25.1095 25.0735 26.4652 23.9451 26.4652H9.78849Z" fill="#2B63D9"/>
<path fill-rule="evenodd" clip-rule="evenodd" d="M14.7854 5.75012C14.5439 5.75012 14.1863 6.00903 14.1863 6.53553V7.13325C14.385 7.11925 14.5856 7.11214 14.7877 7.11214C14.9882 7.11214 15.1873 7.11915 15.3845 7.13293V6.53553C15.3845 6.00903 15.0269 5.75012 14.7854 5.75012ZM16.8845 7.37438V6.53553C16.8845 5.36879 16.0317 4.25012 14.7854 4.25012C13.5391 4.25012 12.6863 5.36879 12.6863 6.53553V7.37554C9.40605 8.21501 6.93092 10.9704 6.93092 14.3276V16.8031C6.93092 18.7847 6.44199 20.7064 5.51466 22.4503C5.1345 23.1652 5.18902 23.9853 5.51835 24.6195C5.85109 25.2603 6.50823 25.7843 7.37446 25.7843H10.8783C11.6255 26.9923 13.0994 27.7501 14.7035 27.7501C16.3076 27.7501 17.7814 26.9923 18.5287 25.7843H22.2009C23.0671 25.7843 23.7243 25.2603 24.057 24.6195C24.3863 23.9853 24.4408 23.1652 24.0607 22.4503C23.1333 20.7064 22.6444 18.7847 22.6444 16.8031V14.3276C22.6444 10.9688 20.167 8.21247 16.8845 7.37438ZM18.0935 24.2843C18.0822 24.284 18.071 24.284 18.0598 24.2843H11.3472C11.336 24.284 11.3248 24.284 11.3135 24.2843H7.37446C7.16695 24.2843 6.97323 24.1664 6.84957 23.9282C6.7225 23.6835 6.7151 23.3877 6.83906 23.1546C7.87952 21.1979 8.43092 19.0349 8.43092 16.8031V14.3276C8.43092 11.2419 11.2149 8.61213 14.7877 8.61213C18.3604 8.61213 21.1444 11.2419 21.1444 14.3276V16.8031C21.1444 19.0349 21.6958 21.1979 22.7363 23.1545C22.8602 23.3876 22.8528 23.6835 22.7258 23.9282C22.6021 24.1664 22.4084 24.2843 22.2009 24.2843H18.0935ZM12.9733 25.7843H16.4337C15.9665 26.0698 15.3734 26.2501 14.7035 26.2501C14.0336 26.2501 13.4405 26.0698 12.9733 25.7843Z" fill="#2B63D9"/>
</svg>
