<svg width="16" height="16" viewBox="0 0 16 16" fill="none" xmlns="http://www.w3.org/2000/svg">
<path opacity="0.15" d="M5.70591 9.1992C5.70591 10.2512 5.49719 11.2753 5.09937 12.2236C4.78967 12.9619 5.23649 13.9402 5.98761 13.9402L7.81477 13.9403C8.06077 14.557 8.72314 15 9.50002 15C10.2769 15 10.9393 14.557 11.1853 13.9403L13.0124 13.9402C13.7635 13.9402 14.2103 12.9619 13.9006 12.2236C13.5028 11.2753 13.2941 10.2512 13.2941 9.1992V7.77332C13.2941 6.04125 12.0831 4.58156 10.4484 4.16714C10.2912 4.12727 10.1741 3.98995 10.1741 3.8277C10.1741 3.37131 9.87171 3 9.50002 3C9.12832 3 8.82592 3.37131 8.82592 3.8277C8.82592 3.98995 8.70887 4.12726 8.55159 4.16713C6.91696 4.58154 5.70591 6.04123 5.70591 7.77332V9.1992Z" fill="#2B63D9"/>
<path fill-rule="evenodd" clip-rule="evenodd" d="M6.94041 2.83054V2.41264C6.94041 1.6983 7.464 1 8.24455 1C9.02511 1 9.5487 1.6983 9.5487 2.41264V2.83055C11.3523 3.33802 12.6664 4.86945 12.6664 6.67481V8.21512C12.6664 9.35149 12.9096 10.4578 13.3733 11.4822C13.7342 12.2797 13.2135 13.3366 12.3381 13.3366H10.7273C10.7273 13.4051 10.7137 13.4747 10.6849 13.5417C10.3016 14.4324 9.31708 15 8.24456 15C7.17205 15 6.18752 14.4324 5.8042 13.5417C5.7754 13.4747 5.76179 13.4051 5.76184 13.3366H4.15101C3.27561 13.3366 2.75487 12.2798 3.11581 11.4822C3.57945 10.4578 3.82271 9.35149 3.82271 8.21512V6.67481C3.82271 4.86943 5.13675 3.338 6.94041 2.83054ZM7.97744 2.41264C7.97744 2.14094 8.15871 2.03704 8.24455 2.03704C8.33039 2.03704 8.51166 2.14094 8.51166 2.41264V2.65927C8.42329 2.65446 8.33422 2.65202 8.24454 2.65202C8.15487 2.65202 8.06581 2.65446 7.97744 2.65927V2.41264ZM4.85975 8.21512C4.85975 9.50098 4.58419 10.7529 4.0606 11.9098C4.02702 11.984 4.02499 12.1085 4.08438 12.2196C4.11058 12.2687 4.13685 12.291 4.14688 12.2977L4.1495 12.2995C4.14959 12.2995 4.15019 12.2995 4.15101 12.2995H12.3381C12.3387 12.2995 12.338 12.2994 12.3381 12.2995L12.3401 12.2992L12.3422 12.2977C12.3522 12.291 12.3785 12.2687 12.4047 12.2196C12.4641 12.1085 12.4621 11.984 12.4285 11.9098C11.9049 10.7529 11.6293 9.50097 11.6293 8.21512V6.67481C11.6293 5.1195 10.2045 3.68905 8.24454 3.68905C6.2846 3.68905 4.85975 5.1195 4.85975 6.67481V8.21512ZM8.24456 13.963C7.62332 13.963 7.12874 13.6872 6.87428 13.3366H9.61484C9.36039 13.6872 8.86581 13.963 8.24456 13.963Z" fill="#2B63D9"/>
</svg>
