<svg width="32" height="32" viewBox="0 0 32 32" fill="none" xmlns="http://www.w3.org/2000/svg">
<rect opacity="0.15" x="6.5" y="7.5" width="22" height="19" rx="2" fill="#2B63D9"/>
<path fill-rule="evenodd" clip-rule="evenodd" d="M4.25 9C4.25 6.92893 5.92893 5.25 8 5.25H24C26.0711 5.25 27.75 6.92893 27.75 9V22C27.75 24.0711 26.0711 25.75 24 25.75H8C5.92893 25.75 4.25 24.0711 4.25 22V9ZM8 6.75C6.75736 6.75 5.75 7.75736 5.75 9V11.25H26.25V9C26.25 7.75736 25.2426 6.75 24 6.75H8ZM26.25 12.75H5.75V22C5.75 23.2426 6.75736 24.25 8 24.25H24C25.2426 24.25 26.25 23.2426 26.25 22V12.75Z" fill="#2B63D9"/>
<path d="M9 9C9 9.55228 8.55228 10 8 10C7.44772 10 7 9.55228 7 9C7 8.44772 7.44772 8 8 8C8.55228 8 9 8.44772 9 9Z" fill="#2B63D9"/>
<path d="M12 9C12 9.55228 11.5523 10 11 10C10.4477 10 10 9.55228 10 9C10 8.44772 10.4477 8 11 8C11.5523 8 12 8.44772 12 9Z" fill="#2B63D9"/>
<path d="M15 9C15 9.55228 14.5523 10 14 10C13.4477 10 13 9.55228 13 9C13 8.44772 13.4477 8 14 8C14.5523 8 15 8.44772 15 9Z" fill="#2B63D9"/>
</svg>
