<svg width="32" height="32" viewBox="0 0 32 32" fill="none" xmlns="http://www.w3.org/2000/svg">
<path opacity="0.15" fill-rule="evenodd" clip-rule="evenodd" d="M18.7074 22.9766C18.7575 22.9795 18.8078 22.9795 18.8579 22.9766C18.874 22.9757 18.8902 22.9752 18.9065 22.9752H24.6334C25.7679 22.9752 26.6875 22.0629 26.6875 20.9376V11.0376C26.6875 9.91225 25.7679 9 24.6334 9H9.74157C8.60714 9 7.6875 9.91224 7.6875 11.0376V20.9376C7.6875 22.0629 8.60714 22.9752 9.74157 22.9752H13.7494C14.1991 22.9752 14.5637 23.3368 14.5637 23.7829C14.5637 23.799 14.5632 23.815 14.5623 23.8309V24.9649C14.5623 25.3832 15.0454 25.6166 15.3731 25.3566L18.1509 23.1522C18.3146 23.0223 18.5133 22.9652 18.7074 22.9766Z" fill="#2B63D9"/>
<path fill-rule="evenodd" clip-rule="evenodd" d="M5.25 9.6419C5.25 7.7686 6.76861 6.25 8.6419 6.25H22.3581C24.2314 6.25 25.75 7.76861 25.75 9.6419V18.8343C25.75 20.7076 24.2314 22.2262 22.3581 22.2262H17.3365L12.787 25.6919C12.5602 25.8646 12.255 25.8939 11.9995 25.7673C11.7441 25.6407 11.5824 25.3802 11.5825 25.0951L11.5832 22.2262H8.64191C6.76861 22.2262 5.25 20.7076 5.25 18.8343V9.6419ZM8.6419 7.75C7.59703 7.75 6.75 8.59703 6.75 9.6419V18.8343C6.75 19.8792 7.59703 20.7262 8.64191 20.7262H12.3333C12.5323 20.7262 12.7231 20.8052 12.8637 20.9459C13.0044 21.0866 13.0834 21.2774 13.0833 21.4764L13.0829 23.5808L16.6288 20.8796C16.7595 20.7801 16.9191 20.7262 17.0833 20.7262H22.3581C23.403 20.7262 24.25 19.8792 24.25 18.8343V9.6419C24.25 8.59703 23.403 7.75 22.3581 7.75H8.6419ZM20.195 10.4478C20.5 10.7281 20.52 11.2025 20.2397 11.5075L14.7254 17.5075C14.4466 17.8109 13.9754 17.8325 13.6699 17.556L11.1842 15.306C10.8771 15.0281 10.8535 14.5538 11.1315 14.2467C11.4094 13.9396 11.8837 13.916 12.1908 14.194L14.1247 15.9444L19.1353 10.4925C19.4156 10.1875 19.89 10.1675 20.195 10.4478Z" fill="#2B63D9"/>
</svg>
