<svg width="32" height="32" viewBox="0 0 32 32" fill="none" xmlns="http://www.w3.org/2000/svg">
<path opacity="0.15" fill-rule="evenodd" clip-rule="evenodd" d="M18.7074 22.9766C18.7575 22.9795 18.8078 22.9795 18.8579 22.9766C18.874 22.9757 18.8902 22.9752 18.9065 22.9752H24.6334C25.7679 22.9752 26.6875 22.0629 26.6875 20.9376V11.0376C26.6875 9.91225 25.7679 9 24.6334 9H9.74157C8.60714 9 7.6875 9.91224 7.6875 11.0376V20.9376C7.6875 22.0629 8.60714 22.9752 9.74157 22.9752H13.7494C14.1991 22.9752 14.5637 23.3368 14.5637 23.7829C14.5637 23.799 14.5632 23.815 14.5623 23.8309V24.9649C14.5623 25.3832 15.0454 25.6166 15.3731 25.3566L18.1509 23.1522C18.3146 23.0223 18.5133 22.9652 18.7074 22.9766Z" fill="#2B63D9"/>
<path fill-rule="evenodd" clip-rule="evenodd" d="M5.25 9.6419C5.25 7.7686 6.76861 6.25 8.6419 6.25H22.3581C24.2314 6.25 25.75 7.76861 25.75 9.6419V18.8343C25.75 20.7076 24.2314 22.2262 22.3581 22.2262H17.3365L12.787 25.6919C12.5602 25.8646 12.255 25.8939 11.9995 25.7673C11.7441 25.6407 11.5824 25.3802 11.5825 25.0951L11.5832 22.2262H8.64191C6.76861 22.2262 5.25 20.7076 5.25 18.8343V9.6419ZM8.6419 7.75C7.59703 7.75 6.75 8.59703 6.75 9.6419V18.8343C6.75 19.8792 7.59703 20.7262 8.64191 20.7262H12.3333C12.5323 20.7262 12.7231 20.8052 12.8637 20.9459C13.0044 21.0866 13.0834 21.2774 13.0833 21.4764L13.0829 23.5808L16.6288 20.8796C16.7595 20.7801 16.9191 20.7262 17.0833 20.7262H22.3581C23.403 20.7262 24.25 19.8792 24.25 18.8343V9.6419C24.25 8.59703 23.403 7.75 22.3581 7.75H8.6419ZM14.9934 11.261C14.423 11.3162 13.9119 11.5673 13.6469 11.8014C13.3365 12.0756 12.8625 12.0463 12.5883 11.7358C12.3141 11.4254 12.3434 10.9514 12.6539 10.6772C13.1672 10.2238 13.9793 9.85219 14.8489 9.768C15.7407 9.68165 16.7582 9.89479 17.5726 10.709C18.6171 11.7534 18.613 13.0686 18.0994 14.0669C17.6131 15.0119 16.6083 15.7906 15.4855 15.7906C15.4691 15.7906 15.4547 15.791 15.4421 15.7918C15.4426 15.7987 15.4432 15.8038 15.4436 15.8067C15.4526 15.8535 15.4571 15.901 15.4571 15.9487V16.5859C15.4571 17.0002 15.1214 17.3359 14.7071 17.3359C14.2929 17.3359 13.9571 17.0002 13.9571 16.5859V16.0079C13.951 15.9627 13.9449 15.9032 13.9424 15.8335C13.9375 15.6957 13.9456 15.4886 14.0175 15.2651C14.0918 15.0338 14.2399 14.7715 14.516 14.5732C14.7909 14.3759 15.1249 14.2906 15.4855 14.2906C15.9222 14.2906 16.4741 13.9469 16.7656 13.3805C17.0296 12.8674 17.0243 12.282 16.512 11.7698C16.0808 11.3386 15.5415 11.2079 14.9934 11.261ZM15.3707 15.8034C15.3706 15.8034 15.3714 15.803 15.3732 15.8024C15.3716 15.8032 15.3707 15.8035 15.3707 15.8034ZM14.7063 17.8442C15.1206 17.8442 15.4563 18.1799 15.4563 18.5942V18.672C15.4563 19.0862 15.1206 19.422 14.7063 19.422C14.2921 19.422 13.9563 19.0862 13.9563 18.672V18.5942C13.9563 18.1799 14.2921 17.8442 14.7063 17.8442Z" fill="#2B63D9"/>
</svg>
