<svg width="32" height="32" viewBox="0 0 32 32" fill="none" xmlns="http://www.w3.org/2000/svg">
<path d="M26 10.8333V10.5C26 8.84315 24.6569 7.5 23 7.5H9C7.34315 7.5 6 8.84314 6 10.5V23.6667C6 25.3235 7.34315 26.6667 9 26.6667H23C24.6569 26.6667 26 25.3235 26 23.6667V22.5" stroke="#6D7B8C" stroke-width="1.5" stroke-linecap="round"/>
<path d="M6 14.1666H16.8333" stroke="#6D7B8C" stroke-width="1.5" stroke-linecap="round"/>
<path d="M12.6666 5L12.6666 10" stroke="#6D7B8C" stroke-width="1.5" stroke-linecap="round"/>
<path d="M19.3334 5L19.3334 10" stroke="#6D7B8C" stroke-width="1.5" stroke-linecap="round"/>
<path d="M22.1113 14.1666L24.889 14.1666C26 14.1666 26.0001 14.1666 26.0001 15.2777L26.0001 18.0555M25.8612 14.3055L21 19.1666" stroke="#6D7B8C" stroke-width="1.5" stroke-linecap="round"/>
</svg>
