<svg width="16" height="16" viewBox="0 0 16 16" fill="none" xmlns="http://www.w3.org/2000/svg">
<g clip-path="url(#clip0)">
<path opacity="0.15" d="M12.3535 11.5603C12.3535 12.6198 11.527 13.4786 10.5074 13.4786L5.48672 13.4786C5.38991 13.4786 5.29519 13.5067 5.21404 13.5595L3.77267 14.4973C3.44006 14.7137 3 14.475 3 14.0782V8.66824C3 7.60877 3.82655 6.74989 4.84615 6.74989H5.54647C5.6017 6.74989 5.64647 6.70512 5.64647 6.64989V5.91835C5.64647 4.85887 6.47302 4 7.49263 4H14.154C15.1736 4 16.0001 4.85887 16.0001 5.91835L16 11.3283C16 11.7251 15.56 11.9638 15.2273 11.7474L13.786 10.8096C13.7048 10.7568 13.6101 10.7287 13.5133 10.7287L12.4535 10.7287C12.3983 10.7287 12.3535 10.7735 12.3535 10.8287V11.5603Z" fill="#2B63D9"/>
<path fill-rule="evenodd" clip-rule="evenodd" d="M3.86712 4.5C3.86712 3.11929 4.98641 2 6.36712 2H12.5001C13.8808 2 15.0001 3.11929 15.0001 4.50001L15 11.1013C15 11.2817 14.9028 11.4481 14.7457 11.5367C14.5885 11.6254 14.3958 11.6225 14.2414 11.5292L12.133 10.2552V10.3821C12.133 11.7628 11.0137 12.8821 9.63299 12.8821H4.26432L1.75858 14.3962C1.60417 14.4895 1.41146 14.4924 1.25433 14.4037C1.09719 14.3151 1 14.1486 1 13.9682V7.36696C1 5.98625 2.11929 4.86696 3.5 4.86696H3.86712V4.5ZM3.86712 5.86696H3.5C2.67157 5.86696 2 6.53853 2 7.36696V13.0819L3.74716 12.0262C3.90319 11.9319 4.08202 11.8821 4.26432 11.8821H9.63299C10.4614 11.8821 11.133 11.2105 11.133 10.3821V10.0151H6.36712C4.98641 10.0151 3.86712 8.89585 3.86712 7.51514V5.86696ZM11.5104 9.01514H6.36712C5.5387 9.01514 4.86712 8.34357 4.86712 7.51514V4.5C4.86712 3.67157 5.5387 3 6.36712 3H12.5001C13.3285 3 14.0001 3.67157 14.0001 4.5L14 10.2149L12.253 9.15927C12.1028 9.06854 11.9316 9.01897 11.7564 9.01536C11.717 9.00533 11.6756 9 11.633 9C11.5907 9 11.5496 9.00525 11.5104 9.01514Z" fill="#2B63D9"/>
<path d="M7.95113 5.90453C7.95113 6.20143 7.71045 6.44211 7.41355 6.44211C7.11665 6.44211 6.87597 6.20143 6.87597 5.90453C6.87597 5.60763 7.11665 5.36695 7.41355 5.36695C7.71045 5.36695 7.95113 5.60763 7.95113 5.90453Z" fill="#2B63D9"/>
<path d="M10.1015 5.90454C10.1015 6.20144 9.86083 6.44212 9.56393 6.44212C9.26703 6.44212 9.02635 6.20144 9.02635 5.90454C9.02635 5.60764 9.26703 5.36696 9.56393 5.36696C9.86083 5.36696 10.1015 5.60764 10.1015 5.90454Z" fill="#2B63D9"/>
<path d="M12.2519 5.90454C12.2519 6.20144 12.0112 6.44212 11.7143 6.44212C11.4174 6.44212 11.1767 6.20144 11.1767 5.90454C11.1767 5.60764 11.4174 5.36696 11.7143 5.36696C12.0112 5.36696 12.2519 5.60764 12.2519 5.90454Z" fill="#2B63D9"/>
</g>
<defs>
<clipPath id="clip0">
<rect width="16" height="16" fill="white"/>
</clipPath>
</defs>
</svg>
