<svg width="16" height="16" viewBox="0 0 16 16" fill="none" xmlns="http://www.w3.org/2000/svg">
<circle opacity="0.15" cx="9.5" cy="8.5" r="5.5" fill="#2B63D9"/>
<path fill-rule="evenodd" clip-rule="evenodd" d="M8 13C10.7614 13 13 10.7614 13 8C13 5.23858 10.7614 3 8 3C5.23858 3 3 5.23858 3 8C3 10.7614 5.23858 13 8 13ZM8 14C11.3137 14 14 11.3137 14 8C14 4.68629 11.3137 2 8 2C4.68629 2 2 4.68629 2 8C2 11.3137 4.68629 14 8 14Z" fill="#2B63D9"/>
<path fill-rule="evenodd" clip-rule="evenodd" d="M5.64646 6.64643C5.84172 6.45117 6.1583 6.45117 6.35356 6.64643L8.00001 8.29288L9.64646 6.64643C9.84172 6.45117 10.1583 6.45117 10.3536 6.64643C10.5488 6.8417 10.5488 7.15828 10.3536 7.35354L8.35356 9.35354C8.2598 9.44731 8.13262 9.49999 8.00001 9.49999C7.8674 9.49999 7.74022 9.44731 7.64646 9.35354L5.64646 7.35354C5.45119 7.15828 5.45119 6.8417 5.64646 6.64643Z" fill="#2B63D9"/>
</svg>
