<svg width="32" height="32" viewBox="0 0 32 32" fill="none" xmlns="http://www.w3.org/2000/svg">
<circle opacity="0.15" cx="18" cy="17" r="10" fill="#2B63D9"/>
<path fill-rule="evenodd" clip-rule="evenodd" d="M18.0303 11.4697C18.3232 11.7626 18.3232 12.2374 18.0303 12.5303L14.5607 16L18.0303 19.4697C18.3232 19.7626 18.3232 20.2374 18.0303 20.5303C17.7374 20.8232 17.2626 20.8232 16.9697 20.5303L12.9697 16.5303C12.6768 16.2374 12.6768 15.7626 12.9697 15.4697L16.9697 11.4697C17.2626 11.1768 17.7374 11.1768 18.0303 11.4697ZM16 25.5C21.2467 25.5 25.5 21.2467 25.5 16C25.5 10.7533 21.2467 6.5 16 6.5C10.7533 6.5 6.5 10.7533 6.5 16C6.5 21.2467 10.7533 25.5 16 25.5ZM16 27C22.0751 27 27 22.0751 27 16C27 9.92487 22.0751 5 16 5C9.92487 5 5 9.92487 5 16C5 22.0751 9.92487 27 16 27Z" fill="#2B63D9"/>
</svg>
