<svg width="32" height="32" viewBox="0 0 32 32" fill="none" xmlns="http://www.w3.org/2000/svg">
<circle opacity="0.15" cx="18" cy="17" r="10" fill="#2B63D9"/>
<path fill-rule="evenodd" clip-rule="evenodd" d="M20.5303 18.5304C20.2374 18.8233 19.7625 18.8233 19.4696 18.5304L16 15.0607L12.5303 18.5304C12.2374 18.8233 11.7625 18.8233 11.4696 18.5304C11.1767 18.2375 11.1767 17.7626 11.4696 17.4697L15.4696 13.4697C15.7625 13.1768 16.2374 13.1768 16.5303 13.4697L20.5303 17.4697C20.8232 17.7626 20.8232 18.2375 20.5303 18.5304ZM16 25.5C21.2467 25.5 25.5 21.2467 25.5 16C25.5 10.7533 21.2467 6.5 16 6.5C10.7533 6.5 6.5 10.7533 6.5 16C6.5 21.2467 10.7533 25.5 16 25.5ZM16 27C22.0751 27 27 22.0751 27 16C27 9.92487 22.0751 5 16 5C9.92487 5 5 9.92487 5 16C5 22.0751 9.92487 27 16 27Z" fill="#2B63D9"/>
</svg>
