<svg width="32" height="32" viewBox="0 0 32 32" fill="none" xmlns="http://www.w3.org/2000/svg">
<circle opacity="0.15" cx="18" cy="17" r="10" fill="#2B63D9"/>
<path fill-rule="evenodd" clip-rule="evenodd" d="M11.4697 14.4697C11.7626 14.1768 12.2374 14.1768 12.5303 14.4697L16 17.9393L19.4697 14.4697C19.7626 14.1768 20.2374 14.1768 20.5303 14.4697C20.8232 14.7626 20.8232 15.2374 20.5303 15.5303L16.5303 19.5303C16.2374 19.8232 15.7626 19.8232 15.4697 19.5303L11.4697 15.5303C11.1768 15.2374 11.1768 14.7626 11.4697 14.4697ZM16 25.5C21.2467 25.5 25.5 21.2467 25.5 16C25.5 10.7533 21.2467 6.5 16 6.5C10.7533 6.5 6.5 10.7533 6.5 16C6.5 21.2467 10.7533 25.5 16 25.5ZM16 27C22.0751 27 27 22.0751 27 16C27 9.92487 22.0751 5 16 5C9.92487 5 5 9.92487 5 16C5 22.0751 9.92487 27 16 27Z" fill="#2B63D9"/>
</svg>
