<svg width="16" height="16" viewBox="0 0 16 16" fill="none" xmlns="http://www.w3.org/2000/svg">
<circle opacity="0.15" cx="9.5" cy="8.5" r="5.5" fill="#2B63D9"/>
<path fill-rule="evenodd" clip-rule="evenodd" d="M8 13C10.7614 13 13 10.7614 13 8C13 5.23858 10.7614 3 8 3C5.23858 3 3 5.23858 3 8C3 10.7614 5.23858 13 8 13ZM8 14C11.3137 14 14 11.3137 14 8C14 4.68629 11.3137 2 8 2C4.68629 2 2 4.68629 2 8C2 11.3137 4.68629 14 8 14Z" fill="#2B63D9"/>
<path fill-rule="evenodd" clip-rule="evenodd" d="M7.14645 5.64647C7.34172 5.45121 7.6583 5.45121 7.85356 5.64647L9.85356 7.64647C9.94733 7.74024 10 7.86741 10 8.00002C10 8.13263 9.94733 8.25981 9.85356 8.35358L7.85356 10.3536C7.6583 10.5488 7.34172 10.5488 7.14645 10.3536C6.95119 10.1583 6.95119 9.84173 7.14645 9.64647L8.7929 8.00002L7.14645 6.35358C6.95119 6.15831 6.95119 5.84173 7.14645 5.64647Z" fill="#2B63D9"/>
</svg>
