<svg width="32" height="32" viewBox="0 0 32 32" fill="none" xmlns="http://www.w3.org/2000/svg">
<circle opacity="0.15" cx="18" cy="17" r="10" fill="#2B63D9"/>
<path fill-rule="evenodd" clip-rule="evenodd" d="M14.4697 20.5303C14.1768 20.2374 14.1768 19.7626 14.4697 19.4697L17.9393 16L14.4697 12.5303C14.1768 12.2374 14.1768 11.7626 14.4697 11.4697C14.7626 11.1768 15.2374 11.1768 15.5303 11.4697L19.5303 15.4697C19.8232 15.7626 19.8232 16.2374 19.5303 16.5303L15.5303 20.5303C15.2374 20.8232 14.7626 20.8232 14.4697 20.5303ZM16 25.5C21.2467 25.5 25.5 21.2467 25.5 16C25.5 10.7533 21.2467 6.5 16 6.5C10.7533 6.5 6.5 10.7533 6.5 16C6.5 21.2467 10.7533 25.5 16 25.5ZM16 27C22.0751 27 27 22.0751 27 16C27 9.92487 22.0751 5 16 5C9.92487 5 5 9.92487 5 16C5 22.0751 9.92487 27 16 27Z" fill="#2B63D9"/>
</svg>
