<svg width="16" height="16" viewBox="0 0 16 16" fill="none" xmlns="http://www.w3.org/2000/svg">
<circle opacity="0.15" cx="9.5" cy="8.5" r="5.5" fill="#2B63D9"/>
<path fill-rule="evenodd" clip-rule="evenodd" d="M9.35355 5.64645C9.54882 5.84171 9.54882 6.15829 9.35355 6.35355L7.70711 8L9.35355 9.64645C9.54882 9.84171 9.54882 10.1583 9.35355 10.3536C9.15829 10.5488 8.84171 10.5488 8.64645 10.3536L6.64645 8.35355C6.55268 8.25979 6.5 8.13261 6.5 8C6.5 7.86739 6.55268 7.74022 6.64645 7.64645L8.64645 5.64645C8.84171 5.45118 9.15829 5.45118 9.35355 5.64645ZM8 13C10.7614 13 13 10.7614 13 8C13 5.23858 10.7614 3 8 3C5.23858 3 3 5.23858 3 8C3 10.7614 5.23858 13 8 13ZM8 14C11.3137 14 14 11.3137 14 8C14 4.68629 11.3137 2 8 2C4.68629 2 2 4.68629 2 8C2 11.3137 4.68629 14 8 14Z" fill="#2B63D9"/>
</svg>
