<svg width="32" height="32" viewBox="0 0 32 32" fill="none" xmlns="http://www.w3.org/2000/svg">
<path opacity="0.15" fill-rule="evenodd" clip-rule="evenodd" d="M5.44642 7.5C4.89921 7.5 4.45561 7.9436 4.45561 8.49081V22.3621C4.45561 22.8156 4.76032 23.198 5.17618 23.3156C4.4165 23.9767 4 24.8291 4 25.7286C4 25.8777 4.15007 25.9989 4.33611 25.9989H11.8055C10.8958 26.8285 10.4004 27.8611 10.4004 28.9467C10.4004 29.1402 10.6071 29.2977 10.8632 29.2977H23.809C24.0637 29.2977 24.2717 29.1402 24.2717 28.9467C24.2717 27.8611 23.7752 26.8285 22.8653 25.9989H29.2517C29.4367 25.9989 29.5878 25.8777 29.5878 25.7286C29.5878 24.8459 29.1858 24.0086 28.4528 23.3529H29.2257C29.773 23.3529 30.2166 22.9093 30.2166 22.3621V8.49081C30.2166 7.9436 29.773 7.5 29.2257 7.5H5.44642ZM20.6467 23.3529H12.9401C13.3983 23.7629 13.7272 24.2438 13.9093 24.7625C14.6849 24.4882 15.5338 24.3437 16.4106 24.3437H18.2602C18.7821 24.3437 19.2942 24.3949 19.7868 24.4942C19.9788 24.0779 20.2686 23.6912 20.6467 23.3529Z" fill="#2B63D9"/>
<path fill-rule="evenodd" clip-rule="evenodd" d="M7.95346 13.9177C6.28731 13.9177 4.93055 15.2735 4.93055 16.9406C4.93055 18.6078 6.28628 19.9625 7.95346 19.9625C9.62063 19.9625 10.9764 18.6068 10.9764 16.9396C10.9764 15.2724 9.6196 13.9177 7.95346 13.9177ZM6.53653 16.9406C6.53653 16.1608 7.17391 15.5237 7.95346 15.5237C8.73371 15.5237 9.37039 16.1605 9.37039 16.9396C9.37039 17.7198 8.73367 18.3565 7.95346 18.3565C7.17253 18.3565 6.53653 17.7201 6.53653 16.9406Z" fill="#2B63D9"/>
<path fill-rule="evenodd" clip-rule="evenodd" d="M20.4432 16.9406C20.4432 15.2735 21.8 13.9177 23.4661 13.9177C25.1323 13.9177 26.489 15.2724 26.489 16.9396C26.489 18.6068 25.1333 19.9625 23.4661 19.9625C21.799 19.9625 20.4432 18.6078 20.4432 16.9406ZM23.4661 15.5237C22.6866 15.5237 22.0492 16.1608 22.0492 16.9406C22.0492 17.7201 22.6852 18.3565 23.4661 18.3565C24.2463 18.3565 24.8831 17.7198 24.8831 16.9396C24.8831 16.1605 24.2464 15.5237 23.4661 15.5237Z" fill="#2B63D9"/>
<path fill-rule="evenodd" clip-rule="evenodd" d="M17.6699 21.3041C18.8454 20.6157 19.6364 19.3391 19.6364 17.8808C19.6364 15.6946 17.8576 13.9182 15.6732 13.9182C13.4887 13.9182 11.7099 15.696 11.7099 17.8821C11.7099 19.3402 12.5006 20.616 13.6758 21.3041C14.0058 21.4973 14.3661 21.6441 14.7477 21.7357C15.0447 21.8069 15.3546 21.8447 15.6732 21.8447C15.9918 21.8447 16.3017 21.8069 16.5987 21.7356C16.98 21.644 17.3401 21.4972 17.6699 21.3041ZM15.6732 15.5242C14.3756 15.5242 13.3159 16.583 13.3159 17.8821C13.3159 19.1808 14.3739 20.2387 15.6732 20.2387C16.9717 20.2387 18.0304 19.1802 18.0304 17.8808C18.0304 16.5824 16.9714 15.5242 15.6732 15.5242Z" fill="#2B63D9"/>
<path fill-rule="evenodd" clip-rule="evenodd" d="M3.78345 5C2.79848 5 2 5.79848 2 6.78345V21.6455C2 22.5571 2.68393 23.309 3.56666 23.4159C3.18248 24.1405 2.98052 24.962 2.98052 25.8074C2.98052 26.7983 4.5865 26.7983 4.5865 25.8074C4.5865 24.944 4.88707 24.144 5.41481 23.5473C5.68896 23.237 6.00203 23.0061 6.33653 22.8559C6.64564 22.7171 6.97306 22.6472 7.30497 22.6472H8.38951C9.08014 22.6472 9.75175 22.9505 10.2797 23.5473C10.4836 23.7779 10.6535 24.0386 10.7853 24.3215C10.6861 24.4082 10.5894 24.4984 10.4951 24.5922C9.36161 25.7185 8.73752 27.2065 8.73752 28.7803C8.73752 29.7711 10.3435 29.7711 10.3435 28.7803C10.3435 27.6411 10.792 26.5612 11.6271 25.7314C12.4659 24.897 13.5695 24.4414 14.7477 24.4414H16.5987C17.776 24.4414 18.8796 24.8972 19.7193 25.7314C20.5543 26.5612 21.0028 27.6411 21.0028 28.7803C21.0028 29.7711 22.6088 29.7711 22.6088 28.7803C22.6088 27.2065 21.9847 25.7185 20.8512 24.5922C20.7477 24.4893 20.6411 24.3907 20.5317 24.2963C20.6623 24.0238 20.8287 23.7723 21.0274 23.5489C21.3042 23.2372 21.6209 23.0053 21.9596 22.8547C22.2699 22.7168 22.5987 22.6472 22.9324 22.6472H24.0228C24.7201 22.6472 25.3968 22.9518 25.9278 23.5489C26.4586 24.1457 26.7603 24.9452 26.7603 25.8074C26.7603 26.7983 28.3662 26.7983 28.3662 25.8074C28.3662 24.9618 28.1634 24.1404 27.7777 23.4162C28.6613 23.31 29.3462 22.5578 29.3462 21.6455V6.78345C29.3462 5.79848 28.5478 5 27.5628 5H3.78345ZM26.4303 21.8437H27.5628C27.6722 21.8437 27.7609 21.755 27.7609 21.6455V6.78345C27.7609 6.67401 27.6722 6.58529 27.5628 6.58529H3.78345C3.67401 6.58529 3.58529 6.67401 3.58529 6.78345V21.6455C3.58529 21.755 3.67401 21.8437 3.78345 21.8437H4.90725C5.60437 21.3277 6.43036 21.0412 7.30497 21.0412H8.38951C9.57775 21.0412 10.6756 21.571 11.4826 22.4833C11.7382 22.7723 11.9563 23.09 12.1346 23.4287C12.5469 23.2299 12.9809 23.0792 13.4297 22.9794C13.8577 22.8843 14.299 22.8355 14.7477 22.8355H16.5987C17.0471 22.8355 17.4882 22.8843 17.916 22.9795C18.3531 23.0768 18.7763 23.2224 19.179 23.4136C19.357 23.0798 19.5738 22.7667 19.8273 22.4817C20.6388 21.5682 21.7412 21.0412 22.9324 21.0412H24.0228C24.9007 21.0412 25.7301 21.328 26.4303 21.8437Z" fill="#2B63D9"/>
<path opacity="0.3" fill-rule="evenodd" clip-rule="evenodd" d="M25.5812 9.71301L5.76514 9.71301C5.35092 9.71301 5.01514 9.37723 5.01514 8.96301C5.01514 8.5488 5.35092 8.21301 5.76514 8.21301L25.5812 8.21301C25.9955 8.21301 26.3312 8.5488 26.3312 8.96301C26.3312 9.37723 25.9955 9.71301 25.5812 9.71301ZM15.6732 12.6854L5.76514 12.6854C5.35092 12.6854 5.01514 12.3496 5.01514 11.9354C5.01514 11.5212 5.35092 11.1854 5.76514 11.1854L15.6732 11.1854C16.0874 11.1854 16.4232 11.5212 16.4232 11.9354C16.4232 12.3496 16.0874 12.6854 15.6732 12.6854Z" fill="#2B63D9"/>
</svg>
