<svg width="32" height="32" viewBox="0 0 32 32" fill="none" xmlns="http://www.w3.org/2000/svg">
<g clip-path="url(#clip0)">
<path opacity="0.15" fill-rule="evenodd" clip-rule="evenodd" d="M27.7609 18.545C30.3024 16.9995 32 14.2041 32 11.0122C32 6.14666 28.0557 2.20239 23.1902 2.20239C18.3247 2.20239 14.3804 6.14666 14.3804 11.0122C14.3804 11.0685 14.381 11.1247 14.382 11.1808H4.26853C3.74955 11.1808 3.32884 11.6015 3.32884 12.1205V25.2762C3.32884 25.7063 3.61783 26.069 4.01223 26.1805C3.29175 26.8076 2.89673 27.6159 2.89673 28.4691C2.89673 28.6104 3.03905 28.7255 3.2155 28.7255H10.2996C9.43682 29.5122 8.96701 30.4916 8.96701 31.5212C8.96701 31.7047 9.16297 31.8541 9.4059 31.8541H21.6839C21.9255 31.8541 22.1228 31.7047 22.1228 31.5212C22.1228 30.4916 21.6519 29.5122 20.7889 28.7255H26.8458C27.0213 28.7255 27.1646 28.6104 27.1646 28.4691C27.1646 27.6319 26.7833 26.8378 26.0882 26.2159H26.8212C27.3402 26.2159 27.7609 25.7952 27.7609 25.2762V18.545ZM11.3756 26.2159H18.6847C18.3261 26.5368 18.0513 26.9035 17.8692 27.2984C17.402 27.2042 16.9164 27.1556 16.4213 27.1556H14.6671C13.8356 27.1556 13.0305 27.2926 12.2949 27.5528C12.1222 27.0609 11.8103 26.6047 11.3756 26.2159Z" fill="#2B63D9"/>
<path fill-rule="evenodd" clip-rule="evenodd" d="M12.2565 13.2797H4.57081C4.17796 13.2797 3.8595 12.9612 3.8595 12.5684C3.8595 12.1755 4.17796 11.8571 4.57081 11.8571L12.2565 11.8571C12.6493 11.8571 12.9678 12.1755 12.9678 12.5684C12.9678 12.9612 12.6493 13.2797 12.2565 13.2797ZM13.9678 16.0988L4.57081 16.0988C4.17796 16.0988 3.8595 15.7803 3.8595 15.3875C3.8595 14.9946 4.17796 14.6761 4.57081 14.6761L13.9678 14.6761C14.3606 14.6761 14.6791 14.9946 14.6791 15.3875C14.6791 15.7803 14.3606 16.0988 13.9678 16.0988Z" fill="#BFD0F4"/>
<path d="M24.2339 19.6721C23.7404 19.7765 23.2334 19.8447 22.7158 19.8738C22.7424 19.9776 22.7565 20.0862 22.7565 20.1979C22.7565 20.9297 22.1512 21.5268 21.4094 21.5268C20.6669 21.5268 20.0622 20.93 20.0622 20.1989C20.0622 20.021 20.0981 19.851 20.163 19.6956C19.6568 19.5947 19.1646 19.4558 18.6895 19.2822C18.5895 19.5698 18.5353 19.8782 18.5353 20.1989C18.5353 21.7625 19.8243 23.033 21.4094 23.033C22.9945 23.033 24.2835 21.7615 24.2835 20.1979C24.2835 20.0183 24.2664 19.8425 24.2339 19.6721Z" fill="#2B63D9"/>
<path d="M12.2138 10.4868H2.69565C2.5916 10.4868 2.50725 10.57 2.50725 10.6727V24.6115C2.50725 24.7141 2.5916 24.7974 2.69565 24.7974H3.76413C4.42693 24.3134 5.21226 24.0447 6.04381 24.0447H7.07496C8.2047 24.0447 9.2485 24.5416 10.0158 25.3972C10.2588 25.6683 10.4661 25.9662 10.6357 26.2839C11.0277 26.0975 11.4404 25.9561 11.867 25.8625C12.2739 25.7733 12.6935 25.7275 13.1201 25.7275H14.88C15.3063 25.7275 15.7257 25.7734 16.1324 25.8626C16.548 25.9538 16.9504 26.0904 17.3333 26.2697C17.5025 25.9567 17.7087 25.6631 17.9496 25.3957C18.7212 24.539 19.7694 24.0447 20.9019 24.0447H21.9386C22.7734 24.0447 23.5619 24.3137 24.2277 24.7974H25.3043C25.4084 24.7974 25.4928 24.7141 25.4928 24.6115V19.3183C26.0169 19.1331 26.5208 18.9056 27 18.6401V24.6115C27 25.4671 26.3488 26.1726 25.5086 26.2722C25.8754 26.9514 26.0683 27.7218 26.0683 28.5148C26.0683 29.4442 24.5413 29.4442 24.5413 28.5148C24.5413 27.7062 24.2545 26.9564 23.7499 26.3967C23.245 25.8367 22.6016 25.5509 21.9386 25.5509H20.9019C20.5847 25.5509 20.272 25.6162 19.977 25.7456C19.655 25.8868 19.3539 26.1043 19.0907 26.3967C18.9018 26.6062 18.7436 26.8421 18.6194 27.0976C18.7234 27.1861 18.8248 27.2787 18.9232 27.3751C20.0009 28.4315 20.5942 29.827 20.5942 31.3031C20.5942 32.2323 19.0673 32.2323 19.0673 31.3031C19.0673 30.2346 18.6409 29.2218 17.8469 28.4436C17.0486 27.6612 15.9993 27.2337 14.88 27.2337H13.1201C11.9999 27.2337 10.9506 27.661 10.1532 28.4435C9.3592 29.2218 8.93276 30.2346 8.93276 31.3031C8.93276 32.2323 7.40584 32.2323 7.40584 31.3031C7.40584 29.827 7.9992 28.4315 9.07693 27.3751C9.16651 27.2872 9.25851 27.2026 9.35276 27.1213C9.22749 26.8559 9.06599 26.6114 8.87209 26.3952C8.37014 25.8354 7.7316 25.5509 7.07496 25.5509H6.04381C5.72824 25.5509 5.41694 25.6165 5.12304 25.7467C4.80501 25.8876 4.50735 26.1041 4.2467 26.3951C3.74494 26.9547 3.45917 27.7051 3.45917 28.5148C3.45917 29.4442 1.93225 29.4442 1.93225 28.5148C1.93225 27.722 2.12427 26.9515 2.48953 26.2719C1.65026 26.1716 1 25.4665 1 24.6115V10.6727C1 9.74888 1.75917 9 2.69565 9H12.2664C12.2263 9.35755 12.2058 9.7209 12.2058 10.089C12.2058 10.2222 12.2085 10.3549 12.2138 10.4868Z" fill="#2B63D9"/>
<path fill-rule="evenodd" clip-rule="evenodd" d="M3.78628 20.1989C3.78628 18.6353 5.07625 17.3638 6.66037 17.3638C8.24449 17.3638 9.53446 18.6343 9.53446 20.1979C9.53446 21.7615 8.24547 23.033 6.66037 23.033C5.07527 23.033 3.78628 21.7625 3.78628 20.1989ZM6.66037 18.87C5.91921 18.87 5.3132 19.4675 5.3132 20.1989C5.3132 20.93 5.91789 21.5268 6.66037 21.5268C7.40218 21.5268 8.00755 20.9297 8.00755 20.1979C8.00755 19.4672 7.40222 18.87 6.66037 18.87Z" fill="#2B63D9"/>
<path fill-rule="evenodd" clip-rule="evenodd" d="M15.8985 24.2913C17.0161 23.6457 17.7682 22.4484 17.7682 21.0806C17.7682 19.0303 16.0769 17.3642 14 17.3642C11.9232 17.3642 10.2319 19.0315 10.2319 21.0819C10.2319 22.4494 10.9837 23.646 12.101 24.2913C12.4148 24.4725 12.7573 24.6102 13.1201 24.696C13.4025 24.7629 13.6971 24.7983 14 24.7983C14.303 24.7983 14.5976 24.7628 14.88 24.696C15.2426 24.6101 15.5849 24.4724 15.8985 24.2913ZM14 18.8704C12.7664 18.8704 11.7588 19.8635 11.7588 21.0819C11.7588 22.2999 12.7647 23.2921 14 23.2921C15.2347 23.2921 16.2412 22.2993 16.2412 21.0806C16.2412 19.8629 15.2344 18.8704 14 18.8704Z" fill="#2B63D9"/>
<path d="M22.1937 14.4776C21.8762 14.7948 21.3445 14.6769 21.2827 14.2323C21.0904 12.8499 21.6256 11.6633 21.6256 11.6633L19.0381 8.62554C19.0381 8.62554 18.195 8.7607 17.5921 8.28286L20.5247 5.35437C20.5247 5.35437 21.0068 5.95278 20.8645 6.81477L23.8989 9.39309C23.8989 9.39309 25.0264 8.81172 26.4728 9.0392C26.9167 9.10901 27.0335 9.64401 26.7155 9.96155L22.1937 14.4776Z" fill="#2B63D9"/>
<path d="M24.8522 11.9086C24.6569 11.7133 24.3403 11.7133 24.1451 11.9086C23.9498 12.1039 23.9498 12.4204 24.1451 12.6157L24.8522 11.9086ZM26.6571 15.1278C26.8524 15.323 27.169 15.323 27.3642 15.1278C27.5595 14.9325 27.5595 14.6159 27.3642 14.4207L26.6571 15.1278ZM17.5921 8.28286L17.2388 7.92906C17.1379 8.02988 17.0848 8.16902 17.093 8.31146C17.1011 8.4539 17.1697 8.58607 17.2816 8.67469L17.5921 8.28286ZM20.5247 5.35437L20.914 5.04068C20.825 4.93021 20.6933 4.86275 20.5516 4.8551C20.41 4.84745 20.2717 4.90033 20.1713 5.00057L20.5247 5.35437ZM26.4728 9.0392L26.3951 9.53313L26.4728 9.0392ZM26.7155 9.96155L27.0689 10.3153L26.7155 9.96155ZM21.2827 14.2323L21.7779 14.1634L21.2827 14.2323ZM22.1937 14.4776L22.547 14.8314L22.1937 14.4776ZM24.1451 12.6157L26.6571 15.1278L27.3642 14.4207L24.8522 11.9086L24.1451 12.6157ZM21.7779 14.1634C21.6928 13.5515 21.7682 12.974 21.8689 12.5432C21.9189 12.3293 21.9742 12.1558 22.0161 12.0376C22.0371 11.9786 22.0546 11.9337 22.0663 11.9049C22.0721 11.8905 22.0765 11.8801 22.0791 11.874C22.0804 11.871 22.0813 11.869 22.0817 11.8681C22.0819 11.8677 22.082 11.8675 22.0819 11.8676C22.0819 11.8677 22.0818 11.8678 22.0817 11.868C22.0817 11.8681 22.0816 11.8682 22.0816 11.8684C22.0815 11.8684 22.0815 11.8686 22.0815 11.8686C22.0814 11.8687 22.0814 11.8688 21.6256 11.6633C21.1698 11.4577 21.1697 11.4578 21.1697 11.458C21.1696 11.458 21.1696 11.4582 21.1695 11.4583C21.1694 11.4585 21.1693 11.4587 21.1692 11.4589C21.169 11.4594 21.1688 11.46 21.1685 11.4606C21.1679 11.4619 21.1672 11.4634 21.1664 11.4653C21.1648 11.469 21.1627 11.4738 21.1601 11.4798C21.155 11.4918 21.148 11.5083 21.1396 11.529C21.1228 11.5705 21.1 11.6291 21.0738 11.703C21.0214 11.8505 20.9549 12.06 20.8952 12.3156C20.7764 12.8236 20.6803 13.5307 20.7875 14.3012L21.7779 14.1634ZM22.0062 11.3391L19.4188 8.30133L18.6575 8.94976L21.2449 11.9875L22.0062 11.3391ZM19.0381 8.62554C18.959 8.13185 18.9591 8.13182 18.9593 8.1318C18.9593 8.13179 18.9595 8.13177 18.9596 8.13175C18.9598 8.13172 18.96 8.13169 18.9601 8.13167C18.9604 8.13161 18.9607 8.13157 18.961 8.13153C18.9614 8.13146 18.9617 8.13142 18.9618 8.13141C18.962 8.13138 18.9614 8.13147 18.9601 8.13165C18.9575 8.132 18.9521 8.13272 18.9441 8.13364C18.928 8.13547 18.9019 8.13804 18.8676 8.14006C18.7985 8.14413 18.6997 8.14571 18.5863 8.13543C18.3522 8.11421 18.0989 8.04652 17.9027 7.89102L17.2816 8.67469C17.6882 8.99704 18.1579 9.10069 18.4961 9.13135C18.6688 9.14701 18.8185 9.14468 18.9263 9.13833C18.9805 9.13514 19.0249 9.1309 19.0573 9.1272C19.0736 9.12535 19.0869 9.12363 19.0969 9.12224C19.1019 9.12155 19.1062 9.12093 19.1096 9.12043C19.1113 9.12017 19.1128 9.11994 19.1141 9.11975C19.1147 9.11965 19.1153 9.11955 19.1158 9.11947C19.1161 9.11943 19.1163 9.11939 19.1166 9.11935C19.1167 9.11933 19.1169 9.1193 19.1169 9.11929C19.1171 9.11927 19.1173 9.11924 19.0381 8.62554ZM17.9455 8.63665L20.878 5.70817L20.1713 5.00057L17.2388 7.92906L17.9455 8.63665ZM20.5247 5.35437C20.1353 5.66806 20.1352 5.6679 20.1351 5.66775C20.135 5.6677 20.1349 5.66754 20.1348 5.66744C20.1346 5.66725 20.1345 5.66706 20.1344 5.66688C20.1341 5.66651 20.1338 5.66618 20.1336 5.66589C20.1331 5.6653 20.1327 5.66484 20.1325 5.66452C20.132 5.66387 20.1319 5.66375 20.1322 5.66415C20.1328 5.66494 20.1349 5.66779 20.1384 5.67261C20.1453 5.68228 20.1573 5.69966 20.1724 5.72412C20.2028 5.77334 20.2446 5.8492 20.2836 5.94672C20.3615 6.14189 20.424 6.41346 20.3712 6.73336L21.3579 6.89619C21.4473 6.35409 21.3399 5.89546 21.2123 5.57593C21.1485 5.41609 21.0787 5.28848 21.0231 5.19856C20.9953 5.15345 20.9707 5.11735 20.9518 5.09092C20.9423 5.0777 20.9343 5.06685 20.9279 5.05846C20.9247 5.05426 20.9219 5.05067 20.9196 5.04771C20.9184 5.04623 20.9174 5.0449 20.9165 5.04373C20.916 5.04314 20.9155 5.04259 20.9151 5.04208C20.9149 5.04183 20.9147 5.04159 20.9146 5.04135C20.9145 5.04124 20.9143 5.04107 20.9143 5.04101C20.9141 5.04084 20.914 5.04068 20.5247 5.35437ZM20.5408 7.1958L23.5752 9.77411L24.2227 9.01206L21.1883 6.43375L20.5408 7.1958ZM23.8989 9.39309C24.1281 9.83749 24.1279 9.83756 24.1278 9.83763C24.1278 9.83765 24.1276 9.83772 24.1275 9.83777C24.1274 9.83785 24.1272 9.83793 24.1271 9.83799C24.1268 9.83813 24.1266 9.83823 24.1265 9.83829C24.1262 9.83842 24.1263 9.83842 24.1265 9.83828C24.1271 9.83801 24.1286 9.83723 24.1312 9.83596C24.1364 9.83342 24.1457 9.82897 24.1588 9.82294C24.1851 9.81088 24.2268 9.79253 24.2822 9.7705C24.3934 9.72637 24.5587 9.66798 24.766 9.6156C25.1822 9.51044 25.7555 9.43253 26.3951 9.53313L26.5505 8.54527C25.7437 8.41839 25.0301 8.51743 24.521 8.64607C24.2656 8.71061 24.0586 8.78334 23.9132 8.8411C23.8403 8.87002 23.7826 8.89532 23.7416 8.91416C23.721 8.92358 23.7047 8.9314 23.6926 8.93727C23.6866 8.94021 23.6817 8.94265 23.6779 8.94457C23.676 8.94553 23.6743 8.94635 23.673 8.94704C23.6723 8.94739 23.6717 8.9477 23.6712 8.94797C23.6709 8.94811 23.6707 8.94824 23.6704 8.94836C23.6703 8.94842 23.6701 8.9485 23.6701 8.94853C23.6699 8.94861 23.6698 8.94869 23.8989 9.39309ZM21.9789 12.0171L24.2522 9.74689L23.5456 9.03929L21.2723 11.3095L21.9789 12.0171ZM20.5125 6.4597L18.6861 8.27047L19.3902 8.98061L21.2166 7.16984L20.5125 6.4597ZM26.3622 9.60777L21.8404 14.1238L22.547 14.8314L27.0689 10.3153L26.3622 9.60777ZM26.3951 9.53313C26.4035 9.53444 26.4061 9.536 26.4049 9.53542C26.4037 9.53484 26.4012 9.53331 26.3985 9.53074C26.3927 9.52528 26.3932 9.52223 26.3944 9.52722C26.3973 9.53881 26.3976 9.57243 26.3622 9.60777L27.0689 10.3153C27.3514 10.0331 27.4523 9.64049 27.3653 9.28773C27.2755 8.92345 26.9845 8.61353 26.5505 8.54527L26.3951 9.53313ZM20.7875 14.3012C20.8482 14.7374 21.1547 15.0334 21.5203 15.1255C21.8731 15.2143 22.2653 15.1127 22.547 14.8314L21.8404 14.1238C21.8045 14.1596 21.7722 14.1577 21.7644 14.1557C21.7613 14.155 21.7664 14.1556 21.7735 14.1632C21.7768 14.1668 21.7788 14.1701 21.7797 14.172C21.7805 14.1739 21.7791 14.1717 21.7779 14.1634L20.7875 14.3012Z" fill="#2B63D9"/>
<path fill-rule="evenodd" clip-rule="evenodd" d="M22 18.6111C26.7558 18.6111 30.6111 14.7558 30.6111 10C30.6111 5.24422 26.7558 1.38889 22 1.38889C17.2442 1.38889 13.3889 5.24422 13.3889 10C13.3889 14.7558 17.2442 18.6111 22 18.6111ZM22 20C27.5228 20 32 15.5228 32 10C32 4.47715 27.5228 0 22 0C16.4772 0 12 4.47715 12 10C12 15.5228 16.4772 20 22 20Z" fill="#BFD0F4"/>
</g>
<defs>
<clipPath id="clip0">
<rect width="32" height="32" fill="white"/>
</clipPath>
</defs>
</svg>
