<svg width="16" height="16" viewBox="0 0 16 16" fill="none" xmlns="http://www.w3.org/2000/svg">
<path fill-rule="evenodd" clip-rule="evenodd" d="M8 14C11.3137 14 14 11.3137 14 8C14 4.68629 11.3137 2 8 2C4.68629 2 2 4.68629 2 8C2 11.3137 4.68629 14 8 14ZM6.07404 5.35225C5.85437 5.13258 5.49822 5.13258 5.27855 5.35225C5.05888 5.57192 5.05888 5.92808 5.27855 6.14775L7.11195 7.98116L5.23305 9.86006C5.01338 10.0797 5.01338 10.4359 5.23305 10.6556C5.45272 10.8752 5.80888 10.8752 6.02855 10.6556L7.90745 8.77665L9.78635 10.6556C10.006 10.8752 10.3622 10.8752 10.5818 10.6556C10.8015 10.4359 10.8015 10.0797 10.5818 9.86006L8.70294 7.98116L10.5364 6.14775C10.756 5.92808 10.756 5.57192 10.5364 5.35225C10.3167 5.13258 9.96053 5.13258 9.74086 5.35225L7.90745 7.18566L6.07404 5.35225Z" fill="#546579"/>
</svg>
