<svg width="32" height="32" viewBox="0 0 32 32" fill="none" xmlns="http://www.w3.org/2000/svg">
<rect opacity="0.15" x="8.94299" y="6" width="21" height="21" rx="1" fill="#2B63D9"/>
<path fill-rule="evenodd" clip-rule="evenodd" d="M10.6336 11.25C10.8325 11.25 11.0233 11.329 11.164 11.4696L13.5551 13.8607C13.8479 14.1536 13.8479 14.6285 13.5551 14.9214C13.2622 15.2143 12.7873 15.2143 12.4944 14.9214L11.3836 13.8106V16.7821C11.3836 17.1963 11.0479 17.5321 10.6336 17.5321C10.2194 17.5321 9.88364 17.1963 9.88364 16.7821V13.8106L8.77293 14.9214C8.48004 15.2143 8.00517 15.2143 7.71227 14.9214C7.41938 14.6285 7.41937 14.1536 7.71226 13.8607L10.1033 11.4696C10.244 11.329 10.4347 11.25 10.6336 11.25ZM5.92141 16.7123C6.21431 17.0052 6.21431 17.4801 5.92141 17.773L4.81066 18.8837H7.78217C8.19638 18.8837 8.53217 19.2195 8.53217 19.6337C8.53217 20.0479 8.19638 20.3837 7.78217 20.3837H4.81068L5.92141 21.4944C6.2143 21.7873 6.21431 22.2622 5.92142 22.5551C5.62853 22.848 5.15365 22.848 4.86076 22.5551L2.46967 20.164C2.32902 20.0234 2.25 19.8326 2.25 19.6337C2.25 19.4348 2.32902 19.244 2.46967 19.1034L4.86075 16.7123C5.15365 16.4194 5.62852 16.4194 5.92141 16.7123ZM15.346 16.7123C15.6389 16.4194 16.1138 16.4194 16.4067 16.7123L18.7978 19.1034C18.9384 19.244 19.0174 19.4348 19.0174 19.6337C19.0174 19.8326 18.9384 20.0234 18.7978 20.164L16.4067 22.5551C16.1138 22.848 15.6389 22.848 15.346 22.5551C15.0531 22.2622 15.0531 21.7874 15.346 21.4945L16.4568 20.3837L13.4852 20.3837C13.071 20.3837 12.7352 20.0479 12.7352 19.6337C12.7352 19.2195 13.071 18.8837 13.4852 18.8837L16.4567 18.8837L15.346 17.773C15.0531 17.4801 15.0531 17.0052 15.346 16.7123ZM10.6337 21.7353C11.0479 21.7353 11.3837 22.0711 11.3837 22.4853V25.4568L12.4944 24.346C12.7873 24.0531 13.2621 24.0531 13.555 24.346C13.8479 24.6389 13.8479 25.1138 13.555 25.4067L11.164 27.7978C11.0233 27.9384 10.8326 28.0174 10.6337 28.0174C10.4347 28.0175 10.244 27.9384 10.1033 27.7978L7.71225 25.4067C7.41935 25.1138 7.41935 24.6389 7.71225 24.346C8.00514 24.0531 8.48001 24.0531 8.77291 24.346L9.88366 25.4568V22.4853C9.88366 22.0711 10.2194 21.7353 10.6337 21.7353Z" fill="#2B63D9"/>
<path fill-rule="evenodd" clip-rule="evenodd" d="M6.14299 3.99995C6.14299 3.55812 6.50117 3.19995 6.94299 3.19995H7.46799C7.90982 3.19995 8.26799 3.55812 8.26799 3.99995C8.26799 4.36287 8.02633 4.66935 7.69514 4.76725C7.5835 5.07456 7.28888 5.29407 6.94299 5.29407C6.50117 5.29407 6.14299 4.9359 6.14299 4.49407V3.99995ZM10.868 3.99995C10.868 3.55812 11.2262 3.19995 11.668 3.19995H12.718C13.1598 3.19995 13.518 3.55812 13.518 3.99995C13.518 4.44178 13.1598 4.79995 12.718 4.79995H11.668C11.2262 4.79995 10.868 4.44178 10.868 3.99995ZM16.118 3.99995C16.118 3.55812 16.4762 3.19995 16.918 3.19995H17.968C18.4098 3.19995 18.768 3.55812 18.768 3.99995C18.768 4.44178 18.4098 4.79995 17.968 4.79995H16.918C16.4762 4.79995 16.118 4.44178 16.118 3.99995ZM21.368 3.99995C21.368 3.55812 21.7262 3.19995 22.168 3.19995H23.218C23.6598 3.19995 24.018 3.55812 24.018 3.99995C24.018 4.44178 23.6598 4.79995 23.218 4.79995H22.168C21.7262 4.79995 21.368 4.44178 21.368 3.99995ZM26.618 3.99995C26.618 3.55812 26.9762 3.19995 27.418 3.19995H27.943C28.3848 3.19995 28.743 3.55812 28.743 3.99995V4.52495C28.743 4.96678 28.3848 5.32495 27.943 5.32495C27.5843 5.32495 27.2808 5.08892 27.1792 4.76372C26.854 4.66216 26.618 4.35862 26.618 3.99995ZM6.94299 7.64701C7.38482 7.64701 7.74299 8.00518 7.74299 8.44701V8.94113C7.74299 9.38296 7.38482 9.74113 6.94299 9.74113C6.50117 9.74113 6.14299 9.38296 6.14299 8.94113V8.44701C6.14299 8.00518 6.50117 7.64701 6.94299 7.64701ZM27.943 7.92495C28.3848 7.92495 28.743 8.28312 28.743 8.72495V9.77495C28.743 10.2168 28.3848 10.575 27.943 10.575C27.5012 10.575 27.143 10.2168 27.143 9.77495V8.72495C27.143 8.28312 27.5012 7.92495 27.943 7.92495ZM27.943 13.175C28.3848 13.175 28.743 13.5331 28.743 13.975V15.025C28.743 15.4668 28.3848 15.825 27.943 15.825C27.5012 15.825 27.143 15.4668 27.143 15.025V13.975C27.143 13.5331 27.5012 13.175 27.943 13.175ZM27.943 18.425C28.3848 18.425 28.743 18.7831 28.743 19.225V20.275C28.743 20.7168 28.3848 21.0749 27.943 21.0749C27.5012 21.0749 27.143 20.7168 27.143 20.275V19.225C27.143 18.7831 27.5012 18.425 27.943 18.425ZM27.943 23.6749C28.3848 23.6749 28.743 24.0331 28.743 24.4749V25C28.743 25.4418 28.3848 25.7999 27.943 25.7999H27.4763C27.0345 25.7999 26.6763 25.4418 26.6763 25C26.6763 24.6658 26.8812 24.3794 27.1723 24.2598C27.2662 23.9224 27.5757 23.6749 27.943 23.6749ZM17.8097 25C17.8097 24.5581 18.1678 24.1999 18.6097 24.1999H19.0763C19.5182 24.1999 19.8763 24.5581 19.8763 25C19.8763 25.4418 19.5182 25.7999 19.0763 25.7999H18.6097C18.1678 25.7999 17.8097 25.4418 17.8097 25ZM22.0097 25C22.0097 24.5581 22.3678 24.1999 22.8097 24.1999H23.743C24.1848 24.1999 24.543 24.5581 24.543 25C24.543 25.4418 24.1848 25.7999 23.743 25.7999H22.8097C22.3678 25.7999 22.0097 25.4418 22.0097 25Z" fill="#2B63D9"/>
</svg>
