<svg width="32" height="32" viewBox="0 0 32 32" fill="none" xmlns="http://www.w3.org/2000/svg">
<g opacity="0.15">
<path d="M9.02526 17.8999C7.47616 17.8999 6.21471 19.1604 6.21471 20.7105C6.21471 22.2606 7.4752 23.5201 9.02526 23.5201C10.5753 23.5201 11.8358 22.2596 11.8358 20.7095C11.8358 19.1595 10.5744 17.8999 9.02526 17.8999Z" fill="#2B63D9"/>
<path d="M12.5254 25.7669C11.7561 25.139 10.7365 24.7931 9.65372 24.7931H8.4047C7.32195 24.7931 6.30228 25.139 5.53298 25.7669C4.76751 26.3919 4.34607 27.2166 4.34607 28.0891C4.34607 28.2276 4.48559 28.3404 4.65857 28.3404H13.4008C13.5728 28.3404 13.7133 28.2276 13.7133 28.0891C13.7133 27.2166 13.2909 26.3919 12.5254 25.7669Z" fill="#2B63D9"/>
<path d="M24.3134 17.8999C22.7643 17.8999 21.5029 19.1604 21.5029 20.7105C21.5029 22.2606 22.7634 23.5201 24.3134 23.5201C25.8635 23.5201 27.124 22.2596 27.124 20.7095C27.124 19.1595 25.8625 17.8999 24.3134 17.8999Z" fill="#2B63D9"/>
<path d="M27.8136 25.7669C27.0443 25.139 26.0246 24.7931 24.9419 24.7931H23.6929C22.6101 24.7931 21.5904 25.139 20.8211 25.7669C20.0557 26.3919 19.6342 27.2166 19.6342 28.0891C19.6342 28.2276 19.7738 28.3404 19.9467 28.3404H28.689C28.861 28.3404 29.0015 28.2276 29.0015 28.0891C29.0015 27.2166 28.5791 26.3919 27.8136 25.7669Z" fill="#2B63D9"/>
<path d="M19.4163 15.6983V16.8903H14.8375V15.6983C12.9202 14.829 11.5852 12.9033 11.5852 10.6634C11.5852 7.61016 14.0654 5.13574 17.1258 5.13574C20.1862 5.13574 22.6686 7.61016 22.6686 10.6634C22.6686 12.9033 21.3357 14.829 19.4163 15.6983Z" fill="#2B63D9"/>
<path d="M17.1447 21.2539C18.4153 21.2539 19.4453 20.2239 19.4453 18.9534H14.8442C14.8442 20.2239 15.8742 21.2539 17.1447 21.2539Z" fill="#2B63D9"/>
</g>
<path fill-rule="evenodd" clip-rule="evenodd" d="M5.25531 26.4614C4.76513 26.9589 4.49988 27.6076 4.49988 28.2975C4.49988 29.5 2.99988 29.5 2.99988 28.2975C2.99988 27.2119 3.42132 26.1856 4.18679 25.4086C4.69377 24.8934 5.3095 24.531 5.98036 24.3437C6.32746 24.2469 6.68932 24.1969 7.0585 24.1969H8.30849C8.69288 24.1969 9.06931 24.2512 9.42942 24.3562C10.0837 24.547 10.684 24.905 11.1802 25.4086C11.9457 26.1856 12.3671 27.2119 12.3671 28.2975C12.3671 29.5 10.8671 29.5 10.8671 28.2975C10.8671 27.6076 10.6019 26.9589 10.1117 26.4614M9.22279 22.7728C10.0079 22.2738 10.5298 21.3963 10.5298 20.3989C10.5298 18.8489 9.26835 17.5893 7.71925 17.5893C6.17015 17.5893 4.9087 18.8498 4.9087 20.3999C4.9087 21.3909 5.42399 22.2632 6.20079 22.7635C6.46061 22.9308 6.74968 23.0565 7.0585 23.1311C7.27047 23.1823 7.49174 23.2095 7.71925 23.2095C7.9213 23.2095 8.11843 23.188 8.30849 23.1474C8.63829 23.0768 8.9468 22.9482 9.22279 22.7728ZM20.5435 26.4614C20.0533 26.9589 19.788 27.6076 19.788 28.2975C19.788 29.5 18.288 29.5 18.288 28.2975C18.288 27.2119 18.7095 26.1856 19.475 25.4086C19.9819 24.8934 20.5977 24.531 21.2685 24.3437C21.6156 24.2469 21.9775 24.1969 22.3467 24.1969H23.5967C23.981 24.1969 24.3575 24.2512 24.7176 24.3562C25.3718 24.547 25.9722 24.905 26.4684 25.4086C27.2338 26.1856 27.6553 27.2119 27.6553 28.2975C27.6553 29.5 26.1553 29.5 26.1553 28.2975C26.1553 27.6076 25.89 26.9589 25.3999 26.4614M24.5109 22.7728C25.2961 22.2738 25.818 21.3963 25.818 20.3989C25.818 18.8489 24.5565 17.5893 23.0074 17.5893C21.4583 17.5893 20.1969 18.8498 20.1969 20.3999C20.1969 21.3909 20.7122 22.2632 21.489 22.7635C21.7488 22.9308 22.0378 23.0565 22.3467 23.1311C22.5586 23.1823 22.7799 23.2095 23.0074 23.2095C23.2095 23.2095 23.4066 23.188 23.5967 23.1474C23.9265 23.0768 24.235 22.9482 24.5109 22.7728ZM10.1117 26.4614C9.61968 25.962 8.98294 25.6969 8.30849 25.6969H7.0585C6.38324 25.6969 5.74652 25.9622 5.25531 26.4614M7.71925 19.0893C6.99825 19.0893 6.4087 19.6786 6.4087 20.3999C6.4087 21.1208 6.99696 21.7095 7.71925 21.7095C8.44088 21.7095 9.02981 21.1205 9.02981 20.3989C9.02981 19.6783 8.44092 19.0893 7.71925 19.0893ZM25.3999 26.4614C24.9078 25.962 24.2711 25.6969 23.5967 25.6969H22.3467C21.6714 25.6969 21.0347 25.9622 20.5435 26.4614M23.0074 19.0893C22.2864 19.0893 21.6969 19.6786 21.6969 20.3999C21.6969 21.1208 22.2851 21.7095 23.0074 21.7095C23.729 21.7095 24.318 21.1205 24.318 20.3989C24.318 19.6783 23.7291 19.0893 23.0074 19.0893Z" fill="#2B63D9"/>
<path fill-rule="evenodd" clip-rule="evenodd" d="M8.6898 3.47029C8.98235 3.17706 9.45723 3.1765 9.75046 3.46905L10.5786 4.29529C10.8719 4.58784 10.8724 5.06271 10.5799 5.35595C10.2873 5.64919 9.81247 5.64974 9.51923 5.35719L8.69105 4.53095C8.39781 4.2384 8.39725 3.76353 8.6898 3.47029ZM22.3466 3.47029C22.6392 3.76353 22.6386 4.2384 22.3454 4.53095L21.5172 5.35719C21.224 5.64974 20.7491 5.64919 20.4566 5.35595C20.164 5.06271 20.1646 4.58784 20.4578 4.29529L21.286 3.46905C21.5792 3.1765 22.0541 3.17706 22.3466 3.47029ZM15.5856 5.59817C12.9377 5.59817 10.7949 7.73846 10.7949 10.3758C10.7949 12.3094 11.9467 13.9749 13.607 14.7276C13.8741 14.8488 14.0462 15.1146 14.0473 15.4079L14.051 16.4135H17.1297L17.126 15.4135C17.1249 15.118 17.2974 14.8494 17.5666 14.7275C19.2284 13.9749 20.3784 12.3097 20.3784 10.3758C20.3784 7.73884 18.2338 5.59817 15.5856 5.59817ZM9.29492 10.3758C9.29492 6.90672 12.1126 4.09817 15.5856 4.09817C19.0581 4.09817 21.8784 6.90634 21.8784 10.3758C21.8784 12.7454 20.5651 14.8036 18.6277 15.8722L18.6325 17.1608C18.6332 17.3602 18.5545 17.5516 18.4138 17.6929C18.2731 17.8341 18.0819 17.9135 17.8825 17.9135H13.3037C12.8906 17.9135 12.5553 17.5794 12.5537 17.1663L12.549 15.8739C10.6117 14.8059 9.29492 12.7471 9.29492 10.3758ZM5.75759 9.63738C5.75759 9.22316 6.09338 8.88738 6.50759 8.88738H7.67869C8.09291 8.88738 8.42869 9.22316 8.42869 9.63738C8.42869 10.0516 8.09291 10.3874 7.67869 10.3874H6.50759C6.09338 10.3874 5.75759 10.0516 5.75759 9.63738ZM22.6077 9.63738C22.6077 9.22316 22.9435 8.88738 23.3577 8.88738H24.5289C24.9431 8.88738 25.2789 9.22316 25.2789 9.63738C25.2789 10.0516 24.9431 10.3874 24.5289 10.3874H23.3577C22.9435 10.3874 22.6077 10.0516 22.6077 9.63738ZM9.94512 14.1806C10.2381 14.4735 10.2381 14.9483 9.94526 15.2413L9.11923 16.0675C8.82638 16.3604 8.3515 16.3605 8.05857 16.0677C7.76564 15.7748 7.76558 15.2999 8.05843 15.007L8.88446 14.1808C9.17732 13.8878 9.65219 13.8878 9.94512 14.1806ZM21.0913 14.1806C21.3843 13.8878 21.8591 13.8878 22.152 14.1808L22.978 15.007C23.2709 15.2999 23.2708 15.7748 22.9779 16.0677C22.6849 16.3605 22.2101 16.3604 21.9172 16.0675L21.0912 15.2413C20.7983 14.9483 20.7984 14.4735 21.0913 14.1806ZM12.7613 18.7956C12.9028 18.6474 13.0988 18.5635 13.3037 18.5635H17.8782C18.2924 18.5635 18.6282 18.8993 18.6282 19.3135C18.6282 19.3647 18.623 19.4147 18.6133 19.463C18.4807 21.0181 17.179 22.2388 15.5877 22.2388C13.9586 22.2388 12.6291 20.9565 12.5545 19.3482C12.5451 19.1435 12.6197 18.9438 12.7613 18.7956ZM16.8609 20.0635H14.3142C14.5903 20.4704 15.0573 20.7388 15.5877 20.7388C16.118 20.7388 16.5848 20.4711 16.8609 20.0635Z" fill="#2B63D9"/>
</svg>
