<svg width="32" height="32" viewBox="0 0 32 32" fill="none" xmlns="http://www.w3.org/2000/svg">
<g opacity="0.15">
<path d="M9.02587 17.899C7.47677 17.899 6.21532 19.1595 6.21532 20.7095C6.21532 22.2596 7.47581 23.5191 9.02587 23.5191C10.5759 23.5191 11.8364 22.2586 11.8364 20.7086C11.8364 19.1585 10.575 17.899 9.02587 17.899Z" fill="#2B63D9"/>
<path d="M12.526 25.7659C11.7568 25.138 10.7371 24.7921 9.65433 24.7921H8.40531C7.32256 24.7921 6.30289 25.138 5.53359 25.7659C4.76812 26.3909 4.34668 27.2156 4.34668 28.0881C4.34668 28.2267 4.4862 28.3394 4.65918 28.3394H13.4014C13.5734 28.3394 13.7139 28.2267 13.7139 28.0881C13.7139 27.2156 13.2915 26.3909 12.526 25.7659Z" fill="#2B63D9"/>
<path d="M24.314 17.899C22.7649 17.899 21.5035 19.1595 21.5035 20.7095C21.5035 22.2596 22.764 23.5191 24.314 23.5191C25.8641 23.5191 27.1246 22.2586 27.1246 20.7086C27.1246 19.1585 25.8631 17.899 24.314 17.899Z" fill="#2B63D9"/>
<path d="M27.8142 25.7659C27.0449 25.138 26.0252 24.7921 24.9425 24.7921H23.6935C22.6107 24.7921 21.5911 25.138 20.8218 25.7659C20.0563 26.3909 19.6348 27.2156 19.6348 28.0881C19.6348 28.2267 19.7744 28.3394 19.9473 28.3394H28.6896C28.8616 28.3394 29.0021 28.2267 29.0021 28.0881C29.0021 27.2156 28.5797 26.3909 27.8142 25.7659Z" fill="#2B63D9"/>
<path d="M19.4169 15.6973V16.8893H14.8381V15.6973C12.9208 14.828 11.5858 12.9023 11.5858 10.6624C11.5858 7.60919 14.066 5.13477 17.1264 5.13477C20.1868 5.13477 22.6692 7.60919 22.6692 10.6624C22.6692 12.9023 21.3364 14.828 19.4169 15.6973Z" fill="#2B63D9"/>
<path d="M17.1454 21.2529C18.4159 21.2529 19.4459 20.2229 19.4459 18.9524H14.8448C14.8448 20.2229 15.8748 21.2529 17.1454 21.2529Z" fill="#2B63D9"/>
</g>
<path fill-rule="evenodd" clip-rule="evenodd" d="M5.25543 26.4614C4.76525 26.9589 4.5 27.6076 4.5 28.2975C4.5 29.5 3 29.5 3 28.2975C3 27.2119 3.42144 26.1856 4.18691 25.4086C4.6939 24.8934 5.30962 24.531 5.98048 24.3437C6.32758 24.2469 6.68944 24.1969 7.05863 24.1969H8.30861C8.693 24.1969 9.06944 24.2512 9.42954 24.3562C10.0838 24.547 10.6841 24.905 11.1803 25.4086C11.9458 26.1856 12.3672 27.2119 12.3672 28.2975C12.3672 29.5 10.8672 29.5 10.8672 28.2975C10.8672 27.6076 10.602 26.9589 10.1118 26.4614M9.22291 22.7728C10.008 22.2738 10.5299 21.3963 10.5299 20.3989C10.5299 18.8489 9.26848 17.5893 7.71938 17.5893C6.17027 17.5893 4.90882 18.8498 4.90882 20.3999C4.90882 21.3909 5.42411 22.2632 6.20092 22.7635C6.46073 22.9308 6.7498 23.0565 7.05863 23.1311C7.27059 23.1823 7.49186 23.2095 7.71938 23.2095C7.92142 23.2095 8.11855 23.188 8.30861 23.1474C8.63841 23.0768 8.94692 22.9482 9.22291 22.7728ZM20.5436 26.4614C20.0534 26.9589 19.7882 27.6076 19.7882 28.2975C19.7882 29.5 18.2882 29.5 18.2882 28.2975C18.2882 27.2119 18.7096 26.1856 19.4751 25.4086C19.9821 24.8934 20.5978 24.531 21.2687 24.3437C21.6157 24.2469 21.9776 24.1969 22.3468 24.1969H23.5968C23.9812 24.1969 24.3576 24.2512 24.7177 24.3562C25.372 24.547 25.9723 24.905 26.4685 25.4086C27.234 26.1856 27.6554 27.2119 27.6554 28.2975C27.6554 29.5 26.1554 29.5 26.1554 28.2975C26.1554 27.6076 25.8902 26.9589 25.4 26.4614M24.5111 22.7728C25.2962 22.2738 25.8181 21.3963 25.8181 20.3989C25.8181 18.8489 24.5566 17.5893 23.0075 17.5893C21.4584 17.5893 20.197 18.8498 20.197 20.3999C20.197 21.3909 20.7123 22.2632 21.4891 22.7635C21.7489 22.9308 22.038 23.0565 22.3468 23.1311C22.5588 23.1823 22.78 23.2095 23.0075 23.2095C23.2096 23.2095 23.4067 23.188 23.5968 23.1474C23.9266 23.0768 24.2351 22.9482 24.5111 22.7728ZM10.1118 26.4614C9.6198 25.962 8.98306 25.6969 8.30861 25.6969H7.05863C6.38337 25.6969 5.74664 25.9622 5.25543 26.4614M7.71938 19.0893C6.99837 19.0893 6.40882 19.6786 6.40882 20.3999C6.40882 21.1208 6.99708 21.7095 7.71938 21.7095C8.44101 21.7095 9.02993 21.1205 9.02993 20.3989C9.02993 19.6783 8.44105 19.0893 7.71938 19.0893ZM25.4 26.4614C24.908 25.962 24.2712 25.6969 23.5968 25.6969H22.3468C21.6715 25.6969 21.0348 25.9622 20.5436 26.4614M23.0075 19.0893C22.2865 19.0893 21.697 19.6786 21.697 20.3999C21.697 21.1208 22.2852 21.7095 23.0075 21.7095C23.7292 21.7095 24.3181 21.1205 24.3181 20.3989C24.3181 19.6783 23.7292 19.0893 23.0075 19.0893Z" fill="#2B63D9"/>
<path fill-rule="evenodd" clip-rule="evenodd" d="M8.68993 3.47029C8.98248 3.17706 9.45735 3.1765 9.75059 3.46905L10.5788 4.29529C10.872 4.58784 10.8726 5.06271 10.58 5.35595C10.2875 5.64919 9.81259 5.64974 9.51935 5.35719L8.69117 4.53095C8.39793 4.2384 8.39738 3.76353 8.68993 3.47029ZM22.3468 3.47029C22.6393 3.76353 22.6388 4.2384 22.3455 4.53095L21.5173 5.35719C21.2241 5.64974 20.7492 5.64919 20.4567 5.35595C20.1641 5.06271 20.1647 4.58784 20.4579 4.29529L21.2861 3.46905C21.5793 3.1765 22.0542 3.17706 22.3468 3.47029ZM15.5857 5.59817C12.9378 5.59817 10.795 7.73846 10.795 10.3758C10.795 12.3094 11.9468 13.9749 13.6071 14.7276C13.8743 14.8488 14.0463 15.1146 14.0474 15.4079L14.0511 16.4135H17.1298L17.1261 15.4135C17.125 15.118 17.2976 14.8494 17.5667 14.7275C19.2286 13.9749 20.3785 12.3097 20.3785 10.3758C20.3785 7.73884 18.2339 5.59817 15.5857 5.59817ZM9.29504 10.3758C9.29504 6.90672 12.1127 4.09817 15.5857 4.09817C19.0583 4.09817 21.8785 6.90634 21.8785 10.3758C21.8785 12.7454 20.5653 14.8036 18.6278 15.8722L18.6326 17.1608C18.6333 17.3602 18.5546 17.5516 18.4139 17.6929C18.2732 17.8341 18.082 17.9135 17.8826 17.9135H13.3039C12.8907 17.9135 12.5554 17.5794 12.5539 17.1663L12.5491 15.8739C10.6119 14.8059 9.29504 12.7471 9.29504 10.3758ZM5.75771 9.63738C5.75771 9.22316 6.0935 8.88738 6.50771 8.88738H7.67882C8.09303 8.88738 8.42882 9.22316 8.42882 9.63738C8.42882 10.0516 8.09303 10.3874 7.67882 10.3874H6.50771C6.0935 10.3874 5.75771 10.0516 5.75771 9.63738ZM22.6079 9.63738C22.6079 9.22316 22.9437 8.88738 23.3579 8.88738H24.529C24.9432 8.88738 25.279 9.22316 25.279 9.63738C25.279 10.0516 24.9432 10.3874 24.529 10.3874H23.3579C22.9437 10.3874 22.6079 10.0516 22.6079 9.63738ZM9.94524 14.1806C10.2382 14.4735 10.2382 14.9483 9.94538 15.2413L9.11935 16.0675C8.8265 16.3604 8.35163 16.3605 8.05869 16.0677C7.76576 15.7748 7.7657 15.2999 8.05856 15.007L8.88458 14.1808C9.17744 13.8878 9.65231 13.8878 9.94524 14.1806ZM21.0914 14.1806C21.3844 13.8878 21.8592 13.8878 22.1521 14.1808L22.9781 15.007C23.271 15.2999 23.2709 15.7748 22.978 16.0677C22.6851 16.3605 22.2102 16.3604 21.9173 16.0675L21.0913 15.2413C20.7985 14.9483 20.7985 14.4735 21.0914 14.1806ZM12.7614 18.7956C12.9029 18.6474 13.0989 18.5635 13.3039 18.5635H17.8783C18.2925 18.5635 18.6283 18.8993 18.6283 19.3135C18.6283 19.3647 18.6232 19.4147 18.6134 19.463C18.4808 21.0181 17.1791 22.2388 15.5878 22.2388C13.9587 22.2388 12.6292 20.9565 12.5547 19.3482C12.5452 19.1435 12.6199 18.9438 12.7614 18.7956ZM16.861 20.0635H14.3144C14.5904 20.4704 15.0575 20.7388 15.5878 20.7388C16.1181 20.7388 16.585 20.4711 16.861 20.0635Z" fill="#2B63D9"/>
</svg>
