<svg width="16" height="16" viewBox="0 0 16 16" fill="none" xmlns="http://www.w3.org/2000/svg">
<path opacity="0.15" fill-rule="evenodd" clip-rule="evenodd" d="M5.49632 12.3223C5.5327 12.3223 5.56922 12.3224 5.60561 12.3224H11.4685C12.8666 12.3224 14 11.0309 14 9.4378V6.88456C14 5.29146 12.8666 4 11.4685 4H5.53153C4.1334 4 3 5.29146 3 6.88455V12.8993V13.0291C3 13.4356 3.45943 13.6722 3.79039 13.4361L5.22816 12.4103C5.31167 12.3508 5.40455 12.3223 5.49632 12.3223Z" fill="#2B63D9"/>
<path fill-rule="evenodd" clip-rule="evenodd" d="M1 5.5C1 3.567 2.567 2 4.5 2H10.363C12.296 2 13.863 3.567 13.863 5.5V7.71286C13.863 9.64585 12.296 11.2129 10.363 11.2129L4.71249 11.2129L1.75858 12.9977C1.60416 13.091 1.41146 13.0939 1.25433 13.0052C1.09719 12.9166 1 12.7502 1 12.5698V5.5ZM4.5 3C3.11929 3 2 4.11929 2 5.5V11.6835L4.19533 10.357C4.35136 10.2627 4.53019 10.2129 4.71249 10.2129H10.363C11.7437 10.2129 12.863 9.09357 12.863 7.71286V5.5C12.863 4.11929 11.7437 3 10.363 3H4.5ZM4.82419 5.53493C4.82419 5.25879 5.04805 5.03493 5.32419 5.03493H9.86172C10.1379 5.03493 10.3617 5.25879 10.3617 5.53493C10.3617 5.81107 10.1379 6.03493 9.86172 6.03493H5.32419C5.04805 6.03493 4.82419 5.81107 4.82419 5.53493ZM4.82419 7.53493C4.82419 7.25879 5.04805 7.03493 5.32419 7.03493H9.86172C10.1379 7.03493 10.3617 7.25879 10.3617 7.53493C10.3617 7.81107 10.1379 8.03493 9.86172 8.03493H5.32419C5.04805 8.03493 4.82419 7.81107 4.82419 7.53493Z" fill="#2B63D9"/>
</svg>
