<svg width="16" height="16" viewBox="0 0 16 16" fill="none" xmlns="http://www.w3.org/2000/svg">
<rect opacity="0.15" x="4" y="6" width="9" height="9" rx="2" fill="#2B63D9"/>
<path fill-rule="evenodd" clip-rule="evenodd" d="M9.68443 5.31578H4C3.44772 5.31578 3 5.76349 3 6.31578V12.0002C3 12.5525 3.44772 13.0002 4 13.0002H9.68443C10.2367 13.0002 10.6844 12.5525 10.6844 12.0002V6.31578C10.6844 5.76349 10.2367 5.31578 9.68443 5.31578ZM4 4.31578C2.89543 4.31578 2 5.21121 2 6.31578V12.0002C2 13.1048 2.89543 14.0002 4 14.0002H9.68443C10.789 14.0002 11.6844 13.1048 11.6844 12.0002V6.31578C11.6844 5.21121 10.789 4.31578 9.68443 4.31578H4Z" fill="#2B63D9"/>
<path fill-rule="evenodd" clip-rule="evenodd" d="M4.52629 2.5C4.52629 2.22386 4.75015 2 5.02629 2H11.5002C12.8809 2 14.0002 3.11929 14.0002 4.5V10.9739C14.0002 11.25 13.7763 11.4739 13.5002 11.4739C13.224 11.4739 13.0002 11.25 13.0002 10.9739V4.5C13.0002 3.67157 12.3286 3 11.5002 3H5.02629C4.75015 3 4.52629 2.77614 4.52629 2.5Z" fill="#2B63D9"/>
</svg>
