<svg width="16" height="16" viewBox="0 0 16 16" fill="none" xmlns="http://www.w3.org/2000/svg">
<path fill-rule="evenodd" clip-rule="evenodd" d="M3.47823 3.22223C3.77454 2.92592 4.25494 2.92592 4.55125 3.22223L8 6.67098L11.4487 3.22223C11.7451 2.92592 12.2255 2.92592 12.5218 3.22223C12.8181 3.51854 12.8181 3.99895 12.5218 4.29525L9.07302 7.744L12.7778 11.4487C13.0741 11.7451 13.0741 12.2255 12.7778 12.5218C12.4815 12.8181 12.0011 12.8181 11.7047 12.5218L8 8.81703L4.29525 12.5218C3.99895 12.8181 3.51854 12.8181 3.22223 12.5218C2.92592 12.2255 2.92592 11.7451 3.22223 11.4487L6.92698 7.744L3.47823 4.29525C3.18192 3.99895 3.18192 3.51854 3.47823 3.22223Z" fill="#393939"/>
</svg>
