<svg width="32" height="32" viewBox="0 0 32 32" fill="none" xmlns="http://www.w3.org/2000/svg">
<path d="M6 7.5C6 6.67157 6.67157 6 7.5 6H12.5C13.3284 6 14 6.67157 14 7.5V12.5C14 13.3284 13.3284 14 12.5 14H7.5C6.67157 14 6 13.3284 6 12.5V7.5Z" stroke="#2B63D9" stroke-width="1.5" stroke-linecap="round" stroke-linejoin="round"/>
<path d="M6 19.5C6 18.6716 6.67157 18 7.5 18H12.5C13.3284 18 14 18.6716 14 19.5V24.5C14 25.3284 13.3284 26 12.5 26H7.5C6.67157 26 6 25.3284 6 24.5V19.5Z" stroke="#2B63D9" stroke-width="1.5" stroke-linecap="round" stroke-linejoin="round"/>
<path d="M18 7.5C18 6.67157 18.6716 6 19.5 6H24.5C25.3284 6 26 6.67157 26 7.5V12.5C26 13.3284 25.3284 14 24.5 14H19.5C18.6716 14 18 13.3284 18 12.5V7.5Z" stroke="#2B63D9" stroke-width="1.5" stroke-linecap="round" stroke-linejoin="round"/>
<path d="M18 19.5C18 18.6716 18.6716 18 19.5 18H24.5C25.3284 18 26 18.6716 26 19.5V24.5C26 25.3284 25.3284 26 24.5 26H19.5C18.6716 26 18 25.3284 18 24.5V19.5Z" stroke="#2B63D9" stroke-width="1.5" stroke-linecap="round" stroke-linejoin="round"/>
</svg>
