<svg width="16" height="16" viewBox="0 0 16 16" fill="none" xmlns="http://www.w3.org/2000/svg">
<circle opacity="0.15" cx="9.5" cy="8.5" r="5.5" fill="#2B63D9"/>
<path fill-rule="evenodd" clip-rule="evenodd" d="M8 13C10.7614 13 13 10.7614 13 8C13 5.23858 10.7614 3 8 3C5.23858 3 3 5.23858 3 8C3 10.7614 5.23858 13 8 13ZM8 14C11.3137 14 14 11.3137 14 8C14 4.68629 11.3137 2 8 2C4.68629 2 2 4.68629 2 8C2 11.3137 4.68629 14 8 14Z" fill="#2B63D9"/>
<path fill-rule="evenodd" clip-rule="evenodd" d="M10.0132 5.8536C10.2085 6.04886 10.2085 6.36544 10.0132 6.56071L8.68599 7.88791L10.1465 9.34838C10.3417 9.54364 10.3417 9.86023 10.1465 10.0555C9.95121 10.2507 9.63462 10.2508 9.43936 10.0555L7.97889 8.59502L6.56065 10.0133C6.36538 10.2085 6.0488 10.2085 5.85354 10.0133C5.65828 9.81799 5.65828 9.50141 5.85354 9.30615L7.27178 7.88791L5.98681 6.60294C5.79155 6.40768 5.79155 6.09109 5.98681 5.89583C6.18207 5.70057 6.49865 5.70057 6.69392 5.89583L7.97889 7.1808L9.30609 5.8536C9.50135 5.65834 9.81793 5.65834 10.0132 5.8536Z" fill="#2B63D9"/>
</svg>
