<svg width="32" height="32" viewBox="0 0 32 32" fill="none" xmlns="http://www.w3.org/2000/svg">
<path d="M11.1457 14.4207C10.8528 14.1278 10.3779 14.1278 10.085 14.4207C9.79214 14.7136 9.79214 15.1885 10.085 15.4814L11.1457 14.4207ZM16.0699 20.4056L15.5396 20.9359C15.8325 21.2288 16.3073 21.2288 16.6002 20.9359L16.0699 20.4056ZM22.0548 15.4814C22.3477 15.1885 22.3477 14.7136 22.0548 14.4207C21.7619 14.1278 21.287 14.1278 20.9941 14.4207L22.0548 15.4814ZM16.8199 6C16.8199 5.58579 16.4841 5.25 16.0699 5.25C15.6557 5.25 15.3199 5.58579 15.3199 6H16.8199ZM26.75 20.2658C26.75 19.8516 26.4142 19.5158 26 19.5158C25.5858 19.5158 25.25 19.8516 25.25 20.2658H26.75ZM6.75 20.2658C6.75 19.8516 6.41421 19.5158 6 19.5158C5.58579 19.5158 5.25 19.8516 5.25 20.2658H6.75ZM10.085 15.4814L15.5396 20.9359L16.6002 19.8753L11.1457 14.4207L10.085 15.4814ZM20.9941 14.4207L15.5396 19.8753L16.6002 20.9359L22.0548 15.4814L20.9941 14.4207ZM16.8199 20.4056V6H15.3199V20.4056H16.8199ZM25.25 20.2658V24.6294H26.75V20.2658H25.25ZM24 25.8794H8V27.3794H24V25.8794ZM6.75 24.6294V20.2658H5.25V24.6294H6.75ZM8 25.8794C7.30964 25.8794 6.75 25.3198 6.75 24.6294H5.25C5.25 26.1482 6.48122 27.3794 8 27.3794V25.8794ZM25.25 24.6294C25.25 25.3198 24.6904 25.8794 24 25.8794V27.3794C25.5188 27.3794 26.75 26.1482 26.75 24.6294H25.25Z" fill="#2B63D9"/>
</svg>
