<svg width="16" height="16" viewBox="0 0 16 16" fill="none" xmlns="http://www.w3.org/2000/svg">
<rect opacity="0.15" x="4" y="9.5" width="11" height="5" rx="1.5" fill="#2B63D9"/>
<path fill-rule="evenodd" clip-rule="evenodd" d="M7.9999 2C8.27604 2 8.4999 2.22386 8.4999 2.5V8.79294L10.6464 6.64648C10.8416 6.45122 11.1582 6.45122 11.3535 6.64649C11.5487 6.84175 11.5487 7.15833 11.3535 7.35359L8.35345 10.3536C8.15819 10.5489 7.84161 10.5489 7.64635 10.3536L4.64635 7.35359C4.45108 7.15833 4.45108 6.84175 4.64635 6.64649C4.84161 6.45122 5.15819 6.45122 5.35345 6.64649L7.4999 8.79293V2.5C7.4999 2.22386 7.72376 2 7.9999 2ZM2.5 8.59998C2.77614 8.59998 3 8.82383 3 9.09998V11.0285C3 11.857 3.67157 12.5285 4.5 12.5285H11.5C12.3284 12.5285 13 11.857 13 11.0285V9.09998C13 8.82383 13.2239 8.59998 13.5 8.59998C13.7761 8.59998 14 8.82383 14 9.09998V11.0285C14 12.4093 12.8807 13.5285 11.5 13.5285H4.5C3.11929 13.5285 2 12.4093 2 11.0285V9.09998C2 8.82383 2.22386 8.59998 2.5 8.59998Z" fill="#2B63D9"/>
</svg>
