<svg width="32" height="32" viewBox="0 0 32 32" fill="none" xmlns="http://www.w3.org/2000/svg">
<g opacity="0.15">
<path d="M9.43059 5.5715C10.1281 4.42864 11.8719 4.42864 12.5694 5.5715L16.7545 12.4286C17.452 13.5715 16.5801 15.0001 15.1851 15.0001H6.8149C5.41987 15.0001 4.54798 13.5715 5.24549 12.4286L9.43059 5.5715Z" fill="#2B63D9"/>
<path d="M24.3692 9.76798C25.3455 8.79169 26.9284 8.79169 27.9047 9.76798C28.881 10.7443 28.881 12.3272 27.9047 13.3035L20.2117 20.9965L16.3735 21.6375C16.0194 21.6967 15.7202 21.3745 15.8054 21.0257L16.6762 17.461L24.3692 9.76798Z" fill="#2B63D9"/>
</g>
<path fill-rule="evenodd" clip-rule="evenodd" d="M9 10.3429C9.44183 10.3429 9.8 10.7011 9.8 11.1429V11.1825C9.8 11.6244 9.44183 11.9825 9 11.9825C8.55817 11.9825 8.2 11.6244 8.2 11.1825V11.1429C8.2 10.7011 8.55817 10.3429 9 10.3429ZM9 6.69993C9.44183 6.69993 9.8 7.0581 9.8 7.49993L9.8 9.21422C9.8 9.65604 9.44183 10.0142 9 10.0142C8.55817 10.0142 8.2 9.65604 8.2 9.21422L8.2 7.49993C8.2 7.0581 8.55817 6.69993 9 6.69993ZM13.3888 12.2622L9.20368 5.40504C9.18087 5.36766 9.12411 5.31436 9 5.31436C8.8759 5.31436 8.81913 5.36766 8.79632 5.40504L4.61122 12.2622C4.60438 12.2734 4.60142 12.2805 4.60023 12.2841C4.6009 12.2876 4.60325 12.2963 4.61122 12.3094C4.62317 12.329 4.64372 12.351 4.67376 12.368C4.70044 12.3832 4.74413 12.4001 4.8149 12.4001H13.1851C13.2559 12.4001 13.2996 12.3832 13.3262 12.368C13.3563 12.351 13.3768 12.329 13.3888 12.3094C13.3968 12.2963 13.3991 12.2876 13.3998 12.2841C13.3986 12.2805 13.3956 12.2734 13.3888 12.2622ZM13.4004 12.2871L13.3998 12.2841L13.4004 12.2871ZM4.59955 12.2871L4.60023 12.2841L4.59955 12.2871ZM10.5694 4.5715C9.87189 3.42864 8.12811 3.42864 7.43059 4.5715L3.24549 11.4286C2.54798 12.5715 3.41987 14.0001 4.8149 14.0001H13.1851C14.5801 14.0001 15.452 12.5715 14.7545 11.4286L10.5694 4.5715Z" fill="#2B63D9"/>
<path fill-rule="evenodd" clip-rule="evenodd" d="M22.8034 8.20218C24.0921 6.91347 26.1815 6.91347 27.4702 8.20218C28.759 9.4909 28.759 11.5803 27.4702 12.869L20.1704 20.1689C20.1636 20.1762 20.1566 20.1835 20.1495 20.1906C20.1424 20.1977 20.1352 20.2046 20.1278 20.2114L19.7772 20.5621C19.6594 20.6799 19.5077 20.758 19.3433 20.7854L14.7571 21.5514C14.4918 21.5957 14.222 21.5038 14.039 21.3067C13.856 21.1096 13.7843 20.8338 13.8481 20.5725L14.8989 16.271C14.9337 16.1288 15.0068 15.9988 15.1104 15.8952L22.8034 8.20218ZM19.5834 18.4931L26.3389 11.7377C27.0028 11.0738 27.0028 9.99743 26.3389 9.33355C25.675 8.66968 24.5986 8.66968 23.9348 9.33355L17.1793 16.089L19.5834 18.4931ZM16.2618 17.4342L18.1844 19.3568L15.6904 19.7734L16.2618 17.4342ZM3.00005 24.1999C3.00005 23.7581 3.35822 23.3999 3.80005 23.3999H28.2001C28.6419 23.3999 29 23.7581 29 24.1999C29 24.6417 28.6419 24.9999 28.2001 24.9999H3.80005C3.35822 24.9999 3.00005 24.6417 3.00005 24.1999ZM3.00005 27.1999C3.00005 26.7581 3.35822 26.3999 3.80005 26.3999H20.2001C20.6419 26.3999 21 26.7581 21 27.1999C21 27.6417 20.6419 27.9999 20.2001 27.9999H3.80005C3.35822 27.9999 3.00005 27.6417 3.00005 27.1999Z" fill="#2B63D9"/>
</svg>
