<svg width="16" height="16" viewBox="0 0 16 16" fill="none" xmlns="http://www.w3.org/2000/svg">
<path d="M12.9413 7C12.3566 7 11.8826 7.47399 11.8826 8.05868C11.8826 8.64338 12.3566 9.11737 12.9413 9.11737C13.526 9.11737 14 8.64338 14 8.05868C14 7.47399 13.526 7 12.9413 7Z" fill="#2B63D9"/>
<path d="M8 7C7.4153 7 6.94132 7.47399 6.94132 8.05868C6.94132 8.64338 7.4153 9.11737 8 9.11737C8.58469 9.11737 9.05868 8.64338 9.05868 8.05868C9.05868 7.47399 8.58469 7 8 7Z" fill="#2B63D9"/>
<path d="M2 8.05868C2 7.47399 2.47399 7 3.05868 7C3.64338 7 4.11737 7.47399 4.11737 8.05868C4.11737 8.64338 3.64338 9.11737 3.05868 9.11737C2.47399 9.11737 2 8.64338 2 8.05868Z" fill="#2B63D9"/>
</svg>
