<svg width="16" height="16" viewBox="0 0 16 16" fill="none" xmlns="http://www.w3.org/2000/svg">
<circle opacity="0.15" cx="9.5" cy="8.5" r="5.5" fill="#6D7B8C"/>
<path fill-rule="evenodd" clip-rule="evenodd" d="M8 13C10.7614 13 13 10.7614 13 8C13 5.23858 10.7614 3 8 3C5.23858 3 3 5.23858 3 8C3 10.7614 5.23858 13 8 13ZM8 14C11.3137 14 14 11.3137 14 8C14 4.68629 11.3137 2 8 2C4.68629 2 2 4.68629 2 8C2 11.3137 4.68629 14 8 14Z" fill="#6D7B8C"/>
<path fill-rule="evenodd" clip-rule="evenodd" d="M10.8264 5.62121C11.0356 5.80146 11.059 6.11717 10.8788 6.32637L7.43236 10.3264C7.3426 10.4306 7.21388 10.4932 7.0765 10.4995C6.93912 10.5058 6.80521 10.4552 6.70627 10.3597L5.1527 8.8597C4.95405 8.66789 4.94849 8.35136 5.1403 8.1527C5.33211 7.95405 5.64864 7.94849 5.8473 8.1403L7.02019 9.27274L10.1212 5.67363C10.3015 5.46443 10.6172 5.44096 10.8264 5.62121Z" fill="#6D7B8C"/>
</svg>
