<svg width="140" height="122" viewBox="0 0 140 122" fill="none" xmlns="http://www.w3.org/2000/svg">
<path opacity="0.8" d="M0.799805 21.2622H139.314V114.13C139.314 118.502 135.816 122 131.444 122H8.66993C4.29764 122 0.799805 118.502 0.799805 114.13V21.2622Z" fill="#EAEFFB"/>
<path opacity="0.8" d="M2.37354 21.2622H133.018V107.834C133.018 112.206 129.52 115.704 125.148 115.704H10.2437C5.87137 115.704 2.37354 112.206 2.37354 107.834V21.2622V21.2622Z" fill="white"/>
<path opacity="0.8" d="M70.0572 99.9637C87.4434 99.9637 101.538 85.8694 101.538 68.4832C101.538 51.097 87.4434 37.0027 70.0572 37.0027C52.671 37.0027 38.5767 51.097 38.5767 68.4832C38.5767 85.8694 52.671 99.9637 70.0572 99.9637Z" fill="#F3F5F8"/>
<path opacity="0.8" d="M65.335 51.1689C65.335 48.5455 67.4337 46.4468 70.057 46.4468C72.6804 46.4468 74.7791 48.5455 74.7791 51.1689V73.2052C74.7791 75.8286 72.6804 77.9273 70.057 77.9273C67.4337 77.9273 65.335 75.8286 65.335 73.2052V51.1689Z" fill="#C0D1F3"/>
<path opacity="0.8" d="M74.7791 85.7973C74.7791 88.4206 72.6804 90.5194 70.057 90.5194C67.4337 90.5194 65.335 88.4206 65.335 85.7973C65.335 83.1739 67.4337 81.0752 70.057 81.0752C72.6804 81.0752 74.7791 83.1739 74.7791 85.7973Z" fill="#C0D1F3"/>
<path opacity="0.8" d="M0.799805 8.67018C0.799805 4.29788 4.29764 0.800049 8.66993 0.800049H131.444C135.816 0.800049 139.314 4.29788 139.314 8.67018V21.2624H0.799805V8.67018Z" fill="#2B63D9"/>
<path opacity="0.8" d="M0.799805 8.67018C0.799805 4.29788 4.29764 0.800049 8.66993 0.800049H125.148C129.52 0.800049 133.018 4.29788 133.018 8.67018V21.2624H0.799805V8.67018Z" fill="#5885DE"/>
<path opacity="0.8" d="M11.2931 14.9663C13.0317 14.9663 14.4411 13.5568 14.4411 11.8182C14.4411 10.0796 13.0317 8.67017 11.2931 8.67017C9.55445 8.67017 8.14502 10.0796 8.14502 11.8182C8.14502 13.5568 9.55445 14.9663 11.2931 14.9663Z" fill="#FCC936"/>
<path opacity="0.8" d="M21.9615 14.9663C23.7001 14.9663 25.1096 13.5568 25.1096 11.8182C25.1096 10.0796 23.7001 8.67017 21.9615 8.67017C20.2229 8.67017 18.8135 10.0796 18.8135 11.8182C18.8135 13.5568 20.2229 14.9663 21.9615 14.9663Z" fill="white"/>
<path opacity="0.8" d="M32.63 14.9663C34.3686 14.9663 35.778 13.5568 35.778 11.8182C35.778 10.0796 34.3686 8.67017 32.63 8.67017C30.8914 8.67017 29.4819 10.0796 29.4819 11.8182C29.4819 13.5568 30.8914 14.9663 32.63 14.9663Z" fill="#C0D1F3"/>
<path opacity="0.8" d="M44.8722 8.67017H123.573C125.322 8.67017 126.721 10.0693 126.721 11.8182C126.721 13.5671 125.322 14.9663 123.573 14.9663H44.8722C43.1233 14.9663 41.7241 13.5671 41.7241 11.8182C41.7241 10.0693 43.1233 8.67017 44.8722 8.67017Z" fill="#C0D1F3"/>
</svg>
