<svg width="16" height="16" viewBox="0 0 16 16" fill="none" xmlns="http://www.w3.org/2000/svg">
<circle cx="9.5" cy="8.5" r="5.5" fill="#F3D9DB"/>
<path fill-rule="evenodd" clip-rule="evenodd" d="M8 13C10.7614 13 13 10.7614 13 8C13 5.23858 10.7614 3 8 3C5.23858 3 3 5.23858 3 8C3 10.7614 5.23858 13 8 13ZM8 14C11.3137 14 14 11.3137 14 8C14 4.68629 11.3137 2 8 2C4.68629 2 2 4.68629 2 8C2 11.3137 4.68629 14 8 14Z" fill="#C14149"/>
<path fill-rule="evenodd" clip-rule="evenodd" d="M10.0132 5.85355C10.2084 6.04882 10.2084 6.3654 10.0132 6.56066L8.68597 7.88786L10.1464 9.34833C10.3417 9.5436 10.3417 9.86018 10.1464 10.0554C9.95119 10.2507 9.6346 10.2507 9.43934 10.0554L7.97887 8.59497L6.56063 10.0132C6.36536 10.2085 6.04878 10.2085 5.85352 10.0132C5.65826 9.81795 5.65826 9.50136 5.85352 9.3061L7.27176 7.88786L5.98679 6.60289C5.79153 6.40763 5.79153 6.09105 5.98679 5.89578C6.18205 5.70052 6.49863 5.70052 6.6939 5.89578L7.97887 7.18076L9.30607 5.85355C9.50133 5.65829 9.81791 5.65829 10.0132 5.85355Z" fill="#C14149"/>
</svg>
