<svg width="32" height="32" viewBox="0 0 32 32" fill="none" xmlns="http://www.w3.org/2000/svg">
<circle cx="18" cy="17.0001" r="10" fill="#F3D9DB"/>
<path fill-rule="evenodd" clip-rule="evenodd" d="M12.1316 12.0891C12.4245 11.7962 12.8994 11.7962 13.1922 12.0891L16.1222 15.0191L19.1109 12.0305C19.4038 11.7376 19.8787 11.7376 20.1716 12.0305C20.4645 12.3233 20.4645 12.7982 20.1716 13.0911L17.1829 16.0798L20.2728 19.1697C20.5657 19.4626 20.5657 19.9375 20.2728 20.2304C19.9799 20.5233 19.5051 20.5233 19.2122 20.2304L16.1222 17.1404L13.091 20.1717C12.7981 20.4646 12.3232 20.4646 12.0303 20.1717C11.7374 19.8788 11.7374 19.4039 12.0303 19.111L15.0616 16.0798L12.1316 13.1498C11.8387 12.8569 11.8387 12.382 12.1316 12.0891ZM16 25.5001C21.2467 25.5001 25.5 21.2468 25.5 16.0001C25.5 10.7534 21.2467 6.50012 16 6.50012C10.7533 6.50012 6.5 10.7534 6.5 16.0001C6.5 21.2468 10.7533 25.5001 16 25.5001ZM16 27.0001C22.0751 27.0001 27 22.0753 27 16.0001C27 9.92499 22.0751 5.00012 16 5.00012C9.92487 5.00012 5 9.92499 5 16.0001C5 22.0753 9.92487 27.0001 16 27.0001Z" fill="#C14149"/>
</svg>
