<svg width="32" height="32" viewBox="0 0 32 32" fill="none" xmlns="http://www.w3.org/2000/svg">
<path opacity="0.15" d="M28.4299 13.1846V26.9606C28.4299 28.6392 27.0691 30 25.3905 30H12.9694C11.2907 30 9.92993 28.6392 9.92993 26.9606V9.0194C9.92993 7.34078 11.2907 5.97998 12.9694 5.97998H21.1759L28.4299 13.1846Z" fill="#2B63D9"/>
<path fill-rule="evenodd" clip-rule="evenodd" d="M10.9292 4.75C9.698 4.75 8.69995 5.74805 8.69995 6.97921V24.7908C8.69995 26.0219 9.698 27.02 10.9292 27.02H23.2833C24.5144 27.02 25.5125 26.0219 25.5125 24.7908V11.879H21.3777C19.8526 11.879 18.332 10.637 18.332 8.96782V4.75H10.9292ZM19.832 5.80159V8.96782C19.832 9.68676 20.5537 10.379 21.3777 10.379H24.4421L19.832 5.80159ZM19.6104 3.46779C19.4699 3.32833 19.2799 3.25 19.082 3.25H10.9292C8.86958 3.25 7.19995 4.91963 7.19995 6.97921V24.7908C7.19995 26.8504 8.86957 28.52 10.9292 28.52H23.2833C25.3429 28.52 27.0125 26.8504 27.0125 24.7908V11.1773C27.0261 10.9649 26.9489 10.7521 26.7924 10.5968L19.6104 3.46779Z" fill="#2B63D9"/>
<rect x="4.40454" y="15.547" width="19.1908" height="8.606" rx="2" fill="#2B63D9"/>
<path d="M12.4075 23.063H10.8505L9.35654 20.633L7.86254 23.063H6.40454L8.53754 19.751L6.53954 16.637H8.04254L9.42854 18.95L10.7875 16.637H12.2545L10.2385 19.823L12.4075 23.063Z" fill="white"/>
<path d="M12.9675 23.063V16.637H14.3265V21.938H16.9365V23.063H12.9675Z" fill="white"/>
<path d="M21.5953 21.281C21.5953 21.851 21.3883 22.307 20.9743 22.649C20.5663 22.985 19.9843 23.153 19.2283 23.153C18.5503 23.153 17.9443 23.024 17.4103 22.766V21.497C17.7163 21.629 18.0313 21.752 18.3553 21.866C18.6853 21.974 19.0123 22.028 19.3363 22.028C19.6723 22.028 19.9093 21.965 20.0473 21.839C20.1913 21.707 20.2633 21.542 20.2633 21.344C20.2633 21.182 20.2063 21.044 20.0923 20.93C19.9843 20.816 19.8373 20.711 19.6513 20.615C19.4653 20.513 19.2523 20.405 19.0123 20.291C18.8623 20.219 18.7003 20.135 18.5263 20.039C18.3523 19.937 18.1843 19.814 18.0223 19.67C17.8663 19.52 17.7373 19.34 17.6353 19.13C17.5333 18.92 17.4823 18.668 17.4823 18.374C17.4823 17.798 17.6773 17.351 18.0673 17.033C18.4573 16.709 18.9883 16.547 19.6603 16.547C19.9963 16.547 20.3143 16.586 20.6143 16.664C20.9143 16.742 21.2323 16.853 21.5683 16.997L21.1273 18.059C20.8333 17.939 20.5693 17.846 20.3353 17.78C20.1013 17.714 19.8613 17.681 19.6153 17.681C19.3573 17.681 19.1593 17.741 19.0213 17.861C18.8833 17.981 18.8143 18.137 18.8143 18.329C18.8143 18.557 18.9163 18.737 19.1203 18.869C19.3243 19.001 19.6273 19.163 20.0293 19.355C20.3593 19.511 20.6383 19.673 20.8663 19.841C21.1003 20.009 21.2803 20.207 21.4063 20.435C21.5323 20.663 21.5953 20.945 21.5953 21.281Z" fill="white"/>
</svg>
