<svg width="32" height="32" viewBox="0 0 32 32" fill="none" xmlns="http://www.w3.org/2000/svg">
<path d="M13.7922 8.56826C14.2064 8.56826 14.5422 8.23247 14.5422 7.81826C14.5422 7.40404 14.2064 7.06826 13.7922 7.06826V8.56826ZM24.9317 18.2078C24.9317 17.7936 24.5959 17.4578 24.1817 17.4578C23.7675 17.4578 23.4317 17.7936 23.4317 18.2078H24.9317ZM17.8182 5.25C17.404 5.25 17.0682 5.58579 17.0682 6C17.0682 6.41421 17.404 6.75 17.8182 6.75V5.25ZM25.8909 6.89251L26.6409 6.89251V6.89251H25.8909ZM25.1409 14.0326C25.1409 14.4468 25.4766 14.7826 25.8909 14.7826C26.3051 14.7826 26.6409 14.4468 26.6409 14.0326H25.1409ZM14.4862 16.3787C14.1933 16.6716 14.1933 17.1465 14.4862 17.4394C14.7791 17.7323 15.254 17.7323 15.5469 17.4394L14.4862 16.3787ZM22.1817 25.25H8V26.75H22.1817V25.25ZM6.75 24V9.81826H5.25V24H6.75ZM8 8.56826H13.7922V7.06826H8V8.56826ZM23.4317 18.2078V24H24.9317V18.2078H23.4317ZM8 25.25C7.30964 25.25 6.75 24.6903 6.75 24H5.25C5.25 25.5188 6.48122 26.75 8 26.75V25.25ZM22.1817 26.75C23.7005 26.75 24.9317 25.5188 24.9317 24H23.4317C23.4317 24.6903 22.8721 25.25 22.1817 25.25V26.75ZM6.75 9.81826C6.75 9.1279 7.30964 8.56826 8 8.56826V7.06826C6.48122 7.06826 5.25 8.29947 5.25 9.81826H6.75ZM17.8182 6.75H24.9939V5.25H17.8182V6.75ZM25.1409 6.89251L25.1409 14.0326H26.6409L26.6409 6.89251L25.1409 6.89251ZM24.9939 6.75C25.0373 6.75 25.0747 6.76726 25.1021 6.79609L26.1898 5.76313C25.8901 5.44762 25.4642 5.25 24.9939 5.25V6.75ZM25.1021 6.7961C25.1272 6.82253 25.1409 6.85544 25.1409 6.89251H26.6409C26.6409 6.45493 26.4683 6.05645 26.1898 5.76313L25.1021 6.7961ZM25.1156 5.74929L14.4862 16.3787L15.5469 17.4394L26.1763 6.80994L25.1156 5.74929Z" fill="#2B63D9"/>
</svg>
