<svg width="32" height="32" viewBox="0 0 32 32" fill="none" xmlns="http://www.w3.org/2000/svg">
<path opacity="0.15" d="M23.602 8.98999C23.7677 8.98999 23.8315 9.18503 23.7143 9.30221L18.1992 14.8174C18.1118 14.9048 18.05 15.0145 18.0207 15.1346L17.193 18.523C17.1391 18.7435 17.1996 18.9763 17.3541 19.1426C17.5085 19.309 17.7362 19.3866 17.9601 19.3492L18.9068 19.1911L19.5782 16.4426L25.6383 10.3825C26.4073 9.61344 27.6542 9.61344 28.4233 10.3825C29.1923 11.1516 29.1923 12.3985 28.4233 13.1675L25.6968 15.894C25.7027 15.9251 25.7059 15.9577 25.7059 15.9916V20.9124C25.7059 22.0713 24.7639 23.0107 23.602 23.0107H17.9498C17.9369 23.0107 17.924 23.011 17.9112 23.0117C17.8561 23.0146 17.8006 23.0146 17.7454 23.0117C17.5736 23.0027 17.3981 23.054 17.2532 23.1696L14.3949 25.4503C14.069 25.7103 13.5871 25.4782 13.5871 25.0614V23.7359C13.5871 23.3354 13.2615 23.0107 12.8599 23.0107H8.90436C7.74245 23.0107 6.80054 22.0713 6.80054 20.9124V11.0883C6.80054 9.92942 7.74245 8.98999 8.90436 8.98999H23.602Z" fill="#2B63D9"/>
<path fill-rule="evenodd" clip-rule="evenodd" d="M4.32153 9.62872C4.32153 7.80214 5.80227 6.32141 7.62884 6.32141H21.2767C22.691 6.32141 23.898 7.20919 24.3708 8.45789C25.4106 7.53264 27.0046 7.56846 28.0015 8.56536C29.0356 9.59942 29.0356 11.276 28.0015 12.31L24.5427 15.7689C24.5694 15.8417 24.584 15.9204 24.584 16.0025V18.7753C24.584 20.6019 23.1033 22.0826 21.2767 22.0826H16.2572L11.7123 25.5449C11.5071 25.7012 11.231 25.7276 10.9998 25.6131C10.7687 25.4986 10.6224 25.2629 10.6225 25.0049L10.6232 22.0826H7.62884C5.80227 22.0826 4.32153 20.6019 4.32153 18.7753V9.62872ZM23.2268 17.0847L21.9415 18.3701C21.8415 18.47 21.7128 18.5363 21.5734 18.5596L17.9607 19.1629C17.7357 19.2005 17.5068 19.1225 17.3516 18.9554C17.1964 18.7882 17.1356 18.5542 17.1897 18.3326L18.0174 14.9442C18.0469 14.8235 18.109 14.7133 18.1968 14.6254L23.2266 9.59564C23.2089 8.53385 22.3427 7.67855 21.2767 7.67855H7.62884C6.5518 7.67855 5.67868 8.55167 5.67868 9.62872V18.7753C5.67868 19.8523 6.5518 20.7255 7.62884 20.7255H11.3019C11.4819 20.7255 11.6545 20.797 11.7818 20.9243C11.909 21.0516 11.9805 21.2242 11.9804 21.4042L11.9799 23.6349L15.617 20.8642C15.7352 20.7742 15.8796 20.7255 16.0282 20.7255H21.2767C22.3537 20.7255 23.2268 19.8523 23.2268 18.7753V17.0847ZM27.0419 9.52501C26.5378 9.02095 25.7206 9.02095 25.2165 9.52501L19.9602 14.7813L21.7856 16.6066L27.0419 11.3504C27.5459 10.8463 27.5459 10.0291 27.0419 9.52501ZM20.605 17.3454L19.1768 15.9171L18.7523 17.6548L20.605 17.3454ZM7.92264 11.9751C7.92264 11.6003 8.22645 11.2965 8.60121 11.2965H17.6037C17.9785 11.2965 18.2823 11.6003 18.2823 11.9751C18.2823 12.3498 17.9785 12.6536 17.6037 12.6536H8.60121C8.22645 12.6536 7.92264 12.3498 7.92264 11.9751ZM7.92264 15.9551C7.92264 15.5804 8.22645 15.2766 8.60121 15.2766H15.8032C16.178 15.2766 16.4818 15.5804 16.4818 15.9551C16.4818 16.3299 16.178 16.6337 15.8032 16.6337H8.60121C8.22645 16.6337 7.92264 16.3299 7.92264 15.9551Z" fill="#2B63D9"/>
</svg>
