<svg width="32" height="32" viewBox="0 0 32 32" fill="none" xmlns="http://www.w3.org/2000/svg">
<g opacity="0.15">
<path d="M3 8C3 7.44772 3.44772 7 4 7H20C20.5523 7 21 7.44772 21 8V11C21 11.5523 20.5523 12 20 12H4C3.44772 12 3 11.5523 3 11V8Z" fill="#2B63D9"/>
<path d="M3 15C3 14.4477 3.44772 14 4 14H28C28.5523 14 29 14.4477 29 15V18C29 18.5523 28.5523 19 28 19H4C3.44772 19 3 18.5523 3 18V15Z" fill="#2B63D9"/>
<path d="M12 22C12 21.4477 12.4477 21 13 21H28C28.5523 21 29 21.4477 29 22V25C29 25.5523 28.5523 26 28 26H13C12.4477 26 12 25.5523 12 25V22Z" fill="#2B63D9"/>
</g>
<path fill-rule="evenodd" clip-rule="evenodd" d="M3.6 7.6V9.4H18.4V7.6H3.6ZM23.6 7.6V9.4H26.4V7.6H23.6ZM3.6 21.6V23.4H7.4V21.6H3.6ZM3.6 14.6V16.4H26.4V14.6H3.6ZM12.6 21.6V23.4H26.4V21.6H12.6ZM2 7C2 6.44772 2.44772 6 3 6H19C19.5523 6 20 6.44772 20 7V10C20 10.5523 19.5523 11 19 11H3C2.44772 11 2 10.5523 2 10V7ZM22 7C22 6.44772 22.4477 6 23 6H27C27.5523 6 28 6.44772 28 7V10C28 10.5523 27.5523 11 27 11H23C22.4477 11 22 10.5523 22 10V7ZM3 20C2.44772 20 2 20.4477 2 21V24C2 24.5523 2.44772 25 3 25H8C8.55228 25 9 24.5523 9 24V21C9 20.4477 8.55228 20 8 20H3ZM2 14C2 13.4477 2.44772 13 3 13H27C27.5523 13 28 13.4477 28 14V17C28 17.5523 27.5523 18 27 18H3C2.44772 18 2 17.5523 2 17V14ZM12 20C11.4477 20 11 20.4477 11 21V24C11 24.5523 11.4477 25 12 25H27C27.5523 25 28 24.5523 28 24V21C28 20.4477 27.5523 20 27 20H12Z" fill="#2B63D9"/>
</svg>
