<svg width="32" height="32" viewBox="0 0 32 32" fill="none" xmlns="http://www.w3.org/2000/svg">
<path opacity="0.15" d="M25.2518 26H10.7482C9.23043 26 8 24.8303 8 23.3874V11.6126C8 10.1697 9.23043 9 10.7482 9H14.8192C14.9411 9 15.0571 9.04493 15.1439 9.12351C15.1844 9.16026 15.223 9.19978 15.2685 9.23023L16.1123 9.79532H26.5882C27.3679 9.79532 28 10.3962 28 11.1374V11.9327V16.1579V23.3874C28 24.8303 26.7696 26 25.2518 26Z" fill="#2B63D9"/>
<path fill-rule="evenodd" clip-rule="evenodd" d="M8.92 7.75C7.72154 7.75 6.75 8.72154 6.75 9.92V21.3527C6.75 22.5512 7.72154 23.5227 8.92 23.5227H23.08C24.2785 23.5227 25.25 22.5512 25.25 21.3527V14C25.25 13.3096 24.6904 12.75 24 12.75H16.7092C16.3092 12.75 15.9335 12.5586 15.6982 12.2352L12.4363 7.75H8.92ZM26.75 21.3527C26.75 23.3796 25.1069 25.0227 23.08 25.0227H8.92C6.89312 25.0227 5.25 23.3796 5.25 21.3527V9.92C5.25 7.89312 6.89311 6.25 8.92 6.25H12.5636C12.9635 6.25 13.3393 6.44135 13.5745 6.76478L13.9274 7.25H24.5C25.7426 7.25 26.75 8.25736 26.75 9.5V21.3527ZM15.0183 8.75H24.5C24.9142 8.75 25.25 9.08579 25.25 9.5V11.5499C24.875 11.3581 24.4501 11.25 24 11.25H16.8365L15.0183 8.75Z" fill="#2B63D9"/>
</svg>
