<svg width="32" height="32" viewBox="0 0 32 32" fill="none" xmlns="http://www.w3.org/2000/svg">
<path d="M9.20863 6.12542H10.2503V5.04917C10.2503 3.90325 11.2027 2.97578 12.3334 3.00048C12.486 3.0038 12.6418 3.02636 12.7989 3.06611L23.9033 6.13665C24.9995 6.19603 25.875 7.09796 25.875 8.20868V25.9167C25.875 27.0656 24.9407 28 23.7917 28H9.20863C8.05967 28 7.12532 27.0657 7.12532 25.9167V8.20868C7.12532 7.05973 8.05962 6.12542 9.20863 6.12542ZM12.5314 4.07263C11.9246 3.91497 11.2919 4.40934 11.2919 5.04917V6.12542H19.9543L12.5314 4.07263ZM8.16695 25.9167C8.16695 26.4909 8.63437 26.9583 9.20858 26.9583H23.7916C24.3658 26.9583 24.8333 26.4909 24.8333 25.9167V8.20868C24.8333 7.63447 24.3658 7.16705 23.7916 7.16705H9.20858C8.63437 7.16705 8.16695 7.63447 8.16695 8.20868V25.9167V25.9167Z" fill="#2B63D9" stroke="#2B63D9" stroke-width="0.5"/>
<g opacity="0.1">
<mask id="path-2-inside-1_3184_23339" fill="white">
<path fill-rule="evenodd" clip-rule="evenodd" d="M15.355 5.34435C13.9187 4.98002 12.5235 6.06551 12.5235 7.54731V7.99118H11.9544C10.6992 7.99118 9.68164 9.00871 9.68164 10.2639V26.8657C9.68164 28.1209 10.6992 29.1384 11.9544 29.1384H25.4089C26.6641 29.1384 27.6816 28.1209 27.6816 26.8657V10.2639C27.6816 10.2508 27.6815 10.2378 27.6813 10.2248C27.6748 9.19089 26.9708 8.29082 25.9674 8.03631L15.355 5.34435Z"/>
</mask>
<path fill-rule="evenodd" clip-rule="evenodd" d="M15.355 5.34435C13.9187 4.98002 12.5235 6.06551 12.5235 7.54731V7.99118H11.9544C10.6992 7.99118 9.68164 9.00871 9.68164 10.2639V26.8657C9.68164 28.1209 10.6992 29.1384 11.9544 29.1384H25.4089C26.6641 29.1384 27.6816 28.1209 27.6816 26.8657V10.2639C27.6816 10.2508 27.6815 10.2378 27.6813 10.2248C27.6748 9.19089 26.9708 8.29082 25.9674 8.03631L15.355 5.34435Z" fill="#2B63D9"/>
<path d="M15.355 5.34435L15.6344 4.24287L15.355 5.34435ZM12.5235 7.99118V9.12754H13.6598V7.99118H12.5235ZM27.6813 10.2248L26.5449 10.232L26.5451 10.2439L27.6813 10.2248ZM25.9674 8.03631L25.688 9.13779L25.688 9.13779L25.9674 8.03631ZM13.6598 7.54731C13.6598 6.80641 14.3574 6.26366 15.0756 6.44583L15.6344 4.24287C13.4799 3.69637 11.3871 5.32461 11.3871 7.54731H13.6598ZM13.6598 7.99118V7.54731H11.3871V7.99118H13.6598ZM11.9544 9.12754H12.5235V6.85481H11.9544V9.12754ZM10.818 10.2639C10.818 9.63631 11.3268 9.12754 11.9544 9.12754V6.85481C10.0716 6.85481 8.54528 8.38111 8.54528 10.2639H10.818ZM10.818 26.8657V10.2639H8.54528V26.8657H10.818ZM11.9544 28.0021C11.3268 28.0021 10.818 27.4933 10.818 26.8657H8.54528C8.54528 28.7485 10.0716 30.2748 11.9544 30.2748V28.0021ZM25.4089 28.0021H11.9544V30.2748H25.4089V28.0021ZM26.5453 26.8657C26.5453 27.4933 26.0365 28.0021 25.4089 28.0021V30.2748C27.2917 30.2748 28.818 28.7485 28.818 26.8657H26.5453ZM26.5453 10.2639V26.8657H28.818V10.2639H26.5453ZM26.5451 10.2439C26.5452 10.2506 26.5453 10.2573 26.5453 10.2639H28.818C28.818 10.2444 28.8178 10.225 28.8175 10.2056L26.5451 10.2439ZM25.688 9.13779C26.1897 9.26504 26.5417 9.71509 26.545 10.232L28.8177 10.2176C28.8079 8.66669 27.7519 7.3166 26.2468 6.93483L25.688 9.13779ZM15.0756 6.44583L25.688 9.13779L26.2468 6.93483L15.6344 4.24287L15.0756 6.44583Z" fill="#2B63D9" mask="url(#path-2-inside-1_3184_23339)"/>
</g>
<path d="M16.2775 13.3935C16.6045 13.2022 17.0205 13.2022 17.3475 13.3935L19.5312 14.672C19.823 14.8428 20 15.1409 20 15.4614V18.1636C20 18.4841 19.823 18.7822 19.5312 18.953L17.3475 20.2315C17.0205 20.4228 16.6045 20.4228 16.2775 20.2315L14.0938 18.953C13.802 18.7822 13.625 18.4841 13.625 18.1636V15.4614C13.625 15.1409 13.802 14.8428 14.0938 14.672L16.2775 13.3935Z" stroke="#2B63D9" stroke-width="1.5" stroke-linecap="round" stroke-linejoin="round"/>
</svg>
