<svg width="32" height="32" viewBox="0 0 32 32" fill="none" xmlns="http://www.w3.org/2000/svg">
<path opacity="0.15" d="M26.5294 14.7228L24.9922 14.3886C24.8586 13.9794 24.693 13.5802 24.4976 13.1957L25.3485 11.872C25.5005 11.6355 25.4671 11.325 25.2684 11.1263L22.8737 8.73157C22.675 8.5329 22.3645 8.49948 22.128 8.65146L20.8043 9.50244C20.4198 9.30698 20.0206 9.14142 19.6114 9.00775L19.2772 7.47058C19.2176 7.19592 18.9743 7 18.6933 7H15.3067C15.0257 7 14.7824 7.19592 14.7228 7.47058L14.3886 9.00775C13.9794 9.14142 13.5802 9.30698 13.1957 9.50244L11.872 8.65146C11.6355 8.49948 11.325 8.5329 11.1263 8.73157L8.73157 11.1263C8.5329 11.325 8.49948 11.6355 8.65146 11.872L9.50244 13.1957C9.30698 13.5802 9.14142 13.9794 9.00775 14.3886L7.47058 14.7228C7.19592 14.7826 7 15.0257 7 15.3067V18.6933C7 18.9743 7.19592 19.2174 7.47058 19.2772L9.00775 19.6114C9.14142 20.0206 9.30698 20.4198 9.50244 20.8043L8.65146 22.128C8.49948 22.3645 8.5329 22.675 8.73157 22.8737L11.1263 25.2684C11.325 25.4671 11.6355 25.5005 11.872 25.3485L13.1957 24.4976C13.5802 24.693 13.9794 24.8586 14.3886 24.9922L14.7228 26.5294C14.7824 26.8041 15.0257 27 15.3067 27H18.6933C18.9743 27 19.2176 26.8041 19.2772 26.5294L19.6114 24.9922C20.0206 24.8586 20.4198 24.693 20.8043 24.4976L22.128 25.3485C22.3645 25.5005 22.675 25.4673 22.8737 25.2684L25.2684 22.8737C25.4671 22.675 25.5005 22.3645 25.3485 22.128L24.4976 20.8043C24.693 20.4198 24.8586 20.0206 24.9922 19.6114L26.5294 19.2772C26.8041 19.2174 27 18.9743 27 18.6933V15.3067C27 15.0257 26.8041 14.7826 26.5294 14.7228ZM20.5857 17C20.5857 18.9771 18.9771 20.5857 17 20.5857C15.0229 20.5857 13.4143 18.9771 13.4143 17C13.4143 15.0229 15.0229 13.4143 17 13.4143C18.9771 13.4143 20.5857 15.0229 20.5857 17Z" fill="#2B63D9"/>
<path fill-rule="evenodd" clip-rule="evenodd" d="M12.7622 5.35832C12.9028 4.71117 13.4757 4.25 14.1374 4.25H17.8626C18.5243 4.25 19.0972 4.71117 19.2378 5.35832C19.2378 5.35836 19.2378 5.35828 19.2378 5.35832L19.5164 6.63992C19.7243 6.71807 19.9295 6.80319 20.1318 6.89512L21.2352 6.18573C21.7921 5.82789 22.5234 5.90637 22.9914 6.37439L25.6256 9.00858C26.0936 9.47661 26.1722 10.2077 25.8144 10.7646L25.1049 11.8682C25.1968 12.0705 25.2819 12.2757 25.3601 12.4836L26.6417 12.7622C27.2883 12.903 27.75 13.4753 27.75 14.1374V17.8626C27.75 18.5247 27.2885 19.097 26.642 19.2378L25.3601 19.5164C25.2819 19.7243 25.1968 19.9295 25.1049 20.1318L25.8143 21.2352C26.1721 21.7921 26.0936 22.5234 25.6256 22.9914L22.9916 25.6254C22.9916 25.6255 22.9917 25.6253 22.9916 25.6254C22.5233 26.0939 21.7919 26.172 21.2354 25.8144L20.1318 25.1049C19.9295 25.1968 19.7243 25.2819 19.5164 25.3601L19.2379 26.6416C19.2378 26.6416 19.2379 26.6415 19.2379 26.6416C19.0972 27.2887 18.5243 27.75 17.8626 27.75H14.1374C13.4757 27.75 12.9028 27.2888 12.7622 26.6417C12.7622 26.6416 12.7622 26.6417 12.7622 26.6417L12.4836 25.3601C12.2757 25.2819 12.0705 25.1968 11.8682 25.1049L10.7648 25.8143C10.2079 26.1721 9.47661 26.0936 9.00858 25.6256L6.37439 22.9914C5.90637 22.5234 5.8278 21.7923 6.18564 21.2354L6.89512 20.1318C6.80319 19.9295 6.71807 19.7243 6.63992 19.5164L5.35832 19.2378C4.71174 19.097 4.25 18.5247 4.25 17.8626V14.1374C4.25 13.4753 4.71147 12.903 5.35805 12.7622L6.63992 12.4836C6.71807 12.2757 6.80319 12.0705 6.89512 11.8682L6.18573 10.7648C5.82789 10.2079 5.90637 9.47661 6.37439 9.00858L9.00858 6.37439C9.47661 5.90637 10.2077 5.8278 10.7646 6.18564L11.8682 6.89512C12.0705 6.80319 12.2757 6.71807 12.4836 6.63992L12.7622 5.35832C12.7622 5.35836 12.7622 5.35828 12.7622 5.35832ZM14.2121 5.75L13.769 7.78797L13.3603 7.92146C12.947 8.05645 12.5437 8.22372 12.1551 8.42126L11.7716 8.61623L10.0164 7.48787L7.48787 10.0164L8.61623 11.7716L8.42126 12.1551C8.22372 12.5437 8.05645 12.947 7.92146 13.3603L7.78797 13.769L5.75 14.2121V17.7879L7.78797 18.231L7.92146 18.6397C8.05645 19.053 8.22372 19.4563 8.42126 19.8449L8.61623 20.2284L7.48787 21.9836L10.0164 24.5121L11.7716 23.3838L12.1551 23.5787C12.5437 23.7763 12.947 23.9435 13.3603 24.0785L13.769 24.212L14.2121 26.25H17.7879L18.231 24.212L18.6397 24.0785C19.053 23.9435 19.4563 23.7763 19.8449 23.5787L20.2284 23.3838L21.9836 24.5121L24.5121 21.9836L23.3838 20.2284L23.5787 19.8449C23.7763 19.4563 23.9435 19.053 24.0785 18.6397L24.212 18.231L26.25 17.7879V14.2121L24.212 13.769L24.0785 13.3603C23.9435 12.947 23.7763 12.5437 23.5787 12.1551L23.3838 11.7716L24.5121 10.0164L21.9836 7.48787L20.2284 8.61623L19.8449 8.42126C19.4563 8.22372 19.053 8.05645 18.6397 7.92146L18.231 7.78797L17.7879 5.75H14.2121ZM21.9306 24.5651C21.9305 24.5652 21.9306 24.5651 21.9306 24.5651V24.5651ZM16 12.8058C14.2394 12.8058 12.8058 14.2394 12.8058 16C12.8058 17.7606 14.2394 19.1942 16 19.1942C17.7606 19.1942 19.1942 17.7606 19.1942 16C19.1942 14.2394 17.7606 12.8058 16 12.8058ZM11.3058 16C11.3058 13.411 13.411 11.3058 16 11.3058C18.589 11.3058 20.6942 13.411 20.6942 16C20.6942 18.589 18.589 20.6942 16 20.6942C13.411 20.6942 11.3058 18.589 11.3058 16Z" fill="#2B63D9"/>
</svg>
