<svg width="32" height="32" viewBox="0 0 32 32" fill="none" xmlns="http://www.w3.org/2000/svg">
<g clip-path="url(#clip0)">
<path opacity="0.15" d="M21.9922 12.3886L23.5294 12.7228C23.8041 12.7826 24 13.0257 24 13.3067V13.3885C23.4159 13.2665 22.8106 13.2024 22.1903 13.2024C20.489 13.2024 18.9004 13.6846 17.5536 14.5198C17.3183 12.7689 15.8143 11.4143 14 11.4143C12.0229 11.4143 10.4143 13.0229 10.4143 15C10.4143 16.9771 12.0229 18.5857 14 18.5857C14.0241 18.5857 14.048 18.5854 14.072 18.585C13.6267 19.6384 13.3805 20.7965 13.3805 22.0122C13.3805 23.061 13.5638 24.0671 13.9001 25H12.3067C12.0257 25 11.7824 24.8041 11.7228 24.5294L11.3886 22.9922C10.9794 22.8586 10.5802 22.693 10.1957 22.4976L8.87198 23.3485C8.63547 23.5005 8.32495 23.4671 8.12628 23.2684L5.73157 20.8737C5.5329 20.675 5.49948 20.3645 5.65146 20.128L6.50244 18.8043C6.30698 18.4198 6.14142 18.0206 6.00775 17.6114L4.47058 17.2772C4.19592 17.2174 4 16.9743 4 16.6933V13.3067C4 13.0257 4.19592 12.7826 4.47058 12.7228L6.00775 12.3886C6.14142 11.9794 6.30698 11.5802 6.50244 11.1957L5.65146 9.87198C5.49948 9.63547 5.5329 9.32495 5.73157 9.12628L8.12628 6.73157C8.32495 6.5329 8.63547 6.49948 8.87198 6.65146L10.1957 7.50244C10.5802 7.30698 10.9794 7.14142 11.3886 7.00775L11.7228 5.47058C11.7824 5.19592 12.0257 5 12.3067 5H15.6933C15.9743 5 16.2176 5.19592 16.2772 5.47058L16.6114 7.00775C17.0206 7.14142 17.4198 7.30698 17.8043 7.50244L19.128 6.65146C19.3645 6.49948 19.675 6.5329 19.8737 6.73157L22.2684 9.12628C22.4671 9.32495 22.5005 9.63547 22.3485 9.87198L21.4976 11.1957C21.693 11.5802 21.8586 11.9794 21.9922 12.3886Z" fill="#2B63D9"/>
<path d="M11.1374 2.25C10.4757 2.25 9.90281 2.71117 9.76217 3.35832L9.48356 4.63992C9.27573 4.71807 9.07047 4.80319 8.86821 4.89512L7.76462 4.18564C7.20774 3.8278 6.47661 3.90637 6.00858 4.37439L3.37439 7.00858C2.90637 7.47661 2.82789 8.20788 3.18573 8.76476L3.89512 9.86821C3.80319 10.0705 3.71807 10.2757 3.63992 10.4836L2.35805 10.7622C1.71147 10.903 1.25 11.4753 1.25 12.1374V15.8626C1.25 16.5247 1.71174 17.097 2.35832 17.2378L3.63992 17.5164C3.71807 17.7243 3.80319 17.9295 3.89512 18.1318L3.18564 19.2354C2.8278 19.7923 2.90637 20.5234 3.37439 20.9914L6.00858 23.6256C6.47661 24.0936 7.20788 24.1721 7.76476 23.8143L8.86821 23.1049C9.07046 23.1968 9.27573 23.2819 9.48356 23.3601L9.76217 24.6417C9.90281 25.2888 10.4757 25.75 11.1374 25.75H14.2104C13.9861 25.2719 13.8035 24.7703 13.6672 24.25H11.2121L10.769 22.212L10.3603 22.0785C9.94704 21.9435 9.54372 21.7763 9.15511 21.5787L8.77157 21.3838L7.01642 22.5121L4.48787 19.9836L5.61623 18.2284L5.42126 17.8449C5.22372 17.4563 5.05645 17.053 4.92146 16.6397L4.78797 16.231L2.75 15.7879V12.2121L4.78797 11.769L4.92146 11.3603C5.05645 10.947 5.22372 10.5437 5.42126 10.1551L5.61623 9.77157L4.48787 8.01642L7.01642 5.48787L8.77157 6.61623L9.15511 6.42126C9.54372 6.22372 9.94704 6.05645 10.3603 5.92146L10.769 5.78797L11.2121 3.75H14.7879L15.231 5.78797L15.6397 5.92146C16.053 6.05645 16.4563 6.22372 16.8449 6.42126L17.2284 6.61623L18.9836 5.48787L21.5121 8.01642L20.3838 9.77157L20.5787 10.1551C20.7763 10.5437 20.9435 10.947 21.0785 11.3603L21.212 11.769L23.25 12.2121V13.2655C23.765 13.3272 24.2663 13.4334 24.75 13.58V12.1374C24.75 11.4753 24.2883 10.903 23.6417 10.7622L22.3601 10.4836C22.2819 10.2757 22.1968 10.0705 22.1049 9.86821L22.8144 8.76462C23.1722 8.20774 23.0936 7.47661 22.6256 7.00858L19.9914 4.37439C19.5234 3.90637 18.7921 3.82789 18.2352 4.18573L17.1318 4.89512C16.9295 4.80319 16.7243 4.71807 16.5164 4.63992L16.2378 3.35832C16.0972 2.71117 15.5243 2.25 14.8626 2.25H11.1374Z" fill="#2B63D9"/>
<path fill-rule="evenodd" clip-rule="evenodd" d="M17.6731 14.447C17.6871 14.2999 17.6942 14.1508 17.6942 14C17.6942 11.411 15.589 9.30577 13 9.30577C10.411 9.30577 8.30577 11.411 8.30577 14C8.30577 16.589 10.411 18.6942 13 18.6942C13.3711 18.6942 13.7322 18.651 14.0786 18.5693C14.8118 16.8441 16.0792 15.4008 17.6731 14.447ZM9.80577 14C9.80577 12.2394 11.2394 10.8058 13 10.8058C14.7606 10.8058 16.1942 12.2394 16.1942 14C16.1942 15.7606 14.7606 17.1942 13 17.1942C11.2394 17.1942 9.80577 15.7606 9.80577 14Z" fill="#2B63D9"/>
<circle cx="23.1903" cy="23.0122" r="8.80977" fill="#DFE8F9"/>
<path fill-rule="evenodd" clip-rule="evenodd" d="M22 30.6111C26.7558 30.6111 30.6111 26.7558 30.6111 22C30.6111 17.2442 26.7558 13.3889 22 13.3889C17.2442 13.3889 13.3889 17.2442 13.3889 22C13.3889 26.7558 17.2442 30.6111 22 30.6111ZM22 32C27.5228 32 32 27.5228 32 22C32 16.4772 27.5228 12 22 12C16.4772 12 12 16.4772 12 22C12 27.5228 16.4772 32 22 32Z" fill="#BFD0F4"/>
<path d="M16.7998 23.5332L16.7998 27.133M16.7998 27.133L20.3996 27.133M16.7998 27.133L21.125 22.8079" stroke="#2B63D9" stroke-width="1.5" stroke-linecap="round" stroke-linejoin="round"/>
<path d="M27.133 20.3997L27.133 16.7999M27.133 16.7999L23.5332 16.7999M27.133 16.7999L22.875 21.0579" stroke="#2B63D9" stroke-width="1.5" stroke-linecap="round" stroke-linejoin="round"/>
</g>
<defs>
<clipPath id="clip0">
<rect width="32" height="32" fill="white"/>
</clipPath>
</defs>
</svg>
