<?xml version="1.0" encoding="utf-8"?>
<!-- Generator: Adobe Illustrator 21.1.0, SVG Export Plug-In . SVG Version: 6.00 Build 0)  -->
<svg version="1.0" id="Layer_1" xmlns="http://www.w3.org/2000/svg" xmlns:xlink="http://www.w3.org/1999/xlink" x="0px" y="0px"
	 viewBox="0 0 171 180" style="enable-background:new 0 0 171 180;" xml:space="preserve">
<style type="text/css">
	.st0{fill:#FBBC04;}
	.st1{fill:#FCC936;}
	.st2{fill:#FFFFFF;}
	.st3{fill:#457FE4;}
	.st4{fill:#2B63D9;}
</style>
<path class="st0" d="M68.3,83.8c4.7,0,8.5-3.9,8.5-8.6V53.6c0-9.5,7.6-17.3,17-17.3s17,7.7,17,17.3v21.6c0,4.8,3.8,8.6,8.5,8.6
	c4.7,0,8.5-3.9,8.5-8.6V53.6c0-19-15.3-34.5-34.1-34.5c-18.8,0-34.1,15.5-34.1,34.5v21.6C59.8,79.9,63.6,83.8,68.3,83.8L68.3,83.8z"
	/>
<path class="st0" d="M42.8,78.6v62.1c0,5.7,4.6,10.4,10.2,10.4h81.7c5.6,0,10.2-4.6,10.2-10.4c0-67.7,0.2-63-0.4-65
	c-1.2-4.3-5.2-7.4-9.8-7.4H53C47.4,68.3,42.8,72.9,42.8,78.6L42.8,78.6z"/>
<path class="st1" d="M42.8,79v56.9h35.8c34.2,0,62.3-26.2,66-59.8c-1.2-4.3-5.2-7.4-9.8-7.4H53C47.4,68.6,42.8,73.2,42.8,79z"/>
<path class="st2" d="M93.9,122.6c4.7,0,8.5-3.9,8.5-8.6v-8.6c0-4.8-3.8-8.6-8.5-8.6s-8.5,3.9-8.5,8.6v8.6
	C85.4,118.8,89.2,122.6,93.9,122.6z"/>
<path class="st3" d="M19.1,136.4c0-6.5,5.3-11.8,11.8-11.8h68.9c6.5,0,11.8,5.3,11.8,11.8v12.9c0,6.5-5.3,11.8-11.8,11.8H30.9
	c-6.5,0-11.8-5.3-11.8-11.8V136.4z"/>
<path class="st4" d="M48.9,160.9h50.9c6.5,0,11.8-5.3,11.8-11.8v-12.9c0-6.5-5.3-11.8-11.8-11.8h-4.2
	C91.5,140.6,73.5,154.2,48.9,160.9z"/>
<path class="st2" d="M44.7,135.4l-0.7,6.2l6.3-1.8l0.6,4.2l-5.7,0.4l3.8,5l-3.8,2l-2.6-5.3l-2.3,5.2l-4-2l3.7-5l-5.7-0.4l0.7-4.2
	l6.1,1.8l-0.7-6.2H44.7z"/>
<path class="st2" d="M67.8,135.4l-0.7,6.2l6.3-1.8l0.6,4.2l-5.7,0.4l3.8,5l-3.8,2l-2.6-5.3l-2.3,5.2l-4-2l3.7-5l-5.7-0.4l0.7-4.2
	l6.1,1.8l-0.7-6.2H67.8z"/>
<path class="st2" d="M90.9,135.4l-0.7,6.2l6.3-1.8l0.6,4.2l-5.7,0.4l3.8,5l-3.8,2l-2.6-5.3l-2.3,5.2l-4-2l3.7-5l-5.7-0.4l0.7-4.2
	l6.1,1.8l-0.7-6.2H90.9z"/>
</svg>
