<svg width="32" height="32" viewBox="0 0 32 32" fill="none" xmlns="http://www.w3.org/2000/svg">
<g opacity="0.15">
<path d="M16.7828 11.1569C14.7291 11.1569 13.0568 12.828 13.0568 14.8829C13.0568 16.9378 14.7279 18.6076 16.7828 18.6076C18.8377 18.6076 20.5088 16.9366 20.5088 14.8816C20.5088 12.8267 18.8365 11.1569 16.7828 11.1569Z" fill="#2B63D9"/>
<path d="M21.418 21.5861C20.3981 20.7538 19.0463 20.2951 17.6109 20.2951H15.9551C14.5196 20.2951 13.1678 20.7538 12.148 21.5861C11.1332 22.4147 10.5744 23.508 10.5744 24.6647C10.5744 24.8484 10.7594 24.9979 10.9887 24.9979H22.5785C22.8066 24.9979 22.9928 24.8484 22.9928 24.6647C22.9928 23.508 22.4328 22.4147 21.418 21.5861Z" fill="#2B63D9"/>
<path d="M7.98805 7.41187C5.93437 7.41187 4.26203 9.08293 4.26203 11.1379C4.26203 13.1928 5.9331 14.8626 7.98805 14.8626C10.043 14.8626 11.7141 13.1916 11.7141 11.1366C11.7141 9.08167 10.0417 7.41187 7.98805 7.41187Z" fill="#2B63D9"/>
<path d="M12.6227 17.8411C11.6029 17.0087 10.2511 16.5501 8.81565 16.5501H7.15979C5.72437 16.5501 4.37256 17.0087 3.35269 17.8411C2.33789 18.6696 1.77917 19.763 1.77917 20.9197C1.77917 21.1034 1.96415 21.2529 2.19346 21.2529H13.7832C14.0113 21.2529 14.1975 21.1034 14.1975 20.9197C14.1975 19.763 13.6376 18.6696 12.6227 17.8411Z" fill="#2B63D9"/>
<path d="M25.7906 7.41187C23.7369 7.41187 22.0646 9.08293 22.0646 11.1379C22.0646 13.1928 23.7356 14.8626 25.7906 14.8626C27.8455 14.8626 29.5166 13.1916 29.5166 11.1366C29.5166 9.08167 27.8442 7.41187 25.7906 7.41187Z" fill="#2B63D9"/>
<path d="M30.4253 17.8411C29.4054 17.0087 28.0536 16.5501 26.6182 16.5501H24.9623C23.5269 16.5501 22.1751 17.0087 21.1552 17.8411C20.1404 18.6696 19.5817 19.763 19.5817 20.9197C19.5817 21.1034 19.7667 21.2529 19.996 21.2529H31.5858C31.8138 21.2529 32 21.1034 32 20.9197C32 19.763 31.4401 18.6696 30.4253 17.8411Z" fill="#2B63D9"/>
</g>
<path d="M12.2543 19.8636C12.0199 18.9302 11.5391 18.0708 10.8448 17.3661C10.0252 16.5343 8.99122 16.002 7.87172 15.825C7.5982 15.7817 7.31959 15.7597 7.03774 15.7597H5.38061C5.12203 15.7597 4.86616 15.7782 4.61445 15.8146C3.46892 15.9802 2.40966 16.5165 1.57352 17.3661C0.558712 18.3962 0 19.7568 0 21.196C0 22.2496 1.6221 22.2496 1.6221 21.196C1.6221 20.1847 2.01191 19.2324 2.72901 18.5046C3.44816 17.7738 4.38585 17.3818 5.38061 17.3818H7.03774C8.03164 17.3818 8.96929 17.7738 9.68934 18.5046C10.2981 19.1224 10.6709 19.902 10.7698 20.7421C10.6313 20.8576 10.4976 20.9807 10.3692 21.1112C9.35442 22.1412 8.79571 23.5018 8.79571 24.9411C8.79571 26.0144 10.4178 26.0144 10.4178 24.9411C10.4178 23.8678 10.8076 22.9775 11.5247 22.2496C12.2439 21.5188 13.1816 21.1268 14.1763 21.1268H15.8335C16.8273 21.1268 17.765 21.5188 18.4851 22.2496C19.2022 22.9775 19.592 23.9297 19.592 24.9411C19.592 26.0144 21.2141 26.0144 21.2141 24.9411C21.2141 23.5018 20.6554 22.1412 19.6406 21.1112C19.5734 21.043 19.5048 20.9769 19.4349 20.9128C19.5007 20.0078 19.8818 19.1641 20.5315 18.5046C21.2507 17.7738 22.1884 17.3818 23.1831 17.3818H24.8403C25.8342 17.3818 26.7718 17.7738 27.4919 18.5046C28.209 19.2324 28.5988 20.1847 28.5988 21.196C28.5988 22.2496 30.2209 22.2496 30.2209 21.196C30.2209 19.7568 29.6622 18.3962 28.6474 17.3661C27.8277 16.5343 26.7937 16.002 25.6742 15.825C25.4007 15.7817 25.1221 15.7597 24.8403 15.7597H23.1831C22.9245 15.7597 22.6687 15.7782 22.417 15.8146C21.2714 15.9802 20.2122 16.5165 19.376 17.3661C18.6621 18.0907 18.1739 18.979 17.9472 19.9431C17.5393 19.7655 17.11 19.64 16.6674 19.57C16.3939 19.5267 16.1153 19.5047 15.8335 19.5047H14.1763C13.9177 19.5047 13.6619 19.5232 13.4102 19.5596C13.0126 19.6171 12.6254 19.7192 12.2543 19.8636Z" fill="#2B63D9"/>
<path fill-rule="evenodd" clip-rule="evenodd" d="M4.8164 14.1603C4.99765 14.2367 5.18617 14.2991 5.38061 14.3462C5.66249 14.4145 5.95681 14.4508 6.25945 14.4508C6.5263 14.4508 6.78667 14.4226 7.03774 14.369C7.26146 14.3213 7.47779 14.2535 7.68476 14.1675C9.03432 13.6069 9.98547 12.2751 9.98547 10.7247C9.98547 8.6698 8.31313 7 6.25945 7C4.20577 7 2.53344 8.67107 2.53344 10.726C2.53344 12.2695 3.47626 13.5958 4.8164 14.1603ZM6.25945 8.6221C5.10128 8.6221 4.15555 9.56729 4.15555 10.726C4.15555 11.8844 5.09965 12.8287 6.25945 12.8287C7.41853 12.8287 8.36336 11.8838 8.36336 10.7247C8.36336 9.56674 7.41834 8.6221 6.25945 8.6221Z" fill="#2B63D9"/>
<path fill-rule="evenodd" clip-rule="evenodd" d="M22.6189 14.1603C22.8002 14.2367 22.9887 14.2991 23.1831 14.3462C23.465 14.4145 23.7593 14.4508 24.062 14.4508C24.3288 14.4508 24.5892 14.4226 24.8403 14.369C25.064 14.3213 25.2803 14.2535 25.4873 14.1675C26.8368 13.6069 27.788 12.2751 27.788 10.7247C27.788 8.6698 26.1156 7 24.062 7C22.0083 7 20.336 8.67107 20.336 10.726C20.336 12.2695 21.2788 13.5958 22.6189 14.1603ZM24.062 8.6221C22.9038 8.6221 21.9581 9.56729 21.9581 10.726C21.9581 11.8844 22.9022 12.8287 24.062 12.8287C25.2211 12.8287 26.1659 11.8838 26.1659 10.7247C26.1659 9.56674 25.2209 8.6221 24.062 8.6221Z" fill="#2B63D9"/>
<path fill-rule="evenodd" clip-rule="evenodd" d="M14.1763 18.0912C13.9819 18.0441 13.7934 17.9817 13.6121 17.9053C12.272 17.3408 11.3291 16.0146 11.3291 14.471C11.3291 12.4161 13.0015 10.745 15.0552 10.745C17.1088 10.745 18.7812 12.4148 18.7812 14.4698C18.7812 16.0201 17.83 17.352 16.4805 17.9126C16.2735 17.9985 16.0572 18.0664 15.8335 18.1141C15.5824 18.1676 15.322 18.1958 15.0552 18.1958C14.7525 18.1958 14.4582 18.1596 14.1763 18.0912ZM12.9513 14.471C12.9513 13.3123 13.897 12.3671 15.0552 12.3671C16.2141 12.3671 17.1591 13.3118 17.1591 14.4698C17.1591 15.6288 16.2142 16.5737 15.0552 16.5737C13.8954 16.5737 12.9513 15.6294 12.9513 14.471Z" fill="#2B63D9"/>
</svg>
