<svg width="16" height="16" viewBox="0 0 16 16" fill="none" xmlns="http://www.w3.org/2000/svg">
<circle opacity="0.15" cx="9.5" cy="8.5" r="5.5" fill="#2B63D9"/>
<path fill-rule="evenodd" clip-rule="evenodd" d="M8 13C10.7614 13 13 10.7614 13 8C13 5.23858 10.7614 3 8 3C5.23858 3 3 5.23858 3 8C3 10.7614 5.23858 13 8 13ZM8 14C11.3137 14 14 11.3137 14 8C14 4.68629 11.3137 2 8 2C4.68629 2 2 4.68629 2 8C2 11.3137 4.68629 14 8 14Z" fill="#2B63D9"/>
<path d="M7.89962 5.50872C7.44984 5.55227 7.04527 5.7497 6.831 5.93896C6.62404 6.12177 6.30806 6.10219 6.12525 5.89522C5.94244 5.68826 5.96202 5.37228 6.16899 5.18947C6.54878 4.854 7.15405 4.57623 7.80325 4.51337C8.46732 4.44908 9.2208 4.60776 9.82382 5.21072C10.5953 5.98208 10.5927 6.95059 10.2127 7.68907C9.85095 8.39205 9.10595 8.96534 8.28217 8.96534C8.22882 8.96534 8.19684 8.97132 8.17985 8.97615C8.17709 8.99003 8.17538 9.00951 8.17619 9.03225C8.17666 9.04525 8.17781 9.0553 8.1785 9.06038L8.17884 9.06271C8.2314 9.32981 8.06009 9.59003 7.79288 9.64729C7.52287 9.70515 7.25697 9.53267 7.19911 9.26266L7.19877 9.26106L7.19827 9.25867L7.19714 9.25305L7.19441 9.2385C7.19243 9.2274 7.19014 9.21338 7.18786 9.19685C7.18334 9.16401 7.17869 9.11993 7.17683 9.06795C7.17325 8.96783 7.17925 8.8188 7.23066 8.65885C7.28376 8.49368 7.38892 8.30786 7.58448 8.16746C7.77915 8.0277 8.01829 7.96534 8.28217 7.96534C8.64852 7.96534 9.09164 7.68209 9.32348 7.23153C9.53704 6.81649 9.53342 6.33448 9.11676 5.91787C8.76918 5.57033 8.33454 5.46661 7.89962 5.50872Z" fill="#2B63D9"/>
<path d="M7.68811 10.4406C7.96426 10.4406 8.18811 10.6644 8.18811 10.9406C8.18811 11.2167 7.96426 11.4406 7.68811 11.4406C7.41197 11.4406 7.18811 11.2167 7.18811 10.9406C7.18811 10.6644 7.41197 10.4406 7.68811 10.4406Z" fill="#2B63D9"/>
</svg>
