<svg width="32" height="32" viewBox="0 0 32 32" fill="none" xmlns="http://www.w3.org/2000/svg">
<path opacity="0.15" fill-rule="evenodd" clip-rule="evenodd" d="M16.0365 6.50739C16.8921 5.83087 18.1079 5.83087 18.9635 6.50739L27 12.8617H26.9466V24.6845C26.9466 25.9633 25.8978 27 24.6039 27H10.3961C9.10224 27 8.05335 25.9633 8.05335 24.6845V12.8617H8L16.0365 6.50739Z" fill="#2B63D9"/>
<path fill-rule="evenodd" clip-rule="evenodd" d="M16.8556 6.22551C16.0631 5.5915 14.937 5.5915 14.1444 6.22552L6.75003 12.141V23.2606C6.75003 24.459 7.72157 25.4306 8.92003 25.4306H11.25L11.25 19.1006C11.25 17.0737 12.8931 15.4306 14.92 15.4306H16.08C18.1069 15.4306 19.75 17.0737 19.75 19.1006L19.75 25.4306H22.08C23.2785 25.4306 24.25 24.459 24.25 23.2606V12.141L16.8556 6.22551ZM25.75 13.341L27.5315 14.7662C27.855 15.025 28.3269 14.9725 28.5857 14.6491C28.8444 14.3257 28.792 13.8537 28.4685 13.5949L17.7927 5.05421C16.4523 3.98193 14.5477 3.98193 13.2074 5.05421L2.53151 13.5949C2.20806 13.8537 2.15562 14.3257 2.41438 14.6491C2.67313 14.9725 3.1451 15.025 3.46855 14.7662L5.25003 13.341V23.2606C5.25003 25.2875 6.89314 26.9306 8.92003 26.9306H22.08C24.1069 26.9306 25.75 25.2875 25.75 23.2606V13.341ZM18.25 25.4306V19.1006C18.25 17.9021 17.2785 16.9306 16.08 16.9306H14.92C13.7216 16.9306 12.75 17.9021 12.75 19.1006L12.75 25.4306H18.25Z" fill="#2B63D9"/>
</svg>
