<svg width="32" height="32" viewBox="0 0 32 32" fill="none" xmlns="http://www.w3.org/2000/svg">
<rect opacity="0.15" x="7.08691" y="9.08691" width="21.913" height="16.6957" rx="2.92" fill="#2B63D9"/>
<path fill-rule="evenodd" clip-rule="evenodd" d="M4.25 10.047C4.25 7.94995 5.94996 6.25 8.04696 6.25H22.8226C24.9196 6.25 26.6196 7.94996 26.6196 10.047V21.0281C26.6196 23.1251 24.9196 24.8251 22.8226 24.8251H8.04696C5.94996 24.8251 4.25 23.1251 4.25 21.0281V10.047ZM8.04696 7.75C6.77838 7.75 5.75 8.77838 5.75 10.047V18.8567L8.38879 12.4875C8.38884 12.4873 8.38873 12.4876 8.38879 12.4875C8.90482 11.2394 10.5632 10.9876 11.4261 12.0266L16.11 17.6669C16.228 17.809 16.4462 17.8081 16.563 17.6652L17.8955 16.0352C18.5789 15.1992 19.84 15.1528 20.5832 15.9339L25.1196 20.5147V10.047C25.1196 8.77838 24.0912 7.75 22.8226 7.75H8.04696ZM24.7519 22.2752L19.5045 16.9764L19.4978 16.9693C19.3764 16.8401 19.169 16.8473 19.0568 16.9846L17.7244 18.6145C17.0104 19.488 15.6768 19.4932 14.9561 18.6252L10.2721 12.9849C10.1309 12.8149 9.8595 12.856 9.77509 13.0603L6.02336 22.1159C6.41115 22.8358 7.17191 23.3251 8.04696 23.3251H22.8226C23.6314 23.3251 24.3426 22.907 24.7519 22.2752ZM21.1739 10.8804C20.7237 10.8804 20.3587 11.2454 20.3587 11.6957C20.3587 12.1459 20.7237 12.5109 21.1739 12.5109C21.6241 12.5109 21.9891 12.1459 21.9891 11.6957C21.9891 11.2454 21.6241 10.8804 21.1739 10.8804ZM18.8587 11.6957C18.8587 10.417 19.8953 9.38043 21.1739 9.38043C22.4526 9.38043 23.4891 10.417 23.4891 11.6957C23.4891 12.9743 22.4526 14.0109 21.1739 14.0109C19.8953 14.0109 18.8587 12.9743 18.8587 11.6957Z" fill="#2B63D9"/>
</svg>
