<svg width="32" height="32" viewBox="0 0 32 32" fill="none" xmlns="http://www.w3.org/2000/svg">
<circle opacity="0.15" cx="18" cy="17" r="10" fill="#2B63D9"/>
<path fill-rule="evenodd" clip-rule="evenodd" d="M16 11.75C15.5858 11.75 15.25 11.4142 15.25 11V10.8713C15.25 10.4571 15.5858 10.1213 16 10.1213C16.4142 10.1213 16.75 10.4571 16.75 10.8713V11C16.75 11.4142 16.4142 11.75 16 11.75ZM16 21.75C15.5858 21.75 15.25 21.4142 15.25 21V14C15.25 13.5858 15.5858 13.25 16 13.25C16.4142 13.25 16.75 13.5858 16.75 14V21C16.75 21.4142 16.4142 21.75 16 21.75ZM16 25.5C21.2467 25.5 25.5 21.2467 25.5 16C25.5 10.7533 21.2467 6.5 16 6.5C10.7533 6.5 6.5 10.7533 6.5 16C6.5 21.2467 10.7533 25.5 16 25.5ZM16 27C22.0751 27 27 22.0751 27 16C27 9.92487 22.0751 5 16 5C9.92487 5 5 9.92487 5 16C5 22.0751 9.92487 27 16 27Z" fill="#2B63D9"/>
</svg>
