<svg width="16" height="16" viewBox="0 0 16 16" fill="none" xmlns="http://www.w3.org/2000/svg">
<circle opacity="0.15" cx="9.5" cy="8.5" r="5.5" fill="#2B63D9"/>
<path fill-rule="evenodd" clip-rule="evenodd" d="M8 13C10.7614 13 13 10.7614 13 8C13 5.23858 10.7614 3 8 3C5.23858 3 3 5.23858 3 8C3 10.7614 5.23858 13 8 13ZM8 14C11.3137 14 14 11.3137 14 8C14 4.68629 11.3137 2 8 2C4.68629 2 2 4.68629 2 8C2 11.3137 4.68629 14 8 14Z" fill="#2B63D9"/>
<path fill-rule="evenodd" clip-rule="evenodd" d="M8 5.49996C7.72386 5.49996 7.5 5.2761 7.5 4.99996V4.94055C7.5 4.66441 7.72386 4.44055 8 4.44055C8.27614 4.44055 8.5 4.66441 8.5 4.94055V4.99996C8.5 5.2761 8.27614 5.49996 8 5.49996Z" fill="#2B63D9"/>
<path fill-rule="evenodd" clip-rule="evenodd" d="M8 11.5C7.72386 11.5 7.5 11.2761 7.5 11L7.5 6.99996C7.5 6.72381 7.72386 6.49996 8 6.49996C8.27614 6.49996 8.5 6.72381 8.5 6.99996L8.5 11C8.5 11.2761 8.27614 11.5 8 11.5Z" fill="#2B63D9"/>
</svg>
