<svg width="32" height="32" viewBox="0 0 32 32" fill="none" xmlns="http://www.w3.org/2000/svg">
<path d="M18.125 7.0625C18.125 8.20159 17.2016 9.125 16.0625 9.125C14.9234 9.125 14 8.20159 14 7.0625C14 5.92341 14.9234 5 16.0625 5C17.2016 5 18.125 5.92341 18.125 7.0625Z" fill="#2B63D9"/>
<path d="M18.125 16C18.125 17.1391 17.2016 18.0625 16.0625 18.0625C14.9234 18.0625 14 17.1391 14 16C14 14.8609 14.9234 13.9375 16.0625 13.9375C17.2016 13.9375 18.125 14.8609 18.125 16Z" fill="#2B63D9"/>
<path d="M16.0625 27C17.2016 27 18.125 26.0766 18.125 24.9375C18.125 23.7984 17.2016 22.875 16.0625 22.875C14.9234 22.875 14 23.7984 14 24.9375C14 26.0766 14.9234 27 16.0625 27Z" fill="#2B63D9"/>
</svg>
