<svg width="32" height="32" viewBox="0 0 32 32" fill="none" xmlns="http://www.w3.org/2000/svg">
<path opacity="0.15" d="M28.4091 11H8.5C7.67157 11 7 11.6716 7 12.5V26.0455C7 26.8739 7.67157 27.5455 8.5 27.5455H28.4091C29.2375 27.5455 29.9091 26.8739 29.9091 26.0455V12.5C29.9091 11.6716 29.2375 11 28.4091 11Z" fill="#2B63D9"/>
<path fill-rule="evenodd" clip-rule="evenodd" d="M28.2045 25V10C28.2045 8.75736 27.1971 7.75 25.9545 7.75H23.8133L17.2299 4.45829C16.4557 4.07119 15.5444 4.07119 14.7702 4.45829L8.1868 7.75H6.04541C4.80277 7.75 3.79541 8.75736 3.79541 10V25H2.75C2.33579 25 2 25.3358 2 25.75C2 26.1642 2.33579 26.5 2.75 26.5H29.25C29.6642 26.5 30 26.1642 30 25.75C30 25.3358 29.6642 25 29.25 25H28.2045ZM8.38349 9.25C8.37066 9.25033 8.35784 9.25033 8.34505 9.25H6.04541C5.6312 9.25 5.29541 9.58579 5.29541 10V25H17C17 24.1716 17.6716 23.5 18.5 23.5H23.5C24.3284 23.5 25 24.1716 25 25H26.7045V10C26.7045 9.58578 26.3687 9.25 25.9545 9.25H23.6551C23.6423 9.25033 23.6294 9.25033 23.6166 9.25H8.38349ZM17.258 6.14939L20.4592 7.75H11.5409L14.7421 6.14939C14.8359 6.75985 15.3634 7.22736 16.0001 7.22736C16.6367 7.22736 17.1642 6.75985 17.258 6.14939Z" fill="#2B63D9"/>
<path fill-rule="evenodd" clip-rule="evenodd" d="M8 13.5684C8 13.1541 8.33579 12.8184 8.75 12.8184H23.25C23.6642 12.8184 24 13.1541 24 13.5684C24 13.9826 23.6642 14.3184 23.25 14.3184H8.75C8.33579 14.3184 8 13.9826 8 13.5684ZM8 17.5684C8 17.1541 8.33579 16.8184 8.75 16.8184H11.25C11.6642 16.8184 12 17.1541 12 17.5684C12 17.9826 11.6642 18.3184 11.25 18.3184H8.75C8.33579 18.3184 8 17.9826 8 17.5684ZM14 17.5684C14 17.1541 14.3358 16.8184 14.75 16.8184H23.25C23.6642 16.8184 24 17.1541 24 17.5684C24 17.9826 23.6642 18.3184 23.25 18.3184H14.75C14.3358 18.3184 14 17.9826 14 17.5684Z" fill="#2B63D9"/>
</svg>
