<svg width="32" height="32" viewBox="0 0 32 32" fill="none" xmlns="http://www.w3.org/2000/svg">
<path opacity="0.15" d="M28.4091 11H8.5C7.67157 11 7 11.6716 7 12.5V26.0455C7 26.8739 7.67157 27.5455 8.5 27.5455H28.4091C29.2375 27.5455 29.9091 26.8739 29.9091 26.0455V12.5C29.9091 11.6716 29.2375 11 28.4091 11Z" fill="#2B63D9"/>
<path fill-rule="evenodd" clip-rule="evenodd" d="M28.2045 25V10C28.2045 8.75736 27.1971 7.75 25.9545 7.75H23.8133L17.2299 4.45829C16.4557 4.07119 15.5444 4.07119 14.7702 4.45829L8.1868 7.75H6.04541C4.80277 7.75 3.79541 8.75736 3.79541 10V25H2.75C2.33579 25 2 25.3358 2 25.75C2 26.1642 2.33579 26.5 2.75 26.5H29.25C29.6642 26.5 30 26.1642 30 25.75C30 25.3358 29.6642 25 29.25 25H28.2045ZM8.38349 9.25C8.37066 9.25033 8.35784 9.25033 8.34505 9.25H6.04541C5.6312 9.25 5.29541 9.58579 5.29541 10V25H17C17 24.1716 17.6716 23.5 18.5 23.5H23.5C24.3284 23.5 25 24.1716 25 25H26.7045V10C26.7045 9.58578 26.3687 9.25 25.9545 9.25H23.6551C23.6423 9.25033 23.6294 9.25033 23.6166 9.25H8.38349ZM17.258 6.14939L20.4592 7.75H11.5409L14.7421 6.14939C14.8359 6.75985 15.3634 7.22736 16.0001 7.22736C16.6367 7.22736 17.1642 6.75985 17.258 6.14939Z" fill="#2B63D9"/>
<path fill-rule="evenodd" clip-rule="evenodd" d="M8 13.5684C8 13.1541 8.33579 12.8184 8.75 12.8184H23.25C23.6642 12.8184 24 13.1541 24 13.5684C24 13.9826 23.6642 14.3184 23.25 14.3184H8.75C8.33579 14.3184 8 13.9826 8 13.5684ZM8 17.5684C8 17.1541 8.33579 16.8184 8.75 16.8184H11.25C11.6642 16.8184 12 17.1541 12 17.5684C12 17.9826 11.6642 18.3184 11.25 18.3184H8.75C8.33579 18.3184 8 17.9826 8 17.5684ZM14 17.5684C14 17.1541 14.3358 16.8184 14.75 16.8184H23.25C23.6642 16.8184 24 17.1541 24 17.5684C24 17.9826 23.6642 18.3184 23.25 18.3184H14.75C14.3358 18.3184 14 17.9826 14 17.5684Z" fill="#2B63D9"/>
<circle cx="23.5" cy="23.5" r="7.5" fill="white"/>
<g opacity="0.15">
<path d="M21.094 20.3992C20.236 20.3992 19.5373 21.109 19.5373 21.9819C19.5373 22.8547 20.2354 23.564 21.094 23.564C21.9525 23.564 22.6507 22.8542 22.6507 21.9813C22.6507 21.1085 21.952 20.3992 21.094 20.3992Z" fill="#2B63D9"/>
<path d="M23.0304 24.8292C22.6043 24.4757 22.0395 24.2809 21.4398 24.2809H20.748C20.1483 24.2809 19.5835 24.4757 19.1574 24.8292C18.7334 25.1812 18.5 25.6456 18.5 26.1369C18.5 26.2149 18.5773 26.2784 18.6731 26.2784H23.5152C23.6105 26.2784 23.6883 26.2149 23.6883 26.1369C23.6883 25.6456 23.4543 25.1812 23.0304 24.8292Z" fill="#2B63D9"/>
<path d="M27.094 20.3838C26.236 20.3838 25.5373 21.0936 25.5373 21.9664C25.5373 22.8393 26.2355 23.5485 27.094 23.5485C27.9526 23.5485 28.6507 22.8387 28.6507 21.9659C28.6507 21.093 27.952 20.3838 27.094 20.3838Z" fill="#2B63D9"/>
<path d="M29.0304 24.8288C28.6043 24.4752 28.0395 24.2804 27.4398 24.2804H26.748C26.1483 24.2804 25.5835 24.4752 25.1575 24.8288C24.7335 25.1807 24.5001 25.6451 24.5001 26.1365C24.5001 26.2145 24.5773 26.278 24.6731 26.278H29.5153C29.6105 26.278 29.6883 26.2145 29.6883 26.1365C29.6883 25.6451 29.4544 25.1807 29.0304 24.8288Z" fill="#2B63D9"/>
</g>
<path fill-rule="evenodd" clip-rule="evenodd" d="M23.1883 25.9956C23.1883 25.3843 22.9549 24.8064 22.5309 24.3689C22.3106 24.1416 22.0532 23.9669 21.7731 23.8512C21.5115 23.7432 21.23 23.6865 20.9403 23.6865H20.248C19.9666 23.6865 19.6929 23.7398 19.4376 23.8419C19.1488 23.9574 18.8836 24.1352 18.6574 24.3689C18.2334 24.8064 18 25.3843 18 25.9956C18 26.7089 19 26.7089 19 25.9956C19 25.6429 19.1332 25.3149 19.3755 25.0648C19.6176 24.8147 19.9254 24.6865 20.248 24.6865H20.9403C21.2623 24.6865 21.5701 24.8144 21.8128 25.0648C22.0551 25.3149 22.1883 25.6429 22.1883 25.9956C22.1883 26.7089 23.1883 26.7089 23.1883 25.9956ZM21.6163 22.7588C21.9554 22.4682 22.1711 22.0335 22.1711 21.5483C22.1711 20.6754 21.4724 19.9662 20.6144 19.9662C19.7564 19.9662 19.0577 20.676 19.0577 21.5488C19.0577 22.03 19.2699 22.4615 19.6042 22.7519C19.7872 22.9107 20.0067 23.0274 20.248 23.0867C20.3655 23.1156 20.4882 23.1309 20.6144 23.1309C20.7262 23.1309 20.8352 23.1189 20.9403 23.0961C21.1939 23.0409 21.4248 22.9229 21.6163 22.7588ZM20.6144 20.9662C20.324 20.9662 20.0577 21.2128 20.0577 21.5488C20.0577 21.8846 20.3232 22.1309 20.6144 22.1309C20.9051 22.1309 21.1711 21.8845 21.1711 21.5483C21.1711 21.2128 20.9053 20.9662 20.6144 20.9662Z" fill="#2B63D9"/>
<path fill-rule="evenodd" clip-rule="evenodd" d="M29.1883 25.9956C29.1883 25.3843 28.9549 24.8064 28.5309 24.3689C28.3106 24.1416 28.0532 23.9669 27.7731 23.8512C27.5115 23.7432 27.23 23.6865 26.9403 23.6865H26.248C25.9666 23.6865 25.6929 23.7398 25.4376 23.8419C25.1488 23.9574 24.8836 24.1352 24.6574 24.3689C24.2334 24.8064 24 25.3843 24 25.9956C24 26.7089 25 26.7089 25 25.9956C25 25.6429 25.1332 25.3149 25.3755 25.0648C25.6176 24.8147 25.9254 24.6865 26.248 24.6865H26.9403C27.2623 24.6865 27.5701 24.8144 27.8128 25.0648C28.0551 25.3149 28.1883 25.6429 28.1883 25.9956C28.1883 26.7089 29.1883 26.7089 29.1883 25.9956ZM27.6163 22.7588C27.9554 22.4682 28.1711 22.0335 28.1711 21.5483C28.1711 20.6754 27.4724 19.9662 26.6144 19.9662C25.7564 19.9662 25.0577 20.676 25.0577 21.5488C25.0577 22.03 25.2699 22.4615 25.6042 22.7519C25.7872 22.9107 26.0067 23.0274 26.248 23.0867C26.3655 23.1156 26.4882 23.1309 26.6144 23.1309C26.7262 23.1309 26.8352 23.1189 26.9403 23.0961C27.1939 23.0409 27.4248 22.9229 27.6163 22.7588ZM26.6144 20.9662C26.324 20.9662 26.0577 21.2128 26.0577 21.5488C26.0577 21.8846 26.3232 22.1309 26.6144 22.1309C26.9051 22.1309 27.1711 21.8845 27.1711 21.5483C27.1711 21.2128 26.9053 20.9662 26.6144 20.9662Z" fill="#2B63D9"/>
<path fill-rule="evenodd" clip-rule="evenodd" d="M22.3374 18.068C22.3715 17.8217 22.2177 17.5829 21.9714 17.5169C21.7046 17.4454 21.4305 17.6037 21.359 17.8705L21.0323 19.0899C21.0288 19.1 21.0257 19.1103 21.0229 19.1208C20.9514 19.3875 21.1097 19.6617 21.3764 19.7332L22.6274 20.0684C22.8941 20.1399 23.1683 19.9816 23.2398 19.7148C23.3113 19.4481 23.153 19.1739 22.8862 19.1025L22.6283 19.0334C23.479 18.5993 24.2977 18.7884 24.7623 19.253C24.9576 19.4483 25.2742 19.4483 25.4694 19.253C25.6647 19.0577 25.6647 18.7412 25.4694 18.5459C24.684 17.7605 23.4796 17.5589 22.3374 18.068ZM23.5501 27.1648C23.6215 26.8981 23.8956 26.7397 24.1624 26.8111L25.4141 27.1462C25.5422 27.1805 25.6515 27.2643 25.7178 27.3792C25.7841 27.494 25.8021 27.6305 25.7678 27.7586L25.4326 29.0096C25.3611 29.2763 25.087 29.4346 24.8202 29.3632C24.5739 29.2971 24.42 29.0582 24.4543 28.812C23.3118 29.3213 22.1074 29.1201 21.3218 28.3345C21.1266 28.1393 21.1266 27.8227 21.3218 27.6274C21.5171 27.4322 21.8337 27.4322 22.029 27.6274C22.4935 28.0919 23.3123 28.281 24.1633 27.8466L23.9038 27.7771C23.637 27.7057 23.4787 27.4316 23.5501 27.1648Z" fill="#2B63D9"/>
</svg>
