<svg width="32" height="32" viewBox="0 0 32 32" fill="none" xmlns="http://www.w3.org/2000/svg">
<path d="M6.17709 21.7784L6.70746 22.3087L6.70776 22.3084L6.17709 21.7784ZM3.25 27C3.25 27.4142 3.58579 27.75 4 27.75C4.41421 27.75 4.75 27.4142 4.75 27H3.25ZM13.7373 18.8382H11.517V20.3382H13.7373V18.8382ZM11.517 18.8382C9.3386 18.8382 7.2028 19.69 5.64641 21.2484L6.70776 22.3084C7.97353 21.041 9.72345 20.3382 11.517 20.3382V18.8382ZM5.64672 21.2481C4.1038 22.7913 3.25 24.8364 3.25 27H4.75C4.75 25.2392 5.44225 23.5741 6.70746 22.3087L5.64672 21.2481ZM12.5909 5.25C9.46638 5.25 6.93182 7.80678 6.93182 10.942H8.43182C8.43182 8.62608 10.3039 6.75 12.5909 6.75V5.25ZM6.93182 10.942C6.93182 14.0774 9.46488 16.6324 12.5909 16.6324V15.1324C10.3021 15.1324 8.43182 13.2578 8.43182 10.942H6.93182ZM12.5909 16.6324C15.7173 16.6324 18.25 14.0754 18.25 10.9403H16.75C16.75 13.2564 14.8794 15.1324 12.5909 15.1324V16.6324ZM18.25 10.9403C18.25 7.80477 15.7151 5.25 12.5909 5.25V6.75C14.8782 6.75 16.75 8.62473 16.75 10.9403H18.25ZM15.756 19.2951C15.5657 19.2259 15.4215 19.1683 15.2813 19.1137C15.1458 19.061 15.0053 19.0076 14.8545 18.9641C14.5298 18.8705 14.2121 18.8382 13.7373 18.8382V20.3382C14.1401 20.3382 14.3024 20.366 14.4389 20.4054C14.5188 20.4284 14.6042 20.4598 14.7373 20.5116C14.8658 20.5616 15.0329 20.6283 15.244 20.7049L15.756 19.2951Z" fill="#2B63D9"/>
<g opacity="0.15">
<path d="M13.8409 7.25C11.1352 7.25 8.93184 9.46643 8.93184 12.192C8.93184 14.9176 11.1335 17.1324 13.8409 17.1324C16.5484 17.1324 18.75 14.9159 18.75 12.1903C18.75 9.46475 16.5467 7.25 13.8409 7.25Z" fill="#2B63D9"/>
<path d="M14.9873 20.8382H12.7671C10.781 20.8382 8.83819 21.6155 7.42711 23.0284C6.26352 24.1922 5.53333 25.6656 5.31734 27.253C5.24288 27.8002 5.69774 28.25 6.25003 28.25H19.75L17.5228 21.2819C16.72 20.9904 15.8649 20.8382 14.9873 20.8382Z" fill="#2B63D9"/>
</g>
<path d="M18.5 19.2V18.15C18.5 16.4103 19.7536 15 21.3 15C22.8464 15 24.1 16.4103 24.1 18.15V19.2" stroke="#2B63D9" stroke-width="1.5"/>
<path fill-rule="evenodd" clip-rule="evenodd" d="M16.4 19C15.6268 19 15 19.6268 15 20.4V27.6C15 28.3732 15.6268 29 16.4 29H26.6C27.3732 29 28 28.3732 28 27.6V20.4C28 19.6268 27.3732 19 26.6 19H16.4ZM21.5001 23.5238C20.9872 23.5238 20.5715 23.9395 20.5715 24.4524V25.4524C20.5715 25.9652 20.9872 26.3809 21.5001 26.3809C22.0129 26.3809 22.4286 25.9652 22.4286 25.4524V24.4524C22.4286 23.9395 22.0129 23.5238 21.5001 23.5238Z" fill="#2B63D9"/>
</svg>
