<svg width="37" height="28" viewBox="0 0 37 28" fill="none" xmlns="http://www.w3.org/2000/svg">
<path d="M10.6921 19.6063C10.6921 20.5531 10.4523 21.3936 9.97137 22.128C9.49192 22.8623 8.79854 23.4328 7.89275 23.8409C6.98696 24.2475 5.92641 24.4524 4.70806 24.4524C3.69151 24.4524 2.83882 24.3811 2.14999 24.2384C1.50972 24.1064 0.846682 23.8819 0.159371 23.5663C0.0653024 23.5208 6.10352e-05 23.4222 6.10352e-05 23.3175V20.2299C6.10352e-05 20.0372 0.19882 19.9158 0.373302 19.9977C1.04392 20.3149 1.7373 20.5682 2.45344 20.7594C3.3031 20.9855 4.08296 21.0993 4.79151 21.0993C5.40448 21.0993 5.85206 20.9931 6.13882 20.7806C6.42406 20.5682 6.56668 20.2951 6.56668 19.9613C6.56668 19.752 6.50903 19.5699 6.39523 19.4136C6.27992 19.2573 6.09634 19.098 5.84144 18.9387C5.58806 18.7794 4.90985 18.4517 3.80985 17.9571C2.81454 17.5049 2.06806 17.0664 1.57041 16.6416C1.07275 16.2168 0.704061 15.7297 0.464337 15.1805C0.224613 14.6313 0.104751 13.9804 0.104751 13.2278C0.104751 11.8213 0.616061 10.7259 1.6402 9.93844C2.66282 9.1525 4.0693 8.75802 5.85813 8.75802C7.3602 8.75802 8.8911 9.08878 10.4508 9.74878C10.5843 9.80492 10.6496 9.96271 10.5965 10.0962L9.52985 12.7863C9.47523 12.9244 9.31289 12.9851 9.17634 12.9244C7.85634 12.3463 6.7093 12.0565 5.73372 12.0565C5.19813 12.0565 4.8082 12.1506 4.56392 12.3387C4.31965 12.5268 4.19827 12.7605 4.19827 13.0382C4.19827 13.3371 4.35303 13.6056 4.66254 13.8423C4.97206 14.079 5.81261 14.5099 7.1842 15.1365C8.49965 15.7282 9.41303 16.364 9.92434 17.0422C10.4372 17.7219 10.6921 18.5761 10.6921 19.6063Z" fill="#0B233F"/>
<path d="M36.1938 19.6062C36.1938 20.5529 35.9541 21.3935 35.4731 22.1278C34.9937 22.8622 34.3003 23.4327 33.3945 23.8408C32.4887 24.2474 31.4282 24.4522 30.2098 24.4522C29.1933 24.4522 28.3406 24.3809 27.6518 24.2383C27.0115 24.1063 26.3484 23.8818 25.6611 23.5662C25.5655 23.5222 25.5003 23.4236 25.5003 23.3189V20.2313C25.5003 20.0386 25.6991 19.9172 25.8735 19.9991C26.5442 20.3162 27.2375 20.5696 27.9537 20.7608C28.8033 20.9869 29.5832 21.1007 30.2918 21.1007C30.9047 21.1007 31.3523 20.9945 31.6391 20.782C31.9243 20.5696 32.0669 20.2965 32.0669 19.9627C32.0669 19.7534 32.0093 19.5713 31.8955 19.415C31.7802 19.2587 31.5966 19.0994 31.3417 18.9401C31.0883 18.7808 30.4101 18.4531 29.3101 17.9585C28.3148 17.5063 27.5683 17.0678 27.0706 16.643C26.573 16.2182 26.2043 15.7311 25.9646 15.1819C25.7249 14.6327 25.605 13.9818 25.605 13.2292C25.605 11.8227 26.1163 10.7273 27.1404 9.93983C28.1631 9.1539 29.5695 8.75942 31.3584 8.75942C32.8604 8.75942 34.3913 9.09018 35.9511 9.75018C36.0846 9.80632 36.1498 9.96411 36.0967 10.0976L35.0301 12.7877C34.9755 12.9258 34.8131 12.9865 34.6766 12.9258C33.3566 12.3477 32.2095 12.0579 31.234 12.0579C30.6984 12.0579 30.3084 12.152 30.0642 12.3401C29.8199 12.5282 29.6985 12.7619 29.6985 13.0396C29.6985 13.3385 29.8533 13.607 30.1628 13.8437C30.4723 14.0804 31.3129 14.5113 32.6844 15.1379C33.9999 15.7296 34.9133 16.3653 35.4246 17.0436C35.9389 17.7218 36.1938 18.576 36.1938 19.6062Z" fill="#0B233F"/>
<path d="M22.9467 19.9265C22.2745 20.2436 21.5796 20.4985 20.8635 20.6897C20.0169 20.9157 19.2385 21.028 18.53 21.028C17.9185 21.028 17.4709 20.9218 17.1857 20.7094C16.9733 20.5516 16.8398 20.3589 16.7867 20.1328C16.7851 20.1207 16.7821 20.1116 16.7821 20.0995C16.7745 20.063 16.773 20.0236 16.77 19.9857V15.6752V12.096V9.62291C16.77 9.45146 16.6349 9.30732 16.4635 9.30125C15.6867 9.26787 15.0039 9.19049 14.397 9.06608C13.9707 8.97808 13.5352 8.8567 13.0937 8.70194C12.8843 8.62912 12.6446 8.78387 12.6446 9.00539V9.23298V9.23146V15.7374V20.3498C12.6446 21.7411 12.9465 22.7744 13.5534 23.445C14.1588 24.1171 15.148 24.4524 16.5181 24.4524C16.5181 24.4524 20.1898 24.5693 22.3686 23.8106H22.3701C22.3701 23.8106 22.3898 23.803 22.4232 23.7909C22.4672 23.7757 22.5097 23.759 22.5522 23.7424C22.7434 23.6695 23.0347 23.5557 23.1576 23.4859C23.2531 23.4419 23.3138 23.3448 23.3138 23.2401V20.1601C23.3123 19.9735 23.1166 19.8461 22.9467 19.9265Z" fill="#0B233F"/>
<path d="M35.2956 6.32276H0.898207C0.402069 6.32276 0 5.92069 0 5.42455V3.89821C0 3.40207 0.402069 3 0.898207 3H35.2971C35.7932 3 36.1953 3.40207 36.1953 3.89821V5.42607C36.1938 5.92069 35.7917 6.32276 35.2956 6.32276Z" fill="#E96A6A"/>
</svg>
