<svg width="254" height="34" viewBox="0 0 254 34" fill="none" xmlns="http://www.w3.org/2000/svg">
<path d="M202.97 23.2843C202.97 24.2334 202.73 25.0761 202.248 25.8122C201.767 26.5484 201.072 27.1204 200.163 27.5295C199.255 27.9372 198.191 28.1425 196.97 28.1425C195.95 28.1425 195.095 28.071 194.405 27.928C193.764 27.7957 193.098 27.5706 192.409 27.2557C192.313 27.2116 192.247 27.1127 192.247 27.0078V23.9125C192.247 23.7193 192.447 23.5976 192.622 23.6797C193.294 23.9976 193.989 24.2516 194.707 24.4433C195.559 24.6699 196.341 24.784 197.053 24.784C197.668 24.784 198.117 24.6775 198.404 24.4646C198.691 24.2517 198.834 23.9779 198.834 23.6432C198.834 23.4333 198.776 23.2508 198.662 23.0941C198.546 22.9375 198.362 22.7778 198.106 22.618C197.852 22.4583 197.172 22.1298 196.069 21.6339C195.071 21.1807 194.323 20.7411 193.823 20.3152C193.324 19.8893 192.955 19.401 192.714 18.8504C192.474 18.2998 192.354 17.6472 192.354 16.8928C192.354 15.4828 192.867 14.3846 193.893 13.5952C194.919 12.8073 196.329 12.4133 198.123 12.4133C199.629 12.4133 201.164 12.7449 202.728 13.4066C202.862 13.4628 202.928 13.621 202.874 13.7549L201.805 16.4517C201.75 16.5901 201.587 16.651 201.45 16.5901C200.127 16.0106 198.977 15.7201 197.998 15.7201C197.461 15.7201 197.07 15.8144 196.825 16.003C196.58 16.1916 196.459 16.4258 196.459 16.7042C196.459 17.0038 196.614 17.2731 196.924 17.5104C197.235 17.7476 198.077 18.1796 199.453 18.8078C200.772 19.401 201.688 20.0383 202.2 20.7182C202.715 21.3966 202.97 22.2515 202.97 23.2843Z" fill="#0B233F"/>
<path d="M212.216 28.1409C211.615 28.1409 211.078 28.0405 210.603 27.8428C210.128 27.6435 209.657 27.2861 209.19 26.7705H209.001C209.126 27.6009 209.19 28.1166 209.19 28.3204V32.8197C209.19 32.9657 209.071 33.0843 208.925 33.0843H205.36C205.214 33.0843 205.096 32.9657 205.096 32.8197V16.3391C205.096 16.1931 205.214 16.0744 205.36 16.0744H208.243C208.353 16.0744 208.452 16.1413 208.49 16.2448L209.001 17.5818H209.19C210.214 16.0409 211.764 15.5375 213.838 16.0714C213.868 16.079 213.898 16.0912 213.926 16.1064C215.674 17.1148 216.55 19.0724 216.55 21.9776C216.55 23.8896 216.161 25.3954 215.383 26.4936C214.606 27.5918 213.549 28.1409 212.216 28.1409ZM210.845 19.077C210.244 19.077 209.824 19.2914 209.584 19.7204C209.342 20.1493 209.213 20.7866 209.191 21.6308V21.9548C209.191 22.9739 209.327 23.7101 209.599 24.1634C209.871 24.6166 210.3 24.8448 210.886 24.8448C211.409 24.8448 211.79 24.6197 212.027 24.1695C212.264 23.7192 212.383 22.9739 212.383 21.935C212.383 20.9159 212.264 20.1858 212.027 19.7417C211.79 19.2991 211.396 19.077 210.845 19.077Z" fill="#0B233F"/>
<path d="M226.785 27.9325C226.684 27.9325 226.593 27.8763 226.548 27.7865L225.836 26.3628H225.752C225.2 27.0473 224.638 27.5143 224.066 27.7652C223.494 28.0162 222.755 28.1425 221.846 28.1425C220.73 28.1425 219.85 27.8078 219.208 27.137C218.566 26.4678 218.245 25.5247 218.245 24.3109C218.245 23.0484 218.685 22.1084 219.564 21.4894C220.444 20.8718 221.717 20.525 223.386 20.4474L225.364 20.3851V20.2178C225.364 19.2413 224.883 18.753 223.919 18.753C223.106 18.753 222.088 19.0116 220.865 19.5272C220.733 19.5835 220.574 19.5272 220.517 19.3949L219.541 17.1696C219.484 17.0373 219.537 16.8791 219.668 16.8182C221.011 16.1824 222.68 15.8645 224.672 15.8645C226.193 15.8645 227.371 16.2417 228.206 16.9947C229.04 17.7476 229.458 18.8017 229.458 20.1554V27.6679C229.458 27.8139 229.339 27.9325 229.193 27.9325H226.785ZM223.585 25.2525C224.081 25.2525 224.504 25.0958 224.857 24.7809C225.21 24.4676 225.385 24.0584 225.385 23.5565V22.6347L224.443 22.6773C223.097 22.726 222.423 23.2218 222.423 24.1634C222.423 24.8904 222.811 25.2525 223.585 25.2525Z" fill="#0B233F"/>
<path d="M237.217 28.1409C235.277 28.1409 233.806 27.6177 232.805 26.5712C231.804 25.5247 231.302 24.0204 231.302 22.0598C231.302 20.0915 231.844 18.5674 232.924 17.486C234.006 16.4045 235.545 15.8645 237.541 15.8645C238.828 15.8645 240.047 16.1277 241.194 16.654C241.323 16.7133 241.384 16.8699 241.331 17.0023L240.321 19.5409C240.266 19.6778 240.106 19.7402 239.969 19.6839C239.569 19.5166 239.197 19.3797 238.85 19.2732C238.431 19.1439 237.995 19.08 237.541 19.08C236.878 19.08 236.365 19.3386 236.002 19.8542C235.64 20.3714 235.457 21.1 235.457 22.0415C235.457 23.9398 236.158 24.8889 237.561 24.8889C238.618 24.8889 239.638 24.6182 240.621 24.0767C240.799 23.9778 241.016 24.0964 241.016 24.3003V26.9469C241.016 27.0412 240.969 27.1309 240.888 27.1796C239.863 27.82 238.638 28.1409 237.217 28.1409Z" fill="#0B233F"/>
<path d="M248.785 28.141C246.81 28.141 245.276 27.6162 244.184 26.5652C243.091 25.5141 242.545 24.0205 242.545 22.0796C242.545 20.0764 243.052 18.5401 244.064 17.4693C245.075 16.3985 246.521 15.8631 248.398 15.8631C250.184 15.8631 251.566 16.3285 252.539 17.2609C253.513 18.1918 254 19.5349 254 21.2856V22.8417C254 22.9877 253.881 23.1063 253.735 23.1063H246.682C246.709 23.7695 246.953 24.2897 247.409 24.6654C247.867 25.0426 248.489 25.2312 249.277 25.2312C249.996 25.2312 250.657 25.1628 251.261 25.0274C251.757 24.9164 252.287 24.7399 252.851 24.4981C253.026 24.4235 253.224 24.5437 253.224 24.7323V27.1006C253.224 27.204 253.163 27.3029 253.07 27.347C252.477 27.6345 251.864 27.8353 251.236 27.9509C250.551 28.0786 249.734 28.141 248.785 28.141ZM248.544 18.6481C248.063 18.6481 247.66 18.8002 247.335 19.1029C247.009 19.4071 246.82 19.8832 246.764 20.5312H250.282C250.268 19.9593 250.105 19.5014 249.795 19.1592C249.484 18.8185 249.068 18.6481 248.544 18.6481Z" fill="#0B233F"/>
<path d="M60.1812 8.57265H1.99172C0.893258 8.57265 0.00170898 7.68132 0.00170898 6.58312V1.98953C0.00170898 0.89133 0.893258 0 1.99172 0H60.1797C61.2782 0 62.1697 0.89133 62.1697 1.98953V6.58312C62.1713 7.68132 61.2797 8.57265 60.1812 8.57265Z" fill="#E96A6A"/>
<path d="M8.11688 5.61987C8.11688 6.09139 7.94648 6.45797 7.60416 6.72263C7.26185 6.98729 6.79781 7.1181 6.21207 7.1181C5.57612 7.1181 5.08774 7.03596 4.74695 6.87321V6.2724C4.96603 6.36519 5.20642 6.43819 5.46506 6.49143C5.7237 6.54466 5.98082 6.57205 6.23489 6.57205C6.65024 6.57205 6.96213 6.49296 7.1736 6.3363C7.38356 6.17811 7.48854 5.95906 7.48854 5.67919C7.48854 5.49362 7.4505 5.34152 7.37747 5.22288C7.30292 5.10423 7.17817 4.99471 7.00321 4.89432C6.82824 4.79393 6.56352 4.67986 6.20598 4.55361C5.70696 4.37565 5.35095 4.16423 5.13795 3.91934C4.92495 3.67446 4.81693 3.35655 4.81693 2.9626C4.81693 2.55039 4.97212 2.22185 5.28249 1.97696C5.59285 1.73207 6.00364 1.61038 6.51331 1.61038C7.0458 1.61038 7.5357 1.70774 7.983 1.90395L7.78825 2.44696C7.34552 2.26139 6.91648 2.16861 6.4981 2.16861C6.16795 2.16861 5.91083 2.24011 5.72522 2.38156C5.5396 2.52302 5.4468 2.71924 5.4468 2.97173C5.4468 3.1573 5.48179 3.30941 5.54873 3.42805C5.6172 3.54669 5.73282 3.65467 5.89562 3.75354C6.05841 3.8524 6.3064 3.96193 6.64111 4.08209C7.20251 4.28287 7.58895 4.49733 7.80043 4.72701C8.0119 4.95517 8.11688 5.25329 8.11688 5.61987Z" fill="white"/>
<path d="M10.7125 7.04261V1.687H11.3347V7.04261H10.7125Z" fill="white"/>
<path d="M18.4914 7.04257H17.7809L14.8537 2.54787H14.8248C14.8643 3.07568 14.8826 3.55938 14.8826 3.99896V7.0441H14.3075V1.68695H15.0104L17.9315 6.16342H17.9604C17.9558 6.09801 17.9437 5.88506 17.9269 5.52761C17.9102 5.17016 17.9041 4.91464 17.9087 4.75949V1.68542H18.4914V7.04257Z" fill="white"/>
<path d="M23.8224 4.23631H25.6435V6.84035C25.3606 6.93161 25.0715 6.99854 24.7794 7.04569C24.4857 7.09284 24.1465 7.11567 23.7616 7.11567C22.9506 7.11567 22.3193 6.87382 21.8674 6.39165C21.4155 5.90947 21.1888 5.23411 21.1888 4.36407C21.1888 3.80736 21.3014 3.31911 21.5251 2.90082C21.7487 2.48101 22.0697 2.16159 22.4912 1.94104C22.9111 1.72049 23.404 1.60944 23.9685 1.60944C24.5405 1.60944 25.073 1.71441 25.566 1.92431L25.324 2.47341C24.8402 2.26807 24.3747 2.16615 23.9274 2.16615C23.2747 2.16615 22.765 2.36084 22.3984 2.74871C22.0317 3.13658 21.8491 3.67503 21.8491 4.36407C21.8491 5.08657 22.0256 5.63568 22.3786 6.00834C22.7316 6.38252 23.2504 6.5696 23.9335 6.5696C24.3047 6.5696 24.6683 6.52701 25.0213 6.44184V4.79302H23.8239L23.8224 4.23631Z" fill="white"/>
<path d="M31.7977 7.04257L31.1313 5.33901H28.9846L28.3258 7.04257H27.696L29.8138 1.66415H30.3387L32.4458 7.04257H31.7977ZM30.9366 4.77927L30.3128 3.1198C30.2322 2.9099 30.15 2.65131 30.0633 2.3471C30.0101 2.58134 29.9325 2.83841 29.8321 3.1198L29.2022 4.77927H30.9366Z" fill="white"/>
<path d="M38.0782 3.24759C38.0782 3.79061 37.8926 4.20737 37.5229 4.49789C37.1532 4.78993 36.6237 4.93596 35.9345 4.93596H35.3046V7.04261H34.6824V1.687H36.0714C37.4087 1.687 38.0782 2.2072 38.0782 3.24759ZM35.3046 4.40054H35.866C36.4183 4.40054 36.8169 4.31234 37.0634 4.13286C37.3099 3.95489 37.4331 3.66893 37.4331 3.27498C37.4331 2.92058 37.3175 2.65742 37.0847 2.48402C36.8519 2.31063 36.4913 2.22393 35.9999 2.22393H35.3031V4.40054H35.3046Z" fill="white"/>
<path d="M45.3504 4.35644C45.3504 5.21431 45.1344 5.88813 44.7008 6.3779C44.2672 6.8692 43.6647 7.1141 42.8918 7.1141C42.1022 7.1141 41.4936 6.87226 41.0646 6.39008C40.6355 5.90791 40.421 5.22647 40.421 4.34731C40.421 3.47575 40.6355 2.79889 41.0661 2.31976C41.4951 1.83911 42.1067 1.6003 42.8979 1.6003C43.6677 1.6003 44.2687 1.84518 44.7008 2.33344C45.1344 2.82322 45.3504 3.49705 45.3504 4.35644ZM41.0813 4.35644C41.0813 5.08198 41.235 5.6326 41.5453 6.00678C41.8542 6.38248 42.303 6.56956 42.8918 6.56956C43.4851 6.56956 43.934 6.38248 44.2367 6.0083C44.5395 5.63412 44.6916 5.0835 44.6916 4.35644C44.6916 3.63547 44.541 3.0894 44.2398 2.71675C43.9385 2.34409 43.4912 2.15852 42.8994 2.15852C42.306 2.15852 41.8542 2.34562 41.5453 2.72132C41.2365 3.09701 41.0813 3.64155 41.0813 4.35644Z" fill="white"/>
<path d="M48.6686 4.81581V7.04261H48.0464V1.687H49.5161C50.1733 1.687 50.6587 1.81324 50.9721 2.06421C51.2855 2.31519 51.4422 2.69394 51.4422 3.20045C51.4422 3.90926 51.0831 4.38686 50.365 4.63631L51.8195 7.04261H51.0831L49.7854 4.81581H48.6686ZM48.6686 4.28039H49.5222C49.9618 4.28039 50.2844 4.1937 50.4898 4.01878C50.6952 3.84386 50.7971 3.58223 50.7971 3.23239C50.7971 2.87798 50.6921 2.62244 50.4837 2.46577C50.2753 2.3091 49.939 2.23154 49.478 2.23154H48.6686V4.28039Z" fill="white"/>
<path d="M57.1719 7.04261H54.1854V1.687H57.1719V2.24066H54.8091V3.96705H57.0304V4.51614H54.8091V6.48744H57.1719V7.04261Z" fill="white"/>
<path d="M109.776 28.1166C107.801 28.1166 106.268 27.5919 105.174 26.5408C104.081 25.4913 103.535 23.9961 103.535 22.0552C103.535 20.052 104.042 18.5157 105.054 17.4434C106.065 16.3726 107.511 15.8372 109.388 15.8372C111.174 15.8372 112.556 16.3026 113.529 17.2335C114.503 18.1644 114.99 19.5075 114.99 21.2582V22.8142C114.99 22.9603 114.871 23.0789 114.725 23.0789H107.672C107.699 23.7421 107.943 24.2623 108.399 24.638C108.857 25.0152 109.479 25.2038 110.268 25.2038C110.987 25.2038 111.647 25.1354 112.251 25C112.747 24.8874 113.277 24.711 113.841 24.4707C114.016 24.3961 114.214 24.5163 114.214 24.7064V27.0747C114.214 27.1781 114.153 27.277 114.06 27.3211C113.467 27.6086 112.854 27.8094 112.226 27.925C111.542 28.0543 110.725 28.1166 109.776 28.1166ZM109.536 18.6237C109.055 18.6237 108.652 18.7758 108.326 19.0785C108.001 19.3827 107.812 19.8588 107.756 20.5068H111.273C111.259 19.9349 111.097 19.477 110.786 19.1348C110.476 18.7941 110.059 18.6237 109.536 18.6237Z" fill="#2B63D9"/>
<path d="M125.069 27.9083C124.969 27.9083 124.878 27.8521 124.832 27.7623L124.12 26.3386H124.036C123.484 27.0231 122.923 27.49 122.351 27.741C121.779 27.992 121.038 28.1182 120.131 28.1182C119.014 28.1182 118.135 27.7836 117.493 27.1128C116.851 26.4436 116.53 25.5005 116.53 24.2867C116.53 23.0242 116.969 22.0842 117.849 21.4652C118.728 20.8476 120.002 20.5008 121.671 20.4232L123.648 20.3609V20.1936C123.648 19.217 123.168 18.7288 122.203 18.7288C121.391 18.7288 120.373 18.9874 119.15 19.503C119.017 19.5593 118.859 19.503 118.801 19.3707L117.826 17.1454C117.768 17.013 117.821 16.8549 117.952 16.794C119.296 16.1582 120.965 15.8403 122.958 15.8403C124.479 15.8403 125.657 16.2175 126.492 16.9704C127.326 17.7234 127.742 18.7775 127.742 20.1312V27.6437C127.742 27.7897 127.624 27.9083 127.478 27.9083H125.069ZM121.87 25.2282C122.366 25.2282 122.789 25.0716 123.142 24.7567C123.495 24.4434 123.67 24.0342 123.67 23.5323V22.6105L122.728 22.6531C121.381 22.7018 120.707 23.1976 120.707 24.1392C120.707 24.8647 121.095 25.2282 121.87 25.2282Z" fill="#2B63D9"/>
<path d="M137.562 15.8387C137.918 15.8387 138.257 15.8661 138.578 15.9224L138.808 15.965L138.47 19.5273C138.455 19.6794 138.318 19.795 138.166 19.7722C137.866 19.725 137.493 19.7022 137.049 19.7022C136.156 19.7022 135.506 19.906 135.102 20.3152C134.697 20.7244 134.495 21.3115 134.495 22.0796V27.6451C134.495 27.7912 134.376 27.9098 134.23 27.9098H130.665C130.519 27.9098 130.4 27.7912 130.4 27.6451V16.3148C130.4 16.1688 130.519 16.0502 130.665 16.0502H133.258C133.372 16.0502 133.472 16.1232 133.509 16.2296L134.087 17.9439H134.286C134.628 17.3157 135.105 16.8076 135.715 16.4213C136.323 16.0319 136.939 15.8387 137.562 15.8387Z" fill="#2B63D9"/>
<path d="M148.621 27.9083C148.475 27.9083 148.356 27.7896 148.356 27.6436V21.4392C148.356 20.6513 148.242 20.0566 148.015 19.6551C147.789 19.2535 147.423 19.0527 146.921 19.0527C146.231 19.0527 145.732 19.3295 145.424 19.8802C145.117 20.4323 144.963 21.3769 144.963 22.7169V27.6451C144.963 27.7912 144.845 27.9098 144.699 27.9098H141.134C140.988 27.9098 140.869 27.7912 140.869 27.6451V16.3133C140.869 16.1673 140.988 16.0486 141.134 16.0486H143.771C143.883 16.0486 143.984 16.1201 144.02 16.2251L144.47 17.5134H144.711C145.059 16.9552 145.543 16.5369 146.161 16.257C146.778 15.9772 147.489 15.8387 148.292 15.8387C149.605 15.8387 150.625 16.219 151.355 16.9795C152.084 17.7401 152.449 18.8109 152.449 20.1935V27.6436C152.449 27.7896 152.33 27.9083 152.184 27.9083H148.621Z" fill="#2B63D9"/>
<path d="M169.807 27.9083C169.66 27.9083 169.542 27.7896 169.542 27.6436V21.4392C169.542 20.6513 169.428 20.0566 169.201 19.6551C168.974 19.2535 168.609 19.0527 168.107 19.0527C167.416 19.0527 166.917 19.3295 166.61 19.8802C166.303 20.4323 166.149 21.3769 166.149 22.7169V27.6451C166.149 27.7912 166.03 27.9098 165.884 27.9098H162.32C162.174 27.9098 162.055 27.7912 162.055 27.6451V16.3133C162.055 16.1673 162.174 16.0486 162.32 16.0486H164.956C165.069 16.0486 165.169 16.1201 165.206 16.2251L165.656 17.5134H165.897C166.245 16.9552 166.729 16.5369 167.346 16.257C167.964 15.9772 168.675 15.8387 169.478 15.8387C170.791 15.8387 171.81 16.219 172.541 16.9795C173.269 17.7401 173.634 18.8109 173.634 20.1935V27.6436C173.634 27.7896 173.516 27.9083 173.37 27.9083H169.807Z" fill="#2B63D9"/>
<path d="M187.613 16.0486V17.8419C187.613 17.9529 187.545 18.0518 187.44 18.0898L186.259 18.5234C186.115 18.5766 186.055 18.7378 186.113 18.8808C186.255 19.223 186.325 19.6094 186.325 20.0353C186.325 21.313 185.876 22.3032 184.98 23.0089C184.082 23.7132 182.745 24.0661 180.965 24.0661C180.525 24.0661 180.175 24.0387 179.918 23.9824C179.82 24.1634 179.772 24.3353 179.772 24.495C179.772 24.6973 179.936 24.8524 180.265 24.9604C180.593 25.0684 181.022 25.1232 181.552 25.1232H183.521C186.18 25.1232 187.51 26.2427 187.51 28.4832C187.51 29.9282 186.894 31.0523 185.661 31.8539C184.429 32.6555 182.701 33.057 180.473 33.057C178.79 33.057 177.494 32.7756 176.583 32.2143C175.672 31.6531 175.217 30.8439 175.217 29.7913C175.217 28.3752 176.096 27.461 177.855 27.0488C177.493 26.8952 177.176 26.6473 176.907 26.305C176.638 25.9628 176.504 25.6236 176.504 25.289C176.504 24.9194 176.606 24.5923 176.807 24.3109C176.966 24.0874 177.264 23.8303 177.7 23.5383C177.853 23.4348 177.855 23.2006 177.697 23.1048C177.258 22.8386 176.899 22.4781 176.624 22.0233C176.271 21.4438 176.096 20.7395 176.096 19.909C176.096 18.6177 176.536 17.6168 177.415 16.905C178.294 16.1931 179.551 15.8372 181.184 15.8372C181.4 15.8372 181.774 15.8615 182.303 15.9102C182.822 15.9573 183.207 16.003 183.46 16.044C183.472 16.0456 183.484 16.0471 183.496 16.0471L187.613 16.0486ZM178.672 29.3852C178.672 29.7198 178.853 29.9906 179.216 30.1959C179.58 30.4012 180.064 30.5047 180.672 30.5047C181.663 30.5047 182.457 30.3815 183.053 30.1335C183.65 29.8856 183.95 29.5662 183.95 29.1753C183.95 28.8619 183.769 28.6399 183.405 28.5106C183.041 28.3813 182.523 28.3174 181.845 28.3174H180.243C179.804 28.3174 179.431 28.4208 179.128 28.6262C178.822 28.8315 178.672 29.0855 178.672 29.3852ZM179.959 19.9319C179.959 21.1457 180.382 21.7525 181.225 21.7525C181.616 21.7525 181.917 21.602 182.13 21.3023C182.343 21.0027 182.449 20.5524 182.449 19.9516C182.449 18.7226 182.04 18.1096 181.225 18.1096C180.382 18.1111 179.959 18.7181 179.959 19.9319Z" fill="#2B63D9"/>
<path fill-rule="evenodd" clip-rule="evenodd" d="M155.094 17.3948V27.6406C155.094 27.7866 155.213 27.9052 155.359 27.9052H158.924C159.07 27.9052 159.189 27.7866 159.189 27.6406V17.4069C158.606 17.7963 157.905 18.023 157.151 18.023C156.389 18.0245 155.682 17.7918 155.094 17.3948Z" fill="#2B63D9"/>
<path d="M159.222 14.3679C159.222 15.5072 158.299 16.432 157.158 16.432C156.018 16.432 155.094 15.5087 155.094 14.3679C155.094 13.2286 156.018 12.3054 157.158 12.3054C158.297 12.3039 159.222 13.2286 159.222 14.3679Z" fill="#2B63D9"/>
<path d="M101.424 23.579C100.75 23.8969 100.053 24.1525 99.3346 24.3441C98.4857 24.5707 97.7052 24.6833 96.9947 24.6833C96.3816 24.6833 95.9328 24.5768 95.6467 24.3639C95.4337 24.2057 95.2999 24.0125 95.2466 23.7859C95.2451 23.7737 95.242 23.7646 95.242 23.7524C95.2344 23.7159 95.2329 23.6764 95.2299 23.6384V19.317V15.7289V13.2496C95.2299 13.0777 95.0945 12.9332 94.9225 12.9271C94.1436 12.8936 93.4589 12.8161 92.8504 12.6913C92.4229 12.6031 91.9862 12.4814 91.5435 12.3263C91.3335 12.2533 91.0931 12.4084 91.0931 12.6305V12.8587V12.8571V19.3794V24.0034C91.0931 25.3982 91.3959 26.434 92.0045 27.1063C92.6115 27.7802 93.6035 28.1163 94.9773 28.1163C94.9773 28.1163 98.6591 28.2335 100.844 27.4729H100.845C100.845 27.4729 100.865 27.4653 100.899 27.4532C100.943 27.4379 100.985 27.4212 101.028 27.4045C101.22 27.3315 101.512 27.2174 101.635 27.1474C101.731 27.1033 101.792 27.006 101.792 26.901V23.8133C101.79 23.6247 101.594 23.4984 101.424 23.579Z" fill="#2B63D9"/>
<path d="M10.7229 23.2567C10.7229 24.2059 10.4825 25.0485 10.0003 25.7847C9.51949 26.5209 8.8242 27.0928 7.91592 27.502C7.00763 27.9096 5.94416 28.115 4.72247 28.115C3.70312 28.115 2.84809 28.0435 2.15737 27.9005C1.51533 27.7682 0.85047 27.5431 0.16127 27.2267C0.0654208 27.1826 0 27.0837 0 26.9787V23.8834C0 23.6902 0.199305 23.5685 0.374268 23.6507C1.04673 23.9686 1.74202 24.2226 2.46013 24.4143C3.31212 24.6409 4.09413 24.755 4.80463 24.755C5.41928 24.755 5.86809 24.6485 6.15564 24.4355C6.44167 24.2226 6.58468 23.9488 6.58468 23.6142C6.58468 23.4043 6.52687 23.2217 6.41276 23.0651C6.29865 22.9084 6.11304 22.7487 5.85744 22.589C5.60337 22.4293 4.9233 22.1007 3.82027 21.6049C2.82222 21.1516 2.07369 20.712 1.57466 20.2861C1.07564 19.8602 0.705936 19.372 0.465553 18.8213C0.225169 18.2707 0.104978 17.6182 0.104978 16.8637C0.104978 15.4537 0.617694 14.3555 1.64465 13.5661C2.67008 12.7782 4.08043 12.3827 5.87418 12.3827C7.38038 12.3827 8.91549 12.7143 10.4795 13.376C10.6134 13.4322 10.6788 13.5904 10.6256 13.7243L9.556 16.4211C9.50123 16.5595 9.33844 16.6204 9.20151 16.5595C7.87788 15.98 6.72769 15.6895 5.74942 15.6895C5.21236 15.6895 4.82136 15.7838 4.57641 15.9724C4.33147 16.161 4.20975 16.3953 4.20975 16.6736C4.20975 16.9733 4.36494 17.2425 4.67531 17.4798C4.98567 17.7171 5.82854 18.149 7.2039 18.7772C8.52296 19.3704 9.43885 20.0078 9.95157 20.6877C10.4673 21.3676 10.7229 22.2239 10.7229 23.2567Z" fill="#0B233F"/>
<path d="M31.3913 27.9051L30.8786 26.4296H30.6382C30.2959 26.9742 29.8197 27.3909 29.2096 27.6799C28.598 27.9689 27.8814 28.115 27.0584 28.115C25.753 28.115 24.7382 27.7362 24.011 26.9787C23.2852 26.2213 22.9216 25.152 22.9216 23.7709V16.3101C22.9216 16.1641 23.0403 16.0454 23.1864 16.0454H26.751C26.8971 16.0454 27.0158 16.1641 27.0158 16.3101V22.5251C27.0158 23.2993 27.1253 23.8865 27.3459 24.2834C27.5665 24.6804 27.9271 24.8797 28.4292 24.8797C29.1336 24.8797 29.6372 24.6013 29.9369 24.0477C30.2366 23.4925 30.3872 22.5555 30.3872 21.2368V16.3086C30.3872 16.1625 30.5059 16.0439 30.6519 16.0439H34.2166C34.3627 16.0439 34.4813 16.1625 34.4813 16.3086V27.6389C34.4813 27.7849 34.3627 27.9035 34.2166 27.9035L31.3913 27.9051Z" fill="#0B233F"/>
<path d="M40.9382 28.1135C40.0939 28.1135 39.3544 27.8732 38.7231 27.391C38.0917 26.9104 37.6033 26.2016 37.2579 25.2661C36.9126 24.3307 36.7391 23.2386 36.7391 21.9898C36.7391 20.0641 37.1271 18.5568 37.9015 17.4677C38.6759 16.3786 39.7409 15.8341 41.0949 15.8341C41.7583 15.8341 42.3395 15.9664 42.8385 16.2311C43.3375 16.4957 43.7924 16.9429 44.2047 17.5711H44.2884C44.156 16.6433 44.0891 15.7154 44.0891 14.7876V12.0406C44.0891 11.8946 44.2078 11.7759 44.3538 11.7759H47.9489C48.095 11.7759 48.2136 11.8946 48.2136 12.0406V27.639C48.2136 27.785 48.095 27.9036 47.9489 27.9036H45.2758C45.1815 27.9036 45.0947 27.8534 45.0476 27.7728L44.2443 26.4069H44.0876C43.3847 27.5447 42.3349 28.1135 40.9382 28.1135ZM42.6133 24.8798C43.269 24.8798 43.7316 24.6744 44.0008 24.2622C44.2686 23.85 44.4147 23.2157 44.436 22.3564V22.0324C44.436 20.9859 44.2854 20.2406 43.9856 19.798C43.6859 19.3553 43.2143 19.1333 42.5722 19.1333C42.0352 19.1333 41.6168 19.3857 41.3216 19.8923C41.025 20.3988 40.8774 21.1182 40.8774 22.0537C40.8774 22.9754 41.028 23.6766 41.3277 24.1573C41.6259 24.6394 42.055 24.8798 42.6133 24.8798Z" fill="#0B233F"/>
<path d="M56.5373 28.1134C54.5625 28.1134 53.0289 27.5887 51.9365 26.5376C50.8442 25.4866 50.298 23.9929 50.298 22.052C50.298 20.0488 50.8046 18.5126 51.8163 17.4402C52.8281 16.3679 54.2734 15.834 56.1509 15.834C57.937 15.834 59.3184 16.2994 60.2921 17.2318C61.2658 18.1627 61.7527 19.5058 61.7527 21.2565V22.8126C61.7527 22.9586 61.634 23.0772 61.488 23.0772H54.4347C54.4621 23.7404 54.7055 24.2606 55.1619 24.6363C55.6199 25.0135 56.2421 25.2021 57.0302 25.2021C57.7483 25.2021 58.4102 25.1337 59.0142 24.9983C59.5101 24.8873 60.0396 24.7093 60.604 24.469C60.779 24.3945 60.9768 24.5146 60.9768 24.7032V27.0715C60.9768 27.1749 60.9159 27.2738 60.8231 27.3179C60.2298 27.6054 59.6166 27.8062 58.9883 27.9218C58.3021 28.0511 57.4867 28.1134 56.5373 28.1134ZM56.2969 18.619C55.8161 18.619 55.413 18.7711 55.0874 19.0738C54.7618 19.378 54.5731 19.8541 54.5169 20.5021H58.0344C58.0207 19.9302 57.8579 19.4723 57.5475 19.1301C57.2371 18.7909 56.8203 18.619 56.2969 18.619Z" fill="#0B233F"/>
<path d="M71.8686 27.9051C71.7226 27.9051 71.6039 27.7864 71.6039 27.6404V21.4361C71.6039 20.6481 71.4898 20.0534 71.2631 19.6519C71.0364 19.2503 70.6713 19.0495 70.1692 19.0495C69.4785 19.0495 68.9794 19.3248 68.6721 19.877C68.3648 20.4291 68.2111 21.3737 68.2111 22.7137V27.642C68.2111 27.788 68.0925 27.9066 67.9464 27.9066H64.3817C64.2357 27.9066 64.117 27.788 64.117 27.642V16.3101C64.117 16.1641 64.2357 16.0455 64.3817 16.0455H67.0183C67.1309 16.0455 67.2313 16.1169 67.2679 16.2219L67.7197 17.5102H67.9601C68.3085 16.952 68.7923 16.5337 69.41 16.2538C70.0277 15.974 70.7382 15.8355 71.5415 15.8355C72.8545 15.8355 73.8738 16.2158 74.6041 16.9763C75.3329 17.7369 75.698 18.8077 75.698 20.1903V27.6404C75.698 27.7864 75.5793 27.9051 75.4333 27.9051H71.8686Z" fill="#0B233F"/>
<path d="M84.294 24.8798C84.7595 24.8798 85.3027 24.7825 85.9219 24.5893C86.0938 24.536 86.2718 24.6562 86.2718 24.8357V27.2755C86.2718 27.3834 86.2033 27.4854 86.1029 27.5264C85.613 27.7272 85.1429 27.8732 84.6971 27.963C84.1981 28.0649 83.6139 28.1151 82.9429 28.1151C81.5676 28.1151 80.5771 27.7789 79.9701 27.1051C79.3631 26.4313 79.0588 25.3969 79.0588 24.0021V19.3782C79.0588 19.2321 78.9401 19.1135 78.7941 19.1135H77.8888C77.7428 19.1135 77.6241 18.9949 77.6241 18.8488V17.5864C77.6241 17.5012 77.6652 17.4206 77.7367 17.3704L79.3844 16.2052C79.4239 16.1763 79.4559 16.1383 79.4756 16.0927L80.4357 13.5677C80.4767 13.4704 80.5726 13.4065 80.6791 13.4065H82.9201C83.0662 13.4065 83.1848 13.5251 83.1848 13.6712V15.7824C83.1848 15.9284 83.3035 16.0471 83.4496 16.0471H85.8306C85.9766 16.0471 86.0953 16.1657 86.0953 16.3117V18.8503C86.0953 18.9964 85.9766 19.115 85.8306 19.115H83.4496C83.3035 19.115 83.1848 19.2337 83.1848 19.3797V23.7314C83.1848 24.4965 83.5545 24.8798 84.294 24.8798Z" fill="#0B233F"/>
<path d="M18.6601 24.8798C19.1257 24.8798 19.6688 24.7825 20.288 24.5893C20.4599 24.536 20.6379 24.6562 20.6379 24.8357V27.2755C20.6379 27.3834 20.5695 27.4854 20.4691 27.5264C19.9792 27.7272 19.5091 27.8732 19.0633 27.963C18.5643 28.0649 17.98 28.1151 17.3091 28.1151C15.9337 28.1151 14.9433 27.7789 14.3363 27.1051C13.7292 26.4313 13.4249 25.3969 13.4249 24.0021V19.3782C13.4249 19.2321 13.3063 19.1135 13.1602 19.1135H12.255C12.1089 19.1135 11.9902 18.9949 11.9902 18.8488V17.5864C11.9902 17.5012 12.0313 17.4206 12.1028 17.3704L13.7505 16.2052C13.7901 16.1763 13.822 16.1383 13.8418 16.0927L14.8018 13.5677C14.8429 13.4704 14.9387 13.4065 15.0452 13.4065H17.2863C17.4323 13.4065 17.551 13.5251 17.551 13.6712V15.7824C17.551 15.9284 17.6697 16.0471 17.8157 16.0471H20.1967C20.3428 16.0471 20.4615 16.1657 20.4615 16.3117V18.8503C20.4615 18.9964 20.3428 19.115 20.1967 19.115H17.8157C17.6697 19.115 17.551 19.2337 17.551 19.3797V23.7314C17.5495 24.4965 17.9192 24.8798 18.6601 24.8798Z" fill="#0B233F"/>
</svg>
