<svg width="32" height="32" viewBox="0 0 32 32" fill="none" xmlns="http://www.w3.org/2000/svg">
<g clip-path="url(#clip0_3170_22519)">
<g opacity="0.15">
<path d="M10.3038 9.1734C10.3038 10.9023 8.90229 12.3038 7.1734 12.3038C5.44451 12.3038 4.04297 10.9023 4.04297 9.1734C4.04297 7.44451 5.44451 6.04297 7.1734 6.04297C8.90229 6.04297 10.3038 7.44451 10.3038 9.1734Z" fill="#2B63D9"/>
<path d="M10.3038 17.5212C10.3038 19.2501 8.90229 20.6517 7.1734 20.6517C5.44451 20.6517 4.04297 19.2501 4.04297 17.5212C4.04297 15.7923 5.44451 14.3908 7.1734 14.3908C8.90229 14.3908 10.3038 15.7923 10.3038 17.5212Z" fill="#2B63D9"/>
<path d="M10.3038 25.8691C10.3038 27.5979 8.90229 28.9995 7.1734 28.9995C5.44451 28.9995 4.04297 27.5979 4.04297 25.8691C4.04297 24.1402 5.44451 22.7386 7.1734 22.7386C8.90229 22.7386 10.3038 24.1402 10.3038 25.8691Z" fill="#2B63D9"/>
</g>
<path d="M7.17391 8.13043C7.17391 8.70673 6.70673 9.17391 6.13043 9.17391C5.55414 9.17391 5.08696 8.70673 5.08696 8.13043C5.08696 7.55414 5.55414 7.08696 6.13043 7.08696C6.70673 7.08696 7.17391 7.55414 7.17391 8.13043Z" fill="#2B63D9"/>
<path fill-rule="evenodd" clip-rule="evenodd" d="M6.13043 9.5913C6.93725 9.5913 7.5913 8.93725 7.5913 8.13043C7.5913 7.32362 6.93725 6.66957 6.13043 6.66957C5.32362 6.66957 4.66957 7.32362 4.66957 8.13043C4.66957 8.93725 5.32362 9.5913 6.13043 9.5913ZM6.13043 17.9391C6.93725 17.9391 7.5913 17.2851 7.5913 16.4783C7.5913 15.6714 6.93725 15.0174 6.13043 15.0174C5.32362 15.0174 4.66957 15.6714 4.66957 16.4783C4.66957 17.2851 5.32362 17.9391 6.13043 17.9391ZM6.13043 26.287C6.93725 26.287 7.5913 25.6329 7.5913 24.8261C7.5913 24.0193 6.93725 23.3652 6.13043 23.3652C5.32362 23.3652 4.66957 24.0193 4.66957 24.8261C4.66957 25.6329 5.32362 26.287 6.13043 26.287ZM9.26087 8.13043C9.26087 9.85933 7.85933 11.2609 6.13043 11.2609C4.40154 11.2609 3 9.85933 3 8.13043C3 6.40154 4.40154 5 6.13043 5C7.85933 5 9.26087 6.40154 9.26087 8.13043ZM9.26087 16.4783C9.26087 18.2072 7.85933 19.6087 6.13043 19.6087C4.40154 19.6087 3 18.2072 3 16.4783C3 14.7494 4.40154 13.3478 6.13043 13.3478C7.85933 13.3478 9.26087 14.7494 9.26087 16.4783ZM6.13043 27.9565C7.85933 27.9565 9.26087 26.555 9.26087 24.8261C9.26087 23.0972 7.85933 21.6957 6.13043 21.6957C4.40154 21.6957 3 23.0972 3 24.8261C3 26.555 4.40154 27.9565 6.13043 27.9565Z" fill="#2B63D9"/>
<path fill-rule="evenodd" clip-rule="evenodd" d="M11.3827 8.13043C11.3827 7.68861 11.7408 7.33043 12.1827 7.33043H27.2087C27.6506 7.33043 28.0087 7.68861 28.0087 8.13043C28.0087 8.57226 27.6506 8.93043 27.2087 8.93043H12.1827C11.7408 8.93043 11.3827 8.57226 11.3827 8.13043ZM11.3827 16.4783C11.3827 16.0364 11.7408 15.6783 12.1827 15.6783H27.2087C27.6506 15.6783 28.0087 16.0364 28.0087 16.4783C28.0087 16.9201 27.6506 17.2783 27.2087 17.2783H12.1827C11.7408 17.2783 11.3827 16.9201 11.3827 16.4783ZM11.3827 24.8261C11.3827 24.3843 11.7408 24.0261 12.1827 24.0261H27.2087C27.6506 24.0261 28.0087 24.3843 28.0087 24.8261C28.0087 25.2679 27.6506 25.6261 27.2087 25.6261H12.1827C11.7408 25.6261 11.3827 25.2679 11.3827 24.8261Z" fill="#2B63D9"/>
<circle cx="24.5" cy="24.5" r="7.5" fill="#DFE8F9" stroke="white"/>
<path d="M20.375 20.834V28.1673H28.625" stroke="#2B63D9" stroke-width="1.1" stroke-linecap="round" stroke-linejoin="round"/>
<path d="M20.375 25.8757L22.5962 23.7149L25.1346 25.8757L28.625 20.834" stroke="#2B63D9" stroke-width="1.1" stroke-linecap="round" stroke-linejoin="round"/>
</g>
<defs>
<clipPath id="clip0_3170_22519">
<rect width="32" height="32" fill="white"/>
</clipPath>
</defs>
</svg>
