<svg width="32" height="32" viewBox="0 0 32 32" fill="none" xmlns="http://www.w3.org/2000/svg">
<path opacity="0.15" d="M27.4854 13.1853V26.9606C27.4854 28.6392 26.1246 30 24.4459 30H12.0204C10.3418 30 8.98096 28.6392 8.98096 26.9606V9.02038C8.98096 7.34175 10.3418 5.98096 12.0204 5.98096H20.2296L27.4854 13.1853Z" fill="#2B63D9"/>
<path fill-rule="evenodd" clip-rule="evenodd" d="M10.0104 4.75C8.76203 4.75 7.75 5.76203 7.75 7.01043V25.0086C7.75 26.2571 8.76203 27.2691 10.0104 27.2691H22.494C23.7424 27.2691 24.7544 26.2571 24.7544 25.0086V11.9537H20.5684C19.0311 11.9537 17.4987 10.7016 17.4987 9.01989V4.75H10.0104ZM18.9987 5.80159V9.01989C18.9987 9.75134 19.7322 10.4537 20.5684 10.4537H23.684L18.9987 5.80159ZM18.7771 3.46779C18.6366 3.32833 18.4466 3.25 18.2487 3.25H10.0104C7.9336 3.25 6.25 4.9336 6.25 7.01043V25.0086C6.25 27.0855 7.9336 28.7691 10.0104 28.7691H22.494C24.5708 28.7691 26.2544 27.0855 26.2544 25.0086V11.252C26.2681 11.0396 26.1908 10.8268 26.0343 10.6714L18.7771 3.46779Z" fill="#2B63D9"/>
<path fill-rule="evenodd" clip-rule="evenodd" d="M15.8803 13.4285C14.8738 12.4221 13.242 12.4221 12.2355 13.4285C11.229 14.435 11.229 16.0668 12.2355 17.0733L17.9205 22.7583C17.9309 22.7676 17.9411 22.7773 17.9511 22.7873C18.2964 23.1326 19.1636 23.2029 19.9154 22.4512C20.6672 21.6994 20.5968 20.8322 20.2515 20.4869L17.2266 17.462C17.2173 17.4527 17.2084 17.4433 17.1997 17.4337L15.2112 15.4452C14.9472 15.1812 14.5192 15.1812 14.2553 15.4452C13.9913 15.7092 13.9913 16.1372 14.2553 16.4012L17.9524 20.0983C18.2453 20.3912 18.2453 20.8661 17.9524 21.1589C17.6595 21.4518 17.1846 21.4518 16.8917 21.1589L13.1946 17.4618C12.3448 16.6121 12.3448 15.2343 13.1946 14.3846C14.0444 13.5348 15.4221 13.5348 16.2719 14.3846L19.6329 17.7456C19.6421 17.7548 19.6511 17.7643 19.6598 17.7739L21.3122 19.4262C22.4519 20.566 22.0805 22.4074 20.9761 23.5118C19.8827 24.6052 18.0672 24.9801 16.9251 23.8819C16.9127 23.871 16.9005 23.8596 16.8886 23.8477L11.1749 18.134C9.5826 16.5417 9.5826 13.9601 11.1749 12.3679C12.7671 10.7756 15.3487 10.7756 16.941 12.3679L21.6464 17.0733C21.9393 17.3662 21.9393 17.8411 21.6464 18.134C21.3535 18.4269 20.8786 18.4269 20.5857 18.134L15.8803 13.4285Z" fill="#2B63D9"/>
</svg>
