<svg width="32" height="32" viewBox="0 0 32 32" fill="none" xmlns="http://www.w3.org/2000/svg">
<path d="M26 8H26.75H26ZM26 24H25.25H26ZM24 26V26.75V26ZM8 26V25.25V26ZM8 6V6.75V6ZM6 8H5.25H6ZM5.25 10.2857C5.25 10.6999 5.58579 11.0357 6 11.0357C6.41422 11.0357 6.75 10.6999 6.75 10.2857H5.25ZM6 24H6.75H6ZM6.75 21.7143C6.75 21.3001 6.41421 20.9643 6 20.9643C5.58579 20.9643 5.25 21.3001 5.25 21.7143H6.75ZM15.2602 10.888C14.9673 10.5951 14.4924 10.5951 14.1995 10.888C13.9066 11.1809 13.9066 11.6557 14.1995 11.9486L15.2602 10.888ZM18.8136 15.502L19.3439 14.9717H19.3439L18.8136 15.502ZM18.8136 16.9163L19.3439 17.4466H19.3439L18.8136 16.9163ZM14.1995 20.4697C13.9066 20.7626 13.9066 21.2374 14.1995 21.5303C14.4924 21.8232 14.9673 21.8232 15.2602 21.5303L14.1995 20.4697ZM7 15.25C6.58579 15.25 6.25 15.5858 6.25 16C6.25 16.4142 6.58579 16.75 7 16.75V15.25ZM25.25 8V24H26.75V8H25.25ZM24 25.25H8V26.75H24V25.25ZM8 6.75L24 6.75V5.25L8 5.25V6.75ZM5.25 8L5.25 10.2857H6.75L6.75 8H5.25ZM6.75 24L6.75 21.7143H5.25L5.25 24H6.75ZM8 5.25C6.48122 5.25 5.25 6.48122 5.25 8H6.75C6.75 7.30965 7.30965 6.75 8 6.75V5.25ZM25.25 24C25.25 24.6904 24.6904 25.25 24 25.25V26.75C25.5188 26.75 26.75 25.5188 26.75 24H25.25ZM26.75 8C26.75 6.48122 25.5188 5.25 24 5.25V6.75C24.6904 6.75 25.25 7.30964 25.25 8H26.75ZM8 25.25C7.30964 25.25 6.75 24.6904 6.75 24H5.25C5.25 25.5188 6.48122 26.75 8 26.75V25.25ZM14.1995 11.9486L18.2833 16.0324L19.3439 14.9717L15.2602 10.888L14.1995 11.9486ZM18.2833 16.3859L14.1995 20.4697L15.2602 21.5303L19.3439 17.4466L18.2833 16.3859ZM18.2833 16.0324C18.3809 16.13 18.3809 16.2883 18.2833 16.3859L19.3439 17.4466C20.0273 16.7632 20.0273 15.6551 19.3439 14.9717L18.2833 16.0324ZM19 15.25H7V16.75H19V15.25Z" fill="#2B63D9"/>
</svg>
