<svg width="32" height="32" viewBox="0 0 32 32" fill="none" xmlns="http://www.w3.org/2000/svg">
<path fill-rule="evenodd" clip-rule="evenodd" d="M12.244 6.81376C12.244 6.37193 12.6021 6.01376 13.044 6.01376H29C29.4418 6.01376 29.8 6.37193 29.8 6.81376C29.8 7.25559 29.4418 7.61376 29 7.61376H13.044C12.6021 7.61376 12.244 7.25559 12.244 6.81376ZM12.244 9.92207C12.244 9.48025 12.6021 9.12207 13.044 9.12207H24.8556C25.2974 9.12207 25.6556 9.48025 25.6556 9.92207C25.6556 10.3639 25.2974 10.7221 24.8556 10.7221H13.044C12.6021 10.7221 12.244 10.3639 12.244 9.92207ZM12.244 13.0304C12.244 12.5886 12.6021 12.2304 13.044 12.2304H16.5667C17.0086 12.2304 17.3667 12.5886 17.3667 13.0304C17.3667 13.4722 17.0086 13.8304 16.5667 13.8304H13.044C12.6021 13.8304 12.244 13.4722 12.244 13.0304Z" fill="#2B63D9"/>
<path d="M5.64207 6C6.25855 6 6.74 6.15265 7.0864 6.45796C7.43281 6.76326 7.60601 7.19774 7.60601 7.76138V10.9583H6.4435L6.11764 10.3154H6.08241C5.9415 10.4856 5.80059 10.6266 5.65968 10.7381C5.51877 10.8438 5.35438 10.9201 5.1665 10.9671C4.97862 11.0199 4.74964 11.0464 4.47956 11.0464C4.05683 11.0464 3.70455 10.9172 3.42273 10.6588C3.14091 10.4005 3 10.0042 3 9.46992C3 8.94737 3.17907 8.55987 3.53722 8.30741C3.90124 8.05494 4.42672 7.91403 5.11366 7.88468L5.92389 7.85826V7.7878C5.92389 7.57056 5.87105 7.41791 5.76537 7.32984C5.65968 7.2359 5.51584 7.18893 5.33383 7.18893C5.14008 7.18893 4.92577 7.22416 4.69092 7.29461C4.45607 7.3592 4.21829 7.44433 3.97757 7.55001L3.49319 6.44034C3.77501 6.29356 4.09206 6.18494 4.44433 6.11449C4.80248 6.03816 5.20172 6 5.64207 6ZM5.9327 8.78298L5.54519 8.80059C5.23402 8.81234 5.01678 8.86811 4.89348 8.96792C4.77019 9.06186 4.70854 9.1969 4.70854 9.37304C4.70854 9.53744 4.75257 9.66073 4.84064 9.74293C4.92871 9.81926 5.04614 9.85742 5.19292 9.85742C5.39841 9.85742 5.57161 9.79284 5.71252 9.66367C5.85931 9.5345 5.9327 9.36717 5.9327 9.16168V8.78298Z" fill="#2B63D9"/>
<path d="M8.53995 10.2449C8.53995 9.93962 8.62802 9.72532 8.80416 9.60202C8.98617 9.47872 9.2034 9.41708 9.45587 9.41708C9.69072 9.41708 9.89621 9.47872 10.0724 9.60202C10.2485 9.72532 10.3366 9.93962 10.3366 10.2449C10.3366 10.5326 10.2485 10.741 10.0724 10.8702C9.89621 10.9994 9.69072 11.064 9.45587 11.064C9.2034 11.064 8.98617 10.9994 8.80416 10.8702C8.62802 10.741 8.53995 10.5326 8.53995 10.2449Z" fill="#2B63D9"/>
<path fill-rule="evenodd" clip-rule="evenodd" d="M12.2439 20.2832C12.2439 19.8414 12.6021 19.4832 13.0439 19.4832H28.9999C29.4418 19.4832 29.7999 19.8414 29.7999 20.2832C29.7999 20.725 29.4418 21.0832 28.9999 21.0832H13.0439C12.6021 21.0832 12.2439 20.725 12.2439 20.2832ZM12.2439 23.3915C12.2439 22.9497 12.6021 22.5915 13.0439 22.5915H24.8555C25.2974 22.5915 25.6555 22.9497 25.6555 23.3915C25.6555 23.8333 25.2974 24.1915 24.8555 24.1915H13.0439C12.6021 24.1915 12.2439 23.8333 12.2439 23.3915ZM12.2439 26.4998C12.2439 26.058 12.6021 25.6998 13.0439 25.6998H16.5667C17.0085 25.6998 17.3667 26.058 17.3667 26.4998C17.3667 26.9416 17.0085 27.2998 16.5667 27.2998H13.0439C12.6021 27.2998 12.2439 26.9416 12.2439 26.4998Z" fill="#2B63D9"/>
<path d="M4.94628 18.7705V20.2853C4.94628 20.4556 4.94041 20.62 4.92866 20.7785C4.91692 20.937 4.90224 21.0838 4.88463 21.2188H4.94628C5.06957 21.0192 5.23397 20.8519 5.43946 20.7168C5.64496 20.5759 5.9121 20.5055 6.24089 20.5055C6.74582 20.5055 7.15974 20.7198 7.48266 21.1484C7.80558 21.577 7.96704 22.1993 7.96704 23.0154C7.96704 23.8492 7.80265 24.4803 7.47386 24.9089C7.14507 25.3375 6.71646 25.5518 6.18805 25.5518C5.84752 25.5518 5.58625 25.4931 5.40424 25.3757C5.22223 25.2524 5.06957 25.1232 4.94628 24.9882H4.84059L4.57639 25.4637H3.26416V18.7705H4.94628ZM5.62441 21.8265C5.38956 21.8265 5.21636 21.9087 5.1048 22.0731C4.99912 22.2375 4.94628 22.4929 4.94628 22.8393V23.0771C4.94628 23.4587 4.99618 23.7405 5.09599 23.9225C5.20168 24.1046 5.38369 24.1956 5.64202 24.1956C6.05301 24.1956 6.2585 23.7963 6.2585 22.9978C6.2585 22.2169 6.04714 21.8265 5.62441 21.8265Z" fill="#2B63D9"/>
<path d="M8.71191 24.7504C8.71191 24.4451 8.79998 24.2308 8.97612 24.1075C9.15813 23.9842 9.37537 23.9225 9.62783 23.9225C9.86268 23.9225 10.0682 23.9842 10.2443 24.1075C10.4205 24.2308 10.5085 24.4451 10.5085 24.7504C10.5085 25.0381 10.4205 25.2465 10.2443 25.3757C10.0682 25.5048 9.86268 25.5694 9.62783 25.5694C9.37537 25.5694 9.15813 25.5048 8.97612 25.3757C8.79998 25.2465 8.71191 25.0381 8.71191 24.7504Z" fill="#2B63D9"/>
</svg>
