<svg width="32" height="32" viewBox="0 0 32 32" fill="none" xmlns="http://www.w3.org/2000/svg">
<rect x="9.58337" y="5" width="17.4167" height="17.4167" rx="2" stroke="#2B63D9" stroke-width="1.5"/>
<path d="M7.90278 9.58336H7C5.89543 9.58336 5 10.4788 5 11.5834V25C5 26.1046 5.89543 27 7 27H20.4167C21.5212 27 22.4167 26.1046 22.4167 25V24.0972" stroke="#2B63D9" stroke-width="1.5"/>
<path d="M17.3368 7.91664C16.9226 7.91664 16.5868 8.25243 16.5868 8.66664C16.5868 9.08086 16.9226 9.41664 17.3368 9.41664L17.3368 7.91664ZM22.302 8.66664L22.302 9.41664L22.302 8.66664ZM23.2187 9.58331L23.9687 9.58331L23.2187 9.58331ZM22.4687 14.5486C22.4687 14.9628 22.8045 15.2986 23.2187 15.2986C23.6329 15.2986 23.9687 14.9628 23.9687 14.5486L22.4687 14.5486ZM16.3863 14.4384C16.0934 14.7313 16.0934 15.2062 16.3863 15.4991C16.6792 15.7919 17.1541 15.7919 17.447 15.4991L16.3863 14.4384ZM17.3368 9.41664L22.302 9.41664L22.302 7.91664L17.3368 7.91664L17.3368 9.41664ZM22.4687 9.58331L22.4687 14.5486L23.9687 14.5486L23.9687 9.58331L22.4687 9.58331ZM22.302 9.41664C22.3941 9.41664 22.4687 9.49126 22.4687 9.58331L23.9687 9.58331C23.9687 8.66284 23.2225 7.91664 22.302 7.91664L22.302 9.41664ZM22.6884 8.13631L16.3863 14.4384L17.447 15.4991L23.749 9.19697L22.6884 8.13631Z" fill="#2B63D9"/>
</svg>
