<svg width="32" height="32" viewBox="0 0 32 32" fill="none" xmlns="http://www.w3.org/2000/svg">
<rect opacity="0.15" x="7.12305" y="7.07324" width="20.9267" height="20.9267" rx="2.92386" fill="#2B63D9"/>
<path fill-rule="evenodd" clip-rule="evenodd" d="M10.5328 3.25C10.9471 3.25 11.2828 3.58579 11.2828 4V4.27443H14.4944V4C14.4944 3.58579 14.8302 3.25 15.2444 3.25C15.6586 3.25 15.9944 3.58579 15.9944 4V4.27443H19.5485V4C19.5485 3.58579 19.8843 3.25 20.2985 3.25C20.7127 3.25 21.0485 3.58579 21.0485 4V4.27443H22.4934C24.5619 4.27443 26.2387 5.95126 26.2387 8.01973V22.5178C26.2387 24.5863 24.5619 26.2631 22.4934 26.2631H7.9953C5.92683 26.2631 4.25 24.5863 4.25 22.5178V8.01973C4.25 5.95126 5.92683 4.27443 7.9953 4.27443H9.78285V4C9.78285 3.58579 10.1186 3.25 10.5328 3.25ZM9.78285 5.77443H7.9953C6.75526 5.77443 5.75 6.77969 5.75 8.01973V22.5178C5.75 23.7579 6.75526 24.7631 7.9953 24.7631H22.4934C23.7334 24.7631 24.7387 23.7579 24.7387 22.5178V8.01973C24.7387 6.77969 23.7334 5.77443 22.4934 5.77443H21.0485V8.03033C21.0485 8.44454 20.7127 8.78033 20.2985 8.78033C19.8843 8.78033 19.5485 8.44454 19.5485 8.03033V5.77443H15.9944V8.03033C15.9944 8.44454 15.6586 8.78033 15.2444 8.78033C14.8302 8.78033 14.4944 8.44454 14.4944 8.03033V5.77443H11.2828V8.03033C11.2828 8.44454 10.9471 8.78033 10.5328 8.78033C10.1186 8.78033 9.78285 8.44454 9.78285 8.03033V5.77443ZM8.34774 14.6396C8.34774 14.2254 8.68352 13.8896 9.09774 13.8896H22.0748C22.489 13.8896 22.8248 14.2254 22.8248 14.6396C22.8248 15.0538 22.489 15.3896 22.0748 15.3896H9.09774C8.68352 15.3896 8.34774 15.0538 8.34774 14.6396ZM8.34776 19C8.34776 18.5858 8.68355 18.25 9.09776 18.25H22.0748C22.489 18.25 22.8248 18.5858 22.8248 19C22.8248 19.4142 22.489 19.75 22.0748 19.75H9.09776C8.68355 19.75 8.34776 19.4142 8.34776 19Z" fill="#2B63D9"/>
</svg>
