<svg width="16" height="16" viewBox="0 0 16 16" fill="none" xmlns="http://www.w3.org/2000/svg">
<rect opacity="0.15" x="4.04346" y="4.08691" width="9.91304" height="9.91304" rx="2" fill="#2B63D9"/>
<path d="M7.02484 3.54348C7.30099 3.54348 7.52484 3.31962 7.52484 3.04348C7.52484 2.76734 7.30099 2.54348 7.02484 2.54348V3.54348ZM12.8913 8.40994C12.8913 8.1338 12.6674 7.90994 12.3913 7.90994C12.1152 7.90994 11.8913 8.1338 11.8913 8.40994H12.8913ZM9.26087 1.5C8.98473 1.5 8.76087 1.72386 8.76087 2C8.76087 2.27614 8.98473 2.5 9.26087 2.5V1.5ZM12.9348 6.17391C12.9348 6.45006 13.1586 6.67391 13.4348 6.67391C13.7109 6.67391 13.9348 6.45006 13.9348 6.17391H12.9348ZM13.1413 2.318L13.5007 1.97033L13.5007 1.97033L13.1413 2.318ZM7.55818 7.19403C7.36292 7.38929 7.36292 7.70587 7.55818 7.90113C7.75345 8.0964 8.07003 8.0964 8.26529 7.90113L7.55818 7.19403ZM10.3043 11.9348H5.08696V12.9348H10.3043V11.9348ZM3.5 10.3478V5.13043H2.5V10.3478H3.5ZM5.08696 3.54348H7.02484V2.54348H5.08696V3.54348ZM11.8913 8.40994V10.3478H12.8913V8.40994H11.8913ZM5.08696 11.9348C4.2105 11.9348 3.5 11.2243 3.5 10.3478H2.5C2.5 11.7766 3.65822 12.9348 5.08696 12.9348V11.9348ZM10.3043 12.9348C11.7331 12.9348 12.8913 11.7766 12.8913 10.3478H11.8913C11.8913 11.2243 11.1808 11.9348 10.3043 11.9348V12.9348ZM3.5 5.13043C3.5 4.25398 4.2105 3.54348 5.08696 3.54348V2.54348C3.65822 2.54348 2.5 3.7017 2.5 5.13043H3.5ZM9.26087 2.5H12.3913V1.5H9.26087V2.5ZM12.9348 3.04348V6.17391H13.9348V3.04348H12.9348ZM12.3913 2.5C12.5447 2.5 12.6826 2.56291 12.782 2.66566L13.5007 1.97033C13.2207 1.68091 12.8267 1.5 12.3913 1.5V2.5ZM12.782 2.66566C12.8771 2.76395 12.9348 2.89646 12.9348 3.04348H13.9348C13.9348 2.62668 13.7689 2.2476 13.5007 1.97033L12.782 2.66566ZM12.7878 1.96444L7.55818 7.19403L8.26529 7.90113L13.4949 2.67155L12.7878 1.96444Z" fill="#2B63D9"/>
</svg>
