<svg width="16" height="16" viewBox="0 0 16 16" fill="none" xmlns="http://www.w3.org/2000/svg">
<path d="M6.71429 2.99998H4C2.89543 2.99998 2 3.89542 2 4.99998V12C2 13.1046 2.89543 14 4 14H11C12.1046 14 13 13.1046 13 12V9.2857" stroke="#2b63d9" stroke-width="1.5" stroke-linecap="round" stroke-linejoin="round"/>
<path d="M9 1.25002C8.58579 1.25002 8.25 1.5858 8.25 2.00002C8.25 2.41423 8.58579 2.75002 9 2.75002L9 1.25002ZM13 2.00002V1.25002V2.00002ZM14 3.00002L14.75 3.00002L14 3.00002ZM13.25 7.00002C13.25 7.41423 13.5858 7.75002 14 7.75002C14.4142 7.75002 14.75 7.41423 14.75 7.00002H13.25ZM14.0303 3.03035C14.3232 2.73745 14.3232 2.26258 14.0303 1.96969C13.7374 1.67679 13.2626 1.67679 12.9697 1.96969L14.0303 3.03035ZM7.46967 7.46969C7.17678 7.76258 7.17678 8.23745 7.46967 8.53035C7.76256 8.82324 8.23744 8.82324 8.53033 8.53035L7.46967 7.46969ZM9 2.75002L13 2.75002V1.25002L9 1.25002L9 2.75002ZM13.25 3.00002L13.25 7.00002H14.75L14.75 3.00002L13.25 3.00002ZM13 2.75002C13.1381 2.75002 13.25 2.86194 13.25 3.00002L14.75 3.00002C14.75 2.03352 13.9665 1.25002 13 1.25002V2.75002ZM12.9697 1.96969L7.46967 7.46969L8.53033 8.53035L14.0303 3.03035L12.9697 1.96969Z" fill="#2b63d9"/>
</svg>
