<svg width="16" height="16" viewBox="0 0 16 16" fill="none" xmlns="http://www.w3.org/2000/svg">
<path opacity="0.15" d="M13.5941 7.16763C13.7832 7.35537 13.8895 7.6108 13.8895 7.87725V14.5388C13.8895 15.091 13.4418 15.5388 12.8895 15.5388H6C5.44771 15.5388 5 15.091 5 14.5388V5C5 4.44771 5.44772 4 6 4H9.99172C10.2557 4 10.509 4.10438 10.6963 4.29038L13.5941 7.16763Z" fill="#2B63D9"/>
<path fill-rule="evenodd" clip-rule="evenodd" d="M5 3C4.44771 3 4 3.44771 4 4V12.5388C4 13.091 4.44771 13.5388 5 13.5388H10.8895C11.4418 13.5388 11.8895 13.091 11.8895 12.5388V6.46089L10.0179 6.46068C10.0178 6.46068 10.0179 6.46068 10.0179 6.46068C9.2138 6.46065 8.40385 5.80768 8.40385 4.91154V3H5ZM9.40385 3.70106L11.1762 5.46081L10.0179 5.46068C9.68173 5.46068 9.40385 5.17465 9.40385 4.91154V3.70106ZM3 4C3 2.89543 3.89543 2 5 2H8.90385C9.03584 2 9.16248 2.05219 9.25615 2.14519L12.7418 5.60614C12.8363 5.70001 12.8895 5.82773 12.8895 5.96095V12.5388C12.8895 13.6433 11.9941 14.5388 10.8895 14.5388H5C3.89543 14.5388 3 13.6433 3 12.5388V4ZM4.83062 7.65728C4.83062 7.38113 5.05447 7.15728 5.33062 7.15728H10.5599C10.8361 7.15728 11.0599 7.38113 11.0599 7.65728C11.0599 7.93342 10.8361 8.15728 10.5599 8.15728H5.33062C5.05447 8.15728 4.83062 7.93342 4.83062 7.65728ZM4.83062 9.43035C4.83062 9.15421 5.05447 8.93035 5.33062 8.93035H10.5599C10.8361 8.93035 11.0599 9.15421 11.0599 9.43035C11.0599 9.7065 10.8361 9.93035 10.5599 9.93035H5.33062C5.05447 9.93035 4.83062 9.7065 4.83062 9.43035ZM4.83062 11.2028C4.83062 10.9266 5.05447 10.7028 5.33062 10.7028H8.64341C8.91955 10.7028 9.14341 10.9266 9.14341 11.2028C9.14341 11.4789 8.91955 11.7028 8.64341 11.7028H5.33062C5.05447 11.7028 4.83062 11.4789 4.83062 11.2028Z" fill="#2B63D9"/>
</svg>
