<svg width="32" height="32" viewBox="0 0 32 32" fill="none" xmlns="http://www.w3.org/2000/svg">
<path opacity="0.1" d="M25.4326 17.4343V12.0237L18.107 4.75H9.78943C8.1108 4.75 6.75 6.1108 6.75 7.78943V25.961C6.75 27.6396 8.11079 29.0004 9.78942 29.0004H18.1015C16.8046 27.7299 16 25.9589 16 24C16 20.134 19.134 17 23 17C23.8554 17 24.6749 17.1534 25.4326 17.4343Z" fill="#9DA7B2"/>
<path fill-rule="evenodd" clip-rule="evenodd" d="M5.5 5.78943C5.5 4.52501 6.52501 3.5 7.78943 3.5H15.357V7.81815C15.357 9.51145 16.9003 10.7731 18.4491 10.7731H22.6826V17.0071C22.7878 17.0024 22.8936 17 23 17C23.4031 17 23.7982 17.0341 24.1826 17.0995V10.0719C24.1965 9.85929 24.1192 9.64633 23.9626 9.49085L16.6355 2.21779C16.495 2.07833 16.305 2 16.107 2H7.78943C5.69658 2 4 3.69658 4 5.78943V23.961C4 26.0538 5.69658 27.7504 7.78942 27.7504H17.0884C16.7924 27.2849 16.55 26.782 16.3696 26.2504H7.78942C6.52501 26.2504 5.5 25.2254 5.5 23.961V5.78943ZM16.857 7.81815V4.55159L21.6123 9.27314H18.4491C17.6015 9.27314 16.857 8.56126 16.857 7.81815Z" fill="#9DA7B2"/>
<path fill-rule="evenodd" clip-rule="evenodd" d="M28 24C28 26.7614 25.7614 29 23 29C20.2386 29 18 26.7614 18 24C18 21.2386 20.2386 19 23 19C25.7614 19 28 21.2386 28 24ZM26.0682 22.4896C26.3386 22.1758 26.3034 21.7022 25.9896 21.4318C25.6758 21.1614 25.2022 21.1966 24.9318 21.5104L22.0035 24.9091L21.0209 23.9604C20.723 23.6727 20.2482 23.6811 19.9604 23.9791C19.6727 24.277 19.6811 24.7518 19.9791 25.0396L21.5326 26.5396C21.681 26.6828 21.8819 26.7587 22.088 26.7492C22.294 26.7398 22.4871 26.6458 22.6218 26.4896L26.0682 22.4896Z" fill="#2B63D9"/>
</svg>
