<svg width="32" height="32" viewBox="0 0 32 32" fill="none" xmlns="http://www.w3.org/2000/svg">
<path opacity="0.15" d="M26.6826 12.2737V26.211C26.6826 27.8896 25.3219 29.2504 23.6432 29.2504H11.0394C9.36079 29.2504 8 27.8896 8 26.211V8.03943C8 6.3608 9.3608 5 11.0394 5H19.357L26.6826 12.2737Z" fill="#9DA7B2"/>
<path fill-rule="evenodd" clip-rule="evenodd" d="M9.03943 3.75C7.77501 3.75 6.75 4.77501 6.75 6.03943V24.211C6.75 25.4754 7.77501 26.5004 9.03942 26.5004H21.6432C22.9076 26.5004 23.9326 25.4754 23.9326 24.211V11.0236L19.5264 11.0231C17.9023 11.0231 16.607 9.68827 16.607 8.06759V3.75H9.03943ZM18.107 4.80159L22.8626 9.52351L19.5265 9.52315C18.7541 9.52315 18.107 8.88332 18.107 8.06759V4.80159ZM5.25 6.03943C5.25 3.94658 6.94658 2.25 9.03943 2.25H17.357C17.555 2.25 17.745 2.32829 17.8855 2.46779L25.2111 9.74149C25.3529 9.8823 25.4326 10.0739 25.4326 10.2737V24.211C25.4326 26.3038 23.7361 28.0004 21.6432 28.0004H9.03942C6.94658 28.0004 5.25 26.3038 5.25 24.211V6.03943Z" fill="#9DA7B2"/>
</svg>
