<svg width="32" height="32" viewBox="0 0 32 32" fill="none" xmlns="http://www.w3.org/2000/svg">
<path opacity="0.1" d="M25.4326 17.4343V12.0237L18.107 4.75H9.78943C8.1108 4.75 6.75 6.1108 6.75 7.78943V25.961C6.75 27.6396 8.11079 29.0004 9.78942 29.0004H18.1015C16.8046 27.7299 16 25.9589 16 24C16 20.134 19.134 17 23 17C23.8554 17 24.6749 17.1534 25.4326 17.4343Z" fill="#9DA7B2"/>
<path fill-rule="evenodd" clip-rule="evenodd" d="M5.5 5.78943C5.5 4.52501 6.52501 3.5 7.78943 3.5H15.357V7.81755C15.357 9.5106 16.9 10.7731 18.4491 10.7731H22.6826V17.0071C22.7878 17.0024 22.8936 17 23 17C23.4031 17 23.7982 17.0341 24.1826 17.0995V10.0719C24.1965 9.85929 24.1192 9.64633 23.9626 9.49085L16.6355 2.21779C16.495 2.07833 16.305 2 16.107 2H7.78943C5.69658 2 4 3.69658 4 5.78943V23.961C4 26.0538 5.69658 27.7504 7.78942 27.7504H17.0884C16.7925 27.2849 16.55 26.782 16.3696 26.2504H7.78942C6.52501 26.2504 5.5 25.2254 5.5 23.961V5.78943ZM16.857 7.81755V4.55159L21.6123 9.27314H18.4491C17.6018 9.27314 16.857 8.56091 16.857 7.81755Z" fill="#9DA7B2"/>
<path d="M27.25 24C27.25 26.3472 25.3472 28.25 23 28.25C20.6528 28.25 18.75 26.3472 18.75 24C18.75 21.6528 20.6528 19.75 23 19.75C25.3472 19.75 27.25 21.6528 27.25 24Z" stroke="#6D7B8C" stroke-width="1.5" stroke-miterlimit="10"/>
</svg>
