<svg width="32" height="32" viewBox="0 0 32 32" fill="none" xmlns="http://www.w3.org/2000/svg">
<path opacity="0.15" d="M8 11.8987V24.6484C8 26.4996 9.50069 28.0003 11.3519 28.0003H22.3677C24.2189 28.0003 25.7196 26.4996 25.7196 24.6484V8.35187C25.7196 6.50068 24.2189 5 22.3677 5H14.948V9.64476C14.948 10.8002 13.8636 11.8987 12.7272 11.8987L8 11.8987Z" fill="#2B63D9"/>
<path fill-rule="evenodd" clip-rule="evenodd" d="M12.4196 2.46779C12.5601 2.32829 12.75 2.25 12.948 2.25H20.3677C22.6331 2.25 24.4696 4.08647 24.4696 6.35187V22.6484C24.4696 24.9138 22.6331 26.7503 20.3677 26.7503H9.35188C7.08647 26.7503 5.25 24.9138 5.25 22.6484V9.89875C5.25 9.69891 5.32975 9.50733 5.47156 9.36653L12.4196 2.46779ZM12.198 4.80159L7.81976 9.1488L10.7282 9.14888C11.513 9.14887 12.198 8.48814 12.198 7.80689V4.80159ZM6.75 10.6488L10.7282 10.6489C12.2163 10.6489 13.698 9.43644 13.698 7.80689V3.75H20.3677C21.8047 3.75 22.9696 4.9149 22.9696 6.35187V22.6484C22.9696 24.0854 21.8046 25.2503 20.3677 25.2503H9.35188C7.9149 25.2503 6.75 24.0854 6.75 22.6484V10.6488Z" fill="#2B63D9"/>
<path fill-rule="evenodd" clip-rule="evenodd" d="M19.5075 12.4478C19.8125 12.7281 19.8325 13.2025 19.5522 13.5075L14.0379 19.5075C13.7591 19.8109 13.2879 19.8325 12.9824 19.556L10.4967 17.306C10.1896 17.0281 10.166 16.5538 10.444 16.2467C10.7219 15.9396 11.1962 15.916 11.5033 16.194L13.4372 17.9444L18.4478 12.4925C18.7281 12.1875 19.2025 12.1675 19.5075 12.4478Z" fill="#2B63D9"/>
</svg>
