<svg width="32" height="32" viewBox="0 0 32 32" fill="none" xmlns="http://www.w3.org/2000/svg">
<path opacity="0.15" d="M8.31735 12.2281V26.1653C8.31735 27.844 9.67815 29.2048 11.3568 29.2048H23.9606C25.6392 29.2048 27 27.844 27 26.1653V7.99377C27 6.31514 25.6392 4.95435 23.9606 4.95435H15.643L8.31735 12.2281Z" fill="#2B63D9"/>
<path fill-rule="evenodd" clip-rule="evenodd" d="M13.1162 2.46771C13.2567 2.32826 13.4466 2.25 13.6446 2.25H21.9622C24.055 2.25 25.7516 3.94658 25.7516 6.03943V24.211C25.7516 26.3038 24.055 28.0004 21.9622 28.0004H9.35838C7.26554 28.0004 5.56896 26.3038 5.56896 24.211V10.3218C5.55516 10.1093 5.63241 9.89632 5.78904 9.74085L13.1162 2.46771ZM7.06896 11.0231V24.211C7.06896 25.4754 8.09397 26.5004 9.35838 26.5004H21.9622C23.2266 26.5004 24.2516 25.4754 24.2516 24.211V6.03943C24.2516 4.77501 23.2266 3.75 21.9622 3.75H14.3946V8.0676C14.3946 9.76067 12.8515 11.0231 11.3025 11.0231H7.06896ZM12.8946 4.80159L8.13934 9.52314H11.3025C12.1499 9.52314 12.8946 8.81094 12.8946 8.0676V4.80159ZM9.56741 14.8207C9.56741 14.4065 9.90319 14.0707 10.3174 14.0707H21.3076C21.7218 14.0707 22.0576 14.4065 22.0576 14.8207C22.0576 15.2349 21.7218 15.5707 21.3076 15.5707H10.3174C9.90319 15.5707 9.56741 15.2349 9.56741 14.8207ZM9.56741 18.5468C9.56741 18.1326 9.90319 17.7968 10.3174 17.7968H21.3076C21.7218 17.7968 22.0576 18.1326 22.0576 18.5468C22.0576 18.961 21.7218 19.2968 21.3076 19.2968H10.3174C9.90319 19.2968 9.56741 18.961 9.56741 18.5468ZM9.56741 22.2721C9.56741 21.8579 9.90319 21.5221 10.3174 21.5221H17.2797C17.6939 21.5221 18.0297 21.8579 18.0297 22.2721C18.0297 22.6863 17.6939 23.0221 17.2797 23.0221H10.3174C9.90319 23.0221 9.56741 22.6863 9.56741 22.2721Z" fill="#2B63D9"/>
</svg>
