<svg width="32" height="32" viewBox="0 0 32 32" fill="none" xmlns="http://www.w3.org/2000/svg">
<path fill-rule="evenodd" clip-rule="evenodd" d="M12.0772 3C11.8793 3 11.6893 3.07826 11.5489 3.21771L4.22166 10.4908C4.06503 10.6463 3.98777 10.8593 4.00157 11.0718V24.961C4.00157 27.0538 5.69816 28.7504 7.791 28.7504H17.1345C16.7917 28.2907 16.5041 27.7874 16.2814 27.2504H7.791C6.52659 27.2504 5.50157 26.2254 5.50157 24.961V11.7731H9.73509C11.2842 11.7731 12.8272 10.5107 12.8272 8.81761V4.5H20.3948C21.6592 4.5 22.6842 5.52501 22.6842 6.78943V17.571C22.7062 17.5708 22.7281 17.5707 22.7501 17.5707C23.2416 17.5707 23.7213 17.6213 24.1842 17.7177V6.78943C24.1842 4.69658 22.4876 3 20.3948 3H12.0772ZM6.57196 10.2731L11.3272 5.55159V8.81761C11.3272 9.56094 10.5825 10.2731 9.73509 10.2731H6.57196Z" fill="#82A3E6"/>
<path d="M18.4269 19.0649C19.0178 18.6002 19.6854 18.2287 20.4075 17.9723C20.2831 17.7304 20.0309 17.5649 19.7402 17.5649H8.74995C8.33573 17.5649 7.99995 17.9007 7.99995 18.3149C7.99995 18.7291 8.33573 19.0649 8.74995 19.0649H18.4269Z" fill="#82A3E6"/>
<path d="M15.9931 22.7359C16.0916 22.3722 16.2187 22.0203 16.3718 21.6827C16.2448 21.4489 15.997 21.2902 15.7123 21.2902H8.74995C8.33573 21.2902 7.99995 21.626 7.99995 22.0402C7.99995 22.4544 8.33573 22.7902 8.74995 22.7902H15.7123C15.8116 22.7902 15.9063 22.7709 15.9931 22.7359Z" fill="#82A3E6"/>
<path d="M8.74995 13.8388C8.33573 13.8388 7.99995 14.1746 7.99995 14.5888C7.99995 15.003 8.33573 15.3388 8.74995 15.3388H19.7402C20.1544 15.3388 20.4902 15.003 20.4902 14.5888C20.4902 14.1746 20.1544 13.8388 19.7402 13.8388H8.74995Z" fill="#82A3E6"/>
<path opacity="0.15" d="M6.75012 26.7818V12.8445L14.0758 5.5708H22.3933C24.072 5.5708 25.4328 6.9316 25.4328 8.61023V18.1032C24.6066 17.7601 23.7005 17.5707 22.7502 17.5707C18.8842 17.5707 15.7502 20.7047 15.7502 24.5707C15.7502 26.6617 16.667 28.5386 18.1205 29.8212H9.78955C8.11092 29.8212 6.75012 28.4604 6.75012 26.7818Z" fill="#2B63D9"/>
<path fill-rule="evenodd" clip-rule="evenodd" d="M27.7501 24.5708C27.7501 27.3322 25.5115 29.5708 22.7501 29.5708C19.9887 29.5708 17.7501 27.3322 17.7501 24.5708C17.7501 21.8094 19.9887 19.5708 22.7501 19.5708C25.5115 19.5708 27.7501 21.8094 27.7501 24.5708ZM25.8183 23.0604C26.0887 22.7466 26.0535 22.273 25.7397 22.0026C25.4259 21.7322 24.9523 21.7674 24.6819 22.0812L21.7536 25.4799L20.7711 24.5312C20.4731 24.2435 19.9983 24.2519 19.7106 24.5499C19.4229 24.8478 19.4312 25.3226 19.7292 25.6104L21.2827 27.1104C21.4311 27.2536 21.632 27.3295 21.8381 27.32C22.0442 27.3106 22.2372 27.2166 22.3719 27.0604L25.8183 23.0604Z" fill="#2B63D9"/>
</svg>
