<svg width="32" height="32" viewBox="0 0 32 32" fill="none" xmlns="http://www.w3.org/2000/svg">
<path opacity="0.1" d="M6.68823 26.7818V12.8445L14.0139 5.5708H22.3315C24.0101 5.5708 25.3709 6.9316 25.3709 8.61023V18.1033C24.5447 17.7602 23.6386 17.5708 22.6882 17.5708C18.8222 17.5708 15.6882 20.7048 15.6882 24.5708C15.6882 26.6617 16.605 28.5386 18.0585 29.8212H9.72766C8.04903 29.8212 6.68823 28.4604 6.68823 26.7818Z" fill="#9DA7B2"/>
<path fill-rule="evenodd" clip-rule="evenodd" d="M12.0772 3C11.8793 3 11.6893 3.07826 11.5489 3.21771L4.22166 10.4908C4.06503 10.6463 3.98777 10.8593 4.00157 11.0718V24.961C4.00157 27.0538 5.69816 28.7504 7.791 28.7504H17.0724C16.7297 28.2907 16.4421 27.7874 16.2194 27.2504H7.791C6.52658 27.2504 5.50157 26.2254 5.50157 24.961V11.7731H9.73509C11.2842 11.7731 12.8272 10.5107 12.8272 8.8176V4.5H20.3948C21.6592 4.5 22.6842 5.52501 22.6842 6.78943V17.5707C22.6855 17.5707 22.6868 17.5707 22.6881 17.5707C23.2016 17.5707 23.7022 17.626 24.1842 17.731V6.78943C24.1842 4.69658 22.4876 3 20.3948 3H12.0772ZM6.57196 10.2731L11.3272 5.55159V8.8176C11.3272 9.56094 10.5825 10.2731 9.73509 10.2731H6.57196Z" fill="#9DA7B2"/>
<path d="M20.2677 18.0005C20.1488 17.7433 19.8885 17.5649 19.5865 17.5649H8.59631C8.18209 17.5649 7.84631 17.9006 7.84631 18.3149C7.84631 18.7291 8.18209 19.0649 8.59631 19.0649H18.365C18.9346 18.617 19.5754 18.2556 20.2677 18.0005Z" fill="#9DA7B2"/>
<path d="M16.2642 21.7854C16.1599 21.4966 15.8834 21.2902 15.5586 21.2902H8.59631C8.18209 21.2902 7.84631 21.626 7.84631 22.0402C7.84631 22.4544 8.18209 22.7902 8.59631 22.7902H15.5586C15.7003 22.7902 15.8327 22.751 15.9457 22.6827C16.0318 22.3745 16.1385 22.0749 16.2642 21.7854Z" fill="#9DA7B2"/>
<path d="M8.59631 13.8388C8.18209 13.8388 7.84631 14.1746 7.84631 14.5888C7.84631 15.003 8.18209 15.3388 8.59631 15.3388H19.5865C20.0007 15.3388 20.3365 15.003 20.3365 14.5888C20.3365 14.1746 20.0007 13.8388 19.5865 13.8388H8.59631Z" fill="#9DA7B2"/>
<path fill-rule="evenodd" clip-rule="evenodd" d="M27.6882 24.5708C27.6882 27.3322 25.4497 29.5708 22.6882 29.5708C19.9268 29.5708 17.6882 27.3322 17.6882 24.5708C17.6882 21.8094 19.9268 19.5708 22.6882 19.5708C25.4497 19.5708 27.6882 21.8094 27.6882 24.5708ZM25.7564 23.0604C26.0268 22.7466 25.9916 22.273 25.6778 22.0026C25.364 21.7322 24.8904 21.7674 24.62 22.0812L21.6917 25.4799L20.7092 24.5312C20.4112 24.2435 19.9364 24.2519 19.6487 24.5499C19.361 24.8478 19.3693 25.3226 19.6673 25.6104L21.2209 27.1104C21.3693 27.2536 21.5701 27.3295 21.7762 27.32C21.9823 27.3106 22.1753 27.2166 22.31 27.0604L25.7564 23.0604Z" fill="#2B63D9"/>
</svg>
