<svg width="32" height="32" viewBox="0 0 32 32" fill="none" xmlns="http://www.w3.org/2000/svg">
<path opacity="0.15" d="M8 24.7222V11.9246L12.7449 11.9246C13.8856 11.9246 14.9741 10.8219 14.9741 9.66219V5H22.4216C24.2797 5 25.7861 6.50632 25.7861 8.36445V24.7222C25.7861 26.5803 24.2797 28.0866 22.4216 28.0866H11.3645C9.50632 28.0866 8 26.5803 8 24.7222Z" fill="#9DA7B2"/>
<path fill-rule="evenodd" clip-rule="evenodd" d="M12.4456 2.46779C12.5861 2.32829 12.7761 2.25 12.9741 2.25H20.4216C22.694 2.25 24.5361 4.0921 24.5361 6.36446V22.7222C24.5361 24.9945 22.694 26.8366 20.4216 26.8366H9.36446C7.09211 26.8366 5.25 24.9945 5.25 22.7222V9.92464C5.25 9.7248 5.32975 9.53323 5.47156 9.39243L12.4456 2.46779ZM12.2241 4.80159L7.82 9.17445L10.7451 9.17413C11.5349 9.17413 12.2241 8.50991 12.2241 7.8249V4.80159ZM6.75 10.6746L10.7452 10.6741C12.2369 10.6741 13.7241 9.45934 13.7241 7.8249V3.75H20.4216C21.8655 3.75 23.0361 4.92053 23.0361 6.36446V22.7222C23.0361 24.1661 21.8655 25.3366 20.4216 25.3366H9.36446C7.92053 25.3366 6.75 24.1661 6.75 22.7222V10.6746Z" fill="#9DA7B2"/>
<path fill-rule="evenodd" clip-rule="evenodd" d="M19.5075 12.4478C19.8125 12.7281 19.8325 13.2025 19.5522 13.5075L14.0379 19.5075C13.7591 19.8109 13.2878 19.8325 12.9824 19.556L10.4967 17.306C10.1896 17.0281 10.166 16.5538 10.4439 16.2467C10.7219 15.9396 11.1962 15.916 11.5033 16.194L13.4372 17.9444L18.4478 12.4925C18.7281 12.1875 19.2025 12.1675 19.5075 12.4478Z" fill="#9DA7B2"/>
</svg>
