<svg width="32" height="32" viewBox="0 0 32 32" fill="none" xmlns="http://www.w3.org/2000/svg">
<path opacity="0.15" d="M26 12.138V25.2607C26 26.9393 24.6392 28.3001 22.9606 28.3001H11.2533C9.57466 28.3001 8.21387 26.9393 8.21387 25.2607V8.2528C8.21387 6.57417 9.57467 5.21338 11.2533 5.21338H19.0259L26 12.138Z" fill="#9DA7B2"/>
<path fill-rule="evenodd" clip-rule="evenodd" d="M9.36447 3.75C7.92054 3.75 6.75 4.92053 6.75 6.36447V22.7222C6.75 24.1662 7.92054 25.3367 9.36447 25.3367H20.4216C21.8656 25.3367 23.0361 24.1662 23.0361 22.7222V10.6746L19.0409 10.6742C19.0409 10.6742 19.0409 10.6742 19.0409 10.6742C17.549 10.6741 16.062 9.45882 16.062 7.82454V3.75H9.36447ZM17.562 4.80159L21.9661 9.17446L19.041 9.17415C18.2514 9.17415 17.562 8.50972 17.562 7.82454V4.80159ZM5.25 6.36447C5.25 4.09211 7.09211 2.25 9.36447 2.25H16.812C17.01 2.25 17.2 2.32829 17.3405 2.46779L24.3146 9.39245C24.4564 9.53325 24.5361 9.72482 24.5361 9.92466V22.7222C24.5361 24.9946 22.694 26.8367 20.4216 26.8367H9.36447C7.09211 26.8367 5.25 24.9946 5.25 22.7222V6.36447ZM8.57083 14.069C8.57083 13.6548 8.90661 13.319 9.32083 13.319H20.3902C20.8045 13.319 21.1402 13.6548 21.1402 14.069C21.1402 14.4832 20.8045 14.819 20.3902 14.819H9.32083C8.90661 14.819 8.57083 14.4832 8.57083 14.069ZM8.57083 17.6163C8.57083 17.2021 8.90661 16.8663 9.32083 16.8663H20.3902C20.8045 16.8663 21.1402 17.2021 21.1402 17.6163C21.1402 18.0306 20.8045 18.3663 20.3902 18.3663H9.32083C8.90661 18.3663 8.57083 18.0306 8.57083 17.6163ZM8.57083 21.1628C8.57083 20.7485 8.90661 20.4128 9.32083 20.4128H16.3333C16.7475 20.4128 17.0833 20.7485 17.0833 21.1628C17.0833 21.577 16.7475 21.9128 16.3333 21.9128H9.32083C8.90661 21.9128 8.57083 21.577 8.57083 21.1628Z" fill="#9DA7B2"/>
</svg>
