<svg width="32" height="32" viewBox="0 0 32 32" fill="none" xmlns="http://www.w3.org/2000/svg">
<path opacity="0.15" d="M28.4332 13.1853V26.9606C28.4332 28.6392 27.0724 30 25.3938 30H12.9727C11.294 30 9.93323 28.6392 9.93323 26.9606V9.02038C9.93323 7.34175 11.294 5.98096 12.9727 5.98096H21.1792L28.4332 13.1853Z" fill="#2B63D9"/>
<path fill-rule="evenodd" clip-rule="evenodd" d="M10.9317 4.75C9.7005 4.75 8.70239 5.74811 8.70239 6.97934V24.7917C8.70239 26.0229 9.7005 27.021 10.9317 27.021H23.2864C24.5176 27.021 25.5157 26.0229 25.5157 24.7917V11.8794H21.3807C19.8556 11.8794 18.3349 10.6373 18.3349 8.96804V4.75H10.9317ZM19.8349 5.80159V8.96804C19.8349 9.68703 20.5567 10.3794 21.3807 10.3794H24.4453L19.8349 5.80159ZM19.6133 3.46779C19.4728 3.32833 19.2828 3.25 19.0849 3.25H10.9317C8.87208 3.25 7.20239 4.91968 7.20239 6.97934V24.7917C7.20239 26.8514 8.87207 28.521 10.9317 28.521H23.2864C25.346 28.521 27.0157 26.8514 27.0157 24.7917V11.1776C27.0294 10.9652 26.9521 10.7524 26.7956 10.5971L19.6133 3.46779Z" fill="#2B63D9"/>
<rect x="3" y="15.6343" width="20.7997" height="8.426" rx="2" fill="#2B63D9"/>
<path d="M7.70459 16.6343C8.53259 16.6343 9.13559 16.8143 9.51359 17.1743C9.89759 17.5283 10.0896 18.0173 10.0896 18.6413C10.0896 19.0133 10.0116 19.3643 9.85559 19.6943C9.69959 20.0183 9.43859 20.2793 9.07259 20.4773C8.71259 20.6753 8.22059 20.7743 7.59659 20.7743H7.01159V23.0603H5.65259V16.6343H7.70459ZM7.63259 17.7503H7.01159V19.6583H7.46159C7.84559 19.6583 8.14859 19.5833 8.37059 19.4333C8.59859 19.2773 8.71259 19.0283 8.71259 18.6863C8.71259 18.0623 8.35259 17.7503 7.63259 17.7503Z" fill="white"/>
<path d="M16.382 19.7843C16.382 20.8703 16.073 21.6893 15.455 22.2413C14.843 22.7873 13.982 23.0603 12.872 23.0603H11.054V16.6343H13.07C13.742 16.6343 14.324 16.7543 14.816 16.9943C15.314 17.2343 15.698 17.5883 15.968 18.0563C16.244 18.5183 16.382 19.0943 16.382 19.7843ZM14.969 19.8203C14.969 19.1063 14.813 18.5843 14.501 18.2543C14.189 17.9183 13.736 17.7503 13.142 17.7503H12.413V21.9353H12.998C14.312 21.9353 14.969 21.2303 14.969 19.8203Z" fill="white"/>
<path d="M18.8071 23.0603H17.4661V16.6343H21.1471V17.7503H18.8071V19.4063H20.9851V20.5223H18.8071V23.0603Z" fill="white"/>
</svg>
