<svg width="16" height="16" viewBox="0 0 16 16" fill="none" xmlns="http://www.w3.org/2000/svg">
<path opacity="0.15" d="M6.1224 14.8033L14.4902 6.36941C14.6432 6.21525 14.6427 5.96644 14.4891 5.81289C14.4583 5.78209 14.4583 5.73216 14.4891 5.70137L15.3563 4.83421C15.7468 4.44369 15.7468 3.81052 15.3563 3.42L14.6196 2.68327C14.229 2.29275 13.5959 2.29275 13.2053 2.68327L12.3531 3.53548C12.3141 3.57453 12.2508 3.57453 12.2117 3.53548L12.1323 3.45607C11.9365 3.26026 11.6188 3.26089 11.4238 3.45746L3.12695 11.8198C3.06493 11.8823 3.02051 11.9601 2.9982 12.0453L2.21079 15.0522C2.11525 15.4171 2.44269 15.7523 2.80971 15.6654L5.88269 14.9376C5.97357 14.9161 6.05661 14.8696 6.1224 14.8033Z" fill="#2B63D9"/>
<path fill-rule="evenodd" clip-rule="evenodd" d="M14.389 1.43934C13.8032 0.853553 12.8535 0.853553 12.2677 1.43934L11.6922 2.01486C11.299 1.71381 10.7337 1.74425 10.3753 2.10541L10.0913 2.39165L9.88904 2.18934C9.30325 1.60355 8.3535 1.60355 7.76771 2.18934L4.97482 4.98223C4.77956 5.1775 4.77956 5.49408 4.97482 5.68934C5.17008 5.8846 5.48667 5.8846 5.68193 5.68934L8.47482 2.89645C8.67008 2.70118 8.98667 2.70118 9.18193 2.89645L9.38702 3.10154L2.37178 10.1721L2.3699 10.174L2.07849 10.4677C1.95443 10.5928 1.8656 10.7483 1.82098 10.9187L1.03357 13.9257C0.842479 14.6554 1.49737 15.3259 2.23142 15.1521L5.30439 14.4243C5.48616 14.3812 5.65224 14.2881 5.78381 14.1555L6.06837 13.8687L6.07033 13.8667L14.0775 5.79643C14.3729 5.49862 14.4426 5.06154 14.287 4.69803L14.9067 4.07831C15.4925 3.49252 15.4925 2.54277 14.9067 1.95699L14.389 1.43934ZM11.0852 2.80973L13.3676 5.09211L9.7888 8.69914L7.50643 6.41677L11.0852 2.80973ZM6.8021 7.12665L3.43105 10.5243L5.71342 12.8067L9.08447 9.40902L6.8021 7.12665ZM12.4055 2.71578L13.6302 3.94053L14.1996 3.3712C14.3948 3.17594 14.3948 2.85935 14.1996 2.66409L13.6819 2.14645C13.4867 1.95118 13.1701 1.95118 12.9748 2.14645L12.4055 2.71578ZM2.76268 11.2701L4.96867 13.4761L2.00096 14.179L2.76268 11.2701Z" fill="#2B63D9"/>
</svg>
