<svg width="32" height="32" viewBox="0 0 32 32" fill="none" xmlns="http://www.w3.org/2000/svg">
<path d="M13.0495 24.3848L13.1731 25.1246C13.3272 25.0988 13.4694 25.0256 13.5799 24.9152L13.0495 24.3848ZM7.61514 18.9504L7.08481 18.4201C6.98772 18.5172 6.91915 18.6391 6.88656 18.7725L7.61514 18.9504ZM6 25.5622L5.27142 25.3842C5.21159 25.6292 5.27883 25.8878 5.45039 26.0725C5.62195 26.2573 5.87486 26.3435 6.12355 26.302L6 25.5622ZM24.8745 12.5599L24.3442 12.0295L24.8745 12.5599ZM19.4401 7.12547L18.9098 6.59514L19.4401 7.12547ZM24.3442 12.0295L12.5192 23.8545L13.5799 24.9152L25.4048 13.0902L24.3442 12.0295ZM8.14547 19.4808L19.9704 7.6558L18.9098 6.59514L7.08481 18.4201L8.14547 19.4808ZM12.926 23.6451L5.87645 24.8225L6.12355 26.302L13.1731 25.1246L12.926 23.6451ZM6.72858 25.7402L8.34372 19.1284L6.88656 18.7725L5.27142 25.3842L6.72858 25.7402ZM24.3442 7.6558C25.5519 8.86357 25.5519 10.8218 24.3442 12.0295L25.4048 13.0902C27.1984 11.2966 27.1984 8.3887 25.4048 6.59514L24.3442 7.6558ZM25.4048 6.59514C23.6113 4.80158 20.7033 4.80158 18.9098 6.59514L19.9704 7.6558C21.1782 6.44803 23.1364 6.44803 24.3442 7.6558L25.4048 6.59514ZM7.28727 19.2794L12.7217 24.7138L13.7823 23.6531L8.34793 18.2187L7.28727 19.2794Z" fill="#2B63D9"/>
</svg>
