<svg width="16" height="16" viewBox="0 0 16 16" fill="none" xmlns="http://www.w3.org/2000/svg">
<path opacity="0.15" d="M10.7301 4.45471C11.5556 3.62919 12.894 3.62919 13.7196 4.45471C14.5451 5.28024 14.5451 6.61867 13.7196 7.4442L7.25638 13.9074C7.22921 13.9346 7.19422 13.9526 7.15632 13.9589L4.08468 14.4719C3.73059 14.531 3.43141 14.2088 3.5166 13.8601L4.21285 11.0099C4.22088 10.977 4.23776 10.947 4.26165 10.9231L10.7301 4.45471Z" fill="#2B63D9"/>
<path fill-rule="evenodd" clip-rule="evenodd" d="M9.53992 2.76559C10.5607 1.7448 12.2157 1.7448 13.2365 2.76559C14.2573 3.78637 14.2573 5.44139 13.2365 6.46218L6.73154 12.9671C6.65789 13.0408 6.56309 13.0896 6.46035 13.1068L2.58237 13.7544C2.41658 13.7821 2.24797 13.7247 2.1336 13.6015C2.01923 13.4783 1.9744 13.3059 2.01429 13.1426L2.90279 9.50545C2.92451 9.41653 2.97022 9.33528 3.03495 9.27055L9.53992 2.76559ZM12.5294 3.4727C11.8991 2.84243 10.8773 2.84243 10.247 3.4727L4.28565 9.43406L6.56803 11.7164L12.5294 5.75507C13.1597 5.12481 13.1597 4.10296 12.5294 3.4727ZM5.66339 12.226L3.1657 12.6432L3.73796 10.3006L5.66339 12.226Z" fill="#2B63D9"/>
</svg>
