<svg width="32" height="32" viewBox="0 0 32 32" fill="none" xmlns="http://www.w3.org/2000/svg">
<path opacity="0.15" d="M20.1482 7.28497C21.7157 5.71751 24.257 5.71751 25.8245 7.28497C27.3919 8.85242 27.3919 11.3938 25.8245 12.9612L13.4732 25.3125L6.86288 26.4165C6.50649 26.476 6.20536 26.1517 6.29111 25.8007L7.79698 19.6362L20.1482 7.28497Z" fill="#2B63D9"/>
<path fill-rule="evenodd" clip-rule="evenodd" d="M18.5079 5.64526C20.3683 3.78491 23.3845 3.78491 25.2449 5.64526C27.1052 7.50561 27.1052 10.5218 25.2449 12.3822L12.8936 24.7334C12.7831 24.8439 12.6409 24.9171 12.4868 24.9428L5.12356 26.1726C4.87487 26.2141 4.62196 26.1279 4.4504 25.9432C4.27884 25.7584 4.2116 25.4998 4.27144 25.2549L5.95846 18.3488C5.99104 18.2155 6.05962 18.0936 6.15671 17.9965L18.5079 5.64526ZM24.1842 6.70592C22.9096 5.43136 20.8432 5.43136 19.5686 6.70592L8.02548 18.249L12.6411 22.8646L24.1842 11.3215C25.4588 10.0469 25.4588 7.98048 24.1842 6.70592ZM11.2789 23.6238L5.99855 24.5057L7.20835 19.5532L11.2789 23.6238Z" fill="#2B63D9"/>
</svg>
