<svg width="32" height="32" viewBox="0 0 32 32" fill="none" xmlns="http://www.w3.org/2000/svg">
<g opacity="0.15">
<path d="M23 13.5C23 14.8807 21.8807 16 20.5 16C19.1193 16 18 14.8807 18 13.5C18 12.1193 19.1193 11 20.5 11C21.8807 11 23 12.1193 23 13.5Z" fill="#2B63D9"/>
<path d="M16 20.5C16 21.8807 14.8807 23 13.5 23C12.1193 23 11 21.8807 11 20.5C11 19.1193 12.1193 18 13.5 18C14.8807 18 16 19.1193 16 20.5Z" fill="#2B63D9"/>
</g>
<path fill-rule="evenodd" clip-rule="evenodd" d="M24.4625 3.75C24.0482 3.75 23.7125 3.41421 23.7125 3C23.7125 2.58579 24.0482 2.25 24.4625 2.25H28.9998C29.414 2.25 29.7498 2.58579 29.7498 3V7.53735C29.7498 7.95156 29.414 8.28735 28.9998 8.28735C28.5856 8.28735 28.2498 7.95156 28.2498 7.53735V4.81066L22.0082 11.0523C22.7468 12.267 22.5912 13.8726 21.5413 14.9225C20.3087 16.1551 18.3102 16.1551 17.0776 14.9225C15.845 13.6899 15.845 11.6914 17.0776 10.4588C18.1274 9.40905 19.7328 9.25308 20.9475 9.99164L27.1891 3.75H24.4625ZM20.4806 11.5192C19.8339 10.8725 18.7852 10.8726 18.1383 11.5195C17.4915 12.1663 17.4915 13.215 18.1383 13.8619C18.7851 14.5087 19.8338 14.5087 20.4806 13.8619C21.1274 13.2151 21.1274 12.1661 20.4806 11.5192Z" fill="#2B63D9"/>
<path fill-rule="evenodd" clip-rule="evenodd" d="M13.8615 18.138C13.2147 17.4912 12.166 17.4912 11.5192 18.138C10.8724 18.7848 10.8724 19.8338 11.5192 20.4806C12.166 21.1273 13.2146 21.1273 13.8615 20.4804C14.5083 19.8335 14.5083 18.7848 13.8615 18.138ZM10.4585 17.0773C11.6911 15.8447 13.6896 15.8447 14.9222 17.0773C16.1548 18.31 16.1548 20.3084 14.9222 21.541C13.8724 22.5908 12.267 22.7468 11.0523 22.0082L4.81066 28.2499L7.53735 28.2499C7.95156 28.2499 8.28735 28.5856 8.28735 28.9999C8.28735 29.4141 7.95156 29.7499 7.53735 29.7499L3 29.7499C2.58579 29.7499 2.25 29.4141 2.25 28.9999L2.25 24.4625C2.25 24.0483 2.58579 23.7125 3 23.7125C3.41421 23.7125 3.75 24.0483 3.75 24.4625L3.75 27.1892L9.99164 20.9476C9.25305 19.7329 9.4086 18.1272 10.4585 17.0773Z" fill="#2B63D9"/>
</svg>
