<svg width="32" height="32" viewBox="0 0 32 32" fill="none" xmlns="http://www.w3.org/2000/svg">
<g opacity="0.15">
<path d="M26 9.75H6C5.44772 9.75 5 10.1977 5 10.75V11.75C5 12.3023 5.44772 12.75 6 12.75H26C26.5523 12.75 27 12.3023 27 11.75V10.75C27 10.1977 26.5523 9.75 26 9.75Z" fill="#2B63D9"/>
<path d="M23 15.75H6C5.44772 15.75 5 16.1977 5 16.75V17.75C5 18.3023 5.44771 18.75 6 18.75H23C23.5523 18.75 24 18.3023 24 17.75V16.75C24 16.1977 23.5523 15.75 23 15.75Z" fill="#2B63D9"/>
<path d="M17 21.75H6C5.44772 21.75 5 22.1977 5 22.75V23.75C5 24.3023 5.44772 24.75 6 24.75H17C17.5523 24.75 18 24.3023 18 23.75V22.75C18 22.1977 17.5523 21.75 17 21.75Z" fill="#2B63D9"/>
</g>
<path fill-rule="evenodd" clip-rule="evenodd" d="M5.25004 5.25C5.66425 5.25 6.00004 5.58579 6.00004 6L6.00004 7.50004H26C26.4142 7.50004 26.75 7.83583 26.75 8.25004V11.25C26.75 11.6643 26.4142 12 26 12H6.00003L6.00002 13.5H23C23.4142 13.5 23.75 13.8358 23.75 14.25V17.25C23.75 17.6643 23.4142 18 23 18H6.00002L6.00001 19.5H17C17.4142 19.5 17.75 19.8358 17.75 20.25V23.25C17.75 23.6643 17.4142 24 17 24H6L6 25.75H26.25C26.6643 25.75 27 26.0858 27 26.5C27 26.9142 26.6643 27.25 26.25 27.25H5.25C5.05109 27.25 4.86032 27.171 4.71967 27.0303C4.57902 26.8897 4.5 26.6989 4.5 26.5L4.50004 6C4.50004 5.58579 4.83583 5.25 5.25004 5.25ZM6.00001 22.5H16.25V21H6.00001L6.00001 22.5ZM6.00002 16.5H22.25V15H6.00002L6.00002 16.5ZM6.00003 10.5H25.25V9.00004H6.00003L6.00003 10.5Z" fill="#2B63D9"/>
</svg>
