<svg width="32" height="32" viewBox="0 0 32 32" fill="none" xmlns="http://www.w3.org/2000/svg">
<path d="M27.4545 25.3636V10.3182C27.4545 9.48976 26.783 8.81818 25.9545 8.81818H6.04545C5.21703 8.81818 4.54545 9.48976 4.54545 10.3182V25.3636M2.75 25.8864H29.25M8.36364 8.81818L15.1056 5.44721C15.6686 5.16569 16.3314 5.16569 16.8944 5.44721L23.6364 8.81818" stroke="#2B63D9" stroke-width="1.5" stroke-linecap="round"/>
<circle cx="16" cy="6.27273" r="1.27273" fill="#2B63D9"/>
<path d="M8 17.3902C9.01866 18.9268 12.3019 22 15.875 22C19.4481 22 22.8097 19.3659 23.75 17.3902C22.8881 15.9268 20.3884 13 15.875 13C12.9352 13 10.7501 14.2417 9.41045 15.5119M18 17.5C18 18.6046 17.1046 19.5 16 19.5C14.8954 19.5 14 18.6046 14 17.5C14 16.3954 14.8954 15.5 16 15.5C17.1046 15.5 18 16.3954 18 17.5Z" stroke="#2B63D9" stroke-width="1.5" stroke-linecap="round" stroke-linejoin="round"/>
</svg>
