<svg width="32" height="32" viewBox="0 0 32 32" fill="none" xmlns="http://www.w3.org/2000/svg">
<path opacity="0.15" d="M7.73292 5.03906H16.6201C18.1078 5.03906 19.3139 6.24509 19.3139 7.7328V8.99407H23.2012L28.9999 14.7517V25.0908C28.9999 26.8024 27.6124 28.1899 25.9009 28.1899H17.3105C15.5989 28.1899 14.2114 26.8024 14.2114 25.0908V15.915H13.3661L10.59 17.7657C10.2512 17.9916 9.79741 17.7487 9.79741 17.3415V15.915H7.73292C6.24521 15.915 5.03918 14.709 5.03918 13.2213V7.7328C5.03918 6.24509 6.24521 5.03906 7.73292 5.03906Z" fill="#2B63D9"/>
<path fill-rule="evenodd" clip-rule="evenodd" d="M18.9832 6.56917C18.9832 6.15496 19.319 5.81917 19.7332 5.81917H21.2185C21.4165 5.81917 21.6064 5.89742 21.7469 6.03687L27.5468 11.7939C27.7021 11.9481 27.7794 12.1587 27.7673 12.3695V22.6659C27.7673 24.7917 26.044 26.515 23.9182 26.515H15.3278C13.202 26.515 11.4787 24.7917 11.4787 22.6659V16.1671C11.4787 15.7529 11.8145 15.4171 12.2287 15.4171C12.6429 15.4171 12.9787 15.7529 12.9787 16.1671V22.6659C12.9787 23.9632 14.0304 25.015 15.3278 25.015H23.9182C25.2156 25.015 26.2673 23.9632 26.2673 22.6659V13.0762H23.0725C21.7735 13.0762 20.4685 12.0205 20.4685 10.581V7.31917H19.7332C19.319 7.31917 18.9832 6.98338 18.9832 6.56917ZM21.9685 8.37076V10.581C21.9685 11.0701 22.4745 11.5762 23.0725 11.5762H25.1969L21.9685 8.37076Z" fill="#2B63D9"/>
<path fill-rule="evenodd" clip-rule="evenodd" d="M18.2037 16.51C18.2037 16.0877 18.5461 15.7453 18.9684 15.7453H23.5567C23.979 15.7453 24.3214 16.0877 24.3214 16.51C24.3214 16.9324 23.979 17.2748 23.5567 17.2748H18.9684C18.5461 17.2748 18.2037 16.9324 18.2037 16.51Z" fill="#2B63D9"/>
<path d="M16.6743 16.51C16.6743 16.9323 16.3319 17.2747 15.9095 17.2747C15.4872 17.2747 15.1448 16.9323 15.1448 16.51C15.1448 16.0876 15.4872 15.7453 15.9095 15.7453C16.3319 15.7453 16.6743 16.0876 16.6743 16.51Z" fill="#2B63D9"/>
<path fill-rule="evenodd" clip-rule="evenodd" d="M18.2037 20.5885C18.2037 20.1662 18.5461 19.8238 18.9684 19.8238H23.5567C23.979 19.8238 24.3214 20.1662 24.3214 20.5885C24.3214 21.0109 23.979 21.3532 23.5567 21.3532H18.9684C18.5461 21.3532 18.2037 21.0109 18.2037 20.5885Z" fill="#2B63D9"/>
<path d="M16.6743 20.5884C16.6743 21.0108 16.3319 21.3532 15.9095 21.3532C15.4872 21.3532 15.1448 21.0108 15.1448 20.5884C15.1448 20.1661 15.4872 19.8237 15.9095 19.8237C16.3319 19.8237 16.6743 20.1661 16.6743 20.5884Z" fill="#2B63D9"/>
<path fill-rule="evenodd" clip-rule="evenodd" d="M2.25 5.69374C2.25 3.79182 3.79181 2.25 5.69374 2.25H14.5809C16.4829 2.25 18.0247 3.79181 18.0247 5.69374V11.1822C18.0247 13.0841 16.4829 14.6259 14.5809 14.6259H11.58L8.21211 17.1916C7.9853 17.3643 7.68014 17.3936 7.42465 17.267C7.16917 17.1404 7.00756 16.8799 7.00762 16.5948L7.00806 14.6259H5.69374C3.79181 14.6259 2.25 13.0841 2.25 11.1822V5.69374ZM5.69374 3.75C4.62024 3.75 3.75 4.62024 3.75 5.69374V11.1822C3.75 12.2557 4.62024 13.1259 5.69374 13.1259H7.75823C7.95717 13.1259 8.14796 13.205 8.28862 13.3457C8.42927 13.4864 8.50827 13.6772 8.50823 13.8761L8.50796 15.0805L10.8724 13.2793C11.003 13.1798 11.1627 13.1259 11.3269 13.1259H14.5809C15.6544 13.1259 16.5247 12.2557 16.5247 11.1822V5.69374C16.5247 4.62024 15.6544 3.75 14.5809 3.75H5.69374ZM10.1882 6.81355C9.93193 6.83835 9.70956 6.95357 9.61436 7.03766C9.30391 7.31188 8.82995 7.28251 8.55573 6.97206C8.28151 6.66161 8.31089 6.18765 8.62133 5.91343C8.96484 5.61002 9.48824 5.3743 10.0436 5.32053C10.6213 5.2646 11.2991 5.40272 11.8417 5.94524C12.5465 6.64996 12.5422 7.55043 12.1982 8.21895C11.9201 8.75936 11.3731 9.23693 10.7139 9.34512C10.6214 9.65439 10.3346 9.87981 9.99526 9.87981C9.58105 9.87981 9.24526 9.54402 9.24526 9.12981H9.99526C9.24526 9.12981 9.24526 9.13013 9.24526 9.12981L9.24526 9.12853L9.24527 9.12719L9.24528 9.12434L9.24535 9.11798L9.24567 9.10264C9.246 9.09131 9.24656 9.07765 9.24752 9.06199C9.24942 9.03088 9.25297 8.99056 9.25965 8.94377C9.27247 8.85406 9.29947 8.72143 9.36074 8.57846C9.42199 8.43556 9.52999 8.25364 9.71989 8.10595C9.92046 7.94995 10.1669 7.868 10.434 7.868C10.5303 7.868 10.7426 7.76926 10.8644 7.53264C10.9165 7.43141 10.9312 7.33908 10.9228 7.26527C10.9154 7.19983 10.8863 7.11116 10.7811 7.00597C10.6217 6.84656 10.4221 6.7909 10.1882 6.81355ZM10.7451 9.15322C10.745 9.15327 10.7452 9.15269 10.7451 9.15322V9.15322ZM9.99483 10.203C10.409 10.203 10.7448 10.5388 10.7448 10.953V10.9969C10.7448 11.4111 10.409 11.7469 9.99483 11.7469C9.58062 11.7469 9.24483 11.4111 9.24483 10.9969V10.953C9.24483 10.5388 9.58062 10.203 9.99483 10.203Z" fill="#2B63D9"/>
</svg>
