<svg width="32" height="32" viewBox="0 0 32 32" fill="none" xmlns="http://www.w3.org/2000/svg">
<path opacity="0.15" d="M26.4854 12.1853V25.9606C26.4854 27.6392 25.1246 29 23.4459 29H11.0204C9.34176 29 7.98096 27.6392 7.98096 25.9606V8.02038C7.98096 6.34175 9.34175 4.98096 11.0204 4.98096H19.2296L26.4854 12.1853Z" fill="#2B63D9"/>
<path fill-rule="evenodd" clip-rule="evenodd" d="M9.01043 3.75C7.76203 3.75 6.75 4.76203 6.75 6.01043V24.0086C6.75 25.2571 7.76203 26.2691 9.01043 26.2691H21.494C22.7424 26.2691 23.7544 25.2571 23.7544 24.0086V10.9537H19.5684C18.0311 10.9537 16.4987 9.70161 16.4987 8.01989V3.75H9.01043ZM17.9987 4.80159V8.01989C17.9987 8.75134 18.7322 9.45374 19.5684 9.45374H22.684L17.9987 4.80159ZM17.7771 2.46779C17.6366 2.32833 17.4466 2.25 17.2487 2.25H9.01043C6.9336 2.25 5.25 3.9336 5.25 6.01043V24.0086C5.25 26.0855 6.9336 27.7691 9.01043 27.7691H21.494C23.5708 27.7691 25.2544 26.0855 25.2544 24.0086V10.252C25.2681 10.0396 25.1908 9.82681 25.0343 9.67145L17.7771 2.46779Z" fill="#2B63D9"/>
<path fill-rule="evenodd" clip-rule="evenodd" d="M10.0131 12.6684C9.76853 12.6921 9.55683 12.8023 9.4679 12.8808C9.15745 13.155 8.68348 13.1257 8.40927 12.8152C8.13505 12.5048 8.16442 12.0308 8.47487 11.7566C8.8121 11.4587 9.32484 11.228 9.86859 11.1754C10.4346 11.1206 11.0999 11.2559 11.6325 11.7884C12.3247 12.4806 12.3204 13.3657 11.9827 14.022C11.712 14.5482 11.1808 15.0147 10.5384 15.1252C10.4419 15.4278 10.1584 15.647 9.8237 15.647C9.40949 15.647 9.0737 15.3113 9.0737 14.897H9.8237C9.0737 14.897 9.0737 14.8974 9.0737 14.897L9.07371 14.8958L9.07371 14.8944L9.07372 14.8916L9.07379 14.8853L9.07411 14.87C9.07444 14.8588 9.07499 14.8453 9.07594 14.8299C9.07782 14.7991 9.08132 14.7594 9.0879 14.7133C9.10052 14.625 9.12713 14.4942 9.18762 14.353C9.24808 14.2119 9.35491 14.0319 9.54304 13.8855C9.74185 13.7309 9.98594 13.6499 10.2499 13.6499C10.284 13.6499 10.3516 13.6362 10.4375 13.577C10.5225 13.5184 10.5992 13.4323 10.6489 13.3357C10.6979 13.2406 10.7111 13.1551 10.7035 13.0883C10.6968 13.0297 10.6708 12.948 10.5719 12.8491C10.4225 12.6997 10.2355 12.6468 10.0131 12.6684ZM10.5737 14.8977L10.5737 14.8995L10.5737 14.9018L10.5736 14.906L10.5735 14.9129L10.5731 14.9215C10.573 14.9237 10.5729 14.9249 10.5728 14.9254M14.1641 14.0929C14.1641 13.6787 14.4999 13.3429 14.9141 13.3429H20.2626C20.6768 13.3429 21.0126 13.6787 21.0126 14.0929C21.0126 14.5071 20.6768 14.8429 20.2626 14.8429H14.9141C14.4999 14.8429 14.1641 14.5071 14.1641 14.0929ZM9.82329 15.9181C10.2375 15.9181 10.5733 16.2539 10.5733 16.6681V16.7107C10.5733 17.125 10.2375 17.4607 9.82329 17.4607C9.40907 17.4607 9.07329 17.125 9.07329 16.7107V16.6681C9.07329 16.2539 9.40907 15.9181 9.82329 15.9181ZM13.4407 18.2949C13.7457 18.5752 13.7657 19.0497 13.4854 19.3547L10.7546 22.326C10.4758 22.6294 10.0045 22.651 9.69907 22.3746L8.46807 21.2603C8.16098 20.9823 8.13737 20.508 8.41535 20.2009C8.69332 19.8939 9.1676 19.8702 9.47469 20.1482L10.1539 20.763L12.381 18.3396C12.6613 18.0347 13.1358 18.0146 13.4407 18.2949ZM14.1641 20.8281C14.1641 20.4139 14.4999 20.0781 14.9141 20.0781H20.2626C20.6768 20.0781 21.0126 20.4139 21.0126 20.8281C21.0126 21.2423 20.6768 21.5781 20.2626 21.5781H14.9141C14.4999 21.5781 14.1641 21.2423 14.1641 20.8281Z" fill="#2B63D9"/>
</svg>
