<svg width="32" height="32" viewBox="0 0 32 32" fill="none" xmlns="http://www.w3.org/2000/svg">
<g opacity="0.15">
<path d="M4.9259 9.88874C4.9259 9.35691 5.35704 8.92578 5.88887 8.92578H28.037C28.5688 8.92578 29 9.35691 29 9.88874V14.7036C29 15.2354 28.5688 15.6665 28.037 15.6665H5.88887C5.35704 15.6665 4.9259 15.2354 4.9259 14.7036V9.88874Z" fill="#2B63D9"/>
<path d="M4.9259 19.5184C4.9259 18.9865 5.35704 18.5554 5.88887 18.5554H28.037C28.5688 18.5554 29 18.9865 29 19.5184V24.3332C29 24.865 28.5688 25.2962 28.037 25.2962H5.88887C5.35704 25.2962 4.9259 24.865 4.9259 24.3332V19.5184Z" fill="#2B63D9"/>
</g>
<path fill-rule="evenodd" clip-rule="evenodd" d="M4.44444 8.44444V13.1134H26.5926V8.44444H4.44444ZM3.96296 7C3.43113 7 3 7.43113 3 7.96296V13.5948C3 14.1267 3.43113 14.5578 3.96296 14.5578H27.0741C27.6059 14.5578 28.037 14.1267 28.037 13.5948V7.96296C28.037 7.43113 27.6059 7 27.0741 7H3.96296Z" fill="#2B63D9"/>
<path d="M24.1852 10.8517C24.1852 11.1176 23.9696 11.3332 23.7037 11.3332C23.4378 11.3332 23.2222 11.1176 23.2222 10.8517C23.2222 10.5858 23.4378 10.3702 23.7037 10.3702C23.9696 10.3702 24.1852 10.5858 24.1852 10.8517Z" fill="#2B63D9"/>
<path d="M22.2593 10.8517C22.2593 11.1176 22.0437 11.3332 21.7778 11.3332C21.5119 11.3332 21.2963 11.1176 21.2963 10.8517C21.2963 10.5858 21.5119 10.3702 21.7778 10.3702C22.0437 10.3702 22.2593 10.5858 22.2593 10.8517Z" fill="#2B63D9"/>
<path fill-rule="evenodd" clip-rule="evenodd" d="M5.88889 10.8518C5.88889 10.5859 6.10446 10.3704 6.37037 10.3704H18.8889C19.1548 10.3704 19.3704 10.5859 19.3704 10.8518C19.3704 11.1178 19.1548 11.3333 18.8889 11.3333H6.37037C6.10446 11.3333 5.88889 11.1178 5.88889 10.8518Z" fill="#2B63D9"/>
<path fill-rule="evenodd" clip-rule="evenodd" d="M4.44444 18.0741V22.743H26.5926V18.0741H4.44444ZM3.96296 16.6296C3.43113 16.6296 3 17.0608 3 17.5926V23.2245C3 23.7563 3.43113 24.1874 3.96296 24.1874H27.0741C27.6059 24.1874 28.037 23.7563 28.037 23.2245V17.5926C28.037 17.0608 27.6059 16.6296 27.0741 16.6296H3.96296Z" fill="#2B63D9"/>
<path d="M24.1852 20.4814C24.1852 20.7473 23.9696 20.9628 23.7037 20.9628C23.4378 20.9628 23.2222 20.7473 23.2222 20.4814C23.2222 20.2154 23.4378 19.9999 23.7037 19.9999C23.9696 19.9999 24.1852 20.2154 24.1852 20.4814Z" fill="#2B63D9"/>
<path d="M22.2593 20.4815C22.2593 20.7474 22.0437 20.963 21.7778 20.963C21.5119 20.963 21.2963 20.7474 21.2963 20.4815C21.2963 20.2156 21.5119 20 21.7778 20C22.0437 20 22.2593 20.2156 22.2593 20.4815Z" fill="#2B63D9"/>
<path fill-rule="evenodd" clip-rule="evenodd" d="M5.88889 20.4815C5.88889 20.2156 6.10446 20 6.37037 20H18.8889C19.1548 20 19.3704 20.2156 19.3704 20.4815C19.3704 20.7474 19.1548 20.963 18.8889 20.963H6.37037C6.10446 20.963 5.88889 20.7474 5.88889 20.4815Z" fill="#2B63D9"/>
</svg>
