<svg width="32" height="32" viewBox="0 0 32 32" fill="none" xmlns="http://www.w3.org/2000/svg">
<path d="M16 5.25C15.5858 5.25 15.25 5.58579 15.25 6C15.25 6.41421 15.5858 6.75 16 6.75V5.25ZM7.33782 11L7.98703 11.3755L7.98703 11.3755L7.33782 11ZM9.83352 9.10516C10.1422 8.82892 10.1684 8.35477 9.89218 8.04613C9.61594 7.73748 9.14179 7.71122 8.83315 7.98746L9.83352 9.10516ZM6 7.06818C5.58579 7.06818 5.25 7.40397 5.25 7.81818C5.25 8.2324 5.58579 8.56818 6 8.56818V7.06818ZM10.5455 7.81818H11.2955C11.2955 7.40397 10.9597 7.06818 10.5455 7.06818V7.81818ZM9.79545 12.3636C9.79545 12.7779 10.1312 13.1136 10.5455 13.1136C10.9597 13.1136 11.2955 12.7779 11.2955 12.3636H9.79545ZM25.25 16C25.25 21.1086 21.1086 25.25 16 25.25V26.75C21.9371 26.75 26.75 21.9371 26.75 16H25.25ZM16 25.25C10.8914 25.25 6.75 21.1086 6.75 16H5.25C5.25 21.9371 10.0629 26.75 16 26.75V25.25ZM16 6.75C21.1086 6.75 25.25 10.8914 25.25 16H26.75C26.75 10.0629 21.9371 5.25 16 5.25V6.75ZM6.75 16C6.75 14.3139 7.20043 12.7353 7.98703 11.3755L6.68862 10.6245C5.77351 12.2064 5.25 14.0432 5.25 16H6.75ZM7.98703 11.3755C8.47971 10.5238 9.10452 9.75763 9.83352 9.10516L8.83315 7.98746C7.98687 8.7449 7.26121 9.63462 6.68862 10.6245L7.98703 11.3755ZM6 8.56818H10.5455V7.06818H6V8.56818ZM9.79545 7.81818V12.3636H11.2955V7.81818H9.79545Z" fill="#2B63D9"/>
<path d="M15.8398 10.5449L15.8418 16.7506H20.5435" stroke="#2B63D9" stroke-width="1.5" stroke-linecap="round" stroke-linejoin="round"/>
</svg>
