<svg width="32" height="32" viewBox="0 0 32 32" fill="none" xmlns="http://www.w3.org/2000/svg">
<rect opacity="0.15" x="4" y="7" width="8.27588" height="6.20691" rx="1" fill="#2B63D9"/>
<path fill-rule="evenodd" clip-rule="evenodd" d="M3.25 7.51724C3.25 6.81736 3.81736 6.25 4.51724 6.25H9.68967C10.3895 6.25 10.9569 6.81736 10.9569 7.51724V10.6207C10.9569 11.3206 10.3895 11.8879 9.68967 11.8879H4.51724C3.81736 11.8879 3.25 11.3206 3.25 10.6207V7.51724ZM4.75 7.75V10.3879H9.45691V7.75H4.75ZM13.5948 7.00005C13.5948 6.58584 13.9306 6.25005 14.3448 6.25005H21.1724C21.5866 6.25005 21.9224 6.58584 21.9224 7.00005C21.9224 7.41426 21.5866 7.75005 21.1724 7.75005H14.3448C13.9306 7.75005 13.5948 7.41426 13.5948 7.00005ZM27.0466 6.40891C27.3715 6.48178 27.6094 6.76009 27.6309 7.09233L28.7484 24.3765C28.7752 24.7898 28.4617 25.1466 28.0484 25.1733C27.635 25.2 27.2783 24.8866 27.2516 24.4733L26.8941 18.9453H21.2005L17.9637 24.7883C17.763 25.1506 17.3065 25.2816 16.9442 25.0809C16.5819 24.8802 16.4508 24.4238 16.6516 24.0614L26.2264 6.77729C26.3877 6.48605 26.7217 6.33604 27.0466 6.40891ZM22.0315 17.4453H26.7971L26.299 9.74159L22.0315 17.4453ZM13.5948 11.138C13.5948 10.7238 13.9306 10.388 14.3448 10.388H18.8965C19.3107 10.388 19.6465 10.7238 19.6465 11.138C19.6465 11.5522 19.3107 11.888 18.8965 11.888H14.3448C13.9306 11.888 13.5948 11.5522 13.5948 11.138ZM3.25 15.2759C3.25 14.8617 3.58579 14.5259 4 14.5259L16.6207 14.5259C17.0349 14.5259 17.3707 14.8617 17.3707 15.2759C17.3707 15.6901 17.0349 16.0259 16.6207 16.0259L4 16.0259C3.58578 16.0259 3.25 15.6901 3.25 15.2759ZM3.25 19.4138C3.25 18.9996 3.58579 18.6638 4 18.6638L14.3449 18.6639C14.7591 18.6639 15.0949 18.9997 15.0948 19.4139C15.0948 19.8281 14.7591 20.1639 14.3448 20.1639L4 20.1638C3.58578 20.1638 3.25 19.828 3.25 19.4138ZM3.25 23.5518C3.25 23.1375 3.58579 22.8018 4 22.8018L11.9655 22.8018C12.3797 22.8018 12.7155 23.1376 12.7155 23.5518C12.7155 23.966 12.3797 24.3018 11.9655 24.3018L4 24.3018C3.58578 24.3018 3.25 23.966 3.25 23.5518Z" fill="#2B63D9"/>
</svg>
