<svg width="32" height="32" viewBox="0 0 32 32" fill="none" xmlns="http://www.w3.org/2000/svg">
<rect width="32" height="32" fill="#F3F5F8"/>
<path d="M11.1044 19.8546C11.1044 20.4839 10.945 21.0426 10.6253 21.5307C10.3066 22.0188 9.84573 22.398 9.24364 22.6693C8.64156 22.9396 7.93661 23.0758 7.12677 23.0758C6.45106 23.0758 5.88427 23.0284 5.4264 22.9336C5.00081 22.8458 4.56009 22.6966 4.10323 22.4868C4.0407 22.4565 3.99733 22.391 3.99733 22.3214V20.2691C3.99733 20.141 4.12945 20.0603 4.24543 20.1148C4.69119 20.3255 5.15209 20.494 5.62811 20.621C6.19288 20.7713 6.71126 20.8469 7.18223 20.8469C7.58967 20.8469 7.88719 20.7764 8.0778 20.6352C8.2674 20.494 8.3622 20.3124 8.3622 20.0906C8.3622 19.9514 8.32388 19.8304 8.24824 19.7265C8.17159 19.6226 8.04956 19.5167 7.88013 19.4108C7.71171 19.3049 7.2609 19.0871 6.52972 18.7583C5.86813 18.4578 5.37194 18.1663 5.04115 17.8839C4.71036 17.6015 4.46529 17.2778 4.30594 16.9127C4.14659 16.5476 4.06692 16.115 4.06692 15.6148C4.06692 14.6799 4.40679 13.9517 5.08754 13.4283C5.76728 12.9059 6.70218 12.6437 7.89122 12.6437C8.88966 12.6437 9.90725 12.8635 10.944 13.3022C11.0328 13.3395 11.0761 13.4444 11.0408 13.5332L10.3318 15.3213C10.2955 15.4131 10.1876 15.4534 10.0969 15.4131C9.21944 15.0288 8.457 14.8362 7.80852 14.8362C7.45252 14.8362 7.19333 14.8987 7.03096 15.0238C6.86858 15.1488 6.7879 15.3041 6.7879 15.4887C6.7879 15.6874 6.89077 15.8659 7.09651 16.0232C7.30225 16.1805 7.86097 16.467 8.77267 16.8835C9.64705 17.2768 10.2542 17.6994 10.5941 18.1502C10.9349 18.602 11.1044 19.1698 11.1044 19.8546Z" fill="#0B233F"/>
<path d="M28.0556 19.8546C28.0556 20.4839 27.8963 21.0426 27.5766 21.5307C27.2579 22.0189 26.797 22.3981 26.1949 22.6694C25.5928 22.9396 24.8879 23.0758 24.078 23.0758C23.4023 23.0758 22.8355 23.0284 22.3777 22.9336C21.9521 22.8458 21.5113 22.6966 21.0545 22.4868C20.991 22.4576 20.9476 22.392 20.9476 22.3224V20.2701C20.9476 20.142 21.0797 20.0613 21.1957 20.1158C21.6414 20.3266 22.1023 20.495 22.5784 20.6221C23.1431 20.7723 23.6615 20.848 24.1325 20.848C24.5399 20.848 24.8374 20.7774 25.028 20.6362C25.2177 20.495 25.3125 20.3135 25.3125 20.0916C25.3125 19.9524 25.2741 19.8314 25.1985 19.7275C25.1218 19.6236 24.9998 19.5177 24.8304 19.4118C24.662 19.3059 24.2111 19.0881 23.48 18.7593C22.8184 18.4588 22.3222 18.1673 21.9914 17.8849C21.6606 17.6026 21.4155 17.2788 21.2562 16.9137C21.0968 16.5487 21.0172 16.116 21.0172 15.6158C21.0172 14.6809 21.357 13.9527 22.0378 13.4293C22.7175 12.9069 23.6524 12.6447 24.8415 12.6447C25.8399 12.6447 26.8575 12.8645 27.8943 13.3032C27.983 13.3406 28.0264 13.4454 27.9911 13.5342L27.2821 15.3223C27.2458 15.4141 27.1379 15.4544 27.0471 15.4141C26.1697 15.0298 25.4073 14.8372 24.7588 14.8372C24.4028 14.8372 24.1436 14.8997 23.9812 15.0248C23.8188 15.1498 23.7382 15.3052 23.7382 15.4897C23.7382 15.6884 23.841 15.8669 24.0468 16.0242C24.2525 16.1816 24.8112 16.468 25.7229 16.8845C26.5973 17.2778 27.2044 17.7004 27.5443 18.1512C27.8862 18.602 28.0556 19.1698 28.0556 19.8546Z" fill="#0B233F"/>
<path d="M19.25 20.0674C18.8032 20.2781 18.3413 20.4476 17.8653 20.5746C17.3025 20.7249 16.7852 20.7995 16.3142 20.7995C15.9077 20.7995 15.6102 20.729 15.4206 20.5878C15.2794 20.4829 15.1907 20.3548 15.1554 20.2045C15.1544 20.1965 15.1524 20.1904 15.1524 20.1823C15.1473 20.1581 15.1463 20.1319 15.1443 20.1067V17.2415V14.8624V13.2185C15.1443 13.1046 15.0545 13.0087 14.9406 13.0047C14.4242 12.9825 13.9704 12.9311 13.567 12.8484C13.2836 12.7899 12.9941 12.7092 12.7007 12.6063C12.5615 12.5579 12.4021 12.6608 12.4021 12.8081V12.9593V12.9583V17.2828V20.3487C12.4021 21.2736 12.6028 21.9604 13.0062 22.4061C13.4086 22.8529 14.0662 23.0758 14.9769 23.0758C14.9769 23.0758 17.4175 23.1534 18.8657 22.6492H18.8667C18.8667 22.6492 18.8798 22.6441 18.902 22.6361C18.9313 22.626 18.9595 22.6149 18.9878 22.6038C19.1148 22.5554 19.3085 22.4797 19.3902 22.4333C19.4537 22.4041 19.494 22.3396 19.494 22.27V20.2227C19.493 20.0986 19.3629 20.0139 19.25 20.0674Z" fill="#0B233F"/>
<path d="M27.4586 11.025H4.59449C4.2647 11.025 3.99744 10.7577 3.99744 10.4279V9.41336C3.99744 9.08358 4.2647 8.81632 4.59449 8.81632H27.4596C27.7894 8.81632 28.0567 9.08358 28.0567 9.41336V10.4289C28.0556 10.7577 27.7884 11.025 27.4586 11.025Z" fill="#E75D72"/>
</svg>
