<svg width="32" height="32" viewBox="0 0 32 32" fill="none" xmlns="http://www.w3.org/2000/svg">
<path d="M8.63569 25.5H23.288C24.9028 25.5 26.2118 24.1909 26.2118 22.5761V11.9229C26.2118 11.1474 25.9038 10.4038 25.3555 9.85542L21.3564 5.85635C20.808 5.30802 20.0644 4.99997 19.2889 4.99997H8.63569C7.02089 4.99997 5.71183 6.30903 5.71183 7.92383V22.5761C5.71183 24.1909 7.02089 25.5 8.63569 25.5Z" stroke="#2B63D9" stroke-width="1.5"/>
<path d="M22.4061 26.1078V17.7127C22.4061 16.9119 21.7569 16.2627 20.9561 16.2627H11.0575C10.2567 16.2627 9.60748 16.9119 9.60748 17.7127V26.1078" stroke="#2B63D9" stroke-width="1.5"/>
<path d="M10.1194 5L10.1194 9.69331C10.1194 10.4941 10.7686 11.1433 11.5694 11.1433L17.8844 11.1433C18.6852 11.1433 19.3344 10.4941 19.3344 9.69331L19.3344 5" stroke="#2B63D9" stroke-width="1.5"/>
<path d="M16.2628 11.1433L16.2628 5" stroke="#2B63D9" stroke-width="1.5"/>
</svg>
