<svg width="32" height="32" viewBox="0 0 32 32" fill="none" xmlns="http://www.w3.org/2000/svg">
<circle opacity="0.15" cx="16.588" cy="16.4041" r="8.30348" fill="#2B63D9"/>
<path fill-rule="evenodd" clip-rule="evenodd" d="M14.4469 6.75C10.196 6.75 6.75 10.196 6.75 14.4469C6.75 18.6978 10.196 22.1439 14.4469 22.1439C18.6978 22.1439 22.1439 18.6978 22.1439 14.4469C22.1439 10.196 18.6978 6.75 14.4469 6.75ZM5.25 14.4469C5.25 9.36761 9.36761 5.25 14.4469 5.25C19.5263 5.25 23.6439 9.36761 23.6439 14.4469C23.6439 16.707 22.8287 18.7767 21.4762 20.3779L26.568 25.4697C26.8609 25.7626 26.8609 26.2374 26.568 26.5303C26.2751 26.8232 25.8002 26.8232 25.5073 26.5303L20.4186 21.4416C18.8118 22.8147 16.7262 23.6439 14.4469 23.6439C9.36761 23.6439 5.25 19.5263 5.25 14.4469Z" fill="#2B63D9"/>
</svg>
