<svg width="32" height="32" viewBox="0 0 32 32" fill="none" xmlns="http://www.w3.org/2000/svg">
<path opacity="0.15" d="M24.2518 29H9.74824C8.23043 29 7 27.211 7 25.0042V6.99579C7 4.78898 8.23043 3 9.74824 3H13.8192C13.9697 3 14.1112 3.10474 14.1998 3.28178L16.1123 7.10526H25.5882C26.3679 7.10526 27 8.02426 27 9.15789V13.2632V13.9474V25.0042C27 27.211 25.7696 29 24.2518 29Z" fill="#2B63D9"/>
<path d="M13.5662 5.22966L23 5.22966C24.1046 5.22966 25 6.12509 25 7.22966L25 26C25 27.1046 24.1046 28 23 28L7 28C5.89543 28 5 27.1046 5 26L5 5C5 3.89543 5.89543 3 7 3L11.4444 3C12.3594 3 13.1577 3.62093 13.3829 4.50777L14.0908 7.2958C14.316 8.18264 15.1143 8.80357 16.0293 8.80357L24 8.80357" stroke="#2B63D9" stroke-width="1.5" stroke-linecap="round" stroke-linejoin="round"/>
<path opacity="0.7" d="M22.2518 28H7.74824C6.23043 28 5 26.2798 5 24.1579V6.8421C5 4.72017 6.23043 3 7.74824 3H11.8192C11.9697 3 12.1112 3.10071 12.1998 3.27094L14.1123 7.90891L23.5882 8.87045C24.3679 8.87045 25 8.79255 25 9.88259V12.8684V13.5263V24.1579C25 26.2798 23.7696 28 22.2518 28Z" fill="#2B63D9"/>
</svg>
