<svg width="32" height="32" viewBox="0 0 32 32" fill="none" xmlns="http://www.w3.org/2000/svg">
<path fill-rule="evenodd" clip-rule="evenodd" d="M25.0182 22.5853C25.7086 22.5853 26.2682 22.0256 26.2682 21.3353L26.2682 9.75C26.2682 9.05964 25.7086 8.5 25.0182 8.5L7.75 8.5C7.05965 8.5 6.5 9.05964 6.5 9.75L6.5 21.3353C6.5 22.0256 7.05964 22.5853 7.75 22.5853L25.0182 22.5853ZM27.7682 21.3353C27.7682 22.854 26.537 24.0853 25.0182 24.0853L7.75 24.0853C6.23122 24.0853 5 22.854 5 21.3353L5 9.75C5 8.23122 6.23122 7 7.75 7L25.0182 7C26.537 7 27.7682 8.23122 27.7682 9.75L27.7682 21.3353Z" fill="#2B63D9"/>
<path d="M18.9277 17.1465H23.5513M18.9277 19.8968H23.5513" stroke="#2B63D9" stroke-width="1.5" stroke-miterlimit="10" stroke-linecap="round" stroke-linejoin="round"/>
<path d="M15.3667 17.1465H10.1797C9.90355 17.1465 9.67969 17.3703 9.67969 17.6465V19.3968C9.67969 19.673 9.90355 19.8968 10.1797 19.8968H15.3667C15.6429 19.8968 15.8667 19.673 15.8667 19.3968V17.6465C15.8667 17.3703 15.6429 17.1465 15.3667 17.1465Z" stroke="#2B63D9" stroke-width="1.5" stroke-miterlimit="10" stroke-linecap="round" stroke-linejoin="round"/>
<path d="M23.0503 11.6465H10.1797C9.90355 11.6465 9.67969 11.8703 9.67969 12.1465V13.8968C9.67969 14.173 9.90355 14.3968 10.1797 14.3968H23.0503C23.3264 14.3968 23.5502 14.173 23.5502 13.8968V12.1465C23.5502 11.8703 23.3264 11.6465 23.0503 11.6465Z" stroke="#2B63D9" stroke-width="1.5" stroke-miterlimit="10" stroke-linecap="round" stroke-linejoin="round"/>
</svg>
