<svg width="32" height="32" viewBox="0 0 32 32" fill="none" xmlns="http://www.w3.org/2000/svg">
<path d="M26.2306 13.3381C25.9704 13.2815 25.7597 13.0912 25.677 12.8381C25.5153 12.3429 25.3149 11.8598 25.0782 11.3942C24.9575 11.1567 24.9719 10.8729 25.1159 10.6488L26.2221 8.92813L26.2306 13.3381ZM26.2306 13.3381L28.2287 13.7724C28.2287 13.7724 28.2287 13.7725 28.2288 13.7725C28.2413 13.7752 28.25 13.7863 28.25 13.7988V18.2012C28.25 18.2137 28.2413 18.2248 28.2288 18.2275C28.2287 18.2275 28.2287 18.2276 28.2287 18.2276L26.2306 18.6619C25.9704 18.7185 25.7597 18.9088 25.677 19.1619C25.5153 19.6571 25.3149 20.1402 25.0782 20.6058C24.9575 20.8433 24.9719 21.1271 25.1159 21.3512L26.2221 23.0719C26.229 23.0826 26.2274 23.0967 26.2186 23.1055L23.1055 26.2186L23.1053 26.2188C23.0968 26.2273 23.0829 26.2292 23.0719 26.2221L21.3512 25.1159C21.1271 24.9719 20.8433 24.9575 20.6058 25.0782C20.1402 25.3149 19.6571 25.5153 19.1619 25.677C18.9088 25.7597 18.7185 25.9704 18.6619 26.2306L18.2275 28.2289L18.2275 28.229C18.2249 28.241 18.214 28.25 18.2012 28.25H13.7988C13.786 28.25 13.7751 28.241 13.7725 28.229L13.7725 28.2289L13.3381 26.2306C13.2815 25.9704 13.0912 25.7597 12.8381 25.677C12.3429 25.5153 11.8598 25.3149 11.3942 25.0782C11.1567 24.9575 10.8729 24.9719 10.6488 25.1159L8.92813 26.2221L26.2306 13.3381ZM21.3512 6.88405C21.1271 7.02815 20.8433 7.0425 20.6058 6.92175C20.1402 6.68511 19.6571 6.48474 19.1619 6.32301C18.9088 6.24033 18.7185 6.02962 18.6619 5.7694L18.2275 3.77108L18.2275 3.77096C18.2249 3.75899 18.214 3.75 18.2012 3.75H13.7988C13.786 3.75 13.7751 3.75899 13.7725 3.77096L13.7725 3.77108L13.3381 5.7694C13.2815 6.02962 13.0912 6.24033 12.8381 6.32301C12.3429 6.48474 11.8598 6.68511 11.3942 6.92175C11.1567 7.0425 10.8729 7.02815 10.6488 6.88405L8.92813 5.77786C8.92811 5.77785 8.92809 5.77783 8.92807 5.77782C8.91732 5.77096 8.90326 5.77261 8.8945 5.78137L5.78137 8.8945C5.77261 8.90326 5.77096 8.91732 5.77782 8.92807C5.77783 8.92809 5.77785 8.92811 5.77786 8.92813L6.88405 10.6488C7.02815 10.8729 7.0425 11.1567 6.92175 11.3942C6.68511 11.8598 6.48474 12.3429 6.32301 12.8381C6.24033 13.0912 6.02962 13.2815 5.7694 13.3381L3.77135 13.7724C3.77131 13.7724 3.77127 13.7725 3.77123 13.7725C3.75869 13.7753 3.75 13.7863 3.75 13.7988V18.2012C3.75 18.2137 3.75869 18.2247 3.77123 18.2275C3.77127 18.2275 3.77131 18.2276 3.77135 18.2276L5.7694 18.6619C6.02962 18.7185 6.24033 18.9088 6.32301 19.1619C6.48474 19.6571 6.68511 20.1402 6.92175 20.6058C7.0425 20.8433 7.02815 21.1271 6.88405 21.3512L5.77786 23.0719C5.77095 23.0826 5.77259 23.0967 5.78137 23.1055L8.8945 26.2186C8.90324 26.2274 8.91726 26.229 8.92799 26.2222L21.3512 6.88405ZM21.3512 6.88405L23.0719 5.77786C23.0826 5.77095 23.0967 5.77259 23.1055 5.78137L26.2186 8.8945C26.2274 8.90324 26.229 8.91726 26.2222 8.92799L21.3512 6.88405ZM16 21.4114C18.9844 21.4114 21.4114 18.9844 21.4114 16C21.4114 13.0156 18.9844 10.5886 16 10.5886C13.0156 10.5886 10.5886 13.0156 10.5886 16C10.5886 18.9844 13.0156 21.4114 16 21.4114Z" stroke="#2B63D9" stroke-width="1.5" stroke-linejoin="round"/>
</svg>
