<svg width="16" height="16" viewBox="0 0 16 16" fill="none" xmlns="http://www.w3.org/2000/svg">
<g opacity="0.15">
<path d="M6.77213 5.14076C5.80218 5.14076 5.01234 5.94316 5.01234 6.92988C5.01234 7.91661 5.80158 8.71839 6.77213 8.71839C7.74267 8.71839 8.53191 7.916 8.53191 6.92928C8.53191 5.94255 7.74207 5.14076 6.77213 5.14076Z" fill="#9DA7B2"/>
<path d="M8.96148 10.1483C8.47979 9.74867 7.84134 9.52845 7.16339 9.52845H6.38133C5.70339 9.52845 5.06494 9.74867 4.58325 10.1483C4.10397 10.5462 3.84009 11.0712 3.84009 11.6266C3.84009 11.7148 3.92745 11.7866 4.03575 11.7866H9.50958C9.61728 11.7866 9.70524 11.7148 9.70524 11.6266C9.70524 11.0712 9.44076 10.5462 8.96148 10.1483Z" fill="#9DA7B2"/>
<path d="M13.0668 5.14038C12.0968 5.14038 11.307 5.94278 11.307 6.9295C11.307 7.91622 12.0962 8.71801 13.0668 8.71801C14.0373 8.71801 14.8265 7.91561 14.8265 6.92889C14.8265 5.94217 14.0367 5.14038 13.0668 5.14038Z" fill="#9DA7B2"/>
<path d="M15.2562 10.148C14.7745 9.74835 14.1361 9.52813 13.4581 9.52813H12.6761C11.9981 9.52813 11.3597 9.74835 10.878 10.148C10.3987 10.5459 10.1348 11.0709 10.1348 11.6263C10.1348 11.7145 10.2222 11.7863 10.3305 11.7863H15.8043C15.912 11.7863 16 11.7145 16 11.6263C16 11.0709 15.7355 10.5459 15.2562 10.148Z" fill="#9DA7B2"/>
</g>
<path fill-rule="evenodd" clip-rule="evenodd" d="M4.35751 10.5153C4.03362 10.8496 3.8555 11.2891 3.8555 11.759C3.8555 12.4282 3 12.4282 3 11.759C3 11.0679 3.26388 10.4145 3.74317 9.91997C4.0999 9.55144 4.54262 9.30569 5.02368 9.203C5.19218 9.16703 5.36539 9.14861 5.54125 9.14861H6.3239C6.51016 9.14861 6.69343 9.16932 6.87129 9.20966C7.34083 9.31616 7.77264 9.55951 8.12198 9.91997C8.60127 10.4145 8.86515 11.0679 8.86515 11.759C8.86515 12.4282 8.00966 12.4282 8.00966 11.759C8.00966 11.2891 7.83154 10.8496 7.50766 10.5154C7.18288 10.1802 6.7643 10.0041 6.3239 10.0041H5.54125C5.1004 10.0041 4.68181 10.1803 4.35751 10.5153ZM6.76181 8.32184C7.32816 8.02424 7.71607 7.42308 7.71607 6.73132C7.71607 5.7446 6.92624 4.94282 5.95629 4.94282C4.98634 4.94282 4.19651 5.74521 4.19651 6.73193C4.19651 7.41986 4.58014 8.0179 5.14138 8.317C5.26659 8.38373 5.40064 8.43558 5.54125 8.47023C5.67437 8.50304 5.81336 8.52043 5.95629 8.52043C6.08233 8.52043 6.20531 8.50689 6.3239 8.48118C6.47829 8.44771 6.62524 8.3936 6.76181 8.32184ZM5.95629 5.79831C5.47191 5.79831 5.052 6.20449 5.052 6.73193C5.052 7.25917 5.47112 7.66493 5.95629 7.66493C6.44108 7.66493 6.86058 7.25894 6.86058 6.73132C6.86058 6.20427 6.44105 5.79831 5.95629 5.79831Z" fill="#9DA7B2"/>
<path fill-rule="evenodd" clip-rule="evenodd" d="M15.1599 11.7587C15.1599 11.0677 14.896 10.4143 14.4167 9.91974C14.0674 9.55929 13.6356 9.31595 13.1661 9.20944C12.9882 9.16909 12.8049 9.14837 12.6186 9.14837H11.836C11.66 9.14837 11.4868 9.16681 11.3182 9.20281C10.8372 9.30553 10.3946 9.55126 10.0379 9.91974C9.55861 10.4143 9.29473 11.0677 9.29473 11.7587C9.29473 12.4282 10.1502 12.4282 10.1502 11.7587C10.1502 11.2889 10.3283 10.8493 10.6522 10.5151C10.9765 10.1801 11.3951 10.0039 11.836 10.0039H12.6186C13.059 10.0039 13.4776 10.18 13.8024 10.5151C14.1263 10.8493 14.3044 11.2889 14.3044 11.7587C14.3044 12.4282 15.1599 12.4282 15.1599 11.7587Z" fill="#9DA7B2"/>
<path fill-rule="evenodd" clip-rule="evenodd" d="M10.4911 6.73176C10.4911 7.41966 10.8747 8.01767 11.4359 8.31679C11.5612 8.38357 11.6953 8.43544 11.836 8.4701C11.9691 8.50289 12.108 8.52027 12.2509 8.52027C12.377 8.52027 12.5 8.50673 12.6186 8.481C12.773 8.44752 12.92 8.39339 13.0566 8.32161C13.6228 8.02398 14.0107 7.42286 14.0107 6.73115C14.0107 5.74443 13.2208 4.94264 12.2509 4.94264C11.281 4.94264 10.4911 5.74504 10.4911 6.73176ZM12.2509 5.79814C11.7665 5.79814 11.3466 6.20432 11.3466 6.73176C11.3466 7.25901 11.7657 7.66477 12.2509 7.66477C12.7357 7.66477 13.1552 7.25878 13.1552 6.73115C13.1552 6.20409 12.7357 5.79814 12.2509 5.79814Z" fill="#9DA7B2"/>
<path fill-rule="evenodd" clip-rule="evenodd" d="M7.4538 2.01468C7.68199 2.07582 7.81741 2.31037 7.75626 2.53856L7.69714 2.75921C9.01993 2.04606 10.4485 2.24291 11.3485 3.14291C11.5156 3.30996 11.5156 3.58079 11.3485 3.74784C11.1815 3.91488 10.9107 3.91488 10.7436 3.74784C10.1137 3.11794 8.98385 2.92238 7.87772 3.64389L8.48906 3.80765C8.71726 3.86878 8.85269 4.10332 8.79157 4.33151C8.73044 4.5597 8.4959 4.69514 8.26771 4.63401L6.85349 4.25519C6.7439 4.22584 6.65047 4.15415 6.59374 4.0559C6.53701 3.95765 6.52163 3.84089 6.551 3.7313L6.92992 2.31714C6.99106 2.08896 7.22561 1.95354 7.4538 2.01468ZM9.40791 12.8249C9.46904 12.5967 9.70358 12.4613 9.93177 12.5224L11.346 12.9012C11.4556 12.9306 11.549 13.0023 11.6057 13.1005C11.6625 13.1988 11.6778 13.3155 11.6485 13.4251L11.2696 14.8393C11.2084 15.0675 10.9739 15.2029 10.7457 15.1418C10.5175 15.0806 10.3821 14.8461 10.4432 14.6179L10.5023 14.3973C9.17957 15.1104 7.751 14.9137 6.85098 14.0137C6.68393 13.8466 6.68393 13.5758 6.85098 13.4088C7.01803 13.2417 7.28886 13.2417 7.45591 13.4088C8.08578 14.0386 9.21562 14.2341 10.3218 13.5125L9.71041 13.3488C9.48222 13.2877 9.34679 13.0531 9.40791 12.8249Z" fill="#9DA7B2"/>
</svg>
