<svg width="32" height="32" viewBox="0 0 32 32" fill="none" xmlns="http://www.w3.org/2000/svg">
<path d="M7.65997 15.2019C7.22887 15.4588 7.08117 16.0278 7.33006 16.4728L11.8367 24.5301C12.0856 24.9751 12.6369 25.1276 13.068 24.8706L16.9708 22.5447C17.4019 22.2878 17.6097 21.8262 17.3608 21.3812L12.7941 13.2165C12.5452 12.7715 11.9939 12.619 11.5628 12.8759L7.65997 15.2019Z" fill="#2B63D9" fill-opacity="0.15"/>
<path d="M10.9354 22.9186L8.23139 18.0843L7.45082 18.5495C7.01972 18.8064 6.87201 19.3754 7.12091 19.8204L8.92357 23.0433C9.17246 23.4883 9.72371 23.6408 10.1548 23.3838L10.9354 22.9186Z" fill="#2B63D9" fill-opacity="0.15"/>
<path d="M16.1903 23.0099L13.8485 24.4054L16.1019 28.4341C16.3508 28.8791 16.902 29.0315 17.3331 28.7746L18.1137 28.3094C18.5448 28.0525 18.6925 27.4835 18.4436 27.0385L16.1903 23.0099Z" fill="#2B63D9" fill-opacity="0.15"/>
<path d="M12.7941 13.2165L17.3608 21.3812L27.3748 20.3474C28.6772 20.213 29.411 18.7356 28.7566 17.5655L21.6331 4.82983C20.9787 3.65972 19.3723 3.57701 18.6083 4.67409L12.7941 13.2165Z" fill="#2B63D9" fill-opacity="0.15"/>
<path fill-rule="evenodd" clip-rule="evenodd" d="M18.858 5.05718C18.4042 4.27114 17.2903 4.21558 16.7605 4.95256L11.1306 12.7842L15.4067 20.1907L25.0041 19.2308C25.9072 19.1405 26.416 18.1481 25.9622 17.362L18.858 5.05718ZM15.7501 21.6638L25.1533 20.7234C27.1402 20.5247 28.2596 18.3413 27.2612 16.612L20.157 4.30718C19.1586 2.57788 16.7081 2.45565 15.5425 4.07701L10.0265 11.7502C9.56772 11.5969 9.04788 11.6333 8.59602 11.8942L4.70622 14.14C3.86921 14.6232 3.58243 15.6935 4.06568 16.5305L4.58172 17.4243L4.49101 17.4767C3.654 17.96 3.36722 19.0302 3.85047 19.8673L5.63256 22.9539C6.11581 23.7909 7.18609 24.0777 8.02311 23.5945L8.11382 23.5421L8.62986 24.4359C9.11311 25.2729 10.1834 25.5597 11.0204 25.0765L11.1111 25.0241L13.0182 28.3273C13.5014 29.1643 14.5717 29.4511 15.4087 28.9678L16.086 28.5768C16.923 28.0935 17.2098 27.0232 16.7266 26.1862L14.8195 22.8831L14.9102 22.8307C15.3621 22.5698 15.6536 22.1378 15.7501 21.6638ZM13.5205 23.6331L12.4101 24.2741L14.3172 27.5773C14.3863 27.6969 14.5392 27.7378 14.6587 27.6688L15.336 27.2777C15.4556 27.2087 15.4966 27.0558 15.4275 26.9362L13.5205 23.6331ZM7.36382 22.2431L5.33172 18.7234L5.24101 18.7758C5.12144 18.8448 5.08047 18.9977 5.14951 19.1173L6.9316 22.2039C7.00063 22.3235 7.15353 22.3645 7.2731 22.2954L7.36382 22.2431ZM9.68752 13.2848C9.61849 13.1652 9.46559 13.1242 9.34602 13.1932L5.45622 15.439C5.33665 15.5081 5.29568 15.661 5.36472 15.7805L9.9289 23.6859C9.99794 23.8055 10.1508 23.8465 10.2704 23.7774L14.1602 21.5317C14.2798 21.4626 14.3207 21.3097 14.2517 21.1901L9.68752 13.2848Z" fill="#2B63D9"/>
<path fill-rule="evenodd" clip-rule="evenodd" d="M28.4018 7.10413C28.5841 7.41981 28.4649 7.82984 28.1356 8.01998L26.6403 8.88326C26.311 9.07339 25.8963 8.97161 25.714 8.65594C25.5318 8.34026 25.651 7.93022 25.9803 7.74009L27.4756 6.87681C27.8049 6.68668 28.2196 6.78845 28.4018 7.10413ZM28.5823 12.898C28.3882 13.2204 27.9695 13.3373 27.647 13.159L26.1827 12.3494C25.8602 12.171 25.7561 11.7651 25.9501 11.4426C26.1442 11.1201 26.563 11.0032 26.8855 11.1815L28.3498 11.9911C28.6722 12.1695 28.7764 12.5755 28.5823 12.898ZM23.5703 4.21697C23.9467 4.21016 24.2462 4.50331 24.2394 4.87176L24.2084 6.5447C24.2016 6.91315 23.891 7.21736 23.5147 7.22418C23.1383 7.231 22.8388 6.93784 22.8456 6.56939L22.8766 4.89646C22.8834 4.52801 23.194 4.22379 23.5703 4.21697Z" fill="#2B63D9"/>
</svg>
