<svg width="32" height="32" viewBox="0 0 32 32" fill="none" xmlns="http://www.w3.org/2000/svg">
<path d="M25.5481 15.9634L27.1566 14.3954C28.4285 13.1557 27.7267 10.9958 25.969 10.7404L21.5232 10.0944C20.8253 9.99295 20.2219 9.55459 19.9098 8.92214L17.9216 4.89354C17.1355 3.30087 14.8644 3.30087 14.0784 4.89354L12.0902 8.92214C11.778 9.55459 11.1747 9.99295 10.4767 10.0944L6.03091 10.7404C4.27329 10.9958 3.57149 13.1557 4.84331 14.3954L8.06033 17.5313C8.56537 18.0236 8.79584 18.7329 8.67661 19.428L7.91717 23.8558C7.61694 25.6063 9.4543 26.9413 11.0264 26.1148L15.0028 24.0242C15.6271 23.696 16.3729 23.696 16.9971 24.0242L18.2922 24.7051" stroke="#2B63D9" stroke-width="1.5" stroke-linecap="round"/>
<path fill-rule="evenodd" clip-rule="evenodd" d="M24.7586 29.5172C28.4913 29.5172 31.5172 26.4913 31.5172 22.7586C31.5172 19.0259 28.4913 16 24.7586 16C21.0259 16 18 19.0259 18 22.7586C18 26.4913 21.0259 29.5172 24.7586 29.5172ZM25.5086 19.8618C25.5086 19.4476 25.1728 19.1118 24.7586 19.1118C24.3444 19.1118 24.0086 19.4476 24.0086 19.8618V22.0084H21.8621C21.4478 22.0084 21.1121 22.3442 21.1121 22.7584C21.1121 23.1726 21.4478 23.5084 21.8621 23.5084H24.0086V25.6549C24.0086 26.0691 24.3444 26.4049 24.7586 26.4049C25.1728 26.4049 25.5086 26.0691 25.5086 25.6549V23.5084H27.6552C28.0694 23.5084 28.4052 23.1726 28.4052 22.7584C28.4052 22.3442 28.0694 22.0084 27.6552 22.0084H25.5086V19.8618Z" fill="#2B63D9"/>
</svg>
