<svg width="32" height="32" viewBox="0 0 32 32" fill="none" xmlns="http://www.w3.org/2000/svg">
<g opacity="0.15">
<path d="M10.7763 7.81237V7.75C10.7763 7.19772 11.224 6.75 11.7763 6.75L20.3816 6.75C20.9339 6.75 21.3816 7.19772 21.3816 7.75V7.81237C21.3816 8.00657 21.2598 8.17989 21.077 8.24567L16.2349 9.98883C16.1341 10.0251 16.0238 10.0251 15.923 9.98883L11.0809 8.24567C10.8981 8.17989 10.7763 8.00657 10.7763 7.81237Z" fill="#2B63D9"/>
<path d="M19.5379 11.078C19.3194 10.7336 18.8802 10.6308 18.4965 10.7689L16.743 11.4002C16.3138 11.5547 15.8441 11.5547 15.4149 11.4002L13.6623 10.7692C13.2787 10.6311 12.8394 10.734 12.6209 11.0783C12.2192 11.7115 11.987 12.4612 11.987 13.264C11.987 15.5205 13.8227 17.3553 16.0792 17.3553C18.3353 17.3553 20.1713 15.5192 20.1713 13.2623C20.1713 12.4598 19.9393 11.7107 19.5379 11.078Z" fill="#2B63D9"/>
<path d="M25.1975 12.0396C24.9318 11.5081 24.1733 11.5081 23.9076 12.0396C23.7413 12.372 23.9831 12.7632 24.3548 12.7632H24.7503C25.122 12.7632 25.3637 12.372 25.1975 12.0396Z" fill="#2B63D9"/>
<path d="M10.2818 23.2043C11.5279 21.9646 13.2519 21.2763 15.0199 21.2763H17.2099C18.9699 21.2763 20.6249 21.9607 21.8768 23.2046C22.6633 23.9861 23.2245 24.9231 23.5314 25.9406C23.7041 26.5134 23.2338 27.0395 22.6355 27.0395H9.52277C8.92446 27.0395 8.45423 26.5134 8.62699 25.9406C8.93389 24.923 9.49527 23.9859 10.2818 23.2043Z" fill="#2B63D9"/>
</g>
<path fill-rule="evenodd" clip-rule="evenodd" d="M5.25 5C5.25 4.58579 5.58579 4.25 6 4.25L9.02567 4.25C9.02589 4.25 9.02546 4.25 9.02567 4.25L21.1316 4.25C21.1321 4.25 21.1325 4.25 21.133 4.25L24.1579 4.25C24.5721 4.25 24.9079 4.58579 24.9079 5C24.9079 5.41422 24.5721 5.75 24.1579 5.75L21.8816 5.75V6.81237C21.8816 7.63909 21.363 8.37698 20.5851 8.657L19.6213 9.00397C20.2811 9.92121 20.6711 11.0468 20.6711 12.2623C20.6711 15.3474 18.1638 17.8553 15.0789 17.8553C11.9945 17.8553 9.48684 15.3493 9.48684 12.264C9.48684 11.0481 9.87704 9.92189 10.5372 9.00419L9.57277 8.657C8.79492 8.37698 8.27632 7.63909 8.27632 6.81237V5.75L6 5.75C5.58579 5.75 5.25 5.41421 5.25 5ZM9.77632 5.75V6.81237C9.77632 7.00657 9.89814 7.17989 10.0809 7.24567L11.849 7.88219C12.0398 7.87442 12.2323 7.93927 12.3816 8.07394L14.923 8.98883C15.0238 9.02513 15.1341 9.02513 15.2349 8.98883L17.7777 8.07345C17.9267 7.93928 18.1186 7.87459 18.309 7.88217L20.077 7.24567C20.2598 7.17989 20.3816 7.00657 20.3816 6.81237V5.75L9.77632 5.75ZM18.1312 9.5404L15.743 10.4002C15.3138 10.5547 14.8441 10.5547 14.4149 10.4002L12.0273 9.54062C11.3796 10.2656 10.9868 11.2198 10.9868 12.264C10.9868 14.5205 12.8225 16.3553 15.0789 16.3553C17.3351 16.3553 19.1711 14.5192 19.1711 12.2623C19.1711 11.2185 18.7786 10.2649 18.1312 9.5404ZM8.224 21.1406C9.76147 19.6113 11.8701 18.7763 14.0197 18.7763H16.2097C18.3676 18.7763 20.4022 19.6187 21.9339 21.1406C23.4582 22.6552 24.3026 24.6636 24.3026 26.7895C24.3026 27.2037 23.9668 27.5395 23.5526 27.5395C23.1384 27.5395 22.8026 27.2037 22.8026 26.7895C22.8026 25.0696 22.1221 23.4422 20.8766 22.2046C19.6247 20.9607 17.9697 20.2763 16.2097 20.2763H14.0197C12.2517 20.2763 10.5277 20.9646 9.28159 22.2043C8.03606 23.4419 7.35526 25.0696 7.35526 26.7895C7.35526 27.2037 7.01948 27.5395 6.60526 27.5395C6.19105 27.5395 5.85526 27.2037 5.85526 26.7895C5.85526 24.6636 6.69973 22.6552 8.224 21.1406Z" fill="#2B63D9"/>
<path fill-rule="evenodd" clip-rule="evenodd" d="M23.5525 4.49998C23.8286 4.49998 24.0525 4.72384 24.0525 4.99998V8.51353L25.0919 10.5923C25.5906 11.5897 24.8653 12.7631 23.7502 12.7631H23.3547C22.2397 12.7631 21.5144 11.5897 22.0131 10.5923L23.0525 8.51353V4.99998C23.0525 4.72384 23.2763 4.49998 23.5525 4.49998ZM23.5525 9.7496L22.9075 11.0395C22.7413 11.372 22.983 11.7631 23.3547 11.7631H23.7502C24.1219 11.7631 24.3637 11.372 24.1975 11.0395L23.5525 9.7496Z" fill="#2B63D9"/>
</svg>
