<svg width="32" height="32" viewBox="0 0 32 32" fill="none" xmlns="http://www.w3.org/2000/svg">
<g clip-path="url(#clip0)">
<g opacity="0.15">
<path d="M20.2501 20.2955C20.2501 21.5382 19.2428 22.5455 18.0001 22.5455C16.7575 22.5455 15.7501 21.5382 15.7501 20.2955C15.7501 19.0529 16.7575 18.0455 18.0001 18.0455C19.2428 18.0455 20.2501 19.0529 20.2501 20.2955Z" fill="#2B63D9"/>
<path d="M21.5001 29.0455C21.7763 29.0455 22.0001 28.8217 22.0001 28.5455C22.0001 26.6125 20.2093 25.0455 18.0001 25.0455C15.791 25.0455 14.0001 26.6125 14.0001 28.5455C14.0001 28.8217 14.224 29.0455 14.5001 29.0455H21.5001Z" fill="#2B63D9"/>
<path d="M30.2501 6.29553C30.2501 7.53817 29.2428 8.54553 28.0001 8.54553C26.7575 8.54553 25.7501 7.53817 25.7501 6.29553C25.7501 5.05289 26.7575 4.04553 28.0001 4.04553C29.2428 4.04553 30.2501 5.05289 30.2501 6.29553Z" fill="#2B63D9"/>
<path d="M31.9693 14.5465C32.0034 14.8206 31.7763 15.0455 31.5001 15.0455H24.5001C24.224 15.0455 23.9968 14.8206 24.0309 14.5465C24.2766 12.5729 25.96 11.0455 28.0001 11.0455C30.0403 11.0455 31.7237 12.5729 31.9693 14.5465Z" fill="#2B63D9"/>
<path d="M9.25012 6.28174C9.25012 7.52438 8.24276 8.53174 7.00012 8.53174C5.75748 8.53174 4.75012 7.52438 4.75012 6.28174C4.75012 5.0391 5.75748 4.03174 7.00012 4.03174C8.24276 4.03174 9.25012 5.0391 9.25012 6.28174Z" fill="#2B63D9"/>
<path d="M10.9693 14.5465C11.0034 14.8205 10.7763 15.0455 10.5001 15.0455H3.50012C3.22398 15.0455 2.99684 14.8205 3.03095 14.5465C3.27655 12.5728 4.95997 11.0455 7.00012 11.0455C9.04027 11.0455 10.7237 12.5728 10.9693 14.5465Z" fill="#2B63D9"/>
</g>
<path fill-rule="evenodd" clip-rule="evenodd" d="M16.5167 4.95417C16.4451 4.95417 16.3737 4.95485 16.3024 4.95622C15.7756 4.96629 15.3403 4.54735 15.3302 4.02049C15.3202 3.49363 15.7391 3.05836 16.266 3.04829C16.3493 3.0467 16.4329 3.0459 16.5167 3.0459C16.6004 3.0459 16.684 3.0467 16.7674 3.04829C17.2942 3.05836 17.7132 3.49363 17.7031 4.02049C17.693 4.54735 17.2577 4.96629 16.7309 4.95622C16.6596 4.95485 16.5882 4.95417 16.5167 4.95417ZM13.0897 4.45963C13.2805 4.95083 13.0369 5.50369 12.5457 5.69447C12.4793 5.72027 12.4131 5.74671 12.3473 5.77378C11.8599 5.97415 11.3024 5.74149 11.102 5.25412C10.9017 4.76675 11.1343 4.20922 11.6217 4.00884C11.6991 3.97704 11.7768 3.94597 11.8549 3.91564C12.3461 3.72487 12.8989 3.96842 13.0897 4.45963ZM19.9436 4.45963C20.1344 3.96842 20.6872 3.72487 21.1784 3.91564C21.2565 3.94597 21.3343 3.97704 21.4116 4.00884C21.899 4.20922 22.1316 4.76675 21.9313 5.25412C21.7309 5.74149 21.1734 5.97415 20.686 5.77378C20.6202 5.74671 20.554 5.72027 20.4876 5.69447C19.9964 5.50369 19.7528 4.95084 19.9436 4.45963ZM4.59031 16.893C5.11058 16.8093 5.60017 17.1632 5.68383 17.6835C5.69605 17.7595 5.70904 17.8352 5.72281 17.9106C5.81742 18.429 5.47388 18.926 4.95549 19.0206C4.4371 19.1152 3.94016 18.7716 3.84555 18.2532C3.82938 18.1646 3.81411 18.0757 3.79976 17.9865C3.7161 17.4662 4.07004 16.9766 4.59031 16.893ZM28.443 16.893C28.9633 16.9766 29.3172 17.4662 29.2335 17.9865C29.2192 18.0757 29.2039 18.1646 29.1878 18.2532C29.0932 18.7716 28.5962 19.1152 28.0778 19.0206C27.5594 18.926 27.2159 18.429 27.3105 17.9106C27.3243 17.8352 27.3373 17.7595 27.3495 17.6835C27.4331 17.1632 27.9227 16.8093 28.443 16.893ZM5.90012 21.4499C6.34646 21.1698 6.93536 21.3045 7.21549 21.7508C7.29721 21.8811 7.38161 22.0094 7.46859 22.1359C7.76717 22.5701 7.65724 23.1642 7.22304 23.4628C6.78884 23.7613 6.19481 23.6514 5.89622 23.2172C5.79415 23.0688 5.6951 22.9181 5.59917 22.7652C5.31905 22.3189 5.45379 21.73 5.90012 21.4499ZM27.1332 21.4499C27.5795 21.73 27.7143 22.3189 27.4341 22.7652C27.3382 22.9181 27.2392 23.0688 27.1371 23.2172C26.8385 23.6514 26.2445 23.7613 25.8103 23.4628C25.3761 23.1642 25.2661 22.5701 25.5647 22.1359C25.6517 22.0094 25.7361 21.8811 25.8178 21.7508C26.0979 21.3045 26.6869 21.1698 27.1332 21.4499ZM9.07537 25.2965C9.36954 24.8593 9.96243 24.7433 10.3996 25.0375C10.4633 25.0804 10.5275 25.1226 10.5922 25.1641C11.0354 25.4491 11.1638 26.0394 10.8789 26.4827C10.5939 26.926 10.0036 27.0543 9.56031 26.7694C9.48444 26.7206 9.40912 26.6711 9.33436 26.6208C8.89715 26.3266 8.7812 25.7337 9.07537 25.2965ZM23.9579 25.2965C24.2521 25.7337 24.1362 26.3266 23.699 26.6208C23.6242 26.6711 23.5489 26.7206 23.473 26.7694C23.0297 27.0543 22.4394 26.926 22.1545 26.4827C21.8695 26.0394 21.9979 25.4491 22.4411 25.1641C22.5058 25.1226 22.57 25.0804 22.6337 25.0375C23.0709 24.7433 23.6638 24.8593 23.9579 25.2965Z" fill="#2B63D9"/>
<path fill-rule="evenodd" clip-rule="evenodd" d="M5.5 4.7957C4.67157 4.7957 4 5.46727 4 6.2957C4 7.12412 4.67157 7.7957 5.5 7.7957C6.32843 7.7957 7 7.12412 7 6.2957C7 5.46727 6.32843 4.7957 5.5 4.7957ZM2.5 6.2957C2.5 4.63884 3.84315 3.2957 5.5 3.2957C7.15685 3.2957 8.5 4.63884 8.5 6.2957C8.5 7.95255 7.15685 9.2957 5.5 9.2957C3.84315 9.2957 2.5 7.95255 2.5 6.2957ZM26.5 4.7957C25.6716 4.7957 25 5.46727 25 6.2957C25 7.12412 25.6716 7.7957 26.5 7.7957C27.3284 7.7957 28 7.12412 28 6.2957C28 5.46727 27.3284 4.7957 26.5 4.7957ZM23.5 6.2957C23.5 4.63884 24.8431 3.2957 26.5 3.2957C28.1569 3.2957 29.5 4.63884 29.5 6.2957C29.5 7.95255 28.1569 9.2957 26.5 9.2957C24.8431 9.2957 23.5 7.95255 23.5 6.2957ZM0.25 15.0457C0.25 12.4223 2.37665 10.2957 5 10.2957H6C8.62335 10.2957 10.75 12.4223 10.75 15.0457C10.75 15.4599 10.4142 15.7957 10 15.7957C9.58579 15.7957 9.25 15.4599 9.25 15.0457C9.25 13.2508 7.79493 11.7957 6 11.7957H5C3.20507 11.7957 1.75 13.2508 1.75 15.0457C1.75 15.4599 1.41421 15.7957 1 15.7957C0.585786 15.7957 0.25 15.4599 0.25 15.0457ZM21.25 15.0457C21.25 12.4223 23.3766 10.2957 26 10.2957H27C29.6234 10.2957 31.75 12.4223 31.75 15.0457C31.75 15.4599 31.4142 15.7957 31 15.7957C30.5858 15.7957 30.25 15.4599 30.25 15.0457C30.25 13.2508 28.7949 11.7957 27 11.7957H26C24.2051 11.7957 22.75 13.2508 22.75 15.0457C22.75 15.4599 22.4142 15.7957 22 15.7957C21.5858 15.7957 21.25 15.4599 21.25 15.0457ZM16.5 18.7957C15.6716 18.7957 15 19.4673 15 20.2957C15 21.1241 15.6716 21.7957 16.5 21.7957C17.3284 21.7957 18 21.1241 18 20.2957C18 19.4673 17.3284 18.7957 16.5 18.7957ZM13.5 20.2957C13.5 18.6388 14.8431 17.2957 16.5 17.2957C18.1569 17.2957 19.5 18.6388 19.5 20.2957C19.5 21.9526 18.1569 23.2957 16.5 23.2957C14.8431 23.2957 13.5 21.9526 13.5 20.2957ZM11.25 29.0457C11.25 26.4223 13.3766 24.2957 16 24.2957H17C19.6234 24.2957 21.75 26.4223 21.75 29.0457C21.75 29.4599 21.4142 29.7957 21 29.7957C20.5858 29.7957 20.25 29.4599 20.25 29.0457C20.25 27.2508 18.7949 25.7957 17 25.7957H16C14.2051 25.7957 12.75 27.2508 12.75 29.0457C12.75 29.4599 12.4142 29.7957 12 29.7957C11.5858 29.7957 11.25 29.4599 11.25 29.0457Z" fill="#2B63D9"/>
</g>
<defs>
<clipPath id="clip0">
<rect width="32" height="32" fill="white"/>
</clipPath>
</defs>
</svg>
