<svg width="32" height="32" viewBox="0 0 32 32" fill="none" xmlns="http://www.w3.org/2000/svg">
<path d="M7.33239 20.4665V8H12.8864V9.13332V14.6381V17.0668V20.4665L10.1094 18.3579L7.33239 20.4665Z" fill="white"/>
<path d="M6.6977 14.6381C5.2078 14.6381 4 14.6381 4 11.8857C4 9.5 5.2078 9.13332 6.6977 9.13332M6.875 17.0668C5.28718 17.0668 4 18.3801 4 20.0001V22.0667C4 23.6867 5.28718 25 6.875 25H28.4375C28.4375 25 27.3267 22.6038 27.3267 21.0334C27.3267 19.463 28.4375 17.0668 28.4375 17.0668H12.8864M12.8864 9.13332V8H7.33239V20.4665L10.1094 18.3579L12.8864 20.4665V17.0668M12.8864 9.13332H25.1051C25.1051 9.13332 24.1458 10.796 24.1458 11.8857C24.1458 12.9754 25.1051 14.6381 25.1051 14.6381H12.8864M12.8864 9.13332V14.6381M12.8864 17.0668V14.6381" stroke="#2B63D9" stroke-width="1.5" stroke-linejoin="round"/>
</svg>
