<svg width="32" height="32" viewBox="0 0 32 32" fill="none" xmlns="http://www.w3.org/2000/svg">
<circle cx="18" cy="17" r="10" fill="#E1F1D1"/>
<path fill-rule="evenodd" clip-rule="evenodd" d="M11.444 16.2467C11.7219 15.9396 12.1962 15.916 12.5033 16.194L14.4372 17.9444L19.4478 12.4925C19.7281 12.1875 20.2025 12.1675 20.5075 12.4478C20.8125 12.7281 20.8325 13.2025 20.5522 13.5075L15.0379 19.5075C14.7591 19.8109 14.2879 19.8325 13.9824 19.556L11.4967 17.306C11.1896 17.0281 11.166 16.5538 11.444 16.2467ZM16 25.5C21.2467 25.5 25.5 21.2467 25.5 16C25.5 10.7533 21.2467 6.5 16 6.5C10.7533 6.5 6.5 10.7533 6.5 16C6.5 21.2467 10.7533 25.5 16 25.5ZM16 27C22.0751 27 27 22.0751 27 16C27 9.92487 22.0751 5 16 5C9.92487 5 5 9.92487 5 16C5 22.0751 9.92487 27 16 27Z" fill="#67B717"/>
</svg>
