<svg width="32" height="32" viewBox="0 0 32 32" fill="none" xmlns="http://www.w3.org/2000/svg">
<path opacity="0.15" d="M14.9274 16.4838V10.8417C14.9274 9.80297 14.0854 8.96094 13.0467 8.96094C12.008 8.96094 11.166 9.80297 11.166 10.8417V16.4838C9.8676 16.4838 8.81506 17.5364 8.81506 18.8347V24.4769C8.81506 28.6317 12.1832 31.9998 16.338 31.9998H18.6889C22.8436 31.9998 26.2118 28.6317 26.2118 24.4769V18.3646C26.2118 17.3259 25.3697 16.4838 24.331 16.4838C23.2923 16.4838 22.4503 17.3259 22.4503 18.3646V17.4242C22.4503 16.3855 21.6083 15.5435 20.5696 15.5435C19.5309 15.5435 18.6889 16.3855 18.6889 17.4242V16.4838C18.6889 15.4451 17.8468 14.6031 16.8081 14.6031C15.7694 14.6031 14.9274 15.4451 14.9274 16.4838Z" fill="#2B63D9"/>
<path fill-rule="evenodd" clip-rule="evenodd" d="M11.9369 1.25C12.3511 1.25 12.6869 1.58579 12.6869 2V3.88072C12.6869 4.29494 12.3511 4.63072 11.9369 4.63072C11.5227 4.63072 11.1869 4.29494 11.1869 3.88072V2C11.1869 1.58579 11.5227 1.25 11.9369 1.25ZM17.7412 4.23533C17.9483 4.59405 17.8254 5.05274 17.4667 5.25985L15.8379 6.20021C15.4792 6.40732 15.0205 6.28441 14.8134 5.92569C14.6063 5.56697 14.7292 5.10828 15.0879 4.90118L16.7167 3.96081C17.0754 3.75371 17.5341 3.87661 17.7412 4.23533ZM6.35048 4.23533C6.55759 3.87661 7.01628 3.75371 7.375 3.96081L9.00376 4.90117C9.36248 5.10828 9.48538 5.56697 9.27828 5.92569C9.07117 6.28441 8.61248 6.40732 8.25376 6.20021L6.625 5.25985C6.26628 5.05274 6.14338 4.59405 6.35048 4.23533ZM9.41603 8.84185C9.41603 7.38894 10.5938 6.21113 12.0468 6.21113C13.4997 6.21113 14.6775 7.38894 14.6775 8.84185V12.108C15.02 11.9447 15.4034 11.8533 15.8082 11.8533C16.8064 11.8533 17.6748 12.4093 18.1205 13.2284C18.5361 12.9536 19.0342 12.7937 19.5697 12.7937C20.5679 12.7937 21.4362 13.3496 21.882 14.1688C22.2975 13.894 22.7956 13.734 23.3311 13.734C24.784 13.734 25.9618 14.9118 25.9618 16.3647V22.4771C25.9618 27.0461 22.2579 30.75 17.6889 30.75H15.338C10.769 30.75 7.06512 27.0461 7.06512 22.4771V16.8349C7.06512 15.381 8.06581 14.1607 9.41603 13.8253V8.84185ZM9.41603 15.4202C8.90983 15.6891 8.56512 16.2218 8.56512 16.8349V22.4771C8.56512 26.2177 11.5975 29.25 15.338 29.25H17.6889C21.4295 29.25 24.4618 26.2177 24.4618 22.4771V16.3647C24.4618 15.7403 23.9556 15.234 23.3311 15.234C22.7066 15.234 22.2004 15.7403 22.2004 16.3647V17.3051C22.2004 17.7193 21.8646 18.0551 21.4504 18.0551C21.0362 18.0551 20.7004 17.7193 20.7004 17.3051V15.4244C20.7004 14.7999 20.1941 14.2937 19.5697 14.2937C18.9452 14.2937 18.4389 14.7999 18.4389 15.4244V17.3051C18.4389 17.7193 18.1031 18.0551 17.6889 18.0551C17.2747 18.0551 16.9389 17.7193 16.9389 17.3051V14.484C16.9389 13.8595 16.4327 13.3533 15.8082 13.3533C15.1837 13.3533 14.6775 13.8595 14.6775 14.484V17.3051C14.6775 17.7193 14.3417 18.0551 13.9275 18.0551C13.5133 18.0551 13.1775 17.7193 13.1775 17.3051V8.84185C13.1775 8.21737 12.6712 7.71113 12.0468 7.71113C11.4223 7.71113 10.916 8.21737 10.916 8.84185V21.0666C10.916 21.4808 10.5802 21.8166 10.166 21.8166C9.75182 21.8166 9.41603 21.4808 9.41603 21.0666V15.4202Z" fill="#2B63D9"/>
</svg>
