<svg width="32" height="32" viewBox="0 0 32 32" fill="none" xmlns="http://www.w3.org/2000/svg">
<g opacity="0.15">
<path d="M15.4637 6.5C12.7948 6.5 10.6216 8.67199 10.6216 11.3429C10.6216 14.0139 12.7932 16.1842 15.4637 16.1842C18.1342 16.1842 20.3058 14.0122 20.3058 11.3413C20.3058 8.67034 18.1325 6.5 15.4637 6.5Z" fill="#2B63D9"/>
<path d="M16.7004 19.2622H14.2986C12.2181 19.2622 10.2588 20.1455 8.78062 21.7512C7.75577 22.8631 7.05186 24.2238 6.71921 25.7011C6.47656 26.7787 7.39543 27.685 8.5 27.685H20.6728C21.3152 27.685 21.7918 27.0876 21.627 26.4667C21.4039 25.6263 21.1868 24.9357 21.0067 24.4176C20.8143 23.8641 20.9922 23.2303 21.4734 22.896L26.3029 19.5401C27.0829 18.9981 27.2786 17.9279 26.7409 17.1449C26.2094 16.3712 25.157 16.1639 24.3717 16.6783L22.5705 17.8584C20.5135 18.9815 17.8 19.2622 16.7004 19.2622Z" fill="#2B63D9"/>
</g>
<path fill-rule="evenodd" clip-rule="evenodd" d="M11.5112 18.007C11.7984 17.8156 12.1864 17.8932 12.3779 18.1804L13.7917 20.3011C13.9079 20.4754 14.0902 20.5619 14.2789 20.5619C14.4676 20.5619 14.6499 20.4754 14.7661 20.3011L16.1799 18.1804C16.3714 17.8932 16.7594 17.8156 17.0466 18.007C17.3338 18.1985 17.4114 18.5865 17.22 18.8737L15.8061 20.9945C15.5756 21.3404 15.2553 21.5766 14.9039 21.703V26.3955C14.9039 26.7407 14.6241 27.0205 14.2789 27.0205C13.9337 27.0205 13.6539 26.7407 13.6539 26.3955V21.703C13.3025 21.5766 12.9822 21.3404 12.7516 20.9945L11.3378 18.8737C11.1463 18.5865 11.2239 18.1985 11.5112 18.007Z" fill="#2B63D9"/>
<path fill-rule="evenodd" clip-rule="evenodd" d="M8.68738 10.0534C8.68738 6.96818 11.1965 4.46045 14.2795 4.46045C17.3622 4.46045 19.8716 6.9662 19.8716 10.0517C19.8716 13.1368 17.3643 15.6447 14.2795 15.6447C11.195 15.6447 8.68738 13.1387 8.68738 10.0534ZM14.2795 5.96045C12.0248 5.96045 10.1874 7.7967 10.1874 10.0534C10.1874 12.3099 12.023 14.1447 14.2795 14.1447C16.5356 14.1447 18.3716 12.3086 18.3716 10.0517C18.3716 7.79538 16.5345 5.96045 14.2795 5.96045ZM24.9384 16.28C24.6379 15.8424 24.0427 15.7252 23.5986 16.0161L21.7721 17.2127L21.7457 17.2271C19.5332 18.435 16.6772 18.7227 15.5162 18.7227H13.1144C11.2547 18.7227 9.49211 19.5098 8.1482 20.9696C6.80894 22.4227 6.0658 24.3481 6.0658 26.3955C6.0658 26.8097 5.73001 27.1455 5.3158 27.1455C4.90158 27.1455 4.5658 26.8097 4.5658 26.3955C4.5658 23.9833 5.44241 21.6922 7.04464 19.9536C8.6571 18.2021 10.8131 17.2227 13.1144 17.2227H15.5162C16.5497 17.2227 19.1021 16.9512 21.0011 15.9246L22.7765 14.7614C23.9029 14.0235 25.4125 14.3208 26.1749 15.4308C26.9463 16.5538 26.6656 18.089 25.5467 18.8665L20.7171 22.2223C20.5365 22.3478 20.439 22.6173 20.5309 22.8818C20.8007 23.6578 21.1467 24.7962 21.4745 26.2281C21.567 26.6319 21.3146 27.0341 20.9108 27.1266C20.5071 27.219 20.1048 26.9666 20.0124 26.5629C19.6968 25.1847 19.366 24.099 19.1141 23.3743C18.8213 22.5319 19.0794 21.5337 19.8612 20.9905L24.6908 17.6347C25.1319 17.3281 25.2426 16.7228 24.9384 16.28Z" fill="#2B63D9"/>
<path fill-rule="evenodd" clip-rule="evenodd" d="M21.875 9.49985C21.875 9.15467 22.1548 8.87485 22.5 8.87485H27.5C27.8452 8.87485 28.125 9.15467 28.125 9.49985C28.125 9.84503 27.8452 10.1248 27.5 10.1248H22.5C22.1548 10.1248 21.875 9.84503 21.875 9.49985ZM21.875 11.9998C21.875 11.6547 22.1548 11.3748 22.5 11.3748H23.5C23.8452 11.3748 24.125 11.6547 24.125 11.9998C24.125 12.345 23.8452 12.6248 23.5 12.6248H22.5C22.1548 12.6248 21.875 12.345 21.875 11.9998ZM24.875 11.9998C24.875 11.6547 25.1548 11.3748 25.5 11.3748H27.5C27.8452 11.3748 28.125 11.6547 28.125 11.9998C28.125 12.345 27.8452 12.6248 27.5 12.6248H25.5C25.1548 12.6248 24.875 12.345 24.875 11.9998Z" fill="#2B63D9"/>
</svg>
