<svg width="32" height="32" viewBox="0 0 32 32" fill="none" xmlns="http://www.w3.org/2000/svg">
<path d="M19.3333 22.6663H25.9131C27.0656 22.6663 28 21.6317 28 20.3553V7.64411C28 6.36773 27.0656 5.33301 25.9131 5.33301H6.08696C4.93436 5.33301 4 6.36773 4 7.64411V20.3553C4 21.6317 4.93436 22.6663 6.08696 22.6663H8.8" stroke="#2B63D9" stroke-width="2.33333"/>
<path d="M10.5 14.0008C10.5 12.071 12.0721 10.5 14 10.5C15.9284 10.5 17.5 12.07 17.5 13.9992C17.5 15.9292 15.9292 17.5 14 17.5C12.0703 17.5 10.5 15.9303 10.5 14.0008Z" stroke="#2B63D9" stroke-width="2.33333"/>
<path d="M21.9219 17.9314L24.8633 15.2778" stroke="#2B63D9" stroke-width="2.33333" stroke-linecap="round"/>
<path d="M6.66406 28.0003C6.66406 26.0877 7.30534 24.2797 8.47014 22.9111C9.64076 21.5339 11.1924 20.7763 12.8399 20.7763H14.742C16.1136 20.7763 18.293 19.0037 18.293 19.0037L18.9939 18.4237C19.7326 17.8124 20.8206 17.8853 21.4711 18.5899C22.135 19.3088 22.1051 20.4259 21.4038 21.1083L18.0672 24.3548C17.6735 24.738 17.5667 25.3196 17.738 25.8416C17.8907 26.3071 18.0771 26.9788 18.293 28.0003" stroke="#2B63D9" stroke-width="2.33333" stroke-miterlimit="10" stroke-linecap="round" stroke-linejoin="round"/>
</svg>
