<svg width="32" height="32" viewBox="0 0 32 32" fill="none" xmlns="http://www.w3.org/2000/svg">
<rect opacity="0.15" x="6" y="16.6001" width="13" height="10" rx="1.86383" fill="#2B63D9"/>
<path d="M15.4231 17.6363C15.4231 18.2879 14.8949 18.8161 14.2433 18.8161C13.5917 18.8161 13.0635 18.2879 13.0635 17.6363C13.0635 16.9847 13.5917 16.4565 14.2433 16.4565C14.8949 16.4565 15.4231 16.9847 15.4231 17.6363Z" fill="#2B63D9"/>
<path fill-rule="evenodd" clip-rule="evenodd" d="M3 6.8C3 6.35817 3.35817 6 3.8 6H26.2C26.6418 6 27 6.35817 27 6.8C27 7.24183 26.6418 7.6 26.2 7.6H3.8C3.35817 7.6 3 7.24183 3 6.8ZM3 10.8C3 10.3582 3.35817 10 3.8 10H21.2C21.6418 10 22 10.3582 22 10.8C22 11.2418 21.6418 11.6 21.2 11.6H3.8C3.35817 11.6 3 11.2418 3 10.8ZM3.41484 16.5505C3.41484 15.0793 4.60748 13.8867 6.07867 13.8867H15.3289C16.8001 13.8867 17.9927 15.0793 17.9927 16.5505V23.4411C17.9927 24.0613 17.7808 24.632 17.4254 25.0847C17.4191 25.093 17.4126 25.1011 17.406 25.1092C16.9177 25.7164 16.1687 26.105 15.3289 26.105H6.07867C5.23992 26.105 4.4917 25.7173 4.00341 25.1114C3.99654 25.1031 3.98985 25.0947 3.98334 25.0862C3.62724 24.6332 3.41484 24.062 3.41484 23.4411V16.5505ZM5.57507 24.3784C5.72499 24.4592 5.89648 24.505 6.07867 24.505H15.3289C15.4263 24.505 15.5207 24.4919 15.6103 24.4673L12.8861 21.3503L12.3263 22.0351C11.7537 22.7356 10.6842 22.7397 10.1062 22.0437L7.71874 19.1687L5.57507 24.3784ZM16.3927 22.9312V16.5505C16.3927 15.963 15.9165 15.4867 15.3289 15.4867H6.07867C5.49114 15.4867 5.01484 15.963 5.01484 16.5505V21.5352L6.34218 18.3094C6.75588 17.3083 8.08592 17.1065 8.77797 17.9398L11.2117 20.8705L11.7687 20.1892C12.3186 19.5164 13.335 19.4812 13.9302 20.1144L13.9401 20.1249L16.3927 22.9312ZM20 15.8C20 15.3582 20.3582 15 20.8 15L28.2 15C28.6418 15 29 15.3582 29 15.8C29 16.2418 28.6418 16.6 28.2 16.6L20.8 16.6C20.3582 16.6 20 16.2418 20 15.8ZM20 19.8C20 19.3582 20.3582 19 20.8 19L28.2 19C28.6418 19 29 19.3582 29 19.8C29 20.2418 28.6418 20.6 28.2 20.6L20.8 20.6C20.3582 20.6 20 20.2418 20 19.8ZM20 23.8C20 23.3582 20.3582 23 20.8 23H23.2C23.6418 23 24 23.3582 24 23.8C24 24.2418 23.6418 24.6 23.2 24.6H20.8C20.3582 24.6 20 24.2418 20 23.8Z" fill="#2B63D9"/>
</svg>
