<svg width="16" height="16" viewBox="0 0 16 16" fill="none" xmlns="http://www.w3.org/2000/svg">
<circle opacity="0.15" cx="9.5" cy="8.5" r="5.5" fill="#2B63D9"/>
<path fill-rule="evenodd" clip-rule="evenodd" d="M8 13C10.7614 13 13 10.7614 13 8C13 5.23858 10.7614 3 8 3C5.23858 3 3 5.23858 3 8C3 10.7614 5.23858 13 8 13ZM8 14C11.3137 14 14 11.3137 14 8C14 4.68629 11.3137 2 8 2C4.68629 2 2 4.68629 2 8C2 11.3137 4.68629 14 8 14Z" fill="#2B63D9"/>
<path fill-rule="evenodd" clip-rule="evenodd" d="M7.91188 4.49997C8.18803 4.49989 8.41195 4.72367 8.41204 4.99982L8.41295 7.91311L10.499 7.91311C10.7752 7.91311 10.999 8.13697 10.999 8.41311C10.999 8.68925 10.7752 8.91311 10.499 8.91311L7.91311 8.91311C7.63703 8.91311 7.41319 8.68935 7.41311 8.41327L7.41204 5.00013C7.41195 4.72399 7.63574 4.50006 7.91188 4.49997Z" fill="#2B63D9"/>
</svg>
