<svg width="32" height="32" viewBox="0 0 32 32" fill="none" xmlns="http://www.w3.org/2000/svg">
<path opacity="0.15" d="M26.4854 12.1853V25.9606C26.4854 27.6392 25.1246 29 23.4459 29H11.0204C9.34176 29 7.98096 27.6392 7.98096 25.9606V8.02038C7.98096 6.34175 9.34175 4.98096 11.0204 4.98096H19.2296L26.4854 12.1853Z" fill="#2B63D9"/>
<path fill-rule="evenodd" clip-rule="evenodd" d="M9.01043 3.75C7.76203 3.75 6.75 4.76203 6.75 6.01043V24.0086C6.75 25.2571 7.76203 26.2691 9.01043 26.2691H21.494C22.7424 26.2691 23.7544 25.2571 23.7544 24.0086V10.9538H19.5684C18.0311 10.9538 16.4987 9.70159 16.4987 8.01988V3.75H9.01043ZM17.9987 4.80159V8.01988C17.9987 8.75133 18.7322 9.45375 19.5684 9.45375H22.684L17.9987 4.80159ZM17.7771 2.46779C17.6366 2.32833 17.4466 2.25 17.2487 2.25H9.01043C6.9336 2.25 5.25 3.9336 5.25 6.01043V24.0086C5.25 26.0855 6.9336 27.7691 9.01043 27.7691H21.494C23.5708 27.7691 25.2544 26.0855 25.2544 24.0086V10.2522C25.2682 10.0397 25.1909 9.82688 25.0343 9.67146L17.7771 2.46779Z" fill="#2B63D9"/>
<path fill-rule="evenodd" clip-rule="evenodd" d="M13.4407 11.362C13.7457 11.6423 13.7657 12.1168 13.4854 12.4217L10.7546 15.3931C10.4758 15.6965 10.0045 15.7181 9.69907 15.4416L8.46807 14.3274C8.16098 14.0494 8.13737 13.5751 8.41534 13.268C8.69331 12.9609 9.1676 12.9373 9.47469 13.2153L10.1538 13.83L12.381 11.4067C12.6613 11.1017 13.1358 11.0817 13.4407 11.362ZM13.966 14.0932C13.966 13.679 14.3018 13.3432 14.716 13.3432H20.0645C20.4787 13.3432 20.8145 13.679 20.8145 14.0932C20.8145 14.5074 20.4787 14.8432 20.0645 14.8432H14.716C14.3018 14.8432 13.966 14.5074 13.966 14.0932ZM13.4407 17.3048C13.7457 17.5851 13.7657 18.0595 13.4854 18.3645L10.7546 21.3359C10.4758 21.6392 10.0045 21.6609 9.69907 21.3844L8.46807 20.2701C8.16098 19.9922 8.13737 19.5179 8.41534 19.2108C8.69331 18.9037 9.1676 18.8801 9.47469 19.1581L10.1538 19.7728L12.381 17.3495C12.6613 17.0445 13.1358 17.0245 13.4407 17.3048ZM13.966 20.036C13.966 19.6218 14.3018 19.286 14.716 19.286H20.0645C20.4787 19.286 20.8145 19.6218 20.8145 20.036C20.8145 20.4502 20.4787 20.786 20.0645 20.786H14.716C14.3018 20.786 13.966 20.4502 13.966 20.036Z" fill="#2B63D9"/>
</svg>
