<svg width="32" height="32" viewBox="0 0 32 32" fill="none" xmlns="http://www.w3.org/2000/svg">
<path d="M27.4546 25.3636V10.3182C27.4546 9.48975 26.783 8.81818 25.9546 8.81818H6.04547C5.21704 8.81818 4.54547 9.48975 4.54547 10.3182V25.3636" stroke="#2B63D9" stroke-width="1.5" stroke-linecap="round"/>
<line x1="2.75" y1="25.8864" x2="29.25" y2="25.8864" stroke="#2B63D9" stroke-width="1.5" stroke-linecap="round"/>
<path d="M8.36365 8.81818L15.1056 5.44721C15.6686 5.16569 16.3314 5.16569 16.8944 5.44721L23.6364 8.81818" stroke="#2B63D9" stroke-width="1.5" stroke-linecap="round"/>
<circle cx="16" cy="6.27273" r="1.27273" fill="#2B63D9"/>
<path d="M14 17.3181H18M22 17.3181C22 20.6318 19.3137 23.3181 16 23.3181C12.6863 23.3181 10 20.6318 10 17.3181C10 14.0044 12.6863 11.3181 16 11.3181C19.3137 11.3181 22 14.0044 22 17.3181Z" stroke="#2B63D9" stroke-width="1.5" stroke-linecap="round"/>
</svg>
