<svg width="16" height="16" viewBox="0 0 16 16" fill="none" xmlns="http://www.w3.org/2000/svg">
<circle opacity="0.15" cx="9.5" cy="8.5" r="5.5" fill="#2B63D9"/>
<path fill-rule="evenodd" clip-rule="evenodd" d="M7.5 2.5C7.5 2.22386 7.72386 2 8 2C11.3137 2 14 4.68629 14 8C14 11.3137 11.3137 14 8 14C4.68629 14 2 11.3137 2 8C2 6.90797 2.29219 5.88267 2.803 4.99964C2.9628 4.7234 3.18288 4.36248 3.51569 4H2.5C2.22386 4 2 3.77614 2 3.5C2 3.22386 2.22386 3 2.5 3H5C5.27614 3 5.5 3.22386 5.5 3.5V6C5.5 6.27614 5.27614 6.5 5 6.5C4.72386 6.5 4.5 6.27614 4.5 6V4.43303C4.09905 4.78729 3.85426 5.17943 3.6686 5.50036C3.24347 6.23529 3 7.08845 3 8C3 10.7614 5.23858 13 8 13C10.7614 13 13 10.7614 13 8C13 5.23858 10.7614 3 8 3C7.72386 3 7.5 2.77614 7.5 2.5ZM7.91193 4.50001C8.18807 4.49993 8.412 4.72371 8.41209 4.99986L8.413 7.91315L10.4991 7.91315C10.7752 7.91315 10.9991 8.13701 10.9991 8.41315C10.9991 8.68929 10.7752 8.91315 10.4991 8.91315L7.91315 8.91315C7.63707 8.91315 7.41324 8.68939 7.41315 8.41331L7.41209 5.00017C7.412 4.72403 7.63579 4.5001 7.91193 4.50001Z" fill="#2B63D9"/>
</svg>
