<svg width="32" height="32" viewBox="0 0 32 32" fill="none" xmlns="http://www.w3.org/2000/svg">
<g clip-path="url(#clip0)">
<g opacity="0.15">
<path d="M24.0618 20.0634C24.0188 20.0634 23.9766 20.0667 23.9354 20.0729C23.7139 20.0394 23.4796 20.0942 23.2908 20.244L19.6297 23.1494V20.9364C19.6306 20.9202 19.6311 20.9039 19.6311 20.8875C19.6311 20.4324 19.2592 20.0634 18.8004 20.0634H14.7115C13.9497 20.0634 13.2828 19.6602 12.9159 19.0571C12.1378 19.7018 11.1453 20.0888 10.0652 20.0888C7.57309 20.0888 5.5465 18.03 5.5465 15.4963C5.5465 12.9626 7.57463 10.9023 10.0652 10.9023C11.0106 10.9023 11.8894 11.1989 12.6159 11.7056V7.88442C12.6159 6.73635 13.5541 5.80566 14.7115 5.80566H29.9045C31.0618 5.80566 32.0001 6.73635 32.0001 7.88442V17.9847C32.0001 19.1327 31.0618 20.0634 29.9045 20.0634H24.0618Z" fill="#2B63D9"/>
<path d="M11.0638 22.6818C12.8046 22.6818 14.444 23.2473 15.6808 24.2736C16.9115 25.2952 17.5906 26.6432 17.5906 28.0694C17.5906 28.2959 17.3648 28.4802 17.0882 28.4802H3.0327C2.7546 28.4802 2.53027 28.2959 2.53027 28.0694C2.53027 26.6432 3.20785 25.2952 4.43856 24.2736C5.6754 23.2473 7.31481 22.6818 9.05561 22.6818H11.0638Z" fill="#2B63D9"/>
</g>
<path d="M13.0277 3C11.1165 3 9.56717 4.54931 9.56717 6.46049V9.37637C9.56717 9.79896 9.90975 10.1415 10.3323 10.1415C10.7549 10.1415 11.0975 9.79896 11.0975 9.37637V6.46049C11.0975 5.39449 11.9617 4.53033 13.0277 4.53033H27.0212C28.0872 4.53033 28.9513 5.39449 28.9513 6.46049V15.8387C28.9513 16.9047 28.0872 17.7689 27.0212 17.7689H22.5494C21.7918 17.7689 21.0551 18.0175 20.4525 18.4766L17.5581 20.6815V18.5341C17.5581 18.1115 17.2155 17.7689 16.7929 17.7689H13.5848C13.1622 17.7689 12.8196 18.1115 12.8196 18.5341C12.8196 18.9567 13.1622 19.2992 13.5848 19.2992H16.0277V22.2263C16.0277 22.5171 16.1926 22.7829 16.4533 22.9119C16.7139 23.041 17.0252 23.0112 17.2566 22.835L21.3798 19.694C21.716 19.4379 22.1269 19.2992 22.5494 19.2992H27.0212C28.9323 19.2992 30.4817 17.7499 30.4817 15.8387V6.46049C30.4817 4.54931 28.9323 3 27.0212 3H13.0277Z" fill="#2B63D9"/>
<path d="M15.6765 8.61121C15.2539 8.61121 14.9114 8.95378 14.9114 9.37637C14.9114 9.79896 15.2539 10.1415 15.6765 10.1415H24.8585C25.2811 10.1415 25.6237 9.79896 25.6237 9.37637C25.6237 8.95378 25.2811 8.61121 24.8585 8.61121H15.6765Z" fill="#2B63D9"/>
<path d="M15.6247 12.6921C15.2021 12.6921 14.8596 13.0347 14.8596 13.4572C14.8596 13.8798 15.2021 14.2224 15.6247 14.2224H24.8067C25.2293 14.2224 25.5719 13.8798 25.5719 13.4572C25.5719 13.0347 25.2293 12.6921 24.8067 12.6921H15.6247Z" fill="#2B63D9"/>
<path d="M1.59702 28.2503C1.59702 26.8887 2.11451 25.6102 3.05513 24.6396C3.99818 23.6653 5.22714 23.1445 6.52534 23.1445H8.53503C9.83236 23.1445 11.0613 23.6656 12.0053 24.6396C12.9459 25.6102 13.4633 26.8889 13.4633 28.2504C13.4633 29.622 15.0604 29.622 15.0604 28.2504C15.0604 26.4759 14.3828 24.7981 13.1521 23.5282C11.9152 22.252 10.2758 21.5475 8.53503 21.5475H6.52534C4.78453 21.5475 3.14513 22.2504 1.90828 23.5282C0.677578 24.7981 0 26.4758 0 28.2503C0 29.6218 1.59702 29.6218 1.59702 28.2503Z" fill="#2B63D9"/>
<path fill-rule="evenodd" clip-rule="evenodd" d="M7.51477 10.7478C5.02417 10.7478 2.99604 12.8081 2.99604 15.3418C2.99604 17.8755 5.02263 19.9343 7.51477 19.9343C10.0069 19.9343 12.0335 17.8739 12.0335 15.3403C12.0335 12.8066 10.0054 10.7478 7.51477 10.7478ZM4.59306 15.3418C4.59306 13.6655 5.93061 12.3448 7.51477 12.3448C9.09963 12.3448 10.4365 13.6647 10.4365 15.3403C10.4365 17.0169 9.10011 18.3373 7.51477 18.3373C5.92872 18.3373 4.59306 17.0177 4.59306 15.3418Z" fill="#2B63D9"/>
</g>
<defs>
<clipPath id="clip0">
<rect width="32" height="32" fill="white"/>
</clipPath>
</defs>
</svg>
