<svg width="25" height="23" viewBox="0 0 25 23" fill="none" xmlns="http://www.w3.org/2000/svg">
<path fill-rule="evenodd" clip-rule="evenodd" d="M1.5 20.5252C1.5 20.822 1.74061 21.0626 2.03742 21.0626H5.23908C5.53589 21.0626 5.7765 20.822 5.7765 20.5252L5.7765 2.03751C5.7765 1.7407 5.53589 1.50009 5.23908 1.50009L2.03742 1.50009C1.74061 1.50009 1.5 1.7407 1.5 2.03751L1.5 20.5252ZM7.24805 1.69625C7.08569 0.73348 6.24803 9.15527e-05 5.23908 9.15527e-05H2.03742C0.912184 9.15527e-05 0 0.912279 0 2.03751V20.5252C0 21.6505 0.912186 22.5626 2.03742 22.5626H5.23908C6.24798 22.5626 7.08561 21.8293 7.24802 20.8666C7.26674 20.7557 7.27649 20.6417 7.2765 20.5254C7.2765 20.5255 7.2765 20.5253 7.2765 20.5254L7.2765 2.03772C7.2765 1.92143 7.26676 1.80721 7.24805 1.69625ZM8.76026 1.6963C8.74154 1.80725 8.73179 1.92124 8.73178 2.03751C8.73178 2.03744 8.73178 2.03758 8.73178 2.03751L8.73178 20.5252C8.73178 20.6415 8.74152 20.7557 8.76023 20.8667C8.92259 21.8295 9.76025 22.5628 10.7692 22.5628H13.9709C14.8518 22.5628 15.6022 22.0037 15.8865 21.221C15.9653 21.0039 16.0083 20.7697 16.0083 20.5254V2.03771C16.0083 2.03778 16.0083 2.03765 16.0083 2.03771C16.0083 1.79346 15.9652 1.55904 15.8864 1.34203C15.6021 0.559351 14.8518 0.00029419 13.9709 0.000294236L10.7692 0.000294403C9.7603 0.000294455 8.92268 0.733609 8.76026 1.6963ZM17.4399 1.34197C17.3611 1.559 17.3181 1.79324 17.3181 2.03751V20.5252C17.3181 20.5253 17.3181 20.5252 17.3181 20.5252C17.3181 20.7695 17.3611 21.0039 17.4399 21.2209C17.7242 22.0036 18.4746 22.5626 19.3555 22.5626H22.5571C23.6824 22.5626 24.5946 21.6504 24.5946 20.5252V2.03751C24.5946 0.912277 23.6824 9.15527e-05 22.5571 9.15527e-05H19.3555C18.4745 9.15527e-05 17.7242 0.559216 17.4399 1.34197ZM10.2318 20.5254C10.2318 20.8222 10.4724 21.0628 10.7692 21.0628H13.9709C14.2677 21.0628 14.5083 20.8222 14.5083 20.5254V2.03771C14.5083 1.74091 14.2677 1.50029 13.9709 1.50029L10.7692 1.50029C10.4724 1.50029 10.2318 1.74091 10.2318 2.03772L10.2318 20.5254ZM18.8181 20.5252C18.8181 20.822 19.0587 21.0626 19.3555 21.0626H22.5571C22.854 21.0626 23.0946 20.822 23.0946 20.5252V2.03751C23.0946 1.74071 22.854 1.50009 22.5571 1.50009L19.3555 1.50009C19.0587 1.50009 18.8181 1.7407 18.8181 2.03751V20.5252Z" fill="#2B63D9"/>
</svg>
