<svg width="32" height="32" viewBox="0 0 32 32" fill="none" xmlns="http://www.w3.org/2000/svg">
<path opacity="0.15" d="M8.92 11C7.30733 11 6 12.3073 6 13.92V23.08C6 24.6927 7.30733 26 8.92 26H22.08C23.6927 26 25 24.6927 25 23.08V21.9907L28.4843 24.0878C29.1508 24.4889 30 24.0089 30 23.231V13.769C30 12.9911 29.1508 12.5111 28.4843 12.9122L25 15.0093V13.92C25 12.3073 23.6927 11 22.08 11H8.92Z" fill="#2B63D9"/>
<path d="M16.25 15.6658C16.5833 15.8583 16.5833 16.3394 16.25 16.5318L11.75 19.1299C11.4167 19.3224 11 19.0818 11 18.6969L11 13.5007C11 13.1158 11.4167 12.8753 11.75 13.0677L16.25 15.6658Z" fill="#2B63D9"/>
<path fill-rule="evenodd" clip-rule="evenodd" d="M3.25 11.92C3.25 9.89312 4.89311 8.25 6.92 8.25H19.08C21.1069 8.25 22.75 9.89311 22.75 11.92V12.0587L26.1501 10.1697C27.3166 9.52172 28.75 10.3652 28.75 11.6995V20.3005C28.75 21.6348 27.3166 22.4783 26.1501 21.8303L22.75 19.9413V20.48C22.75 22.5069 21.1069 24.15 19.08 24.15H6.92C4.89311 24.15 3.25 22.5069 3.25 20.48V11.92ZM22.75 18.2254L26.8786 20.519C27.0452 20.6116 27.25 20.4911 27.25 20.3005V11.6995C27.25 11.5089 27.0452 11.3884 26.8786 11.481L22.75 13.7746V18.2254ZM6.92 9.75C5.72154 9.75 4.75 10.7215 4.75 11.92V20.48C4.75 21.6785 5.72154 22.65 6.92 22.65H19.08C20.2785 22.65 21.25 21.6785 21.25 20.48V11.92C21.25 10.7215 20.2785 9.75 19.08 9.75H6.92Z" fill="#2B63D9"/>
</svg>
