<svg width="32" height="32" viewBox="0 0 32 32" fill="none" xmlns="http://www.w3.org/2000/svg">
<path opacity="0.15" fill-rule="evenodd" clip-rule="evenodd" d="M25.0005 4.5H12.0005V8.06023C12.0005 9.53238 12.7513 10.9301 14.0536 11.8826L18.5005 15.1347L22.9474 11.8826C24.2497 10.9301 25.0005 9.53238 25.0005 8.06023V4.5ZM18.5005 18.7478L14.0536 22C12.7513 22.9524 12.0005 24.3502 12.0005 25.8223V28.7928H25.0005V25.8223C25.0005 24.3502 24.2497 22.9524 22.9474 22L18.5005 18.7478Z" fill="#2B63D9"/>
<path fill-rule="evenodd" clip-rule="evenodd" d="M5.25 4C5.25 3.58579 5.58579 3.25 6 3.25H25.9286C26.3428 3.25 26.6786 3.58579 26.6786 4C26.6786 4.41421 26.3428 4.75 25.9286 4.75H23.9653V8.68412C23.9653 10.4387 23.1642 12.0973 21.7898 13.188L17.4215 16.655L21.7893 20.1215C23.1637 21.2122 23.9648 22.8708 23.9648 24.6254V28.25H25.9291C26.3433 28.25 26.6791 28.5858 26.6791 29C26.6791 29.4142 26.3433 29.75 25.9291 29.75H6.00056C5.58634 29.75 5.25056 29.4142 5.25056 29C5.25056 28.5858 5.58634 28.25 6.00056 28.25H8.46529V24.6254C8.46529 22.8708 9.26641 21.2122 10.6408 20.1215L15.0086 16.655L10.6403 13.188C9.26591 12.0973 8.46479 10.4387 8.46479 8.68412V4.75H6C5.58579 4.75 5.25 4.41421 5.25 4ZM9.96479 4.75V8.68412C9.96479 9.98099 10.5569 11.2069 11.5727 12.0131L16.215 15.6975L20.8573 12.0131C21.8732 11.2069 22.4653 9.98099 22.4653 8.68412V4.75H9.96479ZM16.215 17.6125L11.5732 21.2964C10.5574 22.1026 9.96529 23.3285 9.96529 24.6254V28.25H22.4648V24.6254C22.4648 23.3285 21.8727 22.1026 20.8568 21.2964L16.215 17.6125ZM16.5425 20.2716C16.8067 20.5906 16.7623 21.0634 16.4433 21.3276L13.7067 23.594C13.0745 24.1176 12.7149 24.8812 12.7149 25.68C12.7149 26.0942 12.3791 26.43 11.9649 26.43C11.5507 26.43 11.2149 26.0942 11.2149 25.68C11.2149 24.427 11.7793 23.2425 12.75 22.4387L15.4865 20.1724C15.8055 19.9082 16.2783 19.9526 16.5425 20.2716Z" fill="#2B63D9"/>
</svg>
