<svg width="16" height="16" viewBox="0 0 16 16" fill="none" xmlns="http://www.w3.org/2000/svg">
<path d="M6.97463 4.1C7.82141 2.63333 9.93836 2.63333 10.7851 4.1L14.5957 10.7C15.4424 12.1667 14.384 14 12.6904 14H5.06937C3.37581 14 2.31734 12.1667 3.16412 10.7L6.97463 4.1Z" fill="#FEF2CD"/>
<path fill-rule="evenodd" clip-rule="evenodd" d="M12.5293 11L8.19914 3.5C7.81424 2.83333 6.85199 2.83333 6.46709 3.5L2.13696 11C1.75206 11.6667 2.23318 12.5 3.00298 12.5H11.6632C12.433 12.5 12.9142 11.6667 12.5293 11ZM9.06516 3C8.29536 1.66667 6.37086 1.66667 5.60106 3L1.27093 10.5C0.501133 11.8333 1.46338 13.5 3.00298 13.5H11.6632C13.2028 13.5 14.1651 11.8333 13.3953 10.5L9.06516 3Z" fill="#FBBC04"/>
<path fill-rule="evenodd" clip-rule="evenodd" d="M7.33309 4.44063C7.60923 4.44063 7.83309 4.66449 7.83309 4.94063L7.83309 8.94063C7.83309 9.21678 7.60923 9.44063 7.33309 9.44063C7.05694 9.44063 6.83309 9.21678 6.83309 8.94063L6.83309 4.94063C6.83309 4.66449 7.05694 4.44063 7.33309 4.44063ZM7.33309 10.4406C7.60923 10.4406 7.83309 10.6645 7.83309 10.9406V11C7.83309 11.2762 7.60923 11.5 7.33309 11.5C7.05694 11.5 6.83309 11.2762 6.83309 11V10.9406C6.83309 10.6645 7.05694 10.4406 7.33309 10.4406Z" fill="#FBBC04"/>
</svg>
