<svg width="32" height="32" viewBox="0 0 32 32" fill="none" xmlns="http://www.w3.org/2000/svg">
<path d="M15.7033 9C16.4669 7.66667 18.3761 7.66667 19.1398 9L27.7311 24C28.4948 25.3333 27.5402 27 26.0129 27H8.83019C7.30284 27 6.34824 25.3333 7.11192 24L15.7033 9Z" fill="#FEF2CD"/>
<path fill-rule="evenodd" clip-rule="evenodd" d="M15.4375 21.6216C15.8517 21.6216 16.1875 21.9574 16.1875 22.3716V22.5003C16.1875 22.9145 15.8517 23.2503 15.4375 23.2503C15.0233 23.2503 14.6875 22.9145 14.6875 22.5003V22.3716C14.6875 21.9574 15.0233 21.6216 15.4375 21.6216ZM15.4375 11.6216C15.8517 11.6216 16.1875 11.9574 16.1875 12.3716V19.3716C16.1875 19.7858 15.8517 20.1216 15.4375 20.1216C15.0233 20.1216 14.6875 19.7858 14.6875 19.3716V12.3716C14.6875 11.9574 15.0233 11.6216 15.4375 11.6216ZM13.7193 7L15.0209 7.74551L5.5704 24.2455C5.36919 24.5968 5.63272 25 5.98704 25H24.888C25.2423 25 25.5059 24.5968 25.3047 24.2455L15.8542 7.74551C15.6667 7.41816 15.2084 7.41816 15.0209 7.74551L13.7193 7ZM17.1558 7C16.3921 5.66667 14.4829 5.66667 13.7193 7L4.26878 23.5C3.5051 24.8333 4.45969 26.5 5.98704 26.5H24.888C26.4154 26.5 27.3699 24.8333 26.6063 23.5L17.1558 7Z" fill="#FBBC04"/>
</svg>
