<svg width="32" height="32" viewBox="0 0 32 32" fill="none" xmlns="http://www.w3.org/2000/svg">
<path opacity="0.15" d="M30.4301 13.1846V26.9606C30.4301 28.6392 29.0693 30 27.3906 30H14.9695C13.2909 30 11.9301 28.6392 11.9301 26.9606V9.0194C11.9301 7.34078 13.2909 5.97998 14.9695 5.97998H23.176L30.4301 13.1846Z" fill="#2B63D9"/>
<path fill-rule="evenodd" clip-rule="evenodd" d="M12.9292 4.75C11.698 4.75 10.7 5.74805 10.7 6.97921V24.7908C10.7 26.0219 11.698 27.02 12.9292 27.02H25.1042C26.3354 27.02 27.3334 26.0219 27.3334 24.7908V11.8795L23.1966 11.879C23.1966 11.879 23.1966 11.879 23.1966 11.879C21.6401 11.879 20.2231 10.6075 20.2231 8.96782V4.75H12.9292ZM21.7231 5.81414L26.276 10.3794L23.1967 10.379C22.4042 10.379 21.7231 9.71623 21.7231 8.96782V5.81414ZM9.19995 6.97921C9.19995 4.91963 10.8696 3.25 12.9292 3.25H20.9731C21.1724 3.25 21.3635 3.3293 21.5042 3.47039L28.6145 10.6C28.7547 10.7406 28.8334 10.931 28.8334 11.1296V24.7908C28.8334 26.8504 27.1638 28.52 25.1042 28.52H12.9292C10.8696 28.52 9.19995 26.8504 9.19995 24.7908V6.97921Z" fill="#2B63D9"/>
<rect x="3.03345" y="15.5425" width="21.9332" height="8.615" rx="2" fill="#2B63D9"/>
<path d="M10.3614 19.7915C10.3614 20.8775 10.0524 21.6965 9.43445 22.2485C8.81645 22.7945 7.95545 23.0675 6.85145 23.0675H5.03345V16.6415H7.04945C7.72145 16.6415 8.30345 16.7615 8.79545 17.0015C9.29345 17.2415 9.67745 17.5955 9.94745 18.0635C10.2234 18.5315 10.3614 19.1075 10.3614 19.7915ZM8.94845 19.8275C8.94845 19.1195 8.79245 18.5975 8.48045 18.2615C8.16845 17.9255 7.71545 17.7575 7.12145 17.7575H6.39245V21.9425H6.97745C8.29145 21.9425 8.94845 21.2375 8.94845 19.8275Z" fill="white"/>
<path d="M17.2776 19.8455C17.2776 20.5115 17.1666 21.0935 16.9446 21.5915C16.7286 22.0835 16.3926 22.4675 15.9366 22.7435C15.4866 23.0195 14.9136 23.1575 14.2176 23.1575C13.5216 23.1575 12.9456 23.0195 12.4896 22.7435C12.0396 22.4675 11.7036 22.0805 11.4816 21.5825C11.2656 21.0845 11.1576 20.5025 11.1576 19.8365C11.1576 19.1705 11.2656 18.5915 11.4816 18.0995C11.7036 17.6075 12.0396 17.2265 12.4896 16.9565C12.9456 16.6805 13.5246 16.5425 14.2266 16.5425C14.9226 16.5425 15.4956 16.6805 15.9456 16.9565C16.3956 17.2265 16.7286 17.6105 16.9446 18.1085C17.1666 18.6005 17.2776 19.1795 17.2776 19.8455ZM12.5886 19.8455C12.5886 20.5175 12.7176 21.0485 12.9756 21.4385C13.2336 21.8225 13.6476 22.0145 14.2176 22.0145C14.7996 22.0145 15.2166 21.8225 15.4686 21.4385C15.7206 21.0485 15.8466 20.5175 15.8466 19.8455C15.8466 19.1735 15.7206 18.6455 15.4686 18.2615C15.2166 17.8715 14.8026 17.6765 14.2266 17.6765C13.6506 17.6765 13.2336 17.8715 12.9756 18.2615C12.7176 18.6455 12.5886 19.1735 12.5886 19.8455Z" fill="white"/>
<path d="M21.0856 17.6855C20.5636 17.6855 20.1646 17.8805 19.8886 18.2705C19.6126 18.6605 19.4746 19.1945 19.4746 19.8725C19.4746 20.5565 19.6006 21.0875 19.8526 21.4655C20.1106 21.8375 20.5216 22.0235 21.0856 22.0235C21.3436 22.0235 21.6046 21.9935 21.8686 21.9335C22.1326 21.8735 22.4176 21.7895 22.7236 21.6815V22.8245C22.4416 22.9385 22.1626 23.0225 21.8866 23.0765C21.6106 23.1305 21.3016 23.1575 20.9596 23.1575C20.2936 23.1575 19.7476 23.0225 19.3216 22.7525C18.8956 22.4765 18.5806 22.0925 18.3766 21.6005C18.1726 21.1025 18.0706 20.5235 18.0706 19.8635C18.0706 19.2155 18.1876 18.6425 18.4216 18.1445C18.6556 17.6465 18.9946 17.2565 19.4386 16.9745C19.8886 16.6925 20.4376 16.5515 21.0856 16.5515C21.4036 16.5515 21.7216 16.5935 22.0396 16.6775C22.3636 16.7555 22.6726 16.8635 22.9666 17.0015L22.5256 18.1085C22.2856 17.9945 22.0426 17.8955 21.7966 17.8115C21.5566 17.7275 21.3196 17.6855 21.0856 17.6855Z" fill="white"/>
</svg>
